<svg width="384" height="277" viewBox="0 0 384 277" fill="none" xmlns="http://www.w3.org/2000/svg">
<g clip-path="url(#clip0_466_12216)">
<path d="M367.431 275.984C343.208 275.984 15.731 275.279 15.731 275.24C15.5953 274.923 -25.8406 224.206 26.3359 171.18C52.1896 144.907 2.59408 110.868 26.3359 81.6419C67.0052 31.5791 107.245 59.7739 140.766 45.6936C146.689 43.2076 152.633 39.2085 158.582 33.0694C161.932 29.6171 165.601 26.5989 169.531 23.9921C170.134 23.5906 170.742 23.1988 171.356 22.8185C173.709 21.3609 176.149 20.0436 178.661 18.8585C180.35 18.0636 182.068 17.3291 183.82 16.6533C186.599 15.5809 189.454 14.6553 192.37 13.8735C196.512 12.7619 200.775 11.9343 205.123 11.3744C207.019 11.1279 208.932 10.9353 210.859 10.79C248.316 7.97758 290.468 23.7946 312.222 46.913C316.601 51.5683 336.516 75.6546 320.818 108.763C310.906 129.666 352.43 149.629 367.185 173.5C404.7 234.187 367.771 275.193 367.429 275.984H367.431Z" fill="#EBF3FA"/>
<g opacity="0.8">
<path d="M282.679 134.884C281.679 137.63 280.453 140.232 279.026 142.67C275.602 148.524 271.035 153.445 265.722 157.25C253.38 166.094 237.02 168.9 221.665 163.326C203.399 156.695 191.666 140.065 190.417 121.873C190.25 119.475 190.267 117.051 190.477 114.619C190.824 110.535 191.713 106.428 193.181 102.395C194.369 99.132 195.878 96.0763 197.658 93.2541C197.678 93.2214 197.699 93.1904 197.719 93.1578C202.661 85.3619 209.682 79.3435 217.757 75.5713C220.047 74.5005 222.423 73.6109 224.862 72.9139C226.024 72.5809 227.204 72.292 228.391 72.0504C236.722 70.3381 245.616 70.836 254.199 73.952C255.336 74.365 256.45 74.8172 257.535 75.3069C259.068 75.9941 260.547 76.7563 261.971 77.5856C267.968 81.0771 272.986 85.7634 276.834 91.2186H276.836C279.234 94.6154 281.174 98.3093 282.611 102.199C283.366 104.243 283.982 106.339 284.451 108.475C284.744 109.806 284.979 111.147 285.157 112.505C285.585 115.765 285.674 119.09 285.406 122.433C285.069 126.591 284.175 130.776 282.679 134.888V134.884Z" fill="#D7E5FF"/>
<path d="M230.009 93.1185C227.196 95.2944 227.942 101.117 223.071 97.8359C218.2 94.5533 215.143 92.7692 213.763 95.6339C212.382 98.4986 216.699 100.066 215.563 103.187C214.427 106.308 212.116 106.637 209.68 104.075C207.242 101.512 207.171 99.0454 203.225 99.1271C199.278 99.2087 197.594 97.5878 197.787 94.6284C197.82 94.1077 197.768 93.6572 197.658 93.2556C197.678 93.223 197.699 93.192 197.719 93.1593C202.662 85.3635 209.682 79.3451 217.757 75.5729C220.047 74.5021 222.423 73.6125 224.862 72.9155C226.024 72.5825 227.204 72.2936 228.391 72.052C229.767 72.6103 231.243 73.7431 232.025 76.0152C233.743 81.015 236.529 79.8381 234.163 84.0266C231.794 88.2135 232.77 89.2418 235.353 90.0106C237.937 90.7794 240.913 91.86 240.508 93.9004C240.101 95.9408 232.824 90.941 230.009 93.1185Z" fill="#AEC3FF"/>
<path d="M282.679 134.884C281.679 137.63 280.453 140.232 279.026 142.67C275.602 148.524 271.035 153.445 265.723 157.25C264.399 157.209 263.194 156.76 262.179 155.855C257.409 151.599 263.73 147.081 267.058 144.881C270.386 142.682 264.207 141.952 261.092 137.667C257.976 133.383 265.271 127.575 260.583 127.261C255.896 126.948 250.194 126.644 249.24 121.63C248.285 116.616 253.217 117.647 252.354 113.423C251.49 109.198 255.569 108.407 259.931 109.613C264.294 110.818 264.832 107.607 270.239 109.064C275.648 110.522 273.101 117.169 279.067 118.831C285.033 120.492 284.284 121.734 284.284 121.734C284.706 121.875 285.08 122.11 285.404 122.428C285.067 126.586 284.173 130.771 282.678 134.883L282.679 134.884Z" fill="#AEC3FF"/>
<path d="M285.157 112.504C279.477 113.096 279.861 106.015 275.039 106.437C270.177 106.859 272.257 103.407 269.851 99.8421C267.442 96.2771 259.326 98.2097 260.976 94.6007C262.625 90.995 267.158 93.8156 269.281 91.2235C271.404 88.6297 275.896 91.1011 275.896 91.1011C276.203 91.0962 276.517 91.1353 276.834 91.2186C276.834 91.2186 276.834 91.217 276.836 91.2186C279.234 94.6154 281.174 98.3077 282.611 102.199C283.366 104.243 283.982 106.339 284.451 108.475C284.744 109.806 284.979 111.147 285.157 112.505V112.504Z" fill="#AEC3FF"/>
<path d="M249.164 84.9292C249.164 84.9292 253.02 82.2033 249.395 79.6683C245.768 77.135 245.33 78.5698 242.327 77.1023C239.323 75.6349 237.216 77.6051 238.6 81.0933C239.983 84.5815 240.039 90.3322 243.141 88.4044C246.244 86.4766 246.579 84.2845 249.166 84.9292H249.164Z" fill="#AEC3FF"/>
</g>
<path d="M26.5467 275.374H43.1537C44.0429 274.62 42.5375 272.907 40.965 272.793C40.2818 272.741 39.4171 272.884 38.4299 273.092C38.201 270.061 36.8966 256.434 31.9783 256.983C26.4486 257.596 31.9783 262.983 33.5409 266.172C34.6998 268.534 35.9208 271.923 36.4782 273.523C36.0287 273.619 35.5645 273.715 35.0888 273.802C34.3566 271.554 31.6285 263.995 28.16 264.436C24.0883 264.951 25.7245 267.983 28.6111 269.781C30.7278 271.105 33.3284 272.986 34.5641 273.893C33.518 274.065 32.4245 274.179 31.3163 274.153C28.4722 274.086 27.0828 274.922 26.545 275.372L26.5467 275.374Z" fill="#A8D29F"/>
<path d="M290.837 275.374H275.412C274.585 274.673 275.984 273.084 277.445 272.976C278.08 272.928 278.882 273.061 279.799 273.253C280.012 270.438 281.223 257.781 285.791 258.29C290.929 258.86 285.791 263.864 284.34 266.827C283.264 269.021 282.13 272.168 281.61 273.653C282.027 273.743 282.458 273.831 282.9 273.913C283.581 271.825 286.113 264.803 289.335 265.213C293.117 265.692 291.597 268.507 288.917 270.178C286.95 271.407 284.534 273.154 283.387 273.998C284.359 274.156 285.375 274.264 286.403 274.239C289.046 274.177 290.334 274.954 290.834 275.372L290.837 275.374Z" fill="#A8D29F"/>
<path d="M301.853 174.403C301.853 174.403 302.22 170.756 300.311 170.882C298.402 171.006 297.895 171.881 298.109 172.583C298.322 173.283 300.18 175.602 300.18 175.602L301.854 174.404L301.853 174.403Z" fill="#FFB27D"/>
<path d="M331.606 181.71C331.606 181.71 329.493 184.192 324.947 187.053C324.517 187.326 324.066 187.598 323.592 187.874C321.827 188.901 319.756 189.954 317.364 190.935C317.101 191.042 316.792 191.161 316.444 191.287C313.719 192.27 308.708 193.662 305.602 193.788C305.332 193.799 305.076 193.799 304.837 193.789C300.11 193.598 299.533 175.276 299.533 175.276C299.533 175.276 300.059 173.443 302.488 173.905C302.488 173.905 306.177 184.254 307.498 185.097C308.672 185.847 315.421 175.632 321.23 174.917C325.14 174.435 331.606 181.715 331.606 181.715V181.71Z" fill="#739AF0"/>
<path d="M318.906 271.066C318.906 271.066 319.255 275.099 318.401 275.519L307.474 275.496C307.474 275.496 307.474 274.236 309.229 273.957C310.985 273.678 314.067 272.651 314.589 270.366C315.11 268.081 318.906 271.066 318.906 271.066Z" fill="#1C3154"/>
<path d="M310.883 222.245C310.937 224.883 311.065 227.604 311.313 230.049C312.493 241.652 312.908 255.67 313.078 258.373C313.373 263.065 314.301 270.56 314.301 270.56C314.301 270.56 316.142 272.305 319.729 271.473C319.729 271.473 322.703 260.678 323.366 249.311C323.376 249.125 323.386 248.937 323.396 248.749C323.473 247.246 323.553 245.529 323.636 243.676C324.182 231.266 324.777 212.829 324.777 212.829L311.065 209.613C311.065 209.613 310.749 215.672 310.883 222.249V222.245Z" fill="#2A4E96"/>
<path d="M310.883 222.245C314.358 228.233 320.982 239.264 323.636 243.673C324.182 231.262 324.777 212.825 324.777 212.825L311.065 209.61C311.065 209.61 310.749 215.669 310.883 222.245Z" fill="#233862"/>
<path d="M316.444 191.285C313.719 192.268 308.708 193.66 305.602 193.786C306.078 193.698 309.536 193.012 310.815 191.472C312.188 189.813 314.501 185.311 316.341 187.149C317.207 188.014 316.952 189.723 316.444 191.287V191.285Z" fill="#6385DB"/>
<path d="M339.485 220.295C339.485 220.295 340.336 223.628 340.196 224.369C340.057 225.11 339.225 227.617 338.707 228.241C338.188 228.863 338.167 225.536 337.822 225.012C337.477 224.49 337.664 226.254 337.387 226.4C337.111 226.543 336.65 225.063 336.446 224.537C336.242 224.012 337.181 222.183 337.27 220.873C337.356 219.562 339.483 220.295 339.483 220.295H339.485Z" fill="#FFB27D"/>
<path d="M346.126 266.481C346.126 266.481 348.071 268.254 347.692 269.512C347.313 270.772 345.557 271.611 345.32 273.15C345.083 274.69 344.135 275.529 343.28 275.529H339.21C339.21 275.529 338.581 274.445 340.099 274.118C341.618 273.792 342.19 271.983 342.095 270.304C342 268.624 342.237 266.386 342.237 266.386L345.462 265.64L346.126 266.479V266.481Z" fill="#1C3154"/>
<path d="M313.226 213.106C313.226 213.106 326.062 240.532 332.892 252.565C339.723 264.599 341.858 267.958 341.858 267.958C341.858 267.958 345.771 266.419 346.127 265.369C346.127 265.369 343.515 242.137 338.94 236.474C336.356 233.275 333.319 223.67 333.177 220.313C333.035 216.955 330.035 208.939 330.035 208.939L313.226 213.106Z" fill="#2A4E96"/>
<path d="M310.833 211.68C310.833 211.68 315.012 216.172 322.114 217.528C325.231 218.124 331.559 218.7 333.128 216.483C333.496 215.963 333.499 215.192 333.417 213.989C333.206 210.863 332.418 204.819 335.974 192.673C336.305 191.543 336.528 190.46 336.657 189.426C337.433 183.212 337.348 178.522 331.951 176.017C323.862 172.263 320.542 175.351 320.542 175.351C320.542 175.351 316.24 177.359 314.273 183.209C310.342 194.911 310.831 211.678 310.831 211.678L310.833 211.68Z" fill="#739AF0"/>
<path d="M327.096 174.987C325.735 175.953 323.339 176.523 321.055 175.382C320.879 175.294 320.902 174.087 320.946 172.902C320.99 171.74 321.099 170.598 321.099 170.598L323.978 168.711L326.724 166.912C326.395 173.1 327.713 174.548 327.098 174.985L327.096 174.987Z" fill="#FFB27D"/>
<path d="M326.238 169.466C326.238 169.466 324.37 172.266 320.944 172.902C320.988 171.74 321.112 170.459 321.112 170.459L323.976 168.712L326.24 169.468L326.238 169.466Z" fill="#ED985F"/>
<path d="M318.52 169.871C318.52 169.871 325.483 172.467 327.033 168.182C328.582 163.897 330.524 161.347 326.144 159.509C321.763 157.671 320.303 158.997 319.432 160.301C318.561 161.605 316.748 169.086 318.52 169.871Z" fill="#FFB27D"/>
<path d="M331.371 159.989C331.451 159.927 331.613 159.896 331.953 159.945C331.953 159.945 331.717 159.725 331.361 159.645C331.382 159.165 331.297 158.292 330.535 157.934C330.535 157.934 330.921 158.249 330.88 158.755C330.14 157.619 328.285 156.532 322.685 155.879C315.303 155.019 316.779 160.138 317.611 160.877C318.443 161.617 321.111 160.566 322.837 161.05C324.563 161.535 324.396 164.13 324.921 164.594C325.447 165.059 325.334 164.398 326.21 164.194C327.087 163.99 326.9 165.337 326.496 166.156C326.093 166.976 326.972 168.337 326.972 168.337L328.327 167.356C329.682 166.375 331.742 161.493 331.449 160.308C331.423 160.203 331.398 160.097 331.372 159.991L331.371 159.989Z" fill="#2C3A64"/>
<path d="M333.419 213.991C333.208 210.865 332.42 204.821 335.975 192.675C336.307 191.545 336.529 190.461 336.658 189.428C334.017 188.558 329.205 190.492 329.205 190.492C329.205 190.492 328.074 206.548 333.42 213.989L333.419 213.991Z" fill="#6385DB"/>
<path d="M333.407 176.83C333.407 176.83 336.657 178.01 338.731 186.604C340.101 192.281 342.623 200.627 342.907 203.25C343.192 205.873 340.024 221.227 340.024 221.227C340.024 221.227 339.578 221.552 338.483 221.333C337.435 221.124 336.948 220.416 336.948 220.416C336.948 220.416 336.191 210.183 336.386 205.349C336.467 203.342 327.08 190.647 322.013 189.012C320.024 188.37 333.407 176.828 333.407 176.828V176.83Z" fill="#739AF0"/>
<path d="M287.947 165.706C287.947 165.706 297.341 165.44 308.181 167.433L309.314 164.583L310.556 161.46C310.556 161.46 299.674 156.782 293.132 150.266L287.947 165.706Z" fill="#AEC3FF"/>
<path d="M293.279 150.114L287.885 166.012C287.096 165.779 286.666 164.934 286.94 164.16L291.687 150.801C291.918 150.155 292.648 149.838 293.279 150.114Z" fill="#F99746"/>
<path d="M298.428 177.54C299.476 177.749 300.506 177.063 300.716 176.017L302.573 166.737C302.782 165.689 302.096 164.663 301.048 164.452C299.999 164.243 298.971 164.929 298.76 165.975L296.903 175.255C296.694 176.303 297.38 177.329 298.428 177.54Z" fill="#F99746"/>
<path d="M287.947 165.706C287.947 165.706 297.341 165.44 308.181 167.433L309.314 164.583C299.128 162.505 287.947 165.706 287.947 165.706Z" fill="#739AF0"/>
<path d="M305.184 166.86L308.119 167.375C308.075 167.377 310.846 167.914 311.754 165.461C311.838 165.293 311.892 165.128 311.929 164.932C312.636 161.875 310.955 161.311 310.955 161.311L307.178 159.841L305.978 164.083V164.098L305.187 166.86H305.184Z" fill="#F99746"/>
<path d="M305.184 166.86L308.119 167.376C308.075 167.377 310.846 167.914 311.754 165.461C310.094 164.255 305.976 164.082 305.976 164.082V164.096L305.185 166.858L305.184 166.86Z" fill="#ED7D2B"/>
<path d="M298.678 168.554C298.678 168.554 300.115 169.125 299.85 169.757C299.587 170.389 297.761 171.257 297.473 170.759C297.186 170.261 297.774 168.022 298.678 168.556V168.554Z" fill="#FFB27D"/>
<path d="M301.88 173.828C301.88 173.828 302.152 172.361 302.168 171.686C302.184 171.012 302.264 170.462 302.106 170.443C301.947 170.423 301.831 170.547 301.767 170.764C301.702 170.981 301.454 172.325 301.454 172.325L301.579 173.622L301.882 173.826L301.88 173.828Z" fill="#FFB27D"/>
<path d="M159.851 172.872L151.716 269.471C151.716 269.471 150.864 275.326 155.225 275.338C162.396 275.354 190.92 275.338 190.92 275.338C190.92 275.338 185.523 274.119 185.588 271.376C185.665 268.144 195.097 171.957 195.097 171.957L159.851 172.872Z" fill="#7599EA"/>
<path d="M193.604 273.624C192.194 273.629 164.58 273.674 157.595 273.585C154.552 273.547 154.017 270.882 153.993 269.158C153.979 268.332 154.086 267.72 154.086 267.72L154.297 265.209L154.836 258.811L155.312 253.156L155.925 245.891L156.439 239.758L162.221 171.117L197.467 170.203C197.467 170.203 193.495 210.457 190.685 239.757C190.371 243.021 190.074 246.152 189.797 249.074C189.708 250.008 189.622 250.919 189.537 251.806C189.278 254.578 189.039 257.125 188.831 259.372C188.722 260.557 188.621 261.657 188.531 262.666C188.173 266.618 187.962 269.142 187.959 269.621C187.959 269.901 187.981 270.162 188.027 270.403C188.606 273.482 193.075 273.621 193.604 273.621V273.624Z" fill="#90AFF4"/>
<path d="M74.2559 120.305L94.0715 199.795L96.7849 210.682L106.015 247.706H277.488L243.468 120.305H74.2559Z" fill="#AEC3FF"/>
<path d="M74.256 120.305L71.5083 121.219L102.364 250.471L106.015 247.706L74.256 120.305Z" fill="#90AFF4"/>
<path d="M102.364 250.471H272.78L277.486 247.706H106.015L102.364 250.471Z" fill="#7599EA"/>
<path d="M162.208 275.374H199.106V273.622H162.208V275.374Z" fill="#AEC3FF"/>
<path d="M189.727 250.47L189.537 251.81L154.836 258.809L155.312 253.156L155.539 250.47H189.727Z" fill="#5888DD"/>
<path opacity="0.4" d="M193.604 273.624C192.194 273.629 164.58 273.674 157.595 273.585C154.552 273.547 154.017 270.882 153.993 269.158L188.529 262.669C188.171 266.621 187.96 269.145 187.957 269.625C187.957 269.904 187.98 270.165 188.026 270.407C188.604 273.485 193.073 273.624 193.603 273.624H193.604Z" fill="#5888DD"/>
<path d="M74.2559 120.305H243.468L270.923 222.694H99.781L74.2559 120.305Z" fill="#AEC3FF"/>
<path d="M262.942 218.258H104.506L98.846 195.735L96.6557 187.02L95.7616 183.467L89.9426 160.321L89.6419 159.114L86.5657 146.88L85.1894 141.405L84.0158 136.735L81.2632 125.789H237.415L240.437 136.735L241.725 141.405L243.237 146.88L253.193 182.944V182.946L254.037 186.002L254.429 187.42L261.302 212.319L262.942 218.258Z" fill="#739AF0"/>
<path d="M240.437 136.737H84.0158L81.2649 125.789H237.415L240.437 136.737Z" fill="#607CF4"/>
<path d="M87.7247 130.737C87.5367 129.981 87.996 129.369 88.7528 129.369C89.5096 129.369 90.2762 129.981 90.4642 130.737C90.6522 131.493 90.1929 132.105 89.4361 132.105C88.6793 132.105 87.9127 131.493 87.7247 130.737Z" fill="#E9F3FE"/>
<path d="M92.2787 130.737C92.0907 129.981 92.55 129.369 93.3068 129.369C94.0636 129.369 94.8302 129.981 95.0182 130.737C95.2061 131.493 94.7468 132.105 93.99 132.105C93.2332 132.105 92.4666 131.493 92.2787 130.737Z" fill="#E9F3FE"/>
<path d="M97.1805 130.737C96.9925 129.981 97.4518 129.369 98.2086 129.369C98.9654 129.369 99.732 129.981 99.92 130.737C100.108 131.493 99.6487 132.105 98.8919 132.105C98.1351 132.105 97.3685 131.493 97.1805 130.737Z" fill="#E9F3FE"/>
<path d="M206.354 62.144C212.758 54.6354 222.632 39.5529 229.28 31.8304C230.648 30.2406 229.51 27.7872 227.412 27.7872H215.314L226.725 2.01965C227.212 0.919477 225.712 0.0429289 224.989 1.00599L197.398 37.883C196.594 38.9587 197.473 40.4735 198.809 40.3086L212.505 38.6241L204.356 60.9769C203.908 62.2076 205.504 63.1397 206.354 62.1424V62.144Z" fill="#F77D48"/>
<path d="M149.396 107.876C150.836 100.497 151.747 86.7919 153.269 79.1788C153.582 77.6118 151.907 76.4071 150.513 77.1906L142.477 81.7089L140.405 60.3322C140.316 59.4197 138.991 59.3985 138.873 60.3077L134.36 95.1068C134.229 96.1221 135.38 96.7995 136.205 96.1907L144.671 89.9569L147.631 107.847C147.794 108.831 149.203 108.854 149.395 107.875L149.396 107.876Z" fill="#AEC3FF"/>
<path d="M269.863 220.437L132.196 232.02C121.743 232.899 114.178 222.257 118.457 212.693L176.781 82.3421C181.206 72.4536 194.807 71.3094 200.826 80.3197L280.168 199.088C285.991 207.803 280.316 219.559 269.863 220.438V220.437Z" fill="#E6EFFF"/>
<path d="M270.302 225.637L132.636 237.22C125.865 237.79 119.474 234.827 115.541 229.294C111.609 223.76 110.916 216.759 113.688 210.565L172.012 80.2136C174.877 73.8085 180.768 69.633 187.769 69.0438C194.77 68.4545 201.277 71.5869 205.175 77.424L284.518 196.192C288.289 201.837 288.779 208.856 285.829 214.967C282.878 221.078 277.074 225.068 270.304 225.637H270.302ZM188.647 79.4432C185.495 79.7076 182.844 81.588 181.554 84.4707L123.23 214.822C121.983 217.61 122.295 220.762 124.066 223.251C125.836 225.742 128.713 227.075 131.759 226.819L269.426 215.236C272.473 214.98 275.087 213.185 276.414 210.434C277.741 207.684 277.522 204.523 275.824 201.984L196.481 83.2154C194.726 80.5891 191.798 79.1787 188.647 79.4432Z" fill="#F77D48"/>
<path d="M185.42 200.495C185.271 198.724 185.448 197.059 185.956 195.502C186.463 193.946 187.247 192.568 188.311 191.37C189.376 190.174 190.693 189.196 192.267 188.442C193.84 187.689 195.646 187.224 197.684 187.053C199.721 186.882 201.594 187.037 203.297 187.513C205.002 187.991 206.48 188.734 207.728 189.736C208.979 190.74 209.982 191.968 210.742 193.416C211.503 194.867 211.957 196.476 212.107 198.249C212.256 200.02 212.076 201.672 211.568 203.201C211.06 204.732 210.273 206.095 209.209 207.293C208.145 208.492 206.813 209.469 205.213 210.225C203.613 210.981 201.793 211.446 199.755 211.617C197.717 211.789 195.858 211.634 194.183 211.154C192.506 210.674 191.043 209.931 189.792 208.927C188.544 207.925 187.538 206.712 186.782 205.287C186.023 203.864 185.57 202.266 185.42 200.495ZM206.703 175.623L186.873 177.292L178.355 109.866L203.804 107.724L206.703 175.623Z" fill="#F77D48"/>
<path d="M99.9331 179.758C99.9331 179.758 100.365 178.789 100.644 178.33C100.924 177.871 102.118 176.526 102.321 176.83C102.524 177.135 103.338 179.184 102.906 179.758C102.475 180.333 102.934 181.33 100.786 181.936L99.9347 179.758H99.9331Z" fill="#FFB27D"/>
<path d="M76.0571 173.637C76.0571 173.637 87.056 182.806 91.3434 181.957C94.6975 181.292 99.9984 179.614 99.9984 179.614C99.9984 179.614 101.398 180.943 101.002 182.536C101.002 182.536 94.248 188.883 89.4359 188.924C81.9137 188.987 78.3667 185.202 78.3667 185.202L76.0571 173.639V173.637Z" fill="#ED7D2B"/>
<path d="M56.7678 270.341C56.7678 270.341 57.0866 275.485 58.0836 275.558C58.216 275.568 63.1377 275.568 63.1377 275.568L69.4209 275.532C69.4209 275.532 69.38 274.02 67.5428 273.701C65.7072 273.381 62.6326 272.093 61.5195 269.669C60.3491 267.119 56.7678 270.341 56.7678 270.341Z" fill="#113C68"/>
<path d="M56.4067 270.699C56.4067 270.699 58.3158 271.337 59.8082 271.337C61.4721 271.337 62.9825 270.885 62.9825 270.885C62.9825 270.885 63.3421 267.413 65.3199 259.762C66.3578 255.752 67.8387 250.595 69.9457 244.188C75.7728 226.481 77.5447 216.123 77.7065 215.142C77.7147 215.089 77.7179 215.065 77.7179 215.065L77.6983 215.057L59.782 207.202C59.782 207.202 61.9968 231.607 59.1707 240.974C58.7751 242.284 58.4368 243.81 58.1458 245.462C56.3609 255.636 56.4034 270.7 56.4034 270.7L56.4067 270.699Z" fill="#2A4E96"/>
<path d="M65.3198 259.761C66.3578 255.75 67.8387 250.594 69.9456 244.187C75.7728 226.48 77.5446 216.121 77.7064 215.14C77.7048 215.111 77.7032 215.083 77.6999 215.053L59.7836 207.199C59.7836 207.199 61.9984 231.603 59.1723 240.971C58.7767 242.28 65.3182 259.761 65.3182 259.761H65.3198Z" fill="#233862"/>
<path d="M70.7612 270.341C70.7612 270.341 71.08 275.485 72.077 275.558C72.2094 275.568 77.1311 275.568 77.1311 275.568L83.4143 275.532C83.4143 275.532 83.3734 274.02 81.5362 273.701C79.7006 273.381 76.626 272.093 75.5129 269.669C74.3425 267.119 70.7612 270.341 70.7612 270.341Z" fill="#15447C"/>
<path d="M80.9183 207.775C80.9183 207.775 81.1504 223.589 78.4109 243.007C75.6714 262.425 76.5999 270.666 76.5999 270.666C76.5999 270.666 74.7169 271.275 73.9584 271.337C72.0231 271.494 70.0388 270.883 70.0388 270.883C70.0388 270.883 66.1175 251.459 67.2421 241.74C68.3666 232.021 61.8726 208.39 61.8726 208.39L80.92 207.773L80.9183 207.775Z" fill="#2A4E96"/>
<path d="M68.2148 170.767L71.7111 173.057L74.8968 172.158C75.4787 171.329 75.634 169.729 75.6422 168.345C75.6503 166.971 75.5163 165.805 75.5163 165.805L70.7974 163.726L69.0369 162.95C69.0418 162.978 69.1742 164.393 69.1922 164.6C69.5208 168.272 68.2131 170.767 68.2131 170.767H68.2148Z" fill="#FFB27D"/>
<path d="M80.9986 212.171C76.6458 216.367 60.1728 215.662 59.1577 211.038C58.1443 206.414 60.2643 171.675 67.6999 169.492C69.2429 169.04 77.4925 171.703 77.4925 171.703C77.4925 171.703 78.787 175.085 79.6354 179.389C79.8004 180.227 80.281 189.105 80.6406 197.41C80.809 201.295 80.9512 205.054 81.0231 207.808C81.0885 210.387 81.0917 212.081 80.9986 212.172V212.171Z" fill="#F99746"/>
<path d="M69.5486 164.666C70.5064 166.282 73.8638 167.697 75.6438 168.345C75.652 166.971 75.518 165.805 75.518 165.805L70.799 163.726C69.7562 163.713 69.1203 163.944 69.5469 164.666H69.5486Z" fill="#FCA56B"/>
<path d="M77.2978 165.518C77.2978 165.518 69.6955 167.886 68.2914 163.136C66.8873 158.386 64.9602 155.492 69.7543 153.78C74.5485 152.068 76.0326 153.6 76.8875 155.073C77.7424 156.545 79.2396 164.782 77.2978 165.519V165.518Z" fill="#FFB27D"/>
<path d="M76.5886 154.612C76.5886 154.612 76.1031 160.141 74.9589 159.901C73.8147 159.661 72.5545 159.147 72.7212 160.814C72.8896 162.48 71.6081 165.337 69.9572 165.33C66.4168 165.315 62.5707 156.243 63.54 154.523C66.3367 149.559 80.6308 148.557 76.5886 154.612Z" fill="#163560"/>
<path d="M75.4704 169.612C75.3723 169.571 69.8115 167.08 69.161 167.294C68.5104 167.508 67.6997 169.492 67.6997 169.492L77.4923 171.703C77.4923 171.703 76.7208 170.137 75.4704 169.612Z" fill="#ED7D2B"/>
<path d="M110.093 196.517L78.9193 225.828C78.3079 226.403 77.5381 226.586 77.2063 226.235L76.1536 225.118C75.8234 224.767 76.0523 224.01 76.6636 223.435L107.838 194.124C108.449 193.549 109.219 193.367 109.551 193.718L110.603 194.834C110.934 195.185 110.705 195.942 110.093 196.517Z" fill="#1F4D84"/>
<path d="M92.5988 212.966L78.9193 225.828C78.3079 226.403 77.5381 226.586 77.2063 226.235L76.1536 225.118C75.8234 224.767 76.0523 224.01 76.6636 223.435L90.3431 210.573L92.5988 212.964V212.966Z" fill="#739AF0"/>
<path d="M102.927 185.45C104.124 189.389 106.34 193.078 109.559 196.101C119.387 205.335 134.852 204.863 144.099 195.05C153.223 185.363 152.884 170.199 143.427 160.928C143.301 160.804 143.173 160.68 143.043 160.559C133.216 151.325 117.753 151.793 108.506 161.608C102.287 168.209 100.463 177.359 102.926 185.45H102.927ZM109.912 162.929C115.293 157.218 122.961 154.94 130.161 156.186C134.357 156.911 138.391 158.83 141.724 161.961C150.776 170.465 151.209 184.688 142.693 193.729C139.558 197.057 135.648 199.217 131.506 200.198C124.394 201.879 116.6 200.075 110.881 194.7C101.829 186.194 101.394 171.972 109.912 162.931V162.929Z" fill="#1F4D84"/>
<g opacity="0.5">
<path d="M142.693 193.729C139.558 197.057 135.646 199.217 131.506 200.198C124.394 201.877 116.602 200.074 110.881 194.699C101.829 186.194 101.394 171.97 109.912 162.929C115.293 157.218 122.961 154.941 130.161 156.186C134.357 156.911 138.392 158.83 141.724 161.961C150.776 170.465 151.21 184.689 142.693 193.729Z" fill="#B3CFF9"/>
</g>
<path d="M81.0231 207.808C63.8456 195.585 65.2742 179.273 65.2742 179.273C71.5525 182.809 77.7818 190.628 80.6406 197.41C80.8089 201.295 80.9511 205.054 81.0231 207.808Z" fill="#ED7D2B"/>
<path d="M97.9765 202.24C99.1877 201.961 100.002 201.047 100.17 200.887C100.17 200.887 100.687 200.923 100.085 202.023C100.034 202.114 99.9233 202.351 99.8383 202.519C99.804 202.587 99.8514 202.667 99.9282 202.672C100.628 202.726 101.331 202.449 102.676 202.729C102.862 202.769 102.916 203.213 102.908 203.402C102.897 203.722 102.919 204.083 102.547 204.574C102.329 204.86 101.725 205.166 100.376 205.708C99.8628 205.914 98.3933 205.759 97.017 205.287L95.917 204.778L96.2586 202.738L96.5349 202.795C96.9729 202.886 97.5172 202.352 97.9749 202.24H97.9765Z" fill="#FFB27D"/>
<path d="M70.606 171.703C70.606 171.703 55.1726 174.638 75.1468 196.958C78.3407 200.528 95.6015 205.175 95.6015 205.175C95.6015 205.175 97.3521 203.688 96.4695 202.483C96.4695 202.483 84.5847 193.864 81.971 192.495C80.7942 191.878 77.4057 178.74 75.4884 175.576C73.5711 172.413 70.606 171.703 70.606 171.703Z" fill="#F99746"/>
<path d="M100.351 180.029C100.351 180.029 100.857 179.066 100.955 178.557C101.053 178.049 101.689 176.567 101.95 176.306C102.055 176.201 102.401 176.337 102.442 176.786C102.46 176.982 102.364 177.337 102.194 177.76C101.917 178.451 101.963 179.386 101.867 179.698C101.628 180.475 100.35 180.029 100.35 180.029H100.351Z" fill="#FFB27D"/>
<path d="M106.494 141.787C106.231 142.088 106.198 142.422 106.327 142.781C106.327 142.781 106.327 142.785 106.331 142.786C106.571 143.449 107.364 144.19 108.285 144.93C108.403 145.024 108.508 145.111 108.599 145.191C108.624 145.212 108.647 145.233 108.67 145.254C108.688 145.271 108.706 145.287 108.724 145.303C109.583 146.095 109.26 146.276 110.803 147.882C112.563 149.712 113.774 149.747 114.119 149.578C114.412 149.436 113.818 148.467 113.161 147.375C113.13 147.323 113.098 147.269 113.067 147.216C112.978 147.071 112.892 146.924 112.805 146.779C112.035 145.467 112.233 144.851 112.416 142.897C112.565 141.311 114.892 134.031 114.892 134.031L111.519 133.45C111.519 133.45 110.5 139.246 109.381 140.139C108.782 140.614 108.112 140.62 107.537 140.973C107.496 140.997 107.457 141.022 107.418 141.048C107.091 141.265 106.757 141.487 106.494 141.789V141.787Z" fill="#FFB27D"/>
<path d="M106.494 141.787C106.231 142.088 106.198 142.422 106.327 142.781C106.327 142.781 106.327 142.785 106.331 142.786C106.625 143.449 107.398 144.185 108.289 144.923C108.405 145.019 108.508 145.107 108.599 145.191C108.624 145.212 108.647 145.233 108.67 145.254C108.688 145.271 108.706 145.287 108.724 145.303C109.583 146.095 109.26 146.276 110.803 147.882C112.563 149.712 113.774 149.746 114.119 149.578C114.412 149.436 113.818 148.467 113.161 147.375C112.818 147.249 111.226 146.603 110.023 145.063C109.001 143.761 108.308 142.102 107.614 141.082C107.537 141.068 107.491 141.059 107.416 141.045C107.089 141.262 106.756 141.484 106.492 141.786L106.494 141.787Z" fill="#233862"/>
<path d="M133.703 139.692C133.91 140.731 135.396 140.558 137.054 140.155C138.713 139.75 138.319 140.232 140.679 139.972C143.039 139.713 143.755 138.833 143.827 138.484C143.893 138.172 142.726 138.062 141.475 137.919C141.318 137.901 141.16 137.881 141.001 137.862C139.589 137.684 138.554 136.773 137.271 136.025C136.057 135.317 134.244 132.431 134.244 132.431L131.006 132.686C131.006 132.686 132.704 135.263 133.361 136.383C133.747 137.042 133.727 137.914 133.678 138.586C133.654 138.952 133.629 139.326 133.703 139.693V139.692Z" fill="#FFB27D"/>
<path d="M137.054 140.155C138.713 139.75 138.319 140.232 140.679 139.972C143.039 139.713 143.755 138.833 143.827 138.484C143.893 138.172 142.726 138.062 141.475 137.919L141.464 137.943C141.464 137.943 140.048 138.946 138.084 138.991C136.482 139.03 134.787 138.57 133.68 138.588C133.656 138.954 133.631 139.328 133.705 139.695C133.912 140.735 135.398 140.562 137.055 140.158L137.054 140.155Z" fill="#233862"/>
<path d="M121.303 119.017L118.274 127.147L114.32 137.764C114.32 137.764 113.248 137.867 112.222 137.571C111.277 137.299 110.191 136.584 110.191 136.584C110.191 136.584 111.293 125.182 113.341 118.638C113.866 116.958 114.454 115.6 115.103 114.835C118.278 111.092 121.303 119.013 121.303 119.013V119.017Z" fill="#233862"/>
<path d="M118.23 106.1C116.507 105.545 112.012 106.089 107.136 106.969C105.79 107.212 104.431 106.596 103.722 105.428L91.4529 104.466C91.4529 104.466 87.4009 113.431 89.6157 119.146C89.9409 119.986 90.6552 120.51 91.7602 120.528C91.7602 120.528 99.1745 120.541 101.546 120.541C107.648 120.543 114.461 116.358 115.342 116.181C116.784 115.894 117.361 118.775 118.802 121.8C120.244 124.824 132.356 135.199 132.356 135.199C132.356 135.199 134.218 135.219 134.988 134.93C135.815 134.62 136.117 134.218 136.117 134.218C136.117 134.218 122.702 107.542 118.23 106.099V106.1Z" fill="#2A4E96"/>
<path d="M102.432 69.4469C101.522 68.905 100.633 68.8217 100.088 68.8364C99.7091 68.8478 99.3315 68.8217 98.9572 68.7679C94.2742 68.0807 91.4529 74.8727 91.2862 76.9245C90.9822 80.6918 88.9848 81.2664 86.175 83.6251C80.539 88.3555 82.1899 93.8531 85.2694 95.8984C87.1181 97.1243 90.3758 95.8984 90.3758 95.8984C90.4215 95.931 99.2873 90.9541 103.656 88.553C110.206 87.6259 105.062 71.0106 102.432 69.4453V69.4469Z" fill="#233862"/>
<path d="M99.9952 86.5078C100.015 86.5209 97.8458 87.2587 96.396 86.6172C95.0311 86.0148 93.9997 83.7721 94.0193 83.7721C94.6404 83.7443 95.3221 83.2024 95.8467 79.6472L96.1115 79.7419L100.554 81.3399C100.554 81.3399 100.232 82.7633 100.023 84.1197C99.8465 85.2575 99.7533 86.3478 99.9952 86.5094V86.5078Z" fill="#FFB27D"/>
<path d="M100.554 81.3383C100.554 81.3383 100.376 82.1071 100.118 83.5419C97.5663 83.0816 96.4712 81.1179 96.1116 79.7402L100.554 81.3383Z" fill="#ED975D"/>
<path d="M101.216 82.7518C101.216 82.7518 95.1372 81.9341 95.7044 78.1618C96.2715 74.3895 95.8694 71.7419 99.776 72.1043C103.681 72.4667 104.217 74.019 104.335 75.3248C104.452 76.6307 102.813 82.8677 101.218 82.7518H101.216Z" fill="#FFB27D"/>
<path d="M104.113 73.2567C104.113 73.2567 100.219 76.6046 97.5728 76.8739C94.9248 77.1432 93.9229 76.2944 93.9229 76.2944C93.9229 76.2944 95.4838 75.0017 96.4237 72.9139C96.7 72.2986 97.2851 71.8758 97.9586 71.8187C99.8481 71.6571 103.433 71.5836 104.113 73.2567Z" fill="#233862"/>
<path d="M101.68 72.9564C101.68 72.9564 102.982 74.2133 103.392 75.1469C103.787 76.0463 103.905 78.1994 103.59 79.0531C103.59 79.0531 105.62 75.1143 104.472 73.2012C103.254 71.1707 101.68 72.9564 101.68 72.9564Z" fill="#233862"/>
<path d="M105.111 95.4528C104.923 107.742 105.057 105.175 103.71 106.34C103.385 106.621 102.475 106.787 101.273 106.867C97.4992 107.116 90.8661 106.494 90.6144 105.797C89.7448 103.386 90.3594 102.638 89.6353 98.9492C89.5601 98.5574 89.467 98.1314 89.3558 97.6694C88.751 95.1361 88.1626 94.2726 90.312 90.2033C92.2621 86.5159 94.2856 83.5239 94.4687 83.6316C99.6077 86.6808 100.023 84.1197 100.023 84.1197C100.023 84.1197 105.204 89.4589 105.111 95.4544V95.4528Z" fill="#F99746"/>
<path d="M118.274 127.147L114.32 137.764C114.32 137.764 113.248 137.867 112.222 137.571C111.277 137.299 110.191 136.584 110.191 136.584C110.191 136.584 111.293 125.182 113.341 118.638L118.274 127.146V127.147Z" fill="#2A4E96"/>
<path d="M100.023 84.118C100.023 84.118 105.311 85.0158 105.932 87.2896C106.551 89.5634 108.591 103.366 108.591 103.366C108.591 103.366 107.099 104.821 105.858 103.58C104.616 102.339 101.953 90.6652 101.953 90.6652L100.023 84.1197V84.118Z" fill="#F99746"/>
<path d="M101.275 106.867C97.5008 107.116 90.8678 106.494 90.6161 105.797C89.7465 103.386 90.3611 102.638 89.637 98.9492L91.4595 93.8319C91.4595 93.8319 91.1571 99.5319 92.839 101.03C94.5194 102.53 99.7287 103.926 100.548 105.18C100.942 105.78 101.201 106.384 101.277 106.867H101.275Z" fill="#ED7D2B"/>
<path d="M96.9516 104.468C96.9516 104.468 100.675 103.642 101.275 103.972C101.875 104.302 103.343 105.505 103.527 105.922C103.71 106.34 102.19 105.604 101.695 105.472C101.375 105.385 100.531 105.678 100.113 105.818C98.3557 106.402 97.2785 106.1 97.2785 106.1L96.95 104.468H96.9516Z" fill="#FFB27D"/>
<path d="M94.4655 83.6284C94.4655 83.6284 89.467 83.9337 87.7344 86.3446C85.2973 89.7365 80.459 104.195 83.2279 106.125C86.3467 108.297 97.4224 106.698 97.4224 106.698C97.4224 106.698 97.7918 104.977 97.2785 104.145C96.7653 103.312 88.4323 101.966 88.0482 101.581C87.6641 101.197 92.8587 94.0915 92.8587 92.9391C92.8587 91.7867 94.4622 83.6284 94.4622 83.6284H94.4655Z" fill="#F99746"/>
<path d="M101.457 105.007C101.457 105.007 102.236 106.012 102.491 106.131C102.746 106.252 102.913 106.221 102.913 106.221L102.388 105.276L101.457 105.005V105.007Z" fill="#FFB27D"/>
<path d="M101.277 103.972L103.544 105.072C103.544 105.072 103.447 105.23 103.168 105.217C102.888 105.204 102.184 104.946 102.184 104.946L101.275 103.972H101.277Z" fill="#FFB27D"/>
<path d="M120.643 106.564L96.9517 106.556V107.078L120.432 107.086L120.643 106.564Z" fill="#233862"/>
<path d="M102.491 107.08L120.432 107.086L125.833 93.6866L107.92 93.6801L102.491 107.08Z" fill="#233862"/>
<path d="M115.906 100.384C116.042 99.9122 115.769 99.5303 115.296 99.5303C114.824 99.5303 114.332 99.9122 114.196 100.382C114.061 100.854 114.333 101.236 114.806 101.236C115.278 101.236 115.77 100.854 115.906 100.384Z" fill="white"/>
<path d="M237.322 157.619C234.904 156.818 233.232 157.83 233.232 157.83C226.274 158.115 226.016 165.239 226.831 167.89C227.979 171.613 223.919 174.548 228.422 176.054C233.646 177.803 238.03 175.728 237.731 176.629C254.251 177.928 242.819 159.442 237.322 157.619Z" fill="#163560"/>
<path d="M230.104 192.263C230.104 192.263 229.442 193.571 228.244 195.072C226.799 196.881 219.211 192.59 219.865 192.263C220.519 191.937 224.33 180.968 225.239 179.59C226.148 178.212 229.241 177.496 229.241 177.496L230.104 192.263Z" fill="#F99746"/>
<path d="M255.707 266.241C255.707 266.241 257.801 268.149 257.393 269.506C256.984 270.862 255.094 271.766 254.839 273.423C254.584 275.08 253.563 275.984 252.643 275.984H248.259C248.259 275.984 247.582 274.817 249.217 274.466C250.851 274.115 251.467 272.168 251.364 270.359C251.261 268.551 251.518 266.141 251.518 266.141L254.991 265.338L255.707 266.243V266.241Z" fill="#1F447F"/>
<path d="M237.984 267.051C237.984 267.051 238.737 275.135 237.819 275.587L226.053 275.563C226.053 275.563 226.053 274.207 227.943 273.906C229.832 273.604 233.152 272.499 233.714 270.039C234.277 267.579 237.984 267.051 237.984 267.051Z" fill="#1C3154"/>
<path d="M247.034 186.81C247.034 186.81 247.209 189.278 247.034 192.24C246.918 194.204 244.929 196.834 244.646 197.485C243.939 199.117 243.139 199.382 243.139 199.382L236.962 200.893L234.79 201.424L227.94 199.38C227.94 199.38 224.819 190.685 226.073 185.789C227.325 180.894 229.239 177.494 229.239 177.494C229.239 177.494 233.894 176.449 242.106 177.031L247.033 186.808L247.034 186.81Z" fill="#F99746"/>
<path d="M247.623 192.309C247.507 194.273 244.929 196.834 244.646 197.485C243.939 199.117 243.139 199.382 243.139 199.382L236.962 200.893L235.848 197.7C235.848 197.7 244.874 195.332 243.422 186.989L247.623 192.307V192.309Z" fill="#ED7D2B"/>
<path d="M228.376 200.702C228.376 200.702 224.984 211.245 224.765 214.836C224.548 218.426 231.249 265.833 231.519 267.486C231.773 269.045 233.713 270.039 233.713 270.039C233.713 270.039 234.605 270.565 235.877 270.206C237.642 269.708 238.201 269.112 238.201 269.112C238.201 269.112 240.841 235.302 239.208 223.225C237.574 211.147 237.556 200.702 237.556 200.702H228.378H228.376Z" fill="#233862"/>
<path d="M242.749 200.387C242.749 200.387 247.924 207.32 248.406 212.008C248.888 216.694 249.163 233.156 250.191 237.725C251.219 242.293 254.995 251.087 254.995 265.337C254.995 265.337 254.602 266.153 253.391 266.589C253.004 266.727 252.484 266.863 251.98 266.979C250.982 267.207 249.955 266.719 249.499 265.803C246.946 260.672 238.816 244.117 238.399 240.681C238.105 238.249 235.537 222.154 229.935 212.711C228.59 210.444 230.761 201.427 230.761 201.427L242.75 200.389L242.749 200.387Z" fill="#2A4E96"/>
<path d="M227.835 199.075C227.835 199.075 229.196 200.151 231.902 200.204C235.133 200.27 243.139 199.382 243.139 199.382C243.139 199.382 243.496 200.374 243.481 201.422C243.481 201.422 233.701 203.885 228.036 201.781C228.036 201.781 227.305 200.408 227.835 199.073V199.075Z" fill="#233862"/>
<path d="M231.127 202.986C230.315 202.986 229.653 202.238 229.653 201.319C229.653 200.4 230.315 199.653 231.127 199.653C231.939 199.653 232.601 200.4 232.601 201.319C232.601 202.238 231.939 202.986 231.127 202.986ZM231.127 200.141C230.583 200.141 230.141 200.67 230.141 201.319C230.141 201.969 230.584 202.498 231.127 202.498C231.67 202.498 232.113 201.969 232.113 201.319C232.113 200.67 231.671 200.141 231.127 200.141Z" fill="white"/>
<path d="M238.191 206.017L223.494 206.154L216.261 189.18L230.959 189.043L238.191 206.017Z" fill="#B5453C"/>
<path d="M236.269 198.347L235.192 197.025C235.192 197.025 234.463 196.375 233.933 196.266C233.404 196.155 232.287 195.512 232.179 195.693C232.072 195.874 233.038 197.167 233.038 197.167L233.087 197.173C231.977 198.007 229.175 197.271 228.83 197.611C228.412 198.022 229.407 198.913 229.942 199.414C230.476 199.914 232.005 200.748 233.196 200.379C234.067 200.108 235.437 199.832 235.437 199.832L236.269 198.347Z" fill="#FFB27D"/>
<path d="M217.366 192.167C217.366 192.167 218.289 191.119 218.878 191.622C219.466 192.124 218.724 194.599 218.163 194.348C217.603 194.096 217.044 192.475 217.366 192.167Z" fill="#FFB27D"/>
<path d="M242.108 177.034C242.108 177.034 246.315 177.497 249.334 182.975C251.716 187.296 255.786 195.26 254.249 197.509C253.576 198.497 247.111 202.011 234.645 200.004C234.645 200.004 234.841 198.432 235.846 197.702C235.846 197.702 246.338 194.338 246.32 193.669C246.286 192.404 244.903 191.31 239.041 185.455C237.448 183.863 242.106 177.032 242.106 177.032L242.108 177.034Z" fill="#F99746"/>
<path d="M238.87 177.256C239.014 177.062 238.829 176.445 238.597 175.295C238.388 174.254 238.033 172.643 238.039 170.831L237.729 170.883L232.515 171.76C232.515 171.76 232.634 173.152 232.637 174.465C232.637 174.476 232.637 174.486 232.637 174.497C232.644 175.637 232.33 177.359 232.714 177.582C234.69 178.738 238.312 178.002 238.87 177.256Z" fill="#FFB27D"/>
<path d="M232.515 171.758C232.515 171.758 232.618 173.722 232.623 175.033C235.54 174.962 237.098 172.134 237.731 170.882L232.516 171.758H232.515Z" fill="#E8945B"/>
<path d="M232.201 174.101C232.201 174.101 239.037 173.128 238.365 168.885C237.693 164.643 238.123 161.661 233.729 162.103C229.336 162.544 228.747 164.297 228.626 165.768C228.505 167.238 230.404 174.244 232.201 174.101Z" fill="#FFB27D"/>
<path d="M230.607 162.493C230.607 162.493 233.268 167.171 236.25 167.452C239.233 167.731 240.352 166.768 240.352 166.768C240.352 166.768 237.876 165.374 236.934 162.403C236.934 162.403 231.637 159.901 230.605 162.493H230.607Z" fill="#163560"/>
<path d="M231.135 162.823C231.135 162.823 229.834 163.561 229.424 164.659C229.023 165.733 228.757 167.116 229.123 168.699C229.123 168.699 227.176 165.541 228.453 163.376C229.805 161.081 231.135 162.823 231.135 162.823Z" fill="#163560"/>
<path d="M2.80337 275.374H381.749C382.011 275.374 382.223 275.586 382.223 275.847V276.12C382.223 276.381 382.011 276.593 381.749 276.593H2.80337C2.54184 276.593 2.32935 276.381 2.32935 276.12V275.847C2.32935 275.586 2.54184 275.374 2.80337 275.374Z" fill="#233862"/>
</g>
<defs>
<clipPath id="clip0_466_12216">
<rect width="384" height="276" fill="white" transform="translate(0 0.593018)"/>
</clipPath>
</defs>
</svg>
