<svg width="268" height="163" viewBox="0 0 268 163" fill="none" xmlns="http://www.w3.org/2000/svg">
<g clip-path="url(#clip0_502_15503)">
<path d="M256.155 111.122C269.138 134.43 250.351 180.162 131.202 148.38C71.4631 132.445 26.8398 168.342 17.6449 143.285C-3.77442 84.9208 83.6979 17.4068 132.339 64.5417C176.8 107.626 232.525 68.7007 256.155 111.122Z" stroke="#E4E4E4" stroke-width="4" stroke-miterlimit="10"/>
<path d="M255.471 162.428H12.5303C20.1333 106.073 71.6134 62.483 134.001 62.483C196.388 62.483 247.868 106.073 255.471 162.428Z" fill="#F6F5F5"/>
<path d="M223.804 14.979H132.425C128.171 14.979 124.723 18.4387 124.723 22.7064V154.205C124.723 158.473 128.171 161.933 132.425 161.933H223.804C228.058 161.933 231.506 158.473 231.506 154.205V22.7064C231.506 18.4387 228.058 14.979 223.804 14.979Z" fill="#A9BAE6"/>
<path d="M222.265 20.9014H134.374V148.986H222.265V20.9014Z" fill="#F6F5F5"/>
<path d="M222.264 20.9025C222.291 70.8488 223.898 131.086 218.306 144.422C193.673 146.831 164.832 147.603 134.372 147.747L145.95 21.2882L222.264 20.9025Z" fill="#E4E4E4"/>
<path d="M214.37 140.386C175.977 146.551 150.318 146.875 129.506 145.325C132.203 116.524 133.284 68.6767 134.372 20.9076L180.636 21.0105L222.506 23.7835C223.117 73.3639 223.183 119.162 214.37 140.386Z" fill="white"/>
<path d="M200.803 33.8122L154.568 32.7191L154.402 39.7843L200.637 40.8774L200.803 33.8122Z" fill="#708CD5"/>
<path d="M209.717 51.1022L168.012 50.1162L167.936 53.35L209.641 54.336L209.717 51.1022Z" fill="#708CD5"/>
<path d="M196.194 57.8374L167.847 57.1672L167.771 60.401L196.118 61.0712L196.194 57.8374Z" fill="#D3DFFF"/>
<path d="M154.871 49.9954L144.998 49.762L144.765 59.667L154.638 59.9004L154.871 49.9954Z" fill="white" stroke="#708CD5" stroke-width="6" stroke-miterlimit="10"/>
<path d="M146.609 52.3631C146.914 53.5339 147.476 58.4373 149.924 57.0669C150.489 56.7508 150.967 55.9149 151.389 55.4335C152.147 54.5684 152.907 53.7044 153.666 52.8393L158.221 47.652C158.609 47.2091 156.892 46.0976 156.404 46.6538C155.055 48.1906 153.705 49.7284 152.356 51.2651C151.681 52.0335 151.006 52.8019 150.332 53.5703C149.863 54.1036 148.78 55.8234 148.086 55.9762C148.464 56.0989 148.841 56.2206 149.22 56.3433C149.487 56.5626 148.991 55.0051 148.979 54.9625C148.791 54.2388 148.603 53.5162 148.414 52.7925C148.259 52.1947 146.379 51.4762 146.61 52.3621L146.609 52.3631Z" fill="#EE6F57"/>
<path d="M201.932 68.9351L167.589 68.1232L167.513 71.3569L201.856 72.1689L201.932 68.9351Z" fill="#708CD5"/>
<path d="M209.128 76.1599L167.423 75.174L167.347 78.4077L209.052 79.3937L209.128 76.1599Z" fill="#D3DFFF"/>
<path d="M154.448 68.0034L144.575 67.77L144.343 77.675L154.216 77.9084L154.448 68.0034Z" fill="white" stroke="#708CD5" stroke-width="6" stroke-miterlimit="10"/>
<path d="M146.18 70.6502C146.484 71.821 147.047 76.7244 149.495 75.354C150.06 75.038 150.538 74.202 150.96 73.7206C151.718 72.8555 152.478 71.9915 153.237 71.1264L157.792 65.9391C158.18 65.4962 156.463 64.3847 155.975 64.941C154.625 66.4777 153.276 68.0155 151.927 69.5522C151.252 70.3206 150.577 71.089 149.903 71.8574C149.434 72.3908 148.351 74.1105 147.657 74.2633C148.035 74.386 148.412 74.5077 148.79 74.6304C149.058 74.8498 148.561 73.2922 148.55 73.2496C148.361 72.5259 148.174 71.8033 147.985 71.0796C147.83 70.4818 145.95 69.7633 146.181 70.6492L146.18 70.6502Z" fill="#EE6F57"/>
<path d="M208.869 87.1171L167.165 86.1311L167.089 89.3649L208.793 90.3509L208.869 87.1171Z" fill="#708CD5"/>
<path d="M185.652 93.6231L167 93.1821L166.925 96.4159L185.576 96.8568L185.652 93.6231Z" fill="#D3DFFF"/>
<path d="M154.025 86.0104L144.151 85.777L143.919 95.682L153.792 95.9154L154.025 86.0104Z" fill="white" stroke="#708CD5" stroke-width="6" stroke-miterlimit="10"/>
<path d="M145.891 88.7855C146.195 89.9562 146.758 94.8597 149.206 93.4893C149.771 93.1732 150.249 92.3372 150.671 91.8558C151.429 90.9908 152.189 90.1267 152.948 89.2617C154.466 87.5326 155.984 85.8035 157.503 84.0744C157.891 83.6314 156.174 82.5199 155.686 83.0762C154.336 84.613 152.987 86.1508 151.638 87.6875C150.963 88.4559 150.288 89.2242 149.613 89.9926C149.145 90.526 148.062 92.2458 147.368 92.3986C147.746 92.5213 148.123 92.6429 148.501 92.7656C148.769 92.985 148.272 91.4275 148.261 91.3848C148.072 90.6612 147.885 89.9386 147.696 89.2149C147.541 88.617 145.661 87.8986 145.892 88.7844L145.891 88.7855Z" fill="#EE6F57"/>
<path d="M208.447 105.124L166.743 104.138L166.667 107.372L208.371 108.358L208.447 105.124Z" fill="#708CD5"/>
<path d="M199.522 111.968L166.577 111.189L166.501 114.423L199.446 115.202L199.522 111.968Z" fill="#D3DFFF"/>
<path d="M153.602 104.017L143.729 103.784L143.496 113.689L153.369 113.922L153.602 104.017Z" fill="white" stroke="#708CD5" stroke-width="6" stroke-miterlimit="10"/>
<path d="M145.471 106.675C145.775 107.846 146.338 112.75 148.786 111.379C149.351 111.063 149.829 110.227 150.251 109.746C151.009 108.881 151.769 108.017 152.528 107.152C154.046 105.422 155.564 103.693 157.083 101.964C157.471 101.521 155.754 100.41 155.266 100.966C153.916 102.503 152.567 104.041 151.218 105.577C150.543 106.346 149.868 107.114 149.194 107.883C148.725 108.416 147.642 110.136 146.948 110.288C147.326 110.411 147.703 110.533 148.081 110.656C148.349 110.875 147.852 109.317 147.841 109.275C147.652 108.551 147.465 107.828 147.276 107.105C147.121 106.507 145.241 105.788 145.472 106.674L145.471 106.675Z" fill="#EE6F57"/>
<path d="M182.854 122.4L166.323 122.009L166.247 125.243L182.778 125.634L182.854 122.4Z" fill="#708CD5"/>
<path d="M207.866 130.041L166.162 129.056L166.086 132.29C182.221 132.669 202.765 133.428 206.957 132.782C207.594 132.057 207.937 131.166 207.866 130.041Z" fill="#D3DFFF"/>
<path d="M153.32 121.892L143.447 121.659L143.214 131.564L153.087 131.797L153.32 121.892Z" fill="white" stroke="#708CD5" stroke-width="6" stroke-miterlimit="10"/>
<path d="M145.055 124.408C145.36 125.579 145.923 130.482 148.371 129.112C148.936 128.796 149.413 127.96 149.835 127.479C150.594 126.614 151.354 125.75 152.112 124.884C153.63 123.155 155.149 121.426 156.667 119.697C157.056 119.254 155.338 118.143 154.849 118.699C153.5 120.236 152.151 121.774 150.801 123.31C150.126 124.079 149.452 124.847 148.777 125.615C148.309 126.149 147.226 127.869 146.531 128.021C146.909 128.144 147.287 128.266 147.665 128.388C147.932 128.608 147.436 127.05 147.425 127.008C147.236 126.284 147.048 125.561 146.86 124.838C146.704 124.24 144.824 123.521 145.055 124.407V124.408Z" fill="#EE6F57"/>
<path d="M197.909 15.869V25.7549H158.319V15.869C158.319 14.2927 158.957 12.8662 159.985 11.8306C160.114 11.7017 160.247 11.5811 160.388 11.4688C161.37 10.6495 162.634 10.1587 164.011 10.1587C165.043 10.1587 166.034 9.92164 166.921 9.49326C167.307 9.30611 167.671 9.08568 168.015 8.83198C169.147 7.99186 170.014 6.79823 170.445 5.37586C170.884 3.92437 171.784 2.70994 172.949 1.86567C174.068 1.05882 175.432 0.593018 176.879 0.593018H179.35C180.796 0.593018 182.16 1.05882 183.28 1.86567C184.444 2.70994 185.344 3.92437 185.783 5.37586C186.215 6.79823 187.081 7.99186 188.213 8.83198C188.557 9.08568 188.922 9.30611 189.307 9.49326C190.194 9.92164 191.185 10.1587 192.217 10.1587C193.594 10.1587 194.858 10.6495 195.841 11.4688C197.105 12.5127 197.909 14.0973 197.909 15.869Z" fill="#EE6F57"/>
<path d="M201.122 20.9014V28.2503H155.106V20.9014H158.319V25.7549H197.909V20.9014H201.122Z" fill="#E4E4E4"/>
<path d="M178.114 9.86651C180.053 9.86651 181.625 8.36756 181.625 6.51852C181.625 4.66948 180.053 3.17053 178.114 3.17053C176.175 3.17053 174.603 4.66948 174.603 6.51852C174.603 8.36756 176.175 9.86651 178.114 9.86651Z" fill="white"/>
<path d="M102.241 52.8019C100.836 52.5357 99.5244 50.1817 99.0683 49.2792C98.9564 49.0578 98.9212 48.8072 98.9678 48.5628L99.5264 45.5912C99.5264 45.5912 100.816 45.8117 100.716 47.5335C100.706 47.7123 100.742 47.8912 100.806 48.0575L101.3 49.353L102.759 48.2197L101.959 45.9531C101.959 45.9531 100.888 46.2484 100.335 46.0716C99.1989 45.7077 100.688 44.8197 101.159 44.7251C101.629 44.6305 102.666 44.2531 103.136 45.0558C103.607 45.8585 103.89 46.3305 103.89 46.3305C103.89 46.3305 104.408 44.5359 104.054 40.5214C104.039 40.3405 104.49 40.3447 104.616 40.4736C104.996 40.8604 105.6 42.0395 105.632 45.6224C105.632 45.6224 105.695 41.4468 106.409 41.0174C106.998 40.6628 107.295 42.707 106.881 46.1725C106.881 46.1725 107.649 43.1717 108.199 43.1665C109.127 43.1572 108.211 51.1809 105.88 53.5723L102.244 52.8019H102.241Z" fill="#F9B384"/>
<path d="M106.644 51.574C106.602 51.9732 106.557 52.36 106.507 52.7343V52.7385C106.341 54.0694 106.134 55.2588 105.893 56.2778C105.881 56.3277 105.873 56.3734 105.86 56.4192C105.151 59.3347 105.023 60.7612 102.602 60.3786L100.11 57.5338L100.085 57.5047L99.9028 57.2967L100.409 55.7995L100.475 55.604L100.848 54.5144L100.894 54.373L101.532 52.4973L101.789 51.7362L106.644 51.574Z" fill="#F9B384"/>
<path d="M60.3556 155.16L59.7214 157.148C55.3726 158.581 52.8365 160.223 52.6738 162.139H65.2485L66.2569 155.481C63.7105 156.105 61.6688 155.67 60.3556 155.16Z" fill="#1F3C88"/>
<path d="M61.9328 150.217L60.3564 155.16C61.6696 155.67 63.7113 156.105 66.2577 155.481L66.9075 151.187L61.9328 150.217Z" fill="#F9B384"/>
<path d="M83.4321 154.939L83.8011 149.905L77.8936 150.217L77.5713 154.858C80.0721 155.658 82.1398 155.345 83.4321 154.939Z" fill="#F9B384"/>
<path d="M90.5377 162.14C90.375 160.225 88.154 157.599 83.2829 156.975L83.4321 154.939C82.1387 155.345 80.0721 155.658 77.5712 154.858L77.0645 162.14H90.5377Z" fill="#1F3C88"/>
<path d="M78.6439 54.0943L71.5176 54.1442V43.3308H78.4283L78.4325 43.9921L78.4656 47.4191L78.5154 52.9214L78.6439 54.0943Z" fill="#F9B384"/>
<path d="M78.4659 47.939C77.1849 49.2906 73.8436 47.7643 72.4341 46.2754L78.4328 44.512L78.4659 47.939Z" fill="#E28B6D"/>
<path d="M80.1198 40.8355C80.1156 41.634 80.0659 42.4699 79.9332 43.2685C79.585 45.4478 78.6647 47.3318 76.5421 47.39C71.5259 47.5356 70.0957 44.6576 69.1505 42.3036C68.2053 39.9454 69.7392 34.2767 69.7392 34.2767L76.2312 33.6321L79.7964 36.5642C79.7964 36.5642 80.1405 38.5563 80.1198 40.8355Z" fill="#F9B384"/>
<path d="M69.3525 40.955C69.3525 40.955 70.7838 40.8885 71.0284 37.1828C73.5873 38.0417 75.4569 37.2587 76.939 35.5494C78.2034 37.2244 81.7417 37.7495 82.9377 34.3194C83.801 31.8417 81.4173 28.1505 77.9453 30.386C74.5428 28.6611 69.3816 28.7796 67.8964 33.0103C67.8964 33.0103 62.733 35.3986 68.2001 40.6566C68.3099 40.7617 69.3525 40.9561 69.3525 40.9561V40.955Z" fill="#102048"/>
<path d="M89.0867 92.958L85.1484 152.712H75.8892L78.2045 94.7287L79.6202 94.0705L89.0867 92.958Z" fill="#102048"/>
<path d="M64.9727 84.7826L58.4775 152.712H68.5659L78.1692 96.2884L89.0866 92.9612L89.5696 80.9001L65.2494 80.3459L64.9727 84.7826Z" fill="#1F3C88"/>
<path opacity="0.6" d="M66.4205 84.9301C71.93 86.914 84.8581 84.6463 87.5424 81.8826L85.6354 78.0553L64.3726 80.8897L66.4215 84.9291L66.4205 84.9301Z" fill="#102048"/>
<path d="M87.0472 80.9614C86.869 81.0362 86.6866 81.1152 86.5 81.1859C84.4397 82.0261 82.0932 82.7622 79.5934 83.2488C78.101 83.5441 76.5464 83.7437 74.9628 83.8186C72.5749 83.9392 70.1207 83.7812 67.6914 83.228L70.7799 54.3397L71.1571 50.817C71.1571 50.817 75.1991 55.8078 79.6556 50.2971L87.0472 80.9614Z" fill="white"/>
<path opacity="0.3" d="M74.9628 83.8187C72.5749 83.9393 70.1207 83.7812 67.6914 83.2281L70.7799 54.3397L71.8826 52.7406C74.6063 59.3867 77.3963 74.1033 74.9628 83.8187Z" fill="#1F3C88"/>
<path d="M71.5197 49.6733C74.5906 62.7534 75.8539 76.2129 71.33 91.1593C67.9752 92.4392 64.3219 92.4247 60.4136 91.2976L61.3806 64.1258L38.6139 79.826L37.2324 71.2658C45.9838 62.8709 61.1153 50.188 71.5197 49.6733Z" fill="#708CD5"/>
<path opacity="0.3" d="M86.5 81.186C84.4396 82.0261 82.0932 82.7623 79.5934 83.2489C78.2212 75.3551 77.9186 62.3873 79.0338 56.5356L86.5 81.186Z" fill="#1F3C88"/>
<path opacity="0.6" d="M105.893 56.2779C105.881 56.3278 105.872 56.3735 105.86 56.4193C105.151 59.3347 105.022 60.7613 102.601 60.3786L100.11 57.5339L100.085 57.5048L100.408 55.7996L100.475 55.6041L100.848 54.5145L100.893 54.373L105.893 56.2779Z" fill="#E28B6D"/>
<path d="M105.462 58.9271C105.462 58.9271 99.3474 71.9239 95.72 72.2358C92.2035 72.5384 90.538 69.1166 90.538 69.1166L93.0253 88.1107C90.1027 89.4832 86.9147 90.1528 83.2127 89.4956C79.9252 78.7862 78.6826 64.9389 78.438 49.5173C81.0995 49.6837 86.3706 49.9114 88.2579 51.1289C91.6438 53.3124 95.8236 61.1105 95.8236 61.1105L100.695 54.4561L105.462 58.9271Z" fill="#708CD5"/>
<path d="M30.918 40.614C30.918 40.614 31.288 34.3963 31.9191 34.6895C32.5503 34.9827 33.8147 40.3894 33.8147 40.3894L32.4622 42.5791L30.918 40.614Z" fill="#6F3428"/>
<path d="M49.5278 152.886L49.7112 154.932C50.0346 158.544 47.3783 161.736 43.7768 162.061L43.2524 162.107C39.6519 162.432 36.4702 159.767 36.1468 156.154L35.9634 154.108L49.5268 152.885L49.5278 152.886Z" fill="#EE6F57"/>
<path d="M40.6507 53.8051L27.0869 55.0267L35.9536 154.111L49.5174 152.89L40.6507 53.8051Z" fill="#FBC343"/>
<path opacity="0.3" d="M36.0978 52.2114L31.2803 52.6453L39.0523 139.497L43.8698 139.063L36.0978 52.2114Z" stroke="#6F3428" stroke-width="8" stroke-miterlimit="10"/>
<path d="M49.5257 152.887L35.9655 154.11L35.6089 150.117L35.3602 147.343L34.5933 138.817L48.1577 137.594L48.9205 146.12L49.1692 148.894L49.5257 152.887Z" fill="#102048"/>
<path d="M48.9296 146.116L35.3691 147.34L35.6179 150.114L49.1784 148.89L48.9296 146.116Z" fill="#FBC343"/>
<path d="M27.0884 55.0248L30.8557 39.8767C30.8557 39.8767 32.1564 40.4559 33.7338 39.4785L40.6528 53.8031L27.0884 55.0259V55.0248Z" fill="#EE6F57"/>
<path d="M70.1029 40.3281C70.0417 40.1046 69.0302 39.7978 68.8074 39.7355C68.4623 39.6398 68.0861 39.593 67.7503 39.7459C66.5263 40.3011 66.69 42.0593 67.3243 42.9836C67.6839 43.5077 68.2094 43.91 68.8209 44.0858C69.0426 44.1492 71.1486 44.1752 71.0564 43.8352C71.0564 43.8341 70.105 40.3364 70.1029 40.3281Z" fill="#F9B384"/>
<path d="M31.5665 75.667C31.2483 74.6647 30.2016 74.1033 29.2108 74.4464C27.6676 74.9808 26.3233 75.8875 26.1161 77.4304C25.9264 78.8351 26.627 83.3227 29.7549 83.8987L29.4999 81.5936C29.4999 81.5936 31.4152 81.1455 31.7976 80.3126C32.066 79.7293 32.0837 77.2953 31.5665 75.6681V75.667Z" fill="#F9B384"/>
<path d="M89.5811 60.2351C89.7459 61.2166 89.8858 62.2023 90.0195 63.187C90.1584 64.1716 90.2693 65.1604 90.3947 66.1471L90.716 69.1135C90.8092 70.1034 90.9015 71.0942 90.9616 72.0882L90.801 72.1069C90.631 71.1254 90.4931 70.1408 90.3563 69.1551L89.9863 66.1949C89.8817 65.2061 89.7625 64.2184 89.6713 63.2285C89.5749 62.2387 89.4847 61.2478 89.4194 60.2538L89.5801 60.2351H89.5811Z" fill="#1F3C88"/>
<path d="M61.7031 60.0749C61.7011 61.1781 61.6741 62.2792 61.642 63.3803C61.614 64.4814 61.558 65.5825 61.5166 66.6825L61.3373 69.9827C61.2637 71.0817 61.188 72.1817 61.0823 73.2787L60.9206 73.2714C60.9175 72.1682 60.9455 71.0671 60.9766 69.965L61.1082 66.6628C61.1715 65.5627 61.2181 64.4626 61.2937 63.3626C61.3653 62.2636 61.442 61.1635 61.5435 60.0656L61.7052 60.0728L61.7031 60.0749Z" fill="#1F3C88"/>
<path d="M75.1337 40.2251C75.2218 40.6171 75.0601 40.9873 74.7741 41.0517C74.488 41.1162 74.1843 40.85 74.0973 40.4581C74.0092 40.0661 74.1709 39.6959 74.4569 39.6315C74.743 39.567 75.0466 39.8332 75.1337 40.2251Z" fill="#102048"/>
<path d="M79.2659 39.7406C79.2493 40.142 78.9974 40.458 78.7041 40.4456C78.4108 40.4331 78.187 40.0972 78.2046 39.6959C78.2212 39.2946 78.473 38.9785 78.7663 38.991C79.0596 39.0034 79.2835 39.3393 79.2659 39.7406Z" fill="#102048"/>
<path d="M76.9622 40.0692C77.1041 40.4133 77.0813 40.7835 77.1736 41.0652C77.2202 41.2077 77.2845 41.3335 77.3746 41.4104C77.4576 41.4863 77.5923 41.5362 77.7633 41.6028C77.9395 41.6714 78.1271 41.7931 78.2546 41.974C78.3903 42.1497 78.4276 42.4554 78.3043 42.655C78.1944 42.8546 78.0359 42.9649 77.8991 43.0657C77.7571 43.1614 77.6203 43.2643 77.4721 43.3537L77.3653 43.231C77.4741 43.0959 77.5933 42.9742 77.7084 42.8463C77.8265 42.7247 77.9343 42.6061 77.9758 42.4959C78.0639 42.3036 77.8752 42.0935 77.6037 41.9844C77.4638 41.9199 77.2617 41.8638 77.0979 41.6964C76.9404 41.5352 76.8627 41.3345 76.8316 41.1463C76.7632 40.7606 76.8409 40.431 76.8046 40.1107L76.9611 40.0681L76.9622 40.0692Z" fill="#E28B6D"/>
<path d="M73.1562 39.1719C73.2174 38.9255 73.3677 38.6915 73.5791 38.5231C73.7874 38.3495 74.06 38.2548 74.3305 38.2413C74.8746 38.2081 75.4135 38.5189 75.6374 38.9785L75.511 39.0794C75.1513 38.7955 74.7544 38.6406 74.3512 38.6551C73.946 38.6655 73.5781 38.8745 73.3034 39.2416L73.1562 39.1729V39.1719Z" fill="#102048"/>
<path d="M77.4346 38.6624C77.4957 38.47 77.6035 38.287 77.76 38.1373C77.9134 37.9834 78.1269 37.8815 78.3487 37.8451C78.7943 37.7713 79.2721 37.999 79.4483 38.3951L79.3187 38.4929C79.0275 38.2964 78.7093 38.2132 78.4098 38.2548C78.2595 38.2745 78.1176 38.3317 77.9766 38.4139C77.8388 38.5002 77.7123 38.6187 77.5745 38.7455L77.4346 38.6634V38.6624Z" fill="#102048"/>
<path d="M75.1421 44.0972C75.8655 45.2336 76.8304 45.3573 77.5756 44.1606L75.1421 44.0972Z" fill="white"/>
<path opacity="0.4" d="M80.1386 40.5579C80.1344 41.3564 80.065 42.47 79.9323 43.2685C79.4307 43.1063 79.0659 42.6363 79.0659 42.0749C79.0659 41.4468 79.5458 40.6535 80.1386 40.5579Z" fill="#FC8879"/>
<path opacity="0.4" d="M73.375 44.1596C74.1134 44.1596 74.712 43.5591 74.712 42.8183C74.712 42.0776 74.1134 41.4771 73.375 41.4771C72.6367 41.4771 72.0381 42.0776 72.0381 42.8183C72.0381 43.5591 72.6367 44.1596 73.375 44.1596Z" fill="#FC8879"/>
<path d="M69.2271 41.6641C68.9629 41.4843 68.7203 41.2867 68.4799 41.1703C68.3607 41.111 68.2488 41.0756 68.1503 41.084C68.0498 41.0912 67.9348 41.1505 67.8052 41.243L67.6694 41.1547C67.7254 40.9883 67.8446 40.8022 68.0633 40.7294C68.2799 40.6535 68.5006 40.7148 68.6633 40.7991C68.994 40.98 69.2199 41.2462 69.3567 41.5654L69.2282 41.6641H69.2271Z" fill="#E28B6D"/>
<path opacity="0.6" d="M31.7976 80.3115L29.873 86.1767L29.4761 81.5935C30.6721 81.3326 31.325 80.8522 31.7976 80.3115Z" fill="#6F3428"/>
<path d="M0 162.177H268" stroke="#102048" stroke-width="8" stroke-miterlimit="10"/>
</g>
<defs>
<clipPath id="clip0_502_15503">
<rect width="268" height="162" fill="white" transform="translate(0 0.593018)"/>
</clipPath>
</defs>
</svg>
