<svg width="208" height="207" viewBox="0 0 208 207" fill="none" xmlns="http://www.w3.org/2000/svg">
<g clip-path="url(#clip0_500_15362)">
<g style="mix-blend-mode:multiply" opacity="0.36">
<path d="M86.9445 148.331C127.702 148.331 160.742 115.259 160.742 74.4621C160.742 33.6653 127.702 0.593018 86.9445 0.593018C46.1875 0.593018 13.1475 33.6653 13.1475 74.4621C13.1475 115.259 46.1875 148.331 86.9445 148.331Z" fill="#DADEEA"/>
</g>
<path d="M76.3765 141.177C76.3765 141.177 76.091 135.317 67.8071 132.194C67.8071 132.194 69.0892 140.112 76.3765 141.177Z" fill="#48BE97"/>
<path d="M75.7227 151.542C75.7227 151.542 74.8611 143.977 63.873 140.631C63.873 140.631 66.1983 150.773 75.7227 151.542Z" fill="#48BE97"/>
<path d="M78.4685 166.536C78.4685 166.536 77.2177 157.766 64.3247 154.233C64.3247 154.233 67.3611 165.954 78.4685 166.536Z" fill="#48BE97"/>
<path d="M87.4688 182.257C87.4688 182.257 82.5847 172.781 66.5308 173.872C66.5308 173.872 74.6122 185.993 87.4688 182.257Z" fill="#48BE97"/>
<path d="M76.3662 141.286C76.3662 141.286 77.5029 135.53 86.1501 133.644C86.1501 133.644 83.7314 141.291 76.3662 141.286Z" fill="#48BE97"/>
<path d="M75.5098 151.641C75.5098 151.641 77.4614 144.284 88.8179 142.575C88.8179 142.575 85.0445 152.269 75.5098 151.641Z" fill="#48BE97"/>
<path d="M78.2608 166.469C78.2608 166.469 77.1604 157.678 88.6675 150.877C88.6675 150.877 88.8181 162.982 78.2608 166.469Z" fill="#48BE97"/>
<path d="M86.7629 182.356C86.7629 182.356 82.4653 172.599 93.3963 160.785C93.3963 160.785 97.7406 174.693 86.7629 182.356Z" fill="#48BE97"/>
<path d="M76.5011 140.995C76.5011 140.995 68.3937 174.797 105.505 198.945" stroke="#48BE97" stroke-width="2.01" stroke-miterlimit="10" stroke-linecap="round"/>
<path d="M137.644 152.02C137.644 152.02 138.739 146.253 147.376 144.31C147.376 144.31 145.009 151.973 137.644 152.02Z" fill="#48BE97"/>
<path d="M136.653 162.478C136.653 162.478 138.553 155.106 149.899 153.314C149.899 153.314 146.193 163.034 136.653 162.478Z" fill="#48BE97"/>
<path d="M132.168 176.6C132.168 176.6 136.731 169.004 149.977 170.776C149.977 170.776 142.622 180.387 132.168 176.6Z" fill="#48BE97"/>
<path d="M121.455 191.173C121.455 191.173 129.194 183.842 143.981 190.175C143.981 190.175 132.355 198.945 121.455 191.173Z" fill="#48BE97"/>
<path d="M137.639 152.134C137.639 152.134 137.312 146.274 129.002 143.214C129.002 143.214 130.341 151.121 137.639 152.134Z" fill="#48BE97"/>
<path d="M136.658 162.447C136.658 162.447 135.744 154.888 124.73 151.625C124.73 151.625 127.128 161.746 136.658 162.447Z" fill="#48BE97"/>
<path d="M132.282 176.813C132.282 176.813 134.587 168.256 124.128 159.927C124.128 159.927 122.301 171.898 132.282 176.813Z" fill="#48BE97"/>
<path d="M121.668 191.365C121.668 191.365 127.274 182.294 118.082 169.082C118.082 169.082 111.858 182.252 121.668 191.365Z" fill="#48BE97"/>
<path d="M137.551 151.828C137.551 151.828 138.739 180.226 116.524 195.189" stroke="#48BE97" stroke-width="2.01" stroke-miterlimit="10" stroke-linecap="round"/>
<path d="M31.3138 206.593C33.8208 201.153 38.2845 185.193 31.4072 181.857C27.094 179.764 25.8327 183.348 25.8327 183.348C25.8327 183.348 28.947 165.892 21.561 165.855C17.253 165.835 16.5315 170.781 16.5315 170.781C16.5315 170.781 14.1907 165.32 11.3256 163.736C5.10229 160.286 -2.3096 163.85 3.43098 173.607C4.9881 176.251 7.15249 178.153 7.15249 178.153C7.15249 178.153 0.664495 175.706 0.026076 180.351C-0.607153 184.995 11.6941 192.378 11.6941 192.378C11.6941 192.378 8.0141 192.518 7.86877 196.774C7.67153 202.525 19.5368 206.593 19.5368 206.593H31.319H31.3138Z" fill="#36A871"/>
<path d="M7.82227 167.985C15.8933 179.826 22.5215 183.348 27.9143 205.403" stroke="white" stroke-width="0.79" stroke-miterlimit="10" stroke-linecap="round"/>
<path d="M36.7841 206.593C36.5194 198.509 48.4417 181.707 41.2219 177.634C36.6907 175.077 35.4138 179.696 35.4138 179.696C35.4138 179.696 45.6182 162.39 35.855 161.231C32.4553 160.826 30.4778 165.803 30.4778 165.803C30.4778 165.803 30.3947 156.893 27.6698 153.558C23.2268 148.113 13.9256 151.157 16.1159 162.894C17.3201 169.331 21.7371 171.882 21.7371 171.882C21.7371 171.882 17.2682 168.469 15.135 172.952C12.2802 178.958 21.8565 186.72 21.8565 186.72C21.8565 186.72 17.5693 183.541 14.7405 188.741C10.9152 195.761 25.4639 206.603 25.4639 206.603H36.7789L36.7841 206.593Z" fill="#48BE97"/>
<path d="M23.8755 160.016C29.3358 173.898 32.1853 189.131 33.3635 205.221" stroke="white" stroke-width="0.79" stroke-miterlimit="10" stroke-linecap="round"/>
<path d="M180.236 206.593C182.012 200.026 173.458 187.089 180.102 183.785C184.269 181.712 186.506 183.832 186.506 183.832C186.506 183.832 181.602 170.791 189.74 169.851C192.579 169.523 193.436 172.054 193.436 172.054C193.436 172.054 194.562 168.193 197.604 165.767C203.37 161.174 210.886 162.878 206.842 172.407C204.626 177.633 202.872 178.402 202.872 178.402C202.872 178.402 206.879 177.623 207.746 181.265C208.903 186.144 199.301 194.306 199.301 194.306C199.301 194.306 202.752 194.633 203.204 197.215C204.211 202.93 192.107 206.593 192.107 206.593H180.221H180.236Z" fill="#36A871"/>
<path d="M204.221 166.723C193.176 175.701 192.766 193.973 187.171 204.525" stroke="white" stroke-width="0.72" stroke-miterlimit="10" stroke-linecap="round"/>
<path d="M175.243 206.593C171.241 200.005 162.542 180.689 168.921 176.646C172.923 174.111 175.15 178.454 175.15 178.454C175.15 178.454 167.484 157.319 175.233 157.273C179.748 157.247 181.757 163.237 181.757 163.237C181.757 163.237 183.288 157.039 185.437 153.308C190.378 144.731 201.969 148.16 197.879 161.767C196.84 165.216 193.726 169.591 193.726 169.591C193.726 169.591 200.925 169.16 200.733 175.394C200.552 181.307 190.576 186.871 190.576 186.871C190.576 186.871 197.209 185.39 198.429 190.544C200.079 197.506 185.432 206.588 185.432 206.588H175.243V206.593Z" fill="#48BE97"/>
<path d="M192.361 156.727C186.786 175.628 178.622 178.449 178.508 205.149" stroke="white" stroke-width="0.72" stroke-miterlimit="10" stroke-linecap="round"/>
<path d="M107.556 157.522C107.556 157.522 108.007 153.516 113.82 151.739C113.82 151.739 112.596 157.106 107.556 157.522Z" fill="#36A871"/>
<path d="M107.55 164.655C107.55 164.655 108.469 159.512 116.146 157.699C116.146 157.699 114.111 164.546 107.55 164.655Z" fill="#36A871"/>
<path d="M105.012 174.807C105.012 174.807 106.253 168.853 115.237 166.998C115.237 166.998 112.647 174.896 105.012 174.807Z" fill="#36A871"/>
<path d="M98.1611 185.183C98.1611 185.183 101.924 178.901 112.871 180.351C112.871 180.351 106.803 188.3 98.1611 185.183Z" fill="#36A871"/>
<path d="M107.555 157.6C107.555 157.6 107.031 153.605 101.182 151.937C101.182 151.937 102.505 157.283 107.555 157.6Z" fill="#36A871"/>
<path d="M107.69 164.728C107.69 164.728 106.673 159.6 98.9653 157.932C98.9653 157.932 101.13 164.738 107.69 164.728Z" fill="#36A871"/>
<path d="M105.158 174.771C105.158 174.771 106.294 168.796 98.706 163.632C98.706 163.632 98.0727 171.919 105.158 174.771Z" fill="#36A871"/>
<path d="M98.6384 185.281C98.6384 185.281 102.007 178.782 95.0363 170.209C95.0363 170.209 91.4497 179.551 98.6384 185.281Z" fill="#36A871"/>
<path d="M107.478 157.392C107.478 157.392 111.557 180.907 85.0708 195.828" stroke="#36A871" stroke-width="1.38" stroke-miterlimit="10" stroke-linecap="round"/>
<path d="M108.189 206.593H100.538C95.2182 206.593 86.9447 191.677 86.9447 185.894C86.9447 180.112 95.1923 164.91 100.538 164.91H108.189C114.963 164.91 120.314 167.019 124.098 171.181C127.731 175.187 129.573 180.138 129.573 185.894C129.573 191.651 127.71 196.618 124.035 200.535C120.257 204.556 114.926 206.593 108.189 206.593ZM87.9569 146.902L88.0763 140.912C88.2787 130.578 89.6801 122.51 92.3583 116.244C95.0625 109.921 100.232 103.281 108.163 95.9506L108.288 95.8415L126.662 79.7979C133.352 73.3607 136.606 66.804 136.606 59.759C136.606 52.7139 134.691 48.0484 130.752 44.4376C126.719 40.7436 120.454 38.8732 112.139 38.8732C103.824 38.8732 97.2581 40.6605 92.4881 44.1882C88.1437 47.399 86.1195 51.4151 86.1195 56.8235V62.6944H48.2036L48.2918 56.7352C48.5047 41.9437 54.785 29.8539 66.9513 20.7982C78.609 12.127 93.8116 7.72644 112.139 7.72644C130.466 7.72644 146.437 12.2517 157.394 21.1775C168.704 30.3994 174.439 43.1335 174.439 59.0212C174.439 74.9089 166.088 90.0017 149.614 104.653L149.489 104.762L134.245 117.558C128.634 122.899 125.909 130.578 125.909 141.026V146.897H87.9621L87.9569 146.902Z" fill="#65A4DA"/>
<path d="M100.538 206.593C93.7803 206.593 88.4653 204.546 84.7334 200.499C81.1261 196.587 79.2939 191.677 79.2939 185.894C79.2939 180.112 81.1001 175.212 84.6659 171.217C88.403 167.03 93.7439 164.905 100.538 164.905C107.332 164.905 112.663 167.014 116.447 171.176C120.08 175.181 121.923 180.133 121.923 185.889C121.923 191.646 120.059 196.613 116.384 200.53C112.606 204.551 107.275 206.588 100.538 206.588V206.593ZM80.306 146.902L80.4254 140.912C80.6278 130.578 82.0292 122.51 84.7075 116.244C87.4116 109.921 92.5813 103.281 100.512 95.9506L100.637 95.8415L119.011 79.7979C125.701 73.3607 128.956 66.804 128.956 59.759C128.956 52.7139 127.04 48.0484 123.101 44.4376C119.068 40.7436 112.803 38.8732 104.488 38.8732C96.173 38.8732 89.6072 40.6605 84.8372 44.1882C80.4928 47.399 78.4686 51.4151 78.4686 56.8235V62.6944H40.5527L40.641 56.7352C40.8538 41.9437 47.1342 29.8539 59.3005 20.7982C70.9581 12.127 86.1608 7.72644 104.488 7.72644C122.815 7.72644 138.786 12.2517 149.743 21.1775C161.053 30.3994 166.788 43.1335 166.788 59.0212C166.788 74.9089 158.437 90.0017 141.963 104.653L141.838 104.762L126.594 117.558C120.983 122.899 118.258 130.578 118.258 141.026V146.897H80.3112L80.306 146.902Z" fill="#7DBBF1"/>
<path d="M52.0648 198.472C52.2569 200.945 51.442 206.463 52.0856 206.593H70.3247C70.3247 206.593 70.5063 203.813 68.3471 203.211C65.4613 202.405 61.9474 201.813 60.6394 200.66C59.9906 200.088 59.6792 198.478 59.6792 198.478H52.07L52.0648 198.472Z" fill="#0A1930"/>
<path d="M65.3264 202.437C65.3264 202.437 63.0062 202.229 62.1758 203.548" stroke="#7DBBF1" stroke-width="0.85" stroke-linecap="round" stroke-linejoin="round"/>
<path d="M63.2347 201.818C63.2347 201.818 60.9146 201.611 60.0894 202.93" stroke="#7DBBF1" stroke-width="0.85" stroke-linecap="round" stroke-linejoin="round"/>
<path d="M41.4402 198.472C41.2067 202.021 41.8243 206.292 40.8226 206.593H28.703C28.703 206.593 28.5317 204.603 30.1459 202.951C30.8103 202.275 32.3726 201.496 33.0837 200.784C33.7273 200.135 33.8311 198.472 33.8311 198.472H41.4402Z" fill="#0A1930"/>
<path d="M34.1427 202.883C34.1427 202.883 32.5907 201.055 30.6392 202.53" stroke="#7DBBF1" stroke-width="0.85" stroke-linecap="round" stroke-linejoin="round"/>
<path d="M36.0472 201.953C36.0472 201.953 33.7219 200.041 31.9468 201.538" stroke="#7DBBF1" stroke-width="0.85" stroke-linecap="round" stroke-linejoin="round"/>
<path d="M65.3056 99.7327C65.835 103.006 65.6585 106.502 65.8246 106.331C66.2606 105.863 71.4562 103.307 71.8714 103.094C73.7711 102.117 75.2815 102.175 76.3352 102.227C76.6829 102.242 77.7314 102.164 77.7314 102.164C77.7314 102.164 78.5515 101.967 79.1276 102.227C79.7089 102.491 79.8698 102.944 79.3352 103.125C78.8577 103.286 77.9598 103.421 77.9598 103.421C77.9598 103.421 79.8179 103.385 81.2816 103.266C81.8318 103.224 81.8941 103.972 81.8941 103.972C81.8941 103.972 82.1277 103.936 82.2419 103.91C82.9893 103.744 83.2747 104.866 82.9789 104.954C82.4806 105.1 82.138 105.141 82.138 105.141C82.3249 105.214 82.6571 105.733 82.1848 105.874C81.6709 106.024 80.3006 106.3 80.3006 106.3C80.6276 106.3 80.8975 106.928 80.7055 106.996C79.9477 107.271 77.3733 107.91 77.0047 107.947C76.6777 107.978 74.9961 107.962 74.2486 107.843C73.6569 107.754 72.4009 107.464 72.4009 107.464C72.4009 107.464 63.9924 114.332 62.7467 114.02C61.8228 113.786 60.0425 112.68 59.7519 111.028C59.456 109.37 57.4629 99.5249 57.4629 99.5249C58.2415 94.558 64.5166 94.771 65.3108 99.7275L65.3056 99.7327Z" fill="#F4A484"/>
<path d="M71.7727 104.975C71.7727 104.975 71.7312 106.58 72.2555 107.308" stroke="#E08D68" stroke-width="0.57" stroke-linecap="round" stroke-linejoin="round"/>
<path d="M76.6987 103.593C76.6987 103.593 75.8682 104.975 73.2886 104.793C75.2505 105.152 76.4859 107.147 76.4859 107.147" stroke="#E08D68" stroke-width="0.57" stroke-linecap="round" stroke-linejoin="round"/>
<path d="M80.114 106.3L77.3008 106.705" stroke="#E08D68" stroke-width="0.57" stroke-linecap="round" stroke-linejoin="round"/>
<path d="M81.707 105.1L77.4717 105.593" stroke="#E08D68" stroke-width="0.57" stroke-linecap="round" stroke-linejoin="round"/>
<path d="M81.536 103.977L77.6899 104.336" stroke="#E08D68" stroke-width="0.57" stroke-linecap="round" stroke-linejoin="round"/>
<path d="M57.4889 64.7829C57.4889 64.7829 58.2674 65.5986 58.4595 67.4014C58.6463 69.2094 57.2397 71.6045 57.2397 71.6045L57.4889 64.7777V64.7829Z" fill="#24292D"/>
<path d="M62.7727 124.084C63.3644 129.685 60.1775 199.221 60.1775 199.221H52.0493C52.0493 199.221 49.5008 149.755 49.8434 142.538C50.186 135.322 48.6289 128.474 49.0856 124.084C49.5424 119.694 61.7761 114.639 62.7727 124.084Z" fill="#FE5456"/>
<path d="M51.8989 124.292C51.9041 149.433 41.7206 199.221 41.7206 199.221H33.3433C33.3433 199.221 37.5631 142.58 37.7188 135.337C37.833 130.137 38.4195 126.515 38.9281 122.115C39.7949 114.68 51.8886 114.831 51.8937 124.297L51.8989 124.292Z" fill="#FE5456"/>
<g style="mix-blend-mode:multiply" opacity="0.36">
<path d="M62.8245 129.336C62.456 129.129 62.0304 128.89 61.6048 128.625C60.3954 127.892 60.0373 128.053 51.8209 128.568C51.7171 128.573 51.6081 128.578 51.4991 128.583C50.6894 128.63 49.8901 128.635 49.1167 128.609C43.9315 128.396 39.7013 126.583 38.4712 126.001C38.6217 124.733 38.7878 123.46 38.9383 122.115C39.6909 115.704 48.7949 114.929 51.2759 120.915C54.9559 118.078 62.0304 116.992 62.7726 124.084C62.8505 124.822 62.8609 126.671 62.8245 129.331V129.336Z" fill="#FE5456"/>
</g>
<path d="M60.2241 84.0788C66.1827 89.6796 65.8505 104.575 65.8505 104.575C65.8505 104.575 60.3642 108.227 57.0995 106.804C57.0995 106.804 54.6288 91.5291 55.9316 86.8169C56.7258 83.9386 59.1133 83.0398 60.2241 84.084V84.0788Z" fill="#021946"/>
<g style="mix-blend-mode:multiply" opacity="0.36">
<path d="M64.3555 98.2365C64.2776 101.094 64.2984 103.78 64.1323 105.557C62.2482 106.518 59.2066 107.723 57.0941 106.804C57.0941 106.804 54.6235 91.5291 55.9262 86.822C56.2792 85.5647 56.928 84.6867 57.6443 84.1879L60.2187 84.0892L60.2291 84.0996C60.5146 84.4062 64.6461 87.7832 64.3503 98.2417L64.3555 98.2365Z" fill="#021946"/>
</g>
<path d="M44.9334 81.8241C44.9334 81.8241 36.1928 83.2632 35.9281 84.8582C35.6634 86.4532 38.9853 109.464 38.9853 114.867C38.9853 120.27 38.3572 125.383 38.3572 125.383C38.3572 125.383 45.3591 127.347 52.0495 127.222C58.7347 127.097 63.0012 126.1 63.0012 126.1C63.0012 126.1 62.6119 119.455 62.4822 115.039C62.3472 110.617 63.3905 97.7273 63.4009 93.0047C63.4113 88.8951 61.4804 85.544 60.2244 84.0841C59.1863 82.8787 53.726 81.6058 53.726 81.6058L44.9386 81.8241H44.9334Z" fill="#021946"/>
<g style="mix-blend-mode:multiply" opacity="0.36">
<path d="M40.7654 113.075C40.0128 114.431 39.4211 115.563 38.9592 116.504C38.9747 115.963 38.9851 115.413 38.9851 114.862C38.9851 111.272 37.511 99.9041 36.6079 92.2201L43.3658 88.2975C44.1963 90.9212 44.1963 106.871 40.7654 113.08V113.075Z" fill="#021946"/>
</g>
<path d="M45.7272 78.5977L44.9331 81.8448C44.9331 81.8448 48.364 87.5702 52.4177 86.9987C56.4714 86.4272 53.7256 81.6058 53.7256 81.6058L53.8865 79.4549L46.4124 75.0232L45.7324 78.5977H45.7272Z" fill="#E08D68"/>
<path d="M57.8882 66.3311C58.101 67.4066 58.0076 70.9187 57.8 73.6308C57.5976 76.2545 56.8917 80.0575 55.402 80.3901C53.9124 80.7226 47.5178 79.486 47.222 75.8077C46.132 74.9452 41.9952 69.8744 43.4485 67.3598C46.0385 62.8969 57.2083 62.8658 57.8882 66.3259V66.3311Z" fill="#F4A484"/>
<path d="M52.6671 72.5189C52.9136 72.5189 53.1135 72.2211 53.1135 71.8539C53.1135 71.4866 52.9136 71.1888 52.6671 71.1888C52.4206 71.1888 52.2207 71.4866 52.2207 71.8539C52.2207 72.2211 52.4206 72.5189 52.6671 72.5189Z" fill="#24292D"/>
<path d="M57.0842 71.6668C57.0842 72.0357 56.8869 72.3319 56.6378 72.3319C56.3886 72.3319 56.1914 72.0357 56.1914 71.6668C56.1914 71.298 56.3886 71.0018 56.6378 71.0018C56.8869 71.0018 57.0842 71.298 57.0842 71.6668Z" fill="#24292D"/>
<path d="M53.4144 70.2329C52.558 69.9731 51.8625 70.0199 51.1514 70.607C51.4524 69.6562 52.8227 69.5003 53.4144 70.2329Z" fill="#24292D"/>
<path d="M55.3813 70.0459C55.9782 69.3133 57.3433 69.4692 57.6444 70.4199C56.9333 69.838 56.2378 69.7861 55.3813 70.0459Z" fill="#24292D"/>
<path d="M55.0599 72.6437C55.2675 73.5425 56.0201 74.4413 56.3834 75.2882C56.8091 76.1194 55.5945 76.3221 55.0184 76.3013L55.0132 76.2649C55.3817 76.0675 55.8748 75.9116 56.0824 75.6467C55.9994 75.1583 55.5374 74.2699 55.3454 73.8023C55.2052 73.4334 55.0391 73.0593 55.0236 72.6489H55.0599V72.6437Z" fill="#E5744C"/>
<path d="M56.4609 76.8779C56.4609 76.8779 55.2568 76.7636 54.063 77.3611C54.063 77.3611 56.1132 77.6572 56.3 77.4546C56.4869 77.252 56.4609 76.8779 56.4609 76.8779Z" fill="white"/>
<path d="M58.0856 67.2663C57.7586 67.9625 55.5371 68.9808 51.4574 68.7574C51.4574 68.7574 53.4973 68.1963 53.9488 66.5961C53.9488 66.5961 52.3035 69.1159 49.101 69.0536C49.101 69.0536 49.3813 71.3032 48.0006 73.6152C48.0006 73.6152 47.0819 74.8309 47.2169 75.8129C47.3467 76.7325 46.3709 78.3742 45.7272 78.7483C45.338 75.8388 42.2964 70.1498 42.8881 66.9442C43.4902 63.7022 46.4072 63.6451 46.4072 63.6451C47.7359 61.5305 52.6512 60.6577 55.8537 62.4086C58.2257 63.7022 58.6773 65.9986 58.0856 67.2663Z" fill="#24292D"/>
<path d="M48.333 72.6177C47.653 70.9396 45.3537 71.0746 45.3381 72.493C45.3174 74.8206 46.7188 75.5064 47.217 75.8129C47.7153 76.1142 48.743 73.636 48.333 72.6229V72.6177Z" fill="#F4A484"/>
<path d="M34.3292 99.8211C33.7998 103.094 33.3586 106.315 33.1925 106.139C32.7565 105.671 25.2149 103.614 24.7478 103.333C22.5418 102.014 21.0003 102.221 20.0297 102.221L18.6335 102.159C18.6335 102.159 17.8134 101.962 17.2372 102.221C16.6559 102.486 16.495 102.938 17.0296 103.12C17.5071 103.281 18.4051 103.416 18.4051 103.416C18.4051 103.416 16.5469 103.38 15.0832 103.261C14.533 103.219 14.4708 103.967 14.4708 103.967C14.4708 103.967 14.2372 103.931 14.123 103.905C13.3756 103.738 13.0901 104.861 13.386 104.949C13.8842 105.094 14.2268 105.136 14.2268 105.136C14.04 105.209 13.7078 105.728 14.1801 105.869C14.694 106.019 16.0642 106.295 16.0642 106.295C15.7372 106.295 15.4673 106.923 15.6594 106.991C16.4172 107.266 18.9916 107.905 19.3601 107.942C19.6871 107.973 21.3688 107.957 22.1162 107.838C22.7079 107.749 23.9588 107.697 23.9588 107.697C23.9588 107.697 34.6303 112.872 35.9071 113.033C37.0646 113.179 38.9902 112.768 39.6079 111.023C40.1684 109.433 42.5093 99.7692 42.5093 99.7692C41.7307 94.8023 35.1234 94.8542 34.324 99.8107L34.3292 99.8211Z" fill="#F4A484"/>
<path d="M24.0938 107.588C24.0938 107.588 24.5972 106.897 24.7218 105.936" stroke="#E08D68" stroke-width="0.57" stroke-linecap="round" stroke-linejoin="round"/>
<path d="M19.6611 103.593C19.6611 103.593 20.4916 104.975 23.0712 104.793C21.1093 105.152 19.8739 107.147 19.8739 107.147" stroke="#E08D68" stroke-width="0.57" stroke-linecap="round" stroke-linejoin="round"/>
<path d="M16.2461 106.3L19.0645 106.705" stroke="#E08D68" stroke-width="0.57" stroke-linecap="round" stroke-linejoin="round"/>
<path d="M14.6523 105.1L18.8877 105.593" stroke="#E08D68" stroke-width="0.57" stroke-linecap="round" stroke-linejoin="round"/>
<path d="M14.8237 103.978L18.6698 104.336" stroke="#E08D68" stroke-width="0.57" stroke-linecap="round" stroke-linejoin="round"/>
<path d="M35.9122 84.8425C33.0159 90.6303 32.9121 103.697 32.9121 103.697C32.9121 103.697 38.6267 106.674 42.0264 105.292C42.0264 105.292 44.2324 92.8539 43.3656 88.2923C42.8362 85.5076 37.3188 82.0266 35.9122 84.8425Z" fill="#021946"/>
<path d="M158.447 198.473C158.255 200.946 159.07 206.463 158.426 206.593H140.187C140.187 206.593 140.006 203.813 142.165 203.211C145.051 202.405 148.565 201.813 149.873 200.66C150.521 200.088 150.833 198.478 150.833 198.478H158.442L158.447 198.473Z" fill="#FE5456"/>
<path d="M145.191 202.437C145.191 202.437 147.511 202.229 148.341 203.549" stroke="#7DBBF1" stroke-width="0.85" stroke-linecap="round" stroke-linejoin="round"/>
<path d="M147.283 201.818C147.283 201.818 149.603 201.611 150.433 202.93" stroke="#7DBBF1" stroke-width="0.85" stroke-linecap="round" stroke-linejoin="round"/>
<path d="M169.077 198.473C169.311 202.021 168.693 206.292 169.695 206.593H181.814C181.814 206.593 181.986 204.603 180.371 202.951C179.707 202.276 178.145 201.496 177.434 200.785C176.79 200.135 176.686 198.473 176.686 198.473H169.077Z" fill="#FE5456"/>
<path d="M176.375 202.883C176.375 202.883 177.927 201.055 179.879 202.53" stroke="#7DBBF1" stroke-width="0.85" stroke-linecap="round" stroke-linejoin="round"/>
<path d="M174.465 201.954C174.465 201.954 176.79 200.042 178.565 201.538" stroke="#7DBBF1" stroke-width="0.85" stroke-linecap="round" stroke-linejoin="round"/>
<path d="M147.179 123.871C146.587 129.472 150.511 199.221 150.511 199.221H158.639C158.639 199.221 161.188 149.755 160.845 142.538C160.503 135.322 162.06 128.474 161.603 124.084C161.146 119.694 148.175 114.426 147.179 123.871Z" fill="#021946"/>
<path d="M158.79 124.292C158.784 149.433 168.968 199.221 168.968 199.221H177.345C177.345 199.221 173.125 142.58 172.97 135.337C172.856 130.137 172.269 126.515 171.76 122.115C170.894 114.68 158.8 114.831 158.795 124.297L158.79 124.292Z" fill="#021946"/>
<g style="mix-blend-mode:multiply" opacity="0.36">
<path d="M172.253 126.209C170.847 126.832 166.669 128.459 161.582 128.474C161.115 128.474 160.632 128.464 160.149 128.433C159.708 128.407 159.283 128.381 158.862 128.36C152.727 128.038 149.348 128.178 148.284 128.469C147.869 128.578 147.48 128.931 147.163 129.337C147.101 126.557 147.09 124.619 147.173 123.866C147.926 116.712 155.54 118 159.392 120.941C160.004 119.444 161.021 118.369 162.226 117.694L168.023 117.273C169.933 118 171.459 119.637 171.75 122.104C171.916 123.528 172.093 124.863 172.248 126.204L172.253 126.209Z" fill="#021946"/>
</g>
<path d="M150.843 84.079C144.885 89.6797 145.217 104.575 145.217 104.575C145.217 104.575 150.703 108.227 153.968 106.804C153.968 106.804 156.438 91.5293 155.136 86.817C154.341 83.9387 151.954 83.0399 150.843 84.0842V84.079Z" fill="#1B84C1"/>
<path d="M167.515 81.8241C167.515 81.8241 175.835 84.4737 176.105 86.0687C176.37 87.6637 171.745 109.204 171.745 114.607C171.745 120.011 172.332 125.383 172.332 125.383C172.332 125.383 165.33 127.347 158.639 127.222C151.949 127.097 146.945 125.887 146.945 125.887C146.945 125.887 147.309 119.278 147.444 114.857C147.579 110.435 147.672 97.7273 147.662 93.0047C147.651 88.8951 149.582 85.544 150.838 84.0841C151.876 82.8787 158.717 81.6058 158.717 81.6058L167.504 81.8241H167.515Z" fill="#1B84C1"/>
<g style="mix-blend-mode:multiply" opacity="0.36">
<path d="M171.745 114.602C171.745 116.104 171.792 117.605 171.854 118.982C170.52 116.358 168.018 113.942 166.747 113.537C165.127 113.023 151.44 107.422 150.366 107.645C149.79 107.765 148.575 107.604 147.573 107.427C147.599 105.848 147.61 104.185 147.625 102.554L154.783 82.4839C156.765 81.9591 158.727 81.5955 158.727 81.5955C158.141 82.0631 157.326 84.7387 156.729 86.0636C156.127 87.3884 152.841 101.302 152.841 101.302L164.022 102.414C165.418 91.737 168.428 87.4352 168.428 87.4352L175.082 93.0566C173.79 100.31 171.75 111.012 171.75 114.602H171.745Z" fill="#1B84C1"/>
</g>
<path d="M166.715 78.5977L167.509 81.8448C167.509 81.8448 164.079 87.5702 160.025 86.9987C155.971 86.4272 158.717 81.6058 158.717 81.6058L158.556 79.4549L166.03 75.0232L166.71 78.5977H166.715Z" fill="#E08D68"/>
<path d="M154.855 66.3728C154.642 67.4482 154.44 70.924 154.653 73.636C154.855 76.2597 155.561 80.0576 157.051 80.3901C158.54 80.7226 164.935 79.4913 165.231 75.8129C166.321 74.9505 170.458 69.8797 169.004 67.3651C166.414 62.9022 155.535 62.9126 154.855 66.3728Z" fill="#F4A484"/>
<path d="M159.781 72.519C160.028 72.519 160.228 72.2213 160.228 71.854C160.228 71.4867 160.028 71.189 159.781 71.189C159.535 71.189 159.335 71.4867 159.335 71.854C159.335 72.2213 159.535 72.519 159.781 72.519Z" fill="#24292D"/>
<path d="M155.894 72.254C156.14 72.254 156.34 71.9562 156.34 71.589C156.34 71.2217 156.14 70.924 155.894 70.924C155.647 70.924 155.447 71.2217 155.447 71.589C155.447 71.9562 155.647 72.254 155.894 72.254Z" fill="#24292D"/>
<path d="M158.998 70.5032C159.47 69.5992 160.991 69.6148 161.396 70.5915C160.575 70.1967 159.88 70.1759 158.998 70.5032Z" fill="#24292D"/>
<path d="M157.373 70.2434C156.49 69.9161 155.795 69.9369 154.975 70.3318C155.374 69.355 156.9 69.3394 157.373 70.2434Z" fill="#24292D"/>
<path d="M157.424 72.6437C157.357 73.7087 156.568 74.7738 156.371 75.8077C156.573 76.0623 157.056 76.2389 157.435 76.4468L157.424 76.4831C156.947 76.4727 156.153 76.4156 155.971 75.8649C155.945 75.4752 156.189 75.1583 156.345 74.8362C156.656 74.2023 157.253 73.3347 157.378 72.6437H157.414H157.424Z" fill="#E08D68"/>
<path d="M155.868 77.3559C155.868 77.3559 157.041 76.9247 158.234 77.5222C158.234 77.5222 156.184 77.8183 155.997 77.6157C155.81 77.4131 155.868 77.3559 155.868 77.3559Z" fill="white"/>
<path d="M154.622 67.76C154.949 68.4562 160.814 68.4094 164.016 68.3471C164.016 68.3471 163.061 71.3033 164.442 73.6153C164.442 73.6153 165.361 74.831 165.226 75.8129C165.096 76.7325 166.611 78.8731 166.7 78.1301C166.98 75.8285 170.167 69.2823 169.305 66.139C168.573 63.4789 166.907 63.6036 166.907 63.6036C165.579 61.4891 162.272 62.6269 155.629 61.1617C152.992 60.5799 154.03 66.4923 154.627 67.7652L154.622 67.76Z" fill="#24292D"/>
<path d="M164.11 72.6177C164.79 70.9396 167.089 71.0746 167.105 72.493C167.126 74.8206 165.724 75.5064 165.226 75.8129C164.728 76.1142 163.7 73.636 164.11 72.6229V72.6177Z" fill="#F4A484"/>
<path d="M146.846 106.134C147.848 106.487 148.134 106.57 148.544 106.58C149.54 106.606 150.199 106.528 150.199 106.528C150.199 106.528 165.044 111.74 166.451 111.656C167.494 111.589 169.767 110.919 170.748 109.256C171.683 107.666 173.759 101.286 174.527 98.4547C175.97 93.1346 168.864 92.2929 167.001 97.4676C165.771 100.891 165.438 104.445 165.293 104.227C164.919 103.635 152.582 102.377 152.328 101.93C151.834 101.047 150.059 100.647 149.556 100.626C149.006 100.6 148.762 100.502 148.539 100.455C147.859 100.304 147.267 100.969 147.926 101.265C148.435 101.494 149.353 101.868 149.353 101.868C149.353 101.868 146.177 100.736 145.57 100.502C144.962 100.268 144.262 101.167 145.097 101.645C145.933 102.123 146.099 102.195 146.099 102.195C146.099 102.195 145.523 101.801 144.962 101.941C144.589 102.034 144.807 103.089 145.222 103.214C145.269 103.229 145.44 103.276 145.44 103.276C145.44 103.276 144.635 104.092 145.767 104.497C145.86 104.528 145.959 104.565 145.959 104.565C145.959 104.565 145.295 105.131 145.814 105.479C146.333 105.827 146.836 106.139 146.836 106.139L146.846 106.134Z" fill="#F4A484"/>
<path d="M157.093 83.8763C156.724 85.3934 156.086 85.0245 155.888 85.4661C155.681 85.9337 151.71 100.943 151.565 101.629C151.093 103.848 148.295 105.583 146.681 104.85C144.921 104.05 144.314 101.588 144.641 100.19C144.963 98.8132 152.115 84.3179 152.115 84.3179C152.115 84.3179 152.655 79.803 152.94 79.642C153.729 79.1952 155.203 78.6756 155.39 78.6341C155.925 78.525 158.432 78.6497 158.416 78.6341C158.401 78.6185 158.38 79.216 157.97 79.4809C157.799 79.59 155.831 79.8031 155.831 79.8031C155.831 79.8031 157.643 79.8966 157.726 80.0784C157.809 80.2551 158.022 82.3073 157.939 82.5359C157.669 83.3048 157.134 83.7256 157.098 83.8815L157.093 83.8763Z" fill="#F4A484"/>
<path d="M154.191 80.1512L155.058 79.9434" stroke="#E08D68" stroke-width="0.57" stroke-linecap="round" stroke-linejoin="round"/>
<path d="M154.362 80.9304C154.362 80.9304 156.916 80.9616 156.994 81.0291C157.072 81.0915 157.248 82.2241 157.44 82.4007C157.632 82.5774 157.726 82.5566 157.726 82.5566" stroke="#E08D68" stroke-width="0.57" stroke-linecap="round" stroke-linejoin="round"/>
<path d="M153.963 81.9332C153.963 81.9332 156.049 82.1618 156.174 82.219C156.304 82.2761 156.532 83.4451 156.932 83.4659C157.337 83.4867 157.435 83.0243 157.435 83.0243" stroke="#E08D68" stroke-width="0.57" stroke-linecap="round" stroke-linejoin="round"/>
<path d="M154.082 82.9619L155.784 83.2217" stroke="#E08D68" stroke-width="0.57" stroke-linecap="round" stroke-linejoin="round"/>
<path d="M155.209 83.7568C154.804 83.7931 154.996 84.5049 155.209 84.5413C155.421 84.5777 156.127 84.6192 156.283 84.5413C156.439 84.4634 156.719 84.0529 156.724 83.736C156.724 83.5853 156.496 82.9567 156.496 82.9567" stroke="#E08D68" stroke-width="0.57" stroke-linecap="round" stroke-linejoin="round"/>
<path d="M156.169 85.1544C156.169 85.1544 155.234 85.6999 153.817 85.4454" stroke="#E08D68" stroke-width="0.57" stroke-linecap="round" stroke-linejoin="round"/>
<path d="M155.696 85.7415C155.696 85.7415 155.281 86.0117 154.362 85.674" stroke="#E08D68" stroke-width="0.57" stroke-linecap="round" stroke-linejoin="round"/>
<path d="M155.65 78.6082C155.65 78.6082 158.297 78.6393 158.416 78.6393C158.536 78.6393 158.307 79.3979 157.97 79.4862C157.633 79.5693 155.832 79.8083 155.832 79.8083C155.832 79.8083 157.69 79.933 157.726 80.0837C157.762 80.2291 157.866 81.0344 157.866 81.0344" stroke="#E08D68" stroke-width="0.57" stroke-linecap="round" stroke-linejoin="round"/>
<path d="M176.115 86.0532C178.846 89.0302 172.851 105.287 172.851 105.287C172.851 105.287 168.19 104.965 164.79 103.588C164.79 103.588 167.401 89.4303 168.418 87.4404C169.705 84.9154 173.987 83.7308 176.115 86.0532Z" fill="#1B84C1"/>
<path d="M151.643 101.307C151.238 103.001 149.779 105.412 147.215 104.98C145.092 104.622 144.677 101.931 144.677 101.931" stroke="#E08D68" stroke-width="0.57" stroke-linecap="round" stroke-linejoin="round"/>
<path d="M35.8326 53.0811C45.4592 48.9928 49.9522 37.867 45.8679 28.2309C41.7836 18.5948 30.6687 14.0975 21.042 18.1858C11.4153 22.274 6.92231 33.3998 11.0066 43.0359C15.0909 52.672 26.2059 57.1694 35.8326 53.0811Z" fill="#DADEEA"/>
<path d="M21.997 35.6312C21.997 36.9665 20.9174 38.0471 19.5835 38.0471C18.2495 38.0471 17.1699 36.9665 17.1699 35.6312C17.1699 34.296 18.2495 33.2153 19.5835 33.2153C20.9174 33.2153 21.997 34.296 21.997 35.6312Z" fill="white"/>
<path d="M30.8515 35.6312C30.8515 36.9665 29.7719 38.0471 28.4379 38.0471C27.104 38.0471 26.0244 36.9665 26.0244 35.6312C26.0244 34.296 27.104 33.2153 28.4379 33.2153C29.7719 33.2153 30.8515 34.296 30.8515 35.6312Z" fill="white"/>
<path d="M39.7065 35.6312C39.7065 36.9665 38.6269 38.0471 37.2929 38.0471C35.959 38.0471 34.8794 36.9665 34.8794 35.6312C34.8794 34.296 35.959 33.2153 37.2929 33.2153C38.6269 33.2153 39.7065 34.296 39.7065 35.6312Z" fill="white"/>
<path d="M27.6079 53.1815C27.6079 53.1815 29.5543 57.9613 37.2932 58.2211C37.2932 58.2211 33.9765 55.852 33.9506 51.9242L27.6079 53.1867V53.1815Z" fill="#DADEEA"/>
<path d="M191.28 68.992C201.466 66.6249 207.807 56.4402 205.442 46.2439C203.077 36.0476 192.902 29.7008 182.716 32.0679C172.53 34.4351 166.189 44.6197 168.554 54.8161C170.919 65.0124 181.093 71.3592 191.28 68.992Z" fill="#DADEEA"/>
<path d="M193.441 50.5162C193.441 51.8515 194.521 52.9321 195.854 52.9321C197.188 52.9321 198.268 51.8515 198.268 50.5162C198.268 49.181 197.188 48.1003 195.854 48.1003C194.521 48.1003 193.441 49.181 193.441 50.5162Z" fill="white"/>
<path d="M184.581 50.5162C184.581 51.8515 185.661 52.9321 186.995 52.9321C188.329 52.9321 189.408 51.8515 189.408 50.5162C189.408 49.181 188.329 48.1003 186.995 48.1003C185.661 48.1003 184.581 49.181 184.581 50.5162Z" fill="white"/>
<path d="M175.726 50.5162C175.726 51.8515 176.806 52.9321 178.14 52.9321C179.474 52.9321 180.553 51.8515 180.553 50.5162C180.553 49.181 179.474 48.1003 178.14 48.1003C176.806 48.1003 175.726 49.181 175.726 50.5162Z" fill="white"/>
<path d="M187.83 68.0613C187.83 68.0613 185.884 72.8411 178.145 73.1009C178.145 73.1009 181.462 70.7317 181.488 66.804L187.83 68.0664V68.0613Z" fill="#DADEEA"/>
</g>
<defs>
<clipPath id="clip0_500_15362">
<rect width="208" height="206" fill="white" transform="translate(0 0.593018)"/>
</clipPath>
</defs>
</svg>
