<svg width="358" height="267" viewBox="0 0 358 267" fill="none" xmlns="http://www.w3.org/2000/svg">
<g clip-path="url(#clip0_540_13111)">
<path d="M357.5 234.354H0.5V234.532H357.5V234.354Z" fill="#EBEBEB"/>
<path d="M321.729 245.84H298.081V246.019H321.729V245.84Z" fill="#EBEBEB"/>
<path d="M236.991 247.782H230.786V247.961H236.991V247.782Z" fill="#EBEBEB"/>
<path d="M297.367 239.216H283.665V239.394H297.367V239.216Z" fill="#EBEBEB"/>
<path d="M68.7941 240.415H37.9564V240.593H68.7941V240.415Z" fill="#EBEBEB"/>
<path d="M79.6755 240.415H75.1559V240.593H79.6755V240.415Z" fill="#EBEBEB"/>
<path d="M161.257 243.427H94.3696V243.606H161.257V243.427Z" fill="#EBEBEB"/>
<path d="M169.725 202.515H31.8517C29.6026 202.515 27.7748 200.687 27.7748 198.439V4.66929C27.7748 2.42056 29.6026 0.593018 31.8517 0.593018H169.725C171.974 0.593018 173.802 2.42056 173.802 4.66929V198.439C173.802 200.687 171.974 202.515 169.725 202.515ZM31.8517 0.771488C29.7026 0.771488 27.9533 2.5205 27.9533 4.66929V198.439C27.9533 200.587 29.7026 202.336 31.8517 202.336H169.725C171.874 202.336 173.624 200.587 173.624 198.439V4.66929C173.624 2.5205 171.874 0.771488 169.725 0.771488H31.8517Z" fill="#EBEBEB"/>
<path d="M324.163 202.515H186.29C184.041 202.515 182.213 200.687 182.213 198.439V4.66929C182.213 2.42056 184.041 0.593018 186.29 0.593018H324.163C326.412 0.593018 328.24 2.42056 328.24 4.66929V198.439C328.24 200.687 326.412 202.515 324.163 202.515ZM186.29 0.771488C184.141 0.771488 182.392 2.5205 182.392 4.66929V198.439C182.392 200.587 184.141 202.336 186.29 202.336H324.163C326.312 202.336 328.062 200.587 328.062 198.439V4.66929C328.062 2.5205 326.312 0.771488 324.163 0.771488H186.29Z" fill="#EBEBEB"/>
<path d="M224.724 37.1653H159.072V185.039H224.724V37.1653Z" fill="#EBEBEB"/>
<path d="M222.247 182.262V39.9352L161.55 39.9352V182.262H222.247Z" fill="#FAFAFA"/>
<path d="M192.594 39.2213H191.202V183.647H192.594V39.2213Z" fill="#F5F5F5"/>
<path d="M226.238 35.2378H157.558V42.1982H226.238V35.2378Z" fill="#E0E0E0"/>
<path d="M226.238 42.9691H157.558V43.7972H226.238V42.9691Z" fill="#F5F5F5"/>
<path d="M226.238 44.8395H157.558V45.6676H226.238V44.8395Z" fill="#F5F5F5"/>
<path d="M226.238 46.7098H157.558V47.5379H226.238V46.7098Z" fill="#F5F5F5"/>
<path d="M226.238 48.5802H157.558V49.4083H226.238V48.5802Z" fill="#F5F5F5"/>
<path d="M226.238 50.4578H157.558V51.2859H226.238V50.4578Z" fill="#F5F5F5"/>
<path d="M226.238 52.3281H157.558V53.1562H226.238V52.3281Z" fill="#F5F5F5"/>
<path d="M226.238 54.1985H157.558V55.0266H226.238V54.1985Z" fill="#F5F5F5"/>
<path d="M226.238 56.0688H157.558V56.897H226.238V56.0688Z" fill="#F5F5F5"/>
<path d="M226.238 57.9464H157.558V58.7745H226.238V57.9464Z" fill="#F5F5F5"/>
<path d="M226.238 59.8168H157.558V60.6449H226.238V59.8168Z" fill="#F5F5F5"/>
<path d="M226.238 61.6871H157.558V62.5152H226.238V61.6871Z" fill="#F5F5F5"/>
<path d="M226.238 63.5575H157.558V64.3856H226.238V63.5575Z" fill="#F5F5F5"/>
<path d="M226.238 65.4351H157.558V66.2632H226.238V65.4351Z" fill="#F5F5F5"/>
<path d="M226.238 67.3054H157.558V68.1335H226.238V67.3054Z" fill="#F5F5F5"/>
<path d="M226.238 69.1758H157.558V70.0039H226.238V69.1758Z" fill="#F5F5F5"/>
<path d="M226.238 71.0461H157.558V71.8742H226.238V71.0461Z" fill="#F5F5F5"/>
<path d="M226.238 72.9237H157.558V73.7518H226.238V72.9237Z" fill="#F5F5F5"/>
<path d="M226.238 74.7941H157.558V75.6222H226.238V74.7941Z" fill="#F5F5F5"/>
<path d="M302.451 37.1653H236.798V185.039H302.451V37.1653Z" fill="#EBEBEB"/>
<path d="M299.973 182.262V39.9352L239.276 39.9352V182.262H299.973Z" fill="#FAFAFA"/>
<path d="M270.321 39.2213H268.928V183.647H270.321V39.2213Z" fill="#F5F5F5"/>
<path d="M303.964 35.2378H235.285V42.1982H303.964V35.2378Z" fill="#E0E0E0"/>
<path d="M303.964 42.9691H235.285V43.7972H303.964V42.9691Z" fill="#F5F5F5"/>
<path d="M303.964 44.8395H235.285V45.6676H303.964V44.8395Z" fill="#F5F5F5"/>
<path d="M303.964 46.7098H235.285V47.5379H303.964V46.7098Z" fill="#F5F5F5"/>
<path d="M303.964 48.5802H235.285V49.4083H303.964V48.5802Z" fill="#F5F5F5"/>
<path d="M303.964 50.4578H235.285V51.2859H303.964V50.4578Z" fill="#F5F5F5"/>
<path d="M303.964 52.3281H235.285V53.1562H303.964V52.3281Z" fill="#F5F5F5"/>
<path d="M303.964 54.1985H235.285V55.0266H303.964V54.1985Z" fill="#F5F5F5"/>
<path d="M303.964 56.0688H235.285V56.897H303.964V56.0688Z" fill="#F5F5F5"/>
<path d="M303.964 57.9464H235.285V58.7745H303.964V57.9464Z" fill="#F5F5F5"/>
<path d="M303.964 59.8168H235.285V60.6449H303.964V59.8168Z" fill="#F5F5F5"/>
<path d="M303.964 61.6871H235.285V62.5152H303.964V61.6871Z" fill="#F5F5F5"/>
<path d="M303.964 63.5575H235.285V64.3856H303.964V63.5575Z" fill="#F5F5F5"/>
<path d="M303.964 65.4351H235.285V66.2632H303.964V65.4351Z" fill="#F5F5F5"/>
<path d="M303.964 67.3054H235.285V68.1335H303.964V67.3054Z" fill="#F5F5F5"/>
<path d="M303.964 69.1758H235.285V70.0039H303.964V69.1758Z" fill="#F5F5F5"/>
<path d="M303.964 71.0461H235.285V71.8742H303.964V71.0461Z" fill="#F5F5F5"/>
<path d="M303.964 72.9237H235.285V73.7518H303.964V72.9237Z" fill="#F5F5F5"/>
<path d="M303.964 74.7941H235.285V75.6222H303.964V74.7941Z" fill="#F5F5F5"/>
<path d="M134.375 122.075V57.8893L51.7652 57.8893V122.075H134.375Z" fill="#E0E0E0"/>
<path d="M52.9147 120.925L133.233 120.925V59.0315L52.9147 59.0315L52.9147 120.925Z" fill="#EBEBEB"/>
<path d="M91.7277 70.218V78.8489" stroke="#E0E0E0" stroke-miterlimit="10"/>
<path d="M72.0999 106.633V78.8489H108.535V94.7827" stroke="#E0E0E0" stroke-miterlimit="10"/>
<path d="M99.1034 103.271V94.7827H119.138V103.563" stroke="#E0E0E0" stroke-miterlimit="10"/>
<path d="M100.945 67.0413H82.5171V73.3805H100.945V67.0413Z" fill="#F5F5F5"/>
<path d="M117.589 82.2612H100.024V89.1502H117.589V82.2612Z" fill="#F5F5F5"/>
<path d="M105.144 99.7157H93.0771V106.826H105.144V99.7157Z" fill="#F5F5F5"/>
<path d="M125.593 100.865H112.677V106.262H125.593V100.865Z" fill="#F5F5F5"/>
<path d="M83.5739 83.7247H63.6176V92.9267H83.5739V83.7247Z" fill="#F5F5F5"/>
<path d="M78.4688 103.271H65.7239V109.996H78.4688V103.271Z" fill="#F5F5F5"/>
<path d="M94.4756 79.0747L91.724 76.3236L88.9724 79.0747L91.724 81.8258L94.4756 79.0747Z" fill="#F5F5F5"/>
<path d="M111.287 94.7814L108.535 92.0303L105.783 94.7814L108.535 97.5325L111.287 94.7814Z" fill="#F5F5F5"/>
<path d="M93.0772 48.8587C99.5048 48.8587 104.715 43.6489 104.715 37.2224C104.715 30.7958 99.5048 25.5861 93.0772 25.5861C86.6496 25.5861 81.439 30.7958 81.439 37.2224C81.439 43.6489 86.6496 48.8587 93.0772 48.8587Z" fill="#E0E0E0"/>
<path d="M93.0772 47.1167C98.5426 47.1167 102.973 42.6868 102.973 37.2223C102.973 31.7578 98.5426 27.3279 93.0772 27.3279C87.6118 27.3279 83.1812 31.7578 83.1812 37.2223C83.1812 42.6868 87.6118 47.1167 93.0772 47.1167Z" fill="#F0F0F0"/>
<path d="M93.5413 30.4333V37.3509L98.1251 34.7523" fill="#F0F0F0"/>
<path d="M93.5413 30.4333V37.3509L98.1251 34.7523" stroke="#E0E0E0" stroke-width="2" stroke-linecap="round" stroke-linejoin="round"/>
<path d="M179 266.593C255.457 266.593 317.437 262.975 317.437 258.512C317.437 254.049 255.457 250.431 179 250.431C102.543 250.431 40.5625 254.049 40.5625 258.512C40.5625 262.975 102.543 266.593 179 266.593Z" fill="#F5F5F5"/>
<path d="M84.088 209.497C84.088 209.497 79.3613 205.556 75.3058 209.497C71.2503 213.437 70.472 237.845 70.472 237.845" stroke="#407BFF" stroke-width="0.94" stroke-miterlimit="10"/>
<path d="M70.1364 242.557C70.1364 242.557 72.921 213.909 62.4324 201.872" stroke="#407BFF" stroke-width="0.94" stroke-miterlimit="10"/>
<path d="M71.136 239.544C71.136 239.544 68.9869 206.934 76.8552 199.702" stroke="#407BFF" stroke-width="0.94" stroke-miterlimit="10"/>
<path d="M70.1364 239.544C70.1364 239.544 69.9508 217.992 64.1031 214.644C58.2555 211.296 55.2781 222.218 55.2781 222.218" stroke="#407BFF" stroke-width="0.94" stroke-miterlimit="10"/>
<path d="M72.4427 239.544C72.4427 239.544 71.4859 223.003 76.0198 217.085C80.5466 211.174 85.3161 219.62 85.3161 219.62" stroke="#407BFF" stroke-width="0.94" stroke-miterlimit="10"/>
<path d="M70.8648 241.757C70.8648 241.757 73.7922 203.072 68.9441 196.511" stroke="#407BFF" stroke-width="0.94" stroke-miterlimit="10"/>
<path d="M59.098 217.785C59.098 217.785 62.0111 218.863 61.1472 221.397C60.2832 223.931 51.0655 228.108 51.0655 228.108C51.0655 228.108 47.2028 224.567 50.7513 218.813C54.2999 213.059 59.0266 215.964 59.1051 217.785H59.098Z" fill="#407BFF"/>
<path opacity="0.4" d="M59.098 217.785C59.098 217.785 62.0111 218.863 61.1472 221.397C60.2832 223.931 51.0655 228.108 51.0655 228.108C51.0655 228.108 47.2028 224.567 50.7513 218.813C54.2999 213.059 59.0266 215.964 59.1051 217.785H59.098Z" fill="white"/>
<path d="M71.7715 212.952C71.7715 212.952 68.6656 212.823 68.4942 215.5C68.3157 218.177 75.2201 225.573 75.2201 225.573C75.2201 225.573 80.1467 223.796 79.09 217.121C78.0333 210.446 72.5498 211.31 71.7786 212.959L71.7715 212.952Z" fill="#407BFF"/>
<path opacity="0.4" d="M71.7715 212.952C71.7715 212.952 68.6656 212.823 68.4942 215.5C68.3157 218.177 75.2201 225.573 75.2201 225.573C75.2201 225.573 80.1467 223.796 79.09 217.121C78.0333 210.446 72.5498 211.31 71.7786 212.959L71.7715 212.952Z" fill="white"/>
<path d="M74.3991 200.145C74.3991 200.145 72.3285 199.923 72.4927 198.66C72.6569 197.396 80.5395 194.155 85.1876 199.402C85.1876 199.402 82.2102 204.514 77.9048 204.578C73.5994 204.642 74.3919 200.138 74.3919 200.138L74.3991 200.145Z" fill="#407BFF"/>
<path opacity="0.4" d="M74.3991 200.145C74.3991 200.145 72.3285 199.923 72.4927 198.66C72.6569 197.396 80.5395 194.155 85.1876 199.402C85.1876 199.402 82.2102 204.514 77.9048 204.578C73.5994 204.642 74.3919 200.138 74.3919 200.138L74.3991 200.145Z" fill="white"/>
<path d="M70.5434 197.089C70.5434 197.089 72.4141 197.996 72.9424 196.84C73.4708 195.683 68.4942 188.765 61.7755 190.757C61.7755 190.757 61.597 196.668 65.217 199.003C68.8369 201.337 70.5434 197.097 70.5434 197.097V197.089Z" fill="#407BFF"/>
<path opacity="0.4" d="M70.5434 197.089C70.5434 197.089 72.4141 197.996 72.9424 196.84C73.4708 195.683 68.4942 188.765 61.7755 190.757C61.7755 190.757 61.597 196.668 65.217 199.003C68.8369 201.337 70.5434 197.097 70.5434 197.097V197.089Z" fill="white"/>
<path d="M80.3467 216.764C80.3467 216.764 78.9187 215.608 80.4609 215.051C82.0031 214.487 89.5644 214.651 89.6429 222.14C89.6429 222.14 80.8322 223.603 79.7398 220.747C78.6473 217.892 80.3395 216.764 80.3395 216.764H80.3467Z" fill="#407BFF"/>
<path opacity="0.4" d="M80.3467 216.764C80.3467 216.764 78.9187 215.608 80.4609 215.051C82.0031 214.487 89.5644 214.651 89.6429 222.14C89.6429 222.14 80.8322 223.603 79.7398 220.747C78.6473 217.892 80.3395 216.764 80.3395 216.764H80.3467Z" fill="white"/>
<path d="M62.3823 199.959C62.3823 199.959 63.8103 198.803 62.2681 198.246C60.7259 197.682 53.1646 197.846 53.0861 205.335C53.0861 205.335 61.8968 206.798 62.9892 203.943C64.0817 201.087 62.3895 199.959 62.3895 199.959H62.3823Z" fill="#407BFF"/>
<path opacity="0.4" d="M62.3823 199.959C62.3823 199.959 63.8103 198.803 62.2681 198.246C60.7259 197.682 53.1646 197.846 53.0861 205.335C53.0861 205.335 61.8968 206.798 62.9892 203.943C64.0817 201.087 62.3895 199.959 62.3895 199.959H62.3823Z" fill="white"/>
<path d="M67.0377 205.992C67.0377 205.992 67.1662 204.592 66.0309 205.142C64.8957 205.692 60.9544 209.946 65.0456 213.98C65.0456 213.98 70.5505 209.904 69.5581 207.783C68.5656 205.663 67.0448 205.992 67.0448 205.992H67.0377Z" fill="#407BFF"/>
<path opacity="0.4" d="M67.0377 205.992C67.0377 205.992 67.1662 204.592 66.0309 205.142C64.8957 205.692 60.9544 209.946 65.0456 213.98C65.0456 213.98 70.5505 209.904 69.5581 207.783C68.5656 205.663 67.0448 205.992 67.0448 205.992H67.0377Z" fill="white"/>
<path d="M81.6175 207.99C81.6175 207.99 80.7607 206.87 82.0173 206.734C83.2668 206.598 88.8717 208.09 87.5651 213.687C87.5651 213.687 80.7393 213.173 80.4465 210.853C80.1538 208.533 81.6175 207.997 81.6175 207.997V207.99Z" fill="#407BFF"/>
<path opacity="0.4" d="M81.6175 207.99C81.6175 207.99 80.7607 206.87 82.0173 206.734C83.2668 206.598 88.8717 208.09 87.5651 213.687C87.5651 213.687 80.7393 213.173 80.4465 210.853C80.1538 208.533 81.6175 207.997 81.6175 207.997V207.99Z" fill="white"/>
<path d="M59.6049 260.304H81.6818L84.6163 238.844H56.6775L59.6049 260.304Z" fill="#263238"/>
<path opacity="0.2" d="M59.6049 260.304H81.6818L84.6163 238.844H56.6775L59.6049 260.304Z" fill="white"/>
<path d="M87.3796 237.11V239.151C87.3796 240.515 86.2729 241.621 84.9091 241.621H56.0992C54.7355 241.621 53.6288 240.515 53.6288 239.151V237.11H87.3796Z" fill="#263238"/>
<path d="M266.372 241.407C265.601 240.115 266.686 238.173 268.193 238.152C267.536 236.296 268.186 234.054 269.735 232.841C269.928 232.691 270.156 232.541 270.406 232.541C270.67 232.541 270.906 232.705 271.127 232.855C272.541 233.876 273.962 234.889 275.376 235.91C275.697 236.146 276.033 236.389 276.218 236.746C277.089 238.43 273.955 240.586 275.24 241.971C275.611 242.371 276.204 242.449 276.668 242.742C277.682 243.378 277.803 244.762 278.275 245.862C278.746 246.961 280.388 247.811 281.016 246.797C280.552 245.748 281.959 244.841 283.101 244.705C284.229 244.577 285.436 244.513 286.064 243.442C287.685 244.855 291.312 240.907 291.227 239.316C292.555 239.415 293.461 240.665 293.754 241.907C294.054 243.199 293.868 244.548 293.89 245.876C293.933 248.453 294.761 250.98 294.718 253.557C294.682 255.564 293.911 257.791 292.069 258.598C291.184 258.983 290.184 258.983 289.22 258.983C282.244 258.94 275.276 258.897 268.3 258.847C267.8 258.847 267.272 258.833 266.829 258.605C265.887 258.112 265.687 256.87 265.601 255.813C265.23 251.273 264.851 246.726 264.48 242.185C265.108 241.928 265.744 241.671 266.372 241.414V241.407Z" fill="#407BFF"/>
<path opacity="0.3" d="M266.372 241.407C265.601 240.115 266.686 238.173 268.193 238.152C267.536 236.296 268.186 234.054 269.735 232.841C269.928 232.691 270.156 232.541 270.406 232.541C270.67 232.541 270.906 232.705 271.127 232.855C272.541 233.876 273.962 234.889 275.376 235.91C275.697 236.146 276.033 236.389 276.218 236.746C277.089 238.43 273.955 240.586 275.24 241.971C275.611 242.371 276.204 242.449 276.668 242.742C277.682 243.378 277.803 244.762 278.275 245.862C278.746 246.961 280.388 247.811 281.016 246.797C280.552 245.748 281.959 244.841 283.101 244.705C284.229 244.577 285.436 244.513 286.064 243.442C287.685 244.855 291.312 240.907 291.227 239.316C292.555 239.415 293.461 240.665 293.754 241.907C294.054 243.199 293.868 244.548 293.89 245.876C293.933 248.453 294.761 250.98 294.718 253.557C294.682 255.564 293.911 257.791 292.069 258.598C291.184 258.983 290.184 258.983 289.22 258.983C282.244 258.94 275.276 258.897 268.3 258.847C267.8 258.847 267.272 258.833 266.829 258.605C265.887 258.112 265.687 256.87 265.601 255.813C265.23 251.273 264.851 246.726 264.48 242.185C265.108 241.928 265.744 241.671 266.372 241.414V241.407Z" fill="white"/>
<path d="M261.496 219.298L261.76 222.575L261.952 224.916L262.438 231.013L262.724 234.504L263.102 239.166L263.259 241.164L263.302 241.757L263.495 244.099L263.752 247.325L263.909 249.324L264.08 251.344L264.273 253.693L264.416 255.485L264.573 257.477L264.644 258.348H294.432L294.504 257.477L294.661 255.478L294.804 253.7L294.996 251.352L295.161 249.324L295.318 247.325L295.575 244.106L295.768 241.757L295.818 241.164L295.975 239.166L296.346 234.504L296.631 231.006L297.124 224.916L297.317 222.575L297.581 219.298H261.474H261.496ZM263.145 220.826H263.823L263.195 221.454L263.145 220.826ZM265.972 220.826H266.672L269.657 223.81L266.322 227.144L263.416 224.238L263.352 223.446L265.965 220.833L265.972 220.826ZM264.023 231.598L266.329 229.293L269.664 232.619L266.329 235.953L264.202 233.826L264.023 231.598ZM294.896 233.826L292.776 235.953L289.441 232.619L292.776 229.293L295.082 231.598L294.896 233.826ZM270.728 224.881L274.062 228.215L270.728 231.548L267.393 228.215L270.728 224.881ZM270.728 222.732L268.821 220.826H272.634L270.728 222.732ZM275.133 229.3L278.467 232.626L275.133 235.96L271.806 232.626L275.133 229.3ZM279.538 240.365L276.211 237.031L279.538 233.704L282.873 237.031L279.538 240.365ZM283.944 238.116L287.278 241.45L283.951 244.777L280.616 241.443L283.944 238.116ZM278.46 241.443L275.126 244.777L271.799 241.45L275.126 238.116L278.46 241.443ZM276.211 228.222L279.538 224.888L282.873 228.222L279.538 231.556L276.211 228.222ZM283.944 229.307L287.278 232.634L283.944 235.967L280.616 232.634L283.944 229.307ZM285.029 228.222L288.363 224.888L291.691 228.222L288.363 231.556L285.029 228.222ZM291.683 237.038L288.356 240.372L285.022 237.038L288.356 233.712L291.683 237.038ZM288.356 242.528L291.683 245.862L288.356 249.189L285.022 245.862L288.356 242.528ZM287.271 250.266L283.937 253.6L280.609 250.266L283.944 246.933L287.271 250.266ZM279.531 249.181L276.204 245.855L279.531 242.521L282.866 245.855L279.531 249.181ZM278.453 250.266L275.119 253.6L271.791 250.266L275.119 246.933L278.453 250.266ZM274.048 254.671L271.891 256.827H269.542L267.386 254.671L270.72 251.337L274.055 254.671H274.048ZM270.713 249.181L267.379 245.855L270.713 242.521L274.048 245.855L270.713 249.181ZM270.713 240.365L267.379 237.031L270.713 233.704L274.048 237.031L270.713 240.365ZM274.769 220.833H275.469L278.453 223.817L275.119 227.151L271.791 223.817L274.769 220.833ZM277.632 220.833H281.438L279.531 222.739L277.632 220.833ZM283.587 220.833H284.286L287.271 223.817L283.937 227.151L280.609 223.817L283.587 220.833ZM290.248 220.833L288.349 222.739L286.443 220.833H290.248ZM293.111 220.833L295.718 223.446L295.653 224.238L292.754 227.144L289.42 223.81L292.405 220.826H293.104L293.111 220.833ZM295.932 220.833L295.882 221.454L295.261 220.833H295.932ZM295.225 229.607L293.84 228.222L295.475 226.587L295.232 229.607H295.225ZM294.561 237.759L293.84 237.038L294.697 236.182L294.568 237.759H294.561ZM294.104 243.435L292.762 244.777L289.427 241.45L292.762 238.116L294.404 239.765L294.104 243.435ZM293.904 245.926L293.833 245.855L293.911 245.776V245.919H293.904V245.926ZM293.326 253.022L292.762 253.586L289.427 250.259L292.762 246.926L293.747 247.911L293.326 253.022ZM291.676 256.827L292.762 255.742L293.083 256.063L293.019 256.827H291.676ZM289.527 256.827H287.178L285.022 254.671L288.356 251.337L291.683 254.671L289.534 256.827H289.527ZM282.851 256.827L283.937 255.742L285.022 256.827H282.858H282.851ZM278.353 256.827L276.204 254.671L279.531 251.337L282.866 254.671L280.709 256.827H278.36H278.353ZM274.033 256.827L275.119 255.742L276.204 256.827H274.041H274.033ZM265.979 256.063L266.301 255.742L267.386 256.827H266.044L265.979 256.063ZM265.315 247.911L266.301 246.926L269.635 250.259L266.301 253.586L265.73 253.022L265.315 247.911ZM265.137 245.769L265.223 245.855L265.151 245.926L265.137 245.776V245.769ZM264.651 239.758L266.301 238.109L269.635 241.443L266.301 244.77L264.951 243.427L264.651 239.758ZM264.359 236.174L265.223 237.031L264.487 237.766L264.359 236.182V236.174ZM263.58 226.573L265.223 228.215L263.83 229.607L263.588 226.573H263.58Z" fill="#407BFF"/>
<g opacity="0.6">
<path d="M261.496 219.298L261.76 222.575L261.952 224.916L262.438 231.013L262.724 234.504L263.102 239.166L263.259 241.164L263.302 241.757L263.495 244.099L263.752 247.325L263.909 249.324L264.08 251.344L264.273 253.693L264.416 255.485L264.573 257.477L264.644 258.348H294.432L294.504 257.477L294.661 255.478L294.804 253.7L294.996 251.352L295.161 249.324L295.318 247.325L295.575 244.106L295.768 241.757L295.818 241.164L295.975 239.166L296.346 234.504L296.631 231.006L297.124 224.916L297.317 222.575L297.581 219.298H261.474H261.496ZM263.145 220.826H263.823L263.195 221.454L263.145 220.826ZM265.972 220.826H266.672L269.657 223.81L266.322 227.144L263.416 224.238L263.352 223.446L265.965 220.833L265.972 220.826ZM264.023 231.598L266.329 229.293L269.664 232.619L266.329 235.953L264.202 233.826L264.023 231.598ZM294.896 233.826L292.776 235.953L289.441 232.619L292.776 229.293L295.082 231.598L294.896 233.826ZM270.728 224.881L274.062 228.215L270.728 231.548L267.393 228.215L270.728 224.881ZM270.728 222.732L268.821 220.826H272.634L270.728 222.732ZM275.133 229.3L278.467 232.626L275.133 235.96L271.806 232.626L275.133 229.3ZM279.538 240.365L276.211 237.031L279.538 233.704L282.873 237.031L279.538 240.365ZM283.944 238.116L287.278 241.45L283.951 244.777L280.616 241.443L283.944 238.116ZM278.46 241.443L275.126 244.777L271.799 241.45L275.126 238.116L278.46 241.443ZM276.211 228.222L279.538 224.888L282.873 228.222L279.538 231.556L276.211 228.222ZM283.944 229.307L287.278 232.634L283.944 235.967L280.616 232.634L283.944 229.307ZM285.029 228.222L288.363 224.888L291.691 228.222L288.363 231.556L285.029 228.222ZM291.683 237.038L288.356 240.372L285.022 237.038L288.356 233.712L291.683 237.038ZM288.356 242.528L291.683 245.862L288.356 249.189L285.022 245.862L288.356 242.528ZM287.271 250.266L283.937 253.6L280.609 250.266L283.944 246.933L287.271 250.266ZM279.531 249.181L276.204 245.855L279.531 242.521L282.866 245.855L279.531 249.181ZM278.453 250.266L275.119 253.6L271.791 250.266L275.119 246.933L278.453 250.266ZM274.048 254.671L271.891 256.827H269.542L267.386 254.671L270.72 251.337L274.055 254.671H274.048ZM270.713 249.181L267.379 245.855L270.713 242.521L274.048 245.855L270.713 249.181ZM270.713 240.365L267.379 237.031L270.713 233.704L274.048 237.031L270.713 240.365ZM274.769 220.833H275.469L278.453 223.817L275.119 227.151L271.791 223.817L274.769 220.833ZM277.632 220.833H281.438L279.531 222.739L277.632 220.833ZM283.587 220.833H284.286L287.271 223.817L283.937 227.151L280.609 223.817L283.587 220.833ZM290.248 220.833L288.349 222.739L286.443 220.833H290.248ZM293.111 220.833L295.718 223.446L295.653 224.238L292.754 227.144L289.42 223.81L292.405 220.826H293.104L293.111 220.833ZM295.932 220.833L295.882 221.454L295.261 220.833H295.932ZM295.225 229.607L293.84 228.222L295.475 226.587L295.232 229.607H295.225ZM294.561 237.759L293.84 237.038L294.697 236.182L294.568 237.759H294.561ZM294.104 243.435L292.762 244.777L289.427 241.45L292.762 238.116L294.404 239.765L294.104 243.435ZM293.904 245.926L293.833 245.855L293.911 245.776V245.919H293.904V245.926ZM293.326 253.022L292.762 253.586L289.427 250.259L292.762 246.926L293.747 247.911L293.326 253.022ZM291.676 256.827L292.762 255.742L293.083 256.063L293.019 256.827H291.676ZM289.527 256.827H287.178L285.022 254.671L288.356 251.337L291.683 254.671L289.534 256.827H289.527ZM282.851 256.827L283.937 255.742L285.022 256.827H282.858H282.851ZM278.353 256.827L276.204 254.671L279.531 251.337L282.866 254.671L280.709 256.827H278.36H278.353ZM274.033 256.827L275.119 255.742L276.204 256.827H274.041H274.033ZM265.979 256.063L266.301 255.742L267.386 256.827H266.044L265.979 256.063ZM265.315 247.911L266.301 246.926L269.635 250.259L266.301 253.586L265.73 253.022L265.315 247.911ZM265.137 245.769L265.223 245.855L265.151 245.926L265.137 245.776V245.769ZM264.651 239.758L266.301 238.109L269.635 241.443L266.301 244.77L264.951 243.427L264.651 239.758ZM264.359 236.174L265.223 237.031L264.487 237.766L264.359 236.182V236.174ZM263.58 226.573L265.223 228.215L263.83 229.607L263.588 226.573H263.58Z" fill="white"/>
</g>
<path d="M298.509 217.942H260.589C259.942 217.942 259.418 218.466 259.418 219.113V221.019C259.418 221.665 259.942 222.19 260.589 222.19H298.509C299.156 222.19 299.68 221.665 299.68 221.019V219.113C299.68 218.466 299.156 217.942 298.509 217.942Z" fill="#407BFF"/>
<path d="M263.488 260.304H295.603C296.25 260.304 296.774 259.78 296.774 259.133V257.227C296.774 256.58 296.25 256.056 295.603 256.056H263.488C262.841 256.056 262.317 256.58 262.317 257.227V259.133C262.317 259.78 262.841 260.304 263.488 260.304Z" fill="#407BFF"/>
<path d="M153.239 49.394H129.341C124.8 49.394 121.123 53.0705 121.123 57.6108V80.8335C121.123 85.3738 124.8 89.0503 129.341 89.0503H132.59L132.611 97.7239L138.116 89.0503H153.239C157.78 89.0503 161.457 85.3738 161.457 80.8335V57.6108C161.457 53.0705 157.78 49.394 153.239 49.394Z" fill="#407BFF"/>
<path opacity="0.4" d="M153.239 49.394H129.341C124.8 49.394 121.123 53.0705 121.123 57.6108V80.8335C121.123 85.3738 124.8 89.0503 129.341 89.0503H132.59L132.611 97.7239L138.116 89.0503H153.239C157.78 89.0503 161.457 85.3738 161.457 80.8335V57.6108C161.457 53.0705 157.78 49.394 153.239 49.394Z" fill="white"/>
<path d="M145.242 65.4136C145.242 63.6717 143.75 62.4867 141.351 62.4867C138.952 62.4867 137.367 63.3576 136.274 64.8853L133.254 62.9221C134.996 60.5592 137.802 59.1243 141.694 59.1243C146.27 59.1243 149.319 61.2088 149.319 64.7925C149.319 69.8682 143.993 70.3322 143.993 74.0087H140.037C140.037 69.4042 145.235 68.5332 145.235 65.4207L145.242 65.4136ZM139.544 79.0131C139.544 77.6781 140.573 76.6144 142.036 76.6144C143.5 76.6144 144.492 77.671 144.492 79.0131C144.492 80.3552 143.464 81.4403 142.036 81.4403C140.608 81.4403 139.544 80.348 139.544 79.0131Z" fill="white"/>
<path d="M102.495 154.185C102.495 154.185 104.508 194.498 113.191 201.437H103.901C103.901 201.437 95.619 187.702 95.005 154.185H102.495Z" fill="#263238"/>
<path opacity="0.2" d="M102.495 154.185C102.495 154.185 104.508 194.498 113.191 201.437H103.901C103.901 201.437 95.619 187.702 95.005 154.185H102.495Z" fill="white"/>
<path d="M95.5192 159.875H104.308C106.886 159.875 108.742 157.562 108.464 154.706L108.086 150.894C107.807 148.038 105.487 145.725 102.916 145.725H94.1269C91.5493 145.725 89.6929 148.038 89.9714 150.894L90.3498 154.706C90.6283 157.562 92.9488 159.875 95.5192 159.875Z" fill="#263238"/>
<path d="M94.1554 163.016H109.035C113.391 163.016 116.539 159.097 116.068 154.271L115.433 147.824C114.954 142.991 111.042 139.079 106.679 139.079H91.7992C87.4438 139.079 84.2951 142.991 84.7663 147.824L85.4018 154.271C85.8801 159.104 89.7929 163.016 94.1554 163.016Z" fill="#263238"/>
<path opacity="0.5" d="M94.1554 163.016H109.035C113.391 163.016 116.539 159.097 116.068 154.271L115.433 147.824C114.954 142.991 111.042 139.079 106.679 139.079H91.7992C87.4438 139.079 84.2951 142.991 84.7663 147.824L85.4018 154.271C85.8801 159.104 89.7929 163.016 94.1554 163.016Z" fill="white"/>
<path d="M101.453 197.325H143.2C144.971 197.325 146.406 198.76 146.406 200.53V204.007H98.2395V200.53C98.2395 198.76 99.6746 197.325 101.445 197.325H101.453Z" fill="#263238"/>
<path opacity="0.5" d="M101.453 197.325H143.2C144.971 197.325 146.406 198.76 146.406 200.53V204.007H98.2395V200.53C98.2395 198.76 99.6746 197.325 101.445 197.325H101.453Z" fill="white"/>
<path d="M99.9245 247.311L118.496 245.691V221.311H125.022V245.683L143.657 247.311C145.299 247.475 146.549 248.853 146.549 250.502V252.972H97.0328V250.502C97.0328 248.853 98.2823 247.475 99.9245 247.311Z" fill="#263238"/>
<path d="M140.537 256.042C140.537 258.398 142.45 260.311 144.807 260.311C147.163 260.311 149.076 258.398 149.076 256.042C149.076 253.686 147.163 251.773 144.807 251.773C142.45 251.773 140.537 253.686 140.537 256.042Z" fill="#263238"/>
<path d="M103.038 256.042C103.038 258.398 101.124 260.311 98.7679 260.311C96.4117 260.311 94.4982 258.398 94.4982 256.042C94.4982 253.686 96.4117 251.773 98.7679 251.773C101.124 251.773 103.038 253.686 103.038 256.042Z" fill="#263238"/>
<path d="M123.494 226.287H120.024C118.56 226.287 117.375 225.102 117.375 223.639V202.422H126.15V223.639C126.15 225.102 124.965 226.287 123.501 226.287H123.494Z" fill="#263238"/>
<path opacity="0.2" d="M123.494 226.287H120.024C118.56 226.287 117.375 225.102 117.375 223.639V202.422H126.15V223.639C126.15 225.102 124.965 226.287 123.501 226.287H123.494Z" fill="white"/>
<path d="M146.949 201.444H97.7041C96.9903 201.444 96.4117 202.023 96.4117 202.736V203.493C96.4117 204.207 96.9903 204.785 97.7041 204.785H146.949C147.662 204.785 148.241 204.207 148.241 203.493V202.736C148.241 202.023 147.662 201.444 146.949 201.444Z" fill="#263238"/>
<path opacity="0.2" d="M140.537 256.042C140.537 258.398 142.45 260.311 144.807 260.311C147.163 260.311 149.076 258.398 149.076 256.042C149.076 253.686 147.163 251.773 144.807 251.773C142.45 251.773 140.537 253.686 140.537 256.042Z" fill="white"/>
<path opacity="0.2" d="M103.038 256.042C103.038 258.398 101.124 260.311 98.7679 260.311C96.4117 260.311 94.4982 258.398 94.4982 256.042C94.4982 253.686 96.4117 251.773 98.7679 251.773C101.124 251.773 103.038 253.686 103.038 256.042Z" fill="white"/>
<path d="M104.73 100.936C104.73 100.936 105.979 96.9244 111.22 96.1963C116.461 95.4681 122.844 97.2314 124.151 99.4159C125.457 101.6 124.443 103.749 126.2 104.47C127.949 105.191 130.441 106.969 129.955 108.753C129.47 110.538 127.706 114.158 129.648 114.864C131.59 115.571 132.811 118.419 131.955 119.883C131.098 121.346 130.798 123.081 131.769 123.581C132.74 124.081 133.897 125.059 133.104 126.543C132.312 128.028 131.526 128.235 132.74 129.499C133.954 130.763 131.847 133.604 131.847 133.604C131.847 133.604 103.816 136.938 100.41 134.004C97.0042 131.069 99.132 128.478 99.8602 127.707C100.589 126.936 98.7821 127.236 98.5322 124.323C98.2823 121.411 100.046 120.982 100.41 119.283C100.774 117.584 99.0106 115.942 100.167 114.3C101.324 112.658 101.738 111.709 100.86 109.967C99.9816 108.225 99.9245 101.058 104.723 100.929L104.73 100.936Z" fill="#263238"/>
<path d="M152.846 129.506L159.058 128.678L155.252 122.86C155.252 122.86 149.697 125.166 150.369 127.978L152.839 129.513L152.846 129.506Z" fill="#E4897B"/>
<path d="M163.892 124.766L158.922 120.875L155.26 122.853L159.058 128.671L163.892 124.766Z" fill="#E4897B"/>
<path d="M154.346 129.556C154.346 129.556 147.213 154.706 141.608 153.178C138.502 152.336 135.532 149.359 133.154 146.254C130.034 142.178 127.949 137.859 127.949 137.859V137.766L127.271 125.83C132.819 127.193 140.944 142.142 140.944 142.142L149.933 127.4L154.338 129.556H154.346Z" fill="#407BFF"/>
<path opacity="0.7" d="M126.193 142.863C118.624 135.76 109.128 130.97 109.128 130.97C109.692 130.905 110.263 130.848 110.842 130.798C115.19 130.441 118.746 130.184 122.623 130.398C123.601 130.456 124.6 130.534 125.579 130.62C128.013 136.209 126.186 142.863 126.186 142.863H126.193Z" fill="white"/>
<path d="M109.128 167.92C108.593 161.881 106.429 150.823 102.709 139.201C101.495 135.424 103.552 131.155 103.552 131.155C103.552 131.155 108.614 131.027 109.128 130.97C109.692 130.905 110.263 130.848 110.842 130.798C115.19 130.441 118.746 130.184 122.623 130.398C123.601 130.456 124.6 130.534 125.579 130.62C125.893 130.655 129.456 130.684 129.763 130.72C129.763 130.72 134.696 136.359 134.996 140.921C135.16 143.47 135.539 145.397 135.403 151.501C135.382 155.641 135.082 161.11 134.804 166.935L109.121 167.913L109.128 167.92Z" fill="#407BFF"/>
<path opacity="0.8" d="M109.128 167.92C108.593 161.881 106.429 150.823 102.709 139.201C101.495 135.424 103.552 131.155 103.552 131.155C103.552 131.155 108.614 131.027 109.128 130.97C109.692 130.905 110.263 130.848 110.842 130.798C115.19 130.441 118.746 130.184 122.623 130.398C123.601 130.456 124.6 130.534 125.579 130.62C125.893 130.655 129.456 130.684 129.763 130.72C129.763 130.72 134.696 136.359 134.996 140.921C135.16 143.47 135.539 145.397 135.403 151.501C135.382 155.641 135.082 161.11 134.804 166.935L109.121 167.913L109.128 167.92Z" fill="white"/>
<path d="M109.128 167.92L134.846 166.185C134.846 166.185 135.618 173.91 135.439 173.795C135.261 173.688 107.914 174.759 107.914 174.759L109.128 167.92Z" fill="#263238"/>
<path d="M109.364 168.341L134.811 166.942V169.348L109.128 170.719L109.364 168.341Z" fill="black"/>
<path d="M123.201 169.683L123.094 168.27C123.072 167.999 123.272 167.763 123.544 167.742L126.328 167.527C126.614 167.506 126.857 167.727 126.857 168.013V169.505C126.857 169.762 126.657 169.976 126.393 169.99L123.715 170.133C123.451 170.147 123.222 169.948 123.201 169.683Z" stroke="white" stroke-width="0.58" stroke-miterlimit="10"/>
<path d="M136.403 172.203C129.577 171.525 120.695 170.976 109.135 170.719C109.135 170.719 100.517 191.014 110.734 197.082C113.826 198.917 118.917 199.638 124.529 199.759C131.041 199.895 136.403 194.684 136.403 188.173V172.211V172.203Z" fill="#263238"/>
<path d="M111.213 185.582L102.331 183.975L107.5 164.858C107.5 164.858 106.172 160.11 104.716 154.663C104.351 153.293 103.98 151.886 103.616 150.494C103.273 149.195 102.945 147.91 102.645 146.696C101.731 143.091 101.053 140.1 101.003 139.129C100.838 136.081 100.332 127.836 103.259 126.543C104.994 125.772 108.55 127.593 110.799 128.021C110.799 128.021 115.818 136.574 116.204 148.945C116.582 161.31 111.213 185.582 111.213 185.582Z" fill="#407BFF"/>
<path d="M119.652 128.3C119.652 128.3 127.949 129.342 131.483 147.011C132.919 154.164 136.303 184.725 136.303 184.725L138.231 183.761L135.553 165.55C135.553 165.55 136.517 144.433 135.767 140.1C135.018 135.767 131.226 126.372 127.264 125.837C125.657 125.623 119.645 128.307 119.645 128.307L119.652 128.3Z" fill="#407BFF"/>
<path d="M120.038 128.057L120.416 127.714C120.416 127.714 127.678 128.321 132.661 134.546L130.734 136.431L134.025 139.079L132.454 153.543C132.454 153.543 127.435 136.481 125.264 132.383C125.264 132.383 121.63 128.842 120.031 128.05L120.038 128.057Z" fill="#407BFF"/>
<path opacity="0.2" d="M120.038 128.057L120.416 127.743C120.416 127.743 127.678 128.328 132.661 134.553L130.734 136.438L134.025 139.086L132.454 153.55C132.454 153.55 127.435 136.488 125.264 132.39C125.264 132.39 121.63 128.849 120.031 128.057H120.038Z" fill="black"/>
<path d="M111.013 128.792C111.013 128.792 117.425 136.966 116.047 154.97L109.149 142.035L111.349 138.501L106.208 133.682C106.208 133.682 109.528 127.243 111.434 127.75L111.02 128.799L111.013 128.792Z" fill="#407BFF"/>
<path opacity="0.2" d="M111.013 128.792C111.013 128.792 117.425 136.966 116.047 154.97L109.149 142.035L111.349 138.501L106.208 133.682C106.208 133.682 109.528 127.243 111.434 127.75L111.02 128.799L111.013 128.792Z" fill="black"/>
<path d="M111.556 127.35C111.556 127.35 113.505 128.093 119.738 127.6C119.738 127.6 122.094 129.784 122.83 132.076C123.572 134.368 121.209 136.588 117.432 134.582C113.655 132.576 111.556 127.35 111.556 127.35Z" fill="#407BFF"/>
<path opacity="0.5" d="M111.556 127.35C111.556 127.35 113.505 128.093 119.738 127.6C119.738 127.6 122.094 129.784 122.83 132.076C123.572 134.368 121.209 136.588 117.432 134.582C113.655 132.576 111.556 127.35 111.556 127.35Z" fill="white"/>
<path d="M124.143 132.062L122.715 140.593L111.491 130.777C113.862 128.164 112.37 121.261 111.213 117.499L114.39 119.876L119.117 123.409C119.003 124.195 119.11 125.28 119.345 126.315C119.702 127.821 120.345 129.235 121.052 129.535L124.136 132.055L124.143 132.062Z" fill="#E4897B"/>
<path opacity="0.2" d="M119.352 126.329C117.467 125.908 114.997 123.959 114.597 122.032C114.433 121.218 114.362 120.425 114.397 119.89L119.124 123.424C119.01 124.209 119.117 125.294 119.352 126.329Z" fill="black"/>
<path d="M111.556 127.35C111.556 127.35 116.853 132.333 122.487 140.157C122.487 140.157 123.608 131.583 119.738 127.6L120.623 127.493C120.623 127.493 125.586 130.627 128.892 134.96L125.164 133.782L122.623 140.664L114.961 134.339L109.806 135.231C109.806 135.231 109.571 128.878 111.556 127.35Z" fill="#407BFF"/>
<path opacity="0.7" d="M111.556 127.35C111.556 127.35 116.853 132.333 122.487 140.157C122.487 140.157 123.608 131.583 119.738 127.6L120.623 127.493C120.623 127.493 125.586 130.627 128.892 134.96L125.164 133.782L122.623 140.664L114.961 134.339L109.806 135.231C109.806 135.231 109.571 128.878 111.556 127.35Z" fill="white"/>
<path d="M107.722 110.01C109.078 116.092 109.528 118.691 113.119 121.503C118.524 125.737 125.664 123.16 126.143 116.892C126.571 111.252 124.279 102.257 117.903 100.451C111.62 98.6735 106.365 103.928 107.729 110.01H107.722Z" fill="#E4897B"/>
<path d="M115.576 110.767C115.668 111.281 116.011 111.673 116.339 111.638C116.668 111.602 116.861 111.152 116.775 110.638C116.682 110.124 116.339 109.732 116.011 109.767C115.683 109.803 115.49 110.253 115.576 110.767Z" fill="#263238"/>
<path d="M121.994 109.867C122.087 110.381 122.43 110.774 122.758 110.738C123.087 110.702 123.28 110.253 123.194 109.739C123.101 109.225 122.758 108.832 122.43 108.868C122.101 108.903 121.909 109.353 121.994 109.867Z" fill="#263238"/>
<path d="M122.287 108.918L123.437 108.432C123.437 108.432 122.987 109.467 122.287 108.918Z" fill="#263238"/>
<path d="M120.231 111.216C120.231 111.216 121.487 113.344 122.623 114.308C122.066 115.014 120.88 114.85 120.88 114.85L120.231 111.216Z" fill="#DE5753"/>
<path d="M116.018 105.869C115.94 105.891 115.875 105.934 115.832 106.012C115.233 107.169 114.112 107.24 114.097 107.24C113.933 107.247 113.812 107.39 113.833 107.554C113.855 107.718 114.005 107.847 114.176 107.84C114.233 107.84 115.64 107.747 116.382 106.312C116.454 106.169 116.397 105.984 116.239 105.905C116.168 105.862 116.082 105.855 116.011 105.877L116.018 105.869Z" fill="#263238"/>
<path d="M121.752 104.47C121.673 104.47 121.602 104.485 121.545 104.535C121.423 104.642 121.416 104.834 121.53 104.963C122.673 106.269 124.051 106.148 124.115 106.141C124.279 106.126 124.386 105.977 124.358 105.805C124.329 105.641 124.172 105.52 124.008 105.534C123.951 105.534 122.88 105.62 121.973 104.577C121.916 104.513 121.837 104.47 121.752 104.463V104.47Z" fill="#263238"/>
<path d="M115.868 109.81L117.018 109.325C117.018 109.325 116.568 110.36 115.868 109.81Z" fill="#263238"/>
<path d="M110.842 113.529C110.842 113.529 113.833 109.175 111.549 102.728C111.549 102.728 118.31 99.4516 123.437 104.456C123.437 104.456 118.674 96.0964 108.721 100.101C98.7679 104.106 106.272 113.658 107.5 114.45C108.728 115.243 110.835 113.529 110.835 113.529H110.842Z" fill="#263238"/>
<path d="M106.508 115.264C107.4 116.435 108.678 117.07 109.799 117.206C111.484 117.406 111.963 115.707 111.199 114.143C110.506 112.737 108.8 110.945 107.257 111.466C105.737 111.987 105.494 113.929 106.508 115.264Z" fill="#E4897B"/>
<path d="M117.018 116.306C117.018 116.306 119.338 115.878 120.888 117.499" stroke="#263238" stroke-width="0.58" stroke-linecap="round" stroke-linejoin="round"/>
<path opacity="0.2" d="M103.616 150.494C103.273 149.195 102.945 147.91 102.645 146.696C104.287 144.719 105.158 136.245 105.158 136.245C105.158 136.245 106.301 146.568 103.616 150.487V150.494Z" fill="black"/>
<path d="M82.6528 130.22L76.441 129.392L80.2467 123.574C80.2467 123.574 85.8016 126.037 85.1304 128.842L82.66 130.22H82.6528Z" fill="#E4897B"/>
<path d="M71.6073 125.487L76.5767 121.589L80.2396 123.567L76.4411 129.385L71.6073 125.487Z" fill="#E4897B"/>
<path d="M81.1534 130.27C81.1534 130.27 88.2863 155.42 93.8912 153.892C96.9971 153.05 99.9673 150.073 102.345 146.968C105.465 142.891 105.894 138.572 105.894 138.572L103.252 126.543C99.9102 127.243 94.5481 142.856 94.5481 142.856L85.5588 128.114L81.1534 130.27Z" fill="#407BFF"/>
<path d="M114.076 188.923V198.46C122.58 200.909 140.223 199.981 150.711 199.124C155.438 198.738 159.065 194.791 159.065 190.058V182.233C159.065 179.642 157.459 177.322 155.031 176.408C149.947 174.495 140.694 171.647 131.012 171.796C121.63 171.939 114.076 179.542 114.076 188.93V188.923Z" fill="#263238"/>
<path d="M158.166 216.5C155.074 224.852 151.504 235.311 147.691 248.51C147.62 248.753 147.548 248.989 147.484 249.231C147.413 249.488 147.334 249.738 147.263 249.995L143.329 249.032L141.843 248.668C141.843 248.668 141.901 248.089 142.029 247.054C142.051 246.84 142.079 246.604 142.101 246.355C143.164 237.138 147.248 203.343 151.304 196.326C151.304 196.326 146.713 197.182 143.229 196.59C140.715 196.169 137.674 178.807 137.674 178.807C137.674 178.807 144.071 176.965 150.64 176.965H150.733C150.733 176.965 165.427 179.271 167.89 182.883C170.918 187.316 166.198 194.819 158.18 216.493L158.166 216.5Z" fill="#E4897B"/>
<path d="M153.068 260.304L143.843 256.235L140.922 252.979L140.016 254.207L138.916 253.729C138.402 249.638 140.394 247.718 141.436 246.854C141.508 246.79 141.622 246.711 141.743 246.611C141.786 246.576 141.829 246.547 141.865 246.519C141.879 246.511 141.901 246.497 141.915 246.483C141.958 246.447 142.008 246.419 142.058 246.376C142.065 246.369 142.072 246.369 142.093 246.362C142.093 246.362 142.143 246.319 142.179 246.304L147.241 248.539C147.241 248.539 147.327 248.803 147.484 249.238C147.991 250.666 149.24 253.914 150.626 255.642C150.683 255.713 150.74 255.792 150.797 255.856C150.961 256.056 151.14 256.227 151.311 256.37C155.188 259.483 153.068 260.304 153.068 260.304Z" fill="#407BFF"/>
<path d="M150.797 255.856C149.355 256.42 147.313 254.992 145.763 253.129C144.892 252.08 144.057 250.395 143.321 249.039C142.843 248.161 142.4 247.411 142.022 247.061C141.808 246.868 141.608 246.79 141.436 246.868C141.436 246.868 141.444 246.861 141.444 246.854C141.515 246.79 141.629 246.711 141.751 246.611C141.786 246.59 141.822 246.554 141.872 246.519C141.886 246.512 141.908 246.497 141.922 246.483C141.965 246.447 142.015 246.419 142.065 246.376C142.072 246.369 142.079 246.369 142.1 246.362C142.1 246.362 142.15 246.319 142.186 246.304C142.714 245.905 143.307 245.498 143.307 245.498L147.377 247.297C147.377 247.297 147.491 247.775 147.698 248.518C148.227 250.402 149.348 253.979 150.633 255.642C150.69 255.713 150.747 255.792 150.804 255.856H150.797Z" fill="#E4897B"/>
<path opacity="0.1" d="M158.166 216.5C155.074 224.852 151.504 235.311 147.691 248.51C148.22 250.395 149.341 253.972 150.626 255.635C150.683 255.706 150.74 255.785 150.797 255.849C150.961 256.049 151.14 256.22 151.311 256.363C155.188 259.476 153.068 260.297 153.068 260.297L143.843 256.228L140.922 252.972L140.016 254.2L138.916 253.722C138.402 249.631 140.394 247.711 141.437 246.847C141.508 246.783 141.622 246.704 141.744 246.604C141.786 246.569 141.829 246.54 141.865 246.512C141.879 246.504 141.901 246.49 141.915 246.476C141.958 246.44 142.008 246.412 142.058 246.369C142.065 246.362 142.072 246.362 142.093 246.355C143.157 237.138 147.241 203.343 151.297 196.326C151.297 196.326 146.706 197.182 143.222 196.59C140.708 196.169 137.667 178.807 137.667 178.807C137.667 178.807 144.064 176.965 150.633 176.965H150.726C150.726 176.965 149.176 177.115 147.07 179.756C147.07 179.756 155.659 181.355 157.987 185.896C158.922 187.738 158.73 201.151 158.173 216.493L158.166 216.5Z" fill="black"/>
<path d="M137.667 178.814C137.667 178.814 152.368 181.12 154.824 184.725C159.058 190.936 151.432 203.143 137.517 251.837L132.09 250.502C132.09 250.502 133.54 206.313 138.231 198.167C138.231 198.167 133.64 199.017 130.162 198.432C125.693 197.682 122.865 182.762 137.667 178.807V178.814Z" fill="#E4897B"/>
<path d="M131.212 259.997H132.412L132.747 258.512L136.724 260.311H146.813C146.813 260.311 148.419 258.697 143.614 257.412C143.393 257.355 143.172 257.27 142.936 257.155C140.373 255.956 136.731 251.901 136.731 251.901H131.198C131.198 251.901 131.005 252.18 130.741 252.701C130.134 253.922 129.091 256.47 131.212 260.004V259.997Z" fill="#407BFF"/>
<path d="M130.741 252.694V252.708C131.469 251.894 134.796 255.471 137.231 256.691C139.409 257.777 141.851 258.255 142.936 257.155C140.373 255.956 136.346 250.709 136.346 250.709H131.898C131.898 250.709 131.005 252.173 130.741 252.694Z" fill="#E4897B"/>
<path d="M226.774 162.302V258.005C226.774 259.276 227.802 260.304 229.073 260.304H273.705C274.19 260.304 274.576 259.911 274.576 259.433V256.592C274.576 256.106 274.183 255.706 273.705 255.706H231.372V164.608H272.984C273.869 164.608 274.576 163.887 274.576 163.009V160.01H229.066C227.795 160.01 226.767 161.038 226.767 162.309L226.774 162.302Z" fill="#263238"/>
<g opacity="0.3">
<path d="M226.774 162.302V258.005C226.774 259.276 227.802 260.304 229.073 260.304H273.705C274.19 260.304 274.576 259.911 274.576 259.433V256.592C274.576 256.106 274.183 255.706 273.705 255.706H231.372V164.608H272.984C273.869 164.608 274.576 163.887 274.576 163.009V160.01H229.066C227.795 160.01 226.767 161.038 226.767 162.309L226.774 162.302Z" fill="white"/>
</g>
<path opacity="0.2" d="M226.774 162.302V186.709C228.309 187.102 229.844 187.473 231.372 187.837V164.608H272.984C273.869 164.608 274.576 163.887 274.576 163.009V160.01H229.066C227.795 160.01 226.767 161.038 226.767 162.309L226.774 162.302Z" fill="black"/>
<path d="M221.569 153.435L220.997 151.294H197.742L187.032 152.365L186.625 153.435H221.569Z" fill="#263238"/>
<path opacity="0.5" d="M221.569 153.435L220.997 151.294H197.742L187.032 152.365L186.625 153.435H221.569Z" fill="white"/>
<path opacity="0.2" d="M197.742 151.294V153.435H221.569L220.997 151.294H197.742Z" fill="black"/>
<path d="M205.611 137.523C205.475 138.972 206.539 140.157 207.981 140.157H253.77C255.22 140.157 256.505 138.979 256.64 137.523L259.361 108.211C259.389 107.911 259.368 107.618 259.304 107.354C259.047 106.319 258.14 105.577 256.99 105.577H211.201C209.752 105.577 208.467 106.755 208.331 108.211L205.611 137.523Z" fill="#263238"/>
<path opacity="0.5" d="M205.611 137.523C205.475 138.972 206.539 140.157 207.981 140.157H253.77C255.22 140.157 256.505 138.979 256.64 137.523L259.361 108.211C259.389 107.911 259.368 107.618 259.304 107.354C259.047 106.319 258.14 105.577 256.99 105.577H211.201C209.752 105.577 208.467 106.755 208.331 108.211L205.611 137.523Z" fill="white"/>
<path opacity="0.1" d="M208.145 140.157H253.777C255.227 140.157 256.512 138.979 256.647 137.523L259.368 108.211C259.396 107.911 259.375 107.618 259.311 107.354H213.679C212.237 107.354 210.951 108.532 210.809 109.988L208.088 139.301C208.06 139.6 208.081 139.893 208.145 140.157Z" fill="black"/>
<path d="M239.611 122.182H230.137L232.657 149.295L217.677 151.544V153.435H249.229V151.544L242.767 149.295L239.611 122.182Z" fill="#263238"/>
<path opacity="0.5" d="M239.611 122.182H230.137L232.657 149.295L217.677 151.544V153.435H249.229V151.544L242.767 149.295L239.611 122.182Z" fill="white"/>
<path opacity="0.2" d="M230.137 122.182L237.155 153.007L242.767 152.836L239.612 122.182H230.137Z" fill="white"/>
<path d="M163.849 260.304H208.481C208.967 260.304 209.359 259.911 209.359 259.426V256.577C209.359 256.092 208.967 255.699 208.481 255.699H166.148V164.593H207.76C208.645 164.593 209.359 163.88 209.359 162.994V159.996H163.849C162.578 159.996 161.55 161.024 161.55 162.295V257.998C161.55 259.269 162.578 260.297 163.849 260.297V260.304Z" fill="#263238"/>
<g opacity="0.4">
<path d="M163.849 260.304H208.481C208.967 260.304 209.359 259.911 209.359 259.426V256.577C209.359 256.092 208.967 255.699 208.481 255.699H166.148V164.593H207.76C208.645 164.593 209.359 163.88 209.359 162.994V159.996H163.849C162.578 159.996 161.55 161.024 161.55 162.295V257.998C161.55 259.269 162.578 260.297 163.849 260.297V260.304Z" fill="white"/>
</g>
<path d="M277.282 155.648V159.368C277.282 160.139 276.661 160.76 275.89 160.76H158.03C157.266 160.76 156.645 160.139 156.645 159.368V155.648H277.282Z" fill="#407BFF"/>
<path opacity="0.2" d="M156.645 158.204L277.282 158.204V155.648L156.645 155.648V158.204Z" fill="black"/>
<path d="M281.252 154.87C281.252 155.67 280.602 156.312 279.81 156.312H154.117C153.717 156.312 153.353 156.148 153.096 155.891C153.025 155.82 152.96 155.741 152.91 155.648C152.76 155.427 152.675 155.156 152.675 154.87C152.675 154.078 153.317 153.428 154.117 153.428H279.81C280.202 153.428 280.566 153.592 280.831 153.849C281.088 154.114 281.252 154.478 281.252 154.87Z" fill="#407BFF"/>
<path opacity="0.2" d="M215.136 153.849C214.871 153.592 214.514 153.428 214.114 153.428H154.117C153.317 153.428 152.675 154.078 152.675 154.87C152.675 155.156 152.76 155.427 152.91 155.648C152.96 155.741 153.025 155.82 153.096 155.891C153.353 156.148 153.717 156.312 154.117 156.312H156.645V159.368C156.645 160.139 157.266 160.76 158.03 160.76H210.202C210.966 160.76 211.587 160.139 211.587 159.368V156.312H214.114C214.629 156.312 215.071 156.048 215.335 155.648C215.478 155.427 215.557 155.156 215.557 154.87C215.557 154.478 215.4 154.114 215.136 153.849Z" fill="white"/>
</g>
<defs>
<clipPath id="clip0_540_13111">
<rect width="357" height="266" fill="white" transform="translate(0.5 0.593018)"/>
</clipPath>
</defs>
</svg>
