<svg width="214" height="160" viewBox="0 0 214 160" fill="none" xmlns="http://www.w3.org/2000/svg">
<g clip-path="url(#clip0_466_12346)">
<path d="M213.5 144.2H0.5V144.31H213.5V144.2Z" fill="#EBEBEB"/>
<path d="M101.466 124.572H19.2059C17.864 124.572 16.7734 123.446 16.7734 122.059V2.60593C16.7734 1.21965 17.864 0.0930176 19.2059 0.0930176H101.466C102.808 0.0930176 103.899 1.21965 103.899 2.60593V122.059C103.899 123.446 102.808 124.572 101.466 124.572ZM19.2059 0.20304C17.9236 0.20304 16.8799 1.28126 16.8799 2.60593V122.059C16.8799 123.384 17.9236 124.462 19.2059 124.462H101.466C102.749 124.462 103.792 123.384 103.792 122.059V2.60593C103.792 1.28126 102.749 0.20304 101.466 0.20304H19.2059Z" fill="#EBEBEB"/>
<path d="M193.61 124.572H111.349C110.008 124.572 108.917 123.446 108.917 122.059V2.60593C108.917 1.21965 110.008 0.0930176 111.349 0.0930176H193.61C194.952 0.0930176 196.043 1.21965 196.043 2.60593V122.059C196.043 123.446 194.952 124.572 193.61 124.572ZM111.349 0.20304C110.067 0.20304 109.023 1.28126 109.023 2.60593V122.059C109.023 123.384 110.067 124.462 111.349 124.462H193.61C194.892 124.462 195.936 123.384 195.936 122.059V2.60593C195.936 1.28126 194.892 0.20304 193.61 0.20304H111.349Z" fill="#EBEBEB"/>
<path d="M192.158 151.281H181.082V151.392H192.158V151.281Z" fill="#EBEBEB"/>
<path d="M152.169 152.479H132.986V152.589H152.169V152.479Z" fill="#EBEBEB"/>
<path d="M180.655 147.197H154.759V147.307H180.655V147.197Z" fill="#EBEBEB"/>
<path d="M31.0401 147.937H22.8481V148.047H31.0401V147.937Z" fill="#EBEBEB"/>
<path d="M58.389 147.937H34.8354V148.047H58.389V147.937Z" fill="#EBEBEB"/>
<path d="M104.504 149.794H72.7793V149.904H104.504V149.794Z" fill="#EBEBEB"/>
<path d="M161.78 141.943H165.188V76.7874H161.78V141.943Z" fill="#F0F0F0"/>
<path d="M145.425 144.192H164.293V141.943H145.425V144.192Z" fill="#F0F0F0"/>
<path d="M161.784 76.7874H144.522V141.943H161.784V76.7874Z" fill="#F5F5F5"/>
<path d="M159.944 110.714H146.363V122.35H159.944V110.714Z" fill="#F0F0F0"/>
<path d="M159.944 125.941H146.363V137.577H159.944V125.941Z" fill="#F0F0F0"/>
<path d="M151.343 117.328H154.959C155.237 117.328 155.462 117.096 155.462 116.809V116.25C155.462 115.963 155.237 115.731 154.959 115.731H151.343C151.065 115.731 150.84 115.963 150.84 116.25V116.809C150.84 117.096 151.065 117.328 151.343 117.328Z" fill="#F5F5F5"/>
<path d="M151.343 132.56H154.959C155.237 132.56 155.462 132.327 155.462 132.041V131.482C155.462 131.195 155.237 130.962 154.959 130.962H151.343C151.065 130.962 150.84 131.195 150.84 131.482V132.041C150.84 132.327 151.065 132.56 151.343 132.56Z" fill="#F5F5F5"/>
<path d="M159.944 80.3784H146.363V92.0144H159.944V80.3784Z" fill="#F0F0F0"/>
<path d="M159.944 95.4868H146.363V107.123H159.944V95.4868Z" fill="#F0F0F0"/>
<path d="M151.343 86.9974H154.959C155.237 86.9974 155.462 86.7649 155.462 86.4781V85.9192C155.462 85.6324 155.237 85.3999 154.959 85.3999H151.343C151.065 85.3999 150.84 85.6324 150.84 85.9192V86.4781C150.84 86.7649 151.065 86.9974 151.343 86.9974Z" fill="#F5F5F5"/>
<path d="M151.343 102.101H154.959C155.237 102.101 155.462 101.869 155.462 101.582V101.023C155.462 100.736 155.237 100.504 154.959 100.504H151.343C151.065 100.504 150.84 100.736 150.84 101.023V101.582C150.84 101.869 151.065 102.101 151.343 102.101Z" fill="#F5F5F5"/>
<path d="M180.672 141.943H190.896V76.7874H180.672V141.943Z" fill="#F0F0F0"/>
<path d="M164.306 144.192H189.844V141.943H164.306V144.192Z" fill="#F0F0F0"/>
<path d="M180.673 76.7874H163.411V141.943H180.673V76.7874Z" fill="#F5F5F5"/>
<path d="M178.832 110.714H165.251V122.35H178.832V110.714Z" fill="#F0F0F0"/>
<path d="M178.832 125.941H165.251V137.577H178.832V125.941Z" fill="#F0F0F0"/>
<path d="M170.231 117.328H173.848C174.126 117.328 174.351 117.096 174.351 116.809V116.25C174.351 115.963 174.126 115.731 173.848 115.731H170.231C169.954 115.731 169.728 115.963 169.728 116.25V116.809C169.728 117.096 169.954 117.328 170.231 117.328Z" fill="#F5F5F5"/>
<path d="M170.231 132.56H173.848C174.126 132.56 174.351 132.327 174.351 132.041V131.482C174.351 131.195 174.126 130.962 173.848 130.962H170.231C169.954 130.962 169.728 131.195 169.728 131.482V132.041C169.728 132.327 169.954 132.56 170.231 132.56Z" fill="#F5F5F5"/>
<path d="M178.832 80.3785H165.251V92.0145H178.832V80.3785Z" fill="#F0F0F0"/>
<path d="M178.832 95.4868H165.251V107.123H178.832V95.4868Z" fill="#F0F0F0"/>
<path d="M170.231 86.9974H173.848C174.126 86.9974 174.351 86.7649 174.351 86.4781V85.9192C174.351 85.6324 174.126 85.3999 173.848 85.3999H170.231C169.954 85.3999 169.728 85.6324 169.728 85.9192V86.4781C169.728 86.7649 169.954 86.9974 170.231 86.9974Z" fill="#F5F5F5"/>
<path d="M170.231 102.101H173.848C174.126 102.101 174.351 101.869 174.351 101.582V101.023C174.351 100.736 174.126 100.504 173.848 100.504H170.231C169.954 100.504 169.728 100.736 169.728 101.023V101.582C169.728 101.869 169.954 102.101 170.231 102.101Z" fill="#F5F5F5"/>
<path d="M125.16 63.1842L182.547 63.1842V11.1392L125.16 11.1392V63.1842Z" fill="#E6E6E6"/>
<path d="M119.009 9.11914H186.261C186.577 9.11914 186.832 9.38319 186.832 9.70886C186.832 10.0345 186.577 10.2986 186.261 10.2986H119.009C118.694 10.2986 118.438 10.0345 118.438 9.70886C118.438 9.38319 118.694 9.11914 119.009 9.11914Z" fill="#E6E6E6"/>
<path d="M122.728 63.1842L181.414 63.1842V11.1392L122.728 11.1392V63.1842Z" fill="#F0F0F0"/>
<path d="M125.16 63.1886H182.547V64.8565H123.482L125.16 63.1886Z" fill="#E6E6E6"/>
<path d="M118.668 63.1886H177.354L175.675 64.8565H116.99L118.668 63.1886Z" fill="#F0F0F0"/>
<path d="M178.001 59.6635V14.6599L126.136 14.6599V59.6635H178.001Z" fill="#FAFAFA"/>
<path d="M166.227 59.6679L146.217 14.6643H136.773L156.782 59.6679H166.227Z" fill="white"/>
<path d="M154.75 59.6679L134.745 14.6643H131.061L151.07 59.6679H154.75Z" fill="white"/>
<path d="M126.566 59.6679V14.6643H126.132V59.6679H126.566Z" fill="#E6E6E6"/>
<g opacity="0.4">
<path d="M177.959 51.0157H183.825V8.0674H177.959V51.0157Z" fill="#F0F0F0"/>
<path d="M175.676 51.0157H180.247V8.0674H175.676V51.0157Z" fill="#E6E6E6"/>
<path d="M172.097 51.0157H177.963V8.0674H172.097V51.0157Z" fill="#F0F0F0"/>
<path d="M169.81 51.0157H174.381V8.0674H169.81V51.0157Z" fill="#E6E6E6"/>
<path d="M166.227 51.0157H172.093V8.0674H166.227V51.0157Z" fill="#F0F0F0"/>
</g>
<g opacity="0.4">
<path d="M128.317 51.0157H131.7V8.0674H128.317V51.0157Z" fill="#F0F0F0"/>
<path d="M127.001 51.0157H129.633V8.0674H127.001V51.0157Z" fill="#E6E6E6"/>
<path d="M124.934 51.0157H128.317V8.0674H124.934V51.0157Z" fill="#F0F0F0"/>
<path d="M123.623 51.0157H126.255V8.0674H123.623V51.0157Z" fill="#E6E6E6"/>
<path d="M121.552 51.0157H124.935V8.0674H121.552V51.0157Z" fill="#F0F0F0"/>
</g>
<path d="M70.458 42.6672H78.5776L77.6191 21.3933H70.458V42.6672Z" fill="#F5F5F5"/>
<path d="M83.1656 43.8203L84.9165 53.269H83.1656L72.4219 43.8203H83.1656Z" fill="#F5F5F5"/>
<path d="M84.9162 43.8203V53.269L74.1768 43.8203H84.9162Z" fill="#E6E6E6"/>
<path d="M41.0471 43.8203L42.7979 53.269H41.0471L30.3076 43.8203H41.0471Z" fill="#F5F5F5"/>
<path d="M42.7981 43.8203V53.269L32.0586 43.8203H42.7981Z" fill="#E6E6E6"/>
<path d="M92.8015 42.7025H81.1206V44.0668H92.8015V42.7025Z" fill="#E6E6E6"/>
<path d="M23.0483 44.0624L81.1206 44.0624V42.6981L23.0483 42.6981V44.0624Z" fill="#F5F5F5"/>
<path d="M58.5259 42.6673H75.9578L78.1134 16.8912H60.6814L58.5259 42.6673Z" fill="#E6E6E6"/>
<path d="M57.6226 42.6673H75.0545L77.21 16.8912H59.7781L57.6226 42.6673Z" fill="#F0F0F0"/>
<path d="M73.5931 39.8155L75.5655 19.743H61.2434L59.271 39.8155H73.5931Z" fill="white"/>
<path d="M50.7212 42.6673H56.3146L55.6543 28.0211H50.7212V42.6673Z" fill="#E0E0E0"/>
<path d="M42.5083 42.6673H54.5087L55.9955 24.9185H43.9908L42.5083 42.6673Z" fill="#F0F0F0"/>
<path d="M41.8862 42.6673H53.8909L55.3734 24.9185H43.3687L41.8862 42.6673Z" fill="#F5F5F5"/>
<path d="M52.8814 40.7044L54.2404 26.8856H44.3785L43.0195 40.7044H52.8814Z" fill="#E0E0E0"/>
<path d="M112.266 79.9648C112.376 81.3379 111.388 82.5437 110.059 82.6538C108.73 82.7638 107.563 81.7472 107.456 80.3741C107.35 79.001 108.334 77.7952 109.663 77.6851C110.992 77.5707 112.159 78.5917 112.266 79.9648Z" fill="#E0E0E0"/>
<path d="M116.752 81.2675C116.862 82.6406 115.874 83.8465 114.545 83.9565C113.216 84.0709 112.048 83.0499 111.942 81.6768C111.835 80.3038 112.82 79.0979 114.149 78.9879C115.478 78.8779 116.645 79.8945 116.752 81.2675Z" fill="#E0E0E0"/>
<path d="M119.993 79.78C120.104 81.1531 119.116 82.3589 117.787 82.4689C116.458 82.5834 115.29 81.5624 115.184 80.1893C115.073 78.8162 116.061 77.6104 117.39 77.5003C118.72 77.3859 119.887 78.4069 119.993 79.78Z" fill="#E0E0E0"/>
<path d="M123.414 80.6998C123.525 82.0729 122.537 83.2787 121.208 83.3888C119.878 83.5032 118.711 82.4822 118.605 81.1091C118.494 79.736 119.482 78.5302 120.811 78.4201C122.14 78.3101 123.308 79.3267 123.414 80.6998Z" fill="#E0E0E0"/>
<path d="M126.485 81.1046C126.485 81.1046 126.204 88.0316 115.431 88.0316C104.657 88.0316 104.376 81.1046 104.376 81.1046H126.481H126.485Z" fill="#F0F0F0"/>
<path d="M26.0089 144.196H29.9238L29.9238 88.0273H26.0089L26.0089 144.196Z" fill="#E6E6E6"/>
<path d="M24.9654 144.196H27.27L27.27 88.0273H24.9654L24.9654 144.196Z" fill="#F0F0F0"/>
<path d="M79.8255 88.0316H24.2495V92.2433H79.8255V88.0316Z" fill="#F0F0F0"/>
<path d="M132.458 144.196H136.373V88.0273H132.458V144.196Z" fill="#E6E6E6"/>
<path d="M131.725 144.196H134.03V88.0273H131.725V144.196Z" fill="#F0F0F0"/>
<path d="M137.072 88.0316H81.4956V92.2433H137.072V88.0316Z" fill="#E6E6E6"/>
<path d="M80.1534 144.196H84.0684V88.0273H80.1534V144.196Z" fill="#E6E6E6"/>
<path d="M79.1099 144.196H81.4146V88.0273H79.1099V144.196Z" fill="#F0F0F0"/>
<path d="M93.0019 69.3499H63.9871L58.8154 87.0503H87.8345L93.0019 69.3499Z" fill="#E6E6E6"/>
<path d="M87.8347 87.0503L87.7197 88.0317H58.6963L58.8156 87.0503H87.8347Z" fill="#E6E6E6"/>
<path d="M92.1113 69.3499H63.0922L57.9248 87.0503H86.9439L92.1113 69.3499Z" fill="#F0F0F0"/>
<path d="M86.3732 86.2405L91.0677 70.1597H63.6631L58.9644 86.2405H86.3732Z" fill="white"/>
<path d="M79.3826 87.0503L79.2633 88.0317H47.3091L47.4241 87.0503H79.3826Z" fill="#F0F0F0"/>
<path d="M161.336 23.9459H112.308C108.883 23.9459 105.901 26.8417 105.679 30.38L98.0707 151.651C97.8492 155.189 100.469 158.085 103.894 158.085H152.922C156.347 158.085 159.329 155.189 159.551 151.651L165.021 64.487C165.485 64.3198 165.839 63.8753 165.873 63.356L166.853 47.7592C166.887 47.2355 166.584 46.7954 166.145 46.6281L167.164 30.38C167.385 26.8417 164.765 23.9459 161.34 23.9459H161.336Z" fill="#407BFF"/>
<path d="M101.709 55.3463H102.667C103.276 55.3463 103.805 54.8314 103.843 54.2065L104.252 47.6976C104.29 47.0682 103.826 46.5577 103.217 46.5577H102.258C101.649 46.5577 101.121 47.0726 101.083 47.6976L100.674 54.2065C100.635 54.8358 101.1 55.3463 101.709 55.3463Z" fill="#407BFF"/>
<path d="M100.98 66.9691H101.939C102.548 66.9691 103.076 66.4542 103.115 65.8293L103.523 59.3204C103.562 58.691 103.097 58.1805 102.488 58.1805H101.53C100.921 58.1805 100.392 58.6954 100.354 59.3204L99.9451 65.8293C99.9067 66.4586 100.371 66.9691 100.98 66.9691Z" fill="#407BFF"/>
<path d="M150.316 158.081H101.287C97.8621 158.081 95.2422 155.185 95.4638 151.647L103.072 30.3756C103.294 26.8373 106.276 23.9415 109.701 23.9415H158.729C162.154 23.9415 164.774 26.8373 164.552 30.3756L156.944 151.647C156.723 155.185 153.741 158.081 150.316 158.081Z" fill="#263238"/>
<path opacity="0.2" d="M129.134 152.924C130.852 151.206 130.981 148.466 129.423 146.803C127.865 145.141 125.21 145.186 123.493 146.903C121.775 148.621 121.646 151.361 123.204 153.023C124.761 154.686 127.417 154.641 129.134 152.924Z" fill="white"/>
<path d="M154.746 142.335H99.0124C98.2115 142.335 97.5768 141.635 97.6279 140.807L104.154 36.8054C104.201 36.0529 104.806 35.4631 105.539 35.4631H161.277C162.077 35.4631 162.712 36.1629 162.661 36.9902L156.135 140.992C156.088 141.745 155.483 142.335 154.75 142.335H154.746Z" fill="white"/>
<path opacity="0.2" d="M139.199 101.347C145.434 95.1119 145.903 85.1651 140.247 79.1298C134.592 73.0945 124.954 73.2562 118.719 79.4909C112.485 85.7256 112.016 95.6724 117.671 101.708C123.327 107.743 132.965 107.581 139.199 101.347Z" fill="#407BFF"/>
<path opacity="0.2" d="M127.435 114.653C114.497 114.653 104.653 103.778 105.492 90.4126C106.331 77.0471 117.539 66.1725 130.477 66.1725C143.414 66.1725 153.259 77.0471 152.42 90.4126C151.581 103.778 140.373 114.653 127.435 114.653ZM130.447 66.6126C117.744 66.6126 106.74 77.2892 105.914 90.4126C105.091 103.536 114.757 114.213 127.461 114.213C140.164 114.213 151.168 103.536 151.994 90.4126C152.816 77.2892 143.154 66.6126 130.451 66.6126H130.447Z" fill="#407BFF"/>
<path d="M125.322 98.0262L124.052 95.4825C121.283 89.933 114.906 84.9732 112.678 83.5297L114.783 80.2774C117.415 81.985 122.689 86.2142 125.995 91.24C132.104 83.7629 140.743 76.0526 152.313 67.7393L154.286 70.8111C141.923 79.6921 133.041 87.8117 127.128 95.6365L125.322 98.0262Z" fill="#407BFF"/>
<path opacity="0.2" d="M124.718 30.8683C125.413 30.1735 125.464 29.0638 124.833 28.3897C124.201 27.7156 123.126 27.7324 122.431 28.4272C121.736 29.1221 121.685 30.2318 122.317 30.9058C122.948 31.5799 124.023 31.5631 124.718 30.8683Z" fill="white"/>
<path opacity="0.2" d="M129.54 27.8936H143.636C144.569 27.8936 145.285 28.6813 145.225 29.6451C145.165 30.6089 144.352 31.3967 143.419 31.3967H129.322C128.389 31.3967 127.674 30.6089 127.733 29.6451C127.793 28.6813 128.607 27.8936 129.54 27.8936Z" fill="white"/>
<path d="M77.0694 60.4249C76.3495 61.1819 75.5784 62.0225 74.8713 62.863C74.1513 63.7036 73.4442 64.5574 72.7796 65.4376C72.1108 66.3177 71.4803 67.2155 70.8711 68.1265L70.4281 68.8174L70.0149 69.5172C69.8743 69.7504 69.7465 69.9881 69.6229 70.2257L69.2821 70.8727C69.1671 71.1059 69.0862 71.5592 69.0478 72.0301C69.0095 72.5098 69.018 73.0335 69.0478 73.5616C69.1117 74.6266 69.2651 75.7357 69.4568 76.8403C69.64 77.9493 69.8743 79.0627 70.1341 80.1718C70.3812 81.2808 70.6624 82.403 70.9435 83.4944L69.3631 84.1062C68.4003 81.9409 67.6165 79.7405 66.969 77.4344C66.658 76.277 66.3811 75.1019 66.2192 73.8565C66.1383 73.2315 66.0829 72.5934 66.0871 71.9113C66.0957 71.2291 66.1468 70.503 66.4578 69.6624C66.5557 69.416 66.6069 69.3191 66.675 69.1695L66.871 68.7514C66.9988 68.4698 67.1308 68.1925 67.2757 67.9285L67.7017 67.1187L68.1532 66.3309C68.7624 65.2923 69.4099 64.2801 70.1171 63.3251C70.8157 62.3613 71.5399 61.4239 72.3025 60.5174C73.0778 59.6152 73.8403 58.7526 74.7222 57.8856L77.0779 60.4205L77.0694 60.4249Z" fill="#B55B52"/>
<path d="M77.2525 55.1218C74.9435 55.2318 72.7539 59.1882 72.7539 59.1882L75.8041 65.6223C75.8041 65.6223 79.9363 62.0664 79.9874 58.5721C80.0215 56.3012 79.523 55.0206 77.2525 55.1262V55.1218Z" fill="#407BFF"/>
<path opacity="0.7" d="M77.2525 55.1218C74.9435 55.2318 72.7539 59.1882 72.7539 59.1882L75.8041 65.6223C75.8041 65.6223 79.9363 62.0664 79.9874 58.5721C80.0215 56.3012 79.523 55.0206 77.2525 55.1262V55.1218Z" fill="white"/>
<path opacity="0.2" d="M77.8022 59.7472C77.1291 60.799 76.8054 63.5275 76.7031 64.7422C77.4699 63.95 78.5434 62.687 79.2463 61.2611C78.8033 60.086 78.2452 59.0562 77.8022 59.7472Z" fill="black"/>
<path d="M70.5047 82.8123L73.312 83.6748L71.4419 85.6288C71.4419 85.6288 69.4184 84.9863 69.1372 83.5648L70.5047 82.8123Z" fill="#B55B52"/>
<path d="M75.0118 85.9061L74.5389 87.772L71.4419 85.6244L73.312 83.6704L75.0118 85.9061Z" fill="#B55B52"/>
<path d="M93.4829 47.4863C93.3934 47.746 93.4573 48.01 93.6235 48.076C93.7896 48.142 93.9941 47.9836 94.0793 47.7196C94.1645 47.4555 94.1048 47.1958 93.9387 47.1298C93.7726 47.0638 93.5681 47.2223 93.4829 47.4863Z" fill="#263238"/>
<path d="M93.8623 47.1166L94.5311 47.1738C94.5311 47.1738 94.054 47.5391 93.8623 47.1166Z" fill="#263238"/>
<path d="M93.6109 47.8252C93.6109 47.8252 93.662 49.1147 93.9517 49.8408C93.5086 50.03 92.9932 49.6648 92.9932 49.6648L93.6109 47.8252Z" fill="#A02724"/>
<path d="M94.3095 46.4741C94.2498 46.4653 94.1987 46.4169 94.1817 46.3553C94.007 45.6467 93.4745 45.4311 93.449 45.4223C93.368 45.3915 93.3254 45.2991 93.3552 45.211C93.3851 45.1274 93.4745 45.0834 93.5555 45.1142C93.5853 45.123 94.2669 45.3915 94.4841 46.2717C94.5054 46.3597 94.4543 46.4477 94.3691 46.4697C94.3478 46.4741 94.3265 46.4741 94.3052 46.4697L94.3095 46.4741Z" fill="#263238"/>
<path d="M84.7332 48.5953C84.7971 50.6726 84.5884 54.4177 83.0122 55.4827C83.0122 55.4827 83.2209 57.6216 86.8419 58.3433C90.825 59.1399 89.0699 56.693 89.0699 56.693C86.9825 55.7248 87.302 54.0789 87.9282 52.6002L84.729 48.5953H84.7332Z" fill="#B55B52"/>
<path d="M96.5716 62.8365C96.9337 63.8488 97.3384 64.9402 97.7729 65.9744C98.2032 67.0218 98.6505 68.056 99.1361 69.0726C99.6175 70.0892 100.137 71.075 100.674 72.0476C100.947 72.5273 101.228 73.007 101.526 73.4647C101.671 73.698 101.82 73.9268 101.978 74.1469L102.208 74.4813L102.323 74.6486L102.382 74.7322L102.421 74.7806C102.608 75.0314 102.97 75.3395 103.366 75.6256C103.767 75.916 104.214 76.1889 104.678 76.4485C105.616 76.9634 106.612 77.4387 107.631 77.8788C108.649 78.3277 109.688 78.7458 110.74 79.1419C111.784 79.5511 112.858 79.9296 113.906 80.3081L113.509 82.0024C111.218 81.6152 108.99 81.0607 106.757 80.3609C105.645 80 104.534 79.5996 103.426 79.0891C102.872 78.8294 102.318 78.5477 101.765 78.2045C101.207 77.8568 100.648 77.4607 100.09 76.827L99.9881 76.7082L99.9157 76.6158L99.7751 76.4309L99.494 76.0656C99.3023 75.8236 99.1191 75.5771 98.9487 75.3219C98.5909 74.8246 98.2543 74.3141 97.9306 73.8036C97.2831 72.7738 96.6781 71.722 96.1456 70.6437C95.6046 69.5655 95.0892 68.4785 94.6248 67.3695C94.1647 66.2472 93.7345 65.1602 93.3511 63.9544L96.5759 62.8365H96.5716Z" fill="#B55B52"/>
<path d="M113.339 80.2817L115.852 79.2739L115.729 82.2709C115.729 82.2709 113.692 82.8298 112.751 81.7692L113.339 80.2773V80.2817Z" fill="#B55B52"/>
<path d="M117.748 80.3081L118.609 82.2225L115.729 82.2753L115.853 79.2739L117.748 80.3081Z" fill="#B55B52"/>
<path d="M76.064 155.418L79.391 155.674L80.3793 147.783L77.0523 147.527L76.064 155.418Z" fill="#B55B52"/>
<path d="M49.7114 137.568L51.884 140.235L58.3337 135.953L56.1611 133.286L49.7114 137.568Z" fill="#B55B52"/>
<path d="M52.9066 139.887L51.1557 136.411C51.0918 136.283 50.9597 136.226 50.8319 136.27L48.0459 137.265C47.7562 137.366 47.6284 137.749 47.7775 138.039C48.408 139.241 48.7701 139.791 49.5412 141.318C50.014 142.26 50.6147 143.681 51.2707 144.984C51.9097 146.256 53.1664 145.701 53.0045 145.103C52.2718 142.414 52.7575 141.665 52.9875 140.504C53.0301 140.292 53.0003 140.077 52.9066 139.892V139.887Z" fill="#263238"/>
<path d="M79.5998 155.181H75.8595C75.7232 155.181 75.6124 155.277 75.5869 155.414L75.0842 158.468C75.0331 158.785 75.2887 159.084 75.6039 159.08C76.9075 159.058 77.5379 158.979 79.1823 158.979C80.1919 158.979 82.2836 159.089 83.6809 159.089C85.0781 159.089 85.1889 157.663 84.6095 157.531C82.0152 156.95 81.0098 156.153 80.1493 155.392C79.996 155.255 79.7957 155.181 79.5998 155.181Z" fill="#263238"/>
<path opacity="0.2" d="M80.3794 147.783L79.8299 152.17L76.5156 151.827L77.0524 147.532L80.3794 147.783Z" fill="black"/>
<path opacity="0.2" d="M56.1611 133.286L58.3337 135.953L55.6627 137.722L53.4092 135.113L56.1611 133.286Z" fill="black"/>
<path d="M76.3154 76.0525C78.8927 76.5674 84.3668 77.6632 89.6577 78.7238C95.9625 59.5491 94.4545 58.9286 94.4545 58.9286C94.4545 58.9286 93.1169 58.1584 91.4257 57.4763C91.3618 57.4499 91.3021 57.4279 91.2467 57.4059C90.3947 57.0846 90.2158 57.0362 89.0699 56.6929C87.106 56.2132 85.2742 55.8215 83.0122 55.4827C82.8673 55.4607 82.7225 55.4387 82.5819 55.4211C82.1729 55.3683 81.764 55.3242 81.372 55.2846C81.1079 55.2538 80.8438 55.2362 80.5925 55.2186C80.2943 55.201 80.0046 55.1834 79.732 55.1702C78.2708 55.0954 77.2313 55.1174 77.2313 55.1174C77.9939 67.0834 77.4401 70.5205 76.324 76.0525H76.3154Z" fill="#407BFF"/>
<path opacity="0.7" d="M76.3154 76.0525C78.8927 76.5674 84.3668 77.6632 89.6577 78.7238C95.9625 59.5491 94.4545 58.9286 94.4545 58.9286C94.4545 58.9286 93.1169 58.1584 91.4257 57.4763C91.3618 57.4499 91.3021 57.4279 91.2467 57.4059C90.3947 57.0846 90.2158 57.0362 89.0699 56.6929C87.106 56.2132 85.2742 55.8215 83.0122 55.4827C82.8673 55.4607 82.7225 55.4387 82.5819 55.4211C82.1729 55.3683 81.764 55.3242 81.372 55.2846C81.1079 55.2538 80.8438 55.2362 80.5925 55.2186C80.2943 55.201 80.0046 55.1834 79.732 55.1702C78.2708 55.0954 77.2313 55.1174 77.2313 55.1174C77.9939 67.0834 77.4401 70.5205 76.324 76.0525H76.3154Z" fill="white"/>
<path opacity="0.2" d="M92.55 63.3956L91.3444 63.1931C91.3317 64.8346 91.9494 67.6512 92.5372 69.4424C93.0357 67.6908 93.4233 66.2341 93.7173 65.0151L92.55 63.3956Z" fill="black"/>
<path d="M94.0027 58.6822C95.9751 59.3335 97.4065 63.3647 97.9475 65.1075L94.1263 69.7548C94.1263 69.7548 90.1858 63.9236 90.7907 62.1149C91.4212 60.2313 93.0442 58.3609 94.0027 58.6778V58.6822Z" fill="#407BFF"/>
<path opacity="0.7" d="M94.0027 58.6822C95.9751 59.3335 97.4065 63.3647 97.9475 65.1075L94.1263 69.7548C94.1263 69.7548 90.1858 63.9236 90.7907 62.1149C91.4212 60.2313 93.0442 58.3609 94.0027 58.6778V58.6822Z" fill="white"/>
<path d="M95.281 43.8028C94.8848 45.0042 93.1637 45.4883 91.4299 44.881C89.6961 44.2737 88.6141 42.8082 89.006 41.6067C89.4022 40.4053 91.1232 39.9212 92.857 40.5285C94.5909 41.1358 95.6729 42.6013 95.281 43.8028Z" fill="#263238"/>
<path d="M85.2784 43.4682C84.3923 46.7425 83.9493 48.1068 84.9632 50.3644C86.4882 53.7575 90.5693 54.2856 92.3841 51.381C94.0157 48.7669 95.1914 43.8511 92.5843 41.391C90.0155 38.9661 86.1645 40.194 85.2784 43.4726V43.4682Z" fill="#B55B52"/>
<path d="M90.2241 39.6483C88.9291 40.4052 86.2325 35.6611 82.8628 39.6483C80.4517 42.5001 81.9853 46.6941 81.9853 46.6941C81.9853 46.6941 80.0683 43.2042 78.5304 44.9074C76.5325 47.121 78.6028 54.981 85.2058 54.4441C91.8088 53.9072 91.1741 48.3665 91.1741 48.3665C91.1741 48.3665 94.2669 45.1186 94.1135 42.2184C93.9942 40.0136 92.3541 38.4028 90.2241 39.6527V39.6483Z" fill="#263238"/>
<path d="M91.0252 46.2804C90.8378 46.8701 90.8974 47.5743 91.0806 48.1332C91.3575 48.9737 91.9795 48.9781 92.3117 48.3972C92.6099 47.8735 92.8272 46.8085 92.3543 46.1308C91.89 45.4662 91.234 45.607 91.0252 46.2804Z" fill="#B55B52"/>
<path d="M86.1348 78.0197C86.1348 78.0197 84.7119 83.1159 82.8844 89.8405C81.6703 94.3206 80.273 99.5225 78.9993 104.421C78.2708 107.224 77.585 109.926 76.9928 112.338C73.6445 126.003 56.9453 137.749 56.9453 137.749L53.7119 134.074C53.7119 134.074 64.9328 124.313 68.1789 111.563C74.7691 85.6816 71.0629 81.316 76.3155 76.0569L86.1348 78.0197Z" fill="#263238"/>
<path opacity="0.2" d="M84.686 82.579C84.1919 84.555 83.5699 87.0503 82.884 89.8404C81.67 94.3206 80.2727 99.5224 78.9989 104.421C78.4537 98.1713 78.1299 86.6806 82.5986 83.1071C83.4762 82.4029 84.1706 82.2665 84.686 82.579Z" fill="black"/>
<path d="M57.2133 138.272L53.1748 133.682L54.3974 132.415L59.3518 137.238L57.2133 138.272Z" fill="#407BFF"/>
<path opacity="0.7" d="M57.2133 138.272L53.1748 133.682L54.3974 132.415L59.3518 137.238L57.2133 138.272Z" fill="white"/>
<path d="M53.507 141.758C53.4687 141.758 53.4261 141.749 53.3877 141.731C52.9873 141.582 52.7402 140.803 52.6252 140.35C52.6167 140.319 52.6252 140.284 52.655 140.266C52.6806 140.244 52.7147 140.244 52.7402 140.262C52.8595 140.332 53.9075 140.97 53.9288 141.41C53.933 141.507 53.8904 141.595 53.8095 141.657C53.7072 141.732 53.6093 141.767 53.507 141.762V141.758ZM52.8297 140.504C53.0001 141.102 53.2259 141.498 53.4431 141.577C53.5326 141.613 53.622 141.591 53.72 141.52C53.7711 141.481 53.7754 141.445 53.7754 141.415C53.7626 141.181 53.2472 140.772 52.8339 140.504H52.8297Z" fill="#407BFF"/>
<path d="M89.4574 78.7239C89.4574 78.7239 90.2881 105.93 88.4264 116.18C86.4924 126.839 80.5966 151.088 80.5966 151.088L75.7998 150.45C75.7998 150.45 78.8329 125.954 80.1237 115.366C81.5295 103.818 79.6892 76.7743 79.6892 76.7743L89.4616 78.7283L89.4574 78.7239Z" fill="#263238"/>
<path d="M81.619 151.365L74.7817 150.454L74.8627 148.777L82.3049 149.112L81.619 151.365Z" fill="#407BFF"/>
<path opacity="0.7" d="M81.619 151.365L74.7817 150.454L74.8627 148.777L82.3049 149.112L81.619 151.365Z" fill="white"/>
<path d="M53.6689 140.693C53.2982 140.675 52.8509 140.534 52.6592 140.398C52.6379 140.38 52.6209 140.354 52.6252 140.328C52.6252 140.297 52.6422 140.275 52.6678 140.262C52.7018 140.244 53.5325 139.799 53.9841 139.98C54.1076 140.028 54.1928 140.116 54.2397 140.244C54.3121 140.438 54.2269 140.548 54.1673 140.596C54.0608 140.684 53.8776 140.71 53.6689 140.697V140.693ZM52.8722 140.336C53.2386 140.512 53.8861 140.609 54.0693 140.464C54.0991 140.438 54.1289 140.398 54.0906 140.297C54.0608 140.218 54.0054 140.16 53.9287 140.13C53.6603 140.024 53.1619 140.204 52.8765 140.336H52.8722Z" fill="#407BFF"/>
<path d="M80.8353 155.784C80.4689 155.784 80.0728 155.718 79.7916 155.66C79.7575 155.652 79.732 155.625 79.7277 155.59C79.7234 155.555 79.7405 155.524 79.7703 155.506C79.9237 155.427 81.2698 154.723 81.6703 154.961C81.7469 155.005 81.7895 155.079 81.7981 155.176C81.8066 155.339 81.7555 155.471 81.6447 155.572C81.47 155.731 81.1633 155.784 80.8353 155.784ZM80.0557 155.546C80.7884 155.674 81.3337 155.638 81.5425 155.454C81.6149 155.388 81.649 155.299 81.6404 155.189C81.6404 155.145 81.6234 155.123 81.5936 155.101C81.3763 154.974 80.6095 155.273 80.0557 155.546Z" fill="#407BFF"/>
<path d="M79.8085 155.66C79.8085 155.66 79.7744 155.656 79.7616 155.643C79.7403 155.625 79.7275 155.599 79.7275 155.568C79.7361 155.506 79.8894 154.019 80.6946 154.107C80.9118 154.129 80.9715 154.243 80.9842 154.331C81.0439 154.719 80.2387 155.462 79.834 155.652C79.8255 155.656 79.8127 155.66 79.8 155.66H79.8085ZM80.6392 154.265C80.1578 154.265 79.9704 155.079 79.9107 155.431C80.3239 155.176 80.8735 154.591 80.8351 154.358C80.8351 154.34 80.8224 154.283 80.6818 154.27C80.6647 154.27 80.652 154.27 80.6349 154.27L80.6392 154.265Z" fill="#407BFF"/>
<path d="M76.2427 75.2075L75.4461 76.3121C75.3822 76.3957 75.4802 76.519 75.6335 76.5498L89.6276 79.3487C89.7469 79.3707 89.8577 79.3311 89.879 79.2563L90.1942 78.0549C90.2155 77.9713 90.1218 77.8788 89.9897 77.8524L76.477 75.1503C76.379 75.1283 76.2811 75.1503 76.2427 75.2119V75.2075Z" fill="#407BFF"/>
<path d="M77.8105 77.1264L77.4484 77.056C77.376 77.0428 77.3292 76.9943 77.3419 76.9459L77.7679 75.388C77.7807 75.344 77.8489 75.3176 77.9213 75.3308L78.2834 75.4012C78.3558 75.4144 78.4027 75.4628 78.3899 75.5112L77.9639 77.0692C77.9511 77.1132 77.883 77.1396 77.8105 77.1264Z" fill="#263238"/>
<path d="M86.9482 78.9746L86.5861 78.9042C86.5137 78.891 86.4669 78.8426 86.4796 78.7942L86.9056 77.2363C86.9184 77.1923 86.9866 77.1659 87.059 77.1791L87.4211 77.2495C87.4935 77.2627 87.5404 77.3111 87.5276 77.3595L87.1016 78.9174C87.0888 78.9614 87.0207 78.9878 86.9482 78.9746Z" fill="#263238"/>
</g>
<defs>
<clipPath id="clip0_466_12346">
<rect width="213" height="159" fill="white" transform="translate(0.5 0.0930176)"/>
</clipPath>
</defs>
</svg>
