<svg width="348" height="260" viewBox="0 0 348 260" fill="none" xmlns="http://www.w3.org/2000/svg">
<g clip-path="url(#clip0_540_14381)">
<path d="M348 227.702H0V227.876H348V227.702Z" fill="#EBEBEB"/>
<path d="M313.13 238.886H290.079V239.06H313.13V238.886Z" fill="#EBEBEB"/>
<path d="M230.529 240.777H224.481V240.951H230.529V240.777Z" fill="#EBEBEB"/>
<path d="M289.383 232.436H276.027V232.61H289.383V232.436Z" fill="#EBEBEB"/>
<path d="M66.5724 233.604H36.5122V233.778H66.5724V233.604Z" fill="#EBEBEB"/>
<path d="M77.1795 233.604H72.7738V233.778H77.1795V233.604Z" fill="#EBEBEB"/>
<path d="M156.704 236.537H91.5032V236.711H156.704V236.537Z" fill="#EBEBEB"/>
<path d="M164.959 196.701H30.5613C28.3689 196.701 26.5872 194.922 26.5872 192.732V4.06202C26.5872 1.87247 28.3689 0.0930176 30.5613 0.0930176H164.959C167.151 0.0930176 168.933 1.87247 168.933 4.06202V192.732C168.933 194.922 167.151 196.701 164.959 196.701ZM30.5613 0.266792C28.4664 0.266792 26.7612 1.96978 26.7612 4.06202V192.732C26.7612 194.824 28.4664 196.527 30.5613 196.527H164.959C167.054 196.527 168.759 194.824 168.759 192.732V4.06202C168.759 1.96978 167.054 0.266792 164.959 0.266792H30.5613Z" fill="#EBEBEB"/>
<path d="M315.504 196.701H181.106C178.914 196.701 177.132 194.922 177.132 192.732V4.06202C177.132 1.87247 178.914 0.0930176 181.106 0.0930176H315.504C317.696 0.0930176 319.478 1.87247 319.478 4.06202V192.732C319.478 194.922 317.696 196.701 315.504 196.701ZM181.106 0.266792C179.011 0.266792 177.306 1.96978 177.306 4.06202V192.732C177.306 194.824 179.011 196.527 181.106 196.527H315.504C317.599 196.527 319.304 194.824 319.304 192.732V4.06202C319.304 1.96978 317.599 0.266792 315.504 0.266792H181.106Z" fill="#EBEBEB"/>
<path d="M173.206 33.2632H55.2206V165.276H173.206V33.2632Z" fill="#EBEBEB"/>
<path d="M173.206 35.3901H57.5382V162.933H173.206V35.3901Z" fill="#FAFAFA"/>
<path d="M61.8116 103.093V94.1259H64.3729V88.155H67.7903V79.1952H68.6464V88.155H72.0637V94.1259H74.625V103.093H79.33V105.651H81.4667V115.465H81.8913V101.383H83.1719V110.343H84.4525V89.01H85.3086V97.9698H88.726V94.9809H90.0136V82.6082H92.5748V70.2354H93.4309V71.9384H110.949V66.8156H113.935V47.186H115.223V66.8156H119.489V71.9384H121.201V97.5458H130.173V89.865H127.187V88.5791H130.173V86.4451H138.72V66.8156H140.856V63.8336H151.108V66.8156H152.396V94.1259H157.094V106.506H159.655V96.6908H161.792V94.1259H166.49V85.1661H169.058V79.1952H172.051V70.2354H173.206V162.934H57.5382V103.093H61.8116Z" fill="#F0F0F0"/>
<path d="M104.407 73.28H103.196V74.4895H104.407V73.28Z" fill="#FAFAFA"/>
<path d="M104.407 75.3027H103.196V76.5122H104.407V75.3027Z" fill="#FAFAFA"/>
<path d="M104.407 83.4146H103.196V84.624H104.407V83.4146Z" fill="#FAFAFA"/>
<path d="M104.407 85.4373H103.196V86.6467H104.407V85.4373Z" fill="#FAFAFA"/>
<path d="M104.407 87.467H103.196V88.6765H104.407V87.467Z" fill="#FAFAFA"/>
<path d="M104.407 93.5491H103.196V94.7585H104.407V93.5491Z" fill="#FAFAFA"/>
<path d="M104.407 95.5718H103.196V96.7812H104.407V95.5718Z" fill="#FAFAFA"/>
<path d="M106.328 81.385H105.117V82.5945H106.328V81.385Z" fill="#FAFAFA"/>
<path d="M106.328 83.4146H105.117V84.624H106.328V83.4146Z" fill="#FAFAFA"/>
<path d="M106.328 85.4373H105.117V86.6467H106.328V85.4373Z" fill="#FAFAFA"/>
<path d="M106.328 87.467H105.117V88.6765H106.328V87.467Z" fill="#FAFAFA"/>
<path d="M106.328 89.4897H105.117V90.6992H106.328V89.4897Z" fill="#FAFAFA"/>
<path d="M106.328 93.5491H105.117V94.7585H106.328V93.5491Z" fill="#FAFAFA"/>
<path d="M106.328 95.5718H105.117V96.7812H106.328V95.5718Z" fill="#FAFAFA"/>
<path d="M108.249 73.28H107.038V74.4895H108.249V73.28Z" fill="#FAFAFA"/>
<path d="M108.249 75.3027H107.038V76.5122H108.249V75.3027Z" fill="#FAFAFA"/>
<path d="M108.249 77.3325H107.038V78.542H108.249V77.3325Z" fill="#FAFAFA"/>
<path d="M108.249 79.3552H107.038V80.5647H108.249V79.3552Z" fill="#FAFAFA"/>
<path d="M108.249 81.385H107.038V82.5945H108.249V81.385Z" fill="#FAFAFA"/>
<path d="M108.249 83.4146H107.038V84.624H108.249V83.4146Z" fill="#FAFAFA"/>
<path d="M108.249 85.4373H107.038V86.6467H108.249V85.4373Z" fill="#FAFAFA"/>
<path d="M108.249 87.467H107.038V88.6765H108.249V87.467Z" fill="#FAFAFA"/>
<path d="M108.249 89.4897H107.038V90.6992H108.249V89.4897Z" fill="#FAFAFA"/>
<path d="M108.249 91.5193H107.038V92.7288H108.249V91.5193Z" fill="#FAFAFA"/>
<path d="M108.249 95.5718H107.038V96.7812H108.249V95.5718Z" fill="#FAFAFA"/>
<path d="M110.177 73.28H108.966V74.4895H110.177V73.28Z" fill="#FAFAFA"/>
<path d="M110.177 75.3027H108.966V76.5122H110.177V75.3027Z" fill="#FAFAFA"/>
<path d="M110.177 77.3325H108.966V78.542H110.177V77.3325Z" fill="#FAFAFA"/>
<path d="M110.177 79.3552H108.966V80.5647H110.177V79.3552Z" fill="#FAFAFA"/>
<path d="M110.177 81.385H108.966V82.5945H110.177V81.385Z" fill="#FAFAFA"/>
<path d="M110.177 83.4146H108.966V84.624H110.177V83.4146Z" fill="#FAFAFA"/>
<path d="M110.177 85.4373H108.966V86.6467H110.177V85.4373Z" fill="#FAFAFA"/>
<path d="M110.177 103.684H108.966V104.893H110.177V103.684Z" fill="#FAFAFA"/>
<path d="M112.098 73.28H110.887V74.4895H112.098V73.28Z" fill="#FAFAFA"/>
<path d="M112.098 75.3027H110.887V76.5122H112.098V75.3027Z" fill="#FAFAFA"/>
<path d="M112.098 77.3325H110.887V78.542H112.098V77.3325Z" fill="#FAFAFA"/>
<path d="M112.098 79.3552H110.887V80.5647H112.098V79.3552Z" fill="#FAFAFA"/>
<path d="M112.098 81.385H110.887V82.5945H112.098V81.385Z" fill="#FAFAFA"/>
<path d="M112.098 83.4146H110.887V84.624H112.098V83.4146Z" fill="#FAFAFA"/>
<path d="M112.098 85.4373H110.887V86.6467H112.098V85.4373Z" fill="#FAFAFA"/>
<path d="M112.098 87.467H110.887V88.6765H112.098V87.467Z" fill="#FAFAFA"/>
<path d="M112.098 99.6243H110.887V100.834H112.098V99.6243Z" fill="#FAFAFA"/>
<path d="M112.098 101.654H110.887V102.863H112.098V101.654Z" fill="#FAFAFA"/>
<path d="M112.098 103.684H110.887V104.893H112.098V103.684Z" fill="#FAFAFA"/>
<path d="M112.098 105.706H110.887V106.916H112.098V105.706Z" fill="#FAFAFA"/>
<path d="M112.098 113.818H110.887V115.028H112.098V113.818Z" fill="#FAFAFA"/>
<path d="M114.019 73.28H112.808V74.4895H114.019V73.28Z" fill="#FAFAFA"/>
<path d="M114.019 75.3027H112.808V76.5122H114.019V75.3027Z" fill="#FAFAFA"/>
<path d="M114.019 77.3325H112.808V78.542H114.019V77.3325Z" fill="#FAFAFA"/>
<path d="M114.019 79.3552H112.808V80.5647H114.019V79.3552Z" fill="#FAFAFA"/>
<path d="M114.019 81.385H112.808V82.5945H114.019V81.385Z" fill="#FAFAFA"/>
<path d="M114.019 83.4146H112.808V84.624H114.019V83.4146Z" fill="#FAFAFA"/>
<path d="M114.019 85.4373H112.808V86.6467H114.019V85.4373Z" fill="#FAFAFA"/>
<path d="M114.019 87.467H112.808V88.6765H114.019V87.467Z" fill="#FAFAFA"/>
<path d="M114.019 89.4897H112.808V90.6992H114.019V89.4897Z" fill="#FAFAFA"/>
<path d="M114.019 91.5193H112.808V92.7288H114.019V91.5193Z" fill="#FAFAFA"/>
<path d="M114.019 97.6016H112.808V98.811H114.019V97.6016Z" fill="#FAFAFA"/>
<path d="M114.019 99.6243H112.808V100.834H114.019V99.6243Z" fill="#FAFAFA"/>
<path d="M114.019 101.654H112.808V102.863H114.019V101.654Z" fill="#FAFAFA"/>
<path d="M114.019 103.684H112.808V104.893H114.019V103.684Z" fill="#FAFAFA"/>
<path d="M114.019 105.706H112.808V106.916H114.019V105.706Z" fill="#FAFAFA"/>
<path d="M114.019 113.818H112.808V115.028H114.019V113.818Z" fill="#FAFAFA"/>
<path d="M115.94 73.28H114.729V74.4895H115.94V73.28Z" fill="#FAFAFA"/>
<path d="M115.94 75.3027H114.729V76.5122H115.94V75.3027Z" fill="#FAFAFA"/>
<path d="M115.94 77.3325H114.729V78.542H115.94V77.3325Z" fill="#FAFAFA"/>
<path d="M115.94 79.3552H114.729V80.5647H115.94V79.3552Z" fill="#FAFAFA"/>
<path d="M115.94 81.385H114.729V82.5945H115.94V81.385Z" fill="#FAFAFA"/>
<path d="M115.94 83.4146H114.729V84.624H115.94V83.4146Z" fill="#FAFAFA"/>
<path d="M115.94 85.4373H114.729V86.6467H115.94V85.4373Z" fill="#FAFAFA"/>
<path d="M115.94 87.467H114.729V88.6765H115.94V87.467Z" fill="#FAFAFA"/>
<path d="M115.94 89.4897H114.729V90.6992H115.94V89.4897Z" fill="#FAFAFA"/>
<path d="M115.94 91.5193H114.729V92.7288H115.94V91.5193Z" fill="#FAFAFA"/>
<path d="M115.94 93.5491H114.729V94.7585H115.94V93.5491Z" fill="#FAFAFA"/>
<path d="M115.94 95.5718H114.729V96.7812H115.94V95.5718Z" fill="#FAFAFA"/>
<path d="M115.94 97.6016H114.729V98.811H115.94V97.6016Z" fill="#FAFAFA"/>
<path d="M115.94 99.6243H114.729V100.834H115.94V99.6243Z" fill="#FAFAFA"/>
<path d="M115.94 101.654H114.729V102.863H115.94V101.654Z" fill="#FAFAFA"/>
<path d="M115.94 103.684H114.729V104.893H115.94V103.684Z" fill="#FAFAFA"/>
<path d="M115.94 105.706H114.729V106.916H115.94V105.706Z" fill="#FAFAFA"/>
<path d="M115.94 107.736H114.729V108.946H115.94V107.736Z" fill="#FAFAFA"/>
<path d="M117.868 73.28H116.656V74.4895H117.868V73.28Z" fill="#FAFAFA"/>
<path d="M117.868 75.3027H116.656V76.5122H117.868V75.3027Z" fill="#FAFAFA"/>
<path d="M117.868 77.3325H116.656V78.542H117.868V77.3325Z" fill="#FAFAFA"/>
<path d="M117.868 79.3552H116.656V80.5647H117.868V79.3552Z" fill="#FAFAFA"/>
<path d="M117.868 81.385H116.656V82.5945H117.868V81.385Z" fill="#FAFAFA"/>
<path d="M117.868 83.4146H116.656V84.624H117.868V83.4146Z" fill="#FAFAFA"/>
<path d="M117.868 85.4373H116.656V86.6467H117.868V85.4373Z" fill="#FAFAFA"/>
<path d="M117.868 87.467H116.656V88.6765H117.868V87.467Z" fill="#FAFAFA"/>
<path d="M117.868 89.4897H116.656V90.6992H117.868V89.4897Z" fill="#FAFAFA"/>
<path d="M117.868 91.5193H116.656V92.7288H117.868V91.5193Z" fill="#FAFAFA"/>
<path d="M117.868 97.6016H116.656V98.811H117.868V97.6016Z" fill="#FAFAFA"/>
<path d="M117.868 99.6243H116.656V100.834H117.868V99.6243Z" fill="#FAFAFA"/>
<path d="M117.868 101.654H116.656V102.863H117.868V101.654Z" fill="#FAFAFA"/>
<path d="M117.868 103.684H116.656V104.893H117.868V103.684Z" fill="#FAFAFA"/>
<path d="M119.789 73.28H118.578V74.4895H119.789V73.28Z" fill="#FAFAFA"/>
<path d="M119.789 75.3027H118.578V76.5122H119.789V75.3027Z" fill="#FAFAFA"/>
<path d="M119.789 77.3325H118.578V78.542H119.789V77.3325Z" fill="#FAFAFA"/>
<path d="M119.789 79.3552H118.578V80.5647H119.789V79.3552Z" fill="#FAFAFA"/>
<path d="M119.789 81.385H118.578V82.5945H119.789V81.385Z" fill="#FAFAFA"/>
<path d="M119.789 83.4146H118.578V84.624H119.789V83.4146Z" fill="#FAFAFA"/>
<path d="M119.789 85.4373H118.578V86.6467H119.789V85.4373Z" fill="#FAFAFA"/>
<path d="M119.789 87.467H118.578V88.6765H119.789V87.467Z" fill="#FAFAFA"/>
<path d="M119.789 89.4897H118.578V90.6992H119.789V89.4897Z" fill="#FAFAFA"/>
<path d="M119.789 91.5193H118.578V92.7288H119.789V91.5193Z" fill="#FAFAFA"/>
<path d="M119.789 97.6016H118.578V98.811H119.789V97.6016Z" fill="#FAFAFA"/>
<path d="M119.789 99.6243H118.578V100.834H119.789V99.6243Z" fill="#FAFAFA"/>
<path d="M119.789 101.654H118.578V102.863H119.789V101.654Z" fill="#FAFAFA"/>
<path d="M141.434 68.0112H140.223V69.2207H141.434V68.0112Z" fill="#FAFAFA"/>
<path d="M141.434 70.041H140.223V71.2505H141.434V70.041Z" fill="#FAFAFA"/>
<path d="M141.434 72.0706H140.223V73.28H141.434V72.0706Z" fill="#FAFAFA"/>
<path d="M141.434 74.0933H140.223V75.3027H141.434V74.0933Z" fill="#FAFAFA"/>
<path d="M141.434 76.123H140.223V77.3325H141.434V76.123Z" fill="#FAFAFA"/>
<path d="M141.434 78.1458H140.223V79.3552H141.434V78.1458Z" fill="#FAFAFA"/>
<path d="M141.434 80.1755H140.223V81.385H141.434V80.1755Z" fill="#FAFAFA"/>
<path d="M141.434 82.2051H140.223V83.4146H141.434V82.2051Z" fill="#FAFAFA"/>
<path d="M141.434 88.2803H140.223V89.4897H141.434V88.2803Z" fill="#FAFAFA"/>
<path d="M141.434 90.3098H140.223V91.5193H141.434V90.3098Z" fill="#FAFAFA"/>
<path d="M143.362 68.0112H142.151V69.2207H143.362V68.0112Z" fill="#FAFAFA"/>
<path d="M143.362 70.041H142.151V71.2505H143.362V70.041Z" fill="#FAFAFA"/>
<path d="M143.362 72.0706H142.151V73.28H143.362V72.0706Z" fill="#FAFAFA"/>
<path d="M143.362 74.0933H142.151V75.3027H143.362V74.0933Z" fill="#FAFAFA"/>
<path d="M143.362 76.123H142.151V77.3325H143.362V76.123Z" fill="#FAFAFA"/>
<path d="M143.362 78.1458H142.151V79.3552H143.362V78.1458Z" fill="#FAFAFA"/>
<path d="M143.362 80.1755H142.151V81.385H143.362V80.1755Z" fill="#FAFAFA"/>
<path d="M143.362 82.2051H142.151V83.4146H143.362V82.2051Z" fill="#FAFAFA"/>
<path d="M143.362 90.3098H142.151V91.5193H143.362V90.3098Z" fill="#FAFAFA"/>
<path d="M145.283 68.0112H144.072V69.2207H145.283V68.0112Z" fill="#FAFAFA"/>
<path d="M145.283 70.041H144.072V71.2505H145.283V70.041Z" fill="#FAFAFA"/>
<path d="M145.283 72.0706H144.072V73.28H145.283V72.0706Z" fill="#FAFAFA"/>
<path d="M145.283 74.0933H144.072V75.3027H145.283V74.0933Z" fill="#FAFAFA"/>
<path d="M145.283 76.123H144.072V77.3325H145.283V76.123Z" fill="#FAFAFA"/>
<path d="M145.283 78.1458H144.072V79.3552H145.283V78.1458Z" fill="#FAFAFA"/>
<path d="M145.283 80.1755H144.072V81.385H145.283V80.1755Z" fill="#FAFAFA"/>
<path d="M145.283 82.2051H144.072V83.4146H145.283V82.2051Z" fill="#FAFAFA"/>
<path d="M147.204 68.0112H145.993V69.2207H147.204V68.0112Z" fill="#FAFAFA"/>
<path d="M147.204 70.041H145.993V71.2505H147.204V70.041Z" fill="#FAFAFA"/>
<path d="M147.204 72.0706H145.993V73.28H147.204V72.0706Z" fill="#FAFAFA"/>
<path d="M147.204 74.0933H145.993V75.3027H147.204V74.0933Z" fill="#FAFAFA"/>
<path d="M147.204 76.123H145.993V77.3325H147.204V76.123Z" fill="#FAFAFA"/>
<path d="M147.204 78.1458H145.993V79.3552H147.204V78.1458Z" fill="#FAFAFA"/>
<path d="M147.204 82.2051H145.993V83.4146H147.204V82.2051Z" fill="#FAFAFA"/>
<path d="M147.204 84.2278H145.993V85.4373H147.204V84.2278Z" fill="#FAFAFA"/>
<path d="M147.204 90.3098H145.993V91.5193H147.204V90.3098Z" fill="#FAFAFA"/>
<path d="M147.204 92.3396H145.993V93.5491H147.204V92.3396Z" fill="#FAFAFA"/>
<path d="M147.204 94.3623H145.993V95.5718H147.204V94.3623Z" fill="#FAFAFA"/>
<path d="M147.204 96.3921H145.993V97.6016H147.204V96.3921Z" fill="#FAFAFA"/>
<path d="M147.204 98.4216H145.993V99.6311H147.204V98.4216Z" fill="#FAFAFA"/>
<path d="M147.204 100.444H145.993V101.654H147.204V100.444Z" fill="#FAFAFA"/>
<path d="M147.204 102.474H145.993V103.684H147.204V102.474Z" fill="#FAFAFA"/>
<path d="M149.125 68.0112H147.914V69.2207H149.125V68.0112Z" fill="#FAFAFA"/>
<path d="M149.125 70.041H147.914V71.2505H149.125V70.041Z" fill="#FAFAFA"/>
<path d="M149.125 72.0706H147.914V73.28H149.125V72.0706Z" fill="#FAFAFA"/>
<path d="M149.125 74.0933H147.914V75.3027H149.125V74.0933Z" fill="#FAFAFA"/>
<path d="M149.125 76.123H147.914V77.3325H149.125V76.123Z" fill="#FAFAFA"/>
<path d="M149.125 78.1458H147.914V79.3552H149.125V78.1458Z" fill="#FAFAFA"/>
<path d="M149.125 84.2278H147.914V85.4373H149.125V84.2278Z" fill="#FAFAFA"/>
<path d="M149.125 86.2576H147.914V87.467H149.125V86.2576Z" fill="#FAFAFA"/>
<path d="M149.125 88.2803H147.914V89.4897H149.125V88.2803Z" fill="#FAFAFA"/>
<path d="M149.125 90.3098H147.914V91.5193H149.125V90.3098Z" fill="#FAFAFA"/>
<path d="M149.125 92.3396H147.914V93.5491H149.125V92.3396Z" fill="#FAFAFA"/>
<path d="M149.125 94.3623H147.914V95.5718H149.125V94.3623Z" fill="#FAFAFA"/>
<path d="M149.125 96.3921H147.914V97.6016H149.125V96.3921Z" fill="#FAFAFA"/>
<path d="M149.125 98.4216H147.914V99.6311H149.125V98.4216Z" fill="#FAFAFA"/>
<path d="M149.125 100.444H147.914V101.654H149.125V100.444Z" fill="#FAFAFA"/>
<path d="M149.125 102.474H147.914V103.684H149.125V102.474Z" fill="#FAFAFA"/>
<path d="M149.125 104.497H147.914V105.706H149.125V104.497Z" fill="#FAFAFA"/>
<path d="M149.125 108.556H147.914V109.766H149.125V108.556Z" fill="#FAFAFA"/>
<path d="M151.053 68.0112H149.842V69.2207H151.053V68.0112Z" fill="#FAFAFA"/>
<path d="M151.053 70.041H149.842V71.2505H151.053V70.041Z" fill="#FAFAFA"/>
<path d="M151.053 72.0706H149.842V73.28H151.053V72.0706Z" fill="#FAFAFA"/>
<path d="M151.053 74.0933H149.842V75.3027H151.053V74.0933Z" fill="#FAFAFA"/>
<path d="M151.053 76.123H149.842V77.3325H151.053V76.123Z" fill="#FAFAFA"/>
<path d="M151.053 78.1458H149.842V79.3552H151.053V78.1458Z" fill="#FAFAFA"/>
<path d="M151.053 84.2278H149.842V85.4373H151.053V84.2278Z" fill="#FAFAFA"/>
<path d="M151.053 86.2576H149.842V87.467H151.053V86.2576Z" fill="#FAFAFA"/>
<path d="M151.053 88.2803H149.842V89.4897H151.053V88.2803Z" fill="#FAFAFA"/>
<path d="M151.053 90.3098H149.842V91.5193H151.053V90.3098Z" fill="#FAFAFA"/>
<path d="M151.053 96.3921H149.842V97.6016H151.053V96.3921Z" fill="#FAFAFA"/>
<path d="M151.053 98.4216H149.842V99.6311H151.053V98.4216Z" fill="#FAFAFA"/>
<path d="M151.053 100.444H149.842V101.654H151.053V100.444Z" fill="#FAFAFA"/>
<path d="M151.053 102.474H149.842V103.684H151.053V102.474Z" fill="#FAFAFA"/>
<path d="M151.053 104.497H149.842V105.706H151.053V104.497Z" fill="#FAFAFA"/>
<path d="M151.053 108.556H149.842V109.766H151.053V108.556Z" fill="#FAFAFA"/>
<path d="M151.053 110.579H149.842V111.788H151.053V110.579Z" fill="#FAFAFA"/>
<path d="M168.495 86.8623H167.284V88.0718H168.495V86.8623Z" fill="#FAFAFA"/>
<path d="M168.495 88.885H167.284V90.0945H168.495V88.885Z" fill="#FAFAFA"/>
<path d="M168.495 90.9146H167.284V92.124H168.495V90.9146Z" fill="#FAFAFA"/>
<path d="M168.495 92.9443H167.284V94.1538H168.495V92.9443Z" fill="#FAFAFA"/>
<path d="M168.495 94.967H167.284V96.1765H168.495V94.967Z" fill="#FAFAFA"/>
<path d="M168.495 96.9968H167.284V98.2063H168.495V96.9968Z" fill="#FAFAFA"/>
<path d="M168.495 99.0195H167.284V100.229H168.495V99.0195Z" fill="#FAFAFA"/>
<path d="M168.495 105.102H167.284V106.311H168.495V105.102Z" fill="#FAFAFA"/>
<path d="M168.495 107.131H167.284V108.341H168.495V107.131Z" fill="#FAFAFA"/>
<path d="M168.495 109.161H167.284V110.37H168.495V109.161Z" fill="#FAFAFA"/>
<path d="M170.422 86.8623H169.211V88.0718H170.422V86.8623Z" fill="#FAFAFA"/>
<path d="M170.422 88.885H169.211V90.0945H170.422V88.885Z" fill="#FAFAFA"/>
<path d="M170.422 90.9146H169.211V92.124H170.422V90.9146Z" fill="#FAFAFA"/>
<path d="M170.422 92.9443H169.211V94.1538H170.422V92.9443Z" fill="#FAFAFA"/>
<path d="M170.422 94.967H169.211V96.1765H170.422V94.967Z" fill="#FAFAFA"/>
<path d="M170.422 96.9968H169.211V98.2063H170.422V96.9968Z" fill="#FAFAFA"/>
<path d="M170.422 99.0195H169.211V100.229H170.422V99.0195Z" fill="#FAFAFA"/>
<path d="M172.872 86.8623H171.132V88.0718H172.872V86.8623Z" fill="#FAFAFA"/>
<path d="M172.872 88.885H171.132V90.0945H172.872V88.885Z" fill="#FAFAFA"/>
<path d="M172.872 90.9146H171.132V92.124H172.872V90.9146Z" fill="#FAFAFA"/>
<path d="M172.872 92.9443H171.132V94.1538H172.872V92.9443Z" fill="#FAFAFA"/>
<path d="M172.872 94.967H171.132V96.1765H172.872V94.967Z" fill="#FAFAFA"/>
<path d="M172.872 96.9968H171.132V98.2063H172.872V96.9968Z" fill="#FAFAFA"/>
<path d="M172.872 99.0195H171.132V100.229H172.872V99.0195Z" fill="#FAFAFA"/>
<path d="M66.5932 89.4897H65.3822V90.6992H66.5932V89.4897Z" fill="#FAFAFA"/>
<path d="M66.5932 91.5193H65.3822V92.7288H66.5932V91.5193Z" fill="#FAFAFA"/>
<path d="M66.5932 93.5491H65.3822V94.7585H66.5932V93.5491Z" fill="#FAFAFA"/>
<path d="M66.5932 95.5718H65.3822V96.7812H66.5932V95.5718Z" fill="#FAFAFA"/>
<path d="M66.5932 97.6016H65.3822V98.811H66.5932V97.6016Z" fill="#FAFAFA"/>
<path d="M66.5932 99.6243H65.3822V100.834H66.5932V99.6243Z" fill="#FAFAFA"/>
<path d="M66.5932 101.654H65.3822V102.863H66.5932V101.654Z" fill="#FAFAFA"/>
<path d="M66.5932 103.684H65.3822V104.893H66.5932V103.684Z" fill="#FAFAFA"/>
<path d="M66.5932 105.706H65.3822V106.916H66.5932V105.706Z" fill="#FAFAFA"/>
<path d="M66.5932 107.736H65.3822V108.946H66.5932V107.736Z" fill="#FAFAFA"/>
<path d="M66.5932 109.759H65.3822V110.968H66.5932V109.759Z" fill="#FAFAFA"/>
<path d="M66.5932 111.788H65.3822V112.998H66.5932V111.788Z" fill="#FAFAFA"/>
<path d="M66.5932 113.818H65.3822V115.028H66.5932V113.818Z" fill="#FAFAFA"/>
<path d="M66.5932 115.841H65.3822V117.05H66.5932V115.841Z" fill="#FAFAFA"/>
<path d="M66.5932 117.871H65.3822V119.08H66.5932V117.871Z" fill="#FAFAFA"/>
<path d="M66.5932 119.9H65.3822V121.11H66.5932V119.9Z" fill="#FAFAFA"/>
<path d="M66.5932 121.923H65.3822V123.132H66.5932V121.923Z" fill="#FAFAFA"/>
<path d="M66.5932 123.953H65.3822V125.162H66.5932V123.953Z" fill="#FAFAFA"/>
<path d="M66.5932 125.975H65.3822V127.185H66.5932V125.975Z" fill="#FAFAFA"/>
<path d="M66.5932 128.005H65.3822V129.215H66.5932V128.005Z" fill="#FAFAFA"/>
<path d="M68.5141 89.4897H67.3031V90.6992H68.5141V89.4897Z" fill="#FAFAFA"/>
<path d="M68.5141 91.5193H67.3031V92.7288H68.5141V91.5193Z" fill="#FAFAFA"/>
<path d="M68.5141 93.5491H67.3031V94.7585H68.5141V93.5491Z" fill="#FAFAFA"/>
<path d="M68.5141 95.5718H67.3031V96.7812H68.5141V95.5718Z" fill="#FAFAFA"/>
<path d="M68.5141 97.6016H67.3031V98.811H68.5141V97.6016Z" fill="#FAFAFA"/>
<path d="M68.5141 99.6243H67.3031V100.834H68.5141V99.6243Z" fill="#FAFAFA"/>
<path d="M68.5141 101.654H67.3031V102.863H68.5141V101.654Z" fill="#FAFAFA"/>
<path d="M68.5141 103.684H67.3031V104.893H68.5141V103.684Z" fill="#FAFAFA"/>
<path d="M68.5141 105.706H67.3031V106.916H68.5141V105.706Z" fill="#FAFAFA"/>
<path d="M68.5141 107.736H67.3031V108.946H68.5141V107.736Z" fill="#FAFAFA"/>
<path d="M68.5141 109.759H67.3031V110.968H68.5141V109.759Z" fill="#FAFAFA"/>
<path d="M68.5141 111.788H67.3031V112.998H68.5141V111.788Z" fill="#FAFAFA"/>
<path d="M68.5141 113.818H67.3031V115.028H68.5141V113.818Z" fill="#FAFAFA"/>
<path d="M68.5141 115.841H67.3031V117.05H68.5141V115.841Z" fill="#FAFAFA"/>
<path d="M68.5141 117.871H67.3031V119.08H68.5141V117.871Z" fill="#FAFAFA"/>
<path d="M68.5141 119.9H67.3031V121.11H68.5141V119.9Z" fill="#FAFAFA"/>
<path d="M68.5141 121.923H67.3031V123.132H68.5141V121.923Z" fill="#FAFAFA"/>
<path d="M68.5141 123.953H67.3031V125.162H68.5141V123.953Z" fill="#FAFAFA"/>
<path d="M70.4352 89.4897H69.2241V90.6992H70.4352V89.4897Z" fill="#FAFAFA"/>
<path d="M70.4352 91.5193H69.2241V92.7288H70.4352V91.5193Z" fill="#FAFAFA"/>
<path d="M70.4352 93.5491H69.2241V94.7585H70.4352V93.5491Z" fill="#FAFAFA"/>
<path d="M70.4352 95.5718H69.2241V96.7812H70.4352V95.5718Z" fill="#FAFAFA"/>
<path d="M70.4352 97.6016H69.2241V98.811H70.4352V97.6016Z" fill="#FAFAFA"/>
<path d="M70.4352 99.6243H69.2241V100.834H70.4352V99.6243Z" fill="#FAFAFA"/>
<path d="M70.4352 101.654H69.2241V102.863H70.4352V101.654Z" fill="#FAFAFA"/>
<path d="M70.4352 103.684H69.2241V104.893H70.4352V103.684Z" fill="#FAFAFA"/>
<path d="M70.4352 105.706H69.2241V106.916H70.4352V105.706Z" fill="#FAFAFA"/>
<path d="M70.4352 107.736H69.2241V108.946H70.4352V107.736Z" fill="#FAFAFA"/>
<path d="M70.4352 109.759H69.2241V110.968H70.4352V109.759Z" fill="#FAFAFA"/>
<path d="M70.4352 111.788H69.2241V112.998H70.4352V111.788Z" fill="#FAFAFA"/>
<path d="M70.4352 113.818H69.2241V115.028H70.4352V113.818Z" fill="#FAFAFA"/>
<path d="M70.4352 115.841H69.2241V117.05H70.4352V115.841Z" fill="#FAFAFA"/>
<path d="M70.4352 117.871H69.2241V119.08H70.4352V117.871Z" fill="#FAFAFA"/>
<path d="M70.4352 119.9H69.2241V121.11H70.4352V119.9Z" fill="#FAFAFA"/>
<path d="M70.4352 121.923H69.2241V123.132H70.4352V121.923Z" fill="#FAFAFA"/>
<path d="M70.4352 123.953H69.2241V125.162H70.4352V123.953Z" fill="#FAFAFA"/>
<path d="M59.3966 104.288H58.1855V105.498H59.3966V104.288Z" fill="#FAFAFA"/>
<path d="M59.3966 106.311H58.1855V107.521H59.3966V106.311Z" fill="#FAFAFA"/>
<path d="M59.3966 108.341H58.1855V109.55H59.3966V108.341Z" fill="#FAFAFA"/>
<path d="M59.3966 110.364H58.1855V111.573H59.3966V110.364Z" fill="#FAFAFA"/>
<path d="M59.3966 112.393H58.1855V113.603H59.3966V112.393Z" fill="#FAFAFA"/>
<path d="M59.3966 114.423H58.1855V115.632H59.3966V114.423Z" fill="#FAFAFA"/>
<path d="M59.3966 116.446H58.1855V117.655H59.3966V116.446Z" fill="#FAFAFA"/>
<path d="M59.3966 118.475H58.1855V119.685H59.3966V118.475Z" fill="#FAFAFA"/>
<path d="M59.3966 120.498H58.1855V121.708H59.3966V120.498Z" fill="#FAFAFA"/>
<path d="M59.3966 122.528H58.1855V123.737H59.3966V122.528Z" fill="#FAFAFA"/>
<path d="M59.3966 124.557H58.1855V125.767H59.3966V124.557Z" fill="#FAFAFA"/>
<path d="M59.3966 126.58H58.1855V127.79H59.3966V126.58Z" fill="#FAFAFA"/>
<path d="M59.3966 128.61H58.1855V129.819H59.3966V128.61Z" fill="#FAFAFA"/>
<path d="M61.3176 104.288H60.1066V105.498H61.3176V104.288Z" fill="#FAFAFA"/>
<path d="M61.3176 106.311H60.1066V107.521H61.3176V106.311Z" fill="#FAFAFA"/>
<path d="M61.3176 108.341H60.1066V109.55H61.3176V108.341Z" fill="#FAFAFA"/>
<path d="M61.3176 110.364H60.1066V111.573H61.3176V110.364Z" fill="#FAFAFA"/>
<path d="M61.3176 112.393H60.1066V113.603H61.3176V112.393Z" fill="#FAFAFA"/>
<path d="M61.3176 114.423H60.1066V115.632H61.3176V114.423Z" fill="#FAFAFA"/>
<path d="M61.3176 116.446H60.1066V117.655H61.3176V116.446Z" fill="#FAFAFA"/>
<path d="M61.3176 118.475H60.1066V119.685H61.3176V118.475Z" fill="#FAFAFA"/>
<path d="M61.3176 120.498H60.1066V121.708H61.3176V120.498Z" fill="#FAFAFA"/>
<path d="M61.3176 122.528H60.1066V123.737H61.3176V122.528Z" fill="#FAFAFA"/>
<path d="M61.3176 124.557H60.1066V125.767H61.3176V124.557Z" fill="#FAFAFA"/>
<path d="M61.3176 126.58H60.1066V127.79H61.3176V126.58Z" fill="#FAFAFA"/>
<path d="M61.3176 128.61H60.1066V129.819H61.3176V128.61Z" fill="#FAFAFA"/>
<path d="M63.2455 104.288H62.0344V105.498H63.2455V104.288Z" fill="#FAFAFA"/>
<path d="M63.2455 106.311H62.0344V107.521H63.2455V106.311Z" fill="#FAFAFA"/>
<path d="M63.2455 108.341H62.0344V109.55H63.2455V108.341Z" fill="#FAFAFA"/>
<path d="M63.2455 110.364H62.0344V111.573H63.2455V110.364Z" fill="#FAFAFA"/>
<path d="M63.2455 112.393H62.0344V113.603H63.2455V112.393Z" fill="#FAFAFA"/>
<path d="M63.2455 114.423H62.0344V115.632H63.2455V114.423Z" fill="#FAFAFA"/>
<path d="M63.2455 116.446H62.0344V117.655H63.2455V116.446Z" fill="#FAFAFA"/>
<path d="M63.2455 118.475H62.0344V119.685H63.2455V118.475Z" fill="#FAFAFA"/>
<path d="M63.2455 120.498H62.0344V121.708H63.2455V120.498Z" fill="#FAFAFA"/>
<path d="M63.2455 122.528H62.0344V123.737H63.2455V122.528Z" fill="#FAFAFA"/>
<path d="M63.2455 124.557H62.0344V125.767H63.2455V124.557Z" fill="#FAFAFA"/>
<path d="M63.2455 126.58H62.0344V127.79H63.2455V126.58Z" fill="#FAFAFA"/>
<path d="M63.2455 128.61H62.0344V129.819H63.2455V128.61Z" fill="#FAFAFA"/>
<path d="M63.2455 130.639H62.0344V131.849H63.2455V130.639Z" fill="#FAFAFA"/>
<path d="M73.9291 104.893H72.718V106.103H73.9291V104.893Z" fill="#FAFAFA"/>
<path d="M73.9291 106.916H72.718V108.125H73.9291V106.916Z" fill="#FAFAFA"/>
<path d="M73.9291 108.946H72.718V110.155H73.9291V108.946Z" fill="#FAFAFA"/>
<path d="M73.9291 110.968H72.718V112.178H73.9291V110.968Z" fill="#FAFAFA"/>
<path d="M73.9291 112.998H72.718V114.207H73.9291V112.998Z" fill="#FAFAFA"/>
<path d="M73.9291 115.028H72.718V116.237H73.9291V115.028Z" fill="#FAFAFA"/>
<path d="M73.9291 117.05H72.718V118.26H73.9291V117.05Z" fill="#FAFAFA"/>
<path d="M73.9291 119.08H72.718V120.29H73.9291V119.08Z" fill="#FAFAFA"/>
<path d="M73.9291 121.103H72.718V122.312H73.9291V121.103Z" fill="#FAFAFA"/>
<path d="M73.9291 123.132H72.718V124.342H73.9291V123.132Z" fill="#FAFAFA"/>
<path d="M73.9291 129.215H72.718V130.424H73.9291V129.215Z" fill="#FAFAFA"/>
<path d="M75.8501 104.893H74.639V106.103H75.8501V104.893Z" fill="#FAFAFA"/>
<path d="M75.8501 106.916H74.639V108.125H75.8501V106.916Z" fill="#FAFAFA"/>
<path d="M75.8501 108.946H74.639V110.155H75.8501V108.946Z" fill="#FAFAFA"/>
<path d="M75.8501 110.968H74.639V112.178H75.8501V110.968Z" fill="#FAFAFA"/>
<path d="M75.8501 112.998H74.639V114.207H75.8501V112.998Z" fill="#FAFAFA"/>
<path d="M75.8501 115.028H74.639V116.237H75.8501V115.028Z" fill="#FAFAFA"/>
<path d="M75.8501 117.05H74.639V118.26H75.8501V117.05Z" fill="#FAFAFA"/>
<path d="M75.8501 119.08H74.639V120.29H75.8501V119.08Z" fill="#FAFAFA"/>
<path d="M75.8501 121.103H74.639V122.312H75.8501V121.103Z" fill="#FAFAFA"/>
<path d="M75.8501 127.185H74.639V128.394H75.8501V127.185Z" fill="#FAFAFA"/>
<path d="M75.8501 129.215H74.639V130.424H75.8501V129.215Z" fill="#FAFAFA"/>
<path d="M77.771 104.893H76.5599V106.103H77.771V104.893Z" fill="#FAFAFA"/>
<path d="M77.771 106.916H76.5599V108.125H77.771V106.916Z" fill="#FAFAFA"/>
<path d="M77.771 108.946H76.5599V110.155H77.771V108.946Z" fill="#FAFAFA"/>
<path d="M77.771 110.968H76.5599V112.178H77.771V110.968Z" fill="#FAFAFA"/>
<path d="M77.771 112.998H76.5599V114.207H77.771V112.998Z" fill="#FAFAFA"/>
<path d="M77.771 115.028H76.5599V116.237H77.771V115.028Z" fill="#FAFAFA"/>
<path d="M77.771 117.05H76.5599V118.26H77.771V117.05Z" fill="#FAFAFA"/>
<path d="M77.771 119.08H76.5599V120.29H77.771V119.08Z" fill="#FAFAFA"/>
<path d="M77.771 125.162H76.5599V126.372H77.771V125.162Z" fill="#FAFAFA"/>
<path d="M77.771 127.185H76.5599V128.394H77.771V127.185Z" fill="#FAFAFA"/>
<path d="M77.771 129.215H76.5599V130.424H77.771V129.215Z" fill="#FAFAFA"/>
<path d="M95.6443 74.0933H94.4332V75.3027H95.6443V74.0933Z" fill="#FAFAFA"/>
<path d="M95.6443 76.123H94.4332V77.3325H95.6443V76.123Z" fill="#FAFAFA"/>
<path d="M95.6443 78.1458H94.4332V79.3552H95.6443V78.1458Z" fill="#FAFAFA"/>
<path d="M95.6443 80.1755H94.4332V81.385H95.6443V80.1755Z" fill="#FAFAFA"/>
<path d="M95.6443 82.2051H94.4332V83.4146H95.6443V82.2051Z" fill="#FAFAFA"/>
<path d="M95.6443 84.2278H94.4332V85.4373H95.6443V84.2278Z" fill="#FAFAFA"/>
<path d="M95.6443 86.2576H94.4332V87.467H95.6443V86.2576Z" fill="#FAFAFA"/>
<path d="M95.6443 88.2803H94.4332V89.4897H95.6443V88.2803Z" fill="#FAFAFA"/>
<path d="M95.6443 90.3098H94.4332V91.5193H95.6443V90.3098Z" fill="#FAFAFA"/>
<path d="M95.6443 92.3396H94.4332V93.5491H95.6443V92.3396Z" fill="#FAFAFA"/>
<path d="M95.6443 94.3623H94.4332V95.5718H95.6443V94.3623Z" fill="#FAFAFA"/>
<path d="M95.6443 96.3921H94.4332V97.6016H95.6443V96.3921Z" fill="#FAFAFA"/>
<path d="M95.6443 98.4216H94.4332V99.6311H95.6443V98.4216Z" fill="#FAFAFA"/>
<path d="M95.6443 100.444H94.4332V101.654H95.6443V100.444Z" fill="#FAFAFA"/>
<path d="M95.6443 102.474H94.4332V103.684H95.6443V102.474Z" fill="#FAFAFA"/>
<path d="M95.6443 104.497H94.4332V105.706H95.6443V104.497Z" fill="#FAFAFA"/>
<path d="M95.6443 106.527H94.4332V107.736H95.6443V106.527Z" fill="#FAFAFA"/>
<path d="M95.6443 110.579H94.4332V111.788H95.6443V110.579Z" fill="#FAFAFA"/>
<path d="M95.6443 112.609H94.4332V113.818H95.6443V112.609Z" fill="#FAFAFA"/>
<path d="M95.6443 114.631H94.4332V115.841H95.6443V114.631Z" fill="#FAFAFA"/>
<path d="M95.6443 116.661H94.4332V117.871H95.6443V116.661Z" fill="#FAFAFA"/>
<path d="M95.6443 118.691H94.4332V119.9H95.6443V118.691Z" fill="#FAFAFA"/>
<path d="M97.5653 74.0933H96.3542V75.3027H97.5653V74.0933Z" fill="#FAFAFA"/>
<path d="M97.5653 76.123H96.3542V77.3325H97.5653V76.123Z" fill="#FAFAFA"/>
<path d="M97.5653 78.1458H96.3542V79.3552H97.5653V78.1458Z" fill="#FAFAFA"/>
<path d="M97.5653 80.1755H96.3542V81.385H97.5653V80.1755Z" fill="#FAFAFA"/>
<path d="M97.5653 82.2051H96.3542V83.4146H97.5653V82.2051Z" fill="#FAFAFA"/>
<path d="M97.5653 84.2278H96.3542V85.4373H97.5653V84.2278Z" fill="#FAFAFA"/>
<path d="M97.5653 86.2576H96.3542V87.467H97.5653V86.2576Z" fill="#FAFAFA"/>
<path d="M97.5653 88.2803H96.3542V89.4897H97.5653V88.2803Z" fill="#FAFAFA"/>
<path d="M97.5653 90.3098H96.3542V91.5193H97.5653V90.3098Z" fill="#FAFAFA"/>
<path d="M97.5653 92.3396H96.3542V93.5491H97.5653V92.3396Z" fill="#FAFAFA"/>
<path d="M97.5653 94.3623H96.3542V95.5718H97.5653V94.3623Z" fill="#FAFAFA"/>
<path d="M97.5653 96.3921H96.3542V97.6016H97.5653V96.3921Z" fill="#FAFAFA"/>
<path d="M97.5653 98.4216H96.3542V99.6311H97.5653V98.4216Z" fill="#FAFAFA"/>
<path d="M97.5653 100.444H96.3542V101.654H97.5653V100.444Z" fill="#FAFAFA"/>
<path d="M97.5653 102.474H96.3542V103.684H97.5653V102.474Z" fill="#FAFAFA"/>
<path d="M97.5653 104.497H96.3542V105.706H97.5653V104.497Z" fill="#FAFAFA"/>
<path d="M97.5653 116.661H96.3542V117.871H97.5653V116.661Z" fill="#FAFAFA"/>
<path d="M97.5653 118.691H96.3542V119.9H97.5653V118.691Z" fill="#FAFAFA"/>
<path d="M99.4931 74.0933H98.2821V75.3027H99.4931V74.0933Z" fill="#FAFAFA"/>
<path d="M99.4931 76.123H98.2821V77.3325H99.4931V76.123Z" fill="#FAFAFA"/>
<path d="M99.4931 78.1458H98.2821V79.3552H99.4931V78.1458Z" fill="#FAFAFA"/>
<path d="M99.4931 80.1755H98.2821V81.385H99.4931V80.1755Z" fill="#FAFAFA"/>
<path d="M99.4931 82.2051H98.2821V83.4146H99.4931V82.2051Z" fill="#FAFAFA"/>
<path d="M99.4931 84.2278H98.2821V85.4373H99.4931V84.2278Z" fill="#FAFAFA"/>
<path d="M99.4931 86.2576H98.2821V87.467H99.4931V86.2576Z" fill="#FAFAFA"/>
<path d="M99.4931 88.2803H98.2821V89.4897H99.4931V88.2803Z" fill="#FAFAFA"/>
<path d="M99.4931 90.3098H98.2821V91.5193H99.4931V90.3098Z" fill="#FAFAFA"/>
<path d="M99.4931 92.3396H98.2821V93.5491H99.4931V92.3396Z" fill="#FAFAFA"/>
<path d="M99.4931 94.3623H98.2821V95.5718H99.4931V94.3623Z" fill="#FAFAFA"/>
<path d="M99.4931 96.3921H98.2821V97.6016H99.4931V96.3921Z" fill="#FAFAFA"/>
<path d="M99.4931 98.4216H98.2821V99.6311H99.4931V98.4216Z" fill="#FAFAFA"/>
<path d="M99.4931 100.444H98.2821V101.654H99.4931V100.444Z" fill="#FAFAFA"/>
<path d="M99.4931 102.474H98.2821V103.684H99.4931V102.474Z" fill="#FAFAFA"/>
<path d="M99.4931 104.497H98.2821V105.706H99.4931V104.497Z" fill="#FAFAFA"/>
<path d="M99.4931 108.556H98.2821V109.766H99.4931V108.556Z" fill="#FAFAFA"/>
<path d="M99.4931 110.579H98.2821V111.788H99.4931V110.579Z" fill="#FAFAFA"/>
<path d="M99.4931 112.609H98.2821V113.818H99.4931V112.609Z" fill="#FAFAFA"/>
<path d="M99.4931 114.631H98.2821V115.841H99.4931V114.631Z" fill="#FAFAFA"/>
<path d="M99.4931 118.691H98.2821V119.9H99.4931V118.691Z" fill="#FAFAFA"/>
<path d="M88.6634 99.6243H87.4524V100.834H88.6634V99.6243Z" fill="#FAFAFA"/>
<path d="M88.6634 101.654H87.4524V102.863H88.6634V101.654Z" fill="#FAFAFA"/>
<path d="M88.6634 103.684H87.4524V104.893H88.6634V103.684Z" fill="#FAFAFA"/>
<path d="M88.6634 105.706H87.4524V106.916H88.6634V105.706Z" fill="#FAFAFA"/>
<path d="M88.6634 107.736H87.4524V108.946H88.6634V107.736Z" fill="#FAFAFA"/>
<path d="M88.6634 109.759H87.4524V110.968H88.6634V109.759Z" fill="#FAFAFA"/>
<path d="M88.6634 111.788H87.4524V112.998H88.6634V111.788Z" fill="#FAFAFA"/>
<path d="M88.6634 115.841H87.4524V117.05H88.6634V115.841Z" fill="#FAFAFA"/>
<path d="M88.6634 117.871H87.4524V119.08H88.6634V117.871Z" fill="#FAFAFA"/>
<path d="M88.6634 119.9H87.4524V121.11H88.6634V119.9Z" fill="#FAFAFA"/>
<path d="M88.6634 121.923H87.4524V123.132H88.6634V121.923Z" fill="#FAFAFA"/>
<path d="M88.6634 123.953H87.4524V125.162H88.6634V123.953Z" fill="#FAFAFA"/>
<path d="M88.6634 125.975H87.4524V127.185H88.6634V125.975Z" fill="#FAFAFA"/>
<path d="M88.6634 128.005H87.4524V129.215H88.6634V128.005Z" fill="#FAFAFA"/>
<path d="M88.6634 130.035H87.4524V131.244H88.6634V130.035Z" fill="#FAFAFA"/>
<path d="M90.5913 99.6243H89.3802V100.834H90.5913V99.6243Z" fill="#FAFAFA"/>
<path d="M90.5913 101.654H89.3802V102.863H90.5913V101.654Z" fill="#FAFAFA"/>
<path d="M90.5913 103.684H89.3802V104.893H90.5913V103.684Z" fill="#FAFAFA"/>
<path d="M90.5913 105.706H89.3802V106.916H90.5913V105.706Z" fill="#FAFAFA"/>
<path d="M90.5913 107.736H89.3802V108.946H90.5913V107.736Z" fill="#FAFAFA"/>
<path d="M90.5913 109.759H89.3802V110.968H90.5913V109.759Z" fill="#FAFAFA"/>
<path d="M90.5913 115.841H89.3802V117.05H90.5913V115.841Z" fill="#FAFAFA"/>
<path d="M90.5913 117.871H89.3802V119.08H90.5913V117.871Z" fill="#FAFAFA"/>
<path d="M90.5913 119.9H89.3802V121.11H90.5913V119.9Z" fill="#FAFAFA"/>
<path d="M90.5913 121.923H89.3802V123.132H90.5913V121.923Z" fill="#FAFAFA"/>
<path d="M90.5913 123.953H89.3802V125.162H90.5913V123.953Z" fill="#FAFAFA"/>
<path d="M90.5913 125.975H89.3802V127.185H90.5913V125.975Z" fill="#FAFAFA"/>
<path d="M90.5913 128.005H89.3802V129.215H90.5913V128.005Z" fill="#FAFAFA"/>
<path d="M90.5913 130.035H89.3802V131.244H90.5913V130.035Z" fill="#FAFAFA"/>
<path d="M92.5123 99.6243H91.3013V100.834H92.5123V99.6243Z" fill="#FAFAFA"/>
<path d="M92.5123 101.654H91.3013V102.863H92.5123V101.654Z" fill="#FAFAFA"/>
<path d="M92.5123 103.684H91.3013V104.893H92.5123V103.684Z" fill="#FAFAFA"/>
<path d="M92.5123 105.706H91.3013V106.916H92.5123V105.706Z" fill="#FAFAFA"/>
<path d="M92.5123 107.736H91.3013V108.946H92.5123V107.736Z" fill="#FAFAFA"/>
<path d="M92.5123 109.759H91.3013V110.968H92.5123V109.759Z" fill="#FAFAFA"/>
<path d="M92.5123 113.818H91.3013V115.028H92.5123V113.818Z" fill="#FAFAFA"/>
<path d="M92.5123 115.841H91.3013V117.05H92.5123V115.841Z" fill="#FAFAFA"/>
<path d="M92.5123 117.871H91.3013V119.08H92.5123V117.871Z" fill="#FAFAFA"/>
<path d="M92.5123 119.9H91.3013V121.11H92.5123V119.9Z" fill="#FAFAFA"/>
<path d="M92.5123 121.923H91.3013V123.132H92.5123V121.923Z" fill="#FAFAFA"/>
<path d="M92.5123 123.953H91.3013V125.162H92.5123V123.953Z" fill="#FAFAFA"/>
<path d="M92.5123 125.975H91.3013V127.185H92.5123V125.975Z" fill="#FAFAFA"/>
<path d="M92.5123 128.005H91.3013V129.215H92.5123V128.005Z" fill="#FAFAFA"/>
<path d="M92.5123 130.035H91.3013V131.244H92.5123V130.035Z" fill="#FAFAFA"/>
<path d="M133.033 88.2803H131.822V89.4897H133.033V88.2803Z" fill="#FAFAFA"/>
<path d="M133.033 90.3098H131.822V91.5193H133.033V90.3098Z" fill="#FAFAFA"/>
<path d="M133.033 92.3396H131.822V93.5491H133.033V92.3396Z" fill="#FAFAFA"/>
<path d="M133.033 94.3623H131.822V95.5718H133.033V94.3623Z" fill="#FAFAFA"/>
<path d="M133.033 96.3921H131.822V97.6016H133.033V96.3921Z" fill="#FAFAFA"/>
<path d="M133.033 98.4216H131.822V99.6311H133.033V98.4216Z" fill="#FAFAFA"/>
<path d="M133.033 100.444H131.822V101.654H133.033V100.444Z" fill="#FAFAFA"/>
<path d="M133.033 102.474H131.822V103.684H133.033V102.474Z" fill="#FAFAFA"/>
<path d="M133.033 104.497H131.822V105.706H133.033V104.497Z" fill="#FAFAFA"/>
<path d="M133.033 106.527H131.822V107.736H133.033V106.527Z" fill="#FAFAFA"/>
<path d="M133.033 108.556H131.822V109.766H133.033V108.556Z" fill="#FAFAFA"/>
<path d="M133.033 110.579H131.822V111.788H133.033V110.579Z" fill="#FAFAFA"/>
<path d="M133.033 112.609H131.822V113.818H133.033V112.609Z" fill="#FAFAFA"/>
<path d="M133.033 116.661H131.822V117.871H133.033V116.661Z" fill="#FAFAFA"/>
<path d="M133.033 118.691H131.822V119.9H133.033V118.691Z" fill="#FAFAFA"/>
<path d="M133.033 120.713H131.822V121.923H133.033V120.713Z" fill="#FAFAFA"/>
<path d="M133.033 122.743H131.822V123.953H133.033V122.743Z" fill="#FAFAFA"/>
<path d="M133.033 126.796H131.822V128.005H133.033V126.796Z" fill="#FAFAFA"/>
<path d="M133.033 128.825H131.822V130.035H133.033V128.825Z" fill="#FAFAFA"/>
<path d="M133.033 130.848H131.822V132.057H133.033V130.848Z" fill="#FAFAFA"/>
<path d="M134.954 88.2803H133.743V89.4897H134.954V88.2803Z" fill="#FAFAFA"/>
<path d="M134.954 90.3098H133.743V91.5193H134.954V90.3098Z" fill="#FAFAFA"/>
<path d="M134.954 92.3396H133.743V93.5491H134.954V92.3396Z" fill="#FAFAFA"/>
<path d="M134.954 94.3623H133.743V95.5718H134.954V94.3623Z" fill="#FAFAFA"/>
<path d="M134.954 96.3921H133.743V97.6016H134.954V96.3921Z" fill="#FAFAFA"/>
<path d="M134.954 98.4216H133.743V99.6311H134.954V98.4216Z" fill="#FAFAFA"/>
<path d="M134.954 100.444H133.743V101.654H134.954V100.444Z" fill="#FAFAFA"/>
<path d="M134.954 102.474H133.743V103.684H134.954V102.474Z" fill="#FAFAFA"/>
<path d="M134.954 104.497H133.743V105.706H134.954V104.497Z" fill="#FAFAFA"/>
<path d="M134.954 106.527H133.743V107.736H134.954V106.527Z" fill="#FAFAFA"/>
<path d="M134.954 108.556H133.743V109.766H134.954V108.556Z" fill="#FAFAFA"/>
<path d="M134.954 110.579H133.743V111.788H134.954V110.579Z" fill="#FAFAFA"/>
<path d="M134.954 112.609H133.743V113.818H134.954V112.609Z" fill="#FAFAFA"/>
<path d="M134.954 118.691H133.743V119.9H134.954V118.691Z" fill="#FAFAFA"/>
<path d="M134.954 120.713H133.743V121.923H134.954V120.713Z" fill="#FAFAFA"/>
<path d="M134.954 124.766H133.743V125.975H134.954V124.766Z" fill="#FAFAFA"/>
<path d="M134.954 126.796H133.743V128.005H134.954V126.796Z" fill="#FAFAFA"/>
<path d="M134.954 128.825H133.743V130.035H134.954V128.825Z" fill="#FAFAFA"/>
<path d="M134.954 130.848H133.743V132.057H134.954V130.848Z" fill="#FAFAFA"/>
<path d="M136.875 88.2803H135.664V89.4897H136.875V88.2803Z" fill="#FAFAFA"/>
<path d="M136.875 90.3098H135.664V91.5193H136.875V90.3098Z" fill="#FAFAFA"/>
<path d="M136.875 92.3396H135.664V93.5491H136.875V92.3396Z" fill="#FAFAFA"/>
<path d="M136.875 94.3623H135.664V95.5718H136.875V94.3623Z" fill="#FAFAFA"/>
<path d="M136.875 96.3921H135.664V97.6016H136.875V96.3921Z" fill="#FAFAFA"/>
<path d="M136.875 98.4216H135.664V99.6311H136.875V98.4216Z" fill="#FAFAFA"/>
<path d="M136.875 100.444H135.664V101.654H136.875V100.444Z" fill="#FAFAFA"/>
<path d="M136.875 102.474H135.664V103.684H136.875V102.474Z" fill="#FAFAFA"/>
<path d="M136.875 104.497H135.664V105.706H136.875V104.497Z" fill="#FAFAFA"/>
<path d="M136.875 106.527H135.664V107.736H136.875V106.527Z" fill="#FAFAFA"/>
<path d="M136.875 108.556H135.664V109.766H136.875V108.556Z" fill="#FAFAFA"/>
<path d="M136.875 110.579H135.664V111.788H136.875V110.579Z" fill="#FAFAFA"/>
<path d="M136.875 112.609H135.664V113.818H136.875V112.609Z" fill="#FAFAFA"/>
<path d="M136.875 114.631H135.664V115.841H136.875V114.631Z" fill="#FAFAFA"/>
<path d="M136.875 118.691H135.664V119.9H136.875V118.691Z" fill="#FAFAFA"/>
<path d="M136.875 122.743H135.664V123.953H136.875V122.743Z" fill="#FAFAFA"/>
<path d="M136.875 124.766H135.664V125.975H136.875V124.766Z" fill="#FAFAFA"/>
<path d="M136.875 126.796H135.664V128.005H136.875V126.796Z" fill="#FAFAFA"/>
<path d="M136.875 128.825H135.664V130.035H136.875V128.825Z" fill="#FAFAFA"/>
<path d="M136.875 130.848H135.664V132.057H136.875V130.848Z" fill="#FAFAFA"/>
<path d="M125.196 99.8396H123.985V101.049H125.196V99.8396Z" fill="#FAFAFA"/>
<path d="M125.196 101.869H123.985V103.079H125.196V101.869Z" fill="#FAFAFA"/>
<path d="M125.196 103.892H123.985V105.102H125.196V103.892Z" fill="#FAFAFA"/>
<path d="M125.196 105.922H123.985V107.131H125.196V105.922Z" fill="#FAFAFA"/>
<path d="M125.196 107.951H123.985V109.161H125.196V107.951Z" fill="#FAFAFA"/>
<path d="M125.196 109.974H123.985V111.184H125.196V109.974Z" fill="#FAFAFA"/>
<path d="M125.196 116.056H123.985V117.266H125.196V116.056Z" fill="#FAFAFA"/>
<path d="M125.196 118.086H123.985V119.295H125.196V118.086Z" fill="#FAFAFA"/>
<path d="M125.196 120.109H123.985V121.318H125.196V120.109Z" fill="#FAFAFA"/>
<path d="M125.196 122.138H123.985V123.348H125.196V122.138Z" fill="#FAFAFA"/>
<path d="M125.196 124.161H123.985V125.371H125.196V124.161Z" fill="#FAFAFA"/>
<path d="M125.196 126.191H123.985V127.4H125.196V126.191Z" fill="#FAFAFA"/>
<path d="M125.196 128.22H123.985V129.43H125.196V128.22Z" fill="#FAFAFA"/>
<path d="M127.124 99.8396H125.913V101.049H127.124V99.8396Z" fill="#FAFAFA"/>
<path d="M127.124 101.869H125.913V103.079H127.124V101.869Z" fill="#FAFAFA"/>
<path d="M127.124 103.892H125.913V105.102H127.124V103.892Z" fill="#FAFAFA"/>
<path d="M127.124 105.922H125.913V107.131H127.124V105.922Z" fill="#FAFAFA"/>
<path d="M127.124 107.951H125.913V109.161H127.124V107.951Z" fill="#FAFAFA"/>
<path d="M127.124 109.974H125.913V111.184H127.124V109.974Z" fill="#FAFAFA"/>
<path d="M127.124 116.056H125.913V117.266H127.124V116.056Z" fill="#FAFAFA"/>
<path d="M127.124 118.086H125.913V119.295H127.124V118.086Z" fill="#FAFAFA"/>
<path d="M127.124 120.109H125.913V121.318H127.124V120.109Z" fill="#FAFAFA"/>
<path d="M127.124 122.138H125.913V123.348H127.124V122.138Z" fill="#FAFAFA"/>
<path d="M127.124 124.161H125.913V125.371H127.124V124.161Z" fill="#FAFAFA"/>
<path d="M127.124 126.191H125.913V127.4H127.124V126.191Z" fill="#FAFAFA"/>
<path d="M127.124 130.243H125.913V131.453H127.124V130.243Z" fill="#FAFAFA"/>
<path d="M173.2 33.562H170.798V165.276H173.2V33.562Z" fill="#EBEBEB"/>
<path d="M134.606 33.562H132.574V165.276H134.606V33.562Z" fill="#EBEBEB"/>
<path d="M96.3821 33.562H94.3497V165.276H96.3821V33.562Z" fill="#EBEBEB"/>
<path d="M240.05 38.7752C245.497 38.7752 249.913 34.3654 249.913 28.9257C249.913 23.486 245.497 19.0762 240.05 19.0762C234.603 19.0762 230.188 23.486 230.188 28.9257C230.188 34.3654 234.603 38.7752 240.05 38.7752Z" fill="#E0E0E0"/>
<path d="M248.43 28.9257C248.43 33.5481 244.679 37.3016 240.043 37.3016C235.408 37.3016 231.656 33.5551 231.656 28.9257C231.656 24.2964 235.408 20.5498 240.043 20.5498C244.679 20.5498 248.43 24.2964 248.43 28.9257Z" fill="#F0F0F0"/>
<path d="M239.654 23.1841V29.0368L235.77 26.8403" fill="#F0F0F0"/>
<path d="M239.654 23.1841V29.0368L235.77 26.8403" stroke="#E0E0E0" stroke-width="2" stroke-linecap="round" stroke-linejoin="round"/>
<path d="M289.271 44.8225H245.674V102.293H289.271V44.8225Z" fill="#F5F5F5"/>
<path d="M260.506 50.9395V76.2062L270.584 75.6362L271.739 50.9395H260.506Z" fill="#EBEBEB"/>
<path d="M268.663 55.8259H284.17L284.038 77.9439L276.006 78.069L268.663 55.8259Z" fill="#E0E0E0"/>
<path d="M253.567 52.5659H257.645L256.219 72.2997L251.117 73.5578L253.567 52.5659Z" fill="#E6E6E6"/>
<path d="M195.827 109.307H239.285V56.4932L195.827 56.4932V109.307Z" fill="#E6E6E6"/>
<path d="M205.772 96.225L228.608 73.8012L203.9 69.7349L205.772 96.225Z" fill="#E0E0E0"/>
<path d="M228.058 90.9075L229.186 73.7178L211.995 77.937L210.742 91.0882L228.058 90.9075Z" fill="#F0F0F0"/>
<path d="M210.47 71.6198C213.18 68.9134 213.18 64.5255 210.47 61.8192C207.76 59.1128 203.367 59.1128 200.657 61.8192C197.947 64.5255 197.947 68.9134 200.657 71.6198C203.367 74.3262 207.76 74.3262 210.47 71.6198Z" fill="#FAFAFA"/>
<path d="M225.81 97.0381C225.81 95.1822 227.32 93.6738 229.179 93.6738C231.037 93.6738 232.547 95.1822 232.547 97.0381C232.547 98.894 231.037 100.402 229.179 100.402C227.32 100.402 225.81 98.894 225.81 97.0381Z" fill="#E0E0E0"/>
<path d="M228.378 102.946L218.655 97.0381L226.826 90.3096L228.378 102.946Z" fill="#F5F5F5"/>
<path d="M216.901 63.2078H214.987V105.379H216.901V63.2078Z" fill="#E0E0E0"/>
<path d="M235.206 63.2078H232.735V103.516H235.206V63.2078Z" fill="#EBEBEB"/>
<path d="M212.823 91.0881H200.19V103.704H212.823V91.0881Z" fill="#EBEBEB"/>
<path d="M286.327 179.727H240.656V221.176H286.327V179.727Z" fill="#E6E6E6"/>
<path d="M293.308 176.071H287.566V227.543H293.308V176.071Z" fill="#E6E6E6"/>
<path d="M251.674 183.592H247.929V198.46H251.674V183.592Z" fill="#FAFAFA"/>
<path d="M267.187 183.592H263.443V198.46H267.187V183.592Z" fill="#F5F5F5"/>
<path d="M255.411 184.878H251.667V198.46H255.411V184.878Z" fill="#F5F5F5"/>
<path d="M263.443 184.878H259.698V198.46H263.443V184.878Z" fill="#FAFAFA"/>
<path d="M259.698 183.592H257.283V198.46H259.698V183.592Z" fill="#EBEBEB"/>
<path d="M257.283 184.878H255.411V198.46H257.283V184.878Z" fill="#FAFAFA"/>
<path d="M270.932 183.592H267.188V198.46H270.932V183.592Z" fill="#EBEBEB"/>
<path d="M274.676 184.878H270.932V198.46H274.676V184.878Z" fill="#E6E6E6"/>
<path d="M282.708 184.878H278.964V198.46H282.708V184.878Z" fill="#E6E6E6"/>
<path d="M278.957 183.592H276.542V198.46H278.957V183.592Z" fill="#FAFAFA"/>
<path d="M276.542 184.878H274.669V198.46H276.542V184.878Z" fill="#EBEBEB"/>
<path d="M284.574 184.023H282.701V198.46H284.574V184.023Z" fill="#FAFAFA"/>
<path d="M280.836 218.882H284.58V204.709H280.836V218.882Z" fill="#FAFAFA"/>
<path d="M265.315 218.882H269.06V204.709H265.315V218.882Z" fill="#FAFAFA"/>
<path d="M277.084 218.875H280.829V205.988H277.084V218.875Z" fill="#F0F0F0"/>
<path d="M269.053 218.875H272.797V205.988H269.053V218.875Z" fill="#EBEBEB"/>
<path d="M272.804 218.882H275.219V204.709H272.804V218.882Z" fill="#FAFAFA"/>
<path d="M275.219 218.875H277.092V205.988H275.219V218.875Z" fill="#F5F5F5"/>
<path d="M261.571 218.882H265.315V204.709H261.571V218.882Z" fill="#EBEBEB"/>
<path d="M257.826 218.875H261.571V205.988H257.826V218.875Z" fill="#F5F5F5"/>
<path d="M249.794 218.875H253.539V205.988H249.794V218.875Z" fill="#E6E6E6"/>
<path d="M253.546 218.882H255.961V204.709H253.546V218.882Z" fill="#FAFAFA"/>
<path d="M245.514 218.882H247.929V204.709H245.514V218.882Z" fill="#FAFAFA"/>
<path d="M255.954 218.875H257.826V205.988H255.954V218.875Z" fill="#EBEBEB"/>
<path d="M247.922 218.875H249.794V205.133H247.922V218.875Z" fill="#F0F0F0"/>
<path d="M286.098 176.071H239.208V224.227H284.567V227.543H287.629V176.071H286.098ZM284.567 218.875H242.097V201.532H284.567V218.875ZM284.567 198.474H242.097V181.416H284.567V198.474Z" fill="#F0F0F0"/>
<path d="M194.915 221.169H240.586V179.72H194.915V221.169Z" fill="#E6E6E6"/>
<path d="M196.669 227.543H202.411V223.629H196.669V227.543Z" fill="#E6E6E6"/>
<path d="M235.297 198.46H239.041V183.592H235.297V198.46Z" fill="#FAFAFA"/>
<path d="M219.783 198.46H223.527V183.592H219.783V198.46Z" fill="#F5F5F5"/>
<path d="M231.559 198.46H235.304V184.878H231.559V198.46Z" fill="#F5F5F5"/>
<path d="M223.527 198.46H227.272V184.878H223.527V198.46Z" fill="#FAFAFA"/>
<path d="M227.272 198.46H229.687V183.592H227.272V198.46Z" fill="#EBEBEB"/>
<path d="M229.687 198.46H231.559V184.878H229.687V198.46Z" fill="#FAFAFA"/>
<path d="M218.509 198.46H222.254V183.592H218.509V198.46Z" fill="#EBEBEB"/>
<path d="M214.765 198.46H218.509V184.878H214.765V198.46Z" fill="#E6E6E6"/>
<path d="M206.733 198.46H210.477V184.878H206.733V198.46Z" fill="#E6E6E6"/>
<path d="M210.484 198.46H212.899V183.592H210.484V198.46Z" fill="#FAFAFA"/>
<path d="M212.892 198.46H214.765V184.878H212.892V198.46Z" fill="#EBEBEB"/>
<path d="M204.868 198.46H206.74V184.023H204.868V198.46Z" fill="#F5F5F5"/>
<path d="M206.851 204.702H203.107V218.875H206.851V204.702Z" fill="#FAFAFA"/>
<path d="M222.365 204.702H218.62V218.875H222.365V204.702Z" fill="#FAFAFA"/>
<path d="M210.596 205.995H206.851V218.882H210.596V205.995Z" fill="#F5F5F5"/>
<path d="M218.628 205.995H214.883V218.882H218.628V205.995Z" fill="#EBEBEB"/>
<path d="M214.876 204.702H212.461V218.875H214.876V204.702Z" fill="#FAFAFA"/>
<path d="M212.461 205.995H210.589V218.882H212.461V205.995Z" fill="#F5F5F5"/>
<path d="M223.646 204.702H219.901V218.875H223.646V204.702Z" fill="#EBEBEB"/>
<path d="M227.383 205.995H223.639V218.882H227.383V205.995Z" fill="#F5F5F5"/>
<path d="M235.415 205.995H231.671V218.882H235.415V205.995Z" fill="#E6E6E6"/>
<path d="M231.671 204.702H229.255V218.875H231.671V204.702Z" fill="#FAFAFA"/>
<path d="M239.208 204.702H236.793V218.875H239.208V204.702Z" fill="#FAFAFA"/>
<path d="M229.255 205.995H227.383V218.882H229.255V205.995Z" fill="#EBEBEB"/>
<path d="M237.287 205.14H235.415V218.882H237.287V205.14Z" fill="#EBEBEB"/>
<path d="M193.606 176.071V227.543H196.669V224.227H242.027V176.071H193.606ZM196.669 201.539H239.139V218.882H196.669V201.539ZM196.669 181.423H239.139V198.481H196.669V181.423Z" fill="#F0F0F0"/>
<path d="M174 259.093C248.529 259.093 308.948 255.57 308.948 251.224C308.948 246.879 248.529 243.356 174 243.356C99.4706 243.356 39.0526 246.879 39.0526 251.224C39.0526 255.57 99.4706 259.093 174 259.093Z" fill="#F5F5F5"/>
<path d="M265.907 220.905C265.907 220.905 260.513 214.489 257.054 217.485C253.595 220.481 255.349 226.82 259.33 227.028C263.311 227.23 265.9 225.02 265.9 225.02V220.905H265.907Z" fill="#407BFF"/>
<path opacity="0.2" d="M265.907 220.905C265.907 220.905 260.513 214.489 257.054 217.485C253.595 220.481 255.349 226.82 259.33 227.028C263.311 227.23 265.9 225.02 265.9 225.02V220.905H265.907Z" fill="white"/>
<path d="M287.921 204.639C287.921 204.639 292.452 199.899 295.257 200.705C298.062 201.511 297.77 212.835 289.07 208.254L287.921 204.646V204.639Z" fill="#407BFF"/>
<path opacity="0.3" d="M287.921 204.639C287.921 204.639 292.452 199.899 295.257 200.705C298.062 201.511 297.77 212.835 289.07 208.254L287.921 204.646V204.639Z" fill="white"/>
<path d="M271.732 240.013C271.732 240.013 256.838 219.667 268.928 215.545C281.017 211.423 283.175 231.915 279.723 237.622C276.27 243.328 271.739 240.013 271.739 240.013H271.732Z" fill="#407BFF"/>
<path d="M278.637 198.356C278.637 198.356 287.873 176.933 274.189 176.286C260.506 175.64 259.016 197.528 274.76 200.705L278.637 198.356Z" fill="#407BFF"/>
<path opacity="0.3" d="M271.732 240.013C271.732 240.013 256.838 219.667 268.928 215.545C281.017 211.423 283.175 231.915 279.723 237.622C276.27 243.328 271.739 240.013 271.739 240.013H271.732Z" fill="white"/>
<path opacity="0.3" d="M278.637 198.356C278.637 198.356 287.873 176.933 274.189 176.286C260.506 175.64 259.016 197.528 274.76 200.705L278.637 198.356Z" fill="white"/>
<path d="M275.359 215.893C275.359 215.893 270.869 196.979 279.5 195.471C288.13 193.962 296.656 211.055 278.797 219.646C278.797 219.646 275.734 217.749 275.359 215.9V215.893Z" fill="#407BFF"/>
<path opacity="0.2" d="M275.359 215.893C275.359 215.893 270.869 196.979 279.5 195.471C288.13 193.962 296.656 211.055 278.797 219.646C278.797 219.646 275.734 217.749 275.359 215.9V215.893Z" fill="white"/>
<path d="M261.014 237.128H286.014L283.926 253.108H263.102L261.014 237.128Z" fill="#263238"/>
<path d="M274.015 196.819C272.7 195.874 271.565 194.699 270.556 193.427C269.547 192.148 268.719 190.723 268.106 189.201C267.494 187.679 267.201 186.025 267.215 184.384C267.187 182.73 267.696 181.138 268.336 179.671C268.252 180.068 268.162 180.457 268.064 180.846L267.925 181.423C267.897 181.618 267.883 181.819 267.863 182.014C267.821 182.41 267.765 182.799 267.73 183.189L267.751 184.37C267.863 185.934 268.155 187.484 268.754 188.944C269.331 190.404 270.104 191.787 270.988 193.108C271.426 193.768 271.906 194.407 272.421 195.012C272.916 195.645 273.458 196.229 274.015 196.812V196.819Z" fill="#407BFF"/>
<path d="M270.737 178.441C271.517 178.566 272.254 178.872 272.978 179.206C273.674 179.588 274.356 180.012 274.955 180.554C276.18 181.597 277.105 182.966 277.739 184.44C278.358 185.927 278.616 187.526 278.692 189.111C278.706 189.903 278.644 190.696 278.616 191.481C278.477 192.26 278.365 193.038 278.212 193.803C278.212 193.017 278.254 192.239 278.275 191.46C278.233 190.682 278.233 189.91 278.156 189.146C278.01 188.388 278.003 187.609 277.774 186.88C277.676 186.511 277.614 186.136 277.488 185.774L277.092 184.704C275.943 181.91 273.681 179.56 270.737 178.441Z" fill="#407BFF"/>
<path d="M281.205 196.819C283.216 197.535 284.852 199.197 285.743 201.171C286.195 202.158 286.488 203.221 286.592 204.299C286.648 204.563 286.634 204.841 286.634 205.119C286.627 205.397 286.648 205.675 286.613 205.946C286.522 206.488 286.474 207.037 286.286 207.552C286 208.608 285.492 209.574 284.977 210.513C284.4 211.416 283.808 212.313 283.098 213.113C281.727 214.746 280.182 216.22 278.47 217.471C279.228 216.734 279.973 215.99 280.669 215.198C281.379 214.419 282.061 213.62 282.681 212.779C283.926 211.111 285.054 209.317 285.618 207.35C285.799 206.871 285.84 206.363 285.938 205.863C285.98 205.612 285.952 205.362 285.966 205.112C285.966 204.862 285.98 204.611 285.938 204.354C285.875 203.326 285.604 202.325 285.249 201.365C284.88 200.406 284.337 199.516 283.648 198.745C282.973 197.959 282.145 197.292 281.205 196.812V196.819Z" fill="#407BFF"/>
<path d="M278.637 198.355C279.145 199.746 279.458 201.198 279.597 202.686C279.681 203.43 279.66 204.187 279.583 204.945C279.5 205.696 279.298 206.467 278.873 207.162C278.052 208.33 277.774 209.727 277.614 211.173C277.53 211.889 277.509 212.619 277.509 213.349C277.488 214.079 277.523 214.815 277.558 215.552C277.203 214.12 277.043 212.633 277.078 211.138C277.092 210.388 277.182 209.637 277.356 208.893C277.46 208.525 277.565 208.156 277.732 207.802C277.85 207.447 278.136 207.086 278.282 206.794C278.644 206.238 278.832 205.55 278.929 204.855C279.04 204.16 279.068 203.437 279.061 202.714C279.061 201.991 279.006 201.261 278.922 200.538C278.859 199.808 278.748 199.085 278.637 198.355Z" fill="#407BFF"/>
<path d="M272.568 217.485C272.95 217.596 273.25 217.888 273.5 218.187C273.758 218.486 273.96 218.826 274.161 219.167C274.53 219.862 274.83 220.585 275.101 221.315C275.637 222.781 276.013 224.297 276.34 225.812C276.653 227.334 276.911 228.863 277.071 230.406C277.238 231.943 277.384 233.493 277.314 235.05C277.203 234.285 277.085 233.521 276.945 232.763C276.82 232.005 276.688 231.241 276.542 230.49C276.249 228.975 275.978 227.466 275.658 225.965C275.352 224.456 274.997 222.969 274.593 221.488C274.391 220.752 274.155 220.022 273.855 219.32C273.709 218.972 273.556 218.618 273.347 218.305C273.145 217.992 272.916 217.672 272.568 217.492V217.485Z" fill="#407BFF"/>
<path d="M268.336 218.138C267.932 219.528 267.723 220.946 267.633 222.357C267.556 223.768 267.654 225.186 267.939 226.563C268.211 227.939 268.67 229.28 269.345 230.525C269.972 231.797 270.842 232.93 271.732 234.07C271.461 233.833 271.197 233.59 270.932 233.333C270.675 233.076 270.382 232.846 270.166 232.554C269.707 231.991 269.22 231.435 268.872 230.789C268.454 230.177 268.183 229.496 267.877 228.822C267.737 228.481 267.647 228.12 267.529 227.772C267.403 227.424 267.327 227.063 267.257 226.702C266.965 225.256 266.902 223.768 267.09 222.315C267.271 220.863 267.675 219.438 268.329 218.145L268.336 218.138Z" fill="#407BFF"/>
<path d="M291.436 206.947C292.244 206.711 292.974 206.53 293.649 206.238C293.99 206.106 294.304 205.918 294.617 205.717C294.937 205.515 295.201 205.251 295.529 204.973C295.459 205.383 295.278 205.8 294.979 206.12C294.693 206.447 294.325 206.704 293.921 206.877C293.517 207.037 293.1 207.142 292.675 207.149C292.25 207.162 291.826 207.114 291.436 206.947Z" fill="#407BFF"/>
<path d="M290.51 203.819C290.705 203.43 290.998 203.117 291.332 202.846C291.666 202.575 292.056 202.359 292.487 202.234C292.919 202.116 293.392 202.088 293.837 202.22C294.283 202.345 294.652 202.651 294.881 203.006C294.464 202.874 294.109 202.763 293.74 202.756C293.378 202.756 293.03 202.797 292.675 202.902C292.32 202.992 291.972 203.152 291.617 203.305L290.51 203.819Z" fill="#407BFF"/>
<path d="M263.443 221.864C262.51 221.148 261.647 220.418 260.701 219.89C260.235 219.612 259.74 219.41 259.232 219.348C258.724 219.278 258.195 219.389 257.652 219.646C258 219.167 258.599 218.826 259.246 218.805C259.893 218.764 260.513 218.986 261.042 219.285C261.571 219.591 262.037 219.973 262.441 220.411C262.845 220.849 263.193 221.329 263.443 221.871V221.864Z" fill="#407BFF"/>
<path d="M263.443 225.019C262.789 225.27 262.107 225.402 261.418 225.464C260.722 225.534 260.019 225.506 259.323 225.402C258.627 225.291 257.917 225.047 257.325 224.595C256.727 224.158 256.337 223.442 256.351 222.74C256.636 223.386 257.082 223.845 257.624 224.144C258.174 224.436 258.794 224.623 259.434 224.721C260.722 224.936 262.058 224.957 263.443 225.026V225.019Z" fill="#407BFF"/>
<path d="M219.692 239.206C220.256 238.254 219.463 236.829 218.349 236.808C218.836 235.446 218.349 233.798 217.215 232.902C217.069 232.791 216.908 232.686 216.721 232.686C216.526 232.686 216.352 232.804 216.192 232.916C215.148 233.666 214.104 234.41 213.06 235.161C212.823 235.335 212.572 235.515 212.44 235.773C211.8 237.01 214.104 238.595 213.157 239.616C212.886 239.908 212.447 239.971 212.106 240.179C211.361 240.645 211.271 241.667 210.923 242.473C210.575 243.28 209.364 243.905 208.904 243.161C209.245 242.39 208.208 241.723 207.373 241.625C206.545 241.528 205.654 241.479 205.188 240.694C203.998 241.736 201.325 238.831 201.388 237.656C200.406 237.733 199.738 238.65 199.522 239.568C199.3 240.52 199.439 241.514 199.425 242.487C199.397 244.385 198.785 246.241 198.812 248.138C198.84 249.612 199.411 251.252 200.761 251.843C201.415 252.128 202.146 252.128 202.856 252.121C207.993 252.086 213.122 252.059 218.259 252.024C218.628 252.024 219.017 252.017 219.344 251.843C220.04 251.482 220.187 250.571 220.249 249.793C220.528 246.449 220.799 243.113 221.077 239.769C220.611 239.582 220.145 239.394 219.685 239.199L219.692 239.206Z" fill="#407BFF"/>
<path opacity="0.3" d="M219.692 239.206C220.256 238.254 219.463 236.829 218.349 236.808C218.836 235.446 218.349 233.798 217.215 232.902C217.069 232.791 216.908 232.686 216.721 232.686C216.526 232.686 216.352 232.804 216.192 232.916C215.148 233.666 214.104 234.41 213.06 235.161C212.823 235.335 212.572 235.515 212.44 235.773C211.8 237.01 214.104 238.595 213.157 239.616C212.886 239.908 212.447 239.971 212.106 240.179C211.361 240.645 211.271 241.667 210.923 242.473C210.575 243.28 209.364 243.905 208.904 243.161C209.245 242.39 208.208 241.723 207.373 241.625C206.545 241.528 205.654 241.479 205.188 240.694C203.998 241.736 201.325 238.831 201.388 237.656C200.406 237.733 199.738 238.65 199.522 239.568C199.3 240.52 199.439 241.514 199.425 242.487C199.397 244.385 198.785 246.241 198.812 248.138C198.84 249.612 199.411 251.252 200.761 251.843C201.415 252.128 202.146 252.128 202.856 252.121C207.993 252.086 213.122 252.059 218.259 252.024C218.628 252.024 219.017 252.017 219.344 251.843C220.04 251.482 220.187 250.571 220.249 249.793C220.528 246.449 220.799 243.113 221.077 239.769C220.611 239.582 220.145 239.394 219.685 239.199L219.692 239.206Z" fill="white"/>
<path d="M220.597 222.948H196.704L196.898 225.36L197.038 227.084L197.4 231.567L197.608 234.139L197.887 237.566L198.005 239.032L198.047 239.47L198.186 241.194L198.374 243.557L198.492 245.024L198.618 246.519L198.757 248.242L198.861 249.549L198.98 251.016L199.028 251.655H220.959L221.008 251.016L221.126 249.549L221.231 248.229L221.37 246.505L221.495 245.017L221.613 243.551L221.801 241.18L221.941 239.456L221.975 239.019L222.094 237.552L222.372 234.125L222.581 231.56L222.943 227.077L223.082 225.353L223.277 222.941H220.59L220.597 222.948ZM222.038 224.526L221.579 224.067H222.08L222.038 224.526ZM221.92 225.992L221.878 226.576L219.741 228.71L217.284 226.257L219.477 224.067H219.992L221.92 225.992ZM221.3 233.632L219.734 235.195L217.277 232.742L219.734 230.295L221.432 231.991L221.3 233.632ZM198.562 231.991L200.26 230.295L202.717 232.742L200.26 235.195L198.701 233.632L198.569 231.991H198.562ZM218.941 229.503L216.484 231.956L214.027 229.503L216.484 227.049L218.941 229.503ZM215.085 224.067H217.89L216.484 225.471L215.078 224.067H215.085ZM215.69 232.742L213.241 235.195L210.784 232.742L213.241 230.295L215.69 232.742ZM207.54 235.981L209.997 233.534L212.447 235.981L209.997 238.435L207.54 235.981ZM209.197 239.22L206.74 241.674L204.29 239.227L206.747 236.773L209.197 239.22ZM213.241 236.773L215.69 239.227L213.241 241.674L210.784 239.22L213.241 236.773ZM209.997 231.942L207.54 229.489L209.997 227.035L212.447 229.489L209.997 231.942ZM209.197 232.735L206.747 235.189L204.29 232.735L206.747 230.288L209.197 232.735ZM203.497 231.942L201.047 229.489L203.497 227.035L205.953 229.489L203.497 231.942ZM203.497 233.527L205.953 235.974L203.497 238.428L201.047 235.974L203.497 233.527ZM205.953 242.459L203.497 244.906L201.047 242.459L203.497 240.006L205.953 242.459ZM206.747 243.252L209.204 245.705L206.754 248.159L204.297 245.705L206.747 243.252ZM207.547 242.459L210.004 240.006L212.454 242.459L210.004 244.906L207.547 242.459ZM213.248 243.252L215.697 245.705L213.248 248.159L210.791 245.705L213.248 243.252ZM216.491 246.491L218.948 248.944L217.361 250.529H215.635L214.048 248.944L216.505 246.491H216.491ZM214.034 242.459L216.491 240.006L218.948 242.459L216.491 244.906L214.034 242.459ZM214.034 235.974L216.491 233.527L218.948 235.974L216.491 238.428L214.034 235.974ZM215.69 226.25L213.241 228.703L210.784 226.25L212.976 224.06H213.491L215.684 226.25H215.69ZM209.997 225.457L208.591 224.053H211.396L209.997 225.457ZM209.197 226.25L206.747 228.703L204.29 226.25L206.482 224.06H206.997L209.19 226.25H209.197ZM204.902 224.06L203.497 225.464L202.098 224.06H204.902ZM200.511 224.06L202.703 226.25L200.246 228.703L198.11 226.569L198.068 225.985L199.989 224.06H200.504H200.511ZM198.409 224.06L197.956 224.512L197.915 224.06H198.409ZM198.256 228.293L199.46 229.496L198.437 230.517L198.256 228.3V228.293ZM198.924 236.509L198.826 235.348L199.453 235.974L198.917 236.509H198.924ZM199.042 237.983L200.246 236.773L202.703 239.227L200.246 241.674L199.258 240.687L199.042 237.99V237.983ZM199.404 242.515V242.411L199.453 242.466L199.404 242.515ZM199.829 247.735L199.522 243.981L200.246 243.259L202.703 245.712L200.246 248.159L199.829 247.742V247.735ZM200.051 250.536L200.01 249.973L200.246 249.737L201.047 250.536H200.058H200.051ZM201.04 248.951L203.49 246.498L205.946 248.951L204.36 250.536H202.634L201.047 248.951H201.04ZM205.94 250.536L206.74 249.737L207.54 250.536H205.946H205.94ZM209.12 250.536L207.533 248.951L209.99 246.498L212.44 248.951L210.86 250.536H209.134H209.12ZM212.433 250.536L213.234 249.737L214.034 250.536H212.44H212.433ZM219.915 250.536H218.927L219.727 249.737L219.964 249.973L219.922 250.536H219.915ZM220.145 247.735L219.72 248.152L217.263 245.705L219.72 243.252L220.444 243.975L220.138 247.728L220.145 247.735ZM220.576 242.404L220.562 242.515L220.514 242.466L220.576 242.404ZM220.716 240.68L219.72 241.667L217.263 239.22L219.72 236.766L220.931 237.976L220.716 240.673V240.68ZM221.05 236.516L220.514 235.981L221.147 235.355L221.05 236.523V236.516ZM221.718 228.293L221.537 230.524L220.507 229.496L221.711 228.293H221.718Z" fill="#407BFF"/>
<g opacity="0.6">
<path d="M220.597 222.948H196.704L196.898 225.36L197.038 227.084L197.4 231.567L197.608 234.139L197.887 237.566L198.005 239.032L198.047 239.47L198.186 241.194L198.374 243.557L198.492 245.024L198.618 246.519L198.757 248.242L198.861 249.549L198.98 251.016L199.028 251.655H220.959L221.008 251.016L221.126 249.549L221.231 248.229L221.37 246.505L221.495 245.017L221.613 243.551L221.801 241.18L221.941 239.456L221.975 239.019L222.094 237.552L222.372 234.125L222.581 231.56L222.943 227.077L223.082 225.353L223.277 222.941H220.59L220.597 222.948ZM222.038 224.526L221.579 224.067H222.08L222.038 224.526ZM221.92 225.992L221.878 226.576L219.741 228.71L217.284 226.257L219.477 224.067H219.992L221.92 225.992ZM221.3 233.632L219.734 235.195L217.277 232.742L219.734 230.295L221.432 231.991L221.3 233.632ZM198.562 231.991L200.26 230.295L202.717 232.742L200.26 235.195L198.701 233.632L198.569 231.991H198.562ZM218.941 229.503L216.484 231.956L214.027 229.503L216.484 227.049L218.941 229.503ZM215.085 224.067H217.89L216.484 225.471L215.078 224.067H215.085ZM215.69 232.742L213.241 235.195L210.784 232.742L213.241 230.295L215.69 232.742ZM207.54 235.981L209.997 233.534L212.447 235.981L209.997 238.435L207.54 235.981ZM209.197 239.22L206.74 241.674L204.29 239.227L206.747 236.773L209.197 239.22ZM213.241 236.773L215.69 239.227L213.241 241.674L210.784 239.22L213.241 236.773ZM209.997 231.942L207.54 229.489L209.997 227.035L212.447 229.489L209.997 231.942ZM209.197 232.735L206.747 235.189L204.29 232.735L206.747 230.288L209.197 232.735ZM203.497 231.942L201.047 229.489L203.497 227.035L205.953 229.489L203.497 231.942ZM203.497 233.527L205.953 235.974L203.497 238.428L201.047 235.974L203.497 233.527ZM205.953 242.459L203.497 244.906L201.047 242.459L203.497 240.006L205.953 242.459ZM206.747 243.252L209.204 245.705L206.754 248.159L204.297 245.705L206.747 243.252ZM207.547 242.459L210.004 240.006L212.454 242.459L210.004 244.906L207.547 242.459ZM213.248 243.252L215.697 245.705L213.248 248.159L210.791 245.705L213.248 243.252ZM216.491 246.491L218.948 248.944L217.361 250.529H215.635L214.048 248.944L216.505 246.491H216.491ZM214.034 242.459L216.491 240.006L218.948 242.459L216.491 244.906L214.034 242.459ZM214.034 235.974L216.491 233.527L218.948 235.974L216.491 238.428L214.034 235.974ZM215.69 226.25L213.241 228.703L210.784 226.25L212.976 224.06H213.491L215.684 226.25H215.69ZM209.997 225.457L208.591 224.053H211.396L209.997 225.457ZM209.197 226.25L206.747 228.703L204.29 226.25L206.482 224.06H206.997L209.19 226.25H209.197ZM204.902 224.06L203.497 225.464L202.098 224.06H204.902ZM200.511 224.06L202.703 226.25L200.246 228.703L198.11 226.569L198.068 225.985L199.989 224.06H200.504H200.511ZM198.409 224.06L197.956 224.512L197.915 224.06H198.409ZM198.256 228.293L199.46 229.496L198.437 230.517L198.256 228.3V228.293ZM198.924 236.509L198.826 235.348L199.453 235.974L198.917 236.509H198.924ZM199.042 237.983L200.246 236.773L202.703 239.227L200.246 241.674L199.258 240.687L199.042 237.99V237.983ZM199.404 242.515V242.411L199.453 242.466L199.404 242.515ZM199.829 247.735L199.522 243.981L200.246 243.259L202.703 245.712L200.246 248.159L199.829 247.742V247.735ZM200.051 250.536L200.01 249.973L200.246 249.737L201.047 250.536H200.058H200.051ZM201.04 248.951L203.49 246.498L205.946 248.951L204.36 250.536H202.634L201.047 248.951H201.04ZM205.94 250.536L206.74 249.737L207.54 250.536H205.946H205.94ZM209.12 250.536L207.533 248.951L209.99 246.498L212.44 248.951L210.86 250.536H209.134H209.12ZM212.433 250.536L213.234 249.737L214.034 250.536H212.44H212.433ZM219.915 250.536H218.927L219.727 249.737L219.964 249.973L219.922 250.536H219.915ZM220.145 247.735L219.72 248.152L217.263 245.705L219.72 243.252L220.444 243.975L220.138 247.728L220.145 247.735ZM220.576 242.404L220.562 242.515L220.514 242.466L220.576 242.404ZM220.716 240.68L219.72 241.667L217.263 239.22L219.72 236.766L220.931 237.976L220.716 240.673V240.68ZM221.05 236.516L220.514 235.981L221.147 235.355L221.05 236.523V236.516ZM221.718 228.293L221.537 230.524L220.507 229.496L221.711 228.293H221.718Z" fill="white"/>
</g>
<path d="M196.307 225.068H223.674C224.304 225.068 224.815 224.558 224.815 223.928V223.087C224.815 222.458 224.304 221.947 223.674 221.947H196.307C195.677 221.947 195.165 222.458 195.165 223.087V223.928C195.165 224.558 195.677 225.068 196.307 225.068Z" fill="#407BFF"/>
<path d="M221.537 249.987H198.451C197.82 249.987 197.309 250.498 197.309 251.127V251.968C197.309 252.598 197.82 253.108 198.451 253.108H221.537C222.167 253.108 222.678 252.598 222.678 251.968V251.127C222.678 250.498 222.167 249.987 221.537 249.987Z" fill="#407BFF"/>
<path d="M301.744 65.2026H162.787V159.687H301.744V65.2026Z" fill="#407BFF"/>
<path opacity="0.6" d="M301.744 65.2026H162.787V159.687H301.744V65.2026Z" fill="white"/>
<path opacity="0.1" d="M252.258 65.2026C252.258 65.2026 212.273 102.585 162.787 103.475V65.2026H252.258Z" fill="white"/>
<path opacity="0.1" d="M301.737 114.527C301.737 114.527 274.28 111.67 247.115 127.428C219.95 143.179 192.813 158.033 162.781 151.068V159.687H301.737V114.527Z" fill="white"/>
<path d="M126.171 64.9524H106.175C102.771 64.9524 100.015 67.705 100.015 71.104V88.4814C100.015 91.8804 102.771 94.633 106.175 94.633H112.014L107.121 104.295L116.155 94.633H126.171C129.574 94.633 132.33 91.8804 132.33 88.4814V71.104C132.33 67.705 129.574 64.9524 126.171 64.9524Z" fill="#407BFF"/>
<path opacity="0.7" d="M126.171 64.9524H106.175C102.771 64.9524 100.015 67.705 100.015 71.104V88.4814C100.015 91.8804 102.771 94.633 106.175 94.633H112.014L107.121 104.295L116.155 94.633H126.171C129.574 94.633 132.33 91.8804 132.33 88.4814V71.104C132.33 67.705 129.574 64.9524 126.171 64.9524Z" fill="white"/>
<path d="M123.189 86.7223C127.065 82.8514 127.065 76.5754 123.189 72.7045C119.313 68.8336 113.029 68.8336 109.153 72.7045C105.277 76.5754 105.277 82.8514 109.153 86.7223C113.029 90.5932 119.313 90.5932 123.189 86.7223Z" fill="#407BFF"/>
<path d="M115.132 84.144C114.868 84.144 114.61 84.0258 114.436 83.8242L110.546 79.2436C110.218 78.8613 110.267 78.2843 110.65 77.9576C111.033 77.6309 111.61 77.6796 111.938 78.0619L115.139 81.8224L120.422 75.6082C120.749 75.2259 121.327 75.1772 121.709 75.5039C122.092 75.8306 122.141 76.4076 121.814 76.7899L115.835 83.8242C115.661 84.0258 115.411 84.144 115.139 84.144H115.132Z" fill="white"/>
<path d="M142.673 251.836H183.18C183.619 251.836 183.974 251.482 183.974 251.044V248.465C183.974 248.027 183.619 247.673 183.18 247.673H144.761V165.081H182.526C183.326 165.081 183.981 164.435 183.981 163.628V160.911H142.68C141.525 160.911 140.592 161.842 140.592 162.996V249.758C140.592 250.912 141.525 251.843 142.68 251.843L142.673 251.836Z" fill="#263238"/>
<g opacity="0.3">
<path d="M140.585 162.989V249.744C140.585 250.898 141.518 251.829 142.673 251.829H183.18C183.619 251.829 183.974 251.475 183.974 251.037V248.458C183.974 248.02 183.619 247.659 183.18 247.659H144.761V165.074H182.526C183.326 165.074 183.974 164.421 183.974 163.622V160.904H142.673C141.518 160.904 140.585 161.835 140.585 162.989Z" fill="white"/>
</g>
<path opacity="0.2" d="M140.585 162.989V185.114C141.977 185.469 143.369 185.809 144.761 186.136V165.074H182.526C183.326 165.074 183.974 164.421 183.974 163.622V160.904H142.673C141.518 160.904 140.585 161.835 140.585 162.989Z" fill="black"/>
<path d="M67.338 240.194L83.9515 238.748V216.963H89.791V238.741L106.46 240.194C107.929 240.339 109.049 241.57 109.049 243.043V245.254H64.7559V243.043C64.7559 241.57 65.8764 240.339 67.345 240.194H67.338Z" fill="#263238"/>
<path opacity="0.1" d="M67.338 240.194L83.9515 238.748V216.963H89.791V238.741L106.46 240.194C107.929 240.339 109.049 241.57 109.049 243.043V245.254H64.7559V243.043C64.7559 241.57 65.8764 240.339 67.345 240.194H67.338Z" fill="white"/>
<path d="M103.662 247.993C103.662 250.099 105.374 251.809 107.483 251.809C109.592 251.809 111.304 250.099 111.304 247.993C111.304 245.886 109.592 244.177 107.483 244.177C105.374 244.177 103.662 245.886 103.662 247.993Z" fill="#263238"/>
<path d="M70.1221 247.993C70.1221 250.099 68.4099 251.809 66.301 251.809C64.1921 251.809 62.48 250.099 62.48 247.993C62.48 245.886 64.1921 244.177 66.301 244.177C68.4099 244.177 70.1221 245.886 70.1221 247.993Z" fill="#263238"/>
<path d="M88.2041 221.405H85.5245C84.0977 221.405 82.9423 220.251 82.9423 218.826V200.079H90.7932V218.826C90.7932 220.251 89.6379 221.405 88.2111 221.405H88.2041Z" fill="#263238"/>
<path opacity="0.2" d="M88.2041 221.405H85.5245C84.0977 221.405 82.9423 220.251 82.9423 218.826V200.079H90.7932V218.826C90.7932 220.251 89.6379 221.405 88.2111 221.405H88.2041Z" fill="white"/>
<path d="M69.6418 156.983C69.6418 156.983 71.4375 193.01 79.2118 199.211H70.9016C70.9016 199.211 63.4892 186.935 62.9393 156.983H69.6418Z" fill="#263238"/>
<path opacity="0.1" d="M69.6418 156.983C69.6418 156.983 71.4375 193.01 79.2118 199.211H70.9016C70.9016 199.211 63.4892 186.935 62.9393 156.983H69.6418Z" fill="white"/>
<path d="M68.9666 196.222H105.799C107.525 196.222 108.924 197.619 108.924 199.343V202.193H65.8346V199.343C65.8346 197.619 67.2336 196.222 68.9596 196.222H68.9666Z" fill="#407BFF"/>
<path d="M109.307 199.211H65.4589C64.7631 199.211 64.1991 199.774 64.1991 200.469V200.935C64.1991 201.629 64.7631 202.193 65.4589 202.193H109.307C110.003 202.193 110.567 201.629 110.567 200.935V200.469C110.567 199.774 110.003 199.211 109.307 199.211Z" fill="#263238"/>
<path opacity="0.6" d="M109.307 199.211H65.4589C64.7631 199.211 64.1991 199.774 64.1991 200.469V200.935C64.1991 201.629 64.7631 202.193 65.4589 202.193H109.307C110.003 202.193 110.567 201.629 110.567 200.935V200.469C110.567 199.774 110.003 199.211 109.307 199.211Z" fill="white"/>
<path d="M61.4777 164.866H74.7852C78.6828 164.866 81.5016 161.37 81.0771 157.053L80.5063 151.291C80.0818 146.974 76.5739 143.478 72.6763 143.478H59.3688C55.4712 143.478 52.6524 146.974 53.077 151.291L53.6477 157.053C54.0723 161.37 57.5801 164.866 61.4777 164.866Z" fill="#407BFF"/>
<path d="M105.416 133.788L106.056 135.748C106.279 136.415 106.516 137.083 106.759 137.75C107.24 139.078 107.755 140.384 108.291 141.643C108.833 142.901 109.425 144.117 110.051 145.208C110.678 146.286 111.388 147.273 111.952 147.78C112.307 148.169 113.364 148.649 114.569 148.969C115.787 149.275 117.144 149.532 118.536 149.692C121.32 150.039 124.292 150.178 127.18 150.296L127.695 154.182C124.619 155.009 121.57 155.489 118.348 155.663C116.74 155.725 115.091 155.732 113.351 155.503C112.474 155.385 111.576 155.218 110.622 154.933C110.149 154.794 109.655 154.606 109.147 154.37C108.659 154.154 108.068 153.807 107.629 153.487C105.799 152.166 104.678 150.714 103.676 149.275C102.681 147.836 101.88 146.383 101.164 144.916C100.44 143.457 99.8203 141.976 99.2635 140.489C98.992 139.745 98.7276 138.994 98.477 138.237C98.2195 137.472 98.0037 136.749 97.781 135.894L105.423 133.767L105.416 133.788Z" fill="#B65B52"/>
<path d="M101.999 130.125C104.191 130.876 106.189 134.024 111.694 146.654C111.694 146.654 112.592 148.204 117.06 149.164L116.65 156.261C116.65 156.261 110.26 155.983 108.778 154.954C107.295 153.925 98.4073 139.335 98.4073 139.335L101.992 130.125H101.999Z" fill="#263238"/>
<path opacity="0.2" d="M117.067 149.164L116.656 156.254C116.656 156.254 111.534 156.031 109.397 155.246C109.147 155.155 108.938 155.058 108.785 154.954C107.929 154.356 104.588 149.219 101.929 144.993C99.9873 141.921 98.4143 139.328 98.4143 139.328L101.999 130.125C104.191 130.876 106.189 134.024 111.701 146.647C111.701 146.647 112.592 148.198 117.067 149.164Z" fill="white"/>
<path opacity="0.2" d="M109.397 155.246C109.147 155.155 108.938 155.058 108.785 154.954C107.929 154.356 104.588 149.219 101.929 144.993C103.071 141.031 104.379 137.931 104.379 137.931C104.379 137.931 109.495 148.128 109.397 155.246Z" fill="black"/>
<path d="M125.656 150.651L130.646 148.851L130.034 155.524C130.034 155.524 125.454 156.108 124.89 153.703L125.656 150.651Z" fill="#B55B52"/>
<path d="M134.78 150.206L134.015 155.698L130.034 155.531L130.646 148.851L134.78 150.206Z" fill="#B55B52"/>
<path d="M117.102 148.851L119.649 149.615L118.717 156.518L116.169 156.956L117.102 148.851Z" fill="#263238"/>
<path d="M105.611 173.965C105.611 173.965 139.291 187.234 147.121 192.781C154.951 198.328 174.703 235.724 174.703 235.724L166.539 242.008C166.539 242.008 142.986 207.851 140.112 205.536C137.237 203.221 99.7229 191.731 99.7229 191.731L105.611 173.972V173.965Z" fill="#407BFF"/>
<path opacity="0.4" d="M174.71 235.724L166.546 242.008C166.546 242.008 161.047 234.035 155.041 225.534C148.617 216.435 141.608 206.731 140.119 205.536C138.017 203.84 117.394 197.236 106.46 193.817C102.437 192.551 99.7297 191.724 99.7297 191.724L105.618 173.965C105.618 173.965 139.29 187.234 147.127 192.781C154.957 198.328 174.71 235.724 174.71 235.724Z" fill="white"/>
<path d="M176.192 249.105L180.125 245.157L173.694 235.224L169.768 239.172L176.192 249.105Z" fill="#B55B52"/>
<path opacity="0.2" d="M169.768 239.172L173.694 235.23L177.369 240.902L173.304 244.649L169.768 239.172Z" fill="black"/>
<path d="M180.807 244.726C180.807 244.726 180.835 244.746 180.849 244.739C180.863 244.739 180.877 244.719 180.883 244.705C181.35 244.538 181.795 244.315 182.213 244.051C182.547 243.878 182.797 243.593 182.93 243.245C182.978 242.981 182.874 242.71 182.658 242.557C182.54 242.439 182.373 242.383 182.206 242.418C181.823 242.508 181.447 243.05 181.162 243.572C181.176 243.023 181.085 242.459 180.842 242.216C180.675 242.056 180.431 242.022 180.236 242.147C180.055 242.237 179.937 242.39 179.895 242.585C179.735 243.335 180.751 244.545 180.8 244.614C180.8 244.614 180.744 244.691 180.751 244.698C180.772 244.712 180.786 244.719 180.807 244.719V244.726ZM180.842 244.211C180.821 244.253 180.807 244.295 180.786 244.329C180.48 243.898 180.027 243.141 180.125 242.696C180.139 242.592 180.201 242.501 180.292 242.446L180.348 242.411C180.515 242.327 180.605 242.376 180.654 242.432C180.911 242.71 180.967 243.599 180.842 244.211ZM181.071 244.385C181.378 243.683 181.893 242.779 182.269 242.696C182.352 242.675 182.436 242.703 182.491 242.765C182.623 242.87 182.693 243.036 182.672 243.203C182.596 243.565 182.004 243.996 181.071 244.385Z" fill="#407BFF"/>
<path d="M180.048 244.371L174.856 247.847C174.668 247.958 174.612 248.201 174.724 248.389L177.229 252.664C177.529 253.108 178.134 253.234 178.587 252.942C180.375 251.697 181.169 251.016 183.445 249.466C184.844 248.521 187.697 246.79 189.409 245.205C191.122 243.613 189.5 241.973 188.637 242.494C186.584 243.725 183.013 244.253 181.023 244.1C180.675 244.079 180.334 244.17 180.048 244.364V244.371Z" fill="#263238"/>
<path d="M166.915 244.739L177.111 237.955L174.759 233.173L163.713 240.826L166.915 244.739Z" fill="#407BFF"/>
<path opacity="0.2" d="M166.915 244.739L177.111 237.955L174.759 233.173L163.713 240.826L166.915 244.739Z" fill="white"/>
<path opacity="0.2" d="M155.041 225.534C148.617 216.435 141.608 206.731 140.119 205.536C138.017 203.84 117.394 197.236 106.46 193.817L105.186 180.575L109.181 179.866L109.634 180.881C109.634 180.881 134.592 186.532 141.643 190.063C146.195 192.343 152.299 214.642 155.041 225.534Z" fill="black"/>
<path d="M153.544 246.039C153.544 246.039 153.565 246.067 153.579 246.067C153.593 246.067 153.607 246.06 153.621 246.046C154.115 246.046 154.609 245.984 155.09 245.872C155.458 245.824 155.8 245.636 156.036 245.344C156.168 245.115 156.161 244.823 156.008 244.6C155.939 244.447 155.793 244.336 155.626 244.315C155.236 244.274 154.7 244.663 154.254 245.059C154.449 244.545 154.554 243.989 154.401 243.676C154.296 243.474 154.08 243.356 153.858 243.405C153.656 243.433 153.496 243.537 153.384 243.704C152.988 244.364 153.538 245.838 153.565 245.921L153.649 245.872L153.565 245.928C153.565 245.928 153.489 245.984 153.496 245.99C153.51 246.011 153.524 246.025 153.544 246.032V246.039ZM153.746 245.566C153.712 245.601 153.684 245.629 153.656 245.664C153.51 245.156 153.336 244.287 153.572 243.898C153.621 243.808 153.712 243.738 153.809 243.717L153.872 243.704C154.06 243.676 154.129 243.752 154.157 243.822C154.303 244.169 154.066 245.031 153.739 245.566H153.746ZM153.906 245.803C154.428 245.247 155.208 244.559 155.598 244.607C155.681 244.614 155.751 244.67 155.786 244.746C155.876 244.885 155.883 245.066 155.813 245.219C155.626 245.532 154.923 245.747 153.906 245.803Z" fill="#407BFF"/>
<path d="M147.74 248.646L152.758 246.22L149.772 234.271L144.761 236.704L147.74 248.646Z" fill="#B55B52"/>
<path opacity="0.2" d="M144.761 236.704L149.772 234.278L151.477 241.111L146.397 243.287L144.761 236.704Z" fill="black"/>
<path d="M152.946 245.455L146.891 247.019C146.675 247.061 146.543 247.276 146.585 247.485L147.531 252.351C147.663 252.872 148.192 253.185 148.721 253.06C150.823 252.483 151.798 252.1 154.456 251.391C156.092 250.967 159.356 250.279 161.5 249.341C163.644 248.409 162.662 246.317 161.674 246.526C159.328 247.005 155.786 246.317 153.955 245.518C153.635 245.386 153.28 245.358 152.946 245.448V245.455Z" fill="#263238"/>
<path d="M152.215 236.544C152.215 236.544 143.731 193.997 141.998 191.46C139.165 187.317 105.186 180.575 105.186 180.575L109.175 179.859L104.56 167.646L74.3049 168.835C74.3049 168.835 74.9383 188.798 78.0146 194.15C81.0909 199.503 126.609 201.963 129.56 203.173C132.511 204.382 141.552 237.768 141.552 237.768L152.215 236.537V236.544Z" fill="#407BFF"/>
<path opacity="0.4" d="M152.215 236.544C152.215 236.544 143.731 193.997 141.998 191.46C139.165 187.317 105.186 180.575 105.186 180.575L109.175 179.859L104.56 167.646L74.3049 168.835C74.3049 168.835 74.9383 188.798 78.0146 194.15C81.0909 199.503 126.609 201.963 129.56 203.173C132.511 204.382 141.552 237.768 141.552 237.768L152.215 236.537V236.544Z" fill="white"/>
<path d="M141.726 241.549L153.6 238.525L152.967 233.236L140.007 236.801L141.726 241.549Z" fill="#407BFF"/>
<path opacity="0.2" d="M141.726 241.549L153.6 238.525L152.967 233.236L140.007 236.801L141.726 241.549Z" fill="white"/>
<path d="M83.8818 169.301L75.1122 169.148L74.9243 171.803L84.2646 172.025L83.8818 169.301Z" fill="#263238"/>
<path d="M85.2321 169.252L85.6149 172.004L105.186 171.726L104.553 169.217L85.2321 169.252Z" fill="#263238"/>
<path d="M94.6489 169.752L94.9065 171.567C94.9691 172.011 95.3867 172.359 95.8461 172.345L98.9781 172.248C99.4305 172.234 99.7506 171.865 99.688 171.421L99.4305 169.599C99.3678 169.155 98.9502 168.807 98.4909 168.821L95.3589 168.918C94.9065 168.932 94.5863 169.301 94.6489 169.745V169.752Z" fill="white"/>
<path d="M75.0706 168.765H103.815C104.532 168.765 105.138 168.23 105.228 167.528C108.778 139.752 101.999 130.125 101.999 130.125C99.4167 129.388 96.7858 128.853 94.1201 128.526C90.2295 128.22 86.3249 128.13 82.4203 128.276C79.7547 128.346 77.0959 128.61 74.472 129.061C73.0452 129.659 71.6323 135.86 73.0452 155.155C73.4141 160.209 73.4767 164.574 73.435 167.132C73.4211 168.036 74.1588 168.772 75.0636 168.772L75.0706 168.765Z" fill="#263238"/>
<path d="M97.969 139.96H103.509L103.927 146.557L100.955 148.482L97.969 147.009V139.96Z" fill="#263238"/>
<path opacity="0.2" d="M105.228 167.528C105.138 168.237 104.532 168.765 103.815 168.765H75.0706C74.1658 168.765 73.4281 168.029 73.442 167.125C73.4768 164.567 73.4211 160.202 73.0522 155.148C72.8504 152.375 72.7042 149.866 72.6138 147.614C72.3771 142.157 72.4467 138.16 72.6833 135.296C73.0313 131.112 73.7482 129.367 74.4721 129.054C77.1029 128.603 79.7617 128.339 82.4273 128.269C86.3249 128.13 90.2295 128.213 94.1201 128.519C96.7858 128.853 99.4167 129.388 101.999 130.125C101.999 130.125 108.778 139.752 105.228 167.528Z" fill="white"/>
<path d="M82.6848 127.984L91.9695 131.147L92.3453 128.491C91.4405 126.907 91.2108 125.906 91.9764 124.064L85.7751 116.953C85.9421 120.602 85.2809 125.579 82.6779 127.991L82.6848 127.984Z" fill="#B55B52"/>
<path d="M88.559 132.523L90.3825 133.274L91.9763 134.275C91.9763 134.275 94.0922 146.411 93.5006 156.65L95.2823 158.11L97.1615 156.601C97.1615 156.601 94.823 137.792 93.9808 134.122L94.3427 133.246L95.1988 131.425L93.6119 130.598L91.1063 131.147H89.3524L88.552 132.523H88.559Z" fill="white"/>
<path opacity="0.2" d="M88.3015 119.851L91.9694 124.064C91.691 124.71 91.4683 125.377 91.3083 126.059C89.7562 125.593 87.8422 123.528 87.9187 121.846C87.9187 121.165 88.051 120.484 88.3015 119.851Z" fill="black"/>
<path d="M83.2624 126.302C83.2624 126.302 86.8677 128.811 91.6283 130.646C91.6283 130.646 92.1921 128.54 91.6283 126.705L95.7278 128.748C95.7278 128.748 96.0688 131.925 95.1222 133.579L92.1155 131.383L88.733 134.135C88.733 134.135 82.3298 131.668 81.3275 128.318L83.2624 126.309V126.302Z" fill="#263238"/>
<path opacity="0.2" d="M104.149 150.992L94.642 158.631C81.0143 161.662 75.0218 153.174 72.6136 147.614C72.377 142.157 72.4466 138.16 72.6832 135.297C75.9544 135.144 80.026 135.144 81.1257 135.985C83.0397 137.451 89.7074 147.732 90.7027 148.482C91.7049 149.24 104.149 150.992 104.149 150.992Z" fill="black"/>
<path d="M109.55 150.595L114.541 148.795L113.928 155.468C113.928 155.468 109.349 156.052 108.785 153.647L109.55 150.595Z" fill="#B55B52"/>
<path d="M118.675 150.15L117.909 155.649L113.928 155.475L114.541 148.802L118.675 150.15Z" fill="#B55B52"/>
<path d="M80.5202 137.131L81.6478 139.272C82.0375 140.002 82.4412 140.718 82.8588 141.434C83.6662 142.866 84.5153 144.263 85.3922 145.591C86.2762 146.904 87.1949 148.169 88.1414 149.157C88.6008 149.657 89.0671 150.074 89.443 150.345C89.5613 150.436 89.5822 150.436 89.617 150.463C89.6448 150.498 89.777 150.533 89.8536 150.575C89.958 150.616 90.0972 150.651 90.2155 150.693L90.661 150.804C91.9486 151.089 93.5772 151.179 95.1989 151.207C96.8345 151.235 98.5188 151.179 100.21 151.103C103.593 150.929 107.059 150.665 110.469 150.359L111.297 154.196C107.873 155.301 104.449 156.191 100.899 156.858C99.1313 157.206 97.3286 157.456 95.4773 157.651C93.612 157.817 91.7328 157.922 89.5613 157.685C89.2759 157.644 89.0114 157.609 88.7191 157.553C88.4198 157.484 88.1345 157.435 87.8143 157.345C87.4802 157.24 87.1879 157.171 86.819 157.011C86.4571 156.858 86.0813 156.691 85.8307 156.545C84.6962 155.927 83.8123 155.239 83.005 154.537C81.432 153.105 80.1653 151.631 79.0308 150.102C77.8894 148.58 76.8732 147.023 75.9336 145.445C75.4742 144.645 75.0288 143.846 74.5973 143.04C74.1588 142.219 73.7621 141.441 73.3445 140.523L80.5133 137.138L80.5202 137.131Z" fill="#B65B52"/>
<path d="M74.472 129.054C65.4936 132.287 77.1376 154.627 82.0305 157.129C86.9234 159.632 95.2058 158.568 95.2058 158.568L95.7904 150.804C95.7904 150.804 91.5031 150.283 90.2224 149.977C88.1901 149.49 84.0628 140.496 81.2928 135.602C78.5227 130.709 74.4789 129.047 74.4789 129.047L74.472 129.054Z" fill="#263238"/>
<path opacity="0.2" d="M74.472 129.054C65.4936 132.287 77.1376 154.627 82.0305 157.129C86.9234 159.632 95.2058 158.568 95.2058 158.568L95.7904 150.804C95.7904 150.804 91.5031 150.283 90.2224 149.977C88.1901 149.49 84.0628 140.496 81.2928 135.602C78.5227 130.709 74.4789 129.047 74.4789 129.047L74.472 129.054Z" fill="white"/>
<path d="M94.6421 150.262L93.9113 159.277L96.4865 158.798L97.1616 150.741L94.6421 150.262Z" fill="#263238"/>
<path d="M101.741 109.626C102.096 111.705 101.198 115.757 98.5884 114.047C95.9784 112.337 101.129 106.054 101.741 109.626Z" fill="#263238"/>
<path d="M86.979 110.37C85.9768 115.458 85.1276 118.385 86.9999 121.589C89.8117 126.413 96.6256 125.683 99.1381 120.984C101.4 116.758 102.66 109.154 98.2542 105.922C93.9112 102.738 87.9882 105.282 86.979 110.37Z" fill="#B55B52"/>
<path d="M84.5501 104.761L90.3199 104.497L90.473 107.805C90.3617 107.743 90.2433 107.68 90.1389 107.618C90.1389 107.618 89.7701 112.448 87.0139 114.096C83.2694 111.246 82.1767 106.589 84.5501 104.754V104.761Z" fill="#263238"/>
<path d="M83.9514 114.04C84.0141 115.43 84.717 116.661 85.587 117.418C86.8885 118.551 88.2945 117.564 88.5659 115.952C88.8095 114.499 88.4267 112.157 86.8189 111.649C85.2321 111.142 83.8818 112.448 83.9584 114.04H83.9514Z" fill="#B55B52"/>
<path d="M94.2522 113.686C94.1478 114.096 94.2731 114.478 94.5445 114.548C94.816 114.617 95.1153 114.339 95.2266 113.929C95.331 113.519 95.2057 113.137 94.9343 113.067C94.6629 112.998 94.3636 113.276 94.2522 113.686Z" fill="#263238"/>
<path d="M98.8806 114.847C98.7762 115.257 98.9015 115.639 99.173 115.708C99.4444 115.778 99.7437 115.5 99.855 115.09C99.9594 114.68 99.8341 114.297 99.5627 114.228C99.2913 114.158 98.992 114.436 98.8806 114.847Z" fill="#263238"/>
<path d="M97.3565 114.68C97.3565 114.68 97.7184 117.182 98.4631 118.545C97.5792 119.003 96.4308 118.385 96.4308 118.385L97.3565 114.68Z" fill="#A02724"/>
<path d="M93.8277 119.393C93.9878 119.455 94.1618 119.518 94.3497 119.559C94.4193 119.573 94.4819 119.538 94.5028 119.469C94.5237 119.399 94.4819 119.337 94.4123 119.316C92.6097 118.864 92.1016 117.405 92.0946 117.391C92.0738 117.328 92.0042 117.293 91.9346 117.314C91.8719 117.335 91.8371 117.405 91.858 117.474C91.8789 117.53 92.3174 118.788 93.8207 119.393H93.8277Z" fill="#263238"/>
<path d="M93.2152 111.837C93.2987 111.872 93.3892 111.858 93.4658 111.802C94.3358 111.114 95.2058 111.385 95.2197 111.392C95.3519 111.434 95.4911 111.364 95.5329 111.232C95.5747 111.1 95.5051 110.961 95.3798 110.919C95.3311 110.905 94.2383 110.558 93.1595 111.413C93.0482 111.496 93.0343 111.656 93.1178 111.76C93.1456 111.795 93.1804 111.823 93.2222 111.837H93.2152Z" fill="#263238"/>
<path d="M101.296 113.762C101.337 113.783 101.386 113.783 101.442 113.776C101.574 113.748 101.665 113.616 101.637 113.484C101.365 112.143 100.307 111.726 100.259 111.705C100.133 111.656 99.9873 111.719 99.9385 111.844C99.8898 111.969 99.9525 112.115 100.078 112.164C100.119 112.177 100.934 112.511 101.15 113.588C101.163 113.672 101.226 113.741 101.303 113.769L101.296 113.762Z" fill="#263238"/>
<path d="M88.3502 108.855C88.3502 108.855 88.4755 108.973 88.6982 109.098C89.1436 109.355 89.9718 109.661 90.9254 109.189C92.3591 108.487 92.8115 104.413 96.8971 106.485C96.8971 106.485 98.296 106.061 99.347 107.347C100.398 108.632 99.6741 113.324 101.915 112.678C104.156 112.032 103.767 111.336 103.767 111.336C103.767 111.336 103.14 111.733 102.764 111.42C102.764 111.42 103.941 110.447 103.377 109.077C103.377 109.077 102.834 109.717 102.465 109.592C102.465 109.592 103.147 107.194 101.846 103.954C100.551 100.715 92.5819 101.438 92.5819 101.438C92.5819 101.438 91.5796 99.7631 87.9813 100.931C84.383 102.099 82.7404 106.429 83.3111 108.313" fill="#263238"/>
<path d="M135.859 154.947L135.344 153.014H114.234L104.518 153.981L104.149 154.947H135.859Z" fill="#263238"/>
<path opacity="0.5" d="M135.859 154.947L135.344 153.014H114.234L104.518 153.981L104.149 154.947H135.859Z" fill="white"/>
<path opacity="0.2" d="M114.234 153.014V154.947H135.859L135.344 153.014H114.234Z" fill="black"/>
<path d="M121.375 143.728C121.285 144.75 122.03 145.584 123.053 145.584H155.389C156.412 145.584 157.317 144.75 157.414 143.728L159.335 123.056C159.356 122.84 159.335 122.639 159.294 122.451C159.113 121.721 158.472 121.2 157.658 121.2H125.322C124.299 121.2 123.394 122.034 123.296 123.056L121.375 143.728Z" fill="#263238"/>
<path opacity="0.5" d="M121.375 143.728C121.285 144.75 122.03 145.584 123.053 145.584H155.389C156.412 145.584 157.317 144.75 157.414 143.728L159.335 123.056C159.356 122.84 159.335 122.639 159.294 122.451C159.113 121.721 158.472 121.2 157.658 121.2H125.322C124.299 121.2 123.394 122.034 123.296 123.056L121.375 143.728Z" fill="white"/>
<path opacity="0.1" d="M123.171 145.584H155.389C156.412 145.584 157.317 144.75 157.414 143.728L159.335 123.056C159.356 122.84 159.335 122.639 159.294 122.451H127.076C126.053 122.451 125.148 123.285 125.05 124.307L123.129 144.979C123.109 145.195 123.129 145.396 123.171 145.584Z" fill="black"/>
<path d="M145.381 132.905H138.692L140.474 152.034L129.901 153.619V154.947H152.173V153.619L147.615 152.034L145.381 132.905Z" fill="#263238"/>
<path opacity="0.5" d="M145.381 132.905H138.692L140.474 152.034L129.901 153.619V154.947H152.173V153.619L147.615 152.034L145.381 132.905Z" fill="white"/>
<path opacity="0.2" d="M138.692 132.905L143.648 154.648L147.615 154.53L145.381 132.905H138.692Z" fill="white"/>
<path d="M83.4783 251.836H123.985C124.424 251.836 124.779 251.482 124.779 251.044V248.465C124.779 248.027 124.424 247.673 123.985 247.673H85.5663V165.081H123.331C124.132 165.081 124.786 164.435 124.786 163.628V160.911H83.4852C82.3299 160.911 81.3972 161.842 81.3972 162.996V249.758C81.3972 250.912 82.3299 251.843 83.4852 251.843L83.4783 251.836Z" fill="#263238"/>
<g opacity="0.4">
<path d="M83.4783 251.836H123.985C124.424 251.836 124.779 251.482 124.779 251.044V248.465C124.779 248.027 124.424 247.673 123.985 247.673H85.5663V165.081H123.331C124.132 165.081 124.786 164.435 124.786 163.628V160.911H83.4852C82.3299 160.911 81.3972 161.842 81.3972 162.996V249.758C81.3972 250.912 82.3299 251.843 83.4852 251.843L83.4783 251.836Z" fill="white"/>
</g>
<path d="M185.066 161.592H78.2861C77.5413 161.592 76.9358 160.987 76.9358 160.243V156.963H186.417V160.25C186.417 160.994 185.811 161.599 185.066 161.599V161.592Z" fill="#407BFF"/>
<path opacity="0.2" d="M76.9358 159.277H186.417V156.963H76.9358V159.277Z" fill="black"/>
<path d="M74.646 157.56H188.72C189.444 157.56 190.029 156.976 190.029 156.254C190.029 155.531 189.444 154.947 188.72 154.947H74.646C73.9222 154.947 73.3375 155.531 73.3375 156.254C73.3375 156.976 73.9222 157.56 74.646 157.56Z" fill="#407BFF"/>
</g>
<defs>
<clipPath id="clip0_540_14381">
<rect width="348" height="259" fill="white" transform="translate(0 0.0930176)"/>
</clipPath>
</defs>
</svg>
