<svg width="344" height="186" viewBox="0 0 344 186" fill="none" xmlns="http://www.w3.org/2000/svg">
<g clip-path="url(#clip0_724_30245)">
<path d="M308.619 135.126H225.956C224.479 135.126 223.276 133.926 223.276 132.452V12.3132C223.276 10.8393 224.479 9.63916 225.956 9.63916H308.619C310.097 9.63916 311.299 10.8393 311.299 12.3132V132.452C311.299 133.926 310.097 135.126 308.619 135.126ZM225.961 9.75324C224.548 9.75324 223.395 10.9032 223.395 12.3132V132.452C223.395 133.862 224.548 135.012 225.961 135.012H308.624C310.037 135.012 311.19 133.862 311.19 132.452V12.3132C311.19 10.9032 310.037 9.75324 308.624 9.75324H225.961Z" fill="#E0E0E0"/>
<path d="M213.302 135.126H130.639C129.162 135.126 127.959 133.926 127.959 132.452V12.3132C127.959 10.8393 129.162 9.63916 130.639 9.63916H213.302C214.779 9.63916 215.982 10.8393 215.982 12.3132V132.452C215.982 133.926 214.779 135.126 213.302 135.126ZM130.639 9.75324C129.226 9.75324 128.073 10.9032 128.073 12.3132V132.452C128.073 133.862 129.226 135.012 130.639 135.012H213.302C214.715 135.012 215.868 133.862 215.868 132.452V12.3132C215.868 10.9032 214.715 9.75324 213.302 9.75324H130.639Z" fill="#E0E0E0"/>
<path d="M118.04 135.126H35.3811C33.904 135.126 32.7012 133.926 32.7012 132.452V12.3132C32.7012 10.8393 33.904 9.63916 35.3811 9.63916H118.044C119.521 9.63916 120.724 10.8393 120.724 12.3132V132.452C120.724 133.926 119.521 135.126 118.044 135.126H118.04ZM35.3811 9.75324C33.968 9.75324 32.8155 10.9032 32.8155 12.3132V132.452C32.8155 133.862 33.968 135.012 35.3811 135.012H118.044C119.457 135.012 120.61 133.862 120.61 132.452V12.3132C120.61 10.9032 119.457 9.75324 118.044 9.75324H35.3811Z" fill="#E0E0E0"/>
<path d="M343.5 162.994H0.5V163.048H343.5V162.994Z" fill="#E0E0E0"/>
<path d="M324.914 176.4H299.427V176.592H324.914V176.4Z" fill="#EBEBEB"/>
<path d="M233.589 178.481H226.898V178.673H233.589V178.481Z" fill="#EBEBEB"/>
<path d="M52.3204 170.559H19.0859V170.751H52.3204V170.559Z" fill="#EBEBEB"/>
<path d="M64.051 170.559H59.1758V170.751H64.051V170.559Z" fill="#EBEBEB"/>
<path d="M151.969 173.799H79.8887V173.991H151.969V173.799Z" fill="#EBEBEB"/>
<path d="M286.726 157.792C287.897 156.35 290.16 155.391 292.648 154.926C292.452 155.633 292.598 156.29 293.019 156.45C293.49 156.628 294.116 156.126 294.423 155.327C294.51 155.104 294.555 154.88 294.578 154.666C297.084 154.46 299.591 154.748 301.264 155.551C301.264 155.551 299.627 157.025 297.77 160.899C297.716 160.899 297.656 160.899 297.597 160.899C296.394 160.913 295.429 161.488 295.433 162.19C295.438 162.702 295.964 163.14 296.714 163.331C296.618 163.578 296.517 163.833 296.421 164.093C294.656 168.866 289.941 165.417 289.982 162.149C289.982 162.149 284.096 161.022 286.721 157.792H286.726Z" fill="#E6E6E6"/>
<path d="M280.923 151.631C279.477 150.075 276.825 149.149 273.957 148.807C274.232 149.601 274.118 150.358 273.646 150.573C273.125 150.81 272.371 150.285 271.959 149.4C271.845 149.149 271.771 148.898 271.735 148.661C268.863 148.615 266.027 149.131 264.18 150.171C264.18 150.171 266.155 151.727 268.561 156.003C268.625 155.998 268.689 155.989 268.758 155.985C270.125 155.907 271.273 156.496 271.319 157.294C271.351 157.878 270.784 158.412 269.947 158.691C270.075 158.964 270.207 159.247 270.335 159.539C272.709 164.846 277.822 160.561 277.529 156.843C277.529 156.843 284.156 155.118 280.923 151.631Z" fill="#E6E6E6"/>
<path d="M277.415 150.463C278.027 147.479 280.598 144.362 283.868 141.811C284.124 142.993 284.833 143.837 285.569 143.751C286.388 143.66 286.923 142.45 286.763 141.054C286.717 140.661 286.616 140.296 286.484 139.977C289.982 137.787 293.856 136.308 296.902 136.212C296.902 136.212 295.635 139.598 295.873 146.644C295.79 146.685 295.703 146.726 295.621 146.767C293.879 147.693 292.909 149.268 293.453 150.285C293.851 151.029 294.944 151.266 296.184 150.979C296.229 151.412 296.28 151.855 296.339 152.311C297.386 160.603 287.897 159.138 285.477 154.346C285.477 154.346 276.043 157.153 277.415 150.463Z" fill="#EBEBEB"/>
<path d="M284.083 169.409C282.496 160.598 284.869 151.143 290.435 144.12L290.705 144.33C285.199 151.275 282.848 160.63 284.421 169.346L284.083 169.405V169.409Z" fill="#E0E0E0"/>
<path d="M283.822 166.407C283.822 166.407 283.786 166.407 283.772 166.398C283.722 166.379 283.681 166.343 283.662 166.288C282.542 163.012 278.755 155.948 272.449 152.681C272.366 152.635 272.33 152.535 272.375 152.448C272.421 152.366 272.522 152.334 272.609 152.375C278.874 155.619 282.688 162.551 283.909 165.96C285.149 165.065 292.233 159.964 295.786 157.696C295.864 157.646 295.974 157.668 296.024 157.746C296.074 157.823 296.052 157.933 295.974 157.983C292.1 160.461 284.01 166.316 283.928 166.375C283.896 166.398 283.864 166.407 283.827 166.407H283.822Z" fill="#E0E0E0"/>
<path d="M294.002 172.184H274.03L274.039 168.533H293.979L294.002 172.184Z" fill="#E0E0E0"/>
<path d="M275.476 170.993L278.599 183.943H290.087L292.873 170.993H275.476Z" fill="#E0E0E0"/>
<path d="M276.921 167.899H275.147C275.083 167.899 275.032 167.849 275.032 167.785C275.032 167.721 275.083 167.671 275.147 167.671H276.921C276.985 167.671 277.035 167.721 277.035 167.785C277.035 167.849 276.985 167.899 276.921 167.899Z" fill="#E0E0E0"/>
<path d="M282.597 167.899H277.735C277.671 167.899 277.621 167.849 277.621 167.785C277.621 167.721 277.671 167.671 277.735 167.671H282.597C282.661 167.671 282.711 167.721 282.711 167.785C282.711 167.849 282.661 167.899 282.597 167.899Z" fill="#E0E0E0"/>
<path d="M238.652 18.875H237.829V82.9282H238.652V18.875Z" fill="#E0E0E0"/>
<path d="M289.896 18.875H289.073V82.9282H289.896V18.875Z" fill="#E0E0E0"/>
<path d="M293.121 22.9043H234.605L233.37 20.0295H294.355L293.121 22.9043Z" fill="#F0F0F0"/>
<path d="M293.121 26.8514H234.605L233.37 23.9766H294.355L293.121 26.8514Z" fill="#F0F0F0"/>
<path d="M293.121 30.7986H234.605L233.37 27.9238H294.355L293.121 30.7986Z" fill="#F0F0F0"/>
<path d="M293.121 34.7456H234.605L233.37 31.8708H294.355L293.121 34.7456Z" fill="#F0F0F0"/>
<path d="M293.121 38.6929H234.605L233.37 35.8181H294.355L293.121 38.6929Z" fill="#F0F0F0"/>
<path d="M293.121 42.6399H234.605L233.37 39.7651H294.355L293.121 42.6399Z" fill="#F0F0F0"/>
<path d="M293.121 46.5872H234.605L233.37 43.7124H294.355L293.121 46.5872Z" fill="#F0F0F0"/>
<path d="M293.121 50.5342H234.605L233.37 47.6594H294.355L293.121 50.5342Z" fill="#F0F0F0"/>
<path d="M293.121 54.4768H234.605L233.37 51.6021H294.355L293.121 54.4768Z" fill="#F0F0F0"/>
<path d="M293.121 58.4241H234.605L233.37 55.5493H294.355L293.121 58.4241Z" fill="#F0F0F0"/>
<path d="M293.121 62.3711H234.605L233.37 59.4963H294.355L293.121 62.3711Z" fill="#F0F0F0"/>
<path d="M293.121 66.3184H234.605L233.37 63.4436H294.355L293.121 66.3184Z" fill="#F0F0F0"/>
<path d="M293.121 70.2654H234.605L233.37 67.3906H294.355L293.121 70.2654Z" fill="#F0F0F0"/>
<path d="M293.121 74.2127H234.605L233.37 71.3379H294.355L293.121 74.2127Z" fill="#F0F0F0"/>
<path d="M293.121 78.1597H234.605L233.37 75.2849H294.355L293.121 78.1597Z" fill="#F0F0F0"/>
<path d="M293.121 82.107H234.605L233.37 79.2322H294.355L293.121 82.107Z" fill="#F0F0F0"/>
<path d="M294.355 82.1069H233.37V83.7497H294.355V82.1069Z" fill="#E0E0E0"/>
<path d="M296.482 16.4292H231.243V20.2623H296.482V16.4292Z" fill="#E0E0E0"/>
<path d="M231.911 55.0154C231.545 55.0154 231.248 54.7188 231.248 54.3537V31.9942C231.248 31.6291 231.545 31.3325 231.911 31.3325C232.277 31.3325 232.574 31.6291 232.574 31.9942V54.3537C232.574 54.7188 232.277 55.0154 231.911 55.0154Z" fill="#E0E0E0"/>
<path d="M232.153 19.4956H231.673V32.7744H232.153V19.4956Z" fill="#E0E0E0"/>
<path d="M213.227 50.6173L193.55 54.4799C192.68 54.6506 192.113 55.4927 192.284 56.3606L197.435 82.4814C197.606 83.3494 198.45 83.9146 199.32 83.7438L218.997 79.8813C219.867 79.7105 220.433 78.8685 220.262 78.0005L215.111 51.8797C214.94 51.0118 214.096 50.4466 213.227 50.6173Z" fill="#E6E6E6"/>
<path d="M198.256 60.1747L211.045 57.6642C211.485 57.5779 211.91 57.8665 211.996 58.3008L212.065 58.6545C212.152 59.0933 211.863 59.5175 211.427 59.6029L198.638 62.1133C198.199 62.1997 197.774 61.9111 197.688 61.4768L197.618 61.1231C197.532 60.6843 197.821 60.2601 198.256 60.1747Z" fill="#F0F0F0"/>
<path d="M199.232 65.1495L212.021 62.6391C212.46 62.5527 212.885 62.8413 212.971 63.2756L213.041 63.6294C213.127 64.0681 212.838 64.4923 212.403 64.5778L199.614 67.0882C199.174 67.1745 198.749 66.8859 198.664 66.4516L198.594 66.0979C198.507 65.6591 198.796 65.2349 199.232 65.1495Z" fill="#F0F0F0"/>
<path d="M200.212 70.1241L213.001 67.6137C213.441 67.5274 213.866 67.816 213.952 68.2503L214.021 68.604C214.108 69.0428 213.819 69.4669 213.383 69.5524L200.594 72.0628C200.155 72.1491 199.73 71.8605 199.644 71.4262L199.574 71.0725C199.488 70.6337 199.777 70.2096 200.212 70.1241Z" fill="#F0F0F0"/>
<path d="M201.197 75.0914L207.183 73.9163C207.622 73.83 208.048 74.1186 208.133 74.5529L208.203 74.9066C208.289 75.3454 208 75.7696 207.565 75.855L201.579 77.0301C201.139 77.1164 200.714 76.8278 200.628 76.3935L200.559 76.0398C200.472 75.601 200.761 75.1768 201.197 75.0914Z" fill="#F0F0F0"/>
<path d="M66.919 4.95175L49.1163 9.93473C47.4869 10.3908 46.5365 12.0784 46.9936 13.7042L53.8826 38.2071C54.3396 39.8329 56.031 40.7811 57.6604 40.3251L75.4632 35.3421C77.0926 34.886 78.0429 33.1984 77.5858 31.5726L70.6969 7.06967C70.2398 5.44391 68.5484 4.49569 66.919 4.95175Z" fill="#E6E6E6"/>
<path d="M66.9009 14.2752L53.9904 17.8892C53.4324 18.0444 52.8516 17.7204 52.6961 17.1637C52.5406 16.607 52.8653 16.0275 53.4233 15.8723L66.3338 12.2583C66.8917 12.1031 67.4725 12.4271 67.628 12.9838C67.7835 13.5405 67.4588 14.1201 66.9009 14.2752Z" fill="#F0F0F0"/>
<path d="M68.3501 19.4363L55.4396 23.0504C54.8816 23.2055 54.3008 22.8815 54.1453 22.3248C53.9898 21.7681 54.3145 21.1886 54.8725 21.0334L67.783 17.4194C68.341 17.2643 68.9218 17.5882 69.0773 18.145C69.2328 18.7017 68.908 19.2812 68.3501 19.4363Z" fill="#F0F0F0"/>
<path d="M69.8003 24.5972L56.8898 28.2112C56.3318 28.3664 55.751 28.0424 55.5955 27.4857C55.44 26.929 55.7647 26.3495 56.3227 26.1943L69.2332 22.5803C69.7911 22.4252 70.372 22.7491 70.5275 23.3058C70.6829 23.8626 70.3582 24.4421 69.8003 24.5972Z" fill="#F0F0F0"/>
<path d="M64.1886 31.7386L58.3439 33.3768C57.7859 33.5319 57.2051 33.2079 57.0496 32.6512C56.8941 32.0945 57.2188 31.515 57.7768 31.3598L63.6215 29.7217C64.1795 29.5665 64.7603 29.8905 64.9158 30.4472C65.0713 31.0039 64.7465 31.5834 64.1886 31.7386Z" fill="#F0F0F0"/>
<path d="M322.187 61.9331L310.764 59.2285C309.901 59.0242 309.036 59.5564 308.832 60.417L305.138 75.9477C304.933 76.8083 305.466 77.6716 306.329 77.8759L317.751 80.5806C318.614 80.7848 319.479 80.2527 319.684 79.392L323.378 63.8614C323.582 63.0007 323.049 62.1374 322.187 61.9331Z" fill="#E6E6E6"/>
<path d="M319.166 66.8476L311.245 64.9722C310.902 64.89 310.691 64.5478 310.774 64.2056C310.856 63.8633 311.199 63.6534 311.542 63.7356L319.463 65.611C319.806 65.6932 320.016 66.0354 319.934 66.3776C319.852 66.7199 319.509 66.9298 319.166 66.8476Z" fill="#F0F0F0"/>
<path d="M318.416 70.0144L310.495 68.1389C310.152 68.0568 309.941 67.7146 310.024 67.3723C310.106 67.0301 310.449 66.8202 310.792 66.9023L318.713 68.7778C319.056 68.8599 319.266 69.2022 319.184 69.5444C319.102 69.8866 318.759 70.0965 318.416 70.0144Z" fill="#F0F0F0"/>
<path d="M317.661 73.1814L309.74 71.3059C309.397 71.2238 309.186 70.8816 309.269 70.5393C309.351 70.1971 309.694 69.9872 310.037 70.0693L317.958 71.9448C318.301 72.0269 318.512 72.3691 318.429 72.7114C318.347 73.0536 318.004 73.2635 317.661 73.1814Z" fill="#F0F0F0"/>
<path d="M312.57 75.3261L308.985 74.4773C308.642 74.3952 308.432 74.0529 308.514 73.7107C308.596 73.3685 308.939 73.1586 309.282 73.2407L312.868 74.0894C313.211 74.1716 313.421 74.5138 313.339 74.8561C313.256 75.1983 312.913 75.4082 312.57 75.3261Z" fill="#F0F0F0"/>
<path d="M28.7612 102.644L20.2015 106.266C19.3853 106.611 19.0042 107.551 19.3503 108.365L24.3693 120.175C24.7154 120.989 25.6577 121.369 26.4739 121.024L35.0336 117.402C35.8498 117.057 36.2309 116.117 35.8847 115.302L30.8658 103.493C30.5197 102.679 29.5774 102.298 28.7612 102.644Z" fill="#E6E6E6"/>
<path d="M29.3935 107.327L23.1234 109.979C22.8536 110.093 22.538 109.965 22.4237 109.696C22.3094 109.426 22.4374 109.112 22.7073 108.997L28.9773 106.346C29.2471 106.232 29.5627 106.36 29.677 106.629C29.7914 106.898 29.6633 107.213 29.3935 107.327Z" fill="#F0F0F0"/>
<path d="M30.4599 109.837L24.1898 112.488C23.92 112.602 23.6045 112.475 23.4901 112.205C23.3758 111.936 23.5038 111.621 23.7737 111.507L30.0437 108.856C30.3135 108.742 30.6291 108.87 30.7434 109.139C30.8578 109.408 30.7297 109.723 30.4599 109.837Z" fill="#F0F0F0"/>
<path d="M31.5253 112.347L25.2553 114.998C24.9854 115.112 24.6699 114.984 24.5555 114.715C24.4412 114.446 24.5693 114.131 24.8391 114.017L31.1091 111.366C31.379 111.252 31.6945 111.379 31.8089 111.649C31.9232 111.918 31.7951 112.233 31.5253 112.347Z" fill="#F0F0F0"/>
<path d="M29.1607 116.303L26.3207 117.503C26.0509 117.617 25.7353 117.49 25.621 117.22C25.5066 116.951 25.6347 116.636 25.9045 116.522L28.7446 115.322C29.0144 115.208 29.33 115.336 29.4443 115.605C29.5586 115.874 29.4306 116.189 29.1607 116.303Z" fill="#F0F0F0"/>
<path d="M180.717 12.7603H64.4214C62.5448 12.7603 61.0234 14.2782 61.0234 16.1507V180.539C61.0234 182.411 62.5448 183.929 64.4214 183.929H180.717C182.593 183.929 184.115 182.411 184.115 180.539V16.1507C184.115 14.2782 182.593 12.7603 180.717 12.7603Z" fill="#407BFF"/>
<path opacity="0.3" d="M179.646 29.8313H65.4961V177.527H179.646V29.8313Z" fill="black"/>
<path d="M179.853 19.0439H65.7021V173.014H179.853V19.0439Z" fill="white"/>
<path d="M166.722 33.6826H78.832V38.4192H166.722V33.6826Z" fill="#E0E0E0"/>
<path d="M166.512 159.161H78.6221V163.897H166.512V159.161Z" fill="#E0E0E0"/>
<path d="M145.982 93.3232H82.2393V93.7796H145.982V93.3232Z" fill="#263238"/>
<path d="M145.982 100.004H82.2393V100.46H145.982V100.004Z" fill="#263238"/>
<path d="M166.183 103.079H154.128V91.0508H166.183V103.079ZM154.585 102.623H165.726V91.5071H154.585V102.623Z" fill="#263238"/>
<path d="M161.646 101.66L155.294 96.9418L156.945 94.7332L161.203 97.8955L167.052 90.9321L169.169 92.7026L161.646 101.66Z" fill="#407BFF"/>
<path d="M145.982 72.1821H82.2393V72.6384H145.982V72.1821Z" fill="#263238"/>
<path d="M145.982 78.8625H82.2393V79.3189H145.982V78.8625Z" fill="#263238"/>
<path d="M166.183 81.9382H154.128V69.9097H166.183V81.9382ZM154.585 81.4819H165.726V70.366H154.585V81.4819Z" fill="#263238"/>
<path d="M161.646 80.519L155.294 75.8007L156.945 73.5921L161.203 76.7544L167.052 69.791L169.169 71.5615L161.646 80.519Z" fill="#407BFF"/>
<path d="M145.982 51.0408H82.2393V51.4971H145.982V51.0408Z" fill="#263238"/>
<path d="M145.982 57.7212H82.2393V58.1775H145.982V57.7212Z" fill="#263238"/>
<path d="M166.183 60.7971H154.128V48.7686H166.183V60.7971ZM154.585 60.3408H165.726V49.2249H154.585V60.3408Z" fill="#263238"/>
<path d="M161.646 59.3779L155.294 54.6596L156.945 52.451L161.203 55.6133L167.052 48.6499L169.169 50.4204L161.646 59.3779Z" fill="#407BFF"/>
<path d="M145.982 114.099H82.2393V114.556H145.982V114.099Z" fill="#263238"/>
<path d="M145.982 120.784H82.2393V121.241H145.982V120.784Z" fill="#263238"/>
<path d="M166.183 123.855H154.128V111.827H166.183V123.855ZM154.585 123.399H165.726V112.283H154.585V123.399Z" fill="#263238"/>
<path d="M145.982 134.88H82.2393V135.336H145.982V134.88Z" fill="#263238"/>
<path d="M145.982 141.56H82.2393V142.017H145.982V141.56Z" fill="#263238"/>
<path d="M166.183 144.636H154.128V132.607H166.183V144.636ZM154.585 144.18H165.726V133.064H154.585V144.18Z" fill="#263238"/>
<path d="M142.09 9.79883H103.043V24.4922H142.09V9.79883Z" fill="#263238"/>
<path d="M134.933 11.2819H112.098L109.551 0.0930176H138.056L134.933 11.2819Z" fill="#263238"/>
<path opacity="0.3" d="M135.728 0.0930176C135.701 0.161465 132.687 9.67111 132.76 9.67111H135.353L138.097 0.0930176H135.728Z" fill="black"/>
<path opacity="0.3" d="M139.571 9.79883C139.571 9.79883 139.383 24.4922 139.571 24.4922H142.091V9.79883H139.571Z" fill="black"/>
<path d="M293.669 35.4622H281.609C278.518 35.4622 276.012 37.9628 276.012 41.0475V47.7918C276.012 50.8765 278.518 53.3772 281.609 53.3772H284.353L284.793 56.4938L288.122 53.3772H293.674C296.766 53.3772 299.272 50.8765 299.272 47.7918V41.0475C299.272 37.9628 296.766 35.4622 293.674 35.4622H293.669Z" fill="#407BFF"/>
<path d="M291.172 44.4425C291.172 45.2365 291.817 45.8799 292.612 45.8799C293.408 45.8799 294.053 45.2365 294.053 44.4425C294.053 43.6485 293.408 43.0051 292.612 43.0051C291.817 43.0051 291.172 43.6485 291.172 44.4425Z" fill="white"/>
<path d="M286.261 44.4425C286.261 45.2365 286.906 45.8799 287.701 45.8799C288.497 45.8799 289.142 45.2365 289.142 44.4425C289.142 43.6485 288.497 43.0051 287.701 43.0051C286.906 43.0051 286.261 43.6485 286.261 44.4425Z" fill="white"/>
<path d="M281.221 44.4425C281.221 45.2365 281.866 45.8799 282.661 45.8799C283.457 45.8799 284.102 45.2365 284.102 44.4425C284.102 43.6485 283.457 43.0051 282.661 43.0051C281.866 43.0051 281.221 43.6485 281.221 44.4425Z" fill="white"/>
<path d="M293.98 34.3943H286.329C286.109 34.3943 286.109 34.7365 286.329 34.7365H293.98C294.199 34.7365 294.199 34.3943 293.98 34.3943Z" fill="#407BFF"/>
<path d="M285.373 34.3943H284.733C284.641 34.3943 284.559 34.4719 284.564 34.5677C284.564 34.659 284.637 34.7411 284.733 34.7411H285.373C285.465 34.7411 285.547 34.6635 285.542 34.5677C285.542 34.4764 285.469 34.3943 285.373 34.3943Z" fill="#407BFF"/>
<path d="M30.4695 35.9868H42.104C45.0858 35.9868 47.5051 38.4007 47.5051 41.3759V47.883C47.5051 50.8582 45.0858 53.2721 42.104 53.2721H39.4561L39.0353 56.2792L35.8248 53.2721H30.4695C27.4877 53.2721 25.0684 50.8582 25.0684 47.883V41.3759C25.0684 38.4007 27.4877 35.9868 30.4695 35.9868Z" fill="#407BFF"/>
<path d="M32.8792 44.6477C32.8792 45.4143 32.2572 46.0349 31.4889 46.0349C30.7206 46.0349 30.0986 45.4143 30.0986 44.6477C30.0986 43.8811 30.7206 43.2605 31.4889 43.2605C32.2572 43.2605 32.8792 43.8811 32.8792 44.6477Z" fill="white"/>
<path d="M37.6175 44.6477C37.6175 45.4143 36.9955 46.0349 36.2272 46.0349C35.4589 46.0349 34.8369 45.4143 34.8369 44.6477C34.8369 43.8811 35.4589 43.2605 36.2272 43.2605C36.9955 43.2605 37.6175 43.8811 37.6175 44.6477Z" fill="white"/>
<path d="M42.4788 44.6477C42.4788 45.4143 41.8569 46.0349 41.0885 46.0349C40.3202 46.0349 39.6982 45.4143 39.6982 44.6477C39.6982 43.8811 40.3202 43.2605 41.0885 43.2605C41.8569 43.2605 42.4788 43.8811 42.4788 44.6477Z" fill="white"/>
<path d="M30.1725 35.2888H37.5538C37.7733 35.2888 37.7733 34.9465 37.5538 34.9465H30.1725C29.9529 34.9465 29.9529 35.2888 30.1725 35.2888Z" fill="#407BFF"/>
<path d="M38.4775 35.2887H39.0949C39.1864 35.2887 39.2687 35.2111 39.2687 35.1153C39.2687 35.024 39.1955 34.9419 39.0949 34.9419H38.4775C38.386 34.9419 38.3037 35.0195 38.3037 35.1153C38.3037 35.2066 38.3769 35.2887 38.4775 35.2887Z" fill="#407BFF"/>
<path d="M216.359 31.1094C222.002 26.9435 223.191 19.0025 219.016 13.3727C214.841 7.74284 206.882 6.55605 201.24 10.7219C195.597 14.8878 194.408 22.8288 198.583 28.4586C202.758 34.0885 210.717 35.2753 216.359 31.1094Z" fill="#407BFF"/>
<path opacity="0.3" d="M216.359 31.1094C222.002 26.9435 223.191 19.0025 219.016 13.3727C214.841 7.74284 206.882 6.55605 201.24 10.7219C195.597 14.8878 194.408 22.8288 198.583 28.4586C202.758 34.0885 210.717 35.2753 216.359 31.1094Z" fill="black"/>
<path d="M216.983 29.3247C211.948 34.2027 203.899 34.0841 199.01 29.06C194.121 24.036 194.24 16.0048 199.275 11.1268C204.311 6.24874 212.36 6.36739 217.249 11.3914C222.138 16.4155 222.019 24.4467 216.983 29.3247Z" fill="#407BFF"/>
<path d="M216.591 26.5592C220.089 21.9033 219.142 15.2993 214.476 11.8086C209.81 8.318 203.191 9.2626 199.693 13.9185C196.194 18.5743 197.141 25.1784 201.807 28.669C206.474 32.1596 213.092 31.215 216.591 26.5592Z" fill="white"/>
<path d="M203.062 27.7002L204.466 25.6285C204.507 25.6559 204.548 25.6833 204.589 25.7106L203.236 27.8188C203.176 27.7823 203.117 27.7413 203.062 27.7048V27.7002ZM200.263 24.6748C200.226 24.6155 200.194 24.5516 200.162 24.4923L202.371 23.315C202.394 23.3606 202.417 23.4017 202.444 23.4427L200.263 24.6748ZM207.123 29.1923L207.397 26.7054L207.553 26.7191L207.324 29.2106C207.256 29.206 207.192 29.1969 207.123 29.1923ZM199.088 20.5178C199.088 20.4493 199.088 20.3809 199.083 20.3124L201.589 20.2896V20.4402L199.088 20.5223V20.5178ZM211.413 28.6311L210.498 26.2993L210.64 26.2445L211.637 28.5398L211.577 28.5626C211.536 28.5809 211.472 28.6037 211.408 28.6311H211.413ZM199.989 16.2968C200.021 16.2329 200.048 16.1736 200.08 16.1097L202.312 17.246C202.289 17.2916 202.266 17.3327 202.248 17.3783L199.989 16.2968ZM213.082 24.4877C213.114 24.4512 213.141 24.4147 213.173 24.3782L215.108 25.9662C215.062 26.0209 215.017 26.0757 214.966 26.1305L213.077 24.4832L213.082 24.4877ZM204.242 14.9826L202.755 12.9703L202.92 12.8516L204.374 14.8914L204.246 14.9826H204.242ZM214.5 21.7133L214.532 21.5627L216.983 22.0875C216.969 22.1559 216.956 22.2198 216.937 22.2883L214.5 21.7133ZM207.132 13.778L206.743 11.3047C206.812 11.2956 206.876 11.2865 206.945 11.2773L207.288 13.7551L207.132 13.778ZM214.468 18.5921C214.454 18.5465 214.445 18.4963 214.431 18.4506L216.841 17.7616C216.86 17.8301 216.878 17.8985 216.896 17.9669L214.468 18.5921ZM210.251 14.0518L211.061 11.6835C211.129 11.7063 211.198 11.7291 211.262 11.7565L210.384 14.1019C210.338 14.0837 210.292 14.07 210.247 14.0518H210.251ZM212.986 15.8451L212.885 15.7356L214.706 14.0152C214.751 14.0654 214.802 14.1156 214.847 14.1658L212.986 15.8451Z" fill="black"/>
<path d="M207.992 20.8645C207.992 20.8645 207.974 20.8645 207.96 20.8645C207.892 20.8554 207.828 20.8143 207.796 20.755L205.276 16.4291C205.212 16.3196 205.248 16.1827 205.358 16.1188C205.468 16.055 205.605 16.0915 205.669 16.201L208.043 20.2759L211.912 16.5204C212.003 16.4337 212.145 16.4337 212.236 16.5204C212.323 16.6117 212.323 16.7531 212.236 16.8444L208.161 20.8006C208.12 20.8417 208.061 20.8645 208.001 20.8645H207.992Z" fill="black"/>
<path d="M208.729 20.8326C208.441 21.1612 207.942 21.1931 207.617 20.9056C207.288 20.6181 207.256 20.1208 207.544 19.7968C207.832 19.4682 208.331 19.4363 208.656 19.7238C208.985 20.0112 209.017 20.5086 208.729 20.8326Z" fill="black"/>
<path opacity="0.3" d="M201.082 13.4448C205.266 9.39272 211.953 9.49311 216.014 13.6684C217.011 14.6951 217.756 15.8724 218.25 17.1227C217.779 15.553 216.942 14.0745 215.721 12.8151C211.66 8.63979 204.974 8.5394 200.789 12.5961C197.634 15.6534 196.806 20.1983 198.329 24.0405C197.236 20.3945 198.155 16.2831 201.082 13.4494V13.4448Z" fill="black"/>
<path d="M32.4174 178.869C32.4174 178.677 30.4005 159.316 34.855 142.847L35.4221 142.993C31.0042 159.357 32.9845 178.613 32.9845 178.81L32.4174 178.864V178.869Z" fill="#263238"/>
<path d="M37.2469 147.027C37.2469 147.027 31.114 158.389 32.3397 171.778C32.3397 171.778 34.8916 155.328 37.2469 147.027Z" fill="#407BFF"/>
<path d="M25.0596 141.401C25.0596 141.401 34.0096 153.958 32.4592 169.998C32.4501 170.016 28.9698 149.852 25.0596 141.401Z" fill="#407BFF"/>
<path d="M32.4177 173.872C32.4177 173.872 34.3522 157.29 24.0714 152.503C24.044 152.503 29.5274 156.546 32.4177 173.872Z" fill="#407BFF"/>
<path d="M33.4738 143.107L33.2863 143.139C33.0164 143.189 32.8381 143.445 32.8884 143.714C32.8884 143.732 32.8975 143.746 32.9021 143.764L33.1308 144.59C33.2039 144.855 33.4738 145.01 33.739 144.937C33.8213 144.914 33.8945 144.873 33.954 144.814L34.2604 144.517C34.4616 144.326 34.7772 144.335 34.9692 144.536C35.015 144.586 35.0516 144.641 35.0744 144.704L35.4906 145.841C35.5821 146.096 35.8656 146.233 36.1263 146.137C36.1583 146.128 36.1857 146.11 36.2178 146.096L37.1736 145.53C37.4068 145.389 37.4846 145.088 37.3428 144.85C37.3245 144.819 37.3016 144.787 37.2742 144.759L37.1187 144.599C36.9312 144.399 36.9404 144.079 37.1416 143.892C37.2285 143.81 37.3428 143.764 37.4663 143.76H38.2986C38.573 143.755 38.788 143.527 38.7834 143.253C38.7834 143.231 38.7834 143.212 38.7788 143.189L38.6874 142.478C38.6508 142.208 38.4038 142.017 38.134 142.049C38.0791 142.058 38.0242 142.071 37.9739 142.094L37.919 142.122C37.6675 142.236 37.3702 142.126 37.2559 141.875C37.1965 141.748 37.1965 141.601 37.2468 141.474L37.5212 140.849C37.6309 140.598 37.5166 140.306 37.2651 140.201C37.2239 140.182 37.1782 140.169 37.1279 140.164L36.2452 140.045C35.9754 140.004 35.7238 140.191 35.6827 140.461C35.6827 140.484 35.6781 140.502 35.6781 140.525C35.6644 140.798 35.4311 141.013 35.1522 140.999C34.983 140.99 34.8275 140.899 34.7406 140.753L34.6262 140.547C34.489 140.31 34.1826 140.223 33.9448 140.36C33.9128 140.379 33.8808 140.401 33.8533 140.424L33.1994 141.036C32.9981 141.227 32.989 141.542 33.1811 141.743C33.1856 141.752 33.1948 141.757 33.1994 141.761L33.7253 142.245C33.9265 142.437 33.9357 142.751 33.7436 142.952C33.675 143.025 33.5835 143.075 33.4829 143.098L33.4738 143.107Z" fill="#407BFF"/>
<path opacity="0.7" d="M33.4738 143.107L33.2863 143.139C33.0164 143.189 32.8381 143.445 32.8884 143.714C32.8884 143.732 32.8975 143.746 32.9021 143.764L33.1308 144.59C33.2039 144.855 33.4738 145.01 33.739 144.937C33.8213 144.914 33.8945 144.873 33.954 144.814L34.2604 144.517C34.4616 144.326 34.7772 144.335 34.9692 144.536C35.015 144.586 35.0516 144.641 35.0744 144.704L35.4906 145.841C35.5821 146.096 35.8656 146.233 36.1263 146.137C36.1583 146.128 36.1857 146.11 36.2178 146.096L37.1736 145.53C37.4068 145.389 37.4846 145.088 37.3428 144.85C37.3245 144.819 37.3016 144.787 37.2742 144.759L37.1187 144.599C36.9312 144.399 36.9404 144.079 37.1416 143.892C37.2285 143.81 37.3428 143.764 37.4663 143.76H38.2986C38.573 143.755 38.788 143.527 38.7834 143.253C38.7834 143.231 38.7834 143.212 38.7788 143.189L38.6874 142.478C38.6508 142.208 38.4038 142.017 38.134 142.049C38.0791 142.058 38.0242 142.071 37.9739 142.094L37.919 142.122C37.6675 142.236 37.3702 142.126 37.2559 141.875C37.1965 141.748 37.1965 141.601 37.2468 141.474L37.5212 140.849C37.6309 140.598 37.5166 140.306 37.2651 140.201C37.2239 140.182 37.1782 140.169 37.1279 140.164L36.2452 140.045C35.9754 140.004 35.7238 140.191 35.6827 140.461C35.6827 140.484 35.6781 140.502 35.6781 140.525C35.6644 140.798 35.4311 141.013 35.1522 140.999C34.983 140.99 34.8275 140.899 34.7406 140.753L34.6262 140.547C34.489 140.31 34.1826 140.223 33.9448 140.36C33.9128 140.379 33.8808 140.401 33.8533 140.424L33.1994 141.036C32.9981 141.227 32.989 141.542 33.1811 141.743C33.1856 141.752 33.1948 141.757 33.1994 141.761L33.7253 142.245C33.9265 142.437 33.9357 142.751 33.7436 142.952C33.675 143.025 33.5835 143.075 33.4829 143.098L33.4738 143.107Z" fill="white"/>
<path d="M34.2923 169.606L35.0103 164.066H28.7494L29.4629 169.606C26.4673 170.632 24.4597 173.443 24.4551 176.606C24.51 178.317 24.9261 180.001 25.6716 181.543C26.3942 183.058 27.9354 184.021 29.6184 184.007H34.1734C35.8564 184.021 37.393 183.058 38.1111 181.543C38.8611 180.001 39.2818 178.321 39.3367 176.606C39.3367 173.434 37.3107 170.619 34.2969 169.606H34.2923Z" fill="#407BFF"/>
<path opacity="0.7" d="M34.2923 169.606L35.0103 164.066H28.7494L29.4629 169.606C26.4673 170.632 24.4597 173.443 24.4551 176.606C24.51 178.317 24.9261 180.001 25.6716 181.543C26.3942 183.058 27.9354 184.021 29.6184 184.007H34.1734C35.8564 184.021 37.393 183.058 38.1111 181.543C38.8611 180.001 39.2818 178.321 39.3367 176.606C39.3367 173.434 37.3107 170.619 34.2969 169.606H34.2923Z" fill="white"/>
<path d="M274.292 121.679L271.008 121.464C271.008 121.464 268.708 104.635 268.488 103.965C268.186 102.742 266.343 93.3597 265.616 90.964L265.968 90.9093C265.58 89.6772 265.909 88.3448 267.185 87.9295C268.461 87.5143 270.208 88.1988 270.606 89.4217C271.424 91.9086 272.988 101.35 273.222 102.481C273.222 102.509 273.222 102.536 273.222 102.559C273.967 107.483 274.292 121.679 274.292 121.679Z" fill="#B97964"/>
<path d="M274.292 121.679C274.292 123.207 272.925 124.001 271.937 124.106H266.728L266.426 124.033C266.334 124.006 266.279 123.915 266.307 123.819C266.316 123.787 266.334 123.755 266.357 123.732L267.295 122.966C268.328 122.117 269.737 121.838 271.008 121.473L274.292 121.679Z" fill="#B97964"/>
<path d="M267.629 82.7595C267.153 82.9923 266.796 83.0607 266.458 83.4121C262.982 86.9896 266.024 96.2391 266.024 96.2391L272.573 95.6231C272.573 95.6231 273.222 87.7425 272.481 85.283C271.695 82.7048 270.181 81.0666 267.629 82.7641V82.7595Z" fill="#407BFF"/>
<path opacity="0.2" d="M272.641 94.6832L269.225 90.7498L272.572 95.6232L272.641 94.6832Z" fill="black"/>
<path d="M289.626 173.074L290.202 179.134L294.771 179.631L295.233 173.119L289.626 173.074Z" fill="#E4897B"/>
<path d="M289.214 178.084C289.205 177.847 289.415 177.655 289.649 177.664L291.034 177.719C291.387 177.724 291.743 178.376 291.944 178.664C292.823 179.919 293.499 179.458 294.487 178.303C295.105 178.239 295.265 178.96 295.31 179.157L296.413 183.46C296.509 183.82 296.298 184.19 295.946 184.286C295.882 184.304 295.818 184.313 295.754 184.308C293.87 184.281 292.983 184.272 290.636 184.235L283.47 184.135C281.517 184.108 281.138 182.1 281.947 181.926C285.574 181.164 288.153 180.115 289.283 179.061C289.443 178.924 289.223 178.518 289.205 178.075L289.214 178.084Z" fill="#407BFF"/>
<path d="M289.85 180.489C289.813 180.489 289.772 180.471 289.754 180.434C289.488 179.992 289.031 179.686 288.528 179.608C288.464 179.599 288.423 179.54 288.432 179.476C288.441 179.412 288.496 179.371 288.565 179.38C289.132 179.467 289.653 179.818 289.95 180.316C289.982 180.37 289.964 180.439 289.909 180.471C289.891 180.48 289.873 180.489 289.85 180.489Z" fill="white"/>
<path d="M288.821 181.087C288.785 181.087 288.744 181.068 288.725 181.032C288.46 180.589 288.003 180.284 287.5 180.206C287.436 180.197 287.394 180.138 287.404 180.074C287.413 180.01 287.472 179.969 287.536 179.978C288.103 180.065 288.625 180.416 288.922 180.913C288.954 180.968 288.936 181.036 288.881 181.068C288.862 181.078 288.844 181.087 288.821 181.087Z" fill="white"/>
<path d="M287.554 181.689C287.517 181.689 287.476 181.671 287.458 181.634C287.192 181.192 286.735 180.886 286.232 180.808C286.168 180.799 286.127 180.74 286.136 180.676C286.145 180.612 286.205 180.571 286.269 180.58C286.836 180.667 287.353 181.018 287.654 181.516C287.686 181.57 287.668 181.639 287.613 181.671C287.595 181.68 287.577 181.689 287.554 181.689Z" fill="white"/>
<path d="M268.566 89.6911C270.277 92.7073 273.94 96.7503 283.709 102.965L295.755 93.5241C291.707 88.6005 289.608 85.7895 284.669 75.1574C284.198 74.1078 282.853 72.8621 281.751 72.5837C280.841 72.3693 279.881 72.5153 279.076 72.9944C278.184 73.5283 277.21 74.1398 276.263 74.8151C274.105 76.2662 272.051 77.8724 270.117 79.6247C268.768 80.8933 267.418 82.3444 266.458 83.4076C266.458 83.4076 266.458 83.5764 266.536 83.9688C266.874 85.9812 267.565 87.9205 268.566 89.6911Z" fill="#407BFF"/>
<path d="M261.157 61.2988C259.081 63.5439 258.921 66.0901 259.342 67.7968C260.17 70.0418 261.336 71.4929 262.465 73.5965L265.488 58.5381C264.13 59.1678 263.421 59.0309 261.162 61.2988H261.157Z" fill="#263238"/>
<path d="M263.938 59.3549C266.069 57.6529 268.708 58.4058 270.281 58.9945C272.065 59.9117 273.363 61.559 273.857 63.5257C274.273 65.3738 274.781 67.6143 273.889 68.8509C273.395 69.5627 272.627 70.0282 271.781 70.1423L260.823 63.909C261.464 62.1522 262.538 60.587 263.938 59.3549Z" fill="#263238"/>
<path d="M273.949 84.4433C274.946 84.6852 275.029 82.7504 275.623 81.8971C277.279 77.6305 275.98 75.0067 275.98 75.0067C274.397 74.5093 274.009 73.8659 273.108 71.6801C273.08 71.6162 273.044 71.5569 273.007 71.5022C272.838 71.2421 272.596 71.0367 272.312 70.9226C271.544 70.585 270.652 70.95 270.318 71.7303L268.566 73.7336C268.58 73.7655 268.594 73.802 268.608 73.8385C269.275 74.92 269.829 75.7413 270.231 76.403C270.263 76.4897 270.332 76.5673 270.377 76.6448C270.409 76.7315 270.469 76.8183 270.519 76.8958C271.031 77.8313 270.304 79.1318 269.888 79.8391C269.65 80.2954 270.583 83.6265 273.949 84.4387V84.4433Z" fill="#B97964"/>
<path opacity="0.2" d="M267.743 74.0256C267.748 73.9845 267.743 73.948 267.743 73.9069L270.034 72.5791C270.611 71.9539 271.576 71.9174 272.184 72.4923C272.403 72.7023 272.559 72.9715 272.628 73.2681L270.451 76.7817C270.451 76.7817 268.841 74.3267 268.818 74.3267C268.795 74.3267 267.748 74.0256 267.748 74.0256H267.743Z" fill="black"/>
<path d="M272.623 64.3974C273.492 68.6959 273.954 70.4892 272.467 73.3001C270.226 77.5256 264.949 77.8268 262.831 73.9161C260.956 70.3888 259.831 63.9684 263.376 61.0343C266.92 58.1002 271.74 60.0943 272.618 64.3974H272.623Z" fill="#B97964"/>
<path d="M275.326 67.6006C275.106 68.6274 274.48 69.435 273.803 69.8685C272.787 70.5165 271.653 68.9194 271.676 67.6782C271.699 66.5602 272.573 65.5335 273.711 65.3921C274.836 65.2552 275.573 66.4233 275.321 67.6006H275.326Z" fill="#B97964"/>
<path opacity="0.2" d="M272.924 68.2715C272.874 68.2715 272.828 68.235 272.815 68.1848C272.71 67.7467 272.778 67.2721 273.007 66.8843C273.235 66.4918 273.62 66.2044 274.05 66.0903C274.109 66.0766 274.173 66.1085 274.191 66.1724C274.21 66.2317 274.173 66.2956 274.109 66.3139C273.734 66.4143 273.405 66.6652 273.203 67.0029C273.002 67.3406 272.943 67.7558 273.034 68.1346C273.048 68.1939 273.011 68.2578 272.952 68.2715C272.943 68.2715 272.934 68.2715 272.924 68.2715Z" fill="black"/>
<path d="M267.528 67.5779C267.647 68.0296 267.528 68.4768 267.254 68.5727C266.984 68.6685 266.664 68.3856 266.545 67.9338C266.426 67.4821 266.545 67.0349 266.819 66.939C267.089 66.8432 267.409 67.1261 267.528 67.5779Z" fill="#263238"/>
<path d="M263.416 68.9423C263.531 69.3803 263.407 69.8138 263.133 69.9097C262.863 70.0055 262.547 69.7317 262.433 69.2936C262.319 68.8556 262.442 68.4221 262.717 68.3262C262.987 68.2304 263.302 68.5042 263.416 68.9423Z" fill="#263238"/>
<path d="M267.908 65.7389C267.858 65.7617 267.798 65.7663 267.744 65.7389C266.911 65.3556 266.257 65.8074 266.248 65.8119C266.152 65.8804 266.024 65.853 265.965 65.7526C265.905 65.6522 265.937 65.5108 266.033 65.4423C266.065 65.4195 266.888 64.8491 267.922 65.3282C268.023 65.3739 268.068 65.5062 268.018 65.6203C267.995 65.675 267.954 65.7161 267.904 65.7389H267.908Z" fill="#263238"/>
<path d="M261.368 67.2995C261.322 67.2995 261.276 67.2812 261.244 67.2401C261.176 67.158 261.185 67.0211 261.263 66.9344C262.045 66.0765 262.882 66.2499 262.914 66.2591C263.014 66.2819 263.069 66.396 263.042 66.51C263.014 66.6287 262.909 66.7017 262.813 66.6834C262.781 66.6743 262.132 66.5511 261.51 67.2356C261.469 67.2812 261.418 67.304 261.368 67.2995Z" fill="#263238"/>
<path d="M264.468 68.3628C264.468 68.3628 264.313 70.1561 263.887 71.3836C263.814 71.5981 263.97 71.8217 264.194 71.8308C264.77 71.8491 265.314 71.4749 265.314 71.4749L264.464 68.3674L264.468 68.3628Z" fill="#A24E3F"/>
<path d="M266.979 66.9026L265.95 66.9938C265.95 66.9938 266.7 67.5369 266.979 66.9026Z" fill="#263238"/>
<path d="M262.818 68.3035L261.789 68.3947C261.789 68.3947 262.539 68.9377 262.818 68.3035Z" fill="#263238"/>
<path d="M265.858 72.5795C266.297 72.8898 266.951 73.5788 266.951 73.5788C267.025 73.5286 267.098 73.4784 267.166 73.4282C268.141 72.7346 268.369 72.0867 268.323 71.5847C268.301 71.3109 268.191 71.0736 268.081 70.9002C267.953 70.6949 267.82 70.5808 267.82 70.5808C267.519 71.2607 266.659 71.9771 266.188 72.3422C265.991 72.4973 265.858 72.584 265.858 72.584V72.5795Z" fill="#263238"/>
<path d="M266.188 72.3373L266.517 72.6248C267.431 71.9677 267.989 71.3836 268.085 70.8953C267.957 70.69 267.825 70.5759 267.825 70.5759C267.523 71.2558 266.663 71.9723 266.192 72.3373H266.188Z" fill="white"/>
<path d="M267.171 73.428C268.145 72.7344 268.373 72.0864 268.328 71.5845C268.003 71.8354 267.642 72.1731 267.395 72.5701C267.203 72.8759 267.157 73.1725 267.166 73.428H267.171Z" fill="#DE5753"/>
<path d="M271.392 65.7937C271.392 65.7937 268.342 63.5943 267.729 61.2214C267.729 61.2214 258.642 61.3903 261.144 68.737C261.144 68.737 257.8 62.668 264.628 59.8844C271.456 57.1009 275.019 66.0675 272.549 70.0968C272.531 70.0649 273.281 67.1764 271.392 65.7892V65.7937Z" fill="#263238"/>
<path d="M277.649 58.2781C277.923 60.2631 276.556 62.1203 274.589 62.4215C272.627 62.7226 270.812 61.3582 270.537 59.3733C270.281 57.5069 271.475 55.7319 273.295 55.2892C275.326 54.8968 277.269 56.2292 277.649 58.2781Z" fill="#263238"/>
<path d="M261.628 61.6046C260.901 62.7317 260.544 64.0641 260.613 65.4011C260.823 66.332 262.227 66.697 262.227 66.697L263.302 64.2968L263.704 66.0765C266.147 65.1866 267.294 63.4891 267.715 61.3399L265.749 59.1587C265.749 59.1587 262.3 60.6737 261.633 61.6046H261.628Z" fill="#263238"/>
<path d="M274.159 61.2807C274.603 62.2389 275.403 63.0147 276.364 63.4254C275.929 63.5714 275.449 63.5714 275.019 63.4254C275.12 63.7859 275.28 64.1281 275.495 64.4293C274.287 63.8224 273.386 62.6314 273.121 61.2898L274.159 61.2761V61.2807Z" fill="#263238"/>
<path d="M282.474 102.376L295.037 92.6387L282.474 102.376Z" fill="#407BFF"/>
<path d="M318.635 166.854L322.71 171.308L326.688 168.971L323.172 163.509L318.635 166.854Z" fill="#E4897B"/>
<path d="M321.297 171.089C321.146 170.906 321.2 170.623 321.393 170.486L322.527 169.67C322.81 169.455 323.483 169.752 323.816 169.857C325.262 170.313 325.527 169.528 325.623 168C326.076 167.566 326.634 168.045 326.789 168.168L330.233 170.906C330.525 171.134 330.58 171.554 330.356 171.851C330.315 171.906 330.269 171.951 330.219 171.988C328.71 173.129 327.992 173.672 326.112 175.091L320.359 179.439C318.79 180.626 317.29 179.261 317.83 178.627C320.258 175.78 321.681 173.352 321.951 171.814C321.992 171.604 321.58 171.417 321.301 171.08L321.297 171.089Z" fill="#407BFF"/>
<path d="M321.607 172.736C321.566 172.736 321.53 172.713 321.507 172.677C321.475 172.622 321.493 172.554 321.553 172.522C322.056 172.239 322.678 172.198 323.213 172.407C323.272 172.43 323.3 172.499 323.277 172.554C323.254 172.613 323.185 172.64 323.13 172.617C322.659 172.43 322.11 172.467 321.667 172.718C321.649 172.727 321.63 172.731 321.612 172.731L321.607 172.736Z" fill="white"/>
<path d="M321.145 173.845C321.104 173.845 321.068 173.822 321.045 173.786C321.013 173.731 321.031 173.662 321.091 173.63C321.594 173.348 322.216 173.306 322.751 173.516C322.81 173.539 322.838 173.608 322.815 173.662C322.792 173.722 322.728 173.749 322.668 173.726C322.197 173.539 321.649 173.576 321.205 173.827C321.187 173.836 321.168 173.84 321.15 173.84L321.145 173.845Z" fill="white"/>
<path d="M320.501 175.104C320.46 175.104 320.423 175.082 320.4 175.045C320.368 174.99 320.387 174.922 320.446 174.89C320.949 174.607 321.571 174.566 322.106 174.776C322.166 174.799 322.193 174.867 322.17 174.922C322.147 174.981 322.079 175.009 322.024 174.986C321.553 174.799 321.004 174.835 320.56 175.086C320.542 175.095 320.524 175.1 320.506 175.1L320.501 175.104Z" fill="white"/>
<path d="M283.709 102.965C283.709 102.965 287.349 149.309 287.377 149.569L289.654 176.692H295.563C295.563 176.692 295.604 175.132 295.911 173.074C298.609 155.04 295.842 149.208 295.842 149.208C295.842 149.208 298.216 114.391 299.048 111.768C299.13 111.494 296.304 91.5391 283.709 102.965Z" fill="#263238"/>
<path d="M283.617 102.91L283.782 103.18C286.219 106.47 290.834 109.97 293.244 112.972L294.086 114.866C294.086 114.866 312.736 101.852 301.321 96.2528C300.845 96.0201 296.262 93.5879 296.262 93.5879C293.239 92.8487 283.617 102.906 283.617 102.906V102.91Z" fill="#263238"/>
<path d="M308.455 116.016C308.528 122.026 309.214 137.618 310.028 143.568C310.028 143.568 314.711 147.246 317.122 150.947L324.43 165.289L319.76 168.369L304.742 153.585C301.357 150.158 300.132 147.812 299.052 144.8C296.409 137.445 295.897 128.501 294.731 121.318C294.195 117.987 291.836 107.168 292.654 103.924C293.756 99.5293 294.987 92.3423 300.054 95.6004C305.021 97.8911 307.957 99.3148 308.455 116.025V116.016Z" fill="#263238"/>
<path opacity="0.2" d="M296.797 135.87L292.48 107.798L287.555 106.159L291.401 109.732L296.797 135.87Z" fill="black"/>
<path opacity="0.2" d="M272.97 91.0507C272.97 91.0507 281.152 95.0252 283.754 93.5559C286.357 92.0865 285.881 87.1172 285.831 86.1498C285.785 85.2007 285.657 84.174 285.657 84.174L286.27 84.101L284.985 76.5398C284.985 76.5398 282.904 90.3069 282.469 90.3069C282.035 90.3069 272.966 91.0552 272.966 91.0552L272.97 91.0507Z" fill="black"/>
<path d="M284.486 79.3964C285.14 82.2073 284.998 87.4915 284.911 89.5951C284.884 90.5853 284.504 91.5299 283.841 92.2554C283.032 93.1133 282.158 93.5559 279.446 92.7984C277.127 92.1505 266.86 89.4354 266.86 89.4354L267.514 86.7979C267.514 86.7979 272.824 87.4778 279.725 88.2626C279.643 84.8631 279.771 80.2406 280.054 79.1317C280.53 77.311 283.654 75.8371 284.486 79.401V79.3964Z" fill="#B97964"/>
<path d="M279.615 73.1357C278.152 74.2309 277.969 83.809 277.969 83.809H285.153C285.153 83.809 285.455 77.1376 284.82 75.5223C283.832 72.9121 281.257 71.9082 279.62 73.1357H279.615Z" fill="#407BFF"/>
<path d="M268.571 86.8115L265.991 85.5247C265.703 85.3833 265.397 85.2966 265.077 85.2737L263.508 85.1597C262.882 85.1186 262.337 85.6023 262.296 86.2411C262.296 86.2411 262.296 86.2503 262.296 86.2548L262.218 87.6648C262.2 88.2261 262.575 88.7189 263.115 88.8376L264.715 89.1889C264.715 89.1889 267.478 90.3115 268.306 88.9151L268.58 86.8161L268.571 86.8115Z" fill="#B97964"/>
<path d="M262.89 86.7157C262.845 86.4328 261.921 86.2685 261.358 86.1863C260.796 86.0996 259.282 86.0403 258.962 85.7757C258.642 85.5064 258.697 84.9452 259.012 84.9497C259.332 84.9543 260.343 84.9406 261.139 85.0136C261.935 85.0866 263.471 85.0958 263.805 85.1779C264.134 85.2646 262.89 86.7157 262.89 86.7157Z" fill="#B97964"/>
<path d="M213.915 103.522L221.932 107.939L230.424 96.061L233.79 102.13C233.79 102.13 225.673 114.273 222.627 114.446C219.581 114.619 211.601 106.164 211.601 106.164L213.915 103.522Z" fill="#E4897B"/>
<path d="M214.326 103.891C214.326 103.891 214.866 102.395 214.289 101.213C213.713 100.031 213.571 98.9358 213.082 98.0871C212.593 97.2383 212.341 98.5343 212.346 99.2507C212.35 99.9671 212.35 100.779 211.811 100.697C211.271 100.615 207.59 97.6901 206.83 97.6627C206.067 97.6353 206.515 98.2924 206.515 98.2924C206.515 98.2924 205.6 97.6079 205.23 97.8909C205.134 97.9639 205.028 98.2924 205.399 98.6712C206.222 99.5199 208.047 101.217 208.047 101.217C207.946 101.117 205.545 99.1868 205.147 98.9449C204.626 98.6301 204.219 98.7442 204.045 99.0499C203.798 99.488 206.693 101.984 206.739 102.171C206.739 102.171 205.12 100.679 204.507 100.884C203.894 101.09 204.859 102.084 205.879 102.801C206.812 103.458 208.477 104.987 209.492 105.562C210.745 106.269 211.742 106.465 212.835 105.676C213.928 104.886 214.326 103.891 214.326 103.891Z" fill="#E4897B"/>
<path opacity="0.3" d="M208.724 100.273C208.696 100.273 208.669 100.264 208.646 100.241C207.987 99.6157 207.292 99.0088 206.583 98.4475C206.533 98.4064 206.524 98.338 206.565 98.2878C206.606 98.2376 206.679 98.233 206.725 98.2696C207.443 98.8354 208.143 99.4469 208.806 100.077C208.852 100.118 208.852 100.191 208.806 100.236C208.783 100.259 208.751 100.273 208.724 100.273Z" fill="black"/>
<path opacity="0.3" d="M207.352 102.888C207.352 102.888 207.32 102.887 207.306 102.878C207.247 102.856 207.22 102.787 207.247 102.728C207.718 101.628 208.537 100.661 209.538 100.004C209.589 99.9671 209.662 99.9853 209.698 100.036C209.735 100.09 209.717 100.159 209.666 100.195C208.697 100.825 207.915 101.76 207.457 102.819C207.439 102.86 207.398 102.888 207.352 102.888Z" fill="black"/>
<path opacity="0.3" d="M212.24 104.024C212.213 104.024 212.185 104.015 212.167 103.996C211.783 103.668 211.513 103.198 211.431 102.7C211.344 102.203 211.44 101.669 211.691 101.231C211.723 101.176 211.792 101.158 211.847 101.19C211.902 101.222 211.92 101.29 211.888 101.345C211.664 101.738 211.577 102.217 211.655 102.664C211.733 103.111 211.975 103.536 212.318 103.828C212.368 103.869 212.373 103.942 212.332 103.987C212.309 104.015 212.277 104.028 212.245 104.028L212.24 104.024Z" fill="black"/>
<path d="M242.123 89.1706C242.21 89.9783 242.169 90.6856 241.899 91.0461C241.62 91.4157 241.14 91.6713 240.618 91.8447C241.08 92.7299 242.242 93.4418 242.242 93.4418H245.502C245.502 93.4418 246.975 93.7703 247.538 93.4509C248 93.1908 248.489 92.9444 248.928 92.6478C249.152 92.4972 249.362 92.3192 249.568 92.1321C248.882 91.7306 248.256 91.1876 248.036 90.4757C247.469 88.6368 248.077 82.3533 248.077 82.3533L241.199 85.1733C241.199 85.1733 241.254 85.3285 241.332 85.5886C241.551 86.3141 241.99 87.8656 242.123 89.157V89.1706Z" fill="#E4897B"/>
<path d="M237.994 72.0497C238.181 71.8124 237.66 66.4324 246.939 69.111C253.827 71.096 251.224 76.4851 251.224 76.4851L243.345 70.8085L237.989 72.0497H237.994Z" fill="#263238"/>
<path opacity="0.2" d="M246.939 85.5567C246.939 85.5567 245.462 88.6232 242.064 88.5182C241.931 87.2223 241.487 85.6754 241.272 84.9498C241.529 84.854 241.693 84.7947 241.693 84.7947L246.939 85.5567Z" fill="black"/>
<path d="M238.176 70.9453C238.176 70.9453 236.173 76.5991 238.839 79.4282C241.506 82.2574 243.582 71.4199 243.582 71.4199L238.172 70.9453H238.176Z" fill="#263238"/>
<path d="M246.944 85.771C244.844 87.3499 242.471 87.7378 240.472 86.6563C239.187 85.9673 238.135 84.7854 237.632 83.2796C237.564 83.0833 237.509 82.878 237.458 82.6681C236.617 78.8213 237.326 72.5059 241.542 70.8905C244.543 69.7178 247.931 71.1963 249.102 74.1943C249.441 75.043 249.569 75.9648 249.482 76.8774C249.148 81.1257 249.395 83.923 246.948 85.7665L246.944 85.771Z" fill="#E4897B"/>
<path d="M243.71 77.9865C243.733 78.4291 243.459 78.7896 243.161 78.785C242.864 78.7804 242.64 78.4108 242.645 77.9636C242.649 77.5164 242.901 77.1605 243.193 77.1651C243.482 77.1696 243.715 77.5347 243.71 77.9865Z" fill="#263238"/>
<path d="M239.434 77.9818C239.457 78.4244 239.178 78.7849 238.885 78.7804C238.592 78.7758 238.364 78.4016 238.368 77.959C238.373 77.5118 238.624 77.1559 238.917 77.1604C239.205 77.165 239.438 77.5574 239.434 77.9818Z" fill="#263238"/>
<path d="M240.294 78.0593C239.859 79.1134 239.279 80.0991 238.574 80.9934C239.05 81.3494 239.658 81.4726 240.239 81.3357L240.294 78.0593Z" fill="#DE5753"/>
<path d="M237.627 76.1611C237.691 76.1976 237.774 76.1976 237.842 76.1611C238.281 75.8873 238.826 75.8326 239.31 76.0196C239.411 76.0698 239.535 76.0288 239.58 75.9284C239.631 75.828 239.589 75.7048 239.489 75.6592C238.881 75.4082 238.19 75.4675 237.637 75.8143C237.541 75.8691 237.504 75.9923 237.559 76.0881C237.577 76.1155 237.6 76.1383 237.627 76.1565V76.1611Z" fill="#263238"/>
<path d="M243.788 76.3893C243.829 76.3893 243.87 76.3756 243.902 76.3528C243.98 76.2707 243.971 76.1429 243.889 76.0653C243.409 75.6181 242.736 75.431 242.091 75.5679C241.982 75.5953 241.918 75.7094 241.95 75.8143C241.982 75.9193 242.091 75.9832 242.201 75.9558C242.713 75.8645 243.239 76.0151 243.619 76.3711C243.669 76.403 243.733 76.4076 243.793 76.3893H243.788Z" fill="#263238"/>
<path d="M246.454 71.5066L246.098 73.3638C246.692 73.7334 247.017 74.4498 246.683 75.1708C245.97 76.704 246.701 79.2092 247.845 80.2679C247.845 80.2679 247.927 79.588 248.494 79.7887C249.061 79.9895 248.517 82.8506 247.913 84.6075C247.913 84.6075 249.226 83.7313 250.442 80.0671C251.567 76.6767 251.869 73.8064 251.252 72.4238L246.454 71.5066Z" fill="#263238"/>
<path d="M251.275 80.4095C250.781 81.3632 249.93 82.0841 248.906 82.4127C247.547 82.8371 246.82 81.6324 247.159 80.3273C247.47 79.1683 248.544 77.5164 249.93 77.6716C251.316 77.8313 251.865 79.2276 251.275 80.4049V80.4095Z" fill="#E4897B"/>
<path d="M238.177 70.9453C237.939 71.3879 238.693 73.0216 240.413 73.8019C242.133 74.5867 240.303 72.8482 240.303 72.8482C240.303 72.8482 243.756 74.03 243.852 73.5874C243.944 73.1448 242.878 72.5014 242.878 72.5014C242.878 72.5014 245.755 73.8521 248.082 73.2771C250.415 72.7021 246.166 68.8508 243.459 68.9284C240.751 69.006 238.899 69.5992 238.181 70.9362L238.177 70.9453Z" fill="#263238"/>
<path opacity="0.1" d="M248.188 80.6558L247.964 80.6147C248.101 79.8664 248.581 79.1956 249.249 78.8214C249.638 78.6024 250.013 78.5932 250.246 78.7986L250.095 78.972C249.908 78.8077 249.592 78.8944 249.359 79.0222C248.751 79.3644 248.311 79.9759 248.188 80.6604V80.6558Z" fill="black"/>
<path d="M241.684 82.8508C242.032 82.8599 242.375 82.7869 242.677 82.6181C243.042 82.4173 243.317 82.0933 243.527 81.7374C243.642 81.5457 243.344 81.3769 243.23 81.564C243.047 81.8697 242.814 82.1435 242.503 82.3215C242.247 82.4629 241.972 82.5131 241.684 82.5086C241.465 82.504 241.465 82.8462 241.684 82.8508Z" fill="#263238"/>
<path d="M258.893 184.094H260.691L257.366 145.348H255.573L258.893 184.094Z" fill="#407BFF"/>
<path opacity="0.6" d="M258.893 184.094H260.691L257.366 145.348H255.573L258.893 184.094Z" fill="white"/>
<path d="M240.509 184.094H238.712L242.037 145.348H243.834L240.509 184.094Z" fill="#407BFF"/>
<path opacity="0.6" d="M240.509 184.094H238.712L242.037 145.348H243.834L240.509 184.094Z" fill="white"/>
<path d="M251.243 145.352H214.482C216.028 141.533 218.841 139.192 221.882 139.192H248.773L251.247 145.352H251.243Z" fill="#263238"/>
<path d="M234.34 184.094H236.137L232.817 145.348H231.02L234.34 184.094Z" fill="#407BFF"/>
<path opacity="0.6" d="M234.34 184.094H236.137L232.817 145.348H231.02L234.34 184.094Z" fill="white"/>
<path d="M215.955 184.094H214.157L217.482 145.348H219.279L215.955 184.094Z" fill="#407BFF"/>
<path opacity="0.6" d="M215.955 184.094H214.157L217.482 145.348H219.279L215.955 184.094Z" fill="white"/>
<path d="M259.758 145.352H239.553C241.313 141.533 244.506 139.192 247.968 139.192H255.12C258.578 139.192 260.284 141.182 259.762 145.352H259.758Z" fill="#263238"/>
<path opacity="0.5" d="M259.758 145.352H239.553C241.313 141.533 244.506 139.192 247.968 139.192H255.12C258.578 139.192 260.284 141.182 259.762 145.352H259.758Z" fill="black"/>
<path d="M208.967 169.962L207.494 179.334L204.105 178.873L203.062 169.391L208.967 169.962Z" fill="#E4897B"/>
<path d="M202.326 176.72C202.271 176.145 202.312 175.666 202.989 175.629L203.945 175.579C204.306 175.579 204.562 175.798 204.855 175.985C207.046 177.377 207.942 175.579 208.793 175.579C209.886 175.579 209.181 178.773 209.232 178.937L210.425 182.643C210.531 182.953 210.32 183.619 209.959 183.71C209.895 183.724 209.826 183.733 209.762 183.733H197.122C195.109 183.733 195.086 181.479 195.914 181.319C199.637 180.617 201.105 179.503 202.335 178.686C202.335 178.686 202.413 177.6 202.335 176.72H202.326Z" fill="#263238"/>
<path opacity="0.4" d="M197.117 183.733H209.758C209.827 183.733 209.891 183.728 209.955 183.71C210.202 183.651 210.375 183.322 210.43 183.021V182.738H195.503C195.7 183.263 196.203 183.728 197.117 183.728V183.733Z" fill="white"/>
<path d="M200.35 180.055C200.506 180.183 200.648 180.329 200.776 180.484C200.789 180.502 200.808 180.521 200.821 180.539C200.812 180.525 200.817 180.534 200.821 180.539C200.831 180.548 200.835 180.562 200.844 180.571C200.876 180.612 200.904 180.653 200.931 180.694C200.986 180.776 201.036 180.863 201.087 180.95C201.128 181.027 201.247 181.059 201.32 181.009C201.402 180.959 201.425 180.858 201.379 180.776C201.178 180.407 200.908 180.078 200.588 179.809C200.52 179.749 200.41 179.736 200.346 179.809C200.286 179.873 200.273 179.991 200.346 180.051L200.35 180.055Z" fill="#407BFF"/>
<path d="M201.512 179.412C201.654 179.535 201.787 179.667 201.906 179.813C201.919 179.832 201.933 179.85 201.947 179.863C201.951 179.873 201.961 179.877 201.965 179.886C201.974 179.895 201.984 179.914 201.97 179.895C201.997 179.932 202.025 179.968 202.052 180.005C202.107 180.083 202.157 180.16 202.208 180.242C202.253 180.32 202.363 180.352 202.441 180.302C202.519 180.251 202.551 180.151 202.5 180.069C202.299 179.731 202.048 179.425 201.75 179.17C201.682 179.111 201.572 179.097 201.508 179.17C201.448 179.234 201.435 179.348 201.508 179.412H201.512Z" fill="#407BFF"/>
<path d="M202.372 178.878C202.44 178.91 202.504 178.951 202.568 178.992C202.582 179.001 202.6 179.015 202.614 179.024C202.632 179.038 202.582 179.001 202.609 179.019C202.619 179.024 202.623 179.033 202.632 179.038C202.66 179.06 202.687 179.088 202.715 179.111C202.742 179.138 202.765 179.161 202.792 179.193C202.802 179.206 202.815 179.22 202.824 179.229C202.829 179.238 202.838 179.243 202.843 179.252C202.838 179.248 202.834 179.238 202.829 179.234C202.829 179.238 202.838 179.243 202.843 179.248C202.884 179.307 202.925 179.366 202.957 179.43C202.998 179.508 203.117 179.54 203.19 179.489C203.273 179.439 203.295 179.339 203.25 179.257C203.099 178.965 202.843 178.723 202.545 178.572C202.463 178.531 202.358 178.549 202.312 178.631C202.271 178.709 202.289 178.823 202.372 178.864V178.878Z" fill="#407BFF"/>
<path d="M202.458 177.723C202.545 177.723 202.632 177.728 202.715 177.737C202.733 177.737 202.751 177.737 202.769 177.742C202.806 177.742 202.76 177.742 202.797 177.742C202.838 177.746 202.884 177.755 202.925 177.764C203.085 177.796 203.245 177.842 203.401 177.901C203.483 177.933 203.593 177.865 203.611 177.783C203.634 177.687 203.579 177.605 203.492 177.573C203.163 177.45 202.811 177.386 202.458 177.381C202.367 177.381 202.285 177.459 202.289 177.555C202.289 177.65 202.362 177.723 202.458 177.728V177.723Z" fill="#407BFF"/>
<g opacity="0.3">
<path d="M206.022 177.833C206.04 178.166 206.168 178.527 206.488 178.682C206.685 178.778 206.923 178.773 207.147 178.769C207.819 178.75 208.487 178.732 209.159 178.714L209.168 178.696C209.273 177.824 209.557 175.698 208.724 175.698C208.07 175.698 207.384 176.92 206.012 176.56C206.022 177.021 206.003 177.609 206.012 177.833H206.022Z" fill="black"/>
</g>
<path d="M230.919 125.48C230.919 125.48 216.206 127.506 207.75 131.152C204.814 132.416 203.081 135.012 202.697 137.823C200.822 153.05 202.34 171.554 202.34 171.554L209.406 172.512C209.406 172.512 213.17 155.172 213.083 142.925C220.798 140.753 240.834 142.167 243.194 135.788C244.346 132.484 244.653 128.943 244.081 125.489L230.914 125.48H230.919Z" fill="#407BFF"/>
<path opacity="0.3" d="M228.033 128.519C228.033 128.519 217.158 138.649 217.652 142.108C216.111 142.268 214.588 142.541 213.088 142.929C213.088 144.12 213.143 145.571 213.01 146.753C208.423 139.927 208.857 133.369 228.038 128.523L228.033 128.519Z" fill="black"/>
<path d="M230.924 168.743L232.538 178.093L229.181 178.741L225.147 170.089L230.924 168.743Z" fill="#E4897B"/>
<path d="M226.894 176.984C226.707 176.437 226.634 175.962 227.283 175.77L228.198 175.497C228.55 175.41 228.852 175.565 229.177 175.675C231.632 176.514 232.081 174.557 232.908 174.356C233.969 174.1 234.038 177.367 234.129 177.518L236.16 180.84C236.334 181.118 236.288 181.817 235.954 181.985C235.895 182.017 235.831 182.04 235.767 182.054C233.883 182.51 232.991 182.725 230.649 183.29L223.483 185.02C221.53 185.49 220.977 183.309 221.74 182.957C225.193 181.401 226.359 179.973 227.361 178.892C227.361 178.892 227.183 177.819 226.894 176.98V176.984Z" fill="#263238"/>
<path opacity="0.4" d="M223.483 185.025L230.65 183.295C232.991 182.729 233.883 182.515 235.767 182.059C235.831 182.045 235.895 182.022 235.955 181.99C236.179 181.876 236.27 181.516 236.252 181.21L236.179 180.936L221.677 184.441C221.992 184.901 222.591 185.239 223.479 185.025H223.483Z" fill="white"/>
<path d="M225.765 180.694C225.943 180.785 226.117 180.89 226.277 181.009C226.277 181.009 226.305 181.032 226.291 181.023C226.277 181.013 226.314 181.041 226.314 181.041C226.332 181.055 226.35 181.073 226.369 181.086C226.405 181.118 226.442 181.15 226.478 181.182C226.552 181.251 226.62 181.319 226.689 181.397C226.748 181.465 226.872 181.461 226.931 181.397C226.995 181.324 226.995 181.228 226.931 181.155C226.652 180.845 226.309 180.589 225.934 180.402C225.852 180.361 225.747 180.379 225.701 180.461C225.66 180.539 225.678 180.653 225.76 180.694H225.765Z" fill="#407BFF"/>
<path d="M226.743 179.795C226.908 179.882 227.068 179.982 227.219 180.092C227.228 180.096 227.237 180.106 227.246 180.11C227.246 180.11 227.274 180.133 227.26 180.119C227.246 180.106 227.278 180.133 227.278 180.133C227.288 180.137 227.297 180.147 227.301 180.151C227.338 180.179 227.375 180.21 227.411 180.242C227.48 180.302 227.548 180.37 227.612 180.434C227.676 180.498 227.791 180.502 227.855 180.434C227.919 180.366 227.923 180.261 227.855 180.192C227.58 179.914 227.26 179.677 226.913 179.494C226.835 179.453 226.721 179.471 226.679 179.553C226.638 179.631 226.657 179.745 226.739 179.786L226.743 179.795Z" fill="#407BFF"/>
<path d="M227.452 179.074C227.525 179.092 227.598 179.111 227.667 179.143C227.672 179.143 227.685 179.152 227.69 179.152C227.662 179.138 227.676 179.152 227.69 179.152C227.708 179.161 227.722 179.165 227.74 179.175C227.772 179.193 227.804 179.207 227.836 179.229C227.868 179.248 227.896 179.266 227.923 179.284C227.937 179.293 227.955 179.307 227.969 179.316C227.95 179.302 228.001 179.339 227.969 179.316C227.973 179.321 227.983 179.325 227.987 179.33C228.047 179.375 228.097 179.43 228.147 179.485C228.207 179.553 228.33 179.549 228.39 179.485C228.454 179.412 228.454 179.316 228.39 179.243C228.17 178.992 227.864 178.823 227.543 178.746C227.457 178.727 227.351 178.773 227.333 178.864C227.315 178.951 227.361 179.051 227.452 179.074Z" fill="#407BFF"/>
<path d="M227.27 177.929C227.439 177.892 227.563 177.874 227.736 177.865C227.901 177.856 228.066 177.865 228.23 177.883C228.322 177.892 228.404 177.796 228.399 177.71C228.399 177.609 228.322 177.55 228.23 177.536C227.878 177.491 227.526 177.513 227.178 177.591C227.091 177.609 227.032 177.714 227.059 177.801C227.087 177.892 227.178 177.942 227.27 177.92V177.929Z" fill="#407BFF"/>
<g opacity="0.3">
<path d="M230.75 177.203C230.846 177.523 231.056 177.842 231.404 177.92C231.619 177.965 231.847 177.906 232.062 177.847C232.712 177.673 233.357 177.495 234.006 177.322V177.304C233.905 176.432 233.681 174.297 232.872 174.493C232.236 174.648 231.857 175.994 230.443 175.971C230.562 176.419 230.681 176.994 230.745 177.208L230.75 177.203Z" fill="black"/>
</g>
<path d="M240.45 125.507C240.45 125.507 212.859 130.266 213.861 138.494C215.301 150.363 225.449 174.611 225.449 174.611L233.777 171.636C233.777 171.636 228.44 150.061 226.611 141.401C233.7 141.401 248.339 142.163 250.699 135.788C251.847 132.539 252.08 129.039 251.371 125.671L240.455 125.507H240.45Z" fill="#407BFF"/>
<path d="M236 90.9276C238.447 92.7118 238.753 97.7221 231.184 108.505L225.175 102.167C226.73 99.4242 228.083 98.0826 230.393 94.8154C233.539 90.2385 235.995 90.923 235.995 90.923L236 90.9276Z" fill="#263238"/>
<path opacity="0.3" d="M230.237 125.822C230.237 125.822 234.984 131.887 242.581 132.84C250.177 133.794 251.622 131.923 251.622 131.923C251.622 131.923 251.659 128.971 251.773 129.121C251.892 129.272 231.019 124.955 231.019 124.955L230.237 125.827V125.822Z" fill="black"/>
<path d="M235.927 90.8317C237.875 90.6902 245.672 89.8232 253.612 91.4294L252.843 119.488C252.843 119.488 253.237 129.81 252.843 130.746C244.506 134.145 234.097 129.194 228.824 125.799C228.879 125.936 230.279 122.222 230.279 122.222C231.253 113.278 232.803 99.3328 234.276 91.2834C234.317 91.0826 235.735 90.8499 235.931 90.8362L235.927 90.8317Z" fill="#263238"/>
<path opacity="0.2" d="M252.739 108.473L252.299 108.528L250.722 100.816L251.453 109.472L252.839 109.7L252.739 108.473Z" fill="black"/>
<path opacity="0.2" d="M232.007 107.314L233.256 97.6628L230.425 107.706L231.184 108.509L232.007 107.314Z" fill="black"/>
<path d="M230.689 104.079C230.68 106.004 232.025 107.519 233.744 107.524L233.763 107.816C233.749 108.181 234.028 108.487 234.394 108.514L240.339 108.537C240.714 108.537 241.021 108.231 241.021 107.857L241.053 100.163C241.021 99.8987 240.787 99.7071 240.522 99.7253L234.321 99.7071C234.055 99.6797 233.818 99.8622 233.772 100.122V100.661C232.052 100.652 230.703 102.157 230.694 104.083L230.689 104.079ZM231.792 104.079C231.801 102.792 232.697 101.669 233.763 101.669L233.744 106.502C232.674 106.497 231.787 105.365 231.796 104.074L231.792 104.079Z" fill="#407BFF"/>
<path d="M252.569 105.876L252.839 111.056L242.988 105.434L240.267 108.66C240.267 108.66 252.422 119.643 256.25 119.767C261.839 119.945 259.036 104.795 259.036 104.795L252.569 105.876Z" fill="#E4897B"/>
<path d="M253.607 91.4294C253.607 91.4294 256.735 92.0044 257.485 95.915C258.18 99.5154 260.124 107.519 260.124 107.519L252.295 108.532L250.717 99.1686L253.603 91.4294H253.607Z" fill="#263238"/>
<path d="M240.842 102.568C240.842 102.568 236.786 100.743 236.576 101.017C236.365 101.291 235.958 102.29 236.242 102.988C236.242 102.988 235.643 103.823 236.233 104.562L236.667 104.978C236.667 104.978 235.629 105.306 236.42 106.515C237.211 107.729 239.269 108.601 240.431 108.897C241.592 109.194 243.486 108.227 243.449 108.021C243.413 107.816 242.795 103.33 242.48 102.203C242.164 101.076 241.181 100.392 241.053 100.392L240.847 102.559L240.842 102.568Z" fill="#E4897B"/>
<path d="M195.205 183.77H172.183V126.821H173.097V182.866H194.29V126.821H195.205V183.77Z" fill="#263238"/>
<path d="M280.306 124.106H163.846V126.821H280.306V124.106Z" fill="#407BFF"/>
<path opacity="0.2" d="M280.306 124.106H163.846V126.821H280.306V124.106Z" fill="black"/>
<path opacity="0.2" d="M280.305 124.106H245.566V126.821H280.305V124.106Z" fill="black"/>
<path d="M278.618 184.363H255.596V126.821H256.51V183.45H277.703V126.821H278.618V184.363Z" fill="#263238"/>
<path d="M193.522 124.23H209.451C209.726 124.23 209.945 124.047 209.945 123.828C209.945 123.787 209.936 123.746 209.922 123.705L202.838 107.496C202.66 107.035 202.125 106.716 201.521 106.716H185.583C185.313 106.716 185.094 106.889 185.094 107.108C185.094 107.154 185.103 107.2 185.121 107.241L192.205 123.449C192.388 123.91 192.919 124.225 193.522 124.23Z" fill="#263238"/>
<path opacity="0.7" d="M185.578 106.716H201.516C202.12 106.716 202.655 107.035 202.833 107.496L209.917 123.705C209.936 123.746 209.94 123.787 209.94 123.828C209.94 124.047 209.721 124.23 209.446 124.23H193.518C192.914 124.225 192.383 123.91 192.2 123.449L185.116 107.241C185.098 107.2 185.089 107.154 185.089 107.108C185.089 106.894 185.308 106.716 185.578 106.716Z" fill="white"/>
<path d="M195.452 115.833C195.795 116.609 196.494 117.148 197.016 117.038C197.537 116.928 197.674 116.221 197.34 115.441C197.007 114.661 196.302 114.14 195.781 114.25C195.26 114.359 195.104 115.039 195.456 115.838L195.452 115.833Z" fill="white"/>
<path opacity="0.3" d="M201.421 106.716H201.517C202.12 106.716 202.655 107.035 202.834 107.496L209.918 123.705C209.936 123.746 209.941 123.787 209.941 123.828C209.941 124.047 209.721 124.23 209.447 124.23H208.935L201.416 106.716H201.421Z" fill="black"/>
<path d="M225.046 124.23H208.463V123.116H223.925C224.543 123.116 225.041 123.614 225.041 124.23H225.046Z" fill="#263238"/>
<path opacity="0.7" d="M225.046 124.23H208.463V123.116H223.925C224.543 123.116 225.041 123.614 225.041 124.23H225.046Z" fill="white"/>
<path d="M63.9597 74.9289C63.9597 74.9289 70.1245 89.5036 70.9157 89.5767C71.7023 89.6497 81.7865 85.7299 81.7865 85.7299L83.3552 87.4958C83.3552 87.4958 78.0776 94.5414 69.7175 96.7773C68.2175 97.1789 66.3195 95.4814 64.5131 93.1633C64.1609 92.7115 63.8133 92.237 63.4658 91.7442C61.6044 88.9926 59.9397 86.1178 58.4717 83.138L63.9597 74.9243V74.9289Z" fill="#407BFF"/>
<path opacity="0.6" d="M63.9597 74.9289C63.9597 74.9289 70.1245 89.5036 70.9157 89.5767C71.7023 89.6497 81.7865 85.7299 81.7865 85.7299L83.3552 87.4958C83.3552 87.4958 78.0776 94.5414 69.7175 96.7773C68.2175 97.1789 66.3195 95.4814 64.5131 93.1633C64.1609 92.7115 63.8133 92.237 63.4658 91.7442C61.6044 88.9926 59.9397 86.1178 58.4717 83.138L63.9597 74.9243V74.9289Z" fill="white"/>
<path opacity="0.2" d="M65.1574 78.739C65.5461 80.4593 66.4608 83.0375 67.1788 84.8673C67.4121 85.4606 67.5127 86.0994 67.4075 86.7291C67.0965 88.5361 65.5324 89.1157 65.0111 90.5531C64.7184 91.3972 64.5492 92.2779 64.5126 93.1678C64.1604 92.716 63.8128 92.2414 63.4653 91.7486L62.6924 88.7095L65.1574 78.739Z" fill="black"/>
<path d="M47.8204 181.351L51.5797 181.182L52.9745 171.417L47.2441 171.609L47.8204 181.351Z" fill="#B97964"/>
<path d="M52.037 179.467H50.697C50.3951 179.467 50.1162 179.617 49.9332 179.864C49.1603 180.913 48.5795 180.516 47.7426 179.53C47.2075 179.467 47.0657 180.078 47.02 180.242L46.0184 183.875C45.9316 184.176 46.1053 184.495 46.4118 184.582C46.4666 184.596 46.5215 184.605 46.5764 184.605H57.1774C58.8649 184.605 59.2125 182.907 58.5174 182.752C55.3938 182.063 53.1803 181.146 52.2153 180.238C52.037 180.078 52.2199 179.959 52.0278 179.467H52.037Z" fill="#263238"/>
<path d="M54.6578 180.68C54.7995 180.58 54.8819 180.416 54.8864 180.242C54.9001 180.151 54.8544 180.06 54.7767 180.005C54.3559 179.708 52.6821 180.489 52.4946 180.58C52.4717 180.589 52.458 180.603 52.4488 180.625C52.4351 180.662 52.4534 180.708 52.4946 180.721C52.9062 180.817 53.3269 180.872 53.7477 180.881C54.0632 180.913 54.3834 180.84 54.6578 180.676V180.68ZM54.6715 180.137C54.7035 180.16 54.7218 180.197 54.7172 180.238C54.7081 180.361 54.6486 180.479 54.5526 180.557C54.173 180.84 53.2537 180.717 52.7598 180.625C53.455 180.32 54.4428 179.978 54.6715 180.137Z" fill="#407BFF"/>
<path d="M52.5534 180.744C53.0565 180.534 54.1083 179.713 54.0534 179.275C54.0443 179.184 53.9803 179.074 53.7516 179.042C52.8324 178.937 52.4391 180.58 52.4391 180.648C52.4299 180.676 52.4391 180.708 52.4619 180.726C52.4802 180.731 52.4985 180.731 52.5122 180.726L52.5534 180.74V180.744ZM53.7196 179.179C53.8888 179.197 53.8888 179.257 53.8888 179.279C53.9345 179.544 53.1708 180.229 52.6266 180.516C52.7409 180.133 53.0747 179.175 53.6556 179.175H53.715L53.7196 179.179Z" fill="#407BFF"/>
<path d="M51.5476 181.524C51.5476 181.524 51.5065 181.52 51.4882 181.506C51.4333 181.474 51.4196 181.401 51.4516 181.351C51.7168 180.927 52.1742 180.635 52.6681 180.571C52.7321 180.562 52.787 180.607 52.7961 180.667C52.8053 180.73 52.7596 180.785 52.7001 180.794C52.2702 180.854 51.8769 181.105 51.6437 181.47C51.6208 181.506 51.5842 181.524 51.5476 181.524Z" fill="#407BFF"/>
<path d="M52.3797 182.15C52.3797 182.15 52.3385 182.145 52.3202 182.132C52.2653 182.1 52.2516 182.027 52.2836 181.976C52.5489 181.552 53.0062 181.26 53.5001 181.192C53.5596 181.187 53.619 181.228 53.6282 181.287C53.6373 181.351 53.5916 181.406 53.5321 181.415C53.1022 181.474 52.7089 181.725 52.4757 182.095C52.4528 182.132 52.4162 182.15 52.3797 182.15Z" fill="#407BFF"/>
<path d="M53.4138 182.674C53.4138 182.674 53.3727 182.67 53.3544 182.656C53.2995 182.624 53.2858 182.551 53.3178 182.501C53.583 182.077 54.0404 181.785 54.5343 181.716C54.5938 181.712 54.6532 181.753 54.6624 181.812C54.6715 181.876 54.6258 181.931 54.5663 181.94C54.1364 181.999 53.7431 182.25 53.5099 182.62C53.487 182.656 53.4504 182.674 53.4138 182.674Z" fill="#407BFF"/>
<path opacity="0.3" d="M52.2153 176.738L52.0369 177.997L47.6145 177.92L47.5459 176.738H52.2153Z" fill="black"/>
<path d="M63.4924 180.384L67.5764 179.868L68.4773 170.664L62.875 170.509L63.4924 180.384Z" fill="#B97964"/>
<path d="M67.787 179.097H66.447C66.1451 179.097 65.8662 179.248 65.6832 179.494C64.9103 180.543 64.3295 180.146 63.4926 179.161C62.9575 179.097 62.8157 179.708 62.77 179.873L61.7684 183.505C61.6816 183.806 61.8553 184.126 62.1618 184.212C62.2166 184.226 62.2715 184.235 62.3264 184.235H72.9274C74.6149 184.235 74.9625 182.538 74.2674 182.382C71.1438 181.693 68.9303 180.776 67.9653 179.868C67.787 179.708 67.9699 179.59 67.7778 179.097H67.787Z" fill="#263238"/>
<path d="M70.6861 180.133C70.8279 180.032 70.9102 179.868 70.9147 179.695C70.9285 179.603 70.8827 179.512 70.805 179.457C70.3842 179.161 68.7104 179.941 68.5229 180.032C68.5 180.041 68.4863 180.055 68.4772 180.078C68.4634 180.114 68.4817 180.16 68.5229 180.174C68.9345 180.27 69.3552 180.324 69.776 180.333C70.0915 180.365 70.4117 180.292 70.6861 180.128V180.133ZM70.6998 179.59C70.7318 179.612 70.7501 179.649 70.7455 179.69C70.7364 179.813 70.6769 179.932 70.5809 180.009C70.2013 180.292 69.2821 180.169 68.7882 180.078C69.4833 179.772 70.4711 179.43 70.6998 179.59Z" fill="#407BFF"/>
<path d="M68.5827 180.192C69.0857 179.982 70.1376 179.161 70.0827 178.723C70.0736 178.631 70.0096 178.522 69.7809 178.49C68.8617 178.385 68.4683 180.028 68.4683 180.096C68.4592 180.124 68.4683 180.155 68.4912 180.174C68.5095 180.178 68.5278 180.178 68.5415 180.174L68.5827 180.187V180.192ZM69.7489 178.627C69.9181 178.645 69.9181 178.704 69.9181 178.727C69.9684 178.992 69.2001 179.676 68.6559 179.964C68.7702 179.581 69.104 178.622 69.6849 178.622H69.7443L69.7489 178.627Z" fill="#407BFF"/>
<path d="M67.5769 180.972C67.5769 180.972 67.5358 180.968 67.5175 180.954C67.4626 180.922 67.4489 180.849 67.4809 180.799C67.7461 180.375 68.2035 180.083 68.6974 180.014C68.7568 180.005 68.8163 180.051 68.8254 180.11C68.8346 180.174 68.7888 180.229 68.7294 180.238C68.2995 180.297 67.9062 180.548 67.673 180.918C67.6501 180.954 67.6135 180.972 67.5769 180.972Z" fill="#407BFF"/>
<path d="M68.4089 181.598C68.4089 181.598 68.3678 181.593 68.3495 181.579C68.2946 181.547 68.2809 181.474 68.3129 181.424C68.5782 181 69.0355 180.708 69.5294 180.639C69.5889 180.635 69.6483 180.676 69.6575 180.735C69.6666 180.799 69.6209 180.854 69.5614 180.863C69.1315 180.922 68.7382 181.173 68.505 181.543C68.4821 181.579 68.4455 181.598 68.4089 181.598Z" fill="#407BFF"/>
<path d="M69.4422 182.122C69.4422 182.122 69.401 182.118 69.3827 182.104C69.3278 182.072 69.3141 181.999 69.3461 181.949C69.6114 181.524 70.0687 181.232 70.5626 181.164C70.6221 181.159 70.6815 181.2 70.6907 181.26C70.6998 181.324 70.6541 181.378 70.5946 181.388C70.1647 181.447 69.7714 181.698 69.5382 182.067C69.5153 182.104 69.4787 182.122 69.4422 182.122Z" fill="#407BFF"/>
<path opacity="0.3" d="M67.9374 176.19L67.8139 177.45L63.3092 177.418L63.2314 176.19H67.9374Z" fill="black"/>
<path d="M43.9052 87.8883C46.2834 84.1875 42.9769 80.5187 43.05 76.202C43.1232 71.8852 44.98 67.6095 45.2132 63.2973C45.323 61.2257 45.6111 59.122 46.4937 57.2192C47.3764 55.3118 49.0045 53.2903 51.0488 52.51L61.3708 56.9135C62.9852 64.4199 62.9074 69.2432 62.7016 73.8976C62.4913 78.5703 62.1483 83.0695 61.0735 88.4039C60.9363 89.0747 60.7808 89.7728 60.3372 90.3159C59.7381 91.0505 58.732 91.3563 57.7945 91.6255C55.398 92.3054 52.9879 92.9944 50.5 93.2454C48.0121 93.4964 47.5593 93.2317 45.3184 92.2005C44.5592 91.8537 43.4067 91.1372 43.3016 90.3478C43.2147 89.677 43.5348 88.4769 43.9052 87.9019V87.8883Z" fill="#263238"/>
<path d="M54.8355 103.266L65.3267 103.307C65.3267 103.307 68.99 121.715 68.775 142.354C69.2049 154.469 68.8619 176.751 68.8619 176.751H62.0385C62.0385 176.751 57.6938 158.654 59.4317 144.316C58.8006 141.843 57.9545 137.563 57.456 135.377C56.0657 129.486 55.0139 123.522 54.3187 117.512C53.1205 106.246 54.8355 103.261 54.8355 103.261V103.266Z" fill="#263238"/>
<path opacity="0.2" d="M55.7645 110.494C55.7645 110.494 59.5467 127.442 57.4566 135.382C56.0663 129.491 55.0145 123.527 54.3193 117.517L55.7645 110.494Z" fill="black"/>
<path d="M46.0185 98.4429C45.1039 102.531 41.5138 107.528 40.7912 112.758C39.5519 121.692 44.9347 132.804 46.3433 143.29C44.2167 158.795 47.4774 177.596 47.043 177.189H53.8892C54.095 175.811 55.5036 154.803 56.1988 142.354C56.7887 131.462 57.7354 104.065 57.7354 104.065L46.0185 98.4429Z" fill="#263238"/>
<path d="M64.5268 89.4125C64.0008 93.022 64.7829 100.738 66.3012 106.059C66.8409 107.953 51.4973 107.697 42.8857 104.859L45.7624 95.9698C45.7532 95.2351 44.3309 89.9738 44.2943 89.2026C44.1205 85.4517 43.6998 81.7145 43.0412 78.0183C43.0138 77.8586 42.9909 77.6943 42.9818 77.5346C42.84 75.5268 42.7897 73.9708 44.5413 73.2179C45.0078 73.0171 46.7411 72.6429 47.2761 72.6064C48.0124 72.5516 48.8722 72.4421 49.668 72.4193C50.4638 72.3965 50.4866 72.2915 51.2229 72.2915C53.2352 72.255 55.8969 72.5379 57.8954 72.7661L58.339 72.8254C59.0891 72.9212 59.8482 73.0445 60.5845 73.1722C60.5845 73.1722 62.4459 73.4369 63.5115 74.3267C64.5725 75.2165 67.0009 84.4022 66.5756 86.7978C66.2052 88.8786 64.5313 89.4217 64.5313 89.4217L64.5268 89.4125Z" fill="#407BFF"/>
<path opacity="0.6" d="M64.5268 89.4125C64.0008 93.022 64.7829 100.738 66.3012 106.059C66.8409 107.953 51.4973 107.697 42.8857 104.859L45.7624 95.9698C45.7532 95.2351 44.3309 89.9738 44.2943 89.2026C44.1205 85.4517 43.6998 81.7145 43.0412 78.0183C43.0138 77.8586 42.9909 77.6943 42.9818 77.5346C42.84 75.5268 42.7897 73.9708 44.5413 73.2179C45.0078 73.0171 46.7411 72.6429 47.2761 72.6064C48.0124 72.5516 48.8722 72.4421 49.668 72.4193C50.4638 72.3965 50.4866 72.2915 51.2229 72.2915C53.2352 72.255 55.8969 72.5379 57.8954 72.7661L58.339 72.8254C59.0891 72.9212 59.8482 73.0445 60.5845 73.1722C60.5845 73.1722 62.4459 73.4369 63.5115 74.3267C64.5725 75.2165 67.0009 84.4022 66.5756 86.7978C66.2052 88.8786 64.5313 89.4217 64.5313 89.4217L64.5268 89.4125Z" fill="white"/>
<path opacity="0.2" d="M44.807 98.9223L43.874 101.811C43.874 101.811 54.3149 99.9809 59.5514 95.3083C63.2787 91.9817 62.6933 90.5808 62.6933 90.5808L58.4721 90.9869L44.807 98.9177V98.9223Z" fill="black"/>
<path opacity="0.2" d="M47.2575 82.8735L47.4587 92.8759C45.8809 93.8753 45.387 94.4913 45.1446 93.0539L44.2803 88.9881L47.2529 82.8689L47.2575 82.8735Z" fill="black"/>
<path d="M47.2575 82.8734C47.2575 82.8734 43.3015 92.6432 44.015 93.0949C44.7284 93.5467 56.1115 90.4392 56.1115 90.4392L58.3067 93.3368C57.9225 95.0252 37.8776 105.333 36.2769 96.4352C35.3028 91.0324 41.3625 76.5124 41.3625 76.5124C42.8899 73.8019 45.0074 72.5059 45.8443 73.2771C48.0304 75.294 47.2575 82.8689 47.2575 82.8689V82.8734Z" fill="#407BFF"/>
<path opacity="0.6" d="M47.2575 82.8734C47.2575 82.8734 43.3015 92.6432 44.015 93.0949C44.7284 93.5467 56.1115 90.4392 56.1115 90.4392L58.3067 93.3368C57.9225 95.0252 37.8776 105.333 36.2769 96.4352C35.3028 91.0324 41.3625 76.5124 41.3625 76.5124C42.8899 73.8019 45.0074 72.5059 45.8443 73.2771C48.0304 75.294 47.2575 82.8689 47.2575 82.8689V82.8734Z" fill="white"/>
<path d="M58.3068 93.3367C59.6514 93.4416 59.7017 91.4201 60.4014 91.3426C60.8084 91.3015 61.2063 91.2011 61.5859 91.0414C61.5859 91.0414 61.1423 92.2552 61.5859 92.1594C62.0295 92.0635 63.4518 91.9905 63.7994 90.8315C64.1515 89.6725 62.8847 87.1992 62.5966 86.8524C62.3085 86.5056 60.7947 86.6151 60.7947 86.6151C60.7947 86.6151 62.4228 86.1953 63.3192 86.0721C64.2155 85.9489 64.3848 84.9268 63.1362 85.1549C62.624 85.2462 58.5766 85.2781 58.1376 85.6934C57.6985 86.1086 56.075 90.1926 56.075 90.1926C55.4713 90.5395 57.0034 93.9618 58.3159 93.3367H58.3068Z" fill="#B97964"/>
<g opacity="0.3">
<path d="M60.7767 86.4874C60.3605 86.46 59.9444 86.4874 59.5373 86.565C59.4779 86.5832 59.4413 86.6425 59.455 86.7064C59.4687 86.7612 59.5191 86.7977 59.5739 86.7886C59.9581 86.711 60.356 86.6836 60.7493 86.711C60.8956 86.711 60.9231 86.4965 60.7767 86.4874Z" fill="black"/>
<path d="M62.8617 87.7103C62.9898 87.7788 63.1224 87.5917 62.9943 87.5233C62.2352 87.1217 61.4394 87.3453 60.6711 87.6008C60.5339 87.6465 60.6299 87.8518 60.7671 87.8107C61.4394 87.5871 62.1849 87.3681 62.8572 87.7103H62.8617Z" fill="black"/>
<path d="M63.4563 88.7097C62.8023 88.3219 61.9974 88.2853 61.3114 88.6185C61.2565 88.6504 61.2428 88.7234 61.2748 88.7782C61.3023 88.8192 61.3526 88.8421 61.4029 88.8284C62.0157 88.5318 62.7383 88.5591 63.3237 88.9014C63.4472 88.9744 63.5798 88.7919 63.4517 88.7143L63.4563 88.7097Z" fill="black"/>
<path d="M62.3679 90.407C62.4274 90.2884 62.4731 90.1652 62.5051 90.0329C62.5371 89.8914 62.3222 89.8138 62.2902 89.9553C62.1941 90.3888 61.9243 90.7675 61.5401 90.9957C61.4121 91.0687 61.5081 91.2741 61.6316 91.2056H61.6179C61.8603 91.0687 62.0569 90.8816 62.2124 90.6626C62.2261 90.6626 62.2398 90.6717 62.2581 90.6626C62.496 90.5804 62.7612 90.6489 62.9259 90.8405C63.0219 90.9501 63.1957 90.804 63.0996 90.6945C62.9121 90.4801 62.6377 90.3842 62.3633 90.4162L62.3679 90.407Z" fill="black"/>
</g>
<path d="M69.5891 93.5331C69.1272 93.3552 68.8803 92.7665 69.0358 92.2144L73.1609 75.6364C73.3987 74.8561 74.0253 74.3268 74.725 74.3176L85.5318 74.5412C85.6507 74.5275 85.7696 74.5412 85.8794 74.5869C86.3413 74.7648 86.5882 75.3535 86.4327 75.9056L82.303 92.4836C82.0652 93.2639 81.4386 93.7932 80.7389 93.8024L69.9321 93.5788C69.8178 93.5879 69.6989 93.5742 69.5891 93.5331Z" fill="#263238"/>
<path d="M83.753 83.2706C83.5381 83.2523 82.6371 83.6995 82.2118 83.4029C81.7865 83.1063 82.1844 82.8644 82.1844 82.8644C82.9618 82.6728 83.8171 81.7008 84.2927 81.9792C84.7683 82.2575 85.5503 82.6089 85.436 83.047C85.308 83.4577 85.1479 83.8547 84.965 84.2425C85.0884 84.4387 85.1067 84.6851 85.0107 84.8951C84.9147 85.1415 84.6997 85.3194 84.439 85.3696C84.5854 85.5202 84.6631 85.7255 84.6494 85.9355C84.6128 86.2731 83.7302 86.7112 83.7302 86.7112C83.7302 86.7112 83.9039 87.236 83.6981 87.4413C83.3506 87.7242 82.8932 87.8292 82.4588 87.7242C81.942 87.601 81.5853 87.4231 81.6219 86.9029C81.6584 86.3826 82.5914 86.3827 82.5914 86.3827C82.5914 86.3827 80.8352 85.8533 81.2103 85.5202C81.5807 85.1871 82.9801 85.2282 82.9801 85.2282C82.9801 85.2282 80.6066 84.7582 80.9816 84.2745C81.3566 83.7862 83.7256 83.9231 83.7256 83.9231C83.7256 83.9231 83.9634 83.2888 83.753 83.2706Z" fill="#B97964"/>
<path d="M83.3729 73.9024L77.4185 73.802L76.9062 75.1162L82.9613 75.2303L83.3729 73.9024Z" fill="#263238"/>
<path d="M79.4717 74.0027V72.9395H82.3209L81.6715 74.1669L79.4717 74.0027Z" fill="#263238"/>
<path d="M56.3817 54.9423C56.3817 54.9423 59.6882 60.8881 59.8437 62.7407C61.1105 63.8177 62.0115 61.6365 61.9612 58.7115C61.9246 56.3204 60.6715 53.7376 58.5998 52.8067C55.6911 51.5017 56.3771 54.9423 56.3771 54.9423H56.3817Z" fill="#263238"/>
<path d="M55.7605 72.1365C55.2071 71.5843 55.3397 70.9181 55.4449 70.115C55.5181 69.4989 55.7193 68.8555 55.9571 68.2304L55.1294 67.336L50.8304 63.3113C51.0362 66.0948 51.3792 70.8816 49.248 72.4741L58.2346 78.1735L57.4023 72.716C57.4023 72.716 56.5745 72.5928 55.7605 72.1365Z" fill="#B97964"/>
<path opacity="0.2" d="M55.4171 70.3567C54.2509 69.7224 52.9567 68.5953 53.0573 67.2492C53.103 66.6833 53.2082 66.1449 53.3271 65.7981L55.7555 68.7733C55.5818 69.2752 55.5269 69.6038 55.4125 70.3521L55.4171 70.3567Z" fill="black"/>
<path d="M49.4901 58.8713C50.0343 63.1104 50.1761 64.9083 52.4582 67.0621C55.8882 70.2974 60.9372 68.9832 61.6597 64.7395C62.3092 60.9156 61.3122 54.6275 57.059 52.9939C52.8744 51.3831 48.9459 54.6366 49.4901 58.8758V58.8713Z" fill="#B97964"/>
<path d="M55.2657 60.3634C55.2657 60.7604 55.4989 61.1026 55.7779 61.1209C56.0569 61.1391 56.281 60.8334 56.2764 60.4318C56.2764 60.0348 56.0432 59.6926 55.7642 59.6744C55.4852 59.6561 55.2611 59.9618 55.2657 60.3634Z" fill="#263238"/>
<path d="M59.3224 60.0532C59.3041 60.441 59.5145 60.7833 59.7889 60.8152C60.0679 60.8517 60.3057 60.5643 60.324 60.1809C60.3423 59.7931 60.1319 59.4508 59.8575 59.4189C59.5785 59.3824 59.3407 59.6699 59.3224 60.0532Z" fill="#263238"/>
<path d="M54.132 58.9945C54.1868 58.9945 54.2417 58.9808 54.2829 58.9397C54.9094 58.3055 55.6594 58.4834 55.6686 58.4834C55.7784 58.5108 55.8881 58.4423 55.9064 58.3328C55.9247 58.2188 55.8515 58.1047 55.7372 58.0773C55.696 58.0682 54.7585 57.8446 53.9765 58.634C53.8987 58.7116 53.9033 58.8439 53.9856 58.9306C54.0268 58.9717 54.0771 58.9945 54.1274 58.9991L54.132 58.9945Z" fill="#263238"/>
<path d="M60.7407 58.123C60.791 58.1047 60.8322 58.0728 60.855 58.0271C60.9053 57.9267 60.855 57.8035 60.7498 57.7533C59.6751 57.2377 58.8382 57.6849 58.8016 57.7032C58.701 57.7579 58.6735 57.8811 58.7376 57.9769C58.8016 58.0728 58.9342 58.1093 59.0303 58.0545C59.0623 58.0363 59.7163 57.6986 60.5715 58.1093C60.6264 58.1367 60.6858 58.1367 60.7407 58.123Z" fill="#263238"/>
<path d="M48.3237 62.3848C48.8588 63.2382 49.6958 63.7584 50.4549 63.9181C51.5937 64.1599 52.1105 62.3301 51.6851 61.2167C51.301 60.2128 50.1668 59.5831 49.0783 59.8432C48.0036 60.0987 47.7155 61.4129 48.3237 62.3848Z" fill="#B97964"/>
<path d="M58.1104 59.7246C58.1104 59.7246 58.8329 61.2943 59.6241 62.2572C59.7613 62.426 59.6881 62.6815 59.4869 62.7637C58.9656 62.9782 58.3436 62.823 58.3436 62.823L58.1104 59.7246Z" fill="#C15854"/>
<path d="M55.6826 59.6652L56.6705 59.4827C56.6705 59.4827 56.1034 60.1854 55.6826 59.6652Z" fill="#263238"/>
<path d="M59.7158 59.4234L60.7128 59.2957C60.228 59.825 59.8393 59.5968 59.7158 59.4234Z" fill="#263238"/>
<path d="M48.3376 56.5484C47.7614 57.3835 48.9093 59.802 48.9093 59.802C48.9093 59.802 50.9536 59.1951 51.0633 62.2661C51.8179 62.3893 52.664 59.5236 52.5405 56.6397C52.3896 55.0106 49.3575 55.0745 48.333 56.5484H48.3376Z" fill="#263238"/>
<path opacity="0.2" d="M50.1984 62.8685C50.1984 62.8685 50.1801 62.8685 50.1709 62.8685C49.4758 62.7043 49.1602 62.3392 49.0139 62.0608C48.8721 61.7871 48.8401 61.4813 48.927 61.2532C49.0688 60.8972 49.5032 60.628 49.9285 60.7923C49.988 60.8151 50.0154 60.879 49.9926 60.9383C49.9697 60.9976 49.9057 61.025 49.8462 61.0022C49.5535 60.8881 49.238 61.0889 49.1374 61.3353C49.0871 61.4585 49.0779 61.6912 49.2151 61.9513C49.3386 62.1886 49.613 62.4989 50.2212 62.6404C50.2807 62.6541 50.3219 62.7179 50.3081 62.7773C50.2944 62.832 50.2487 62.864 50.1984 62.864V62.8685Z" fill="black"/>
<path d="M58.7369 64.2149C58.4167 64.6849 58.0234 65.5976 58.0234 65.5976C57.932 65.5793 57.8451 65.5565 57.7582 65.5337C56.5554 65.2234 56.0981 64.6849 55.9563 64.1784C55.8785 63.9001 55.9014 63.6308 55.9471 63.4209C55.9975 63.1745 56.0889 63.0103 56.0889 63.0103C56.6286 63.5533 57.7307 63.9274 58.3253 64.1054C58.5722 64.183 58.7323 64.2149 58.7323 64.2149H58.7369Z" fill="#263238"/>
<path d="M58.3303 64.1005L58.1108 64.5021C56.9766 64.21 56.2174 63.8496 55.9521 63.4161C56.0025 63.1696 56.0939 63.0054 56.0939 63.0054C56.6336 63.5484 57.7357 63.9226 58.3303 64.1005Z" fill="white"/>
<path d="M57.7579 65.5288C56.5552 65.2186 56.0978 64.6801 55.9561 64.1736C56.3631 64.2968 56.8387 64.4839 57.2274 64.7805C57.5247 65.0041 57.6756 65.2733 57.7625 65.5288H57.7579Z" fill="#DC5753"/>
<path d="M60.3879 54.1848C59.487 52.3139 55.8146 50.5753 51.5888 52.3823C47.7747 54.0068 46.6725 59.551 49.4302 59.761C52.1879 59.9709 55.4396 57.2786 55.4396 57.2786L60.3879 54.1893V54.1848Z" fill="#263238"/>
</g>
<defs>
<clipPath id="clip0_724_30245">
<rect width="343" height="185" fill="white" transform="translate(0.5 0.0930176)"/>
</clipPath>
</defs>
</svg>
