<svg width="200" height="153" viewBox="0 0 200 153" fill="none" xmlns="http://www.w3.org/2000/svg">
<g clip-path="url(#clip0_678_16609)">
<path d="M14.1986 144.793C14.1986 144.793 -4.332 131.809 4.18479 115.486C12.7075 99.1637 29.7469 74.1067 21.2184 61.3283C12.7075 48.5558 11.8411 7.63458 60.8376 1.35708C99.9205 -3.64493 111.797 16.9391 117.856 30.9871C125.848 49.5198 118.705 83.3466 156.072 87.8078C193.446 92.2691 214.794 110.696 188.024 140.737C176.324 153.863 14.1986 144.787 14.1986 144.787V144.793Z" fill="#C9D6F2"/>
<path d="M81.1128 134.578C53.5349 140.591 31.073 132.244 38.7352 118.043C46.3973 103.842 41.6998 102.05 35.7941 97.5826C29.8824 93.1155 16.6092 80.6781 29.5406 67.018C42.4896 53.3639 32.6526 49.4023 28.6093 41.3673C16.8037 17.9266 64.6981 8.30466 51.7373 29.8762C42.0063 46.0696 42.5191 58.4658 54.6135 66.7065C66.7138 74.9472 69.1245 79.2909 68.594 89.4771C68.0577 99.6634 63.8788 121.305 76.209 120.4C88.5274 119.501 95.2583 131.492 81.1128 134.578Z" fill="#EBF2FF"/>
<path d="M31.014 38.1698C29.735 35.7422 29.4344 23.8456 41.0101 24.4627C48.0534 24.8389 44.3992 34.4315 42.8019 41.814C41.2105 49.1965 42.295 60.7876 45.242 65.5603C50.6821 74.3653 49.5151 78.0683 42.7842 85.6272C42.7842 85.6272 39.2891 91.2405 45.7371 97.2593C52.1851 103.278 49.692 119.859 57.1832 122.546C64.6744 125.232 68.9063 130.957 63.7726 131.492C58.6508 132.027 37.403 134.09 42.9964 120.136C51.1478 99.8279 35.2576 93.8091 31.2969 89.3008C27.6662 85.1687 24.5601 75.9405 35.0926 64.3613C43.2381 55.4035 34.9453 45.6405 31.0199 38.1698H31.014Z" fill="#CBDBF4"/>
<path d="M59.6703 143.853L59.2459 145.716C58.8451 145.616 49.238 143.206 38.8882 136.582C25.1081 127.759 16.7327 115.651 14.6816 101.533L16.4675 101.227C21.2298 134.007 59.2813 143.759 59.6644 143.853H59.6703Z" fill="#7585F8"/>
<path d="M15.9843 103.419C15.9843 103.419 5.97635 98.1234 10.1257 85.9269C10.1257 85.9269 19.0079 93.1214 15.9843 103.419Z" fill="#7585F8"/>
<path d="M19.1908 113.388C19.1908 113.388 5.54622 117.937 0 102.573C0 102.573 7.27905 99.9102 19.1908 113.388Z" fill="#7585F8"/>
<path d="M18.7251 113.447C18.7251 113.447 31.3913 106.399 25.0788 91.3875C25.0788 91.3875 18.1652 94.9612 18.7251 113.447Z" fill="#7585F8"/>
<path d="M26.2932 124.82C26.2932 124.82 13.1378 130.822 6.12402 116.157C6.12402 116.157 13.1025 112.712 26.2932 124.82Z" fill="#7585F8"/>
<path d="M25.8275 124.926C25.8275 124.926 37.751 116.55 29.9945 102.308C29.9945 102.308 23.4522 106.617 25.8275 124.926Z" fill="#7585F8"/>
<path d="M37.6153 134.754C37.6153 134.754 25.6093 143.024 16.3086 129.863C16.3086 129.863 22.6328 125.208 37.6153 134.754Z" fill="#7585F8"/>
<path d="M37.1737 134.942C37.1737 134.942 47.5706 124.544 37.6157 111.93C37.6157 111.93 31.8632 117.35 37.1737 134.942Z" fill="#7585F8"/>
<path d="M49.256 140.984C49.256 140.984 39.7018 152.252 27.4424 142.125C27.4424 142.125 32.4169 135.912 49.256 140.984Z" fill="#7585F8"/>
<path d="M48.8842 141.284C48.8842 141.284 56.3814 128.418 43.6268 118.995C43.6268 118.995 39.4067 125.79 48.8842 141.284Z" fill="#7585F8"/>
<path d="M130.763 143.894C157.174 151.082 179.336 144.111 172.622 129.975C165.909 115.845 170.542 114.346 176.489 110.308C182.436 106.276 195.903 94.8906 184.057 81.019C172.204 67.1474 181.923 63.8029 186.237 56.2205C198.833 34.1024 152.936 22.4114 164.412 43.9477C173.029 60.1116 171.921 72.0847 159.791 79.4673C147.673 86.8498 145.121 90.9407 145.133 100.827C145.145 110.714 148.115 131.88 136.221 130.398C124.333 128.917 117.219 140.197 130.763 143.882V143.894Z" fill="#7585F8"/>
<g style="mix-blend-mode:overlay" opacity="0.2">
<path d="M184.068 53.0113C185.43 50.7248 186.314 39.2161 175.074 39.2396C168.237 39.2572 171.302 48.7264 172.481 55.9561C173.654 63.1858 172.027 74.3536 168.938 78.8325C163.233 87.0908 164.176 90.735 170.323 98.382C170.323 98.382 173.424 103.995 166.876 109.503C160.333 115.016 161.925 131.192 154.539 133.426C147.148 135.653 142.763 140.996 147.708 141.76C152.647 142.53 173.123 145.581 168.39 131.791C161.512 111.719 177.196 106.676 181.257 102.508C184.976 98.6877 188.442 89.9004 178.823 78.1742C171.378 69.093 179.901 60.0529 184.068 53.0113Z" fill="#F6F5F7"/>
</g>
<path d="M126.92 143.429L126.52 140.99C165.384 134.654 182.2 104.301 182.371 103.989L184.557 105.165C184.387 105.471 167.035 136.899 126.926 143.429H126.92Z" fill="#EBF2FF"/>
<path d="M182.206 106.064C182.206 106.064 187.281 92.9744 193.9 97.1535C196.711 98.9286 195.196 105.277 182.206 106.064Z" fill="#EBF2FF"/>
<path d="M179.265 110.343C179.265 110.343 192.202 102.884 193.552 110.426C194.117 113.641 188.447 117.849 179.265 110.343Z" fill="#EBF2FF"/>
<path d="M179.288 111.736C179.288 111.736 187.209 99.6868 179.052 98.523C175.581 98.0175 171.078 103.308 179.288 111.736Z" fill="#EBF2FF"/>
<path d="M170.672 120.471C170.672 120.471 179.2 108.715 171.143 107.187C167.713 106.529 162.968 111.625 170.672 120.471Z" fill="#EBF2FF"/>
<path d="M163.115 127.124C163.115 127.124 171.579 115.357 163.522 113.841C160.086 113.188 155.359 118.302 163.115 127.124Z" fill="#EBF2FF"/>
<path d="M152.559 133.672C152.559 133.672 163.009 123.28 155.536 120.424C152.347 119.207 146.801 123.551 152.559 133.672Z" fill="#EBF2FF"/>
<path d="M143.411 137.828C143.411 137.828 153.561 127.183 145.963 124.544C142.745 123.427 137.305 127.9 143.411 137.828Z" fill="#EBF2FF"/>
<path d="M130.892 141.413C130.892 141.413 143.541 133.467 137.276 128.9C134.6 126.948 128.199 129.987 130.892 141.413Z" fill="#EBF2FF"/>
<path d="M172.94 118.231C172.94 118.231 185.901 110.772 187.233 118.32C187.805 121.529 182.147 125.726 172.94 118.231Z" fill="#EBF2FF"/>
<path d="M165.208 125.185C165.208 125.185 178.163 117.738 179.501 125.279C180.078 128.482 174.408 132.691 165.208 125.185Z" fill="#EBF2FF"/>
<path d="M156.714 130.839C156.714 130.839 170.842 126.143 170.246 133.955C170.005 137.281 163.574 140.285 156.714 130.839Z" fill="#EBF2FF"/>
<path d="M146.683 136.147C146.683 136.147 161.117 132.797 159.632 140.602C159.001 143.923 152.359 146.321 146.683 136.147Z" fill="#EBF2FF"/>
<path d="M136.044 139.862C136.044 139.862 150.608 138.422 147.95 146.08C146.8 149.337 139.958 150.853 136.044 139.862Z" fill="#EBF2FF"/>
<path d="M187.369 147.021C187.369 150.101 147.597 152.593 98.5292 152.593C49.4619 152.593 9.68945 150.095 9.68945 147.021C9.68945 143.947 49.4678 141.449 98.5292 141.449C147.591 141.449 187.369 143.941 187.369 147.021Z" fill="#ACBFE2"/>
<path d="M165.733 84.2635C165.733 118.555 137.86 146.345 103.475 146.345C69.0894 146.345 41.2168 118.549 41.2168 84.2635C41.2168 49.9783 69.0894 22.1763 103.475 22.1763C137.86 22.1763 165.733 49.9724 165.733 84.2635Z" fill="#189FFF"/>
<path d="M109.027 107.34C110.836 110.273 109.009 114.675 104.948 117.162C100.887 119.648 96.125 119.283 94.3215 116.345L73.5334 82.5825C71.724 79.6436 73.5452 75.247 77.6121 72.7606C81.673 70.2743 86.4353 70.6388 88.2389 73.5718L109.027 107.334V107.34Z" fill="#F6F5F7"/>
<path d="M108.273 114.711C105.78 118.76 100.463 120.03 96.4081 117.544C92.3413 115.057 91.0741 109.756 93.5672 105.706L122.212 59.1477C124.705 55.0979 130.021 53.8283 134.082 56.3146C138.143 58.8009 139.416 64.0968 136.923 68.1525L108.273 114.716V114.711Z" fill="#F6F5F7"/>
<path d="M57.7841 75.6584C58.6446 75.2587 61.4855 75.0412 62.9649 77.2748C64.9629 80.2666 65.6466 87.5433 70.1025 89.7416C74.5701 91.9282 77.3521 90.0649 79.3737 89.0481C81.3953 88.043 81.7313 86.6852 82.9867 86.2267C84.2244 85.7741 84.7136 87.273 81.8492 89.6711C80.47 90.8173 74.3992 97.3005 68.6054 95.6782C61.0022 93.5446 52.674 77.986 57.7782 75.6643L57.7841 75.6584Z" fill="#E28C71"/>
<path d="M64.3913 122.657C63.1477 130.251 62.1398 146.351 65.4817 146.221C68.8295 146.092 70.6212 144.864 68.6585 144.393C66.6841 143.923 66.6133 143.7 66.631 143.094C66.7843 139.297 69.7254 132.068 70.8393 126.531C72.1301 120.112 65.4935 116.01 64.3913 122.646V122.657Z" fill="#F27851"/>
<path d="M63.9609 144.699C63.9609 144.699 66.961 145.781 68.6584 144.399C68.6584 144.399 71.9708 144.676 69.961 145.681C67.9629 146.692 64.0258 147.667 63.9609 144.699Z" fill="#6E86CC"/>
<path d="M52.1317 91.4403C52.1317 91.4403 69.3657 103.507 71.847 109.679C74.0749 115.228 68.9059 137.587 68.9059 137.587C68.9059 137.587 65.2752 139.033 61.9393 136.993L62.3754 119.607L47.8291 106.341L52.1317 91.4462V91.4403Z" fill="#C92F3B"/>
<path d="M41.0104 123.598C34.6449 128.841 22.4621 141.102 25.2558 143.347C28.0437 145.587 30.36 145.857 29.0987 144.111C27.8492 142.342 27.9376 142.101 28.3855 141.637C31.191 138.686 38.6528 134.918 43.4446 131.251C49.0203 126.995 46.5684 119.025 41.0045 123.598H41.0104Z" fill="#F27851"/>
<path d="M25.1024 141.055C25.1024 141.055 26.7586 144.029 29.0986 144.111C29.0986 144.111 31.5681 146.65 29.2459 146.051C26.9237 145.457 23.0749 143.488 25.1024 141.055Z" fill="#6E86CC"/>
<path d="M49.5744 91.3522C49.5744 91.3522 58.5156 111.666 56.158 118.372C54.042 124.409 34.1086 138.792 34.1086 138.792C34.1086 138.792 30.1597 137.405 28.9102 133.42L41.535 119.718C41.535 119.718 36.4898 103.884 38.9653 98.0117C39.0537 97.8119 38.6175 99.4106 38.6175 99.4106L49.5744 91.3522Z" fill="#E03D51"/>
<path d="M60.3309 100.345C63.6316 96.0015 65.4999 89.2655 65.6296 84.0343C65.8123 76.7811 59.3879 74.9119 55.3034 74.5299C51.2189 74.1361 44.541 73.3484 44.818 82.3885C45.0007 88.6954 42.7021 91.987 39.4958 97.324C39.4073 97.4651 39.3248 97.5826 39.2364 97.7119C39.2246 97.7119 39.2187 97.6943 39.2187 97.6943C39.2187 97.7061 39.2246 97.7119 39.2364 97.7119C34.7157 103.249 56.5824 105.283 60.3309 100.351V100.345Z" fill="#FCDCDA"/>
<path d="M39.4955 97.3122C39.4071 97.4533 39.3246 97.5709 39.2361 97.7002C39.2244 97.7002 39.2185 97.6825 39.2185 97.6825C39.2185 97.6943 39.2244 97.7002 39.2361 97.7002C35.7351 101.985 48.0182 104.16 55.4976 102.661C56.6587 100.927 51.0359 100.469 48.9553 98.7876C44.1576 94.9082 61.2619 94.5791 58.3149 93.1508C55.1322 91.6225 50.3993 92.2338 52.4858 87.5903C54.5605 82.941 52.7746 77.3806 50.8001 75.4997C48.7431 73.5306 45.301 75.8406 44.9238 80.1197C44.8295 80.8015 44.7765 81.5421 44.8059 82.3826C44.9887 88.6895 42.69 91.9811 39.4837 97.3181L39.4955 97.3122Z" fill="#EFBEBD"/>
<path d="M55.8864 69.2104C55.8864 69.2104 56.7881 72.649 54.242 73.9186C51.6309 75.2117 59.6349 81.5715 59.7646 79.6847C59.9296 77.2513 58.963 75.6114 60.6487 73.0957L55.8923 69.2104H55.8864Z" fill="#E67052"/>
<path d="M62.0396 64.1614C63.7194 66.4479 64.3383 75.247 61.8628 76.7105C60.7783 77.3336 57.1241 75.7172 55.3912 71.5792C54.6722 69.8805 53.9767 66.8123 56.0455 64.2437C56.9826 63.074 60.0887 61.5047 62.0396 64.1673V64.1614Z" fill="#EE9D7F"/>
<path d="M54.7669 64.1144C52.5802 66.8534 53.5409 69.4926 53.6942 69.9804C54.26 71.7555 55.7099 73.4072 56.1519 72.8958C56.6765 72.2845 54.6902 71.6439 55.6038 69.8864C56.5174 68.1289 55.3563 67.5059 55.9633 65.9306C56.5527 64.3613 57.7138 64.902 61.3976 65.0137C62.9064 65.0607 63.2836 64.5494 63.2306 63.9263C61.3622 61.2578 57.0714 61.2343 54.7787 64.1144H54.7669Z" fill="#062440"/>
<path d="M63.5193 66.0658C64.4152 63.944 67.6156 64.4494 66.5959 62.9506C65.9122 61.9455 65.9063 62.7037 58.2913 61.152C54.7373 60.429 54.0359 61.9455 53.3581 63.944C52.7274 65.7896 52.9278 70.3273 55.362 72.9958C57.7903 75.6584 55.2854 71.2207 56.2167 69.2105C57.1479 67.2061 57.7609 68.0525 59.1047 68.3876C60.4426 68.7167 62.0812 69.4926 63.5252 66.0717L63.5193 66.0658Z" fill="#353A66"/>
<path d="M38.4229 103.331L44.8767 112.553L96.8026 76.399L103.475 64.8962L90.3428 67.1768L38.4229 103.331Z" fill="#494C7F"/>
<path d="M93.9262 72.2865L41.998 108.44L44.876 112.551L96.8041 76.3975L93.9262 72.2865Z" fill="#373C66"/>
<path d="M103.475 64.8962L101.671 68.0114L99.9268 65.5133L103.475 64.8962Z" fill="#1F1440"/>
<path d="M49.3091 74.9413C50.2757 75.0178 51.9614 76.4754 52.1795 79.1792C52.4859 82.8 50.4289 89.3126 53.2934 93.427C56.1697 97.5533 59.5528 97.2594 61.8397 97.3534C64.1383 97.4533 65.099 96.4188 66.4252 96.6128C67.7513 96.8126 67.4448 98.3879 63.7257 99.1109C61.9517 99.4577 53.3818 102.22 49.0498 97.9471C43.3739 92.3455 43.6509 74.4946 49.3091 74.9413Z" fill="#E28C71"/>
</g>
<defs>
<clipPath id="clip0_678_16609">
<rect width="200" height="152" fill="white" transform="translate(0 0.592957)"/>
</clipPath>
</defs>
</svg>
