<svg width="284" height="213" viewBox="0 0 284 213" fill="none" xmlns="http://www.w3.org/2000/svg">
<g clip-path="url(#clip0_847_19648)">
<path d="M284 186.899H0V187.041H284V186.899Z" fill="#EBEBEB"/>
<path d="M255.543 196.053H236.731V196.196H255.543V196.053Z" fill="#EBEBEB"/>
<path d="M188.133 197.601H183.197V197.743H188.133V197.601Z" fill="#EBEBEB"/>
<path d="M236.163 190.773H225.263V190.916H236.163V190.773Z" fill="#EBEBEB"/>
<path d="M54.3293 191.729H29.7974V191.871H54.3293V191.729Z" fill="#EBEBEB"/>
<path d="M62.9856 191.729H59.3901V191.871H62.9856V191.729Z" fill="#EBEBEB"/>
<path d="M127.885 194.13H74.6748V194.272H127.885V194.13Z" fill="#EBEBEB"/>
<path d="M134.622 161.523H24.941C23.1518 161.523 21.6978 160.067 21.6978 158.274V3.84178C21.6978 2.04955 23.1518 0.593018 24.941 0.593018H134.622C136.411 0.593018 137.865 2.04955 137.865 3.84178V158.274C137.865 160.067 136.411 161.523 134.622 161.523ZM24.941 0.735257C23.2314 0.735257 21.8398 2.12921 21.8398 3.84178V158.274C21.8398 159.987 23.2314 161.381 24.941 161.381H134.622C136.332 161.381 137.723 159.987 137.723 158.274V3.84178C137.723 2.12921 136.332 0.735257 134.622 0.735257H24.941Z" fill="#EBEBEB"/>
<path d="M257.48 161.523H147.799C146.01 161.523 144.556 160.067 144.556 158.274V3.84178C144.556 2.04955 146.01 0.593018 147.799 0.593018H257.48C259.269 0.593018 260.724 2.04955 260.724 3.84178V158.274C260.724 160.067 259.269 161.523 257.48 161.523ZM147.799 0.735257C146.09 0.735257 144.698 2.12921 144.698 3.84178V158.274C144.698 159.987 146.09 161.381 147.799 161.381H257.48C259.19 161.381 260.582 159.987 260.582 158.274V3.84178C260.582 2.12921 259.19 0.735257 257.48 0.735257H147.799Z" fill="#EBEBEB"/>
<path d="M93.4305 6.73206H52.9604V144.255H93.4305V6.73206Z" fill="#FAFAFA"/>
<path d="M87.4039 6.73206H85.0411L70.9263 144.255H73.2891L87.4039 6.73206Z" fill="#F5F5F5"/>
<path d="M92.7148 7.26685H52.6992V8.47873H92.7148V7.26685Z" fill="#E0E0E0"/>
<path d="M92.7148 143.055H52.6992V145.649H92.7148V143.055Z" fill="#EBEBEB"/>
<path d="M92.05 145.535H54.2383V145.649H92.05V145.535Z" fill="#EBEBEB"/>
<path d="M54.2385 7.26686H92.0502V145.535H94.3166V5.56567H51.9722V145.535H54.2385V7.26686Z" fill="#EBEBEB"/>
<path d="M138.467 6.73206H97.9971V144.255H138.467V6.73206Z" fill="#FAFAFA"/>
<path d="M127.243 6.73206H114.338L100.224 144.255H113.123L127.243 6.73206Z" fill="#F5F5F5"/>
<path d="M138.887 7.26685H97.7358V8.47873H138.887V7.26685Z" fill="#E0E0E0"/>
<path d="M138.887 143.055H97.7358V145.649H138.887V143.055Z" fill="#EBEBEB"/>
<path d="M137.087 145.535H99.2749V145.649H137.087V145.535Z" fill="#EBEBEB"/>
<path d="M99.2751 7.26686H137.087V145.535H139.348V5.56567H97.0088V145.535H99.2751V7.26686Z" fill="#EBEBEB"/>
<path d="M182.362 6.73206H143.028V144.255H182.362V6.73206Z" fill="#FAFAFA"/>
<path d="M165.317 6.73206H162.954L148.839 144.255H151.202L165.317 6.73206Z" fill="#F5F5F5"/>
<path d="M182.788 7.26685H142.772V8.47873H182.788V7.26685Z" fill="#E0E0E0"/>
<path d="M182.788 143.055H142.772V145.649H182.788V143.055Z" fill="#EBEBEB"/>
<path d="M182.123 145.535H144.312V145.649H182.123V145.535Z" fill="#EBEBEB"/>
<path d="M144.312 7.26686H182.118V145.535H184.384V5.56567H142.045V145.535H144.312V7.26686Z" fill="#EBEBEB"/>
<path d="M228.535 6.73206H188.065V144.255H228.535V6.73206Z" fill="#FAFAFA"/>
<path d="M224.576 6.73206H211.677L197.557 144.255H210.462L224.576 6.73206Z" fill="#F5F5F5"/>
<path d="M227.819 7.26685H187.804V8.47873H227.819V7.26685Z" fill="#E0E0E0"/>
<path d="M227.819 143.055H187.804V145.649H227.819V143.055Z" fill="#EBEBEB"/>
<path d="M189.343 7.26686H227.155V145.535H229.421V5.56567H187.083V145.535H189.343V7.26686Z" fill="#EBEBEB"/>
<path d="M227.155 145.535H189.343V145.649H227.155V145.535Z" fill="#EBEBEB"/>
<path d="M83.746 112.627H66.1777V143.06H83.746V112.627Z" fill="#EBEBEB"/>
<path d="M80.3778 108.371V116.006H78.9919H70.9377H69.5518V108.371H80.3778Z" fill="#EBEBEB"/>
<path d="M80.3718 116.006H82.6211V113.753H80.3718V116.006Z" fill="#FAFAFA"/>
<path d="M76.0212 116.006H78.2705V113.753H76.0212V116.006Z" fill="#FAFAFA"/>
<path d="M71.6648 116.006H73.9141V113.753H71.6648V116.006Z" fill="#FAFAFA"/>
<path d="M67.3078 116.006H69.5571V113.753H67.3078V116.006Z" fill="#F0F0F0"/>
<path d="M80.3718 120.103H82.6211V117.85H80.3718V120.103Z" fill="#F0F0F0"/>
<path d="M76.0212 120.103H78.2705V117.85H76.0212V120.103Z" fill="#F0F0F0"/>
<path d="M71.6648 120.103H73.9141V117.85H71.6648V120.103Z" fill="#FAFAFA"/>
<path d="M67.3078 120.103H69.5571V117.85H67.3078V120.103Z" fill="#FAFAFA"/>
<path d="M80.3718 124.194H82.6211V121.941H80.3718V124.194Z" fill="#F0F0F0"/>
<path d="M76.0212 124.194H78.2705V121.941H76.0212V124.194Z" fill="#FAFAFA"/>
<path d="M71.6648 124.194H73.9141V121.941H71.6648V124.194Z" fill="#FAFAFA"/>
<path d="M76.0212 112.468H78.2705V110.214H76.0212V112.468Z" fill="#FAFAFA"/>
<path d="M71.6648 112.468H73.9141V110.214H71.6648V112.468Z" fill="#F0F0F0"/>
<path d="M67.3078 124.194H69.5571V121.941H67.3078V124.194Z" fill="#F0F0F0"/>
<path d="M80.3718 128.29H82.6211V126.037H80.3718V128.29Z" fill="#FAFAFA"/>
<path d="M76.0212 128.29H78.2705V126.037H76.0212V128.29Z" fill="#F0F0F0"/>
<path d="M71.6648 128.29H73.9141V126.037H71.6648V128.29Z" fill="#F0F0F0"/>
<path d="M67.3078 128.29H69.5571V126.037H67.3078V128.29Z" fill="#FAFAFA"/>
<path d="M80.3718 132.381H82.6211V130.128H80.3718V132.381Z" fill="#F0F0F0"/>
<path d="M76.0212 132.381H78.2705V130.128H76.0212V132.381Z" fill="#FAFAFA"/>
<path d="M71.6648 132.381H73.9141V130.128H71.6648V132.381Z" fill="#FAFAFA"/>
<path d="M67.3078 132.381H69.5571V130.128H67.3078V132.381Z" fill="#F0F0F0"/>
<path d="M80.3718 136.472H82.6211V134.219H80.3718V136.472Z" fill="#F0F0F0"/>
<path d="M76.0212 136.472H78.2705V134.219H76.0212V136.472Z" fill="#FAFAFA"/>
<path d="M71.6648 136.472H73.9141V134.219H71.6648V136.472Z" fill="#F0F0F0"/>
<path d="M67.3078 136.472H69.5571V134.219H67.3078V136.472Z" fill="#FAFAFA"/>
<path d="M80.3718 140.568H82.6211V138.315H80.3718V140.568Z" fill="#FAFAFA"/>
<path d="M76.0212 140.568H78.2705V138.315H76.0212V140.568Z" fill="#FAFAFA"/>
<path d="M71.6648 140.568H73.9141V138.315H71.6648V140.568Z" fill="#F0F0F0"/>
<path d="M67.3078 140.568H69.5571V138.315H67.3078V140.568Z" fill="#F0F0F0"/>
<path d="M207.508 123.71H191.769V143.055H207.508V123.71Z" fill="#F0F0F0"/>
<path d="M193.143 125.855H196.801H197.812H198.817V127.875H197.812H196.801H193.143V125.855Z" fill="#E6E6E6"/>
<path d="M193.143 129.77H196.801H197.812H198.817V131.784H197.812H196.801H193.143V129.77Z" fill="#FAFAFA"/>
<path d="M193.143 133.678H196.801H197.812H198.817V135.692H197.812H196.801H193.143V133.678Z" fill="#E6E6E6"/>
<path d="M193.143 137.587H196.801H198.357H198.817V139.607H198.357H196.801H193.143V137.587Z" fill="#FAFAFA"/>
<path d="M200.465 125.855H204.123H205.134H206.139V127.875H205.134H204.123H200.465V125.855Z" fill="#FAFAFA"/>
<path d="M200.465 129.77H204.123H205.548H206.139V131.784H205.548H204.123H200.465V129.77Z" fill="#FAFAFA"/>
<path d="M200.465 133.678H204.123H205.134H206.139V135.692H205.134H204.123H200.465V133.678Z" fill="#E6E6E6"/>
<path d="M200.465 137.587H204.123H205.134H206.139V139.607H205.134H204.123H200.465V137.587Z" fill="#FAFAFA"/>
<path d="M131.668 131.038H117.366V143.06H131.668V131.038Z" fill="#F0F0F0"/>
<path d="M128.925 134.372H130.754V132.54H128.925V134.372Z" fill="#FAFAFA"/>
<path d="M125.381 134.372H127.209V132.54H125.381V134.372Z" fill="#FAFAFA"/>
<path d="M121.831 134.372H123.66V132.54H121.831V134.372Z" fill="#FAFAFA"/>
<path d="M118.286 134.372H120.115V132.54H118.286V134.372Z" fill="#FAFAFA"/>
<path d="M128.925 137.701H130.754V135.869H128.925V137.701Z" fill="#FAFAFA"/>
<path d="M125.381 137.701H127.209V135.869H125.381V137.701Z" fill="#FAFAFA"/>
<path d="M121.831 137.701H123.66V135.869H121.831V137.701Z" fill="#FAFAFA"/>
<path d="M118.286 137.701H120.115V135.869H118.286V137.701Z" fill="#E6E6E6"/>
<path d="M128.925 141.035H130.754V139.203H128.925V141.035Z" fill="#E6E6E6"/>
<path d="M125.381 141.035H127.209V139.203H125.381V141.035Z" fill="#E6E6E6"/>
<path d="M121.831 141.035H123.66V139.203H121.831V141.035Z" fill="#FAFAFA"/>
<path d="M118.286 141.035H120.115V139.203H118.286V141.035Z" fill="#E6E6E6"/>
<path d="M115.429 122.146H101.127V143.055H115.429V122.146Z" fill="#F0F0F0"/>
<path d="M114.515 123.067H109.136V128.233H114.515V123.067Z" fill="#FAFAFA"/>
<path d="M107.42 123.067H102.042V128.233H107.42V123.067Z" fill="#FAFAFA"/>
<path d="M114.515 129.73H109.136V134.896H114.515V129.73Z" fill="#FAFAFA"/>
<path d="M107.42 129.73H102.042V134.896H107.42V129.73Z" fill="#FAFAFA"/>
<path d="M114.515 136.392H109.136V141.558H114.515V136.392Z" fill="#FAFAFA"/>
<path d="M107.42 136.392H102.042V141.558H107.42V136.392Z" fill="#FAFAFA"/>
<path d="M142 212.593C202.823 212.593 252.13 209.709 252.13 206.152C252.13 202.595 202.823 199.712 142 199.712C81.1773 199.712 31.8706 202.595 31.8706 206.152C31.8706 209.709 81.1773 212.593 142 212.593Z" fill="#F5F5F5"/>
<path d="M252.516 14.6235V139.931L237.464 155.009H150.327V14.6235H252.516Z" fill="#407BFF"/>
<path opacity="0.8" d="M252.516 14.6235V139.931L237.464 155.009H150.327V14.6235H252.516Z" fill="white"/>
<path opacity="0.2" d="M237.464 155.009V140.369H252.516L237.759 155.157" fill="black"/>
<path opacity="0.1" d="M188.996 26.7822H160.812C159.988 26.7822 159.318 26.1108 159.318 25.2858C159.318 24.4608 159.988 23.7894 160.812 23.7894H188.996C189.819 23.7894 190.49 24.4608 190.49 25.2858C190.49 26.1108 189.819 26.7822 188.996 26.7822Z" fill="black"/>
<path opacity="0.1" d="M240.116 38.9295H172.172C171.348 38.9295 170.678 38.2581 170.678 37.4331C170.678 36.6081 171.348 35.9368 172.172 35.9368H240.116C240.939 35.9368 241.61 36.6081 241.61 37.4331C241.61 38.2581 240.939 38.9295 240.116 38.9295Z" fill="black"/>
<path opacity="0.1" d="M240.116 44.8353H160.812C159.988 44.8353 159.318 44.1639 159.318 43.3389C159.318 42.5139 159.988 41.8425 160.812 41.8425H240.116C240.939 41.8425 241.61 42.5139 241.61 43.3389C241.61 44.1639 240.939 44.8353 240.116 44.8353Z" fill="black"/>
<path opacity="0.1" d="M240.116 51.4977H160.812C159.988 51.4977 159.318 50.8264 159.318 50.0014C159.318 49.1764 159.988 48.505 160.812 48.505H240.116C240.939 48.505 241.61 49.1764 241.61 50.0014C241.61 50.8264 240.939 51.4977 240.116 51.4977Z" fill="black"/>
<path opacity="0.1" d="M240.116 58.1659H160.812C159.988 58.1659 159.318 57.4946 159.318 56.6696C159.318 55.8446 159.988 55.1732 160.812 55.1732H240.116C240.939 55.1732 241.61 55.8446 241.61 56.6696C241.61 57.4946 240.939 58.1659 240.116 58.1659Z" fill="black"/>
<path opacity="0.1" d="M240.116 64.8342H160.812C159.988 64.8342 159.318 64.1628 159.318 63.3378C159.318 62.5128 159.988 61.8414 160.812 61.8414H240.116C240.939 61.8414 241.61 62.5128 241.61 63.3378C241.61 64.1628 240.939 64.8342 240.116 64.8342Z" fill="black"/>
<path opacity="0.1" d="M240.116 71.5024H160.812C159.988 71.5024 159.318 70.831 159.318 70.006C159.318 69.181 159.988 68.5096 160.812 68.5096H240.116C240.939 68.5096 241.61 69.181 241.61 70.006C241.61 70.831 240.939 71.5024 240.116 71.5024Z" fill="black"/>
<path opacity="0.1" d="M240.122 75.1721H160.812C159.987 75.1721 159.318 75.8421 159.318 76.6685V76.6742C159.318 77.5006 159.987 78.1705 160.812 78.1705H240.122C240.947 78.1705 241.615 77.5006 241.615 76.6742V76.6685C241.615 75.8421 240.947 75.1721 240.122 75.1721Z" fill="black"/>
<path opacity="0.1" d="M240.116 84.8331H160.812C159.988 84.8331 159.318 84.1617 159.318 83.3367C159.318 82.5117 159.988 81.8403 160.812 81.8403H240.116C240.939 81.8403 241.61 82.5117 241.61 83.3367C241.61 84.1617 240.939 84.8331 240.116 84.8331Z" fill="black"/>
<path opacity="0.1" d="M240.116 91.5013H160.812C159.988 91.5013 159.318 90.8299 159.318 90.0049C159.318 89.1799 159.988 88.5085 160.812 88.5085H240.116C240.939 88.5085 241.61 89.1799 241.61 90.0049C241.61 90.8299 240.939 91.5013 240.116 91.5013Z" fill="black"/>
<path opacity="0.1" d="M240.116 98.1695H160.812C159.988 98.1695 159.318 97.4981 159.318 96.6731C159.318 95.8481 159.988 95.1768 160.812 95.1768H240.116C240.939 95.1768 241.61 95.8481 241.61 96.6731C241.61 97.4981 240.939 98.1695 240.116 98.1695Z" fill="black"/>
<path opacity="0.1" d="M240.116 104.832H160.812C159.988 104.832 159.318 104.161 159.318 103.336C159.318 102.511 159.988 101.839 160.812 101.839H240.116C240.939 101.839 241.61 102.511 241.61 103.336C241.61 104.161 240.939 104.832 240.116 104.832Z" fill="black"/>
<path opacity="0.1" d="M194.676 111.5H160.812C159.988 111.5 159.318 110.829 159.318 110.004C159.318 109.179 159.988 108.507 160.812 108.507H194.676C195.499 108.507 196.17 109.179 196.17 110.004C196.17 110.829 195.499 111.5 194.676 111.5Z" fill="black"/>
<path d="M233.987 45.3303C233.953 45.3019 233.919 45.2734 233.879 45.2393C233.578 45.0003 233.396 45.08 233.254 44.6362C233.152 44.3062 233.266 43.9478 233.141 43.6064C232.919 43.0317 232.516 42.4742 232.215 41.9337C231.749 41.0916 231.284 40.2552 230.812 39.4132C230.165 38.2525 228.693 37.8314 227.535 38.4801L214.67 45.6603C214.618 46.0927 214.261 46.3886 214.192 46.821C214.153 47.0657 214.215 47.3388 214.403 47.4924C214.244 47.5038 214.136 47.4241 214.005 47.3501C213.238 46.9234 213.034 46.582 212.244 47.0145C211.903 47.1965 211.568 47.39 211.233 47.5777C210.097 48.215 208.955 48.8465 207.819 49.4837C204.258 51.4694 200.702 53.4551 197.141 55.4407C192.966 57.7678 188.797 60.0948 184.622 62.4276C181.152 64.362 177.681 66.3022 174.217 68.2366C172.797 69.0275 171.07 69.7216 169.809 70.7287C170.161 70.9164 170.218 71.1895 169.911 71.4626C169.712 71.639 169.519 71.8097 169.32 71.9861C169.315 72.1226 169.531 72.1226 169.656 72.0714C169.888 71.969 170.127 71.8666 170.36 71.7699C169.871 72.39 169.281 72.9306 168.622 73.3573C167.537 74.0571 166.282 74.444 165.049 74.8252L165.651 74.0685C165.702 74.0059 165.753 73.9262 165.719 73.8523C165.691 73.7897 165.606 73.7726 165.532 73.7669C165.236 73.7385 164.935 73.7669 164.708 73.545C162.766 74.7114 160.738 75.764 158.761 76.8678C157.603 77.5164 157.182 78.99 157.83 80.1507L170.797 103.472C171.445 104.633 172.916 105.054 174.075 104.405L177.568 102.46C177.573 102.056 177.886 101.606 177.647 101.231C177.619 101.185 177.579 101.134 177.579 101.077C177.579 101.003 177.647 100.946 177.71 100.906C178.056 100.684 178.465 100.554 178.874 100.531C179.016 100.525 179.204 100.588 179.181 100.724C179.204 100.605 179.914 100.337 180.039 100.298C180.095 100.605 179.885 100.935 180.243 100.997C180.533 101.049 181.146 100.451 181.402 100.309C182.538 99.6717 183.679 99.0401 184.815 98.4029C188.405 96.4001 192.001 94.3917 195.59 92.389C199.538 90.1871 203.48 87.9852 207.428 85.7834C210.046 84.3211 212.664 82.8646 215.277 81.4024C215.567 81.2431 215.896 81.0496 216.175 80.9074C216.294 80.475 216.516 79.7979 216.902 79.5305C217.464 79.1379 218.367 79.5703 218.844 79.0127C218.935 78.9046 218.992 78.7738 219.072 78.66C219.208 78.4665 219.418 78.3357 219.617 78.2105C219.764 78.1195 219.918 78.0227 220.088 78.0227C220.259 78.0227 220.44 78.165 220.418 78.3357C221.588 78.0626 222.644 77.2774 223.678 76.6857C224.047 76.4752 227.342 74.9276 227.325 74.683C227.279 73.9262 227.745 73.2776 227.722 72.4982C227.722 72.3502 227.433 71.3659 227.563 71.2863C224.61 73.05 221.537 74.6545 218.532 76.3329C218.43 76.3898 218.043 76.5264 217.987 76.6345C217.975 76.6629 217.958 76.6914 217.947 76.7141C217.918 76.7767 217.89 76.8393 217.862 76.9019C217.856 76.919 217.85 76.936 217.839 76.9474C217.697 77.3059 217.589 77.7326 217.407 78.074C217.379 78.1252 216.765 78.9217 216.714 78.7339C216.464 77.8179 216.118 77.6757 215.448 78.0512C215.113 78.239 214.783 78.421 214.448 78.6088C213.392 79.2005 212.329 79.7922 211.273 80.3839C207.706 82.3753 204.139 84.361 200.577 86.3523C196.374 88.6964 192.177 91.0405 187.974 93.3847C184.475 95.3362 180.97 97.2934 177.471 99.2449C176.006 100.064 174.54 100.884 173.075 101.697C172.189 100.104 171.303 98.5167 170.422 96.9236L168.718 93.8569C168.514 93.4871 168.315 92.9636 167.974 92.7133C167.73 92.5312 167.315 92.5767 167.094 92.4117C166.566 92.0135 166.185 91.2681 165.685 90.8016C165.344 90.4887 164.828 89.5328 164.97 89.0037C165.14 89.0719 165.31 89.1402 165.481 89.1971C165.396 88.8216 165.401 88.5087 165.538 88.1332C163.822 85.2656 162.26 82.2558 160.63 79.32C160.63 79.3086 160.522 79.1322 160.522 79.1322C161.851 78.3926 163.175 77.6529 164.504 76.9133C165.469 76.3728 166.441 75.8323 167.406 75.2917C167.923 75.0016 168.633 74.7455 169.088 74.353C169.457 74.0343 169.826 73.6361 170.246 73.289C170.502 73.0785 170.797 72.9363 171.093 72.7883C171.45 72.6119 171.808 72.4413 172.166 72.2649C172.223 72.2364 172.285 72.208 172.348 72.208C172.416 72.208 172.473 72.2364 172.541 72.2535C173.115 72.373 174.518 71.3204 175.029 71.0359C176.131 70.4215 177.233 69.807 178.335 69.1925C181.657 67.3377 184.986 65.4829 188.309 63.6281C192.449 61.3181 196.596 59.0024 200.736 56.6925C204.883 54.3768 209.029 52.0668 213.176 49.7512C216.51 47.8907 219.85 46.0302 223.184 44.164C224.894 43.2081 226.609 42.2523 228.319 41.2964C228.398 41.2509 228.478 41.2111 228.557 41.1656C228.557 41.1656 234.038 51.0256 234.084 51.1053C234.402 51.6742 235.027 52.448 235.646 52.6528C235.867 52.7268 236.123 52.8861 236.1 53.1194C236.072 53.3697 235.731 53.5461 235.81 53.7851C235.901 54.0582 236.327 53.9387 236.43 54.1549C236.566 54.428 236.254 54.7125 236.288 55.0197C236.322 55.3213 236.657 55.7366 236.804 55.9983C237.338 56.9656 237.878 57.9271 238.412 58.8943C239.309 60.5045 240.201 62.1146 241.104 63.7362L231.278 69.2209C231.323 69.2608 231.369 69.3063 231.397 69.3632C231.42 69.403 231.431 69.4485 231.448 69.494C231.653 69.5509 231.857 69.659 232.045 69.7444C232.204 69.8184 232.295 70.0289 232.295 70.1939C232.295 70.3702 232.192 70.5409 232.033 70.6263L231.431 70.962C231.38 71.2294 231.193 71.4456 230.914 71.5025C230.846 71.5139 230.772 71.5195 230.704 71.5195C230.585 71.6049 230.443 71.639 230.284 71.5992C230.028 71.5366 229.846 71.2237 229.937 70.9733C229.96 70.9108 229.994 70.8596 230.028 70.8083C229.943 70.6433 229.949 70.4385 230.062 70.2792C230 70.2735 229.943 70.2678 229.881 70.2565C229.784 70.2337 229.687 70.1996 229.591 70.1711C228.972 70.5125 228.801 70.9051 228.444 71.5195C228.426 71.5537 228.404 71.5878 228.415 71.622C228.432 71.7016 228.54 71.7073 228.614 71.7414C228.779 71.8211 228.745 72.0714 228.659 72.2421C228.574 72.4071 228.472 72.6176 228.586 72.7656C228.625 72.8168 228.688 72.8509 228.728 72.9021C228.966 73.1752 228.597 73.9831 229.188 73.6531C229.142 73.4881 229.182 73.2833 229.267 73.1354C229.358 72.9761 229.523 72.8623 229.699 72.8111C230.136 72.6973 230.591 72.6461 231.045 72.6119L242.876 66.012C244.035 65.3634 244.455 63.8898 243.808 62.7291L243.74 62.6096C241.956 59.4007 240.173 56.1975 238.389 52.9885L235.299 47.4298C235.004 46.895 234.72 46.3488 234.408 45.8253C234.277 45.6148 234.186 45.4783 234.016 45.3246L233.987 45.3303Z" fill="#407BFF"/>
<path d="M179.294 76.7654C178.903 76.2875 179.022 76.2761 178.942 75.7641C178.942 75.7527 178.942 75.7413 178.937 75.7299C178.92 75.7129 178.908 75.6958 178.891 75.6844C178.863 75.6617 178.846 75.6275 178.817 75.6048C178.55 75.7242 178.283 75.8551 178.016 76.003L172.785 78.9218L174.892 82.7054C174.597 82.1763 175.642 82.3356 175.682 82.3299C175.796 82.3128 175.909 82.2616 176.028 82.273C176.142 82.29 176.239 82.364 176.307 82.455C176.574 82.8021 176.534 83.2857 176.489 83.7181C176.426 84.3099 176.727 84.8788 176.398 85.4193C176.676 85.8745 179.198 90.4603 179.204 90.4546L184.435 87.5359C184.736 87.3652 185.452 87.0693 185.628 86.7621C185.753 86.5402 185.525 85.994 185.838 85.846C186.048 85.7493 186.394 85.7948 186.553 85.9143C188.644 83.849 188.985 80.7595 187.57 78.222C186.099 75.5763 182.759 74.006 179.834 75.2293C179.63 75.3146 179.902 76.2306 179.414 76.333C179.505 76.1453 179.641 75.9917 179.811 75.8665M183.083 85.4136L180.646 86.7734C180.447 86.415 180.254 86.0566 180.05 85.7095C180.305 86.1476 179.601 86.011 179.453 85.9086C179.096 85.6697 178.999 84.9812 178.988 84.5943C178.965 83.8205 178.783 83.428 178.397 82.7281C177.823 81.6926 177.244 80.6571 176.67 79.6216L179.107 78.2618C181.396 76.9873 183.651 77.5165 184.878 79.724C186.105 81.9316 185.372 84.1335 183.083 85.4136Z" fill="#407BFF"/>
<path d="M196.59 67.0703C196.703 67.3547 196.755 67.6335 196.692 67.9351C196.658 68.0944 196.408 68.5154 196.442 68.6008C196.533 68.8283 196.618 69.0559 196.709 69.2835C196.726 69.3176 196.738 69.3575 196.766 69.3859C196.806 69.4201 196.863 69.4314 196.914 69.4314C197.817 69.5054 197.777 69.6021 197.834 70.3645C197.885 71.0188 198.447 71.3944 198.765 71.9633C199.987 74.1538 199.271 76.515 197.215 77.6643C196.039 78.3243 194.755 78.3926 193.642 77.9203C193.619 77.9431 193.597 77.9658 193.574 77.9829C193.46 78.0455 193.313 78.0626 193.188 78.0284C192.597 77.852 192.108 77.3741 191.989 76.7596C191.978 76.7141 191.989 76.6686 191.989 76.6231C191.836 76.424 191.694 76.2191 191.563 75.9859C190.342 73.7954 191.058 71.4285 193.114 70.2849C193.875 69.8582 194.681 69.6932 195.46 69.7501C195.443 69.7273 195.425 69.7045 195.408 69.6818C194.92 69.0332 196.686 68.7714 195.886 68.339C195.55 68.157 195.607 67.332 195.522 66.9906C194.307 67.0077 193.051 67.3377 191.841 68.009C188.206 70.0402 186.951 74.0628 188.859 77.4936C189.672 78.9558 190.989 80.1051 192.585 80.6342C192.921 80.748 193.409 80.9415 193.767 80.9074C194.233 80.8675 194.005 80.9358 194.199 80.6286C194.375 80.3498 194.278 80.2303 194.579 79.9344C194.875 79.6443 195.232 79.4565 195.301 79.0013C195.283 79.2062 195.528 79.3541 195.528 79.5532C195.528 79.6158 195.505 79.6727 195.511 79.7353C195.516 79.8093 195.562 79.8718 195.607 79.9344C195.8 80.1962 196.124 80.4806 196.13 80.8049C196.931 80.7082 197.771 80.3384 198.481 79.9401C202.099 77.9203 203.383 73.9035 201.463 70.4556C200.503 68.7316 198.623 67.1784 196.584 67.0589L196.59 67.0703Z" fill="#407BFF"/>
<path d="M208.206 59.1561L212.102 66.16L202.48 62.348L200.276 63.5769C201.765 66.251 203.344 68.9024 204.747 71.622C204.843 71.3318 205.07 71.2693 205.343 71.2351C205.854 71.1611 205.837 71.4172 206.115 71.9292C206.149 71.9861 206.189 72.0487 206.252 72.0658C206.354 72.0829 206.439 71.9691 206.541 71.9861C206.644 71.9975 206.683 72.1284 206.661 72.2251C206.632 72.3218 206.564 72.4015 206.513 72.4868C206.348 72.7998 206.621 73.0046 206.587 73.2834C206.57 73.437 206.093 74.0344 206.149 74.1368L206.695 75.1211L209.325 73.6532L208.62 72.3901C208.581 72.3958 208.535 72.4015 208.495 72.4072C207.729 72.5039 208.064 71.5025 207.899 71.0872C207.666 70.5068 207.263 69.9493 206.962 69.4031C206.451 68.487 205.939 67.571 205.434 66.6493L213.261 69.7331C213.278 69.5055 213.227 69.2665 213.34 69.0617C213.403 68.9479 213.891 68.7203 213.886 68.6065C213.914 68.9707 214.09 69.3177 214.363 69.5567C214.669 69.8241 214.669 69.7843 214.607 70.2565L215.078 70.4443L217.265 69.221L210.847 57.6825L208.217 59.1504L208.206 59.1561Z" fill="#407BFF"/>
<path d="M221.446 64.0776L219.963 61.4092L225.308 58.4278L224.155 56.3511L218.81 59.3325L217.419 56.829L221.037 54.8092C221.179 54.6158 221.378 54.4622 221.588 54.337C221.702 54.2687 221.832 54.263 221.946 54.2972L223.474 53.4437C223.474 53.4437 222.394 51.5036 222.287 51.3044C221.764 51.5434 222.287 52.2034 221.758 52.522C221.866 52.6358 222.025 53.0455 221.741 53.0682C221.588 53.0796 221.48 52.8748 221.327 52.8918C221.241 52.9032 221.168 52.9772 221.082 52.9601C221.037 52.9487 221.003 52.9089 220.974 52.8634C220.872 52.7041 220.832 52.505 220.696 52.3741C220.338 52.027 217.072 54.2061 216.618 54.4622C215.607 55.0254 214.59 55.5944 213.579 56.1577L219.998 67.6962L222.559 66.2681C222.559 66.2681 222.593 66.2226 222.61 66.1998C222.792 65.9608 222.98 65.7162 223.178 65.4943C223.332 65.3236 223.599 65.3179 223.792 65.4203C223.837 65.4431 223.871 65.4772 223.905 65.5171L228.909 62.7235L227.717 60.5785L221.446 64.0776Z" fill="#407BFF"/>
<path d="M228.279 186.791C228.279 186.791 224.542 178.626 228.813 170.581C233.079 162.536 234.317 160.636 231.596 158.991C228.876 157.341 227.626 165.432 227.626 165.432C227.626 165.432 225.331 159.867 227.229 154.047C229.12 148.227 230.307 138.742 227.723 137.724C225.138 136.705 227.229 149.552 224.985 153.933C224.985 153.933 223.099 149.057 222.792 144.38C222.486 139.704 222.969 132.239 220.924 130.321C218.879 128.404 217.573 129.73 219.578 140.051C221.583 150.372 221.571 158.758 221.571 158.758C221.571 158.758 217.141 145.222 214.165 144.824C211.188 144.432 211.194 148.813 213.739 152.613C216.283 156.414 221.196 163.23 222.003 166.735C222.003 166.735 217.135 156.545 212.762 159.668C208.382 162.792 216.573 168.942 220.219 171.167C223.866 173.392 226.399 187.331 226.399 187.331L228.279 186.791Z" fill="#407BFF"/>
<path opacity="0.2" d="M228.279 186.791C228.279 186.791 224.542 178.626 228.813 170.581C233.079 162.536 234.317 160.636 231.596 158.991C228.876 157.341 227.626 165.432 227.626 165.432C227.626 165.432 225.331 159.867 227.229 154.047C229.12 148.227 230.307 138.742 227.723 137.724C225.138 136.705 227.229 149.552 224.985 153.933C224.985 153.933 223.099 149.057 222.792 144.38C222.486 139.704 222.969 132.239 220.924 130.321C218.879 128.404 217.573 129.73 219.578 140.051C221.583 150.372 221.571 158.758 221.571 158.758C221.571 158.758 217.141 145.222 214.165 144.824C211.188 144.432 211.194 148.813 213.739 152.613C216.283 156.414 221.196 163.23 222.003 166.735C222.003 166.735 217.135 156.545 212.762 159.668C208.382 162.792 216.573 168.942 220.219 171.167C223.866 173.392 226.399 187.331 226.399 187.331L228.279 186.791Z" fill="black"/>
<path d="M225.326 190.142C225.326 190.142 228.961 181.92 224.598 173.938C220.236 165.955 218.975 164.078 221.673 162.388C224.371 160.698 225.717 168.766 225.717 168.766C225.717 168.766 227.944 163.167 225.979 157.375C224.013 151.583 222.713 142.116 225.286 141.063C227.859 140.005 225.922 152.886 228.217 157.233C228.217 157.233 230.046 152.329 230.296 147.652C230.551 142.969 229.977 135.51 231.994 133.564C234.01 131.619 235.339 132.922 233.454 143.271C231.568 153.62 231.687 162.007 231.687 162.007C231.687 162.007 235.958 148.403 238.929 147.965C241.9 147.527 241.945 151.908 239.446 155.748C236.947 159.589 232.119 166.473 231.352 169.989C231.352 169.989 236.095 159.731 240.508 162.786C244.922 165.842 236.81 172.117 233.187 174.399C229.563 176.675 227.2 190.654 227.2 190.654L225.314 190.142H225.326Z" fill="#407BFF"/>
<path d="M242.104 184.281H212.057L214.488 205.822H239.673L242.104 184.281Z" fill="#263238"/>
<path d="M88.3979 48.8408H68.5634C66.973 48.8408 65.6836 50.1324 65.6836 51.7198V71.0302C65.6836 72.6233 66.973 73.9092 68.5634 73.9092H74.9079L70.6366 79.7296L78.0262 73.9092H88.3979C89.9883 73.9092 91.2777 72.6176 91.2777 71.0302V51.7198C91.2777 50.1267 89.9883 48.8408 88.3979 48.8408Z" fill="#407BFF"/>
<path opacity="0.6" d="M88.3979 48.8408H68.5634C66.973 48.8408 65.6836 50.1324 65.6836 51.7198V71.0302C65.6836 72.6233 66.973 73.9092 68.5634 73.9092H74.9079L70.6366 79.7296L78.0262 73.9092H88.3979C89.9883 73.9092 91.2777 72.6176 91.2777 71.0302V51.7198C91.2777 50.1267 89.9883 48.8408 88.3979 48.8408Z" fill="white"/>
<path d="M78.4862 70.3987C83.4583 70.3987 87.489 66.3612 87.489 61.3807C87.489 56.4002 83.4583 52.3627 78.4862 52.3627C73.5141 52.3627 69.4834 56.4002 69.4834 61.3807C69.4834 66.3612 73.5141 70.3987 78.4862 70.3987Z" fill="#407BFF"/>
<path opacity="0.2" d="M85.9958 63.1496C86.9751 58.9934 84.4054 54.829 80.2563 53.848C76.1071 52.8671 71.9497 55.4411 70.9704 59.5973C69.9911 63.7534 72.5608 67.9179 76.71 68.8988C80.8591 69.8798 85.0165 67.3058 85.9958 63.1496Z" fill="black"/>
<path d="M77.5262 65.0732C77.3217 65.0732 77.1229 64.9935 76.9752 64.8456L73.6979 61.631C73.3855 61.3238 73.3798 60.8288 73.6865 60.5158C73.9932 60.2029 74.4874 60.1972 74.7998 60.5045L77.4864 63.1387L82.1327 57.9441C82.4223 57.6198 82.9222 57.5914 83.2459 57.8816C83.5697 58.1717 83.5981 58.6724 83.3084 58.9967L78.1169 64.8115C77.9749 64.9708 77.7704 65.0675 77.5546 65.0732C77.5432 65.0732 77.5375 65.0732 77.5262 65.0732Z" fill="white"/>
<path d="M52.7671 192.879L69.1312 191.268V172.783H75.6178V191.263L92.05 192.879C93.6802 193.038 94.9241 194.415 94.9241 196.053V198.517H49.8931V196.053C49.8931 194.409 51.137 193.038 52.7671 192.879Z" fill="#263238"/>
<path opacity="0.1" d="M52.7671 192.879L69.1312 191.268V172.783H75.6178V191.263L92.05 192.879C93.6802 193.038 94.9241 194.415 94.9241 196.053V198.517H49.8931V196.053C49.8931 194.409 51.137 193.038 52.7671 192.879Z" fill="white"/>
<path d="M93.1917 205.822C95.535 205.822 97.4346 203.92 97.4346 201.572C97.4346 199.225 95.535 197.322 93.1917 197.322C90.8484 197.322 88.9487 199.225 88.9487 201.572C88.9487 203.92 90.8484 205.822 93.1917 205.822Z" fill="#263238"/>
<path d="M51.6253 205.822C53.9686 205.822 55.8682 203.92 55.8682 201.572C55.8682 199.225 53.9686 197.322 51.6253 197.322C49.282 197.322 47.3823 199.225 47.3823 201.572C47.3823 203.92 49.282 205.822 51.6253 205.822Z" fill="#263238"/>
<path d="M74.3851 177.733H70.358C69.063 177.733 68.0122 176.68 68.0122 175.383V157.216H76.731V175.383C76.731 176.68 75.6802 177.733 74.3851 177.733Z" fill="#263238"/>
<path opacity="0.2" d="M74.3851 177.733H70.358C69.063 177.733 68.0122 176.68 68.0122 175.383V157.216H76.731V175.383C76.731 176.68 75.6802 177.733 74.3851 177.733Z" fill="white"/>
<path d="M49.7224 121.594C49.7224 121.594 54.5845 151.982 64.1724 157.216H54.4255C54.4255 157.216 44.7979 146.861 41.8613 121.594H49.7281H49.7224Z" fill="#263238"/>
<path opacity="0.1" d="M49.7224 121.594C49.7224 121.594 54.5845 151.982 64.1724 157.216H54.4255C54.4255 157.216 44.7979 146.861 41.8613 121.594H49.7281H49.7224Z" fill="white"/>
<path d="M53.9425 152.921H91.9531C93.5208 152.921 94.7931 154.195 94.7931 155.765V159.572H51.1025V155.765C51.1025 154.195 52.3749 152.921 53.9425 152.921Z" fill="#407BFF"/>
<path d="M95.4691 156.243H50.421C49.7904 156.243 49.2793 156.755 49.2793 157.387V158.422C49.2793 159.054 49.7904 159.566 50.421 159.566H95.4691C96.0996 159.566 96.6107 159.054 96.6107 158.422V157.387C96.6107 156.755 96.0996 156.243 95.4691 156.243Z" fill="#263238"/>
<path opacity="0.6" d="M95.4691 156.243H50.421C49.7904 156.243 49.2793 156.755 49.2793 157.387V158.422C49.2793 159.054 49.7904 159.566 50.421 159.566H95.4691C96.0996 159.566 96.6107 159.054 96.6107 158.422V157.387C96.6107 156.755 96.0996 156.243 95.4691 156.243Z" fill="white"/>
<path d="M40.7083 127.767H56.3227C60.8951 127.767 63.8714 124.091 62.9626 119.557L61.7471 113.503C60.8383 108.968 56.3908 105.293 51.8184 105.293H36.2041C31.6317 105.293 28.6554 108.968 29.5642 113.503L30.7797 119.557C31.6885 124.091 36.1359 127.767 40.7083 127.767Z" fill="#407BFF"/>
<path d="M123.562 178.643L119.984 180.049L117.405 175.19L115.071 170.769L119.035 168.385L121.432 173.813L123.562 178.643Z" fill="#E4897B"/>
<path opacity="0.2" d="M121.432 173.813L117.405 175.19L115.071 170.769L119.035 168.385L121.432 173.813Z" fill="black"/>
<path d="M120.688 171.161L115.821 173.779C115.821 173.779 97.4231 141.376 94.5944 141.644C91.7658 141.911 64.9278 159.048 56.7429 152.721C48.5581 146.4 56.5214 127.346 56.5214 127.346C56.5214 127.346 73.4535 122.498 75.2881 126.225C75.646 126.947 76.1231 128.393 76.5037 129.633C76.8672 130.799 77.1398 131.784 77.1398 131.784C77.1398 131.784 77.1398 131.784 77.1512 131.778C77.6681 131.567 94.39 124.7 101.853 128.381C109.436 132.125 120.694 171.161 120.694 171.161H120.688Z" fill="#263238"/>
<path opacity="0.3" d="M120.688 171.161L115.821 173.779C115.821 173.779 97.4231 141.376 94.5944 141.644C91.7658 141.911 64.9278 159.048 56.7429 152.721C48.5581 146.4 56.5214 127.346 56.5214 127.346C56.5214 127.346 73.4535 122.498 75.2881 126.225C75.646 126.947 76.1231 128.393 76.5037 129.633C76.8672 130.799 77.1398 131.784 77.1398 131.784C77.1398 131.784 77.1398 131.784 77.1512 131.778C77.6681 131.567 94.39 124.7 101.853 128.381C109.436 132.125 120.694 171.161 120.694 171.161H120.688Z" fill="white"/>
<path d="M94.2423 197.584L90.4254 197.146L90.4027 191.752L90.397 186.802L95.0148 186.58L94.6059 192.406L94.2423 197.584Z" fill="#E4897B"/>
<path opacity="0.2" d="M94.5943 192.526L90.3911 191.854V186.853L95.009 186.609L94.5943 192.526Z" fill="black"/>
<path d="M113.44 172.168L120.563 168.595L121.307 171.617L115.911 174.404L113.44 172.168Z" fill="#407BFF"/>
<path d="M69.3867 152.773C69.3867 152.773 70.5625 152.642 88.5567 149.302C88.5567 149.302 88.96 172.362 89.8177 189.544L95.3614 189.721C95.3614 189.721 103.313 151.578 102.382 145.814C101.45 140.056 94.6059 139.277 94.6059 139.277C94.6059 139.277 82.7234 148.522 69.3924 152.773H69.3867Z" fill="#263238"/>
<path opacity="0.4" d="M69.3867 152.773C69.3867 152.773 70.5625 152.642 88.5567 149.302C88.5567 149.302 88.96 172.362 89.8177 189.544L95.3614 189.721C95.3614 189.721 103.313 151.578 102.382 145.814C101.45 140.056 94.6059 139.277 94.6059 139.277C94.6059 139.277 82.7234 148.522 69.3924 152.773H69.3867Z" fill="white"/>
<path opacity="0.3" d="M69.3867 152.773C69.3867 152.773 70.5625 152.642 88.5567 149.302C88.5567 149.302 88.96 172.362 89.8177 189.544L95.3614 189.721C95.3614 189.721 103.313 151.578 102.382 145.814C101.45 140.056 94.6059 139.277 94.6059 139.277C94.6059 139.277 82.7234 148.522 69.3924 152.773H69.3867Z" fill="black"/>
<path d="M88.8008 188.008L96.3609 187.832L95.3271 190.95L89.1927 191.007L88.8008 188.008Z" fill="#407BFF"/>
<path opacity="0.3" d="M77.1341 131.784L67.3247 135.283C67.3247 135.283 72.4821 131.425 76.5036 129.633C76.8671 130.799 77.1397 131.784 77.1397 131.784H77.1341Z" fill="black"/>
<path d="M55.3853 126.174L55.7488 128.899L74.1349 124.99L73.7089 121.77L55.3853 126.174Z" fill="#263238"/>
<path opacity="0.2" d="M55.3853 126.174L55.7488 128.899L74.1349 124.99L73.7089 121.77L55.3853 126.174Z" fill="black"/>
<path d="M61.4755 124.189L60.5596 124.359L61.4247 129.03L62.3406 128.86L61.4755 124.189Z" fill="#263238"/>
<path d="M69.4941 123.008L65.4824 123.914L66.168 126.961L70.1797 126.055L69.4941 123.008Z" fill="white"/>
<path d="M72.6483 121.435L71.7324 121.605L72.5967 126.276L73.5126 126.106L72.6483 121.435Z" fill="#263238"/>
<path opacity="0.3" d="M61.4755 124.189L60.5596 124.359L61.4247 129.03L62.3406 128.86L61.4755 124.189Z" fill="white"/>
<path opacity="0.3" d="M72.6483 121.435L71.7324 121.605L72.5967 126.276L73.5126 126.106L72.6483 121.435Z" fill="white"/>
<path d="M130.674 184.998C130.077 184.816 129.447 184.748 128.828 184.788C128.828 184.788 126.516 183.821 123.727 179.218L121.341 179.531C120.518 179.656 119.859 180.276 119.694 181.095C119.671 181.209 119.66 181.323 119.671 181.437C119.774 182.011 119.916 182.575 120.092 183.132C120.552 184.89 122.256 188.554 122.256 188.554L122.648 188.395L121.427 184.936C121.018 183.758 122.443 184.754 123.204 185.892C123.96 187.03 125.033 188.133 127.578 187.172C130.543 186.034 131.719 185.419 130.685 184.998H130.674Z" fill="#263238"/>
<path d="M123.119 178C123.119 178 126.947 183.826 128.828 184.794C128.828 184.794 126.72 186.483 123.909 183.758C120.273 180.236 119.671 181.442 119.671 181.442C119.671 181.442 119.615 180.071 119.768 179.377C120.058 178.04 123.119 178 123.119 178Z" fill="#E4897B"/>
<path d="M99.9504 204.366C99.4108 204.047 98.82 203.831 98.2066 203.723C98.2066 203.723 96.1902 202.238 94.5714 197.1L92.1801 196.838C91.3508 196.765 90.5613 197.214 90.2092 197.965C90.158 198.067 90.124 198.176 90.1069 198.289C90.0728 198.87 90.0728 199.456 90.1126 200.036C90.141 201.851 90.9305 205.817 90.9305 205.817L91.3452 205.754L90.976 202.101C90.8567 200.861 92.0097 202.164 92.4755 203.45C92.9412 204.736 93.7194 206.061 96.4231 205.731C99.5755 205.327 100.859 205.014 99.956 204.36L99.9504 204.366Z" fill="#263238"/>
<path d="M94.2704 195.769C94.2704 195.769 96.6105 202.335 98.2066 203.723C98.2066 203.723 95.7585 204.861 93.674 201.549C90.976 197.265 90.1069 198.295 90.1069 198.295C90.1069 198.295 90.3796 196.952 90.6863 196.315C91.2827 195.086 94.2704 195.774 94.2704 195.774V195.769Z" fill="#E4897B"/>
<path d="M51.3809 79.7068L46.5927 80.674C46.5927 80.674 45.8884 81.26 45.2181 81.004C43.7868 80.4635 41.7249 78.768 41.4636 78.1819C41.0774 77.3228 41.4636 74.8023 42.4747 74.3528C43.4857 73.9034 46.9676 78.108 46.9676 78.108L52.1307 76.9416L51.3809 79.7124V79.7068Z" fill="#E4897B"/>
<path d="M66.5354 95.7002C66.5354 95.7002 66.098 80.1107 64.2975 79.4393C62.4969 78.768 48.9728 80.6341 48.9728 80.6341L48.6377 77.0725C48.6377 77.0725 64.394 74.6487 67.4442 76.0825C70.4943 77.5162 71.4997 100.77 70.9431 105.247L66.5411 95.7002H66.5354Z" fill="#407BFF"/>
<path opacity="0.6" d="M66.5354 95.7002C66.5354 95.7002 66.098 80.1107 64.2975 79.4393C62.4969 78.768 48.9728 80.6341 48.9728 80.6341L48.6377 77.0725C48.6377 77.0725 64.394 74.6487 67.4442 76.0825C70.4943 77.5162 71.4997 100.77 70.9431 105.247L66.5411 95.7002H66.5354Z" fill="white"/>
<path d="M49.1943 80.9812L48.2515 77.0668L49.6033 76.5718L50.461 81.1007L49.1943 80.9812Z" fill="#407BFF"/>
<path opacity="0.7" d="M49.1943 80.9812L48.2515 77.0668L49.6033 76.5718L50.461 81.1007L49.1943 80.9812Z" fill="white"/>
<path d="M66.4613 93.7544C66.4613 93.7544 65.2571 98.4995 59.4294 100.019C53.6018 101.538 47.1606 97.5778 47.1606 97.5778L48.4443 108.9L55.5841 126.737L73.8169 121.975C73.8169 121.975 72.7206 101.225 66.467 93.7544H66.4613Z" fill="#407BFF"/>
<path opacity="0.7" d="M66.4613 93.7544C66.4613 93.7544 65.2571 98.4995 59.4294 100.019C53.6018 101.538 47.1606 97.5778 47.1606 97.5778L48.4443 108.9L55.5841 126.737L73.8169 121.975C73.8169 121.975 72.7206 101.225 66.467 93.7544H66.4613Z" fill="white"/>
<path opacity="0.6" d="M69.6263 112.572L71.7605 111.897C71.9969 111.823 72.128 111.57 72.0535 111.333L70.782 107.297C70.7074 107.06 70.4554 106.928 70.2191 107.003L68.0848 107.678C67.8485 107.752 67.7174 108.005 67.7919 108.241L69.0634 112.278C69.1379 112.515 69.39 112.646 69.6263 112.572Z" fill="#407BFF"/>
<path opacity="0.2" d="M69.1856 111.341L71.6123 110.574L70.5647 107.248L68.138 108.015L69.1856 111.341Z" fill="black"/>
<path d="M69.1051 106.047L68.5688 106.217L69.1858 108.175L69.722 108.006L69.1051 106.047Z" fill="#263238"/>
<path d="M54.0621 76.0314C49.5692 76.0314 46.6042 80.7993 47.655 88.3607C48.7058 95.9279 52.9204 98.1013 52.9204 98.1013L52.6478 96.2806C52.6478 96.2806 59.3047 98.0046 66.9046 97.0772C66.9046 97.0772 64.7348 90.9097 65.4391 84.6113C65.4391 84.6113 66.8648 76.0314 54.0621 76.0371V76.0314Z" fill="#263238"/>
<path opacity="0.2" d="M62.9853 98.4597L64.8199 105.282L61.5937 102.818C61.5937 102.818 64.7347 110.01 65.5413 114.209C65.5413 114.209 62.8262 107.079 60.4861 103.165L59.1172 107.079L53.6133 101.464C53.6133 101.464 58.4924 97.7485 62.9853 98.4597Z" fill="black"/>
<path d="M60.3043 100.684L54.7095 100.855C57.1859 97.6689 52.6987 92.1329 52.6987 92.1329L58.231 93.3334C59.5488 98.8125 61.8322 98.9832 61.8322 98.9832L60.3043 100.69V100.684Z" fill="#E4897B"/>
<path opacity="0.2" d="M59.7758 97.2706C57.2028 97.0373 55.4136 95.7913 54.2208 94.477C53.4824 93.1058 52.6929 92.1385 52.6929 92.1385L58.2252 93.3391C58.6739 95.1882 59.2306 96.4399 59.7758 97.2706Z" fill="black"/>
<path d="M58.2252 78.3527C63.0475 78.7567 64.388 81.4706 64.3255 86.4832C64.2517 92.7417 62.5022 97.0487 56.5837 95.2167C48.5408 92.7246 50.2107 77.6814 58.2252 78.3527Z" fill="#E4897B"/>
<path d="M61.2299 85.9484C61.2299 85.9484 61.7922 87.2683 62.4682 88.0706C62.4682 88.0706 62.0024 88.6907 61.1504 88.5087L61.2299 85.9484Z" fill="#DE5753"/>
<path d="M57.9639 85.1575L59.009 84.8162C59.009 84.8162 58.4523 85.6468 57.9639 85.1575Z" fill="#263238"/>
<path d="M58.3274 85.038C58.3274 85.038 57.5946 84.6739 57.1743 85.3453C57.1743 85.3453 57.6514 85.0722 58.2876 85.3168L58.3274 85.038Z" fill="#263238"/>
<path d="M56.3849 82.728C56.3338 82.728 56.2827 82.7109 56.2429 82.6711C56.1634 82.5914 56.1577 82.4606 56.2429 82.3809C57.1233 81.4649 58.5263 81.7551 58.5888 81.7664C58.7024 81.7892 58.7705 81.8973 58.7478 82.0111C58.7251 82.1249 58.6172 82.1932 58.5036 82.1704C58.4922 82.1704 57.2597 81.9201 56.544 82.6654C56.5042 82.7052 56.4474 82.728 56.3963 82.728H56.3849Z" fill="#263238"/>
<path d="M63.9506 82.819C63.9052 82.819 63.8597 82.802 63.82 82.7735C62.9112 82.0509 62.1444 82.2444 62.1103 82.2558C62.0024 82.2842 61.8888 82.2216 61.8604 82.1135C61.832 82.0054 61.8944 81.8916 62.0024 81.8632C62.0421 81.8518 62.9964 81.6015 64.0756 82.4606C64.1664 82.5289 64.1778 82.6597 64.1096 82.7508C64.0699 82.802 64.0074 82.8304 63.9506 82.8304V82.819Z" fill="#263238"/>
<path d="M52.2727 86.0564C52.2727 86.0564 54.8571 82.2728 54.7719 79.1777C54.7719 79.1777 64.6608 76.0655 64.32 85.8231C64.32 85.8231 65.9729 77.266 57.6914 76.3841C49.427 75.5022 48.4387 87.6552 52.4204 91.6379C52.4204 91.6379 50.6653 88.4233 52.267 86.0564H52.2727Z" fill="#263238"/>
<path d="M52.9768 87.1432C53.0109 86.3637 52.318 84.9811 50.8582 85.0153C49.3473 85.0551 48.3817 88.0706 52.0396 89.1175C52.5622 89.2654 52.9087 88.7704 52.9768 87.1432Z" fill="#E4897B"/>
<path d="M61.1902 89.9424C60.7812 90.4431 60.2473 91.4445 60.2473 91.4445C60.1451 91.4103 60.0485 91.3819 59.952 91.3421C58.6172 90.8698 58.1514 90.2098 58.0435 89.6238C57.9867 89.2995 58.0378 88.998 58.106 88.759C58.1855 88.4859 58.3104 88.3038 58.3104 88.3038C58.8728 88.9752 60.0826 89.51 60.7415 89.7717C61.0141 89.8855 61.1959 89.9367 61.1959 89.9367L61.1902 89.9424Z" fill="#263238"/>
<path d="M60.7356 89.7775L60.4459 90.2156C59.1907 89.7718 58.3614 89.2882 58.1001 88.7647C58.1796 88.4916 58.3046 88.3096 58.3046 88.3096C58.8669 88.9809 60.0767 89.5158 60.7356 89.7775Z" fill="white"/>
<path d="M59.9461 91.3478C58.6113 90.8755 58.1455 90.2155 58.0376 89.6295C58.4863 89.8059 59.0089 90.0733 59.4178 90.4488C59.7302 90.7333 59.8779 91.0576 59.9461 91.3535V91.3478Z" fill="#DE5753"/>
<path d="M58.0946 78.7055C58.0946 78.7055 55.4875 86.4945 50.5005 85.9768C45.5077 85.459 54.0618 76.0314 54.0618 76.0314C54.0618 76.0314 62.4739 73.6304 66.1432 78.3072C69.8068 82.9841 64.3256 85.8289 64.3256 85.8289C64.3256 85.8289 65.1435 79.6955 58.0946 78.7112V78.7055Z" fill="#263238"/>
<path d="M54.1184 85.3338C54.0616 85.3338 54.0048 85.2997 53.9878 85.2428C53.9594 85.1688 53.9991 85.0892 54.0673 85.0607C58.0433 83.5359 57.9524 78.1934 57.9524 78.1422C57.9524 78.0625 58.0149 78 58.0887 77.9943C58.1683 78.0056 58.2307 78.0569 58.2364 78.1308C58.2364 78.1877 58.3273 83.7294 54.1695 85.3225C54.1525 85.3282 54.1355 85.3338 54.1184 85.3338Z" fill="#263238"/>
<path d="M62.8604 85.6297L63.9055 85.2883C63.9055 85.2883 63.3488 86.119 62.8604 85.6297Z" fill="#263238"/>
<path d="M63.2238 85.5102C63.2238 85.5102 62.4911 85.1461 62.0708 85.8174C62.0708 85.8174 62.5479 85.5443 63.1841 85.789L63.2238 85.5102Z" fill="#263238"/>
<path d="M55.4934 98.5508L59.7136 100.701L59.6454 104.991L53.6133 101.47L55.4934 98.5508Z" fill="#407BFF"/>
<path d="M60.3555 97.7428L60.6054 100.349L63.3602 103.267L62.9853 98.4597L60.3555 97.7428Z" fill="#407BFF"/>
<path d="M40.8559 68.3049L39.0951 63.7418C39.0951 63.7418 39.2087 62.8315 38.635 62.4047C37.4081 61.4887 34.8748 60.658 34.2387 60.7548C33.3071 60.8913 31.3987 62.5754 31.5577 63.6678C31.7167 64.7602 37.1355 65.443 37.1355 65.443L38.9303 70.4328L40.8559 68.3105V68.3049Z" fill="#E4897B"/>
<path d="M48.4387 108.9C48.4387 108.9 51.8751 106.186 50.4892 100.184L46.8256 83.5928L40.5322 66.4614L37.4536 68.0204C37.4536 68.0204 42.6224 84.7592 43.0995 85.8914C43.3438 86.4717 44.3151 95.1484 45.6385 100.975C46.854 106.334 48.4387 108.9 48.4387 108.9Z" fill="#407BFF"/>
<path opacity="0.6" d="M48.4387 108.9C48.4387 108.9 51.8751 106.186 50.4892 100.184L46.8256 83.5928L40.5322 66.4614L37.4536 68.0204C37.4536 68.0204 42.6224 84.7592 43.0995 85.8914C43.3438 86.4717 44.3151 95.1484 45.6385 100.975C46.854 106.334 48.4387 108.9 48.4387 108.9Z" fill="white"/>
<path d="M36.9141 67.531L40.5095 65.7274L41.2933 66.9279L37.0901 68.7884L36.9141 67.531Z" fill="#407BFF"/>
<path opacity="0.7" d="M36.9141 67.531L40.5095 65.7274L41.2933 66.9279L37.0901 68.7884L36.9141 67.531Z" fill="white"/>
<path opacity="0.6" d="M55.4934 98.5508L59.7136 100.701L59.6454 104.991L53.6133 101.47L55.4934 98.5508Z" fill="white"/>
<path opacity="0.6" d="M60.3555 97.7428L60.6054 100.349L63.3602 103.267L62.9853 98.4597L60.3555 97.7428Z" fill="white"/>
<path d="M180.204 89.6124H163.187V102.858H180.204V89.6124Z" fill="white"/>
<path opacity="0.1" d="M180.204 89.6124H175.841V102.858H180.204V89.6124Z" fill="black"/>
<path d="M162.209 114.556H181.448V90.5114H175.251L162.209 96.7699V114.556Z" fill="#407BFF"/>
<path opacity="0.2" d="M181.448 90.5114H175.251V114.55H181.448V90.5114Z" fill="black"/>
<path opacity="0.7" d="M173.2 101.504H164.192V105.828H173.2V101.504Z" fill="white"/>
<path opacity="0.7" d="M173.2 107.279H164.192V107.899H173.2V107.279Z" fill="white"/>
<path opacity="0.7" d="M180.845 109.088H175.841V112.758H180.845V109.088Z" fill="white"/>
<path d="M172.973 88.8899H155.956V102.858H172.973V88.8899Z" fill="white"/>
<path opacity="0.1" d="M172.973 88.8899H168.611V102.858H172.973V88.8899Z" fill="black"/>
<path d="M154.979 114.556H174.217V90.5115H168.02L154.979 96.77V114.556Z" fill="#407BFF"/>
<path opacity="0.2" d="M174.217 90.5115H168.021V114.55H174.217V90.5115Z" fill="black"/>
<path opacity="0.7" d="M165.97 101.504H156.961V105.828H165.97V101.504Z" fill="white"/>
<path opacity="0.7" d="M165.97 107.279H156.961V107.899H165.97V107.279Z" fill="white"/>
<path opacity="0.7" d="M173.615 109.088H168.611V112.758H173.615V109.088Z" fill="white"/>
<path d="M143.028 205.822H146.51L152.758 118.629H148.146L143.028 205.822Z" fill="#263238"/>
<path opacity="0.1" d="M143.028 205.822H146.51L152.457 122.959L152.764 118.772H148.146L147.896 122.959L143.028 205.822Z" fill="white"/>
<path opacity="0.2" d="M147.896 122.754H152.457L152.764 118.772H148.146L147.896 122.754Z" fill="black"/>
<path d="M117.491 205.822H120.973L121.541 118.629H116.923L117.491 205.822Z" fill="#263238"/>
<path opacity="0.1" d="M116.923 118.772L117.014 132.836L117.491 205.822H120.973L121.45 132.836L121.541 118.772H116.923Z" fill="white"/>
<path opacity="0.2" d="M116.923 118.772L117.014 132.996H121.45L121.541 118.772H116.923Z" fill="black"/>
<path d="M80.5479 205.822H84.0297L90.2777 118.629H85.6655L80.5479 205.822Z" fill="#263238"/>
<path opacity="0.1" d="M80.5479 205.822H84.0297L89.9767 122.959L90.2834 118.772H85.6655L85.4156 122.959L80.5479 205.822Z" fill="white"/>
<path opacity="0.2" d="M85.4155 122.754H89.9766L90.2833 118.772H85.6654L85.4155 122.754Z" fill="black"/>
<path d="M182.834 205.822H186.316L181.198 118.629H176.58L182.834 205.822Z" fill="#263238"/>
<path opacity="0.1" d="M176.586 118.772L176.893 122.959L182.84 205.822H186.316L181.454 122.959L181.204 118.772H176.586Z" fill="white"/>
<path opacity="0.2" d="M181.204 118.772H176.586L176.893 122.754H181.454L181.204 118.772Z" fill="black"/>
<path d="M183.634 120.814L83.2348 120.814C82.5588 120.814 82.0079 120.262 82.0079 119.585V116.45L184.861 116.45V119.585C184.861 120.262 184.31 120.814 183.634 120.814Z" fill="#407BFF"/>
<path opacity="0.4" d="M183.634 120.814L83.2348 120.814C82.5588 120.814 82.0079 120.262 82.0079 119.585V116.45L184.861 116.45V119.585C184.861 120.262 184.31 120.814 183.634 120.814Z" fill="white"/>
<path opacity="0.2" d="M82.0079 118.629L184.861 118.629V116.445L82.0079 116.445V118.629Z" fill="black"/>
<path d="M79.8494 117.014H187.02C187.696 117.014 188.247 116.462 188.247 115.785C188.247 115.108 187.696 114.556 187.02 114.556H79.8494C79.1735 114.556 78.6226 115.108 78.6226 115.785C78.6226 116.462 79.1735 117.014 79.8494 117.014Z" fill="#407BFF"/>
<path opacity="0.4" d="M79.8494 117.014H187.02C187.696 117.014 188.247 116.462 188.247 115.785C188.247 115.108 187.696 114.556 187.02 114.556H79.8494C79.1735 114.556 78.6226 115.108 78.6226 115.785C78.6226 116.462 79.1735 117.014 79.8494 117.014Z" fill="white"/>
<path d="M163.987 114.544V112.621H165.277L163.987 111.87H164.953L163.664 111.028H162.442V110.061H163.862L162.442 109.492V107.398H163.862V106.021H165.277L163.862 105.549V104.57H164.874L164.044 103.74L163.329 103.023H141.381V104.007H139.933L141.546 104.735V105.549H138.587V107.062H137.274L138.587 107.717V109.412H139.512V110.22H141.381V112.621H140.336L141.194 113.48V114.556L163.987 114.544Z" fill="#407BFF"/>
<path opacity="0.7" d="M163.987 114.544V112.621H165.277L163.987 111.87H164.953L163.664 111.028H162.442V110.061H163.862L162.442 109.492V107.398H163.862V106.021H165.277L163.862 105.549V104.57H164.874L164.044 103.74L163.329 103.023H141.381V104.007H139.933L141.546 104.735V105.549H138.587V107.062H137.274L138.587 107.717V109.412H139.512V110.22H141.381V112.621H140.336L141.194 113.48V114.556L163.987 114.544Z" fill="white"/>
<path opacity="0.1" d="M163.987 114.544V112.621H165.277L163.987 111.87H164.953L163.664 111.028H162.442V110.061H163.862L162.442 109.492V107.398H163.862V106.021H165.277L163.862 105.549V104.57H164.873L164.044 103.74L163.329 103.023H151.77V104.007H150.321L151.929 104.735V105.549H148.969V107.062H147.663L148.969 107.717V109.412H149.901V110.22H151.77V112.621H150.719L151.577 113.48V114.556L163.987 114.544Z" fill="black"/>
<path opacity="0.1" d="M141.546 105.549H151.929L141.546 105.168V105.549Z" fill="black"/>
<path opacity="0.1" d="M141.381 110.22H151.77L151.815 110.948L141.381 110.22Z" fill="black"/>
<path opacity="0.1" d="M139.512 109.412H149.901L139.512 109.776V109.412Z" fill="black"/>
<path opacity="0.1" d="M141.381 112.621H151.77L141.381 112.24V112.621Z" fill="black"/>
<path opacity="0.1" d="M141.194 113.48H151.577V113.879L141.194 113.48Z" fill="black"/>
<path opacity="0.1" d="M138.586 107.062H148.969L138.586 106.727V107.062Z" fill="black"/>
<path opacity="0.1" d="M141.381 104.007H151.77L141.381 103.643V104.007Z" fill="black"/>
<path opacity="0.1" d="M163.863 104.57H153.326L163.863 104.895V104.57Z" fill="black"/>
<path opacity="0.1" d="M151.929 105.549H163.862L153.042 105.902L151.929 105.549Z" fill="black"/>
<path opacity="0.1" d="M148.97 107.062L163.863 107.398V107.062H148.97Z" fill="black"/>
<path opacity="0.1" d="M148.97 107.717H156.337L148.97 108.081V107.717Z" fill="black"/>
<path opacity="0.1" d="M162.443 109.492L151.77 109.412L162.443 109.173V109.492Z" fill="black"/>
<path opacity="0.1" d="M162.443 110.061H151.577L162.443 110.419V110.061Z" fill="black"/>
<path opacity="0.1" d="M163.987 111.87H151.929V112.24L163.987 111.87Z" fill="black"/>
<path opacity="0.1" d="M163.987 112.621H155.251L163.987 112.86V112.621Z" fill="black"/>
<path d="M136.042 112.058V113.884C136.042 114.351 135.491 114.544 135.031 114.544H98.6106C98.1448 114.544 97.5825 114.351 97.5825 113.884V112.058H136.047H136.042Z" fill="#263238"/>
<path opacity="0.4" d="M136.042 112.058V113.884C136.042 114.351 135.491 114.544 135.031 114.544H98.6106C98.1448 114.544 97.5825 114.351 97.5825 113.884V112.058H136.047H136.042Z" fill="white"/>
<path opacity="0.2" d="M136.042 112.058V113.884C136.042 114.351 135.491 114.544 135.031 114.544H111.01C110.544 114.544 109.988 114.351 109.988 113.884V112.058H136.048H136.042Z" fill="black"/>
<path d="M142.136 93.1058L137.803 112.803C137.661 113.452 137.03 113.924 136.394 113.924H112.708C112.078 113.924 111.675 113.332 111.817 112.684L116.145 93.1343C116.292 92.4913 116.917 92.1727 117.553 92.1727H141.239C141.875 92.1727 142.273 92.4629 142.136 93.1058Z" fill="#263238"/>
<path opacity="0.4" d="M142.137 93.1058L137.803 112.803C137.661 113.452 137.03 113.924 136.394 113.924H113.515C112.879 113.924 112.481 113.332 112.618 112.684L116.951 93.1343C117.093 92.4913 117.724 92.1727 118.36 92.1727H141.239C141.875 92.1727 142.273 92.4629 142.137 93.1058Z" fill="white"/>
<path opacity="0.2" d="M130.458 103.119C130.458 104.809 128.652 106.18 127.329 106.18C126.005 106.18 125.221 104.809 125.596 103.125C125.971 101.475 127.289 100.127 128.584 100.076C128.209 101.76 129.016 103.125 130.333 103.125C130.362 103.125 130.453 103.125 130.453 103.125L130.458 103.119Z" fill="black"/>
</g>
<defs>
<clipPath id="clip0_847_19648">
<rect width="284" height="212" fill="white" transform="translate(0 0.593018)"/>
</clipPath>
</defs>
</svg>
