<svg width="310" height="293" viewBox="0 0 310 293" fill="none" xmlns="http://www.w3.org/2000/svg">
<g clip-path="url(#clip0_754_18214)">
<path d="M155 292.593C240.328 292.593 309.5 251.289 309.5 200.339C309.5 149.388 240.328 108.084 155 108.084C69.672 108.084 0.5 149.388 0.5 200.339C0.5 251.289 69.672 292.593 155 292.593Z" fill="#F5F5F5"/>
<path d="M182.358 159.238L179.559 157.629C177.662 156.538 174.587 156.538 172.69 157.629L24.9076 242.753C23.0174 243.844 23.0174 245.625 24.9076 246.709L27.7067 248.319C29.5968 249.41 32.6856 249.41 34.5758 248.319L79.4723 222.456L99.4475 233.962C104.598 236.925 113.021 236.925 118.171 233.962L149.145 216.122C153.545 213.592 153.545 209.446 149.145 206.91L127.8 194.616L182.358 163.188C184.248 162.097 184.248 160.316 182.358 159.232V159.238Z" fill="#E0E0E0"/>
<path d="M236.139 263.767C251.563 272.651 276.564 272.651 291.981 263.767C307.399 254.883 307.399 240.48 291.981 231.603C276.564 222.719 251.557 222.719 236.139 231.603C220.721 240.486 220.721 254.89 236.139 263.773V263.767Z" fill="#E0E0E0"/>
<path d="M85.0703 30.917L87.5532 29.4189C87.5335 29.2546 87.5203 29.0838 87.5203 28.8998V27.6776C87.5203 25.4961 89.0548 22.8481 90.945 21.7573C91.709 21.3171 92.4137 21.2054 92.9867 21.3631C93.2962 18.2682 95.4498 14.7594 98.071 13.2547C100.903 11.6251 103.195 12.9459 103.195 16.205V18.0382C103.195 18.8859 103.037 19.7729 102.76 20.66L106.277 18.6296C107.324 18.0251 108.174 18.5179 108.174 19.7269C108.174 20.936 107.324 22.4078 106.277 23.0123L85.0703 35.2932C84.0232 35.8977 83.1736 35.4049 83.1736 34.1958C83.1736 32.9868 84.0232 31.5149 85.0703 30.9104V30.917Z" fill="#EBEBEB"/>
<path d="M63.8108 25.9233L61.2094 26.9221V21.2055C61.2094 16.6716 57.5871 15.5874 53.6487 17.8544C49.7169 20.1213 46.5227 25.6342 46.5227 30.1615V30.9894C45.627 30.6346 44.4745 30.7726 43.2165 31.4953C40.3846 33.1249 38.0927 37.0937 38.0927 40.3528V40.7273L34.4638 42.8168C32.6 43.8879 31.0852 46.5031 31.0852 48.6517C31.0852 50.8004 32.5934 51.6677 34.4638 50.5967L63.8042 33.6966C65.6681 32.6255 67.1828 30.0103 67.1828 27.8617C67.1828 25.713 65.6681 24.8457 63.8042 25.9167L63.8108 25.9233Z" fill="#EBEBEB"/>
<path d="M118.521 229.388L144.14 214.61C146.781 213.086 148.098 211.095 148.105 209.104C148.105 207.113 148.118 205.549 148.118 205.549L124.007 191.895C122.598 191.087 121.458 189.109 121.458 187.486V155.972L76.7065 181.776V213.289C76.7065 214.912 77.8459 216.884 79.2553 217.698L99.3952 229.394C104.677 232.437 113.239 232.437 118.521 229.394V229.388Z" fill="#263238"/>
<path opacity="0.15" d="M87.448 218.861V222.403L79.2485 217.685C77.8523 216.877 76.6997 214.906 76.6997 213.276V181.762L85.2285 176.854C85.4063 179.016 85.5973 181.25 85.7752 183.418L79.7951 186.868V211.489C79.7951 213.118 80.9279 215.09 82.3439 215.898L87.4546 218.848L87.448 218.861Z" fill="black"/>
<path d="M79.7886 211.509C79.7886 213.132 80.9279 215.103 82.3373 215.918L99.3884 225.833C104.67 228.875 113.239 228.875 118.521 225.833L144.153 211.055C149.435 208.013 149.435 203.085 144.153 200.036L127.089 190.108C125.68 189.293 124.54 187.322 124.54 185.699V161.071L79.7886 186.868V211.496V211.509Z" fill="#455A64"/>
<path opacity="0.3" d="M132.292 193.11L127.096 190.114C125.686 189.299 124.547 187.328 124.547 185.705V161.078L79.7952 186.875V211.502C79.7952 213.125 80.9345 215.096 82.3439 215.911L87.4481 218.855L132.292 193.11Z" fill="black"/>
<path d="M26.4817 230.939C28.1348 231.891 30.9009 231.839 32.6594 230.827C54.663 218.152 157.898 158.686 179.902 146.018C181.66 145.006 183.089 142.535 183.089 140.511V6.67057C183.089 4.64019 181.752 2.2287 180.099 1.27594C178.446 0.32317 175.68 0.375737 173.922 1.38764L26.6793 86.197C24.9209 87.2089 23.4917 89.6796 23.4917 91.7034V225.537C23.4917 227.568 24.8286 229.979 26.4817 230.932V230.939Z" fill="#455A64"/>
<path d="M32.6593 230.821L179.895 146.011C181.653 144.999 183.083 142.529 183.083 140.505V6.66409C183.083 4.63371 181.653 3.81236 179.895 4.83083L32.6593 89.6402C30.9008 90.6521 29.4717 93.1227 29.4717 95.1465V228.981C29.4717 231.011 30.8942 231.832 32.6593 230.814V230.821Z" fill="#37474F"/>
<path d="M33.6868 208.099V96.5657C33.6868 95.3172 34.5693 93.7994 35.6494 93.1752L176.905 11.8089C177.985 11.1847 178.868 11.6906 178.868 12.9391V124.472C178.868 125.72 177.998 127.238 176.912 127.862L35.6428 209.229C34.5627 209.853 33.6802 209.347 33.6802 208.099H33.6868Z" fill="#BA68C8"/>
<path opacity="0.7" d="M33.6868 208.099V96.5657C33.6868 95.3172 34.5693 93.7994 35.6494 93.1752L176.905 11.8089C177.985 11.1847 178.868 11.6906 178.868 12.9391V124.472C178.868 125.72 177.998 127.238 176.912 127.862L35.6428 209.229C34.5627 209.853 33.6802 209.347 33.6802 208.099H33.6868Z" fill="#189FFF"/>
<path d="M24.4269 88.5625L30.407 91.999C29.834 92.9978 29.4783 94.128 29.4652 95.1464V228.987C29.4652 230.84 30.7231 231.872 32.6594 230.827C30.7297 231.944 27.9833 231.806 26.4817 230.939C24.8352 229.986 23.4917 227.969 23.4917 225.925V91.7099C23.4917 90.698 23.8605 89.5678 24.4335 88.5691L24.4269 88.5625Z" fill="#263238"/>
<path d="M103.485 181.572L110.696 177.439C111.342 177.065 111.862 177.334 111.862 178.031C111.862 178.727 111.342 179.594 110.696 179.969L103.485 184.095C102.839 184.47 102.319 184.201 102.319 183.504C102.319 182.808 102.839 181.94 103.485 181.566V181.572Z" fill="#BA68C8"/>
<path d="M68.006 251.913L73.0377 249.015C73.0377 249.015 76.0343 236.603 74.8357 225.439C73.1563 209.741 62.8031 203.834 58.8582 205.188C54.9197 206.541 53.7804 211.108 60.2939 220.458C64.1401 225.978 68.8622 237.47 67.9995 251.913H68.006Z" fill="#BA68C8"/>
<path d="M68.006 251.913L73.0377 249.015C73.0377 249.015 76.0343 236.603 74.8357 225.439C73.1563 209.741 62.8031 203.834 58.8582 205.188C54.9197 206.541 53.7804 211.108 60.2939 220.458C64.1401 225.978 68.8622 237.47 67.9995 251.913H68.006Z" fill="#00AFB9"/>
<path d="M70.0872 245.815C70.0872 245.815 70.0542 245.815 70.0411 245.815C69.8501 245.782 69.7249 245.598 69.7644 245.407C72.524 230.925 67.4528 214.656 61.1698 207.882C61.038 207.744 61.0446 207.52 61.1895 207.389C61.3344 207.257 61.5518 207.264 61.6835 207.409C68.0784 214.301 73.2484 230.84 70.4494 245.539C70.4165 245.71 70.2584 245.828 70.0872 245.821V245.815Z" fill="white"/>
<path d="M55.3413 259.206C54.5905 259.587 52.5949 257.879 52.0351 257.465C51.0802 256.755 50.3294 255.776 49.8486 254.692C49.2954 253.431 49.2032 252.103 49.4666 250.75C49.6049 250.047 49.8354 249.37 50.0659 248.693C50.2964 248.029 50.5203 247.366 50.7509 246.702C50.9748 246.045 51.2053 245.368 51.1526 244.678C51.0472 243.285 49.8683 242.26 48.7882 241.367C47.5962 240.381 46.3712 239.1 46.4634 237.437C46.5358 236.156 47.2603 234.993 48.1099 234.027C48.9595 233.061 49.9474 232.22 50.7245 231.188C51.2843 230.452 51.7322 229.572 51.6926 228.646C51.6663 228.074 51.4556 227.522 51.2119 227.003C50.6784 225.892 49.954 224.861 49.6049 223.678C49.2558 222.495 49.3876 221.05 50.3425 220.261C51.1263 219.617 52.2393 219.578 53.2469 219.696C54.1821 219.808 55.0712 220.274 55.8681 220.767C58.4433 222.37 59.7934 225.57 62.5463 226.845C63.6066 227.338 64.7921 227.489 65.9051 227.844C67.0182 228.199 68.1444 228.829 68.612 229.901C69.5406 232.01 67.4989 234.441 68.1114 236.662C68.6581 238.627 70.4956 239.454 71.4637 241.248C71.8852 242.03 71.9511 242.917 71.8325 243.798C71.6283 245.289 71.3517 246.38 70.5482 248.01C69.8831 249.357 68.0061 251.906 68.0061 251.906C68.0061 251.906 55.4598 259.141 55.3479 259.2L55.3413 259.206Z" fill="#BA68C8"/>
<g opacity="0.65">
<path d="M55.3413 259.206C54.5905 259.587 52.5949 257.879 52.0351 257.465C51.0802 256.755 50.3294 255.776 49.8486 254.692C49.2954 253.431 49.2032 252.103 49.4666 250.75C49.6049 250.047 49.8354 249.37 50.0659 248.693C50.2964 248.029 50.5203 247.366 50.7509 246.702C50.9748 246.045 51.2053 245.368 51.1526 244.678C51.0472 243.285 49.8683 242.26 48.7882 241.367C47.5962 240.381 46.3712 239.1 46.4634 237.437C46.5358 236.156 47.2603 234.993 48.1099 234.027C48.9595 233.061 49.9474 232.22 50.7245 231.188C51.2843 230.452 51.7322 229.572 51.6926 228.646C51.6663 228.074 51.4556 227.522 51.2119 227.003C50.6784 225.892 49.954 224.861 49.6049 223.678C49.2558 222.495 49.3876 221.05 50.3425 220.261C51.1263 219.617 52.2393 219.578 53.2469 219.696C54.1821 219.808 55.0712 220.274 55.8681 220.767C58.4433 222.37 59.7934 225.57 62.5463 226.845C63.6066 227.338 64.7921 227.489 65.9051 227.844C67.0182 228.199 68.1444 228.829 68.612 229.901C69.5406 232.01 67.4989 234.441 68.1114 236.662C68.6581 238.627 70.4956 239.454 71.4637 241.248C71.8852 242.03 71.9511 242.917 71.8325 243.798C71.6283 245.289 71.3517 246.38 70.5482 248.01C69.8831 249.357 68.0061 251.906 68.0061 251.906C68.0061 251.906 55.4598 259.141 55.3479 259.2L55.3413 259.206Z" fill="#00AFB9"/>
</g>
<path d="M62.6253 255.422H62.6187C62.4343 255.402 62.3026 255.244 62.3157 255.06C63.521 242.037 58.0875 227.318 53.8133 222.903C53.6881 222.771 53.6881 222.561 53.8198 222.436C53.9516 222.311 54.1623 222.311 54.2874 222.443C58.6408 226.944 64.1927 241.912 62.9743 255.119C62.9546 255.297 62.8031 255.428 62.6319 255.415L62.6253 255.422Z" fill="white"/>
<path d="M61.328 239.362C61.328 239.362 61.2621 239.356 61.2292 239.343C57.0932 237.838 51.864 237.345 51.8113 237.339C51.6269 237.319 51.4951 237.161 51.5149 236.977C51.5347 236.8 51.6796 236.662 51.8705 236.682C51.9232 236.682 57.2315 237.188 61.4531 238.725C61.6243 238.784 61.71 238.975 61.6507 239.146C61.598 239.284 61.4663 239.369 61.3214 239.362H61.328Z" fill="white"/>
<path d="M239.34 9.87087C239.327 9.73945 239.313 9.62775 239.274 9.50947C239.287 9.48319 239.274 9.45691 239.261 9.43062C239.248 9.29921 239.208 9.1875 239.169 9.08237C239.116 8.90496 239.037 8.73412 238.938 8.58299C238.912 8.50414 238.859 8.445 238.806 8.37929C238.767 8.32673 238.74 8.27416 238.688 8.23474C238.609 8.1296 238.53 8.05732 238.431 7.97847C238.431 7.97847 238.418 7.96533 238.405 7.95219C238.299 7.87334 238.187 7.80763 238.069 7.76164C237.357 7.42653 236.442 7.51852 235.428 8.09675L101.41 85.2971C99.2433 86.5456 97.4783 89.5944 97.4783 93.9575V217.18C97.4783 219.256 99.7307 220.551 101.529 219.506L235.428 142.299C237.595 141.05 239.36 138.015 239.36 135.511V10.3571C239.36 10.1928 239.346 10.022 239.333 9.87087H239.34Z" fill="#FAFAFA"/>
<path d="M237.173 8.20182C237.404 8.20182 237.614 8.24782 237.812 8.33981C237.878 8.37266 237.944 8.40552 237.99 8.43837L238.009 8.45808L238.049 8.48437C238.102 8.52379 238.141 8.56322 238.181 8.61578L238.233 8.68806L238.26 8.70777C238.26 8.70777 238.286 8.7472 238.306 8.77348C238.319 8.78662 238.326 8.79976 238.339 8.81291L238.359 8.86547L238.405 8.93775C238.47 9.03631 238.523 9.14145 238.556 9.25972V9.286L238.576 9.31229C238.589 9.34514 238.602 9.38457 238.609 9.41742L238.582 9.46342L238.668 9.71311C238.688 9.76567 238.694 9.83795 238.701 9.92337C238.714 10.0614 238.727 10.2125 238.727 10.357V135.511C238.727 137.765 237.074 140.623 235.112 141.753L101.213 218.96C100.89 219.144 100.541 219.243 100.179 219.243C99.184 219.243 98.1105 218.454 98.1105 217.18V93.9574C98.1105 89.509 99.9809 86.8544 101.726 85.8425L235.744 8.64864C236.264 8.35295 236.745 8.20182 237.173 8.20182ZM237.173 7.57102C236.646 7.57102 236.06 7.74187 235.428 8.09669L101.41 85.2971C99.2433 86.5455 97.4783 89.5944 97.4783 93.9574V217.18C97.4783 218.75 98.7691 219.874 100.179 219.874C100.626 219.874 101.094 219.755 101.529 219.506L235.428 142.299C237.595 141.05 239.36 138.015 239.36 135.511V10.357C239.36 10.1928 239.346 10.0219 239.333 9.87081C239.32 9.73939 239.307 9.62769 239.267 9.50941C239.281 9.48313 239.267 9.45684 239.254 9.43056C239.241 9.29915 239.202 9.18744 239.162 9.08231C239.109 8.9049 239.03 8.73406 238.931 8.58293C238.905 8.50408 238.852 8.44494 238.8 8.37923C238.76 8.32667 238.734 8.2741 238.681 8.23468C238.602 8.12954 238.53 8.05726 238.424 7.97841C238.424 7.97841 238.411 7.96527 238.398 7.95213C238.293 7.87328 238.181 7.80757 238.062 7.76158C237.792 7.63673 237.489 7.56445 237.166 7.56445L237.173 7.57102Z" fill="#E0E0E0"/>
<path d="M136.217 82.8394L225.628 31.3374V35.4704L136.217 86.9724C135.374 87.4586 134.689 87.0578 134.689 86.0919V85.4808C134.689 84.5084 135.38 83.319 136.217 82.8328V82.8394Z" fill="#E0E0E0"/>
<path d="M232.806 27.1977L227.393 30.3189V34.4519L232.806 31.3308C233.649 30.8445 234.334 29.6618 234.334 28.6827V28.0717C234.334 27.0992 233.649 26.7049 232.806 27.1912V27.1977Z" fill="#E0E0E0"/>
<path d="M230.172 31.7972C230.06 31.7972 229.961 31.7709 229.869 31.7183C229.625 31.5803 229.487 31.2715 229.487 30.8707C229.487 30.161 229.909 29.366 230.449 29.0572C230.712 28.906 230.975 28.8863 231.186 29.0112C231.43 29.1491 231.568 29.458 231.568 29.8588C231.568 30.5684 231.147 31.3635 230.607 31.6723C230.462 31.7578 230.317 31.7972 230.179 31.7972H230.172ZM230.87 29.2477C230.771 29.2477 230.673 29.2871 230.6 29.3331C230.165 29.5828 229.803 30.2859 229.803 30.8707C229.803 31.1467 229.889 31.3635 230.027 31.4424C230.165 31.5212 230.33 31.4621 230.442 31.3964C230.877 31.1467 231.239 30.4436 231.239 29.8588C231.239 29.5828 231.153 29.366 231.015 29.2871C230.969 29.2608 230.916 29.2477 230.87 29.2477Z" fill="#FAFAFA"/>
<path d="M231.851 31.5213C231.818 31.5213 231.786 31.5082 231.753 31.4884L231.048 30.9562C230.975 30.9036 230.962 30.8051 231.015 30.7328C231.068 30.6605 231.166 30.6474 231.239 30.6999L231.944 31.2322C232.016 31.2847 232.029 31.3833 231.977 31.4556C231.944 31.495 231.897 31.5213 231.851 31.5213Z" fill="#FAFAFA"/>
<path d="M101.417 85.2967C99.2499 86.5452 97.4849 89.594 97.4849 93.9571V217.179C97.4849 219.256 99.7373 220.55 101.535 219.505L131.277 202.356V80.0401L131.324 68.0615L101.417 85.2902V85.2967Z" fill="#F0F0F0"/>
<path d="M130.685 69.1654L130.645 80.0467V201.988L101.219 218.953C100.896 219.137 100.547 219.236 100.185 219.236C99.1906 219.236 98.1171 218.448 98.1171 217.173V93.9571C98.1171 89.5086 99.9875 86.854 101.733 85.8421L130.685 69.1654ZM131.324 68.0681L101.417 85.2967C99.2499 86.5452 97.4849 89.594 97.4849 93.9571V217.179C97.4849 218.75 98.7757 219.873 100.185 219.873C100.633 219.873 101.101 219.755 101.535 219.505L131.277 202.356V80.0401L131.324 68.0615V68.0681Z" fill="#E0E0E0"/>
<path d="M109.313 99.8776L125.027 90.8296C125.581 90.5076 126.028 90.7705 126.028 91.4078V92.7088C126.028 93.3462 125.581 94.1216 125.027 94.437L109.313 103.485C108.76 103.807 108.312 103.544 108.312 102.907V101.606C108.312 100.968 108.76 100.193 109.313 99.8776Z" fill="#E0E0E0"/>
<path d="M105.184 103.413V104.714C105.184 105.351 104.736 106.126 104.183 106.442L103.781 106.685C103.228 107 102.78 106.744 102.78 106.107V104.806C102.78 104.168 103.228 103.393 103.781 103.078L104.183 102.835C104.736 102.519 105.184 102.775 105.184 103.413Z" fill="#BA68C8"/>
<path d="M109.313 107.066L125.027 98.0181C125.581 97.6961 126.028 97.9589 126.028 98.5963V99.8973C126.028 100.535 125.581 101.31 125.027 101.625L109.313 110.673C108.76 110.995 108.312 110.733 108.312 110.095V108.794C108.312 108.157 108.76 107.381 109.313 107.059V107.066Z" fill="#E0E0E0"/>
<path d="M105.184 110.601V111.902C105.184 112.54 104.736 113.315 104.183 113.63L103.781 113.873C103.228 114.189 102.78 113.933 102.78 113.295V111.994C102.78 111.357 103.228 110.582 103.781 110.266L104.183 110.023C104.736 109.708 105.184 109.964 105.184 110.601Z" fill="#BA68C8"/>
<path d="M109.313 114.255L125.027 105.207C125.581 104.885 126.028 105.147 126.028 105.785V107.086C126.028 107.723 125.581 108.499 125.027 108.814L109.313 117.862C108.76 118.184 108.312 117.921 108.312 117.284V115.983C108.312 115.345 108.76 114.57 109.313 114.255Z" fill="#E0E0E0"/>
<path d="M105.184 117.79V119.091C105.184 119.728 104.736 120.503 104.183 120.819L103.781 121.062C103.228 121.377 102.78 121.121 102.78 120.484V119.183C102.78 118.545 103.228 117.77 103.781 117.455L104.183 117.211C104.736 116.896 105.184 117.152 105.184 117.79Z" fill="#BA68C8"/>
<path d="M109.313 138.093L125.027 129.045C125.581 128.723 126.028 128.986 126.028 129.624V130.925C126.028 131.562 125.581 132.337 125.027 132.659L109.313 141.707C108.76 142.029 108.312 141.766 108.312 141.129V139.828C108.312 139.191 108.76 138.415 109.313 138.1V138.093Z" fill="#E0E0E0"/>
<path d="M105.184 141.629V142.93C105.184 143.567 104.736 144.342 104.183 144.658L103.781 144.901C103.228 145.216 102.78 144.96 102.78 144.323V143.022C102.78 142.384 103.228 141.609 103.781 141.293L104.183 141.05C104.736 140.735 105.184 140.991 105.184 141.629Z" fill="#BA68C8"/>
<path d="M109.313 144.461L125.027 135.413C125.581 135.091 126.028 135.353 126.028 135.991V137.292C126.028 137.929 125.581 138.705 125.027 139.02L109.313 148.068C108.76 148.39 108.312 148.127 108.312 147.49V146.189C108.312 145.551 108.76 144.776 109.313 144.461Z" fill="#E0E0E0"/>
<path d="M105.184 147.996V149.297C105.184 149.934 104.736 150.71 104.183 151.025L103.781 151.268C103.228 151.59 102.78 151.327 102.78 150.69V149.389C102.78 148.751 103.228 147.976 103.781 147.661L104.183 147.418C104.736 147.102 105.184 147.358 105.184 147.996Z" fill="#BA68C8"/>
<path d="M109.313 150.828L125.027 141.78C125.581 141.458 126.028 141.721 126.028 142.358V143.659C126.028 144.296 125.581 145.072 125.027 145.387L109.313 154.435C108.76 154.757 108.312 154.494 108.312 153.857V152.556C108.312 151.919 108.76 151.143 109.313 150.821V150.828Z" fill="#E0E0E0"/>
<path d="M105.184 154.363V155.664C105.184 156.301 104.736 157.077 104.183 157.392L103.781 157.635C103.228 157.951 102.78 157.694 102.78 157.057V155.756C102.78 155.119 103.228 154.343 103.781 154.028L104.183 153.785C104.736 153.463 105.184 153.726 105.184 154.363Z" fill="#BA68C8"/>
<path d="M109.043 121.699V123.94L110.993 121.699H109.043Z" fill="#BA68C8"/>
<path d="M112.178 121.233C112.178 121.647 112.475 121.818 112.843 121.601L125.363 114.412C125.732 114.202 126.028 113.689 126.028 113.262C126.028 112.835 125.732 112.671 125.363 112.881L112.843 120.089C112.475 120.3 112.178 120.812 112.178 121.226V121.233Z" fill="#E0E0E0"/>
<path d="M109.043 125.3V127.548L110.993 125.3H109.043Z" fill="#BA68C8"/>
<path d="M112.178 124.84C112.178 125.254 112.475 125.425 112.843 125.208L125.363 118.02C125.732 117.809 126.028 117.297 126.028 116.87C126.028 116.443 125.732 116.278 125.363 116.489L112.843 123.697C112.475 123.907 112.178 124.42 112.178 124.834V124.84Z" fill="#E0E0E0"/>
<path d="M109.043 128.908V131.155L110.993 128.908H109.043Z" fill="#BA68C8"/>
<path d="M112.178 128.448C112.178 128.862 112.475 129.032 112.843 128.816L125.363 121.627C125.732 121.417 126.028 120.904 126.028 120.477C126.028 120.05 125.732 119.886 125.363 120.096L112.843 127.304C112.475 127.514 112.178 128.027 112.178 128.441V128.448Z" fill="#E0E0E0"/>
<path d="M109.043 132.515V134.762L110.993 132.515H109.043Z" fill="#BA68C8"/>
<path d="M112.178 132.055C112.178 132.469 112.475 132.64 112.843 132.423L125.363 125.234C125.732 125.024 126.028 124.512 126.028 124.085C126.028 123.657 125.732 123.493 125.363 123.703L112.843 130.912C112.475 131.122 112.178 131.634 112.178 132.048V132.055Z" fill="#E0E0E0"/>
<path d="M238.076 7.76138C237.364 7.42627 236.449 7.51826 235.435 8.0965L101.417 85.2969C99.2501 86.5453 97.4851 89.5942 97.4851 92.0845V99.6869L92.4731 96.7564V89.2459C92.4731 86.749 94.225 83.7133 96.3918 82.4714L230.416 5.26448C231.536 4.6074 232.543 4.59426 233.268 5.0345C233.979 5.4616 237.239 7.32114 238.076 7.76138Z" fill="#189FFF"/>
<path d="M239.353 10.3308C239.34 7.8536 237.588 6.85483 235.428 8.09672L101.41 85.2971C99.2433 86.5456 97.4849 89.5813 97.4849 92.0847V99.6937L239.353 17.9858V10.3308Z" fill="#189FFF"/>
<path opacity="0.15" d="M92.4663 96.7696V89.2394C92.4663 87.9713 92.9339 86.5651 93.665 85.3232L98.6637 88.1947C97.9327 89.43 97.4914 90.8164 97.4914 92.0912V99.6936L92.4663 96.7696Z" fill="#189FFF"/>
<path d="M223.876 18.3798C223.053 18.8529 222.381 20.2656 222.381 21.5338C222.381 22.8019 223.046 23.4393 223.876 22.9662C224.699 22.4931 225.371 21.0804 225.371 19.8122C225.371 18.5441 224.706 17.9067 223.876 18.3798Z" fill="#37474F"/>
<path d="M229.25 15.2787C228.427 15.7518 227.755 17.1645 227.755 18.4327C227.755 19.7009 228.42 20.3382 229.25 19.8651C230.08 19.392 230.745 17.9793 230.745 16.7112C230.745 15.443 230.08 14.8056 229.25 15.2787Z" fill="#37474F"/>
<path d="M234.618 12.1772C233.794 12.6503 233.123 14.063 233.123 15.3311C233.123 16.5993 233.788 17.2367 234.618 16.7636C235.441 16.2905 236.113 14.8778 236.113 13.6096C236.113 12.3414 235.447 11.7041 234.618 12.1772Z" fill="#37474F"/>
<path d="M98.69 219.427L94.5475 217.041C93.4279 216.404 92.6771 215.274 92.4992 214.006C92.4729 213.809 92.4663 213.625 92.4663 213.434V96.7563L97.4848 99.6869V217.173C97.4848 217.317 97.498 217.455 97.5177 217.593C97.5309 217.672 97.5441 217.745 97.5638 217.817C97.5638 217.85 97.577 217.889 97.5902 217.915C97.6165 218.001 97.6363 218.08 97.6758 218.159C97.6758 218.172 97.6758 218.185 97.689 218.191C97.7285 218.29 97.7746 218.389 97.8273 218.481C97.88 218.572 97.9458 218.664 98.0051 218.75C98.0512 218.816 98.1039 218.881 98.1566 218.94C98.3607 219.184 98.6176 219.381 98.8942 219.538L98.7032 219.433L98.69 219.427Z" fill="#E0E0E0"/>
<path d="M142.105 268.945C141.268 268.945 140.439 268.761 139.8 268.393L111.539 252.117L112.969 251.289L110.947 249.502C110.789 249.344 110.723 249.166 110.749 248.982C110.775 248.785 110.907 248.608 111.111 248.49L123.75 241.209C124.053 241.038 124.501 240.999 124.856 241.117L128.064 242.32C128.235 242.372 128.478 242.359 128.617 242.28L152.504 228.521L152.669 228.62L180.396 244.593C180.949 244.915 181.285 245.487 181.285 246.131C181.285 246.775 180.955 247.346 180.396 247.668L144.403 268.406C143.764 268.774 142.935 268.958 142.098 268.958L142.105 268.945ZM112.87 252.117L140.136 267.821C141.203 268.439 143.014 268.439 144.081 267.821L180.073 247.084C180.422 246.88 180.633 246.525 180.633 246.124C180.633 245.723 180.422 245.362 180.073 245.158L152.511 229.283L128.959 242.852C128.656 243.023 128.215 243.062 127.853 242.944L124.645 241.741C124.474 241.682 124.231 241.702 124.092 241.781L111.46 249.061L113.482 250.849C113.64 251.006 113.706 251.19 113.68 251.374C113.653 251.571 113.522 251.749 113.318 251.867L112.883 252.117H112.87Z" fill="#E0E0E0"/>
<path d="M158.267 268.951C157.437 268.951 156.607 268.767 155.962 268.392L127.701 252.117L129.13 251.295L127.108 249.508C126.95 249.35 126.885 249.173 126.911 248.989C126.937 248.792 127.069 248.614 127.273 248.496L139.912 241.216C140.215 241.045 140.656 241.005 141.018 241.124L144.225 242.326C144.397 242.385 144.64 242.365 144.779 242.287L168.659 228.527L168.824 228.626L190.077 240.867L189.748 241.439L168.659 229.296L145.108 242.865C144.805 243.036 144.357 243.075 144.001 242.957L140.794 241.754C140.623 241.695 140.379 241.715 140.241 241.794L127.609 249.074L129.631 250.862C129.789 251.019 129.855 251.197 129.828 251.381C129.802 251.578 129.67 251.755 129.466 251.873L129.032 252.123L156.297 267.827C157.364 268.445 159.176 268.445 160.242 267.827L190.037 250.664L190.367 251.236L160.572 268.399C159.926 268.774 159.097 268.958 158.267 268.958V268.951Z" fill="#189FFF"/>
<path d="M197.269 252.734C194.338 252.734 191.414 252.097 189.194 250.816C186.962 249.528 185.75 247.793 185.776 245.934C185.803 244.107 187.034 242.405 189.234 241.137C193.693 238.568 200.95 238.568 205.409 241.137C207.635 242.418 208.853 244.14 208.847 245.98C208.84 247.819 207.602 249.541 205.37 250.809C203.13 252.084 200.193 252.728 197.262 252.728L197.269 252.734ZM189.53 250.244C193.785 252.695 200.746 252.695 205.047 250.244C207.069 249.094 208.182 247.576 208.188 245.986C208.195 244.389 207.095 242.878 205.086 241.715C200.812 239.251 193.851 239.251 189.57 241.715C187.581 242.865 186.468 244.363 186.441 245.947C186.415 247.557 187.508 249.081 189.53 250.244Z" fill="#189FFF"/>
<path d="M200.996 248.752C200.884 248.752 200.772 248.726 200.667 248.66L193.304 244.416C192.988 244.232 192.876 243.831 193.06 243.509C193.245 243.193 193.646 243.082 193.969 243.266L201.332 247.51C201.648 247.694 201.76 248.095 201.576 248.417C201.451 248.627 201.233 248.746 201.003 248.746L200.996 248.752Z" fill="#189FFF"/>
<path d="M193.633 248.753C193.403 248.753 193.179 248.634 193.06 248.424C192.876 248.109 192.988 247.701 193.304 247.517L200.667 243.272C200.983 243.088 201.391 243.2 201.576 243.516C201.76 243.831 201.648 244.238 201.332 244.422L193.969 248.667C193.864 248.726 193.752 248.759 193.64 248.759L193.633 248.753Z" fill="#189FFF"/>
<path d="M99.612 68.3447C100.277 68.7586 103.399 70.5262 104.183 70.9336C103.34 70.5985 102.556 70.7627 101.667 71.2753L49.3809 101.409C47.3195 102.605 45.6466 105.489 45.6466 107.875V167.248C45.6664 168.3 45.9825 169.423 46.7531 170.146C46.8387 170.232 46.9309 170.297 47.0297 170.37C44.0463 168.254 40.9245 168.287 40.8652 164.535V105.161C40.8652 102.802 42.5578 99.8714 44.5995 98.6952L96.8854 68.5615C97.9523 67.957 98.9139 67.9439 99.6186 68.3513L99.612 68.3447Z" fill="#263238"/>
<path d="M103.333 70.7559C102.833 70.7559 102.266 70.9201 101.66 71.2684L49.381 101.402C47.313 102.591 45.6401 105.483 45.6401 107.868V167.242C45.6401 169.121 46.6873 170.724 48.1494 170.724C48.538 170.724 48.9529 170.612 49.3875 170.363L101.733 140.209C103.801 139.02 105.474 136.129 105.474 133.75L105.401 73.4236C105.401 71.7349 104.558 70.7624 103.333 70.7624V70.7559Z" fill="#37474F"/>
<path d="M101.66 71.2619L49.3875 101.396C48.3667 101.994 47.4249 103.005 46.7531 104.168L41.998 101.422C42.6698 100.272 43.5853 99.2732 44.5995 98.7016L96.8854 68.5679C97.9589 67.9436 98.9073 67.9371 99.6054 68.3444C100.277 68.7584 103.379 70.5128 104.17 70.9399C103.511 70.6245 102.628 70.7165 101.667 71.2685L101.66 71.2619Z" fill="#455A64"/>
<path d="M62.3948 105.148V140.623C62.3948 142.246 63.5407 142.904 64.9501 142.095L95.7461 124.354C97.1555 123.539 98.2948 121.568 98.2948 119.945V84.4693C98.2948 82.8464 97.1555 82.1893 95.7461 82.9975L64.9501 100.739C63.5407 101.553 62.4014 103.525 62.4014 105.148H62.3948Z" fill="#189FFF"/>
<path opacity="0.3" d="M84.135 99.109C84.135 97.486 82.9957 96.8289 81.5863 97.6371L62.4014 108.689V140.623C62.4014 142.246 63.5473 142.903 64.9567 142.095L84.1416 131.043V99.109H84.135Z" fill="black"/>
<path d="M52.8252 121.686V157.162C52.8252 158.785 53.9712 159.442 55.3806 158.634L86.1765 140.893C87.5859 140.078 88.7253 138.107 88.7253 136.484V101.008C88.7253 99.3849 87.5859 98.7278 86.1765 99.5361L55.3806 117.277C53.9712 118.092 52.8318 120.063 52.8318 121.686H52.8252Z" fill="#BA68C8"/>
<path opacity="0.3" d="M54.2346 165.553C49.6771 165.553 46.2393 161.946 46.2393 157.162V121.686C46.2393 117.724 48.6431 113.571 52.081 111.587L82.8769 93.8459C84.2732 93.0443 85.8011 92.6172 87.3093 92.6172C91.8668 92.6172 95.3046 96.2246 95.3046 101.008V136.484C95.3046 140.446 92.9008 144.599 89.4629 146.583L58.667 164.324C57.2707 165.126 55.7428 165.553 54.2346 165.553Z" fill="#189FFF"/>
<path opacity="0.3" d="M52.8252 121.686V157.162C52.8252 158.785 53.9712 159.442 55.3806 158.634L86.1765 140.893C87.5859 140.078 88.7253 138.107 88.7253 136.484V101.008C88.7253 99.3849 87.5859 98.7278 86.1765 99.5361L55.3806 117.277C53.9712 118.092 52.8318 120.063 52.8318 121.686H52.8252Z" fill="#189FFF"/>
<path d="M81.5401 126.266V122.685C81.5401 122.035 81.0856 121.772 80.5193 122.1L74.3614 125.649V118.552C74.3614 117.902 73.907 117.639 73.3406 117.967L70.232 119.761C69.6656 120.083 69.2112 120.878 69.2112 121.522V128.619L63.0533 132.167C62.4869 132.489 62.0325 133.284 62.0325 133.928V137.509C62.0325 138.159 62.4869 138.422 63.0533 138.094L69.2112 134.545V141.642C69.2112 142.292 69.6656 142.555 70.232 142.227L73.3406 140.433C73.907 140.111 74.3614 139.316 74.3614 138.672V131.575L80.5193 128.027C81.0856 127.705 81.5401 126.91 81.5401 126.266Z" fill="white"/>
<path d="M122.413 149.29L118.777 147.194V184.634L122.413 186.73L129.473 171.953L139.51 166.177L122.413 149.29Z" fill="#E0E0E0"/>
<path d="M122.413 187.046C122.36 187.046 122.301 187.033 122.255 187.006L118.619 184.91C118.52 184.851 118.461 184.746 118.461 184.634V147.194C118.461 147.082 118.52 146.977 118.619 146.918C118.718 146.859 118.837 146.859 118.935 146.918L122.571 149.014C122.571 149.014 122.617 149.047 122.637 149.06L139.727 165.947C139.8 166.019 139.833 166.111 139.819 166.21C139.806 166.308 139.747 166.394 139.661 166.446L129.717 172.176L122.703 186.862C122.663 186.941 122.597 187 122.512 187.026C122.479 187.033 122.446 187.039 122.419 187.039L122.413 187.046ZM119.093 184.45L122.274 186.284L129.183 171.821C129.209 171.762 129.256 171.716 129.308 171.683L138.983 166.111L122.215 149.546L119.093 147.746V184.457V184.45Z" fill="#455A64"/>
<path d="M122.413 149.29V186.73L129.473 171.953L139.51 166.177L122.413 149.29Z" fill="#FAFAFA"/>
<path d="M122.413 187.046C122.413 187.046 122.367 187.046 122.34 187.039C122.195 187.006 122.09 186.882 122.09 186.73V149.29C122.09 149.165 122.169 149.047 122.288 149.001C122.406 148.955 122.545 148.981 122.63 149.067L139.721 165.954C139.793 166.026 139.826 166.118 139.813 166.216C139.8 166.315 139.74 166.4 139.655 166.453L129.71 172.183L122.696 186.868C122.643 186.98 122.531 187.046 122.413 187.046ZM122.729 150.052V185.331L129.183 171.821C129.21 171.762 129.256 171.716 129.308 171.683L138.983 166.111L122.729 150.052Z" fill="#455A64"/>
<path d="M112.053 147.128L108.417 145.032V182.473L112.053 184.562L119.113 169.791L129.143 164.015L112.053 147.128Z" fill="#263238"/>
<path d="M112.053 147.128V184.562L119.113 169.791L129.144 164.015L112.053 147.128Z" fill="#455A64"/>
<path d="M191.216 156.492C191.117 156.492 191.019 156.439 190.959 156.347C190.88 156.209 190.926 156.025 191.065 155.947L192.593 155.066C192.731 154.987 192.915 155.033 192.994 155.171C193.073 155.309 193.027 155.493 192.889 155.572L191.361 156.453C191.315 156.479 191.262 156.492 191.216 156.492ZM189.095 155.96C188.931 155.96 188.799 155.835 188.799 155.677C188.799 155.671 188.799 155.638 188.799 155.631V153.896C188.799 153.732 188.931 153.601 189.095 153.601C189.26 153.601 189.392 153.732 189.392 153.896V155.657C189.392 155.822 189.26 155.96 189.095 155.96ZM195.299 154.146C195.201 154.146 195.102 154.094 195.043 154.002C194.964 153.864 195.01 153.68 195.148 153.601L196.676 152.72C196.814 152.641 196.999 152.687 197.078 152.825C197.157 152.963 197.111 153.147 196.972 153.226L195.444 154.107C195.398 154.133 195.346 154.146 195.299 154.146ZM199.383 151.794C199.284 151.794 199.185 151.741 199.126 151.649C199.047 151.511 199.093 151.327 199.231 151.248L200.759 150.368C200.897 150.289 201.082 150.335 201.161 150.473C201.24 150.611 201.194 150.795 201.056 150.874L199.528 151.754C199.482 151.781 199.429 151.794 199.383 151.794ZM189.102 151.248C188.937 151.248 188.806 151.117 188.806 150.953V149.192C188.806 149.028 188.937 148.896 189.102 148.896C189.267 148.896 189.398 149.028 189.398 149.192V150.953C189.398 151.117 189.267 151.248 189.102 151.248ZM203.466 149.441C203.367 149.441 203.268 149.389 203.209 149.297C203.13 149.159 203.176 148.975 203.315 148.896L204.842 148.016C204.981 147.937 205.165 147.983 205.244 148.121C205.323 148.259 205.277 148.443 205.139 148.522L203.611 149.402C203.565 149.428 203.512 149.441 203.466 149.441ZM207.549 147.089C207.451 147.089 207.352 147.037 207.292 146.945C207.213 146.807 207.26 146.623 207.398 146.544L208.926 145.663C209.064 145.584 209.248 145.63 209.327 145.768C209.407 145.906 209.36 146.09 209.222 146.169L207.694 147.05C207.648 147.076 207.595 147.089 207.549 147.089ZM189.102 146.544C188.937 146.544 188.806 146.412 188.806 146.248V144.487C188.806 144.323 188.937 144.191 189.102 144.191C189.267 144.191 189.398 144.323 189.398 144.487V146.248C189.398 146.412 189.267 146.544 189.102 146.544ZM211.626 144.743C211.527 144.743 211.428 144.691 211.369 144.599C211.29 144.461 211.336 144.277 211.475 144.198L213.002 143.317C213.141 143.239 213.325 143.285 213.404 143.423C213.483 143.561 213.437 143.745 213.299 143.823L211.771 144.704C211.725 144.73 211.672 144.743 211.626 144.743ZM215.709 142.391C215.61 142.391 215.512 142.338 215.452 142.246C215.373 142.108 215.42 141.924 215.558 141.846L217.086 140.965C217.224 140.886 217.408 140.932 217.488 141.07C217.567 141.208 217.52 141.392 217.382 141.471L215.854 142.352C215.808 142.378 215.755 142.391 215.709 142.391ZM189.102 141.839C188.937 141.839 188.806 141.708 188.806 141.543V139.782C188.806 139.618 188.937 139.487 189.102 139.487C189.267 139.487 189.398 139.618 189.398 139.782V141.543C189.398 141.708 189.267 141.839 189.102 141.839ZM219.793 140.039C219.694 140.039 219.595 139.986 219.536 139.894C219.457 139.756 219.503 139.572 219.641 139.493L221.169 138.613C221.307 138.534 221.492 138.58 221.571 138.718C221.65 138.856 221.604 139.04 221.465 139.119L219.937 139.999C219.891 140.026 219.839 140.039 219.793 140.039ZM223.876 137.686C223.777 137.686 223.678 137.634 223.619 137.542C223.54 137.404 223.586 137.22 223.724 137.141L225.252 136.26C225.391 136.182 225.575 136.228 225.654 136.366C225.733 136.504 225.687 136.688 225.549 136.766L224.021 137.647C223.975 137.673 223.922 137.686 223.876 137.686ZM189.109 137.134C188.944 137.134 188.812 137.003 188.812 136.839V135.078C188.812 134.913 188.944 134.782 189.109 134.782C189.273 134.782 189.405 134.913 189.405 135.078V136.839C189.405 137.003 189.273 137.134 189.109 137.134ZM227.597 134.92C227.551 134.92 227.505 134.907 227.465 134.887C227.32 134.815 227.261 134.637 227.34 134.493C227.551 134.079 227.669 133.652 227.669 133.277V132.922C227.669 132.758 227.801 132.627 227.966 132.627C228.13 132.627 228.262 132.758 228.262 132.922V133.277C228.262 133.737 228.124 134.269 227.867 134.762C227.814 134.861 227.709 134.92 227.604 134.92H227.597ZM189.109 132.43C188.944 132.43 188.812 132.298 188.812 132.134V130.373C188.812 130.209 188.944 130.077 189.109 130.077C189.273 130.077 189.405 130.209 189.405 130.373V132.134C189.405 132.298 189.273 132.43 189.109 132.43ZM227.959 130.281C227.795 130.281 227.663 130.15 227.663 129.985V128.224C227.663 128.06 227.795 127.929 227.959 127.929C228.124 127.929 228.256 128.06 228.256 128.224V129.985C228.256 130.15 228.124 130.281 227.959 130.281ZM189.109 127.732C188.944 127.732 188.812 127.6 188.812 127.436V125.675C188.812 125.511 188.944 125.379 189.109 125.379C189.273 125.379 189.405 125.511 189.405 125.675V127.436C189.405 127.6 189.273 127.732 189.109 127.732ZM227.953 125.576C227.788 125.576 227.656 125.445 227.656 125.281V123.52C227.656 123.355 227.788 123.224 227.953 123.224C228.117 123.224 228.249 123.355 228.249 123.52V125.281C228.249 125.445 228.117 125.576 227.953 125.576ZM189.109 123.027C188.944 123.027 188.812 122.895 188.812 122.731V120.97C188.812 120.806 188.944 120.674 189.109 120.674C189.273 120.674 189.405 120.806 189.405 120.97V122.731C189.405 122.895 189.273 123.027 189.109 123.027ZM227.953 120.878C227.788 120.878 227.656 120.747 227.656 120.582V118.822C227.656 118.657 227.788 118.526 227.953 118.526C228.117 118.526 228.249 118.657 228.249 118.822V120.582C228.249 120.747 228.117 120.878 227.953 120.878ZM189.109 118.329C188.944 118.329 188.812 118.197 188.812 118.033V116.272C188.812 116.108 188.944 115.976 189.109 115.976C189.273 115.976 189.405 116.108 189.405 116.272V118.033C189.405 118.197 189.273 118.329 189.109 118.329ZM227.953 116.173C227.788 116.173 227.656 116.042 227.656 115.878V114.117C227.656 113.953 227.788 113.821 227.953 113.821C228.117 113.821 228.249 113.953 228.249 114.117V115.878C228.249 116.042 228.117 116.173 227.953 116.173ZM189.109 113.624C188.944 113.624 188.812 113.493 188.812 113.328V111.567C188.812 111.403 188.944 111.272 189.109 111.272C189.273 111.272 189.405 111.403 189.405 111.567V113.328C189.405 113.493 189.273 113.624 189.109 113.624ZM227.953 111.475C227.788 111.475 227.656 111.344 227.656 111.18V109.419C227.656 109.254 227.788 109.123 227.953 109.123C228.117 109.123 228.249 109.254 228.249 109.419V111.18C228.249 111.344 228.117 111.475 227.953 111.475ZM189.109 108.926C188.944 108.926 188.812 108.794 188.812 108.63V106.869C188.812 106.705 188.944 106.574 189.109 106.574C189.273 106.574 189.405 106.705 189.405 106.869V108.63C189.405 108.794 189.273 108.926 189.109 108.926ZM227.953 106.777C227.788 106.777 227.656 106.646 227.656 106.482V104.721C227.656 104.556 227.788 104.425 227.953 104.425C228.117 104.425 228.249 104.556 228.249 104.721V106.482C228.249 106.646 228.117 106.777 227.953 106.777ZM189.109 104.228C188.944 104.228 188.812 104.096 188.812 103.932V102.171C188.812 102.007 188.944 101.875 189.109 101.875C189.273 101.875 189.405 102.007 189.405 102.171V103.932C189.405 104.096 189.273 104.228 189.109 104.228ZM227.953 102.079C227.788 102.079 227.656 101.948 227.656 101.783V100.022C227.656 99.8582 227.788 99.7268 227.953 99.7268C228.117 99.7268 228.249 99.8582 228.249 100.022V101.783C228.249 101.948 228.117 102.079 227.953 102.079ZM189.109 99.5296C188.944 99.5296 188.812 99.3982 188.812 99.2339V97.473C188.812 97.3087 188.944 97.1773 189.109 97.1773C189.273 97.1773 189.405 97.3087 189.405 97.473V99.2339C189.405 99.3982 189.273 99.5296 189.109 99.5296ZM227.953 97.381C227.788 97.381 227.656 97.2496 227.656 97.0853V95.3243C227.656 95.16 227.788 95.0286 227.953 95.0286C228.117 95.0286 228.249 95.16 228.249 95.3243V97.0853C228.249 97.2496 228.117 97.381 227.953 97.381ZM189.109 94.8315C188.944 94.8315 188.812 94.7001 188.812 94.5358V92.7748C188.812 92.6106 188.944 92.4792 189.109 92.4792C189.273 92.4792 189.405 92.6106 189.405 92.7748V94.5358C189.405 94.7001 189.273 94.8315 189.109 94.8315ZM227.953 92.6829C227.788 92.6829 227.656 92.5514 227.656 92.3872V90.6262C227.656 90.4619 227.788 90.3305 227.953 90.3305C228.117 90.3305 228.249 90.4619 228.249 90.6262V92.3872C228.249 92.5514 228.117 92.6829 227.953 92.6829ZM189.787 90.2845C189.728 90.2845 189.662 90.2648 189.609 90.2254C189.477 90.1268 189.451 89.9428 189.55 89.8114C189.826 89.4369 190.149 89.1346 190.492 88.9441L191.005 88.6484C191.144 88.5695 191.328 88.6155 191.407 88.7535C191.486 88.8915 191.44 89.0755 191.302 89.1543L190.788 89.45C190.518 89.6077 190.255 89.8508 190.024 90.1597C189.965 90.2385 189.879 90.2779 189.787 90.2779V90.2845ZM227.953 87.9847C227.788 87.9847 227.656 87.8533 227.656 87.689V85.9281C227.656 85.7638 227.788 85.6324 227.953 85.6324C228.117 85.6324 228.249 85.7638 228.249 85.9281V87.689C228.249 87.8533 228.117 87.9847 227.953 87.9847ZM193.706 87.7285C193.607 87.7285 193.508 87.6759 193.449 87.5839C193.37 87.4459 193.416 87.2619 193.554 87.1831L195.082 86.3026C195.22 86.2238 195.405 86.2698 195.484 86.4077C195.563 86.5457 195.517 86.7297 195.378 86.8086L193.85 87.689C193.804 87.7153 193.752 87.7285 193.706 87.7285ZM197.789 85.3761C197.69 85.3761 197.591 85.3236 197.532 85.2316C197.453 85.0936 197.499 84.9096 197.637 84.8307L199.165 83.9503C199.31 83.8714 199.488 83.9174 199.567 84.0554C199.646 84.1934 199.6 84.3774 199.462 84.4562L197.934 85.3367C197.888 85.363 197.835 85.3761 197.789 85.3761ZM227.953 83.28C227.788 83.28 227.656 83.1486 227.656 82.9843V81.2234C227.656 81.0591 227.788 80.9277 227.953 80.9277C228.117 80.9277 228.249 81.0591 228.249 81.2234V82.9843C228.249 83.1486 228.117 83.28 227.953 83.28ZM201.872 83.0238C201.773 83.0238 201.675 82.9712 201.615 82.8792C201.536 82.7412 201.582 82.5572 201.721 82.4784L203.249 81.5979C203.387 81.5191 203.571 81.5651 203.65 81.703C203.729 81.841 203.683 82.025 203.545 82.1039L202.017 82.9843C201.971 83.0106 201.918 83.0238 201.872 83.0238ZM205.955 80.6714C205.857 80.6714 205.758 80.6189 205.699 80.5269C205.62 80.3889 205.666 80.2049 205.804 80.126L207.332 79.2456C207.47 79.1667 207.655 79.2127 207.734 79.3507C207.813 79.4887 207.767 79.6727 207.628 79.7515L206.1 80.632C206.054 80.6583 206.002 80.6714 205.955 80.6714ZM227.959 78.5753C227.795 78.5753 227.663 78.4439 227.663 78.2797V76.5187C227.663 76.3544 227.795 76.223 227.959 76.223C228.124 76.223 228.256 76.3544 228.256 76.5187V78.2797C228.256 78.4439 228.124 78.5753 227.959 78.5753ZM210.039 78.3191C209.94 78.3191 209.841 78.2665 209.782 78.1745C209.703 78.0365 209.749 77.8525 209.887 77.7737L211.415 76.8932C211.554 76.8144 211.738 76.8604 211.817 76.9983C211.896 77.1363 211.85 77.3203 211.712 77.3992L210.184 78.2797C210.138 78.3059 210.085 78.3191 210.039 78.3191ZM214.122 75.9667C214.023 75.9667 213.924 75.9142 213.865 75.8222C213.786 75.6842 213.832 75.5002 213.971 75.4213L215.499 74.5409C215.637 74.462 215.821 74.508 215.9 74.646C215.979 74.784 215.933 74.968 215.795 75.0468L214.267 75.9273C214.221 75.9536 214.168 75.9667 214.122 75.9667ZM227.959 73.8706C227.795 73.8706 227.663 73.7392 227.663 73.575V71.814C227.663 71.6497 227.795 71.5183 227.959 71.5183C228.124 71.5183 228.256 71.6497 228.256 71.814V73.575C228.256 73.7392 228.124 73.8706 227.959 73.8706ZM218.199 73.6144C218.1 73.6144 218.001 73.5618 217.942 73.4698C217.863 73.3318 217.909 73.1479 218.047 73.069L219.575 72.1885C219.72 72.1097 219.898 72.1557 219.977 72.2936C220.056 72.4316 220.01 72.6156 219.872 72.6945L218.344 73.575C218.298 73.6012 218.245 73.6144 218.199 73.6144ZM222.282 71.262C222.183 71.262 222.084 71.2095 222.025 71.1175C221.946 70.9795 221.992 70.7955 222.131 70.7167L223.659 69.8362C223.803 69.7573 223.981 69.8033 224.06 69.9413C224.139 70.0793 224.093 70.2633 223.955 70.3421L222.427 71.2226C222.381 71.2489 222.328 71.262 222.282 71.262ZM227.86 69.1791C227.742 69.1791 227.636 69.1134 227.59 68.9951C227.432 68.614 227.037 68.568 226.583 68.8308L226.517 68.8703C226.379 68.9491 226.194 68.9031 226.115 68.7651C226.036 68.6271 226.082 68.4432 226.22 68.3643L226.286 68.3249C227.063 67.8781 227.847 68.0752 228.137 68.7717C228.203 68.9228 228.13 69.0937 227.979 69.1528C227.939 69.1659 227.906 69.1725 227.867 69.1725L227.86 69.1791Z" fill="#189FFF"/>
<path d="M189.095 108.058C189.043 108.058 188.997 108.045 188.951 108.019L187.423 107.139C187.284 107.06 187.232 106.876 187.317 106.738C187.396 106.593 187.581 106.547 187.719 106.633L189.247 107.513C189.385 107.592 189.438 107.776 189.352 107.914C189.3 108.006 189.201 108.058 189.095 108.058ZM185.012 105.706C184.959 105.706 184.913 105.693 184.867 105.667L183.339 104.786C183.201 104.707 183.148 104.523 183.234 104.385C183.313 104.241 183.497 104.195 183.636 104.28L185.164 105.161C185.302 105.24 185.355 105.424 185.269 105.562C185.216 105.654 185.118 105.706 185.012 105.706ZM180.929 103.354C180.876 103.354 180.83 103.341 180.784 103.314L179.256 102.434C179.118 102.355 179.065 102.171 179.151 102.033C179.23 101.895 179.414 101.842 179.552 101.928L181.08 102.808C181.219 102.887 181.271 103.071 181.186 103.209C181.133 103.301 181.034 103.354 180.929 103.354ZM176.846 101.001C176.793 101.001 176.747 100.988 176.701 100.962L175.173 100.082C175.034 100.003 174.982 99.8187 175.067 99.6807C175.146 99.5361 175.331 99.4901 175.469 99.5756L176.997 100.456C177.135 100.535 177.188 100.719 177.102 100.857C177.05 100.949 176.951 101.001 176.846 101.001Z" fill="#BA68C8"/>
<path d="M227.439 61.2805C230.844 59.3158 233.61 60.906 233.61 64.8353C233.61 68.7647 230.85 73.5351 227.439 75.4932C224.034 77.4578 221.268 75.8677 221.268 71.9384C221.268 68.009 224.027 63.2386 227.439 61.2805Z" fill="#FAFAFA"/>
<path d="M224.679 76.5907C224.047 76.5907 223.461 76.4396 222.947 76.1439C221.703 75.4277 221.018 73.9361 221.018 71.9386C221.018 67.937 223.843 63.0614 227.314 61.0573C229.046 60.0586 230.679 59.9075 231.924 60.6237C233.169 61.3399 233.86 62.8315 233.86 64.829C233.86 68.8306 231.035 73.7061 227.564 75.7102C226.55 76.295 225.568 76.5842 224.679 76.5842V76.5907ZM230.192 60.6894C229.395 60.6894 228.499 60.9588 227.564 61.4976C224.232 63.4163 221.518 68.1013 221.518 71.9386C221.518 73.7456 222.117 75.0794 223.198 75.7037C224.284 76.3279 225.74 76.1768 227.307 75.27C230.64 73.3513 233.346 68.6663 233.346 64.829C233.346 63.022 232.747 61.6881 231.667 61.0639C231.226 60.8142 230.732 60.6828 230.185 60.6828L230.192 60.6894Z" fill="#189FFF"/>
<path d="M231.397 66.8398V65.3876C231.397 65.1248 231.213 65.0197 230.982 65.1511L228.479 66.5901V63.7121C228.479 63.4492 228.295 63.3441 228.065 63.4755L226.8 64.2049C226.57 64.3363 226.385 64.6583 226.385 64.9211V67.7991L223.882 69.2381C223.652 69.3695 223.468 69.6915 223.468 69.9543V71.4065C223.468 71.6693 223.652 71.7744 223.882 71.643L226.385 70.204V73.082C226.385 73.3449 226.57 73.45 226.8 73.3186L228.065 72.5892C228.295 72.4578 228.479 72.1358 228.479 71.873V68.995L230.982 67.556C231.213 67.4246 231.397 67.1026 231.397 66.8398Z" fill="#189FFF"/>
<path d="M229.77 83.6149V129.151C229.77 129.775 229.329 130.537 228.789 130.846L195.78 149.862C195.51 150.013 195.267 150.033 195.089 149.927C194.911 149.822 193.422 148.968 193.251 148.863C193.073 148.764 192.968 148.541 192.968 148.232V93.228C192.968 92.6038 193.403 91.8416 193.949 91.5328L218.739 77.2544L229.784 83.6149H229.77Z" fill="#F0F0F0"/>
<path d="M196.636 94.22L193.212 92.3276C193.054 92.6168 192.955 92.9387 192.955 93.2344V148.239C192.955 148.547 193.067 148.771 193.245 148.869C193.422 148.975 194.911 149.829 195.089 149.927C195.266 150.032 195.51 150.013 195.78 149.862L196.636 149.369V94.22Z" fill="#E0E0E0"/>
<path d="M229.77 83.6151V129.151C229.77 129.775 229.329 130.537 228.789 130.846L195.78 149.862C195.24 150.171 194.799 149.921 194.799 149.297V94.2927C194.799 93.6685 195.24 92.9063 195.78 92.5974L215.044 81.4928L220.57 78.3125L229.77 83.6151Z" fill="#FAFAFA"/>
<path d="M220.57 78.871L229.283 83.8911V129.144C229.283 129.598 228.941 130.189 228.546 130.419L195.537 149.435C195.425 149.501 195.365 149.501 195.339 149.507C195.333 149.501 195.293 149.435 195.293 149.29V94.2861C195.293 93.8327 195.636 93.2413 196.031 93.0113L215.295 81.9067L220.577 78.8644M220.577 78.2993L215.051 81.4796L195.787 92.5842C195.247 92.8931 194.806 93.6553 194.806 94.2795V149.284C194.806 149.724 195.03 149.98 195.346 149.98C195.477 149.98 195.622 149.934 195.78 149.849L228.789 130.833C229.336 130.524 229.771 129.762 229.771 129.138V83.6151L220.57 78.3125L220.577 78.2993Z" fill="#E0E0E0"/>
<path d="M224.943 83.9763C225.299 83.9763 225.542 84.2589 225.542 84.7517V123.546C225.542 124.236 225.055 125.077 224.456 125.425L200.114 139.447C199.943 139.546 199.771 139.598 199.627 139.598C199.271 139.598 199.027 139.316 199.027 138.823V100.029C199.027 99.3389 199.515 98.4978 200.114 98.1496L216.579 88.6679L224.456 84.1275C224.627 84.0289 224.798 83.9763 224.943 83.9763ZM224.943 83.5229C224.712 83.5229 224.469 83.5952 224.232 83.7332L216.355 88.2736L199.89 97.7553C199.152 98.1824 198.579 99.1746 198.579 100.029V138.823C198.579 139.546 199.014 140.052 199.633 140.052C199.864 140.052 200.107 139.979 200.344 139.841L224.686 125.819C225.424 125.392 225.997 124.4 225.997 123.546V84.7517C225.997 84.0289 225.562 83.5229 224.943 83.5229Z" fill="#189FFF"/>
<path d="M220.57 87.781V78.3125L229.77 83.6151L221.551 88.3461C221.005 88.6549 220.57 88.4053 220.57 87.781Z" fill="#E0E0E0"/>
<path d="M203.986 112.822L220.583 103.17C221.288 102.762 221.861 101.816 221.861 101.054C221.861 100.292 221.288 100.002 220.583 100.41L203.986 110.062C203.282 110.47 202.709 111.416 202.709 112.178C202.709 112.94 203.282 113.229 203.986 112.822ZM220.583 106.514L203.986 116.167C203.282 116.574 202.709 117.52 202.709 118.282C202.709 119.045 203.282 119.334 203.986 118.926L220.583 109.274C221.288 108.866 221.861 107.92 221.861 107.158C221.861 106.396 221.288 106.107 220.583 106.514ZM220.583 112.618L203.986 122.271C203.282 122.678 202.709 123.624 202.709 124.387C202.709 125.149 203.282 125.438 203.986 125.031L220.583 115.378C221.288 114.971 221.861 114.025 221.861 113.262C221.861 112.5 221.288 112.211 220.583 112.618Z" fill="#BA68C8"/>
<path opacity="0.3" d="M203.986 112.822L220.583 103.17C221.288 102.762 221.861 101.816 221.861 101.054C221.861 100.292 221.288 100.002 220.583 100.41L203.986 110.062C203.282 110.47 202.709 111.416 202.709 112.178C202.709 112.94 203.282 113.229 203.986 112.822ZM220.583 106.527L203.986 116.751C203.282 117.179 202.709 118.184 202.709 118.992C202.709 119.8 203.282 120.103 203.986 119.675L220.583 109.451C221.288 109.024 221.861 108.019 221.861 107.211C221.861 106.402 221.288 106.1 220.583 106.527ZM220.583 112.618L203.986 122.271C203.282 122.678 202.709 123.624 202.709 124.387C202.709 125.149 203.282 125.438 203.986 125.031L220.583 115.378C221.288 114.971 221.861 114.025 221.861 113.262C221.861 112.5 221.288 112.211 220.583 112.618Z" fill="#189FFF"/>
<path d="M176.286 85.9343V131.47C176.286 132.094 175.844 132.856 175.304 133.165L142.296 152.181C142.026 152.332 141.782 152.352 141.604 152.247C141.426 152.142 139.938 151.287 139.767 151.182C139.589 151.084 139.483 150.86 139.483 150.552V95.5474C139.483 94.9231 139.918 94.1609 140.465 93.8521L165.254 79.5737L176.299 85.9343H176.286Z" fill="#F0F0F0"/>
<path d="M143.152 96.5394L139.727 94.647C139.569 94.9361 139.47 95.2581 139.47 95.5537V150.558C139.47 150.873 139.582 151.09 139.76 151.189C139.938 151.294 141.426 152.148 141.604 152.247C141.782 152.352 142.026 152.332 142.296 152.181L143.152 151.688V96.5394Z" fill="#E0E0E0"/>
<path d="M176.286 85.9345V131.47C176.286 132.094 175.844 132.857 175.304 133.165L142.296 152.181C141.755 152.49 141.314 152.24 141.314 151.616V96.612C141.314 95.9878 141.755 95.2256 142.296 94.9168L161.559 83.8121L167.085 80.6318L176.286 85.9345Z" fill="#FAFAFA"/>
<path d="M167.078 81.1903L175.792 86.2104V131.464C175.792 131.917 175.449 132.508 175.054 132.738L142.045 151.754C141.933 151.82 141.874 151.82 141.848 151.826C141.841 151.82 141.802 151.754 141.802 151.61V96.6054C141.802 96.152 142.144 95.5607 142.539 95.3307L161.803 84.226L167.085 81.1837M167.085 80.6187L161.559 83.7989L142.296 94.9036C141.755 95.2124 141.314 95.9746 141.314 96.5988V151.603C141.314 152.043 141.538 152.3 141.854 152.3C141.986 152.3 142.131 152.254 142.289 152.168L175.298 133.152C175.844 132.843 176.279 132.081 176.279 131.457V85.9213L167.078 80.6187H167.085Z" fill="#E0E0E0"/>
<path d="M171.458 86.2957C171.814 86.2957 172.058 86.5782 172.058 87.071V125.865C172.058 126.555 171.57 127.396 170.971 127.744L146.629 141.766C146.451 141.865 146.287 141.918 146.142 141.918C145.786 141.918 145.543 141.635 145.543 141.142V102.348C145.543 101.658 146.03 100.817 146.629 100.469L163.094 90.9872L170.971 86.4468C171.142 86.3482 171.313 86.2957 171.458 86.2957ZM171.458 85.8423C171.228 85.8423 170.984 85.9146 170.747 86.0525L162.87 90.593L146.405 100.075C145.668 100.502 145.095 101.494 145.095 102.348V141.142C145.095 141.865 145.529 142.371 146.148 142.371C146.379 142.371 146.623 142.299 146.86 142.161L171.201 128.139C171.939 127.711 172.512 126.719 172.512 125.865V87.071C172.512 86.3482 172.077 85.8423 171.458 85.8423Z" fill="#189FFF"/>
<path d="M167.085 90.1004V80.6318L176.286 85.9345L168.067 90.6655C167.52 90.9743 167.085 90.7246 167.085 90.1004Z" fill="#E0E0E0"/>
<path d="M150.502 115.141L167.098 105.489C167.803 105.082 168.376 104.135 168.376 103.373C168.376 102.611 167.803 102.322 167.098 102.729L150.502 112.382C149.797 112.789 149.224 113.735 149.224 114.497C149.224 115.26 149.797 115.549 150.502 115.141ZM167.098 108.833L150.502 118.486C149.797 118.893 149.224 119.84 149.224 120.602C149.224 121.364 149.797 121.653 150.502 121.246L167.098 111.593C167.803 111.186 168.376 110.24 168.376 109.477C168.376 108.715 167.803 108.426 167.098 108.833ZM167.098 114.938L150.502 124.59C149.797 124.998 149.224 125.944 149.224 126.706C149.224 127.468 149.797 127.757 150.502 127.35L167.098 117.697C167.803 117.29 168.376 116.344 168.376 115.582C168.376 114.819 167.803 114.53 167.098 114.938Z" fill="#BA68C8"/>
<path opacity="0.3" d="M150.502 115.141L167.098 105.489C167.803 105.082 168.376 104.135 168.376 103.373C168.376 102.611 167.803 102.322 167.098 102.729L150.502 112.382C149.797 112.789 149.224 113.735 149.224 114.497C149.224 115.26 149.797 115.549 150.502 115.141Z" fill="#189FFF"/>
<path opacity="0.3" d="M167.098 108.834L150.502 118.486C149.797 118.894 149.224 119.84 149.224 120.602C149.224 121.364 149.797 121.653 150.502 121.246L167.098 111.593C167.803 111.186 168.376 110.24 168.376 109.478C168.376 108.715 167.803 108.426 167.098 108.834Z" fill="#189FFF"/>
<path opacity="0.3" d="M167.098 114.938L150.502 124.591C149.797 124.998 149.224 125.944 149.224 126.706C149.224 127.469 149.797 127.758 150.502 127.35L167.098 117.698C167.803 117.291 168.376 116.344 168.376 115.582C168.376 114.82 167.803 114.531 167.098 114.938Z" fill="#189FFF"/>
<path d="M248.204 236.491C248.257 239.343 248.481 243.496 248.204 244.678C247.928 245.861 243.16 247.011 239.439 247.188C235.711 247.366 231.232 246.788 230.962 249.396C230.692 252.031 233.024 253.779 234.736 254.574C237.641 255.914 240.881 255.625 243.733 255.205C246.584 254.784 248.106 255.093 251.115 255.822C254.125 256.558 255.824 256.105 257.115 255.461C259.025 254.508 258.518 251.256 257.84 249.14C257.161 247.024 257.24 245.086 257.497 242.149C257.748 239.211 258.584 234.927 258.584 234.927L248.211 236.498L248.204 236.491Z" fill="#FFBDA7"/>
<path d="M257.84 249.134C257.84 249.134 257.84 250.034 255.89 250.441C253.934 250.849 250.694 250.743 248.428 250.888C245.023 251.105 242.442 251.499 238.536 250.888C235.112 250.356 235.256 247.649 238.326 247.215C234.874 247.274 231.213 247.037 230.969 249.383C230.699 252.018 233.03 253.766 234.743 254.561C237.647 255.901 240.887 255.612 243.739 255.192C246.591 254.771 248.112 255.08 251.122 255.809C254.132 256.545 255.831 256.092 257.122 255.448C259.032 254.495 258.525 251.243 257.846 249.127L257.84 249.134Z" fill="#455A64"/>
<path d="M283.597 229.415C285.191 231.734 287.832 236.104 288.201 237.194C288.563 238.285 288.899 242.352 288.201 243.561C287.2 244.291 285.632 244.705 284.295 245.368C282.366 246.321 281.944 247.905 283.209 249.114C284.974 250.803 287.819 251 289.538 250.901C292.034 250.52 292.205 247.727 292.567 245.257C292.93 242.786 292.521 237.917 294.398 234.934C296.275 231.944 299.608 231.668 300.042 232.661C299.838 231.156 299.008 231.11 297.204 230.098C295.399 229.079 293.832 229.112 292.837 226.753C291.659 223.961 290.585 220.629 290.585 220.629L283.604 229.428L283.597 229.415Z" fill="#FFBDA7"/>
<path d="M287.114 250.94C288.912 251.243 290.17 251.243 293.358 249.679C296.111 248.332 296.809 247.767 297.224 247.018C297.889 245.835 297.171 242.924 297.751 240.407C298.33 237.891 298.943 236.8 299.568 235.276C300.194 233.751 300.148 233.088 300.049 232.647C299.838 231.695 297.889 231.576 296.038 232.647C294.188 233.718 292.989 235.762 292.376 240.631C291.764 245.5 292.706 250.822 287.114 250.94Z" fill="#263238"/>
<path d="M300.043 232.647C299.838 231.143 299.318 230.919 297.514 229.907C296.842 229.533 296.183 229.257 295.571 228.948C293.825 228.619 291.079 229.993 290.941 233.646C290.802 237.299 291.428 241.932 290.328 243.647C289.386 245.112 287.845 245.007 288.201 243.561C285.731 244.468 284.882 244.481 283.485 245.244C281.872 246.124 281.332 248.424 282.82 249.337C284.895 250.618 287.042 251.276 289.538 250.894C292.034 250.513 292.205 247.721 292.567 245.25C292.93 242.779 292.521 237.911 294.398 234.927C296.275 231.938 299.608 231.662 300.043 232.654V232.647Z" fill="#455A64"/>
<path d="M284.072 230.866C284.072 230.866 274.989 217.561 270.142 208.94C266.553 202.566 266.23 201.331 265.348 197.165C263.457 188.202 263.016 186.106 263.016 186.106L260.197 204.202C260.645 206.167 261.561 210.057 261.594 212.343C261.64 215.386 261.363 219.663 260.5 225.682C259.137 235.256 257.741 240.466 257.741 240.466C257.036 240.959 254.988 241.051 253.21 240.992C250.747 240.913 248.119 240.039 248.119 240.039C248.119 240.039 246.637 218.717 246.294 212.849C245.88 205.805 245.735 203.046 245.517 199.175C245.168 193.019 244.325 184.109 244.569 172.794C245.043 150.295 250.068 140.025 250.068 140.025L275.523 136.497C277.637 144.073 282.03 144.96 282.491 155.302C282.596 157.655 281.352 162.313 281.312 165.96C281.174 177.781 280.12 196.35 280.12 196.35C282.912 198.919 284.961 201.245 286.89 207.205C288.063 210.826 290.664 219.998 291.757 223.717C288.55 223.717 284.045 229.408 284.078 230.86L284.072 230.866Z" fill="#455A64"/>
<path d="M258.333 152.996L259.005 152.891C259.598 156.965 260.573 161.591 261.113 161.959C262.048 162.59 265.512 163.109 266.289 162.918C267.093 162.721 267.758 162.09 269.134 160.218C270.103 158.903 270.004 158.082 269.773 156.288C269.688 155.618 269.589 154.849 269.53 153.896L270.208 153.85C270.267 154.784 270.366 155.539 270.445 156.203C270.676 158.01 270.814 159.101 269.674 160.638C268.179 162.662 267.422 163.358 266.441 163.595C266.329 163.621 266.177 163.641 266.006 163.648C264.636 163.707 261.653 163.168 260.731 162.537C259.69 161.827 258.63 155.053 258.327 152.99L258.333 152.996Z" fill="#37474F"/>
<path d="M247.915 152.398L248.573 152.589C246.644 159.501 247.065 165.822 250.516 167.747C251.148 163.082 252.031 158.259 253.249 153.101L253.914 153.265C249.989 169.883 249.515 182.965 250.022 198.696C250.411 210.674 251.168 231.274 251.524 240.828C251.287 240.795 251.063 240.756 250.839 240.716C250.483 231.096 249.726 210.642 249.344 198.722C249.001 188.071 249.113 178.629 250.424 168.49C246.472 166.486 245.853 159.816 247.921 152.405L247.915 152.398Z" fill="#37474F"/>
<path d="M282.188 158.601C281.819 158.962 280.996 159.455 280.693 159.475H280.673C279.6 159.527 277.821 157.996 277.314 156.847C277.071 156.288 276.985 155.611 276.886 154.757C276.781 153.87 276.656 152.858 276.32 151.669L276.972 151.472C277.327 152.72 277.459 153.804 277.565 154.672C277.663 155.467 277.736 156.098 277.94 156.564C278.368 157.537 279.929 158.811 280.64 158.785H280.653C280.838 158.772 281.839 158.062 282.353 157.445C282.306 157.786 282.241 158.259 282.195 158.608L282.188 158.601Z" fill="#37474F"/>
<path d="M286.205 227.286C286.363 227.108 286.521 226.924 286.693 226.747C282.346 219.184 273.014 202.645 272.177 198.63C271.11 193.492 269.273 176.257 269.2 166.985H268.515C268.588 176.296 270.438 193.61 271.505 198.775C272.381 202.974 281.878 219.782 286.199 227.286H286.205Z" fill="#37474F"/>
<path d="M272.889 150.295C274.614 153.035 275.668 157.845 273.435 163.122L272.81 162.846C274.93 157.819 273.949 153.265 272.316 150.677L272.889 150.302V150.295Z" fill="#37474F"/>
<path d="M263.016 186.099L265.782 167.129C265.782 167.129 272.941 166.131 273.929 159.435C274.1 163.41 272.513 166.827 268.068 168.66L264.518 186.172L265.354 197.165L263.023 186.106L263.016 186.099Z" fill="#37474F"/>
<path d="M277.67 105.85C282.307 106.947 284.809 108.229 286.719 114.51C288.524 120.457 291.547 130.497 292.337 134.755C292.726 136.831 292.897 138.809 290.012 140.025C283.479 142.785 277.176 144.716 277.176 144.716L274.621 137.022L281.609 133.539L279.863 127.928L277.664 105.85H277.67Z" fill="#FFBDA7"/>
<path d="M281.609 133.54C282.109 134.63 283.097 135.997 284.487 136.68C282.787 136.884 281.121 135.11 280.693 134L281.609 133.54Z" fill="#F0997A"/>
<path d="M277.999 105.804C280.067 106.179 282.899 106.606 284.967 109.734C287.035 112.861 290.401 123.795 290.401 123.795C290.401 123.795 288.761 125.832 284.493 126.975C280.225 128.125 278.408 127.146 278.408 127.146L275.174 116.666L277.999 105.804Z" fill="#BA68C8"/>
<path d="M277.999 105.804C280.067 106.179 282.899 106.606 284.967 109.734C287.035 112.861 290.401 123.795 290.401 123.795C290.401 123.795 288.761 125.832 284.493 126.975C280.225 128.125 278.408 127.146 278.408 127.146L275.174 116.666L277.999 105.804Z" fill="#2626A5"/>
<path d="M255.172 82.846C254.362 81.7684 254.481 80.1519 255.06 78.9363C255.64 77.7207 256.76 76.4723 259.862 75.1384C263.55 73.5548 273.613 72.5035 277.472 79.2255C278.045 80.2308 267.528 97.9917 267.738 101.77C265.433 98.9773 257.853 89.1868 257.853 89.1868C255.963 88.2209 254.83 87.4324 254.547 85.5663C254.468 85.034 254.586 83.7002 255.179 82.846H255.172Z" fill="#263238"/>
<path d="M256.272 88.0566C256.272 88.0566 253.335 92.1634 253.598 92.5379C253.862 92.9059 255.456 93.9638 255.456 93.9638L256.272 88.0566Z" fill="#F0997A"/>
<path d="M260.105 80.4607C258.281 81.1703 256.648 82.4122 255.824 86.243C255.607 87.2418 256.299 88.6873 255.844 90.0015C253.895 95.6524 255.377 100.587 256.43 101.73C257.135 102.499 261.08 103.097 263.207 102.67C265.861 102.131 271.703 99.9825 274.687 96.1123C278.197 91.5588 279.402 85.1917 276.05 82.3597C271.334 78.3777 262.061 79.705 260.112 80.4607H260.105Z" fill="#FFBDA7"/>
<path d="M272.75 99.2466L273.08 104.989C276.274 106.856 269.662 109.287 262.654 106.29L262.147 101.113L272.75 99.2466Z" fill="#FFBDA7"/>
<path d="M262.377 103.472C262.509 104.799 262.634 106.783 260.573 107.335C258.63 107.848 255.495 108.176 252.439 109.313C252.439 109.313 263.458 111.048 269.233 110.095C275.009 109.142 276.017 105.436 276.017 105.436C273.936 105.16 273.066 104.812 272.987 103.472H262.377Z" fill="#FFBDA7"/>
<path d="M256.628 101.888C257.517 102.466 259.519 102.986 262.312 102.795L262.186 101.356C262.186 101.356 261.047 101.75 259.499 101.954C257.958 102.151 256.648 101.888 256.628 101.882V101.888Z" fill="#F0997A"/>
<path d="M257.346 82.3399C257.069 84.8434 258.591 85.7436 259.677 86.3218C259.223 87.0183 258.9 88.431 259.005 89.2458C259.17 90.5337 259.578 91.6113 260.803 92.1238C261.554 92.4327 261.804 92.1173 262.121 91.5325C262.568 90.698 263.155 89.4167 264.985 89.8043C267.086 90.2446 267.416 93.4708 266.033 95.4684C265.42 96.3489 264.478 96.914 263.53 96.9008C262.68 96.8877 262.134 96.1189 262.134 96.1189C262.134 96.1189 262.074 98.9115 265.539 100.81C265.539 100.81 269.01 103.097 272.796 102.269C274.298 100.718 276.056 99.1283 277.927 96.8088C282.241 91.4536 283.143 81.2689 276.61 78.9494C276.3 78.8377 270.939 77.4841 267.949 77.9112C258.782 79.2253 257.392 81.9128 257.346 82.3465V82.3399Z" fill="#263238"/>
<path d="M277.472 79.2256C278.5 79.2256 281.615 80.8091 281.608 87.7151C281.608 92.3738 280.476 98.616 278.961 101.533C274.957 105.936 263.365 106.777 258.235 104.937C261.554 103.419 262.154 99.2994 262.134 96.1126C263.655 98.4058 266.428 98.9446 269.78 97.269C273.132 95.5935 277.472 79.2322 277.472 79.2322V79.2256Z" fill="#263238"/>
<path d="M282.162 111.56C281.2 106.902 278.671 105.89 277.538 105.686C275.74 105.364 274.621 105.18 274.621 105.18C274.654 105.732 275.022 107.053 269.852 107.697C266.527 108.111 260.797 107.263 260.797 107.263C260.797 107.263 257.846 107.697 254.27 108.722C250.918 109.681 249.146 113.584 246.96 118.736C245.228 122.81 245.88 126.962 248.962 129.992C249.199 132.548 248.777 137.62 248.777 137.62C246.551 146.412 246.459 152.687 246.459 152.687C246.459 152.687 248.435 154.527 264.129 154.179C276.28 153.909 281.892 148.488 281.892 148.488C281.543 146.675 280.271 142.798 277.973 136.759C278.282 130.859 284.23 121.647 282.155 111.56H282.162Z" fill="#189FFF"/>
<path d="M227.479 123.795C227.479 123.795 210.197 120.365 209.216 119.656C208.379 119.051 208.109 118.059 207.688 117.178C207.207 116.167 206.522 115.253 205.778 114.419C205.284 113.867 204.691 113.394 204.237 112.822C203.809 112.29 203.637 111.62 203.222 111.087C202.781 110.502 202.254 110.936 201.991 111.455C201.642 112.145 201.773 113.111 202.044 113.801C202.175 114.13 202.287 114.465 202.419 114.793C202.537 115.089 202.722 115.391 202.775 115.713C202.801 115.871 202.821 116.075 202.742 116.206C202.557 116.515 201.971 116.305 201.714 116.206C200.008 115.529 198.355 114.432 197.065 113.124C196.498 112.553 196.05 111.909 195.444 111.376C194.911 110.903 194.246 110.424 193.581 110.141C193.238 109.997 192.5 109.74 192.118 109.878C191.368 110.154 192.204 111.344 192.395 111.744C192.632 112.244 192.77 112.618 192.744 113.183C192.711 113.919 192.85 114.228 193.258 114.839C193.6 115.352 194.127 115.891 194.206 116.515C194.233 116.732 194.206 116.968 194.206 117.178C194.206 117.79 194.615 118.565 195.003 119.018C195.497 119.603 195.616 119.991 195.695 120.746C195.846 122.205 197.374 123.276 198.513 123.973C199.824 124.774 201.26 125.346 202.722 125.826C203.506 126.082 204.27 126.397 205.06 126.634C205.771 126.844 206.496 126.982 207.187 127.245C208.827 127.869 221.551 132.705 226.622 134.105C229.125 134.795 229.797 135.412 233.32 133.579C239.663 130.281 245.873 128.02 249.522 125.786C254.52 122.731 256.641 121.022 257.326 117.77C258.907 110.233 253.921 108.833 253.921 108.833C252.103 109.3 251.155 109.727 245.603 112.927C239.676 116.351 227.485 123.789 227.485 123.789L227.479 123.795Z" fill="#FFBDA7"/>
<path d="M253.908 108.84C250.846 109.195 249.258 110.029 245.853 112.165C242.448 114.3 236.673 118.039 236.673 118.039C236.673 118.039 236.969 122.941 240.716 127.212C243.436 130.313 245.656 130.057 245.656 130.057C245.656 130.057 254.784 123.361 256.635 120.779C258.485 118.197 259.842 110.456 253.908 108.84Z" fill="#2626A5"/>
<path d="M269.24 62.4435L267.521 59.2173L268.904 55.2288V52.791L264.669 55.2288V57.6666L266.494 60.814C266.527 60.8665 266.566 60.8994 266.619 60.9257L269.247 62.4435H269.24Z" fill="#BA68C8"/>
<path opacity="0.2" d="M269.24 62.4435L267.521 59.2173L268.904 55.2288V52.791L264.669 55.2288V57.6666L266.494 60.814C266.527 60.8665 266.566 60.8994 266.619 60.9257L269.247 62.4435H269.24Z" fill="black"/>
<path d="M279.356 33.3876C279.356 32.5794 278.79 31.5938 278.085 31.193L277.051 30.595C276.353 30.1942 275.213 30.1942 274.509 30.595L258.643 39.7482C257.938 40.1556 257.372 41.1346 257.372 41.9428V59.3555C257.372 60.1637 257.938 61.1493 258.643 61.5501L259.677 62.1481C260.382 62.5554 261.515 62.5554 262.219 62.1481L267.323 59.2043L269.141 62.3452C269.26 62.5489 269.556 62.516 269.635 62.2992L271.558 56.7666L278.091 52.9949C278.796 52.5941 279.363 51.6085 279.363 50.8003V33.3876H279.356Z" fill="#189FFF"/>
<path d="M275.306 45.3072V43.3294C275.306 42.968 275.055 42.8235 274.746 43.0074L271.347 44.9655V41.0493C271.347 40.688 271.097 40.5434 270.788 40.7274L269.069 41.713C268.759 41.8904 268.509 42.3307 268.509 42.6855V46.6017L265.111 48.5598C264.801 48.7372 264.551 49.1774 264.551 49.5323V51.5101C264.551 51.8715 264.801 52.016 265.111 51.832L268.509 49.8739V53.7901C268.509 54.1515 268.759 54.2961 269.069 54.1121L270.788 53.1265C271.097 52.9491 271.347 52.5088 271.347 52.154V48.2378L274.746 46.2797C275.055 46.1023 275.306 45.6621 275.306 45.3072Z" fill="#FAFAFA"/>
<path opacity="0.2" d="M257.379 59.3557C257.379 60.1639 257.945 61.1495 258.65 61.5503L259.684 62.1483C260.316 62.5162 261.304 62.5425 262.009 62.2534C261.409 62.4768 260.955 62.1417 260.955 61.4189V44.0063C260.955 43.6055 261.1 43.1521 261.324 42.7578L257.747 40.7012C257.517 41.0954 257.379 41.5488 257.379 41.9496V59.3623V59.3557Z" fill="black"/>
<path opacity="0.3" d="M279.317 33.0262C279.165 32.4874 278.678 32.3166 278.092 32.6517L262.226 41.8048C261.877 42.0085 261.554 42.3502 261.33 42.751L257.754 40.6944C257.985 40.2936 258.301 39.9519 258.65 39.7482L274.509 30.595C275.214 30.1942 276.353 30.1942 277.051 30.595L278.085 31.193C278.684 31.5347 279.185 32.3035 279.31 33.0262H279.317Z" fill="white"/>
</g>
<defs>
<clipPath id="clip0_754_18214">
<rect width="309" height="292" fill="white" transform="translate(0.5 0.592773)"/>
</clipPath>
</defs>
</svg>
