<svg width="276" height="214" viewBox="0 0 276 214" fill="none" xmlns="http://www.w3.org/2000/svg">
<g clip-path="url(#clip0_718_21137)">
<path d="M245.044 151.759H145.27C143.487 151.759 142.035 150.309 142.035 148.527V3.32489C142.035 1.5435 143.487 0.0930176 145.27 0.0930176H245.044C246.827 0.0930176 248.279 1.5435 248.279 3.32489V148.527C248.279 150.309 246.827 151.759 245.044 151.759ZM145.27 0.230896C143.564 0.230896 142.173 1.62071 142.173 3.32489V148.527C142.173 150.232 143.564 151.621 145.27 151.621H245.044C246.75 151.621 248.141 150.232 248.141 148.527V3.32489C248.141 1.62071 246.75 0.230896 245.044 0.230896H145.27Z" fill="#F0F0F0"/>
<path d="M129.991 151.759H30.222C28.4391 151.759 26.9873 150.309 26.9873 148.527V3.32489C26.9873 1.5435 28.4391 0.0930176 30.222 0.0930176H129.991C131.773 0.0930176 133.225 1.5435 133.225 3.32489V148.527C133.225 150.309 131.773 151.759 129.991 151.759ZM30.222 0.230896C28.5163 0.230896 27.1253 1.62071 27.1253 3.32489V148.527C27.1253 150.232 28.5163 151.621 30.222 151.621H129.991C131.696 151.621 133.087 150.232 133.087 148.527V3.32489C133.087 1.62071 131.696 0.230896 129.991 0.230896H30.222Z" fill="#F0F0F0"/>
<path d="M276 185.44H0V185.578H276V185.44Z" fill="#E0E0E0"/>
<path d="M99.5974 14.1069L117.024 14.1069C117.481 14.1069 117.852 13.7366 117.852 13.2797V9.34737C117.852 8.89048 117.481 8.5201 117.024 8.5201L99.5974 8.5201C99.1401 8.5201 98.7694 8.89048 98.7694 9.34737V13.2797C98.7694 13.7366 99.1401 14.1069 99.5974 14.1069Z" fill="#F0F0F0"/>
<path d="M89.1921 21.2271L106.619 21.2271C107.076 21.2271 107.447 20.8567 107.447 20.3998V16.4675C107.447 16.0106 107.076 15.6402 106.619 15.6402L89.1921 15.6402C88.7348 15.6402 88.3641 16.0106 88.3641 16.4675V20.3998C88.3641 20.8567 88.7348 21.2271 89.1921 21.2271Z" fill="#F0F0F0"/>
<path d="M53.0916 92.295H35.6649C35.2076 92.295 34.8369 92.6654 34.8369 93.1223V97.0546C34.8369 97.5115 35.2076 97.8819 35.6649 97.8819H53.0916C53.5488 97.8819 53.9196 97.5115 53.9196 97.0546V93.1223C53.9196 92.6654 53.5488 92.295 53.0916 92.295Z" fill="#F0F0F0"/>
<path d="M63.5022 99.415H46.0756C45.6183 99.415 45.2476 99.7854 45.2476 100.242V104.175C45.2476 104.631 45.6183 105.002 46.0756 105.002H63.5022C63.9595 105.002 64.3302 104.631 64.3302 104.175V100.242C64.3302 99.7854 63.9595 99.415 63.5022 99.415Z" fill="#F0F0F0"/>
<path d="M221.043 97.926H203.616C203.159 97.926 202.788 98.2964 202.788 98.7533V102.686C202.788 103.142 203.159 103.513 203.616 103.513H221.043C221.5 103.513 221.871 103.142 221.871 102.686V98.7533C221.871 98.2964 221.5 97.926 221.043 97.926Z" fill="#F0F0F0"/>
<path d="M241.859 97.926H224.432C223.975 97.926 223.604 98.2964 223.604 98.7533V102.686C223.604 103.142 223.975 103.513 224.432 103.513H241.859C242.316 103.513 242.687 103.142 242.687 102.686V98.7533C242.687 98.2964 242.316 97.926 241.859 97.926Z" fill="#F0F0F0"/>
<path d="M231.453 105.046H214.027C213.569 105.046 213.199 105.416 213.199 105.873V109.806C213.199 110.262 213.569 110.633 214.027 110.633H231.453C231.911 110.633 232.281 110.262 232.281 109.806V105.873C232.281 105.416 231.911 105.046 231.453 105.046Z" fill="#F0F0F0"/>
<path d="M252.17 138.026H232.259V185.435H252.17V138.026Z" fill="#E6E6E6"/>
<path d="M236.929 138.026H189.479V185.435H236.929V138.026Z" fill="#F5F5F5"/>
<path d="M216.792 138.026H210.93V185.297H216.792V138.026Z" fill="#FAFAFA"/>
<path d="M88.6787 138.026H68.7681V185.435H88.6787V138.026Z" fill="#E6E6E6"/>
<path d="M73.4382 138.026H25.9883V185.435H73.4382V138.026Z" fill="#F5F5F5"/>
<path d="M53.3012 138.026H47.439V185.297H53.3012V138.026Z" fill="#FAFAFA"/>
<path d="M189.479 163.247H169.569V185.44H189.479V163.247Z" fill="#E6E6E6"/>
<path d="M174.239 163.247H126.789V185.44H174.239V163.247Z" fill="#F5F5F5"/>
<path d="M154.102 163.247H148.24V185.374H154.102V163.247Z" fill="#FAFAFA"/>
<path d="M97.98 115.834H78.0693V138.027H97.98V115.834Z" fill="#E6E6E6"/>
<path d="M82.7395 115.834H35.2896V138.027H82.7395V115.834Z" fill="#F5F5F5"/>
<path d="M62.6025 115.834H56.7402V137.96H62.6025V115.834Z" fill="#FAFAFA"/>
<path d="M196.048 10.7207H152.429V54.3013H196.048V10.7207Z" fill="#E6E6E6"/>
<path d="M193.84 52.0952V12.9268L154.637 12.9268V52.0952H193.84Z" fill="#FAFAFA"/>
<path d="M171.611 43.1993C171.611 43.1993 178.809 28.4518 193.84 28.1595V52.0952H174.239L171.611 43.1993Z" fill="#F0F0F0"/>
<path d="M154.637 39.0575C154.637 39.0575 161.112 35.6656 167.692 38.1585C175.955 41.2856 180.747 52.0952 180.747 52.0952H154.643V39.0575H154.637Z" fill="#F5F5F5"/>
<path d="M168.084 32.2518C171.904 32.2518 175.001 29.1579 175.001 25.3414C175.001 21.5248 171.904 18.4309 168.084 18.4309C164.264 18.4309 161.167 21.5248 161.167 25.3414C161.167 29.1579 164.264 32.2518 168.084 32.2518Z" fill="white"/>
<path d="M71.9313 10.7207H33.6611V84.7393H71.9313V10.7207Z" fill="#E6E6E6"/>
<path d="M69.7231 82.5333V12.9268L35.869 12.9268L35.869 82.5333H69.7231Z" fill="#FAFAFA"/>
<path d="M47.5879 41.4069C51.4079 41.4069 54.5045 38.3129 54.5045 34.4964C54.5045 30.6799 51.4079 27.5859 47.5879 27.5859C43.768 27.5859 40.6714 30.6799 40.6714 34.4964C40.6714 38.3129 43.768 41.4069 47.5879 41.4069Z" fill="white"/>
<path d="M42.1948 82.5333C42.1948 82.5333 50.7619 41.3739 69.7175 37.6787V82.5333H42.1948Z" fill="#F0F0F0"/>
<path d="M35.8691 58.1068C35.8691 58.1068 40.2299 53.9043 47.141 56.4192C60.124 61.1401 67.3718 82.5388 67.3718 82.5388H35.8691V58.1123V58.1068Z" fill="#F5F5F5"/>
<path d="M224.154 43.0532C230.489 42.2703 234.99 36.5043 234.206 30.1744C233.423 23.8444 227.652 19.3476 221.316 20.1304C214.981 20.9132 210.48 26.6793 211.263 33.0092C212.047 39.3392 217.818 43.836 224.154 43.0532Z" fill="#E0E0E0"/>
<path d="M233.097 33.9963C234.437 28.2753 230.881 22.5522 225.155 21.2135C219.429 19.8748 213.701 23.4274 212.361 29.1484C211.021 34.8695 214.577 40.5926 220.303 41.9313C226.029 43.27 231.757 39.7174 233.097 33.9963Z" fill="#FAFAFA"/>
<path d="M222.765 21.9054H222.368V24.1225H222.765V21.9054Z" fill="#E0E0E0"/>
<path d="M222.765 38.9692H222.368V41.1863H222.765V38.9692Z" fill="#E0E0E0"/>
<path d="M215.137 31.3473H212.917V31.7444H215.137V31.3473Z" fill="#E0E0E0"/>
<path d="M232.216 31.3473H229.997V31.7444H232.216V31.3473Z" fill="#E0E0E0"/>
<path d="M229.259 24.6025L227.69 26.1699L227.971 26.4508L229.54 24.8833L229.259 24.6025Z" fill="#E0E0E0"/>
<path d="M217.178 36.6653L215.609 38.2335L215.891 38.5142L217.459 36.9459L217.178 36.6653Z" fill="#E0E0E0"/>
<path d="M215.887 24.5918L215.606 24.8727L217.176 26.4401L217.457 26.1593L215.887 24.5918Z" fill="#E0E0E0"/>
<path d="M227.976 36.6717L227.695 36.9524L229.264 38.5204L229.545 38.2396L227.976 36.6717Z" fill="#E0E0E0"/>
<path d="M222.491 31.278L222.365 31.5962L226.13 33.0771L226.255 32.759L222.491 31.278Z" fill="#E0E0E0"/>
<path d="M222.738 31.7167H216.528V31.3748H222.396V26.5601H222.738V31.7167Z" fill="#E0E0E0"/>
<path d="M258.165 209.596C258.165 211.527 204.847 213.088 139.076 213.088C73.3055 213.088 19.9878 211.521 19.9878 209.596C19.9878 207.672 73.3055 206.105 139.076 206.105C204.847 206.105 258.165 207.672 258.165 209.596Z" fill="#F5F5F5"/>
<path d="M212.266 72.6942L222.738 82.081H177.302L168.426 72.6942H212.266Z" fill="#407BFF"/>
<path opacity="0.5" d="M212.266 72.6942L222.738 82.081H177.302L168.426 72.6942H212.266Z" fill="black"/>
<path d="M212.288 72.6942H168.426V116.517H212.288V72.6942Z" fill="#407BFF"/>
<path opacity="0.2" d="M212.288 72.6942H168.426V116.517H212.288V72.6942Z" fill="black"/>
<path d="M198.201 72.6942H154.339V116.517H198.201V72.6942Z" fill="#407BFF"/>
<path d="M154.356 72.6942L143.884 82.081H189.319L198.196 72.6942H154.356Z" fill="#407BFF"/>
<path opacity="0.3" d="M154.356 72.6942L143.884 82.081H189.319L198.196 72.6942H154.356Z" fill="white"/>
<path d="M176.982 87.7947C181.073 87.7947 183.849 90.2048 183.849 94.1647C183.849 98.461 180.797 100.353 176.712 100.353L176.59 102.763H173.571L173.416 97.9756H174.421C177.871 97.9756 180.526 97.369 180.526 94.1647C180.526 92.0303 179.212 90.7177 177.015 90.7177C174.818 90.7177 173.477 91.9366 173.477 94.0709H170.215C170.182 90.3813 172.837 87.7892 176.988 87.7892L176.982 87.7947ZM175.028 109.502C173.775 109.502 172.798 108.526 172.798 107.28C172.798 106.033 173.775 105.052 175.028 105.052C176.281 105.052 177.225 106.028 177.225 107.28C177.225 108.532 176.248 109.502 175.028 109.502Z" fill="white"/>
<path d="M200.094 116.517H148.394V121.056H200.094V116.517Z" fill="#407BFF"/>
<path opacity="0.3" d="M200.094 116.517H148.394V121.056H200.094V116.517Z" fill="black"/>
<path d="M219.304 116.517H200.1V121.056H219.304V116.517Z" fill="#407BFF"/>
<path opacity="0.5" d="M219.304 116.517H200.1V121.056H219.304V116.517Z" fill="black"/>
<path d="M182.612 121.056H179.499V206.48H182.612V121.056Z" fill="#263238"/>
<path opacity="0.2" d="M182.612 121.056H179.499V206.48H182.612V121.056Z" fill="white"/>
<path opacity="0.2" d="M182.618 123.185L179.499 124.47V121.056H182.618V123.185Z" fill="black"/>
<path d="M170.314 204.743H191.803C194.282 204.743 196.291 206.751 196.291 209.227V209.243H165.826V209.227C165.826 206.751 167.835 204.743 170.314 204.743Z" fill="#407BFF"/>
<path d="M47.5601 164.94C47.5601 164.94 51.3302 163.567 52.3017 167.555C53.2788 171.542 56.0664 170.511 56.5963 169.639C57.6396 167.919 57.7831 161.692 55.9946 161.317C53.8529 160.87 48.3108 163.126 47.5601 164.946V164.94Z" fill="#407BFF"/>
<g opacity="0.4">
<path d="M47.5601 164.94C47.5601 164.94 51.3302 163.567 52.3017 167.555C53.2788 171.542 56.0664 170.511 56.5963 169.639C57.6396 167.919 57.7831 161.692 55.9946 161.317C53.8529 160.87 48.3108 163.126 47.5601 164.946V164.94Z" fill="black"/>
</g>
<path d="M55.9948 161.311C51.5732 161.378 50.4085 165.255 49.6964 168.669L48.2612 165.988L49.2824 170.742C49.172 171.261 49.0616 171.74 48.9292 172.16C47.8638 175.529 44.5849 176.555 44.5849 176.555C44.5849 176.555 44.3862 175.187 44.2151 173.268L45.8214 170.737L44.0716 171.47C43.8784 168.459 43.8508 164.836 44.5849 162.773C46.0036 158.785 49.8124 160.015 49.8124 160.015L56.0003 161.311H55.9948Z" fill="#407BFF"/>
<path d="M67.0017 157.125C67.0017 157.125 64.6833 156.431 62.26 159.74C59.9195 162.927 58.9866 163.302 57.4024 162.062C55.8182 160.821 56.7731 153.872 58.5671 153.497C60.7089 153.05 66.251 155.305 67.0017 157.125Z" fill="#407BFF"/>
<g opacity="0.4">
<path d="M67.0017 157.125C67.0017 157.125 64.6833 156.431 62.26 159.74C59.9195 162.927 58.9866 163.302 57.4024 162.062C55.8182 160.821 56.7731 153.872 58.5671 153.497C60.7089 153.05 66.251 155.305 67.0017 157.125Z" fill="black"/>
</g>
<path d="M74.4481 175.232C74.4481 175.232 71.5667 174.333 69.5905 171.619L72.1463 165.63L68.6411 169.992C68.492 169.667 68.3595 169.325 68.2436 168.961C66.7256 164.157 67.0347 153.723 58.3076 153.601L66.9906 151.621C66.9906 151.621 72.4223 149.868 74.4481 155.559C74.9615 157.004 75.2154 158.99 75.3092 161.146L72.1463 158.223C72.1463 158.223 74.3377 161.4 75.3479 162.729C75.3975 168.685 74.4481 175.232 74.4481 175.232Z" fill="#407BFF"/>
<path d="M44.916 147.887C44.916 147.887 48.6862 146.514 49.6577 150.502C50.6347 154.489 55.542 156.011 56.0443 154.064C56.5798 151.985 55.393 144.584 53.6045 144.203C51.4627 143.757 45.6723 146.073 44.916 147.887Z" fill="#407BFF"/>
<g opacity="0.4">
<path d="M44.916 147.887C44.916 147.887 48.6862 146.514 49.6577 150.502C50.6347 154.489 55.542 156.011 56.0443 154.064C56.5798 151.985 55.393 144.584 53.6045 144.203C51.4627 143.757 45.6723 146.073 44.916 147.887Z" fill="black"/>
</g>
<path d="M53.7592 144.231C46.6219 144.336 45.424 151.406 44.3973 156.607L40.7596 151.368C40.8038 151.516 42.7358 157.776 43.481 160.252C41.7974 164.631 37.4697 165.988 37.4697 165.988C37.4697 165.988 36.2553 157.616 36.6472 151.191C37.7126 150.314 39.5894 148.737 39.5894 148.737L36.8018 149.426C36.9453 148.246 37.1606 147.187 37.4697 146.316C39.4956 140.63 44.9272 142.378 44.9272 142.378L53.7592 144.231Z" fill="#407BFF"/>
<path d="M56.6022 179.059C56.6022 179.059 56.5857 179.059 56.5746 179.059C56.4366 179.043 56.3373 178.921 56.3538 178.783C58.8268 156.806 52.6334 138.275 52.5726 138.093C52.5285 137.96 52.6002 137.822 52.7272 137.778C52.8597 137.734 52.9977 137.806 53.0418 137.933C53.1026 138.12 59.3346 156.756 56.8506 178.839C56.8341 178.965 56.7292 179.059 56.6022 179.059Z" fill="#407BFF"/>
<path d="M66.2014 177.46H47.0967V180.135H66.2014V177.46Z" fill="#263238"/>
<path opacity="0.2" d="M66.2014 177.46H47.0967V180.135H66.2014V177.46Z" fill="white"/>
<path d="M63.1155 180.135H50.0773C48.5096 183.769 43.4478 194.474 43.4478 197.64C43.4478 201.384 48.1177 209.183 48.1177 209.183C48.1177 209.74 65.0696 209.74 65.0696 209.183C65.0696 209.183 69.7395 201.384 69.7395 197.64C69.7395 194.474 64.6777 183.769 63.11 180.135H63.1155Z" fill="#263238"/>
<path d="M83.5508 31.0605C89.9681 31.0605 95.1704 25.8628 95.1704 19.4512C95.1704 13.0395 89.9681 7.8418 83.5508 7.8418C77.1334 7.8418 71.9312 13.0395 71.9312 19.4512C71.9312 25.8628 77.1334 31.0605 83.5508 31.0605Z" fill="#407BFF"/>
<g opacity="0.7">
<path d="M83.5508 31.0605C89.9681 31.0605 95.1704 25.8628 95.1704 19.4512C95.1704 13.0395 89.9681 7.8418 83.5508 7.8418C77.1334 7.8418 71.9312 13.0395 71.9312 19.4512C71.9312 25.8628 77.1334 31.0605 83.5508 31.0605Z" fill="white"/>
</g>
<path d="M83.5508 31.2976C77.0151 31.2976 71.6938 25.981 71.6938 19.4511C71.6938 12.9212 77.0151 7.60461 83.5508 7.60461C90.0865 7.60461 95.4078 12.9212 95.4078 19.4511C95.4078 25.981 90.0865 31.2976 83.5508 31.2976ZM83.5508 8.08443C77.2746 8.08443 72.1741 13.1859 72.1741 19.4511C72.1741 25.7163 77.2801 30.8178 83.5508 30.8178C89.8215 30.8178 94.9275 25.7163 94.9275 19.4511C94.9275 13.1859 89.8215 8.08443 83.5508 8.08443Z" fill="#407BFF"/>
<path d="M83.6446 12.9984C86.1617 12.9984 87.8674 14.482 87.8674 16.9197C87.8674 19.5669 85.9906 20.7306 83.4735 20.7306L83.3962 22.2142H81.5359L81.4421 19.2691H82.0603C84.18 19.2691 85.8139 18.8941 85.8139 16.9252C85.8139 15.6126 85.008 14.8074 83.6556 14.8074C82.3032 14.8074 81.4752 15.5574 81.4752 16.87H79.4659C79.4494 14.5978 81.0833 13.0039 83.6335 13.0039L83.6446 12.9984ZM82.4412 26.3561C81.6684 26.3561 81.0723 25.7549 81.0723 24.9883C81.0723 24.2217 81.6739 23.6206 82.4412 23.6206C83.2085 23.6206 83.7936 24.2217 83.7936 24.9883C83.7936 25.7549 83.1919 26.3561 82.4412 26.3561Z" fill="#407BFF"/>
<path d="M90.8208 28.5014L94.6075 30.3821C94.8062 30.4814 95.0215 30.2828 94.9442 30.0788L93.2882 25.7825C92.4437 26.9793 91.6212 27.9168 90.8208 28.5014Z" fill="#407BFF"/>
<path d="M93.8293 49.6465C94.3592 52.3158 117.08 51.2569 116.02 47.81C115.843 47.2364 115.49 46.6628 115.192 46.0231C113.712 42.8463 111.261 38.8644 103.329 38.892C98.5544 38.9085 92.2671 41.7929 93.8293 49.652V49.6465Z" fill="#407BFF"/>
<path d="M121.976 199.581L123.135 205.46H126.248L126.662 199.581H121.976Z" fill="#FFC3BD"/>
<path d="M125.834 204.71C125.834 204.71 126.425 203.982 127.17 204.23C127.921 204.478 128.898 205.703 128.898 205.703C128.898 205.703 132.955 207.004 134.048 207.071C135.141 207.137 136.101 207.754 136.515 209.878H123.229C123.229 209.878 122.704 205.091 122.627 204.269C122.544 203.447 123.847 204.473 123.847 204.473L125.834 204.71Z" fill="#407BFF"/>
<path d="M136.123 209.244C135.323 209.238 134.528 209.227 133.728 209.221C130.239 209.188 126.75 209.15 123.256 209.111C123.124 209.111 123.124 208.902 123.256 208.907C123.494 208.907 123.731 208.907 123.963 208.913C123.963 208.907 123.963 208.891 123.968 208.885C124.471 207.776 123.891 206.646 122.886 206.078C122.771 206.017 122.875 205.835 122.986 205.901C124.073 206.514 124.664 207.727 124.167 208.913C124.658 208.918 125.15 208.924 125.641 208.929C129.124 208.962 132.618 209.001 136.107 209.039C136.239 209.039 136.239 209.249 136.107 209.244H136.123Z" fill="black"/>
<path d="M128.429 206.536C128.892 205.885 129.671 205.703 130.328 206.194C130.432 206.271 130.537 206.094 130.432 206.017C129.682 205.455 128.776 205.697 128.252 206.436C128.175 206.547 128.351 206.646 128.429 206.541V206.536Z" fill="white"/>
<path d="M129.577 206.883C130.04 206.232 130.819 206.05 131.476 206.541C131.58 206.618 131.685 206.442 131.58 206.365C130.83 205.802 129.924 206.045 129.4 206.784C129.323 206.894 129.499 206.993 129.577 206.889V206.883Z" fill="white"/>
<path d="M130.758 207.231C131.221 206.58 132 206.398 132.657 206.889C132.762 206.966 132.866 206.789 132.762 206.712C132.011 206.15 131.106 206.392 130.581 207.131C130.504 207.242 130.681 207.341 130.758 207.236V207.231Z" fill="white"/>
<path d="M94.1436 199.62L94.7894 205.46H97.9027L98.83 199.62H94.1436Z" fill="#FFC3BD"/>
<path d="M97.4887 204.71C97.4887 204.71 98.0794 203.982 98.8246 204.23C99.5753 204.478 100.552 205.703 100.552 205.703C100.552 205.703 104.61 207.004 105.702 207.071C106.795 207.137 107.756 207.754 108.17 209.878H94.8833C94.8833 209.878 94.3589 205.091 94.2816 204.269C94.1988 203.447 95.5015 204.473 95.5015 204.473L97.4887 204.71Z" fill="#407BFF"/>
<path d="M107.778 209.244C106.977 209.238 106.182 209.227 105.382 209.221C101.893 209.188 98.4048 209.15 94.9106 209.111C94.7782 209.111 94.7782 208.902 94.9106 208.907C95.148 208.907 95.3854 208.907 95.6172 208.913C95.6172 208.907 95.6172 208.891 95.6227 208.885C96.125 207.776 95.5454 206.646 94.5408 206.078C94.4249 206.017 94.5298 205.835 94.6402 205.901C95.7276 206.514 96.3182 207.727 95.8214 208.913C96.3127 208.918 96.804 208.924 97.2953 208.929C100.778 208.962 104.273 209.001 107.761 209.039C107.894 209.039 107.894 209.249 107.761 209.244H107.778Z" fill="black"/>
<path d="M100.083 206.536C100.547 205.885 101.325 205.703 101.982 206.194C102.087 206.271 102.192 206.094 102.087 206.017C101.336 205.455 100.431 205.697 99.9063 206.436C99.8291 206.547 100.006 206.646 100.083 206.541V206.536Z" fill="white"/>
<path d="M101.231 206.883C101.695 206.232 102.473 206.05 103.13 206.541C103.235 206.618 103.34 206.442 103.235 206.365C102.484 205.802 101.579 206.045 101.055 206.784C100.978 206.894 101.154 206.993 101.231 206.889V206.883Z" fill="white"/>
<path d="M102.413 207.23C102.876 206.58 103.655 206.398 104.311 206.889C104.416 206.966 104.521 206.789 104.416 206.712C103.666 206.15 102.76 206.392 102.236 207.131C102.159 207.241 102.335 207.341 102.413 207.236V207.23Z" fill="white"/>
<path d="M120.938 199.785H127.799C128.396 190.955 130.074 161.692 128.743 147.215C129.698 127.123 126.624 100.452 126.624 100.452H104.88C104.88 100.452 106.476 118.299 113.624 146.923C113.574 169.601 119.116 192.273 120.933 199.785H120.938Z" fill="#263238"/>
<path opacity="0.2" d="M112.459 142.113C116.39 126.07 112.94 105.272 112.94 105.272L109.55 129.031L112.465 142.113H112.459Z" fill="black"/>
<path d="M120.121 199.614L120.623 202.223L128.495 202.184L128.5 199.581L120.121 199.614Z" fill="#263238"/>
<path d="M93.1667 200.039H100.028C102.473 190.955 107.386 161.747 108.17 147.264C112.056 127.173 113.916 100.452 113.916 100.452H92.1731C92.1731 100.452 90.1528 118.503 93.1226 147.127C92.543 172.083 93.0011 192.273 93.1612 200.039H93.1667Z" fill="#263238"/>
<path d="M92.5652 199.609L92.5542 202.19H100.486L100.9 199.609H92.5652Z" fill="#263238"/>
<path d="M129.472 103.728C114.391 109.519 89.8215 105.322 89.8215 105.322C90.114 97.9536 90.368 83.3605 90.2686 71.2328C90.2686 70.9515 90.2686 70.6702 90.2576 70.3889C90.241 68.6682 90.2134 67.0026 90.1803 65.4253C90.1748 65.2323 90.1748 65.0393 90.1692 64.8517C90.0975 61.7522 89.9871 59.0112 89.8436 56.8162C89.5676 52.6854 91.8142 48.8413 95.9045 48.1519C97.1465 47.9423 98.4879 47.7603 99.8844 47.6114C100.216 47.5728 100.552 47.5397 100.895 47.5066C104.77 47.1261 109.02 46.9606 112.901 47.0709C113.094 47.0709 113.287 47.0765 113.48 47.082C113.58 47.082 113.69 47.082 113.789 47.093C113.955 47.0985 114.126 47.104 114.292 47.1151C116.019 47.1868 117.659 47.3136 119.127 47.5066C122.461 47.9368 125.425 50.5675 125.481 53.9318C125.53 57.0147 125.834 63.5226 126.27 70.8632C126.436 73.6429 126.623 76.5493 126.828 79.4282C127.617 90.7618 128.622 101.748 129.472 103.728Z" fill="#407BFF"/>
<path d="M90.9919 90.2434C90.9919 90.2434 91.0029 90.26 91.0029 90.2655L90.9864 90.2544C90.9864 90.2544 90.9422 90.2434 90.9146 90.2434L88.7287 94.3412C88.5852 94.264 88.4472 94.1867 88.3092 94.104L88.2043 94.0378L88.1381 93.9937L88.0166 93.9055L87.7627 93.729L87.5585 93.5746C87.2769 93.365 87.0506 93.1775 86.8077 92.9789C86.3496 92.5873 85.9135 92.2013 85.4885 91.8097C84.6439 91.0321 83.8325 90.2544 83.0265 89.4658C81.4368 87.8719 79.8967 86.2505 78.4008 84.5849C76.8938 82.9193 75.4421 81.2151 74.0069 79.3896C73.6481 78.9319 73.2837 78.4576 72.9305 77.9502C72.7483 77.6855 72.5717 77.4428 72.384 77.1395C72.2018 76.8637 72.0086 76.5383 71.7933 76.1357L71.6222 75.7717L71.5339 75.5897C71.4953 75.4849 71.4511 75.3636 71.4125 75.2533L71.3076 74.9003C71.2745 74.7514 71.2524 74.779 71.1917 74.3157C71.1475 73.9572 71.142 73.5822 71.1806 73.2182L71.2137 72.948C71.2303 72.8652 71.2469 72.7604 71.2579 72.7273L71.3407 72.435C71.4014 72.2365 71.4787 72.0435 71.5615 71.8504L71.6885 71.5747L71.7602 71.4368L71.7878 71.3872L72.0252 70.9956C72.2129 70.6978 72.3012 70.582 72.4226 70.411C72.8918 69.7657 73.2672 69.319 73.6591 68.8392C75.1992 67.0247 76.7227 65.4198 78.2628 63.7928C79.8139 62.1934 81.3595 60.6051 82.9437 59.0664C86.0957 55.9613 89.2973 52.9446 92.6369 50.0381L98.9517 56.9761C95.8109 59.9819 92.5706 62.9214 89.3414 65.8334L84.5169 70.2014C82.9713 71.5857 81.4147 73.0141 80.0182 74.3819C80.1286 74.5804 80.2445 74.779 80.3659 74.9775C81.4368 76.7424 82.6512 78.5348 83.8435 80.3217C85.0579 82.1031 86.2834 83.89 87.5309 85.6383C88.1491 86.5207 88.7729 87.3921 89.4077 88.2359C89.7223 88.6606 90.0425 89.0632 90.3516 89.4548L90.7877 89.9952L90.9588 90.1993L90.9919 90.2434Z" fill="#407BFF"/>
<path d="M106.216 51.8802C106.216 51.8802 109.076 63.7323 108.253 75.2589" stroke="white" stroke-width="0.5" stroke-linecap="round" stroke-linejoin="round"/>
<path d="M112.713 51.6265C112.713 51.6265 115.572 63.4785 114.75 75.0051" stroke="white" stroke-width="0.5" stroke-linecap="round" stroke-linejoin="round"/>
<path opacity="0.2" d="M126.828 79.4283C121.253 71.3045 117.052 62.2817 114.369 52.2662L126.27 70.8633C126.436 73.6429 126.624 76.5494 126.828 79.4283Z" fill="black"/>
<path opacity="0.2" d="M97.8257 86.631C97.8257 86.631 98.8966 93.8669 98.5157 98.0308C98.5157 98.0308 110.411 99.8949 122.92 97.1263C123.416 94.3191 123.389 90.078 122.252 85.8975C114.888 85.528 106.625 85.8644 97.8257 86.631Z" fill="black"/>
<path d="M115.793 24.0288C113.436 23.1905 110.82 23.2953 108.601 24.4535C107.154 25.209 105.896 26.3617 105.923 28.0934C105.995 32.136 107.121 38.8921 107.121 38.8921L120.772 32.7262C120.772 32.7262 121.766 29.3399 120.165 27.1834C118.978 25.5785 117.532 24.6465 115.788 24.0288H115.793Z" fill="#263238"/>
<path d="M105.979 32.3235C105.979 32.3235 106.277 31.1488 104.919 28.9703C103.561 26.7918 105.051 25.4296 106.089 25.744C106.089 25.744 105.543 24.3983 106.448 23.9405C107.353 23.4828 107.811 24.0067 107.811 24.0067C107.811 24.0067 111.212 21.2877 115.837 22.1977C119.563 22.9312 122.312 20.3391 123.698 21.3484C125.083 22.3577 122.566 23.3008 122.566 23.3008C122.566 23.3008 124.802 24.5306 124.454 25.6778C124.106 26.8249 122.058 26.9132 122.058 26.9132C122.058 26.9132 124.184 28.3251 123.317 29.2626C122.45 30.2002 119.746 29.0641 119.746 29.0641C119.746 29.0641 109.026 29.0089 105.973 32.318L105.979 32.3235Z" fill="#263238"/>
<path d="M113.083 43.9108C113.083 43.9108 113.066 43.9439 113.061 43.9605L112.2 46.1941C112.1 46.6574 112.04 47.1262 112.029 47.5839C112.018 47.97 112.034 48.3505 112.078 48.7145C112.509 49.4646 112.581 51.064 110.781 50.8765C108.507 50.6448 104.654 47.082 104.615 46.0617C106.001 43.0725 107.32 39.3388 107.475 36.3551L109.765 39.4381L113.088 43.9053L113.083 43.9108Z" fill="#FFC3BD"/>
<g opacity="0.2">
<path d="M113.061 43.9659L112.2 46.1996C110.847 45.3999 109.511 43.8391 109.335 42.2893C109.213 41.1753 109.815 40.2046 110.262 40.1991L113.055 43.9659H113.061Z" fill="black"/>
</g>
<path d="M119.332 39.7689C119.144 40.2542 118.94 40.7341 118.724 41.2028C116.826 45.3392 111.482 45.1517 108.529 41.633C108.529 41.6275 108.529 41.622 108.518 41.622C108.259 41.3076 108.01 40.9712 107.789 40.6017C105.995 37.6235 106.752 35.5609 107.591 30.7903C108.43 26.0252 113.894 23.582 117.985 26.5105C121.76 29.2129 121.225 34.9101 119.326 39.7689H119.332Z" fill="#FFC3BD"/>
<path d="M115.07 39.3222C114.882 39.8296 114.413 40.1274 114.027 39.984C113.64 39.8406 113.48 39.3112 113.668 38.8038C113.856 38.2964 114.325 37.9986 114.711 38.142C115.098 38.2854 115.258 38.8148 115.07 39.3222Z" fill="white"/>
<path d="M111.593 30.0457C112.84 29.8692 111.99 28.5015 112.255 27.7294C113.122 25.2255 119.933 26.9407 120.717 30.7682C120.717 30.7682 120.53 27.8507 118.404 26.0638C116.279 24.2769 111.709 23.4662 109.605 25.5288C107.502 27.5915 107.491 31.2315 107.491 31.2315C107.491 31.2315 107.436 31.8878 107.839 32.3235C108.065 32.5441 108.463 33.5478 109.125 33.8181C109.688 34.0442 110.119 33.956 110.329 33.1397C110.533 32.3235 110.754 30.1671 111.587 30.0512L111.593 30.0457Z" fill="#263238"/>
<path d="M104.825 33.4376C104.88 34.7392 105.532 35.8974 106.332 36.6143C107.535 37.6898 108.849 36.7798 109.103 35.2742C109.335 33.9174 108.987 31.7224 107.491 31.2261C106.017 30.7352 104.759 31.943 104.819 33.4376" fill="#FFC3BD"/>
<path d="M114.584 33.7134C114.496 34.0829 114.618 34.4303 114.86 34.491C115.103 34.5517 115.374 34.298 115.462 33.9229C115.55 33.5534 115.429 33.206 115.186 33.1453C114.943 33.0846 114.673 33.3383 114.584 33.7134Z" fill="#263238"/>
<path d="M118.658 34.6344C118.57 35.0039 118.691 35.3514 118.934 35.412C119.177 35.4727 119.448 35.219 119.536 34.844C119.624 34.4745 119.503 34.127 119.26 34.0663C119.017 34.0057 118.746 34.2594 118.658 34.6344Z" fill="#263238"/>
<path d="M120.11 33.5258C120.043 33.5093 119.988 33.4597 119.972 33.3935C119.883 33.0846 119.729 32.8695 119.514 32.7537C119.155 32.5607 118.73 32.6875 118.724 32.6875C118.625 32.7206 118.514 32.6655 118.481 32.5607C118.448 32.4614 118.509 32.3511 118.608 32.318C118.63 32.3125 119.188 32.1415 119.696 32.4118C120.01 32.5828 120.226 32.8751 120.342 33.2887C120.369 33.3935 120.314 33.4983 120.209 33.5258C120.176 33.5369 120.143 33.5369 120.11 33.5258Z" fill="#263238"/>
<path d="M113.789 32.0202C113.762 32.0147 113.729 31.9981 113.707 31.9761C113.618 31.9044 113.607 31.772 113.679 31.6838C113.695 31.6617 114.104 31.1764 114.722 31.1268C115.103 31.0937 115.478 31.2315 115.826 31.5404C115.915 31.6176 115.926 31.75 115.848 31.8327C115.771 31.9209 115.639 31.9264 115.556 31.8547C115.296 31.6286 115.026 31.5238 114.761 31.5459C114.319 31.579 114.005 31.9485 114.005 31.954C113.949 32.0147 113.872 32.0423 113.795 32.0202H113.789Z" fill="#263238"/>
<path d="M117.123 33.9835C117.123 33.9835 117.317 35.6822 117.83 36.8569C118.349 38.0371 116.312 37.5959 116.312 37.5959L117.123 33.9835Z" fill="#ED847E"/>
<path opacity="0.2" d="M97.3454 58.6748L90.2577 70.3889C90.2412 68.6682 90.2136 67.0027 90.1805 65.4253C90.1749 65.2323 90.175 65.0393 90.1694 64.8518L97.3454 58.6748Z" fill="black"/>
<path d="M131.581 76.2185C129.312 77.2499 126.646 76.3674 125.393 74.2772C125.31 74.1393 125.233 74.007 125.15 73.8691C124.99 73.5988 124.83 73.3231 124.67 73.0473C124.587 72.915 124.51 72.7771 124.432 72.6392C124.173 72.198 123.919 71.7513 123.66 71.3045C123.378 70.8082 123.091 70.3118 122.804 69.8099C122.522 69.3136 122.241 68.8172 121.954 68.3153C121.667 67.819 121.385 67.3171 121.109 66.8207C120.828 66.3189 120.546 65.817 120.27 65.3151L120.171 65.1331C119.647 64.19 119.122 63.2414 118.603 62.2983C117.505 60.2798 116.417 58.2557 115.357 56.2151C114.298 54.169 113.249 52.1229 112.261 50.0327L116.605 47.1924C118.123 48.9352 119.58 50.7221 121.027 52.5145C121.187 52.713 121.347 52.9116 121.507 53.1156L124.824 51.3839C125.652 52.8399 126.436 54.3179 127.209 55.807C127.976 57.2906 128.738 58.7852 129.478 60.2853C130.217 61.7854 130.957 63.2911 131.669 64.8077C132.392 66.3189 133.099 67.841 133.794 69.3632L133.987 69.7934C135.097 72.2311 134.021 75.11 131.581 76.2185Z" fill="#407BFF"/>
<path d="M122.804 69.8099C122.743 69.7106 122.688 69.6169 122.632 69.5176C122.114 68.6241 121.606 67.7252 121.109 66.8207C121.385 67.317 121.666 67.8189 121.953 68.3153C122.24 68.8172 122.522 69.3135 122.804 69.8099Z" fill="#407BFF"/>
<path d="M116.61 48.3119C116.506 49.1502 115.898 50.4518 114.678 50.4077C113.536 50.3636 112.581 49.9775 112.465 49.9279C112.465 49.9223 112.454 49.9223 112.454 49.9223C111.521 49.6852 109.771 49.0951 109.169 47.9424C108.325 46.332 109.644 43.8061 109.644 43.8061C108.275 42.51 106.658 40.2819 107.789 40.7893C108.916 41.2967 113.359 44.3962 114.954 44.0487C116.434 43.7233 116.953 42.4383 117.499 42.6975C118.134 42.9953 116.958 44.1425 116.368 45.3337C116.368 45.3337 116.776 47.0379 116.616 48.3119H116.61Z" fill="#FFC3BD"/>
<g opacity="0.2">
<path d="M112.056 49.9499C112.056 49.9499 112.018 49.9499 111.996 49.9389C111.88 49.8837 109.202 48.6318 108.717 47.2585C108.281 46.0342 109.214 44.2804 109.467 43.8392C109.114 43.5248 107.8 42.3446 107.447 41.6221C107.254 41.225 107.21 40.9382 107.315 40.7507C107.397 40.6018 107.541 40.5852 107.558 40.5797C108.126 40.5852 108.706 41.0154 109.506 41.6055C110.301 42.1901 111.295 42.9236 112.636 43.5082C115.054 44.5672 115.484 43.9219 115.771 43.4972L115.882 43.3373C116.202 42.8795 116.732 42.1129 117.637 42.4769C117.709 42.5045 117.742 42.5872 117.714 42.6589C117.687 42.7306 117.604 42.7637 117.532 42.7361C116.881 42.4714 116.5 42.9236 116.108 43.4972L116.003 43.6516C115.573 44.2859 114.949 44.8208 112.526 43.7619C111.157 43.1608 110.146 42.4218 109.34 41.8261C108.612 41.2912 108.032 40.8665 107.569 40.8555C107.58 40.8555 107.563 40.861 107.546 40.8886C107.53 40.9272 107.486 41.0816 107.69 41.5007C108.065 42.2729 109.71 43.6902 109.727 43.7068C109.777 43.7509 109.788 43.8281 109.754 43.8833C109.743 43.9053 108.524 45.9128 108.971 47.1703C109.418 48.4333 112.078 49.6797 112.106 49.6907C112.172 49.7238 112.205 49.8065 112.172 49.8727C112.15 49.9223 112.1 49.9499 112.045 49.9499H112.056Z" fill="black"/>
</g>
<path opacity="0.2" d="M118.57 49.4204L130.394 67.3887C130.394 67.3887 129.014 61.3662 118.57 49.4204Z" fill="black"/>
<path d="M90.1916 90.3372C90.1916 90.3372 94.9499 91.7988 95.3252 92.7253C95.7006 93.6518 94.144 93.4147 94.144 93.4147C94.144 93.4147 95.8386 93.7732 95.7944 94.424C95.7392 95.2071 94.1108 94.9479 94.1108 94.9479C94.1108 94.9479 95.4853 95.2898 95.4025 95.8634C95.3142 96.4646 93.4595 96.2881 93.4595 96.2881C93.4595 96.2881 94.3813 96.6907 94.0667 97.0492C93.752 97.4077 90.291 97.1595 89.198 96.3818C88.1051 95.6042 88.8116 91.2472 89.1318 90.2986C89.452 89.35 88.8889 88.3683 90.2358 87.2819L90.1972 90.3262L90.1916 90.3372Z" fill="#FFC3BD"/>
<path opacity="0.2" d="M94.1328 93.4864C94.1328 93.4864 94.1328 93.4864 94.1273 93.4864L91.1962 92.7419C91.1575 92.7309 91.1355 92.6923 91.141 92.6536C91.152 92.615 91.1907 92.593 91.2293 92.5985L94.1604 93.343C94.1991 93.3541 94.2211 93.3927 94.2156 93.4313C94.2046 93.4699 94.1715 93.4919 94.1328 93.4864Z" fill="black"/>
<path opacity="0.2" d="M94.0168 95.0085L91.1464 94.4901C91.1077 94.4846 91.0801 94.446 91.0857 94.4073C91.0912 94.3687 91.1243 94.3467 91.1685 94.3467L94.0389 94.8651C94.0775 94.8706 94.1051 94.9092 94.0996 94.9478C94.0941 94.9864 94.0554 95.014 94.0168 95.0085Z" fill="black"/>
<path opacity="0.2" d="M93.3492 96.3488L91.2074 96.0179C91.1688 96.0124 91.1412 95.9738 91.1467 95.9351C91.1522 95.8965 91.1909 95.869 91.2295 95.8745L93.3713 96.2054C93.4099 96.2109 93.4375 96.2495 93.432 96.2881C93.4265 96.3267 93.3878 96.3543 93.3492 96.3488Z" fill="black"/>
</g>
<defs>
<clipPath id="clip0_718_21137">
<rect width="276" height="213" fill="white" transform="translate(0 0.0930176)"/>
</clipPath>
</defs>
</svg>
