<svg width="326" height="208" viewBox="0 0 326 208" fill="none" xmlns="http://www.w3.org/2000/svg">
<g clip-path="url(#clip0_723_27546)">
<path d="M94.1345 106.31C94.1345 106.31 105.706 116.056 113.657 110.086C122.563 103.399 125.134 93.2298 129.508 92.0282C133.882 90.8265 132.081 103.41 132.081 103.41C132.081 103.41 120.216 128.74 104.223 128.218C91.6318 127.807 82.8828 119.652 82.8828 119.652L94.1345 106.312V106.31Z" fill="#E28569"/>
<path d="M263.785 91.284C268.827 96.0749 275.859 97.5618 282.599 97.9077C289.47 98.2607 296.645 97.3951 303.301 99.5498C306.409 100.557 309.721 102.364 311.396 105.283C312.283 106.826 312.633 108.759 311.999 110.46C311.445 111.947 310.164 113.153 310.249 114.843C310.317 116.213 311.188 117.375 312.138 118.297C313.387 119.508 314.854 120.515 316.239 121.566C319.079 123.718 321.966 125.999 323.749 129.15C325.472 132.192 325.892 136.067 323.756 139.033C322.647 140.573 320.979 141.363 319.134 141.654C318.179 141.805 317.207 141.836 316.242 141.863C315.233 141.891 314.11 141.944 313.287 141.262C312.907 140.947 312.358 141.489 312.74 141.807C313.98 142.832 315.645 142.671 317.156 142.602C318.852 142.524 320.602 142.326 322.118 141.5C324.581 140.157 325.879 137.359 325.994 134.641C326.133 131.327 324.421 128.233 322.279 125.819C319.755 122.973 316.499 120.949 313.584 118.547C312.251 117.448 310.639 115.912 311.104 114.006C311.312 113.154 311.865 112.426 312.278 111.669C312.675 110.942 312.947 110.191 313.046 109.363C313.455 105.95 311.163 103.052 308.499 101.22C302.724 97.2511 295.309 97.2793 288.579 97.261C280.175 97.2384 270.79 96.8783 264.331 90.7404C263.972 90.3987 263.424 90.9423 263.785 91.2854V91.284Z" fill="#2F1A31"/>
<path d="M261.304 87.4844C261.304 87.4844 270.345 100.799 283.655 98.0037C296.965 95.208 314.544 104.921 308.265 113.38C301.986 121.838 322.588 121.694 319.867 137.97C316.446 158.432 289.796 169.037 265.689 160.245C241.581 151.452 246.298 107.18 246.298 107.18L261.304 87.4844Z" fill="#2F1A31"/>
<path d="M291.239 59.98C290.59 57.8592 290.256 53.3775 289.649 51.2454C289.386 50.3206 288.714 47.1464 289.598 46.7525C290.368 46.4093 292.099 48.6657 292.794 49.8391C302.424 40.6145 304.057 49.3971 305.214 51.6323C305.478 52.1406 300.882 62.8111 300.882 62.8111C300.882 62.8111 298.951 65.8709 295.208 64.5521C292.822 63.7119 291.521 60.8992 291.239 59.9786V59.98Z" fill="#EFA878"/>
<path d="M218.75 120.922C215.619 107.71 284.007 120.58 274.338 129.807C272.725 131.346 271.958 139.162 271.953 140.306C271.801 170.836 270.071 197.208 270.071 197.208C233.909 180.333 202.49 186.225 202.49 186.225C205.042 159.118 214.244 134.755 218.75 120.922Z" fill="#7FA1D3"/>
<path d="M215.922 56.8002C216.571 54.6794 216.905 50.1978 217.512 48.0656C217.775 47.1408 218.447 43.9666 217.563 43.5727C216.793 43.2296 215.062 45.4859 214.367 46.6593C208.786 35.3916 201.74 43.3369 201.286 46.3839C201.203 46.9487 206.279 59.6313 206.279 59.6313C206.279 59.6313 208.21 62.6911 211.954 61.3723C214.339 60.5321 215.64 57.7195 215.922 56.7988V56.8002Z" fill="#EFA878"/>
<path d="M251.379 105.62L251.992 101.47L252.319 99.5328L254.238 88.1394L248.902 97.8059L245.699 103.609L244.786 105.263C244.259 106.213 243.025 106.419 241.467 106.213C241.467 106.213 239.26 110.336 241.027 111.723C244.305 114.294 248.66 111.283 252.736 107.751C252.727 107.744 251.021 107.752 251.381 105.621L251.379 105.62Z" fill="#F7B686"/>
<path d="M252.101 101.322C252.065 101.371 252.03 101.421 251.992 101.469C249.833 104.304 245.709 103.636 245.709 103.636L245.7 103.608L248.903 97.8044C250.12 98.077 251.76 98.6065 252.32 99.5313C252.613 100.014 252.611 100.604 252.102 101.322H252.101Z" fill="#EDA370"/>
<path d="M261.519 95.1007C265.435 89.2324 264.727 81.8952 259.938 78.7127C255.15 75.5302 248.094 77.7075 244.178 83.5759C240.263 89.4442 240.971 96.7813 245.759 99.9638C250.548 103.146 257.604 100.969 261.519 95.1007Z" fill="#F7B686"/>
<path d="M244.607 93.7209C244.607 93.7209 247.503 95.3504 250.987 95.894C250.987 95.894 249.683 98.8846 246.402 97.3837C244.495 96.5111 244.607 93.7209 244.607 93.7209Z" fill="#DB6B49"/>
<path d="M244.606 93.7211C244.606 93.7211 245.001 94.6813 246.661 95.5567C248.32 96.4322 250.988 95.8928 250.988 95.8928C250.988 95.8928 246.934 94.9708 244.608 93.7197L244.606 93.7211Z" fill="white"/>
<path d="M252.927 90.4283C252.877 90.3831 252.85 90.3153 252.859 90.2447C252.873 90.1247 252.982 90.0386 253.104 90.0513C253.176 90.0598 254.852 90.0908 255.329 91.9561C255.359 92.0733 255.292 92.1933 255.174 92.2258C255.056 92.2582 254.958 92.1792 254.9 92.0719C254.326 90.9973 253.112 90.4947 253.053 90.4876C253.003 90.482 252.959 90.4608 252.925 90.4283H252.927Z" fill="#2F1A31"/>
<path d="M244.598 87.2627C244.535 87.2429 244.48 87.1949 244.454 87.1285C244.412 87.0141 244.471 86.8885 244.586 86.8475C244.654 86.8235 246.166 86.1091 247.435 87.5676C247.516 87.6594 247.51 87.7964 247.418 87.8783C247.328 87.9588 247.204 87.9319 247.105 87.8613C246.108 87.1539 244.797 87.2415 244.74 87.2612C244.693 87.2782 244.644 87.2782 244.6 87.2655L244.598 87.2627Z" fill="#2F1A31"/>
<path d="M246.259 90.8364C246.315 90.8689 246.384 90.8774 246.449 90.8519C246.558 90.8096 246.61 90.6867 246.568 90.5794C246.542 90.5159 246.088 88.9867 244.225 89.0206C244.107 89.0234 244.013 89.1152 244.013 89.231C244.013 89.3467 244.11 89.4159 244.225 89.4414C245.374 89.6955 246.15 90.6811 246.172 90.7347C246.19 90.7785 246.221 90.8138 246.259 90.8364Z" fill="#2F1A31"/>
<path d="M251.248 92.9289C251.19 92.902 251.145 92.8484 251.131 92.7806C251.106 92.6662 251.18 92.5561 251.295 92.5321C251.363 92.518 252.899 92.0492 253.898 93.6094C253.961 93.7083 253.936 93.8368 253.838 93.9017C253.741 93.9653 253.629 93.9229 253.544 93.8424C252.697 93.0334 251.439 92.9345 251.382 92.9458C251.336 92.9557 251.289 92.9486 251.249 92.9303L251.248 92.9289Z" fill="#2F1A31"/>
<path d="M218.086 55.0579C218.086 55.0579 213.934 77.5001 217.038 85.6587C220.142 93.8172 232.888 105.712 246.297 107.18C271.834 109.977 277.486 104.985 286.717 94.7971C292.641 88.2596 287.628 58.9804 290.964 58.8759C290.964 58.8759 304.008 56.7057 305.28 60.1834C305.28 60.1834 313.141 92.5676 305.836 108.016C298.539 123.452 276.214 126.235 272.438 135.835C268.662 145.436 213.757 135.927 213.757 135.927C213.757 135.927 215.117 130.732 214.564 121.364C214.141 114.191 203.622 105.449 197.946 95.2362C192.81 85.9961 198.885 58.0781 201.576 53.8887C204.267 49.6994 218.086 55.0579 218.086 55.0579Z" fill="#7FA1D3"/>
<path d="M241.467 106.212C241.467 106.212 235.712 113.33 237.294 123.99C237.435 124.946 238.56 125.401 239.332 124.819C239.77 124.489 240.294 123.996 240.911 123.266C243.291 120.45 250.211 108.565 252.737 107.748L241.469 106.212H241.467Z" fill="#F7B686"/>
<path d="M235.104 134.886C235.177 134.326 235.693 133.93 236.255 134.004C236.817 134.077 237.213 134.593 237.139 135.153C237.066 135.714 236.549 136.109 235.988 136.036C235.426 135.962 235.03 135.447 235.104 134.886Z" fill="#2F1A31"/>
<path d="M230.036 150.562C230.11 150.002 230.626 149.606 231.188 149.68C231.749 149.753 232.146 150.269 232.072 150.829C231.998 151.39 231.482 151.785 230.92 151.712C230.359 151.638 229.963 151.123 230.036 150.562Z" fill="#2F1A31"/>
<path d="M227.412 170.486C227.486 169.925 228.002 169.53 228.564 169.603C229.125 169.676 229.522 170.192 229.448 170.752C229.374 171.313 228.858 171.708 228.296 171.635C227.735 171.561 227.339 171.046 227.412 170.486Z" fill="#2F1A31"/>
<path d="M250.078 79.32C250.303 79.8029 250.089 89.3 262.103 92.6959C274.118 96.0917 266.686 76.1219 257.682 74.5503C244.683 72.2798 241.319 81.9012 242.05 85.6204C242.782 89.3396 250.078 79.3214 250.078 79.3214V79.32Z" fill="#2F1A31"/>
<path d="M261.921 96.2064C263.502 95.7887 264.516 94.4386 264.185 93.191C263.854 91.9434 262.304 91.2707 260.723 91.6884C259.142 92.1062 258.129 93.4562 258.46 94.7038C258.791 95.9515 260.341 96.6242 261.921 96.2064Z" fill="#F7B686"/>
<path d="M254.213 75.4923C263.687 72.0004 272.43 85.7758 265.806 93.1154C265.475 93.4825 266.018 94.0289 266.352 93.6604C269.8 89.841 269.496 84.2142 266.826 80.0643C265.488 77.9844 263.596 76.0189 261.313 74.9896C259.012 73.9532 256.371 73.8798 254.008 74.751C253.546 74.9218 253.746 75.6659 254.213 75.4937V75.4923Z" fill="#2F1A31"/>
<path d="M82.2523 44.5879C81.7289 43.1901 80.2915 40.4197 79.4016 40.6358C78.3773 40.8857 78.5032 44.4298 78.6135 45.4761C78.8654 47.8892 78.3829 52.7733 78.6815 55.1807C78.8116 56.2242 90.7876 59.3998 90.7876 59.3998L95.8016 49.6048C97.471 47.1535 90.3222 32.8613 82.2523 44.5894V44.5879Z" fill="#F7B686"/>
<path d="M79.6252 50.8627C74.0595 66.1787 64.1858 87.994 52.0018 103.79C49.1793 107.45 48.0475 108.805 46.0993 110.697C44.5318 112.22 45.4358 116.708 48.0164 119.412C50.437 121.951 54.2979 122.514 56.5234 121.042C58.1857 119.942 60.3715 121.564 63.5845 117.536C74.747 103.541 83.5681 81.0653 92.218 55.1467L79.6252 50.8613V50.8627Z" fill="#F7B686"/>
<path d="M82.5377 186.561C82.5377 186.561 84.5085 180.067 52.0522 192.4C49.4702 193.38 25.3668 197.114 22.7381 198.26C22.7381 198.26 16.1764 163.814 13.337 142.528C11.8359 131.274 10.0505 143.49 19.7346 127.715C19.76 127.671 19.7869 127.629 19.8152 127.585C20.7136 126.125 21.6657 124.647 22.6731 123.153C22.6731 123.153 27.9077 110.264 46.461 109.178C58.1965 108.489 71.3313 111.307 70.938 121.54C70.017 145.475 80.5047 155.912 82.5377 186.561Z" fill="#7FA1D3"/>
<path d="M70.9381 121.54C70.4839 122.694 69.3733 123.609 68.158 124.562C60.9809 130.187 22.7877 130.677 22.7877 130.677L19.8153 127.584L19.6979 127.464L8.14062 121.427C8.14062 121.427 18.9664 111.6 36.7388 107.775H36.7445C37.7645 107.549 38.8072 107.274 39.8966 107.151C51.8104 105.795 56.008 97.0635 56.008 97.0635C56.008 97.0635 78.1095 103.33 70.9366 121.543L70.9381 121.54Z" fill="#7FA1D3"/>
<path d="M26.4953 136.321C27.8186 134.695 24.7814 130.045 19.7114 125.934C14.6415 121.823 9.45869 119.809 8.13536 121.435C6.81203 123.06 9.84928 127.711 14.9192 131.821C19.9892 135.932 25.172 137.946 26.4953 136.321Z" fill="#2F1A31"/>
<path d="M36.0765 105.515L35.87 99.7164L35.8035 97.8455L35.4102 86.8433L39.2202 96.6369L41.5064 102.515L42.1586 104.191C42.6906 105.558 44.1719 106.291 45.5895 105.908L45.6149 105.901C46.8571 106.709 46.7128 109.67 44.8863 110.76C41.4965 112.783 36.9707 110.796 33.4932 108.563C33.5031 108.557 36.1529 107.573 36.0794 105.515H36.0765Z" fill="#F7B686"/>
<path d="M35.7855 99.564C35.8124 99.6149 35.8407 99.6657 35.8704 99.7165C37.5455 102.662 41.4941 102.542 41.4941 102.542L41.5055 102.515L39.2192 96.637C38.0449 96.7443 36.442 97.0408 35.8025 97.8456C35.4686 98.2664 35.3979 98.8227 35.7855 99.564Z" fill="#2F1A31"/>
<path d="M41.7674 99.131C46.6909 96.8041 48.3502 90.003 45.4736 83.9404C42.597 77.8778 36.2737 74.8494 31.3503 77.1763C26.4268 79.5033 24.7675 86.3044 27.6441 92.367C30.5207 98.4296 36.8439 101.458 41.7674 99.131Z" fill="#F7B686"/>
<path d="M45.4917 97.8273C45.3955 97.8273 45.3135 97.7553 45.3022 97.6578C45.2894 97.5533 45.3658 97.4602 45.4705 97.4474C45.4988 97.4432 48.3227 97.1001 49.8478 94.8988C50.3289 94.2041 50.4859 93.6111 50.3147 93.138C50.0784 92.4829 49.2847 92.2541 49.2763 92.2527C49.1744 92.2245 49.115 92.1186 49.1433 92.0183C49.173 91.9181 49.2791 91.8574 49.3781 91.8856C49.4192 91.8983 50.3699 92.1708 50.6726 93.0095C50.8877 93.604 50.7165 94.3128 50.1605 95.1148C48.5349 97.463 45.6361 97.8117 45.513 97.8259C45.5059 97.8273 45.4988 97.8273 45.4917 97.8273Z" fill="#E28569"/>
<path d="M30.1526 81.6726C31.416 83.5082 31.6367 85.2915 38.4615 83.8781C38.4615 83.8781 39.7844 84.0659 39.3288 82.9575C38.8732 81.8491 36.5559 80.9228 36.785 79.2807C36.785 79.2807 45.4887 86.2856 46.0433 83.6705C46.5965 81.0555 45.5609 73.925 40.3771 71.7293C35.1934 69.5322 24.1908 73.7372 23.8781 77.6682C23.4183 83.4616 29.0731 80.101 30.154 81.6712L30.1526 81.6726Z" fill="#2F1A31"/>
<path d="M24.6903 79.8371C24.6903 79.8371 27.7051 79.2327 28.1565 80.4922C28.6078 81.7531 31.5859 83.127 30.1584 84.731C28.7309 86.3351 28.5243 86.9916 29.1638 88.3189C29.6094 89.2438 28.9544 92.0621 29.2543 94.1999C29.3845 95.129 30.6847 96.6172 30.6847 96.6172C30.6847 96.6172 22.786 97.5407 20.3215 89.2071C18.7185 83.7836 22.6601 79.9571 24.6917 79.8371H24.6903Z" fill="#2F1A31"/>
<path d="M28.595 93.9443C30.0622 94.43 31.5208 93.861 31.8533 92.6735C32.1857 91.4874 31.2675 90.1319 29.8018 89.6462C28.3347 89.1604 26.8761 89.7295 26.5436 90.917C26.2112 92.103 27.1293 93.4586 28.595 93.9443Z" fill="#F7B686"/>
<path d="M30.7996 102.031C29.6083 102.031 28.3181 101.062 27.9177 99.8025C27.1792 97.4741 28.253 95.1415 28.2997 95.0427C28.3492 94.9382 28.4751 94.8986 28.577 94.9424C28.6817 94.9918 28.7269 95.1147 28.6774 95.2192C28.6675 95.2417 27.6262 97.5052 28.3152 99.6754C28.6887 100.85 29.9974 101.767 31.0627 101.593C32.0983 101.428 32.6586 100.305 32.6374 98.4314C32.5836 93.6702 29.3961 93.3624 29.2617 93.3525C29.1471 93.3412 29.0608 93.2438 29.0693 93.128C29.0778 93.0136 29.1881 92.9289 29.2928 92.936C29.3296 92.9388 32.9953 93.2706 33.0547 98.4272C33.0873 101.371 31.7192 101.909 31.1292 102.004C31.0217 102.021 30.9113 102.031 30.801 102.031H30.7996Z" fill="#E28569"/>
<path d="M19.2549 81.7066C19.1884 81.7207 19.1162 81.7094 19.0568 81.6684C18.9422 81.5894 18.9139 81.4326 18.9931 81.3183C20.4999 79.141 22.7635 79.4883 22.8597 79.5039C22.997 79.5265 23.0889 79.6564 23.0677 79.7933C23.0451 79.9303 22.9163 80.0235 22.7777 80.0009C22.6942 79.9868 20.7291 79.6973 19.4091 81.6049C19.3709 81.6586 19.3157 81.6939 19.2563 81.708L19.2549 81.7066Z" fill="#2F1A31"/>
<path d="M23.0198 78.9037C22.908 78.9291 22.7906 78.8741 22.7383 78.7682C22.7057 78.7018 21.9573 77.1373 22.3987 76.2026C22.4581 76.0769 22.6095 76.0232 22.734 76.0811C22.8599 76.1404 22.9137 76.2901 22.8557 76.4158C22.5756 77.0117 23.0042 78.1568 23.1938 78.5479C23.2547 78.6736 23.2023 78.8247 23.0764 78.884C23.058 78.8924 23.0396 78.8995 23.0212 78.9037H23.0198Z" fill="#2F1A31"/>
<path d="M43.6274 94.238C43.6274 94.238 40.7116 95.4185 37.377 95.5004C37.377 95.5004 38.2315 98.4867 41.4911 97.4757C43.3869 96.8884 43.6274 94.238 43.6274 94.238Z" fill="#DB6B49"/>
<path d="M43.6274 94.238C43.6274 94.238 43.1393 95.0965 41.4755 95.7178C39.8118 96.3391 37.377 95.5004 37.377 95.5004C37.377 95.5004 41.2916 95.1318 43.6274 94.238Z" fill="white"/>
<path d="M36.3553 89.1705C36.4062 89.1338 36.4401 89.073 36.4416 89.0053C36.443 88.8895 36.3524 88.7949 36.2364 88.792C36.1685 88.792 34.5925 88.6127 33.9148 90.3156C33.8723 90.4229 33.9204 90.5443 34.0265 90.5895C34.1327 90.6347 34.2345 90.5726 34.301 90.478C34.9716 89.5348 36.1713 89.21 36.2279 89.21C36.2746 89.21 36.3185 89.1959 36.3538 89.1705H36.3553Z" fill="#060633"/>
<path d="M44.5537 87.2121C44.616 87.2022 44.674 87.1626 44.7051 87.1019C44.7589 87.0003 44.7193 86.8732 44.6174 86.8195C44.5566 86.7885 43.2281 85.9257 41.8586 87.1471C41.7723 87.2248 41.761 87.3547 41.836 87.4422C41.9109 87.5298 42.0298 87.5199 42.1317 87.4648C43.1545 86.9198 44.3726 87.1655 44.4236 87.1909C44.466 87.2121 44.5113 87.2191 44.5552 87.2121H44.5537Z" fill="#060633"/>
<path d="M46.6761 94.4682C46.2191 94.6404 45.7254 94.6828 45.2104 94.5797C42.9213 94.1307 40.9052 90.9226 40.7171 87.4336C40.6025 85.2958 41.1995 83.4391 42.3115 82.4747C42.9779 81.9 43.7772 81.6741 44.6332 81.8492C46.9208 82.2925 48.9341 85.4949 49.1236 88.9896C49.2411 91.133 48.644 92.9898 47.5306 93.9542C47.2646 94.1815 46.9788 94.3524 46.6747 94.4682H46.6761ZM41.1288 87.4181C41.3056 90.7278 43.1731 93.7636 45.2939 94.1815C46.0097 94.3213 46.6888 94.1279 47.2632 93.645C48.2833 92.7596 48.8251 91.0257 48.7162 89.0108C48.5379 85.6954 46.6718 82.6582 44.5539 82.2459C43.8352 82.1061 43.159 82.2925 42.5817 82.7825C41.5617 83.6678 41.0184 85.3975 41.1288 87.4166V87.4181Z" fill="#6F4975"/>
<path opacity="0.3" d="M36.4908 95.3434C38.6683 94.5537 39.4889 91.3195 38.3238 88.1195C37.1587 84.9195 34.4491 82.9656 32.2717 83.7552C30.0942 84.5449 29.2736 87.7792 30.4387 90.9792C31.6038 94.1791 34.3134 96.1331 36.4908 95.3434Z" fill="white"/>
<path opacity="0.3" d="M46.7623 94.2084C48.7421 93.5373 49.4497 90.3564 48.3428 87.1038C47.2359 83.8512 44.7336 81.7585 42.7537 82.4296C40.7739 83.1007 40.0663 86.2816 41.1732 89.5342C42.2801 92.7868 44.7824 94.8795 46.7623 94.2084Z" fill="white"/>
<path d="M36.8039 95.3381C36.3413 95.5132 35.839 95.5823 35.3085 95.5372C32.6417 95.3381 30.088 92.3079 29.614 88.7822C29.3353 86.7376 29.7937 84.9077 30.8704 83.7668C31.6244 82.9761 32.5865 82.6061 33.6589 82.6866C36.3243 82.8927 38.878 85.9229 39.3533 89.4416C39.632 91.4918 39.1708 93.3232 38.0899 94.4655C37.7079 94.8622 37.2764 95.1587 36.8025 95.3381H36.8039ZM32.3148 83.2726C31.8904 83.4321 31.5056 83.6919 31.1703 84.0463C30.1941 85.0856 29.7626 86.8364 30.0187 88.7299C30.4686 92.0679 32.8553 94.9399 35.3382 95.1333C36.2776 95.1955 37.1279 94.8679 37.7914 94.1873C38.7733 93.1523 39.2048 91.3958 38.9487 89.4952C38.496 86.1573 36.1093 83.2853 33.6292 83.0918C33.1637 83.0594 32.7209 83.1187 32.3134 83.2726H32.3148Z" fill="#6F4975"/>
<path d="M41.5687 88.6989C41.4881 88.73 41.3975 88.7314 41.3098 88.7017C41.2589 88.6834 40.0563 88.3092 38.5708 89.2199C38.3926 89.3188 38.1549 89.2764 38.0431 89.0971C37.9313 88.9178 37.9865 88.682 38.1676 88.5761C39.9474 87.4408 41.4895 87.9576 41.5574 87.9774C41.7555 88.048 41.863 88.2668 41.7923 88.4631C41.7569 88.5775 41.6706 88.6608 41.5687 88.6989Z" fill="#6F4975"/>
<path d="M42.5561 90.3819C42.5009 90.4059 42.4344 90.4059 42.3764 90.3734C42.2802 90.3198 42.2448 90.1969 42.2986 90.1009C42.3311 90.0444 42.9451 88.655 44.6867 88.9191C44.7971 88.936 44.8749 89.0349 44.8593 89.1436C44.8452 89.2537 44.7447 89.306 44.6344 89.3159C43.5266 89.4133 42.6763 90.2492 42.6495 90.2958C42.6268 90.3353 42.5943 90.3635 42.5547 90.3805L42.5561 90.3819Z" fill="#060633"/>
<path d="M37.6211 91.7416C37.6791 91.7233 37.7286 91.6781 37.7498 91.616C37.7866 91.5115 37.7314 91.3971 37.6267 91.3604C37.5645 91.3392 36.1822 90.7052 35.0532 92.0551C34.9825 92.1398 34.9896 92.2655 35.0731 92.3389C35.1565 92.4109 35.2669 92.3855 35.3574 92.3192C36.2516 91.6597 37.4428 91.7219 37.4951 91.7402C37.5376 91.7544 37.5829 91.7544 37.6225 91.7416H37.6211Z" fill="#060633"/>
<path d="M76.7256 144.594C76.7256 144.594 80.8567 160.432 95.7995 163.533C114.405 167.393 131.719 130.004 131.719 130.004L109.456 112.293C109.456 112.293 98.8356 136.606 96.3711 138.053C91.7504 140.764 91.691 138.214 85.7363 136.298C81.5047 134.937 76.7256 144.594 76.7256 144.594Z" fill="#F7B686"/>
<path d="M112.354 118.763C112.354 118.763 108.22 108.267 124.214 98.7109C124.221 98.7067 124.228 98.7053 124.235 98.7025C127.126 97.2481 129.849 95.6342 132.96 94.972C199.873 80.7037 190.915 174.504 190.915 174.504C152.841 182.694 120.27 182.872 122.656 178.496C122.656 154.013 122.511 141.048 118.777 132.466C117.607 129.776 112.354 118.766 112.354 118.766V118.763Z" fill="#79A39B"/>
<path d="M182.462 143.389C186.917 137.418 186.269 130.405 186.269 130.405C182.46 125.31 156.526 116.482 157.401 111.148C157.764 108.932 167.443 94.9084 169.368 95.637C172.382 96.7779 190.857 108.202 202.458 118.427C210.384 125.412 208.724 138.039 197.311 140.126C195.355 140.485 181.36 144.865 182.46 143.388L182.462 143.389Z" fill="#F7B686"/>
<path d="M132.96 94.9719C132.96 94.9719 158.364 88.3694 177.593 97.9611C177.593 97.9611 179.144 113.729 166.109 120.547L144.744 107.506L132.96 94.9719Z" fill="#79A39B"/>
<path d="M125.771 97.9146C125.771 97.9146 109.284 103.944 104.755 120.549C104.755 120.549 109.49 133.734 124.523 131.896C133.171 130.838 125.771 97.916 125.771 97.916V97.9146Z" fill="#79A39B"/>
<path d="M124.521 74.124L126.79 84.6914L128.023 90.4255L128.154 91.0312L128.585 93.0405C128.877 94.4045 129.185 95.9887 128.485 97.4177C128.2 97.998 125.289 100.456 128.574 100.998C132.668 101.673 138.906 97.453 140.687 93.5686C140.666 93.5686 136.137 92.9205 135.007 91.0905L131.514 85.4411L130.498 83.7947L124.522 74.1226L124.521 74.124Z" fill="#F7B686"/>
<path d="M128.186 89.797L128.023 90.4254L128.154 91.0311L128.585 93.0404C131.48 91.3333 132.522 87.4983 132.522 87.4983L128.186 89.7956V89.797Z" fill="#2F1A31"/>
<path d="M115.716 72.5552C115.716 72.5552 115.071 75.1942 115.809 78.4771C116.549 81.76 119.778 73.6099 119.778 73.6099L115.716 72.5552Z" fill="#56335B"/>
<path d="M134.63 81.6398C135.366 75.257 131.664 69.5885 126.36 68.9789C121.056 68.3692 116.159 73.0492 115.423 79.432C114.686 85.8148 118.389 91.4833 123.693 92.0929C128.996 92.7026 133.893 88.0226 134.63 81.6398Z" fill="#F7B686"/>
<path d="M134.822 78.309L130.134 77.8981C129.104 77.8078 128.154 77.2712 127.584 76.4099C126.602 74.9273 124.335 73.2626 119.937 75.3283C114.065 78.0874 111.85 71.4721 111.206 68.5959C110.55 65.6604 113.347 63.6186 116.145 64.9784C118.944 66.3395 117.697 62.914 120.361 62.506C125.338 61.7435 126.334 65.5672 130.416 65.378C135.768 65.1295 145.424 69.0393 141.025 78.518L134.823 78.3076L134.822 78.309Z" fill="#2F1A31"/>
<path d="M123.341 80.108C123.282 80.0995 123.228 80.0656 123.197 80.0091C123.144 79.9145 123.177 79.7959 123.272 79.7437C123.327 79.7126 124.546 78.8697 125.861 79.9738C125.944 80.043 125.958 80.1645 125.891 80.2492C125.823 80.3325 125.712 80.3268 125.615 80.2788C124.644 79.7973 123.511 80.06 123.464 80.0868C123.426 80.108 123.384 80.115 123.343 80.1094L123.341 80.108Z" fill="#2F1A31"/>
<path d="M117.892 79.7296C117.847 79.7239 117.806 79.6915 117.783 79.6364C117.745 79.5446 117.775 79.4246 117.848 79.3695C117.892 79.3371 118.864 78.4602 119.853 79.5178C119.915 79.5842 119.924 79.7056 119.867 79.7903C119.812 79.8764 119.726 79.8722 119.652 79.8284C118.912 79.3794 118.024 79.6759 117.987 79.7028C117.956 79.7254 117.923 79.7338 117.892 79.7296Z" fill="#2F1A31"/>
<path d="M141.023 78.5193C141.023 78.5193 137.904 85.5299 133.33 86.1116C133.33 86.1116 136.95 80.7503 129.09 77.6411C129.09 77.6411 136.242 76.4013 141.023 78.5179V78.5193Z" fill="#56335B"/>
<path d="M134.625 82.4618C133.654 83.1 132.405 82.9151 131.835 82.0495C131.263 81.184 131.587 79.9654 132.558 79.3286C133.528 78.6904 134.778 78.8754 135.348 79.7409C135.918 80.6065 135.595 81.825 134.625 82.4618Z" fill="#F7B686"/>
<path d="M129.077 64.182C128.522 64.182 127.836 63.9561 127.221 63.1019C127.159 63.0171 127.178 62.8971 127.265 62.835C127.351 62.7729 127.471 62.7912 127.532 62.8788C128.619 64.3854 129.888 63.6088 129.943 63.5763C130.032 63.5212 130.151 63.5466 130.207 63.6356C130.264 63.7245 130.237 63.8432 130.148 63.8996C130.14 63.9053 129.69 64.1806 129.077 64.1806V64.182Z" fill="#2F1A31"/>
<path d="M119.484 72.8885C119.238 72.8221 113.429 71.2026 113.129 68.0947C113.041 67.1953 113.19 66.5896 113.582 66.2408C114.206 65.6845 115.306 65.9245 116.277 66.1349C116.421 66.166 116.561 66.197 116.697 66.2224L116.67 66.3523C116.534 66.3241 116.393 66.2945 116.25 66.262C115.309 66.0615 114.245 65.8313 113.671 66.3382C113.313 66.6573 113.178 67.225 113.26 68.0792C113.552 71.0981 119.46 72.743 119.519 72.76L119.484 72.8871V72.8885Z" fill="white"/>
<path d="M130.797 66.5768C127.233 66.5768 124.872 65.008 124.037 64.0422L124.138 63.9575C125.1 65.0702 128.131 66.999 132.708 66.2986L132.728 66.4285C132.05 66.5302 131.405 66.5768 130.795 66.5768H130.797Z" fill="white"/>
<path d="M119.549 82.0564C119.607 82.4772 119.334 82.8612 118.941 82.9149C118.548 82.9685 118.181 82.672 118.125 82.2512C118.068 81.8305 118.34 81.4464 118.733 81.3927C119.126 81.3391 119.493 81.6356 119.549 82.0564Z" fill="#2F1A31"/>
<path d="M125.053 82.5945C124.974 83.011 124.593 83.2892 124.203 83.2158C123.812 83.1423 123.56 82.7442 123.638 82.3276C123.717 81.9111 124.098 81.6329 124.488 81.7063C124.879 81.7798 125.131 82.1779 125.053 82.5945Z" fill="#2F1A31"/>
<path d="M119.089 85.4919C119.089 85.4919 121.937 86.4168 124.785 85.804C124.785 85.804 124.013 88.1973 121.717 88.1889C119.334 88.179 119.088 85.4919 119.088 85.4919H119.089Z" fill="white"/>
<path d="M16.3991 144.773C51.3694 138.919 162.831 123.893 276.626 147.082C282.884 148.357 287.372 153.864 287.372 160.239V193.496C287.372 201.219 280.861 207.353 273.135 206.905C237.556 204.844 136.311 193.004 19.3687 207.007C11.7006 207.925 5.17285 201.303 5.17285 193.596V158.019C5.17285 151.46 9.91799 145.858 16.3991 144.773Z" fill="#189FFF"/>
<path d="M7.38604 167.047C-10.1175 156.77 8.91541 124.256 9.42048 124.056C12.1736 122.973 16.8876 125.227 18.2982 126.444C21.4899 129.2 27.0061 133.524 25.1259 136.87C24.4821 138.018 17.8313 149.703 18.7099 150.715C19.5998 151.741 42.4186 138.747 42.4681 138.699L48.7186 149.321C48.4639 149.571 23.8441 176.708 7.38746 167.046L7.38604 167.047Z" fill="#F7B686"/>
<path d="M42.6618 138.634C42.6618 138.634 49.4569 131.704 55.1372 131.971C60.8175 132.238 67.8716 136.865 64.3148 137.445C60.7581 138.025 56.0087 137.516 56.0087 137.516C56.0087 137.516 66.1045 139.083 64.7152 141.28C63.3259 143.477 54.5586 142.03 54.5586 142.03C54.5586 142.03 66.4228 144.849 64.4365 146.502C62.4502 148.154 53.4522 145.948 53.4522 145.948C53.4522 145.948 64.3856 149.012 62.0328 150.877C59.68 152.743 53.0136 148.286 51.6243 150.485C50.235 152.682 48.8585 153.718 42.2656 150.609L42.6618 138.634Z" fill="#F7B686"/>
<path d="M51.8111 138.148C51.6922 138.148 51.5748 138.097 51.4956 137.997C51.3569 137.822 51.3867 137.571 51.5607 137.431C53.1042 136.207 56.0087 137.092 56.1304 137.131C56.344 137.198 56.4614 137.424 56.3949 137.636C56.3285 137.849 56.1007 137.966 55.8899 137.9C55.8644 137.893 53.274 137.105 52.0629 138.062C51.9894 138.12 51.9002 138.148 51.8125 138.148H51.8111Z" fill="#E08B65"/>
<path d="M49.5457 142.707C49.3985 142.707 49.2571 142.628 49.1863 142.489C49.0845 142.291 49.1623 142.048 49.3618 141.946C51.7881 140.707 54.5681 141.607 54.6855 141.647C54.8963 141.718 55.0109 141.945 54.9416 142.157C54.8723 142.37 54.6459 142.484 54.4323 142.412C54.4083 142.404 51.8475 141.582 49.731 142.662C49.6716 142.692 49.6093 142.706 49.5471 142.706L49.5457 142.707Z" fill="#E08B65"/>
<path d="M8.90584 156.448C12.1909 152.951 16.7819 151.597 21.312 150.496C21.6034 150.425 21.51 149.968 21.2172 150.04C16.6135 151.16 11.9363 152.545 8.59742 156.099C8.3937 156.316 8.69929 156.668 8.90584 156.449V156.448Z" fill="#D17E5A"/>
<path d="M43.4088 150.836C44.4034 151.595 45.5211 152.114 46.7434 152.385C47.0335 152.45 47.1891 152.01 46.8962 151.945C45.7092 151.682 44.6368 151.186 43.6691 150.449C43.43 150.267 43.1697 150.654 43.4074 150.835L43.4088 150.836Z" fill="#D17E5A"/>
<path d="M188.47 130.578C188.47 130.578 183.974 129.251 182.791 133.36C181.284 138.594 183.52 143.25 184.902 141.226C185.175 140.827 186.58 135.865 186.58 135.865C186.58 135.865 185.932 146.235 188.327 145.534C190.722 144.834 191.166 136.05 191.166 136.05C191.166 136.05 190.003 145.421 192.481 145.505C193.937 145.554 196.199 137.838 196.199 137.838C196.199 137.838 195.477 145.276 197.141 144.401C199.689 143.059 199.662 137.393 199.736 134.901C199.804 132.545 198.307 131.738 196.028 131.834C196.028 131.834 193.702 130.611 192.229 131.05C191.664 131.218 191.124 130.67 190.714 130.61C189.928 130.492 188.468 130.578 188.468 130.578H188.47Z" fill="#F7B686"/>
<path d="M91.6761 128.931C87.4587 128.531 83.2625 130.084 80.0722 132.867C78.8442 133.939 77.7958 135.183 77.2837 136.564C75.5251 141.298 76.8649 148.673 78.5796 145.969C80.2943 143.265 81.5294 139.207 81.5294 139.207C81.5294 139.207 79.2997 148.002 81.586 147.632C83.8723 147.262 85.7384 139.594 85.7384 139.594C85.7384 139.594 83.9204 150.27 85.9675 149.222C88.0147 148.175 89.3375 140.054 89.3375 140.054C89.3375 140.054 88.0444 150.055 90.3929 148.782C92.7415 147.508 91.4073 140.51 93.695 140.14C95.9813 139.77 98.542 140.222 103.531 134.204C103.531 134.204 101.309 129.841 91.6761 128.929V128.931Z" fill="#F7B686"/>
<path d="M81.7134 139.225L81.3428 139.19C81.3527 139.078 81.6271 136.487 83.09 135.695L83.2683 136.023C81.9766 136.722 81.7163 139.2 81.7134 139.225Z" fill="#DD8964"/>
<path d="M85.9233 139.608L85.5498 139.58C85.5583 139.473 85.7804 136.956 87.5871 135.451L87.8262 135.736C86.1398 137.141 85.9247 139.584 85.9233 139.607V139.608Z" fill="#DD8964"/>
<path d="M89.523 140.073L89.1523 140.037C89.1651 139.907 89.4834 136.84 91.1132 136.127L91.2632 136.469C89.8328 137.093 89.5258 140.041 89.523 140.071V140.073Z" fill="#DD8964"/>
<path d="M86.0404 47.1295C85.3147 47.2284 84.6384 46.7158 84.5394 45.9915L79.5396 9.46736C79.4405 8.74301 79.9541 8.06807 80.6799 7.96924C81.4057 7.8704 82.0819 8.38295 82.1809 9.1073L87.1807 45.6314C87.2798 46.3558 86.7662 47.0307 86.0404 47.1295Z" fill="#2F1A31"/>
<path d="M207.396 46.6762C206.686 46.4926 206.257 45.7626 206.441 45.0538L215.733 9.3755C215.917 8.66668 216.649 8.23885 217.359 8.42241C218.069 8.60597 218.498 9.33597 218.314 10.0448L209.022 45.7231C208.838 46.4319 208.106 46.8598 207.396 46.6762Z" fill="#2F1A31"/>
<path d="M80.7055 7.65702C90.0571 5.14226 144.837 -7.99354 217.159 7.59631C218.085 7.7954 218.66 8.72308 218.421 9.63946L212.813 31.1611C212.592 32.0083 211.751 32.5392 210.89 32.374C200.354 30.3605 137.318 19.313 84.5013 32.2272C83.5449 32.4616 82.5956 31.8163 82.4598 30.8434L79.4888 9.48838C79.3728 8.65954 79.8934 7.87447 80.7041 7.65561L80.7055 7.65702Z" fill="#189FFF"/>
<path d="M304.25 57.0669C305.025 56.7747 305.421 55.9021 305.129 55.1283L290.38 16.1148C290.087 15.3411 289.212 14.9457 288.437 15.238C287.662 15.5303 287.266 16.4029 287.558 17.1767L302.307 56.1901C302.6 56.9639 303.475 57.3592 304.25 57.0669Z" fill="#2F1A31"/>
<path d="M297.23 39.5088L257.519 34.2632C256.468 34.1249 256.005 32.8654 256.717 32.0803L283.354 2.74608C284.015 2.0189 285.212 2.24623 285.56 3.16403L298.634 37.7452C298.985 38.6743 298.216 39.6401 297.23 39.5102V39.5088Z" fill="#FFCCA1"/>
<path d="M41.5898 163.655L57.3036 161.96C58.6307 161.818 59.8219 162.775 59.9662 164.099L60.0299 164.682C60.1728 166.007 59.2136 167.196 57.8879 167.34L48.1019 168.396C46.7749 168.539 45.8157 169.729 45.96 171.053L46.0604 171.982C46.2033 173.307 47.396 174.264 48.723 174.12L56.7759 173.252C58.103 173.109 59.2942 174.067 59.4385 175.39L59.5022 175.973C59.6451 177.297 58.6859 178.486 57.3602 178.63L49.3073 179.499C47.9803 179.641 47.0211 180.831 47.1654 182.156L47.7737 187.773C47.9166 189.097 46.9574 190.286 45.6303 190.43L44.507 190.552C43.18 190.694 41.9887 189.737 41.8444 188.414L39.4506 166.315C39.3077 164.99 40.2669 163.801 41.5926 163.657L41.5898 163.655Z" fill="#CE6851"/>
<path d="M64.9278 174.754C64.3421 167.086 69.9234 160.343 78.2635 159.708C86.6035 159.072 93.062 164.822 93.6533 172.567C94.2391 180.235 88.6578 186.978 80.3177 187.613C71.9776 188.249 65.5192 182.499 64.9278 174.754ZM87.4383 173.041C87.0846 168.417 83.3934 164.822 78.6044 165.186C73.8168 165.551 70.785 169.579 71.1443 174.281C71.498 178.905 75.1892 182.5 79.9782 182.136C84.7658 181.772 87.7976 177.743 87.4383 173.041Z" fill="#CE6851"/>
<path d="M97.9938 172.314C97.6769 164.63 103.492 158.087 111.849 157.744C120.206 157.401 126.458 163.371 126.777 171.132C127.094 178.816 121.28 185.36 112.922 185.703C104.565 186.046 98.3135 180.076 97.9938 172.314ZM120.549 171.388C120.358 166.755 116.795 163.033 111.997 163.229C107.2 163.426 104.029 167.347 104.223 172.057C104.414 176.691 107.978 180.412 112.775 180.216C117.573 180.019 120.743 176.098 120.549 171.388Z" fill="#CE6851"/>
<path d="M134.949 163.018L131.534 163.053C130.2 163.067 129.106 161.998 129.092 160.667L129.085 160.002C129.071 158.67 130.142 157.579 131.476 157.564L149.101 157.38C150.435 157.365 151.529 158.434 151.543 159.766L151.55 160.431C151.564 161.762 150.493 162.854 149.159 162.868L145.744 162.903C144.41 162.917 143.339 164.009 143.353 165.34L143.528 182.081C143.543 183.412 142.472 184.504 141.138 184.518L140.007 184.529C138.673 184.543 137.579 183.475 137.565 182.143L137.39 165.402C137.376 164.071 136.282 163.002 134.948 163.016L134.949 163.018Z" fill="#CE6851"/>
<path d="M156.669 159.797C156.696 158.465 157.799 157.408 159.134 157.435L169.299 157.641C172.396 157.703 174.818 158.602 176.334 160.18C177.548 161.44 178.137 162.96 178.097 164.893C178.063 166.563 177.55 167.82 176.772 168.784C175.93 169.829 176.095 171.339 177.132 172.19C178.588 173.386 179.402 175.028 179.352 177.479C179.252 182.426 175.176 184.816 169.058 184.693L158.583 184.481C157.249 184.455 156.189 183.353 156.216 182.022L156.668 159.798L156.669 159.797ZM169.166 179.476C171.799 179.53 173.404 178.634 173.447 176.547C173.484 174.732 172.151 173.584 169.094 173.521L164.619 173.431C163.285 173.404 162.181 174.462 162.154 175.793L162.131 176.922C162.105 178.253 163.164 179.354 164.498 179.381L169.167 179.476H169.166ZM167.799 168.548C170.432 168.602 172.114 167.786 172.157 165.699C172.193 163.921 170.82 162.889 168.303 162.838L164.834 162.768C163.5 162.741 162.396 163.798 162.369 165.13L162.351 166.027C162.324 167.358 163.384 168.459 164.718 168.486L167.799 168.548Z" fill="#CE6851"/>
<path d="M196.3 158.491L198.599 158.621C199.567 158.676 200.407 159.301 200.736 160.212L209.005 183.14C209.592 184.767 208.323 186.462 206.594 186.365L205.641 186.311C204.66 186.256 203.811 185.614 203.492 184.686L202.416 181.556C202.098 180.628 201.249 179.986 200.267 179.93L192.067 179.466C191.087 179.411 190.17 179.953 189.748 180.838L188.324 183.828C187.902 184.713 186.985 185.255 186.005 185.2L185.206 185.155C183.477 185.057 182.409 183.227 183.177 181.679L193.997 159.834C194.426 158.967 195.333 158.44 196.3 158.495V158.491ZM198.889 171.254C198.185 169.215 195.357 169.054 194.424 171.001C193.684 172.549 194.753 174.35 196.467 174.448C198.182 174.545 199.448 172.875 198.889 171.254Z" fill="#CE6851"/>
<path d="M219.109 160.256L220.233 160.362C221.562 160.486 222.538 161.662 222.412 162.988L220.833 179.731C220.709 181.057 221.683 182.233 223.012 182.358L231.655 183.17C232.983 183.294 233.959 184.47 233.833 185.796L233.778 186.381C233.654 187.706 232.475 188.681 231.147 188.555L216.568 187.187C215.239 187.063 214.263 185.886 214.389 184.56L216.474 162.43C216.599 161.104 217.777 160.13 219.106 160.256H219.109Z" fill="#CE6851"/>
<path d="M243.677 162.77L244.798 162.916C246.12 163.088 247.054 164.298 246.881 165.618L244.708 182.296C244.536 183.616 245.47 184.826 246.792 184.998L255.401 186.115C256.724 186.287 257.658 187.497 257.485 188.818L257.409 189.399C257.236 190.719 256.024 191.651 254.701 191.479L240.18 189.594C238.857 189.422 237.923 188.212 238.096 186.892L240.969 164.849C241.142 163.529 242.354 162.597 243.677 162.769V162.77Z" fill="#CE6851"/>
<path d="M42.6196 161.842L58.3335 160.147C59.6605 160.005 60.8517 160.962 60.9961 162.285L61.0597 162.868C61.2026 164.193 60.2434 165.381 58.9178 165.525L49.1318 166.582C47.8047 166.724 46.8455 167.915 46.9898 169.239L47.0903 170.168C47.2332 171.493 48.4258 172.45 49.7529 172.307L57.8057 171.439C59.1328 171.296 60.324 172.254 60.4683 173.577L60.532 174.16C60.6749 175.484 59.7157 176.673 58.39 176.817L50.3372 177.686C49.0101 177.828 48.0509 179.018 48.1952 180.343L48.8036 185.96C48.9464 187.284 47.9872 188.473 46.6602 188.617L45.5368 188.739C44.2098 188.881 43.0186 187.924 42.8757 186.601L40.4819 164.502C40.339 163.177 41.2982 161.988 42.6238 161.844L42.6196 161.842Z" fill="white"/>
<path d="M65.9562 172.941C65.3704 165.273 70.9517 158.53 79.2918 157.895C87.6319 157.26 94.0903 163.009 94.6817 170.754C95.2674 178.423 89.6861 185.165 81.346 185.8C73.006 186.436 66.5475 180.686 65.9562 172.941ZM88.4666 171.228C88.1129 166.604 84.4203 163.009 79.6327 163.373C74.8452 163.738 71.8133 167.766 72.1727 172.468C72.5264 177.092 76.2175 180.687 81.0065 180.323C85.7941 179.959 88.8259 175.93 88.4666 171.228Z" fill="white"/>
<path d="M99.0221 170.501C98.7052 162.817 104.52 156.274 112.877 155.931C121.234 155.588 127.486 161.558 127.806 169.319C128.123 177.003 122.308 183.547 113.951 183.89C105.594 184.233 99.3419 178.263 99.0221 170.501ZM121.578 169.575C121.387 164.942 117.823 161.22 113.026 161.416C108.228 161.613 105.058 165.534 105.251 170.244C105.442 174.878 109.006 178.599 113.804 178.403C118.601 178.206 121.772 174.285 121.578 169.575Z" fill="white"/>
<path d="M135.979 161.205L132.563 161.24C131.229 161.254 130.136 160.185 130.121 158.854L130.114 158.189C130.1 156.857 131.171 155.766 132.505 155.752L150.131 155.567C151.465 155.552 152.558 156.621 152.572 157.953L152.58 158.618C152.594 159.949 151.523 161.041 150.189 161.055L146.773 161.09C145.439 161.104 144.368 162.196 144.382 163.527L144.558 180.268C144.572 181.6 143.501 182.691 142.167 182.705L141.036 182.716C139.702 182.731 138.609 181.662 138.595 180.33L138.419 163.59C138.405 162.258 137.311 161.189 135.977 161.203L135.979 161.205Z" fill="white"/>
<path d="M157.698 157.984C157.725 156.652 158.829 155.595 160.163 155.622L170.328 155.828C173.425 155.89 175.847 156.789 177.364 158.367C178.578 159.627 179.166 161.147 179.126 163.08C179.093 164.75 178.579 166.007 177.801 166.971C176.959 168.015 177.125 169.526 178.162 170.377C179.617 171.573 180.431 173.215 180.381 175.666C180.281 180.611 176.205 183.003 170.087 182.88L159.613 182.668C158.278 182.642 157.219 181.54 157.246 180.209L157.697 157.985L157.698 157.984ZM170.195 177.663C172.828 177.717 174.434 176.821 174.476 174.734C174.513 172.919 173.18 171.771 170.123 171.708L165.648 171.618C164.314 171.591 163.21 172.649 163.183 173.98L163.161 175.109C163.134 176.44 164.194 177.541 165.528 177.568L170.196 177.663H170.195ZM168.828 166.735C171.461 166.789 173.143 165.973 173.186 163.886C173.223 162.108 171.849 161.076 169.332 161.025L165.863 160.955C164.529 160.928 163.425 161.985 163.398 163.317L163.38 164.214C163.353 165.545 164.413 166.646 165.747 166.673L168.828 166.735Z" fill="white"/>
<path d="M197.331 156.678L199.63 156.808C200.597 156.863 201.438 157.488 201.766 158.399L210.035 181.327C210.622 182.954 209.353 184.649 207.624 184.552L206.671 184.498C205.69 184.443 204.842 183.801 204.522 182.873L203.447 179.743C203.128 178.815 202.279 178.173 201.298 178.117L193.098 177.653C192.117 177.598 191.2 178.14 190.779 179.025L189.354 182.015C188.932 182.9 188.016 183.442 187.035 183.387L186.236 183.342C184.507 183.244 183.439 181.415 184.207 179.866L195.027 158.021C195.456 157.154 196.363 156.627 197.331 156.682V156.678ZM199.92 169.441C199.215 167.402 196.387 167.241 195.455 169.188C194.715 170.736 195.783 172.537 197.497 172.635C199.212 172.732 200.478 171.062 199.92 169.441Z" fill="white"/>
<path d="M220.138 158.443L221.263 158.549C222.591 158.673 223.567 159.849 223.441 161.175L221.862 177.918C221.738 179.244 222.713 180.421 224.041 180.545L232.684 181.357C234.012 181.481 234.989 182.657 234.863 183.983L234.808 184.568C234.683 185.893 233.505 186.868 232.176 186.742L217.597 185.374C216.268 185.25 215.292 184.073 215.418 182.747L217.504 160.617C217.628 159.291 218.807 158.317 220.135 158.443H220.138Z" fill="white"/>
<path d="M244.707 160.959L245.828 161.104C247.151 161.277 248.084 162.487 247.912 163.807L245.739 180.484C245.566 181.804 246.5 183.014 247.823 183.187L256.432 184.303C257.754 184.476 258.688 185.686 258.515 187.006L258.439 187.588C258.266 188.908 257.054 189.84 255.731 189.668L241.21 187.783C239.887 187.61 238.953 186.4 239.126 185.08L241.999 163.037C242.172 161.717 243.384 160.785 244.707 160.958V160.959Z" fill="white"/>
<path d="M127.426 83.6875C128.347 83.6861 129.232 83.8273 130.108 84.1125C130.582 84.2664 130.784 83.5223 130.313 83.3698C129.375 83.0648 128.412 82.9166 127.426 82.918C126.929 82.918 126.928 83.6889 127.426 83.6889V83.6875Z" fill="#E28569"/>
<path d="M127.324 85.1094C128.146 85.1461 128.921 85.3537 129.651 85.7349C130.091 85.9651 130.482 85.3 130.04 85.0698C129.19 84.6265 128.283 84.3822 127.324 84.3398C126.827 84.3173 126.829 85.0882 127.324 85.1108V85.1094Z" fill="#E28569"/>
<path d="M115.886 83.5731C116.313 83.381 116.77 83.285 117.237 83.2723C117.732 83.2582 117.735 82.4887 117.237 82.5014C116.626 82.5183 116.051 82.6581 115.497 82.908C115.044 83.1114 115.437 83.775 115.886 83.5731Z" fill="#E28569"/>
<path d="M116.097 85.2278C116.522 84.9906 116.963 84.8296 117.438 84.7308C117.924 84.6291 117.718 83.8864 117.233 83.988C116.697 84.101 116.186 84.2959 115.707 84.5627C115.274 84.8056 115.661 85.4706 116.096 85.2278H116.097Z" fill="#E28569"/>
<path d="M306.327 50.161C306.327 50.161 308.244 53.009 305.623 54.7373C302.285 56.9386 298.53 56.4006 299.645 54.9914C299.865 54.7133 303.034 52.6419 303.034 52.6419C303.034 52.6419 295.187 55.4899 295.151 53.6627C295.116 51.8356 301.897 49.479 301.897 49.479C301.897 49.479 293.994 51.5334 294.522 49.7967C295.049 48.0599 301.194 45.8812 301.194 45.8812C301.194 45.8812 293.579 48.3028 294.239 46.3006C294.898 44.297 299.09 43.8409 300.822 43.2422C302.459 42.6774 303.353 43.5458 303.786 45.1583C303.786 45.1583 305.154 46.5138 305.169 47.6392C305.175 48.0712 305.679 48.3282 305.812 48.6007C306.066 49.1232 306.327 50.161 306.327 50.161Z" fill="#F7B686"/>
<path d="M202.022 43.7887C202.022 43.7887 199.921 46.9092 202.791 48.8027C206.449 51.2144 210.563 50.6242 209.342 49.0808C209.101 48.7759 205.628 46.5068 205.628 46.5068C205.628 46.5068 214.226 49.6259 214.265 47.6251C214.303 45.6243 206.875 43.0417 206.875 43.0417C206.875 43.0417 215.532 45.2925 214.954 43.3891C214.377 41.4871 207.646 39.0994 207.646 39.0994C207.646 39.0994 215.988 41.7526 215.266 39.5583C214.543 37.3641 209.95 36.8643 208.053 36.2091C206.261 35.5906 205.28 36.5409 204.805 38.3087C204.805 38.3087 203.306 39.7941 203.289 41.0268C203.282 41.4998 202.732 41.7808 202.586 42.0802C202.308 42.6534 202.023 43.7901 202.023 43.7901L202.022 43.7887Z" fill="#F7B686"/>
<path d="M95.6084 45.651C95.6084 45.651 97.7093 48.7715 94.8388 50.665C91.1816 53.0767 87.0674 52.4865 88.2884 50.9431C88.5289 50.6382 92.0021 48.3691 92.0021 48.3691C92.0021 48.3691 83.4046 51.4882 83.365 49.4874C83.3268 47.4866 90.7557 44.904 90.7557 44.904C90.7557 44.904 82.0987 47.1548 82.676 45.2514C83.2532 43.348 89.9847 40.9617 89.9847 40.9617C89.9847 40.9617 81.6418 43.6149 82.3647 41.4206C83.0877 39.2264 87.68 38.7266 89.5772 38.0714C91.3697 37.4529 92.3502 38.4032 92.8255 40.171C92.8255 40.171 94.3238 41.6564 94.3408 42.8891C94.3478 43.3621 94.8982 43.6431 95.0439 43.9425C95.3226 44.5157 95.607 45.6524 95.607 45.6524L95.6084 45.651Z" fill="#EFA878"/>
<path d="M253.459 95.5819C254.544 95.829 255.53 96.2625 256.445 96.8923C256.856 97.1747 257.242 96.5068 256.835 96.2272C255.87 95.5636 254.804 95.099 253.663 94.8392C253.179 94.7291 252.972 95.4718 253.457 95.5819H253.459Z" fill="#E28569"/>
<path d="M253.136 97.0068C253.873 97.2935 254.562 97.6719 255.21 98.1251C255.617 98.4104 256.003 97.7425 255.599 97.4601C254.894 96.9687 254.14 96.5762 253.339 96.2641C252.877 96.0834 252.676 96.8289 253.134 97.0068H253.136Z" fill="#E28569"/>
<path d="M242.547 91.9406C243.232 91.8615 243.892 91.9547 244.515 92.2597C244.959 92.4772 245.351 91.8135 244.904 91.5947C244.164 91.2332 243.369 91.0765 242.547 91.1711C242.059 91.2275 242.053 91.9985 242.547 91.942V91.9406Z" fill="#E28569"/>
<path d="M243.062 93.2381C243.563 93.2113 244.059 93.2353 244.554 93.3243C245.04 93.4118 245.249 92.6691 244.76 92.5815C244.196 92.4813 243.633 92.4375 243.062 92.4686C242.568 92.4954 242.565 93.2649 243.062 93.2395V93.2381Z" fill="#E28569"/>
<path d="M103.105 16.2407C102.549 12.1474 105.289 8.36322 109.658 7.77301C112.076 7.44684 113.683 7.84643 115.248 8.76846C115.439 8.88142 115.501 9.12994 115.383 9.31773L114.127 11.3284C114.014 11.5091 113.776 11.567 113.592 11.4583C112.487 10.8159 111.472 10.501 109.952 10.7071C107.643 11.0192 106.085 13.3038 106.424 15.7917C106.78 18.4251 108.857 20.1124 111.412 19.7679C112.479 19.6239 113.408 19.2469 114.116 18.6496C114.22 18.5621 114.274 18.4265 114.256 18.2924L114.058 16.8338C114.028 16.6178 113.83 16.4667 113.613 16.4963L111.201 16.8225C110.985 16.8521 110.787 16.7011 110.757 16.485L110.493 14.5308C110.463 14.3148 110.614 14.1171 110.831 14.0875L116.313 13.3462C116.529 13.3165 116.727 13.4676 116.757 13.6836L117.528 19.3627C117.544 19.4785 117.508 19.5971 117.428 19.6832C116.119 21.0825 114.256 22.318 111.701 22.6625C107.207 23.2697 103.689 20.5403 103.106 16.2407H103.105Z" fill="#CE6851"/>
<path d="M119.571 14.1157C119.338 9.99126 122.406 6.4288 126.891 6.17605C131.376 5.9233 134.784 9.0777 135.02 13.2431C135.254 17.3675 132.185 20.93 127.7 21.1827C123.216 21.4355 119.807 18.2811 119.571 14.1157ZM131.677 13.4323C131.536 10.9458 129.592 8.97604 127.017 9.12147C124.442 9.26691 122.771 11.399 122.916 13.9279C123.057 16.4144 125.001 18.3842 127.576 18.2387C130.151 18.0933 131.822 15.9612 131.677 13.4323Z" fill="#CE6851"/>
<path d="M142.441 5.8894L144.872 5.89788C145.03 5.89788 145.173 5.99389 145.234 6.13933L151.087 20.0051C151.197 20.2649 151.005 20.553 150.722 20.553L148.236 20.5445C148.076 20.5445 147.932 20.4471 147.871 20.2974L146.751 17.5257C146.691 17.3774 146.547 17.28 146.386 17.2786L140.761 17.2588C140.601 17.2588 140.455 17.3548 140.394 17.5031L139.254 20.2663C139.193 20.4146 139.047 20.5106 138.887 20.5106L136.485 20.5021C136.202 20.5021 136.013 20.2113 136.124 19.9529L142.078 6.12944C142.14 5.98401 142.284 5.89082 142.441 5.89082V5.8894ZM145.296 13.9081L143.962 10.6252C143.829 10.2991 143.367 10.2962 143.231 10.6224L141.873 13.8954C141.765 14.1538 141.955 14.439 142.236 14.4405L144.927 14.4503C145.207 14.4503 145.4 14.1679 145.295 13.9081H145.296Z" fill="#CE6851"/>
<path d="M154.534 6.19995L156.943 6.32279C157.161 6.33409 157.328 6.51906 157.318 6.73651L156.764 17.558C156.752 17.7755 156.921 17.9605 157.139 17.9718L163.599 18.3022C163.816 18.3135 163.983 18.4984 163.973 18.7159L163.865 20.8311C163.853 21.0485 163.668 21.2151 163.45 21.2052L153.791 20.7124C153.573 20.7011 153.407 20.5162 153.416 20.2987L154.12 6.57554C154.131 6.35809 154.316 6.19148 154.534 6.20136V6.19995Z" fill="#CE6851"/>
<path d="M166.744 18.1526L169.314 18.3587C169.532 18.3757 169.693 18.5663 169.676 18.7837L169.474 21.3084C169.457 21.5258 169.266 21.6868 169.048 21.6699L166.478 21.4637C166.26 21.4468 166.099 21.2561 166.115 21.0387L166.318 18.5141C166.335 18.2966 166.526 18.1356 166.744 18.1526ZM167.051 7.32681C167.068 7.10936 167.259 6.94839 167.476 6.96534L170.38 7.1969C170.597 7.21385 170.759 7.40447 170.742 7.62191C170.742 7.63603 170.739 7.65015 170.736 7.66286L169.096 16.3622C169.06 16.5598 168.879 16.6982 168.676 16.6827L167.643 16.5994C167.443 16.5839 167.285 16.4186 167.28 16.2167L167.049 7.36775C167.049 7.35363 167.049 7.33951 167.049 7.32539L167.051 7.32681Z" fill="#CE6851"/>
<path d="M173.455 18.7286L176.022 18.9827C176.238 19.0039 176.397 19.1974 176.375 19.4134L176.125 21.9338C176.104 22.1498 175.91 22.308 175.693 22.2868L173.127 22.0327C172.911 22.0115 172.752 21.818 172.773 21.602L173.024 19.0816C173.045 18.8655 173.239 18.7074 173.455 18.7286ZM173.966 7.91128C173.987 7.69525 174.181 7.53569 174.398 7.55828L177.295 7.84492C177.511 7.8661 177.67 8.05954 177.649 8.27558C177.649 8.2897 177.646 8.30382 177.643 8.31653L175.841 16.9834C175.8 17.181 175.616 17.3152 175.415 17.2954L174.383 17.1937C174.183 17.174 174.028 17.0059 174.027 16.804L173.963 7.95223C173.963 7.93811 173.963 7.92399 173.965 7.91128H173.966Z" fill="#CE6851"/>
<path d="M180.152 19.4305L182.714 19.7299C182.931 19.7553 183.086 19.9516 183.061 20.1676L182.765 22.6838C182.74 22.8998 182.543 23.0551 182.327 23.0297L179.764 22.7304C179.548 22.705 179.392 22.5087 179.418 22.2927L179.713 19.7765C179.739 19.5604 179.936 19.4051 180.152 19.4305ZM180.857 8.62454C180.882 8.40851 181.079 8.25319 181.295 8.2786L184.187 8.61748C184.403 8.6429 184.559 8.83917 184.534 9.0552C184.532 9.06932 184.529 9.08344 184.527 9.09615L182.568 17.7291C182.523 17.9254 182.338 18.0567 182.137 18.0341L181.107 17.9141C180.906 17.8901 180.756 17.7192 180.758 17.5187L180.854 8.66831C180.854 8.65419 180.854 8.64007 180.857 8.62737V8.62454Z" fill="#CE6851"/>
<path d="M104.023 15.2481C103.467 11.1547 106.207 7.37055 110.576 6.78033C112.994 6.45416 114.601 6.85376 116.166 7.77579C116.357 7.88875 116.419 8.13726 116.301 8.32506L115.045 10.3357C114.932 10.5165 114.694 10.5744 114.51 10.4656C113.405 9.82318 112.389 9.50831 110.87 9.71446C108.561 10.0265 107.003 12.3111 107.342 14.7991C107.698 17.4324 109.775 19.1198 112.33 18.7752C113.397 18.6312 114.326 18.2542 115.034 17.6569C115.138 17.5694 115.192 17.4338 115.174 17.2997L114.976 15.8411C114.946 15.6251 114.748 15.474 114.531 15.5036L112.119 15.8298C111.903 15.8595 111.705 15.7084 111.675 15.4923L111.41 13.5381C111.381 13.3221 111.532 13.1244 111.749 13.0948L117.231 12.3535C117.447 12.3238 117.645 12.4749 117.675 12.6909L118.446 18.37C118.462 18.4858 118.426 18.6044 118.346 18.6905C117.037 20.0898 115.174 21.3253 112.619 21.6698C108.125 22.277 104.607 19.5476 104.024 15.2481H104.023Z" fill="white"/>
<path d="M120.489 13.123C120.256 8.99859 123.324 5.43612 127.809 5.18338C132.294 4.93063 135.702 8.08503 135.938 12.2504C136.172 16.3749 133.103 19.9373 128.618 20.1901C124.133 20.4428 120.725 17.2884 120.489 13.123ZM132.595 12.4396C132.454 9.9531 130.51 7.98336 127.935 8.1288C125.36 8.27424 123.689 10.4063 123.834 12.9352C123.975 15.4218 125.919 17.3915 128.494 17.2461C131.069 17.1006 132.74 14.9685 132.595 12.4396Z" fill="white"/>
<path d="M143.359 4.89673L145.79 4.9052C145.948 4.9052 146.091 5.00122 146.152 5.14665L152.005 19.0125C152.115 19.2723 151.923 19.5603 151.64 19.5603L149.154 19.5518C148.994 19.5518 148.85 19.4544 148.789 19.3047L147.669 16.533C147.609 16.3847 147.465 16.2873 147.304 16.2859L141.679 16.2661C141.519 16.2661 141.373 16.3621 141.312 16.5104L140.172 19.2737C140.111 19.4219 139.965 19.5179 139.805 19.5179L137.403 19.5095C137.12 19.5095 136.931 19.2186 137.042 18.9602L142.996 5.13677C143.058 4.99133 143.202 4.89814 143.359 4.89814V4.89673ZM146.214 12.9155L144.88 9.63256C144.747 9.30639 144.285 9.30357 144.149 9.62974L142.791 12.9027C142.683 13.1611 142.873 13.4464 143.154 13.4478L145.845 13.4577C146.125 13.4577 146.318 13.1753 146.213 12.9155H146.214Z" fill="white"/>
<path d="M155.452 5.20728L157.861 5.33012C158.079 5.34141 158.246 5.52639 158.236 5.74383L157.682 16.5654C157.67 16.7828 157.839 16.9678 158.057 16.9791L164.517 17.3095C164.734 17.3208 164.901 17.5058 164.891 17.7232L164.782 19.8384C164.771 20.0558 164.586 20.2224 164.368 20.2126L154.709 19.7198C154.491 19.7085 154.324 19.5235 154.334 19.3061L155.038 5.58287C155.049 5.36542 155.234 5.1988 155.452 5.20869V5.20728Z" fill="white"/>
<path d="M167.662 17.1599L170.232 17.3661C170.45 17.383 170.611 17.5736 170.594 17.7911L170.392 20.3157C170.375 20.5332 170.184 20.6941 169.966 20.6772L167.396 20.471C167.178 20.4541 167.016 20.2635 167.033 20.046L167.236 17.5214C167.253 17.3039 167.444 17.143 167.662 17.1599ZM167.969 6.33413C167.986 6.11668 168.177 5.95572 168.394 5.97266L171.298 6.20423C171.515 6.22117 171.677 6.41179 171.66 6.62924C171.66 6.64336 171.657 6.65748 171.654 6.67019L170.014 15.3695C169.978 15.5672 169.796 15.7055 169.594 15.69L168.561 15.6067C168.36 15.5912 168.203 15.426 168.198 15.2241L167.967 6.37508C167.967 6.36096 167.967 6.34684 167.967 6.33272L167.969 6.33413Z" fill="white"/>
<path d="M174.372 17.7359L176.939 17.9901C177.155 18.0112 177.314 18.2047 177.292 18.4207L177.042 20.9411C177.021 21.1572 176.827 21.3153 176.61 21.2941L174.044 21.04C173.828 21.0188 173.669 20.8254 173.69 20.6093L173.941 18.0889C173.962 17.8729 174.156 17.7147 174.372 17.7359ZM174.883 6.91861C174.904 6.70257 175.098 6.54302 175.315 6.56561L178.212 6.85224C178.428 6.87342 178.587 7.06687 178.566 7.2829C178.566 7.29702 178.563 7.31114 178.56 7.32385L176.758 15.9907C176.717 16.1884 176.533 16.3225 176.332 16.3027L175.3 16.2011C175.099 16.1813 174.945 16.0133 174.944 15.8114L174.88 6.95956C174.88 6.94544 174.88 6.93132 174.882 6.91861H174.883Z" fill="white"/>
<path d="M181.07 18.4364L183.632 18.7357C183.849 18.7612 184.004 18.9574 183.979 19.1735L183.683 21.6896C183.658 21.9057 183.461 22.061 183.244 22.0356L180.682 21.7362C180.466 21.7108 180.31 21.5146 180.336 21.2985L180.631 18.7823C180.657 18.5663 180.854 18.411 181.07 18.4364ZM181.775 7.6304C181.8 7.41437 181.997 7.25905 182.213 7.28446L185.105 7.62334C185.321 7.64876 185.477 7.84502 185.452 8.06106C185.45 8.07518 185.447 8.0893 185.444 8.10201L183.486 16.7349C183.441 16.9312 183.256 17.0625 183.055 17.0399L182.025 16.9199C181.824 16.8959 181.674 16.7251 181.676 16.5246L181.772 7.67417C181.772 7.66005 181.772 7.64593 181.775 7.63323V7.6304Z" fill="white"/>
<path d="M45.1846 40.0242C45.1846 40.0242 46.0518 47.4894 54.5588 48.6458L57.3346 45.0862C57.3346 45.0862 50.6965 43.5443 49.9241 37.2256L45.186 40.0242H45.1846Z" fill="#79A39B"/>
<path d="M163.364 80.3268C163.364 80.3268 170.821 79.2861 171.779 70.7718L168.148 68.0862C168.148 68.0862 166.759 74.7466 160.449 75.6644L163.364 80.3268Z" fill="#E28569"/>
<path d="M141.347 45.9206C141.347 45.9206 144.097 52.9171 152.617 51.8666L154.389 47.7167C154.389 47.7167 147.576 47.9172 145.213 42.0066L141.348 45.9206H141.347Z" fill="#7FA1D3"/>
<path d="M229.078 57.3947C229.078 57.3947 235.268 61.6745 241.756 56.0646L240.911 51.6338C240.911 51.6338 235.367 55.5902 230.104 51.9953L229.08 57.3947H229.078Z" fill="#79A39B"/>
<path d="M238.861 37.8935C238.861 37.8935 245.806 34.989 244.558 26.5128L240.361 24.8396C240.361 24.8396 240.719 31.6327 234.852 34.1263L238.861 37.8935Z" fill="#E28569"/>
<path d="M90.8635 100.893C90.8635 100.893 98.0123 103.252 102.647 96.0396L100.582 92.0281C100.582 92.0281 96.3825 97.3866 90.3174 95.4239L90.8635 100.893Z" fill="#E28569"/>
<path d="M52.1666 21.4439C53.6493 19.7678 57.6403 18.5168 58.3222 21.602C58.4807 22.3165 58.3972 25.0628 57.131 24.7847C56.1449 24.5686 56.5212 23.3458 57.0914 22.9434C57.6403 22.5551 58.3505 22.5156 58.9815 22.6907C60.2576 23.0451 61.1023 24.1577 61.4277 25.3946C61.6073 26.078 61.6441 26.7897 61.6003 27.4914C61.5819 27.7908 61.5691 28.1043 61.4857 28.3937C61.3682 28.8004 60.6793 29.8735 60.2973 29.0348C59.9224 28.2158 61.0825 27.9419 61.654 28.1141C62.3784 28.3316 62.8905 28.9797 63.1622 29.656C63.7238 31.0581 63.2909 32.6085 62.9188 34.0007C62.7901 34.4808 63.5357 34.6856 63.663 34.2055C64.1355 32.4377 64.601 30.434 63.5739 28.7622C62.8905 27.6496 61.2282 26.681 60.0242 27.6538C59.164 28.3499 59.3762 30.0712 60.6538 30.0923C62.4505 30.1206 62.4718 27.4674 62.3558 26.2559C62.2001 24.6435 61.4673 23.0634 59.9874 22.2699C58.7467 21.6048 56.9881 21.6147 56.0926 22.8516C55.3767 23.84 55.8407 25.4991 57.2102 25.5725C58.6703 25.6502 59.1471 23.5986 59.1739 22.4986C59.2136 20.8452 58.3293 19.299 56.6118 19.0011C54.7598 18.6792 52.8372 19.5221 51.6191 20.8974C51.2908 21.2674 51.8355 21.8152 52.1652 21.4425L52.1666 21.4439Z" fill="#E28569"/>
<path d="M186.618 53.7927C184.995 53.3493 183.161 54.0723 182.331 55.5549C181.708 56.6647 181.822 59.0128 183.647 58.6443C184.293 58.513 184.732 57.9115 184.513 57.2535C184.259 56.4896 183.413 56.234 182.69 56.3385C180.913 56.5941 178.517 57.7985 178.626 59.877C178.651 60.3698 179.424 60.3726 179.398 59.877C179.336 58.6782 180.342 57.975 181.341 57.5684C181.829 57.3693 182.543 57.0233 183.081 57.077C183.268 57.149 183.456 57.2196 183.642 57.2916C183.756 57.7336 183.668 57.9326 183.376 57.8903C182.992 57.9411 182.805 57.5966 182.731 57.2747C182.296 55.3416 184.859 54.1118 186.411 54.5368C186.891 54.6681 187.096 53.9254 186.616 53.7941L186.618 53.7927Z" fill="#E28569"/>
<path d="M269.269 53.8617C270.159 54.1639 270.847 54.8798 271.1 55.7877C271.21 56.183 271.282 56.8015 271.04 57.1658C270.603 57.8238 270.204 57.2392 270.408 56.841C270.514 56.6349 270.816 56.4767 271.023 56.4217C272.012 56.159 272.824 57.1884 272.965 58.0582C273.112 58.9717 272.74 59.8528 272.035 60.4317C271.652 60.7466 272.201 61.2888 272.581 60.9768C273.866 59.922 274.188 57.8831 273.119 56.5586C272.218 55.4417 269.977 55.1466 269.554 56.8933C269.402 57.5188 269.736 58.1358 270.394 58.2318C271.162 58.3434 271.724 57.7588 271.895 57.0571C272.312 55.3485 271.04 53.6513 269.473 53.119C269.002 52.9594 268.799 53.7022 269.268 53.8617H269.269Z" fill="#E28569"/>
<path d="M99.7219 79.8523C98.027 80.4482 96.4056 81.8051 96.54 83.765C96.6249 85.0146 98.0496 87.021 99.4842 85.9649C100.085 85.5215 100.049 84.6884 99.5747 84.1603C98.9819 83.4967 97.9888 83.5433 97.1866 83.6831C95.2455 84.0234 93.5605 85.3295 92.6834 87.0775C92.4613 87.5195 93.1276 87.9106 93.3497 87.4658C93.8591 86.4534 94.6216 85.6218 95.6134 85.0612C96.1001 84.7859 96.6263 84.5839 97.1739 84.4682C97.6252 84.3721 99.3003 84.1434 99.1729 85.0626C99.0909 85.6571 98.3764 85.4114 98.109 85.2476C97.8402 85.0838 97.6322 84.7971 97.5035 84.5147C97.2743 84.0135 97.2389 83.4106 97.3917 82.8825C97.7313 81.7105 98.8306 80.9791 99.9256 80.5936C100.391 80.4298 100.19 79.6857 99.7204 79.8509L99.7219 79.8523Z" fill="#E28569"/>
<path d="M182.272 88.734C182.478 87.778 183.635 87.1257 183.335 86.0356C183.181 85.4708 182.539 85.1291 181.976 85.3423C181.27 85.6106 181.442 86.3816 181.771 86.8871C182.182 87.521 182.847 87.9658 183.565 88.1861C184.934 88.6055 187.13 88.1211 187.414 86.462C187.708 84.7521 184.999 84.618 185.442 86.3971C185.926 88.3428 188.216 89.3665 190.054 88.9641C190.539 88.8582 190.334 88.1155 189.849 88.2214C188.757 88.46 187.595 88.0986 186.827 87.281C186.662 87.1045 186.514 86.9125 186.398 86.6993C186.315 86.5468 186.021 85.9693 186.295 85.8238C186.732 86.0455 186.796 86.342 186.489 86.7134C186.353 86.8998 186.19 87.0565 185.998 87.1822C185.82 87.3036 185.622 87.3911 185.417 87.4561C184.539 87.7343 183.492 87.5168 182.801 86.9096C182.562 86.7007 182.47 86.5129 182.363 86.2347C182.305 85.8549 182.375 85.9806 182.569 86.6145C182.492 86.8165 182.389 87.0043 182.259 87.1765C181.955 87.6227 181.643 87.9856 181.526 88.5278C181.421 89.0107 182.165 89.2183 182.27 88.7325L182.272 88.734Z" fill="#E28569"/>
<path d="M159.839 119.09C160.971 119.6 162.103 120.113 163.236 120.621C164.332 121.114 165.084 121.238 166.22 120.783C168.125 120.021 169.726 118.678 171.091 117.171C173.992 113.968 176.042 110.004 177.05 105.808C177.63 103.395 177.859 100.908 177.736 98.4301C177.712 97.9359 176.939 97.933 176.964 98.4301C177.217 103.558 175.901 108.697 173.203 113.072C171.879 115.222 170.218 117.323 168.162 118.821C167.166 119.546 165.586 120.634 164.313 120.25C163.635 120.045 162.962 119.658 162.318 119.367C161.62 119.054 160.924 118.739 160.227 118.425C159.777 118.223 159.385 118.887 159.838 119.09H159.839Z" fill="#5C877F"/>
<path d="M115.243 124.018C116.3 125.646 116.576 127.571 117.236 129.364C117.9 131.166 118.974 132.78 119.648 134.576C119.821 135.036 120.568 134.837 120.393 134.371C119.687 132.494 118.552 130.81 117.894 128.915C117.273 127.129 116.956 125.242 115.911 123.63C115.642 123.215 114.973 123.6 115.244 124.018H115.243Z" fill="#5C877F"/>
<path d="M134.352 90.0315C134.352 90.0315 135.357 91.7273 136.044 93.4937C136.831 95.5157 137.203 97.8384 135.208 101.407C127.324 115.505 133.781 120.932 136.868 128.226C136.868 128.226 143.377 126.29 145.127 123.825C146.877 121.359 153.156 118.434 153.156 118.434C153.156 118.434 144.902 111.244 148.827 102.978C153.542 93.0433 144.587 87.7313 134.352 90.0329V90.0315Z" fill="#E28569"/>
<path d="M135.709 99.8662C135.205 100.153 134.676 100.434 134.129 100.699C130.261 102.587 125.541 103.858 123.782 102.677C121.775 101.329 123.05 99.211 123.782 96.7457C124.515 94.2803 123.829 92.8231 125.25 92.7582C125.25 92.7582 131.586 92.8937 133.916 89.3299C135.576 86.7953 137.637 87.6425 138.939 89.1209H138.94C139.468 89.7224 139.87 90.4227 140.071 91.0454C140.765 93.203 139.762 97.5561 135.709 99.8662Z" fill="#E28569"/>
<path d="M135.709 99.8661C135.206 100.153 134.677 100.434 134.129 100.699C134.043 99.5512 134.568 95.9859 136.482 94.8069C138.566 93.522 138.939 89.1194 138.939 89.1194H138.941C139.468 89.7209 139.87 90.4212 140.071 91.0439C140.766 93.2015 139.763 97.5546 135.709 99.8647V99.8661Z" fill="#CE6A52"/>
<path d="M135.115 123.794C135.738 122.25 137.782 122.31 139.145 121.996C140.456 121.696 141.684 121.087 142.731 120.247C145.005 118.421 146.37 115.212 149.477 114.617C149.963 114.524 149.758 113.781 149.272 113.875C145.951 114.51 144.577 117.846 142.123 119.75C140.723 120.834 139.177 121.204 137.474 121.516C136.152 121.758 134.903 122.273 134.371 123.59C134.186 124.051 134.931 124.25 135.115 123.795V123.794Z" fill="white"/>
<path d="M133.29 121.414C134.474 120.211 135.854 119.702 137.477 119.367C138.945 119.064 140.029 118.51 140.964 117.321C141.922 116.103 142.727 114.964 144.112 114.184C145.476 113.416 147.012 113.027 148.546 112.77C149.035 112.688 148.827 111.946 148.341 112.028C146.856 112.275 145.385 112.656 144.041 113.346C142.696 114.037 141.704 115.029 140.818 116.237C140.337 116.892 139.845 117.584 139.136 118.012C138.382 118.466 137.475 118.571 136.629 118.754C135.135 119.079 133.819 119.778 132.746 120.869C132.397 121.224 132.942 121.769 133.292 121.414H133.29Z" fill="white"/>
<path d="M136.684 127.968C137.015 128.75 137.525 129.388 138.228 129.87C138.638 130.151 139.024 129.484 138.617 129.205C138.096 128.847 137.674 128.346 137.428 127.763C137.239 127.312 136.49 127.51 136.684 127.968Z" fill="white"/>
<path d="M138.529 127.39C138.815 128.034 139.246 128.6 139.791 129.048C140.172 129.361 140.721 128.819 140.337 128.503C139.836 128.09 139.459 127.593 139.195 127C138.995 126.549 138.33 126.94 138.529 127.389V127.39Z" fill="white"/>
<path d="M144.539 123.846C144.793 124.589 145.272 125.199 145.938 125.618C146.36 125.883 146.747 125.217 146.327 124.953C145.836 124.645 145.47 124.19 145.282 123.641C145.122 123.175 144.376 123.376 144.537 123.846H144.539Z" fill="white"/>
<path d="M152.309 118.705C153.012 119.035 153.783 119.096 154.516 118.824C154.977 118.651 154.777 117.907 154.31 118.081C153.777 118.28 153.218 118.286 152.698 118.04C152.251 117.83 151.859 118.493 152.309 118.705Z" fill="white"/>
<path d="M148.435 120.833C148.99 121.327 149.629 121.681 150.346 121.879C150.826 122.01 151.031 121.268 150.551 121.136C149.963 120.975 149.437 120.696 148.981 120.288C148.612 119.959 148.064 120.501 148.435 120.833Z" fill="white"/>
<path d="M141.466 125.899C141.801 126.543 142.341 127.065 142.999 127.373C143.446 127.582 143.84 126.919 143.388 126.708C142.837 126.451 142.412 126.05 142.131 125.511C141.901 125.07 141.235 125.46 141.464 125.899H141.466Z" fill="white"/>
<path d="M146.267 122.432C146.828 123.065 147.536 123.517 148.339 123.781C148.812 123.936 149.015 123.194 148.544 123.038C147.865 122.815 147.287 122.421 146.813 121.889C146.483 121.517 145.938 122.064 146.267 122.434V122.432Z" fill="white"/>
<path d="M150.243 120.048C150.906 120.473 151.672 120.675 152.46 120.631C152.953 120.604 152.956 119.833 152.46 119.86C151.796 119.897 151.193 119.74 150.632 119.383C150.211 119.114 149.824 119.781 150.243 120.048Z" fill="white"/>
<path d="M140.187 126.907C140.691 127.415 141.275 127.831 141.926 128.13C142.374 128.336 142.766 127.672 142.315 127.465C141.719 127.191 141.193 126.827 140.732 126.362C140.382 126.009 139.836 126.554 140.186 126.907H140.187Z" fill="white"/>
<path d="M142.992 125.292C143.343 125.742 143.765 126.122 144.239 126.441C144.652 126.719 145.038 126.053 144.628 125.776C144.209 125.494 143.848 125.145 143.539 124.747C143.41 124.583 143.127 124.613 142.992 124.747C142.83 124.909 142.864 125.127 142.992 125.292Z" fill="white"/>
<path d="M96.5173 108.06C95.2666 108.647 94.7346 109.942 94.2183 111.138C93.5477 112.691 92.928 114.28 92.1796 115.798C91.8372 116.491 91.4467 117.176 90.9162 117.745C90.3559 118.346 89.657 118.757 88.9822 119.215C87.7669 120.038 86.8798 121.06 86.4908 122.496C86.3606 122.975 87.1062 123.18 87.2349 122.701C87.6891 121.025 88.8747 120.243 90.2272 119.314C91.3307 118.555 92.1244 117.591 92.7342 116.406C93.4132 115.086 93.9509 113.687 94.5394 112.324C95.0855 111.059 95.558 109.359 96.9049 108.725C97.3534 108.513 96.9629 107.85 96.5158 108.06H96.5173Z" fill="white"/>
<path d="M89.4845 123.929C89.967 122.483 90.854 121.324 92.0481 120.389C93.078 119.583 94.2198 118.867 94.8974 117.714C95.619 116.487 95.7378 115.018 96.257 113.709C96.8357 112.246 97.7298 110.95 98.8545 109.853C99.2111 109.506 98.665 108.962 98.3084 109.308C97.2658 110.325 96.4013 111.509 95.7944 112.835C95.1365 114.273 95.0318 115.963 94.2311 117.324C93.4911 118.583 92.1259 119.282 91.0507 120.214C89.9627 121.156 89.1931 122.366 88.7403 123.725C88.5833 124.196 89.3289 124.398 89.4845 123.929Z" fill="white"/>
<path d="M92.4353 104.925C92.823 105.617 93.2106 106.31 93.5983 107.002C93.8402 107.436 94.508 107.048 94.2646 106.614C93.877 105.922 93.4893 105.229 93.1017 104.537C92.8598 104.104 92.192 104.492 92.4353 104.925Z" fill="white"/>
<path d="M86.7916 111.059C87.1085 111.86 87.6928 112.515 88.4922 112.859C88.9435 113.054 89.3368 112.39 88.8812 112.194C88.2757 111.933 87.7791 111.474 87.5344 110.854C87.3547 110.398 86.6077 110.597 86.7902 111.059H86.7916Z" fill="white"/>
<path d="M81.0648 118.526C81.5854 119.215 82.2362 119.714 83.0341 120.043C83.4925 120.233 83.6934 119.487 83.2393 119.301C82.6451 119.056 82.1174 118.648 81.7311 118.137C81.4354 117.746 80.7648 118.13 81.0648 118.526Z" fill="white"/>
<path d="M83.6771 114.761C84.2317 115.543 84.9843 116.104 85.8983 116.402C86.3722 116.556 86.5745 115.812 86.1034 115.659C85.3904 115.428 84.7764 114.984 84.3434 114.373C84.0591 113.972 83.3885 114.356 83.6771 114.761Z" fill="white"/>
<path d="M89.2496 108.362C89.6825 109.11 90.3375 109.705 91.1354 110.042C91.5882 110.234 91.9815 109.571 91.5245 109.377C90.8383 109.086 90.288 108.618 89.9145 107.974C89.6655 107.545 88.9991 107.933 89.2481 108.362H89.2496Z" fill="white"/>
<path d="M82.2632 116.902C82.8475 117.34 83.4601 117.729 84.1038 118.074C84.5424 118.308 84.9315 117.643 84.4929 117.409C83.8492 117.064 83.2366 116.675 82.6523 116.237C82.2547 115.939 81.8699 116.608 82.2632 116.902Z" fill="white"/>
<path d="M85.4384 113.232C85.768 113.869 86.307 114.384 86.9635 114.677C87.4134 114.877 87.8067 114.213 87.3525 114.011C86.8036 113.767 86.3806 113.377 86.1047 112.844C85.8769 112.403 85.2106 112.793 85.4384 113.232Z" fill="white"/>
<path d="M88.0657 109.763C88.3798 110.387 88.8127 110.942 89.3404 111.399C89.7139 111.722 90.2629 111.18 89.8865 110.854C89.4013 110.435 89.0207 109.945 88.7321 109.373C88.5085 108.93 87.8422 109.319 88.0657 109.761V109.763Z" fill="white"/>
<path d="M90.8014 107.012C91.1636 107.676 91.7069 108.218 92.3732 108.578C92.8104 108.814 93.2009 108.149 92.7623 107.913C92.2063 107.612 91.7705 107.179 91.4678 106.624C91.2301 106.187 90.5637 106.577 90.8014 107.012Z" fill="white"/>
<g opacity="0.7">
<path d="M287.713 20.9383C288.012 21.6753 288.2 22.4293 288.282 23.1834C288.309 23.4248 288.324 23.6648 288.329 23.9063C288.329 23.9063 288.33 23.9063 288.329 23.9077C288.332 23.9769 288.332 24.0475 288.332 24.1153C288.332 25.3126 288.075 26.486 287.593 27.562C287.558 27.6424 287.521 27.7215 287.483 27.802C287.214 28.3555 286.886 28.8808 286.501 29.3665C285.619 30.4805 284.442 31.3899 283.029 31.9603C282.463 32.1891 281.886 32.3514 281.309 32.4531C280.158 32.655 279.004 32.6127 277.906 32.3529C277.47 32.2498 277.046 32.1142 276.634 31.9448H276.633C276.528 31.901 276.426 31.8572 276.324 31.8106H276.323C275.46 31.4181 274.665 30.8816 273.973 30.2165C273.918 30.1628 273.863 30.1092 273.807 30.0541C273.588 29.831 273.382 29.5995 273.186 29.3524C272.703 28.7381 272.297 28.0477 271.988 27.2866C271.694 26.5608 271.508 25.8181 271.424 25.0768C271.193 23.0817 271.69 21.0922 272.768 19.4571C273.284 18.672 273.933 17.9689 274.7 17.3857C274.863 17.2614 275.031 17.1428 275.205 17.0299C275.328 16.9494 275.454 16.8717 275.583 16.7969C275.928 16.5978 276.292 16.4185 276.671 16.266C276.735 16.2406 276.797 16.2166 276.861 16.1926C277.165 16.0782 277.469 15.9836 277.777 15.9059C277.868 15.8833 277.958 15.8607 278.048 15.841C278.237 15.8 278.425 15.7647 278.615 15.7365C279.871 15.5501 281.132 15.6532 282.309 16.0104C283.601 16.4015 284.795 17.0991 285.774 18.0522C286.59 18.8457 287.258 19.8172 287.712 20.9383H287.713Z" fill="#E8F7F4"/>
<path d="M276.795 22.3277C276.036 21.9295 275.278 21.5327 274.52 21.1345L274.382 21.2616C273.678 21.9154 273.051 22.651 272.519 23.4516C272.433 23.5815 272.346 23.7213 272.334 23.8766C272.32 24.0461 272.395 24.2098 272.47 24.3638C272.921 25.2943 273.403 26.2092 273.917 27.1073C274.812 26.8828 275.708 26.6582 276.604 26.4323C276.647 26.421 276.695 26.4083 276.724 26.373C276.749 26.3405 276.753 26.2968 276.756 26.2558C276.844 25.0796 276.933 23.902 277.022 22.7258C277.028 22.6468 277.034 22.5635 276.997 22.4943C276.957 22.4166 276.874 22.37 276.796 22.3291L276.795 22.3277Z" fill="#2F1A31"/>
<path d="M284.955 18.9926C284.87 18.8895 284.781 18.7879 284.666 18.7173C284.526 18.6311 284.359 18.5987 284.196 18.5718C283.302 18.4236 282.391 18.384 281.487 18.4546L281.507 18.4702C281.184 19.2891 280.973 20.1505 280.881 21.0259C280.873 21.105 280.867 21.1883 280.901 21.2589C280.942 21.345 281.033 21.3944 281.116 21.4396C281.921 21.8759 282.654 22.4435 283.275 23.1142C283.338 23.182 283.405 23.254 283.496 23.2681C283.578 23.2808 283.657 23.2427 283.731 23.2046C284.529 22.7937 285.293 22.3179 286.011 21.7813C286.067 21.7404 286.126 21.6938 286.147 21.6288C286.167 21.5709 286.156 21.5074 286.142 21.4467C285.946 20.55 285.535 19.7014 284.953 18.9926H284.955Z" fill="#2F1A31"/>
<path d="M279.73 28.5137C279.738 28.5123 279.748 28.5094 279.757 28.5066C279.757 28.4911 279.757 28.477 279.757 28.4614L279.729 28.5137H279.73Z" fill="#6F4975"/>
<path d="M285.029 28.4771C284.549 27.9786 284.054 27.4957 283.543 27.0284C283.513 27.0015 283.482 26.9733 283.443 26.9662C283.389 26.9563 283.335 26.9874 283.29 27.0185C282.212 27.716 281.011 28.2215 279.757 28.5081C279.741 29.1506 279.726 29.7945 279.71 30.4369C279.703 30.7066 279.716 31.0172 279.93 31.1824C280.037 31.2657 280.176 31.2926 280.309 31.3152C281.151 31.4564 282.014 31.4747 282.861 31.3717C283.02 31.3519 283.181 31.3279 283.324 31.2559C283.475 31.1782 283.597 31.0525 283.711 30.9269C284.215 30.3776 284.678 29.793 285.096 29.176C285.169 29.0701 285.241 28.9543 285.234 28.8272C285.225 28.6903 285.125 28.5773 285.029 28.4785V28.4771Z" fill="#2F1A31"/>
<path d="M276.402 25.9693C277.608 27.089 278.906 28.093 280.292 28.9797C280.362 29.0249 280.443 28.9218 280.372 28.8752C278.986 27.9885 277.688 26.9845 276.483 25.8648C276.421 25.8069 276.34 25.9114 276.402 25.9693Z" fill="#2F1A31"/>
<path d="M276.819 22.9335C278.23 22.1414 279.739 21.5864 281.328 21.2786C281.411 21.2631 281.396 21.1318 281.312 21.1487C279.712 21.4579 278.19 22.0143 276.768 22.8121C276.696 22.853 276.744 22.9758 276.818 22.9335H276.819Z" fill="#2F1A31"/>
<path d="M283.763 22.8531C283.948 24.3625 283.859 25.8705 283.498 27.3475C283.478 27.4294 283.608 27.4477 283.628 27.3658C283.992 25.8776 284.081 24.3569 283.894 22.8376C283.884 22.7528 283.753 22.7684 283.764 22.8531H283.763Z" fill="#2F1A31"/>
<path d="M288.33 23.9063C288.33 23.9063 288.332 23.9063 288.33 23.9077C288.333 23.9769 288.333 24.0475 288.333 24.1153C288.307 24.1167 288.282 24.1068 288.269 24.0772C287.788 23.0393 286.761 22.4618 285.785 21.9465C285.716 21.9112 285.648 21.8744 285.58 21.8377C285.506 21.7982 285.557 21.6768 285.631 21.7163C285.721 21.7643 285.812 21.8123 285.902 21.8603C286.852 22.3644 287.824 22.9292 288.33 23.9035V23.9063Z" fill="#2F1A31"/>
<path d="M284.561 18.7018C284.721 18.4462 284.894 18.1977 285.076 17.9577C285.127 17.8899 285.024 17.8094 284.971 17.8772C284.789 18.1172 284.618 18.3658 284.456 18.6213C284.411 18.6919 284.516 18.7738 284.561 18.7018Z" fill="#2F1A31"/>
<path d="M281.777 18.5746C281.736 18.5295 281.693 18.4871 281.651 18.4433C280.683 17.4507 279.604 16.6854 278.465 16.1771C278.239 16.0754 278.009 15.985 277.777 15.9046C277.868 15.882 277.958 15.8594 278.048 15.8396C278.223 15.9074 278.396 15.9794 278.568 16.0585C279.738 16.5922 280.845 17.3956 281.832 18.432C281.838 18.4391 281.845 18.4447 281.85 18.4518C281.923 18.528 281.849 18.6495 281.777 18.5732V18.5746Z" fill="#2F1A31"/>
<path d="M275.583 16.7956C275.439 17.0046 275.314 17.2277 275.21 17.4621C274.722 18.5507 274.621 19.8794 274.529 21.1417C274.507 21.4453 274.485 21.7461 274.46 22.0369C274.449 22.1654 274.263 22.1273 274.276 21.9988C274.296 21.7729 274.314 21.5427 274.331 21.3083C274.427 20.022 274.509 18.6496 274.979 17.5087C275.044 17.3435 275.121 17.1825 275.207 17.0272C275.33 16.9467 275.456 16.869 275.585 16.7942L275.583 16.7956Z" fill="#2F1A31"/>
<path d="M274.016 26.8265C274.005 26.9154 273.994 27.0015 273.982 27.0905C273.851 28.134 273.755 29.193 273.974 30.2167C273.919 30.163 273.864 30.1094 273.808 30.0543C273.632 29.0546 273.731 28.0252 273.862 27.0114C273.871 26.9451 273.879 26.8773 273.888 26.8095C273.899 26.7248 274.029 26.7446 274.016 26.8279V26.8265Z" fill="#2F1A31"/>
<path d="M280.313 31.2234C280.261 31.2446 280.209 31.2643 280.156 31.2841C279.025 31.719 277.843 31.9407 276.635 31.9449H276.634C276.529 31.9012 276.427 31.8574 276.325 31.8108C277.576 31.8447 278.802 31.6442 279.975 31.2121C280.073 31.1782 280.169 31.1415 280.264 31.102C280.342 31.0709 280.391 31.1923 280.313 31.2234Z" fill="#2F1A31"/>
<path d="M287.596 27.562C287.561 27.6425 287.524 27.7216 287.486 27.8021C286.762 28.3061 285.99 28.7269 285.168 29.0601C285.139 29.0728 285.108 29.0856 285.078 29.0983C284.999 29.1307 284.949 29.0079 285.028 28.9768C285.095 28.95 285.163 28.9218 285.229 28.8935C286.07 28.5419 286.858 28.0986 287.596 27.5634V27.562Z" fill="#2F1A31"/>
<path d="M278.615 15.7366C278.596 15.8679 278.579 15.9837 278.567 16.0599C278.561 16.091 278.526 16.1319 278.463 16.1771C277.978 16.5358 275.92 17.2686 275.21 17.462C275.088 17.4945 275.006 17.5115 274.977 17.51C274.977 17.51 274.976 17.51 274.975 17.51C274.898 17.4987 274.795 17.4451 274.7 17.3858C274.863 17.2615 275.031 17.1429 275.205 17.03C275.328 16.9495 275.454 16.8718 275.583 16.797C275.928 16.5979 276.292 16.4186 276.671 16.2661C276.735 16.2407 276.797 16.2167 276.861 16.1926C277.165 16.0783 277.469 15.9837 277.777 15.906C277.868 15.8834 277.958 15.8608 278.048 15.8411C278.237 15.8001 278.425 15.7648 278.615 15.7366Z" fill="#2F1A31"/>
</g>
</g>
<defs>
<clipPath id="clip0_723_27546">
<rect width="326" height="207" fill="white" transform="translate(0 0.0930176)"/>
</clipPath>
</defs>
</svg>
