<svg width="258" height="251" viewBox="0 0 258 251" fill="none" xmlns="http://www.w3.org/2000/svg">
<g clip-path="url(#clip0_754_19041)">
<path d="M223.064 214.619H244.812V207.665H223.064V214.619Z" fill="#EBEBEB"/>
<path d="M170.122 146.025H191.87V139.072H170.122V146.025Z" fill="#EBEBEB"/>
<path d="M235.194 223.387L246.142 223.206L251.555 223.132L256.942 223.107L256.658 223.393L256.633 216.439L256.942 216.75L246.068 216.706L240.631 216.657L235.194 216.588L235.342 216.439L235.194 223.393V223.387ZM235.194 223.387L235.045 216.433V216.29H235.194L240.631 216.222L246.068 216.172L256.942 216.128H257.252V216.439L257.227 223.393V223.679H256.942L251.456 223.654L245.994 223.579L235.194 223.399V223.387Z" fill="#EBEBEB"/>
<path d="M97.1382 53.8618L108.087 53.6816L113.499 53.607L118.887 53.5821L118.602 53.868L118.577 46.9142L118.887 47.2249L108.012 47.1814L102.575 47.1317L97.1382 47.0634L97.2867 46.9142L97.1382 53.868V53.8618ZM97.1382 53.8618L96.9897 46.908V46.7651H97.1382L102.575 46.6967L108.012 46.647L118.887 46.6035H119.196V46.9142L119.171 53.868V54.1539H118.887L113.4 54.129L107.938 54.0544L97.1382 53.8742V53.8618Z" fill="#EBEBEB"/>
<path d="M109.268 62.6298L120.217 62.4496L125.629 62.3751L131.017 62.3502L130.732 62.6361L130.707 55.6823L131.017 55.993L120.142 55.9495L114.705 55.8998L109.268 55.8314L109.417 55.6823L109.268 62.6361V62.6298ZM109.268 62.6298L109.12 55.6761V55.5332H109.268L114.705 55.4648L120.142 55.4151L131.017 55.3716H131.326V55.6823L131.301 62.6361V62.9219H131.017L125.53 62.8971L120.068 62.8225L109.268 62.6423V62.6298Z" fill="#EBEBEB"/>
<path d="M121.355 53.8555H143.103V46.9017H121.355V53.8555Z" fill="#EBEBEB"/>
<path d="M1.05135 223.387H22.7998V216.433H1.05135V223.387Z" fill="#EBEBEB"/>
<path d="M13.1876 8.65283L34.936 8.65283V1.69907L13.1876 1.69907V8.65283Z" fill="#EBEBEB"/>
<path d="M1.05763 17.4214L12.0061 17.2411L17.4185 17.1666L22.8061 17.1417L22.5215 17.4276L22.4968 10.4738L22.8061 10.7845L11.9319 10.741L6.49475 10.6913L1.05763 10.6229L1.20609 10.4738L1.05763 17.4276V17.4214ZM1.05763 17.4214L0.90918 10.4676V10.3247H1.05763L6.49475 10.2563L11.9319 10.2066L22.8061 10.1631H23.1154V10.4738L23.0906 17.4276V17.7134H22.8061L17.3195 17.6886L11.8576 17.614L1.05763 17.4338V17.4214Z" fill="#EBEBEB"/>
<path d="M223.064 8.6528L234.012 8.47258L239.425 8.39801L244.812 8.37315L244.528 8.65901L244.503 1.70524L244.812 2.01596L233.938 1.97246L228.501 1.92274L223.064 1.85439L223.212 1.70524L223.064 8.65901V8.6528ZM223.064 8.6528L222.916 1.69903V1.5561H223.064L228.501 1.48775L233.938 1.43803L244.812 1.39453H245.122V1.70524L245.097 8.65901V8.94487H244.812L239.326 8.92001L233.864 8.84544L223.064 8.66523V8.6528Z" fill="#EBEBEB"/>
<path d="M168.439 0.592773V121.759H246.829V0.592773H168.439ZM243.934 118.85H171.328V3.50105H243.934V118.85Z" fill="#EBEBEB"/>
<path d="M243.94 3.50098H171.334V118.856H243.94V3.50098Z" fill="white"/>
<path d="M171.327 62.6299L243.934 62.6299V59.7216L171.327 59.7216V62.6299Z" fill="#EBEBEB"/>
<path d="M163.113 130.098H252.154V121.759L163.113 121.759V130.098Z" fill="#DBDBDB"/>
<path d="M171.334 3.49463H243.94V78.128H171.334V3.49463ZM241.262 6.18541H174.012V75.4372H241.262V6.18541Z" fill="#DBDBDB"/>
<path d="M220.769 3.49463H219.322V75.4372H220.769V3.49463Z" fill="#DBDBDB"/>
<path d="M195.953 3.49463H194.505V75.4372H195.953V3.49463Z" fill="#DBDBDB"/>
<path d="M11.1709 0.592773V121.759H89.5606V0.592773H11.1709ZM86.6657 118.85H14.0657V3.50105H86.6719V118.85H86.6657Z" fill="#EBEBEB"/>
<path d="M86.6721 3.50098H14.0659V118.856H86.6721V3.50098Z" fill="white"/>
<path d="M14.0593 62.6299L86.6655 62.6299V59.7216L14.0593 59.7216V62.6299Z" fill="#EBEBEB"/>
<path d="M5.84499 130.098H94.8862V121.759L5.84499 121.759V130.098Z" fill="#DBDBDB"/>
<path d="M14.0596 3.49463H86.6658V78.128H14.0596V3.49463ZM83.9874 6.18541H16.7379V75.4372H83.9874V6.18541Z" fill="#DBDBDB"/>
<path d="M63.4948 3.49463H62.0474V75.4372H63.4948V3.49463Z" fill="#DBDBDB"/>
<path d="M38.6779 3.49463H37.2305V75.4372H38.6779V3.49463Z" fill="#DBDBDB"/>
<path d="M0 250.288L32.2515 250.133L64.4969 250.077L129 249.978L193.497 250.077L225.748 250.133L258 250.288L225.748 250.437L193.497 250.493L129 250.593L64.4969 250.493L32.2515 250.437L0 250.288Z" fill="#263238"/>
<path d="M257.616 159.013H179.127V170.205H257.616V159.013Z" fill="#455A64"/>
<path d="M255.748 170.205H181.002V173.84H255.748V170.205Z" fill="#455A64"/>
<path d="M255.748 170.205H181.002V171.411H255.748V170.205Z" fill="#263238"/>
<path d="M181.738 250.593H178.744L187.447 173.84H195.074L181.738 250.593Z" fill="#455A64"/>
<path d="M195.074 173.84L194.177 178.98H186.866L187.447 173.84H195.074Z" fill="#263238"/>
<path d="M255.006 250.593H258L249.297 173.84H241.67L255.006 250.593Z" fill="#455A64"/>
<path d="M241.67 173.84L242.567 178.98H249.878L249.297 173.84H241.67Z" fill="#263238"/>
<path d="M237.612 204.371C237.087 206.621 236.53 208.833 236.419 211.145C236.48 211.257 236.468 211.679 236.4 211.561C236.388 211.934 235.825 211.866 235.825 211.499C235.825 211.257 235.837 211.02 235.849 210.79C234.532 209.15 232.621 208.106 231.074 206.677C229.825 205.521 228.928 204.141 228.458 202.494C227.177 198.057 228.377 193.353 226.837 188.922C225.507 185.107 223.126 181.788 221.103 178.327C218.975 174.667 217.404 170.826 217.243 166.545C217.12 163.264 217.509 158.895 219.996 156.434C222.631 153.824 225.897 155.782 227.92 158.106C233.771 164.855 236.48 173.381 237.575 182.099C238.181 186.928 238.806 191.781 238.664 196.653C238.584 199.269 238.206 201.829 237.619 204.371H237.612Z" fill="#70C2B4"/>
<path d="M236.443 212.909C236.746 208.348 236.728 203.781 236.282 199.238C236.289 199.219 236.307 199.213 236.307 199.188C236.381 195.491 236.672 191.812 236.53 188.114C236.375 184.094 235.788 180.154 234.909 176.233C234.897 176.189 234.829 176.195 234.835 176.245C235.559 180.067 235.973 183.976 236.115 187.866C236.19 189.954 236.177 192.042 236.066 194.13C236.029 194.807 235.967 195.491 235.924 196.174C235.924 196.174 235.924 196.174 235.924 196.168C234.439 185.772 230.623 175.903 224.981 167.073C224.907 166.955 224.691 167.079 224.765 167.203C228.829 173.865 231.823 181.185 233.672 188.779C230.858 183.541 226.608 179.234 223.454 174.201C223.435 174.176 223.392 174.201 223.404 174.232C226.237 179.837 230.92 184.255 233.901 189.774C234.421 192.023 234.841 194.298 235.157 196.578C235.59 199.716 235.794 202.873 235.837 206.036C234.124 202.817 232.342 199.735 230.944 196.336C230.907 196.243 230.777 196.305 230.808 196.398C232.002 199.934 233.604 203.743 235.849 206.757C235.862 208.994 235.794 211.238 235.664 213.469C235.311 219.434 234.297 225.325 233.833 231.272C233.821 231.453 234.068 231.471 234.105 231.304C235.336 225.301 236.041 219.024 236.449 212.909H236.443Z" fill="#263238"/>
<path d="M230.134 166.88C230.116 166.837 230.054 166.868 230.066 166.911C231.149 169.925 231.767 172.983 232.546 176.071C232.584 176.214 232.788 176.183 232.769 176.034C232.448 172.902 231.334 169.77 230.128 166.88H230.134Z" fill="#263238"/>
<path d="M257.69 179.514C256.985 181.285 256.113 183 255.198 184.666C253.243 188.233 251.208 191.495 250.837 195.646C250.67 197.498 250.614 199.362 250.051 201.146C249.563 202.693 248.777 204.116 247.868 205.452C245.752 208.553 243.105 211.225 241.138 214.438C239.097 217.781 237.587 221.46 236.666 225.27C236.616 225.481 236.288 225.425 236.338 225.214C236.344 225.195 236.35 225.183 236.35 225.164C236.344 225.152 236.332 225.145 236.332 225.12C236.022 216.222 236.728 207.248 239.431 198.722C240.612 194.994 242.072 191.284 243.723 187.742C245.171 184.647 246.977 181.676 249.519 179.365C251.171 177.873 254.746 175.046 257.09 176.544C258.216 177.264 258.136 178.402 257.69 179.508V179.514Z" fill="#70C2B4"/>
<path d="M248.79 199.692C247.268 202.302 245.468 204.731 243.643 207.124C242.783 208.249 241.917 209.367 241.058 210.492C240.656 211.026 240.198 211.555 239.827 212.126C240.062 211.188 240.291 210.256 240.526 209.317C241.67 204.818 242.765 200.282 244.472 195.957C246.136 191.731 248.35 187.76 250.621 183.839C250.682 183.733 250.515 183.659 250.454 183.758C248.579 186.853 246.68 189.941 245.109 193.204C244.231 195.025 243.489 196.901 242.839 198.809C243.606 194.72 244.522 190.793 245.858 186.84C245.87 186.803 245.821 186.778 245.802 186.816C244.169 190.699 242.994 195.062 242.666 199.269C242.666 199.275 242.666 199.281 242.666 199.288C242.282 200.443 241.93 201.612 241.602 202.786C240.204 207.764 238.979 212.797 237.847 217.85C237.866 214.513 238.076 211.244 238.701 207.95C238.713 207.876 238.602 207.857 238.583 207.932C237.761 211.318 237.39 214.885 237.73 218.365C237.303 220.286 236.882 222.206 236.474 224.132C235.602 228.234 234.532 232.41 234.025 236.579C234.012 236.685 234.161 236.71 234.185 236.604C234.792 234.361 235.163 232.031 235.658 229.756C236.159 227.476 236.672 225.201 237.198 222.927C237.965 219.614 238.775 216.315 239.592 213.015C240.142 211.803 241.2 210.734 241.998 209.715C242.87 208.603 243.742 207.49 244.59 206.359C246.167 204.253 247.621 202.065 248.851 199.729C248.876 199.679 248.802 199.642 248.771 199.692H248.79Z" fill="#263238"/>
<path d="M249.167 195.888C247.243 198.368 245.499 201.108 244.132 203.93C244.113 203.967 244.169 204.004 244.194 203.967C245.888 201.295 247.558 198.61 249.247 195.938C249.278 195.895 249.204 195.845 249.167 195.888Z" fill="#263238"/>
<path d="M211.454 187.953C212.604 189.942 213.909 192.328 213.421 194.708C213.105 196.218 212.01 197.442 211.812 198.983C211.367 202.383 214.738 204.632 217.181 206.235C223.262 210.244 231.606 213.823 232.713 222.007C232.757 222.299 233.252 222.225 233.221 221.939C233.221 221.92 233.221 221.902 233.208 221.883C233.221 221.864 233.239 221.858 233.239 221.833C234.025 217.682 234.006 213.456 233.128 209.324C232.219 205.104 230.388 201.307 228.223 197.604C224.561 191.327 220.683 184.902 215.146 180.098C213.612 178.768 210.476 176.376 209.258 179.377C208.076 182.292 210.056 185.517 211.466 187.941L211.454 187.953Z" fill="#70C2B4"/>
<path d="M217.021 201.258C221.054 205.645 227.468 208.106 230.938 213.015C228.879 205.484 225.477 198.71 220.244 192.831C220.107 192.682 220.318 192.465 220.466 192.608C224.301 196.305 227.134 200.637 229.206 205.328C228.272 201.979 226.973 198.81 225.446 195.659C225.39 195.541 225.557 195.435 225.625 195.553C227.573 198.89 228.872 202.644 229.683 206.422C234.26 217.546 234.681 230.595 233.722 242.322C233.709 242.49 233.456 242.496 233.456 242.322C233.716 233.081 233.567 223.679 231.365 214.65C231.322 214.463 231.266 214.277 231.223 214.09C227.444 208.802 221.06 206.347 216.953 201.326C216.916 201.277 216.978 201.208 217.021 201.258Z" fill="#263238"/>
<path d="M216.087 197.492C218.202 199.443 220.287 201.438 222.408 203.389C222.427 203.408 222.402 203.445 222.377 203.433C220.07 201.867 217.726 199.791 215.963 197.622C215.889 197.535 216 197.417 216.087 197.498V197.492Z" fill="#263238"/>
<path d="M215.753 189.034C217.676 192.129 219.693 195.037 222.087 197.79C222.118 197.828 222.068 197.877 222.031 197.846C219.458 195.36 217.175 192.347 215.635 189.103C215.598 189.028 215.703 188.966 215.747 189.034H215.753Z" fill="#263238"/>
<path d="M225.285 250.593H243.829L241.33 225.531H228.142L225.285 250.593Z" fill="#455A64"/>
<path d="M227.672 229.601H241.738L241.33 225.524H228.136L227.672 229.601Z" fill="#263238"/>
<path d="M225.866 226.749H243.248V222.747H225.866V226.749Z" fill="#455A64"/>
<path d="M24.0926 79.6689H20.7524V247.237H24.0926V79.6689Z" fill="#263238"/>
<path d="M79.3821 20.4146L0.000976562 100.164L2.36286 102.537L81.744 22.7874L79.3821 20.4146Z" fill="#263238"/>
<path d="M4.31738 247.237V250.593H40.5339V247.237H4.31738Z" fill="#263238"/>
<path d="M82.0825 32.7825L93.2784 22.2244L82.7382 13.6177L74.3506 21.5409L82.0825 32.7825Z" fill="#189FFF"/>
<path opacity="0.1" d="M93.2784 22.218L82.0825 32.7823L79.0083 28.3142L88.6021 18.4087L93.2784 22.218Z" fill="black"/>
<path d="M80.9257 50.4312L111.136 21.9077L96.7051 14.1025L74.0659 35.4734L80.9257 50.4312Z" fill="#189FFF"/>
<path opacity="0.6" d="M198.779 140.669C198.779 140.669 188.047 135.704 188.047 129.042C188.047 122.38 201.971 118.099 201.971 112.891C201.971 107.683 195.903 104.626 195.903 104.626C195.903 104.626 205.491 107.92 205.491 114.5C205.491 121.081 196.311 125.543 195.433 129.732C194.214 135.548 198.785 140.669 198.785 140.669H198.779Z" fill="#DBDBDB"/>
<path opacity="0.6" d="M198.247 140.669C198.247 140.669 208.979 136.76 208.979 131.528C208.979 126.295 195.056 122.921 195.056 118.826C195.056 114.731 201.124 112.326 201.124 112.326C201.124 112.326 191.536 114.911 191.536 120.087C191.536 125.264 202.076 128.825 202.831 133.025C203.567 137.152 198.241 140.663 198.241 140.663L198.247 140.669Z" fill="#DBDBDB"/>
<path d="M203.771 157.416H193.559V159.019H203.771V157.416Z" fill="#FFC4A4"/>
<path opacity="0.1" d="M203.771 157.416H193.559V158.472H203.771V157.416Z" fill="#FFC4A4"/>
<path d="M215.889 153.11C214.683 154.812 212.543 156.037 210.136 155.583C209.796 155.521 209.45 155.421 209.103 155.285C208.627 155.098 208.151 154.85 207.662 154.52L208.961 152.588C209.227 152.774 209.481 152.917 209.728 153.023C212.159 154.129 213.699 152.202 214.002 151.767C215.4 149.791 215.901 145.28 214.485 143.54C214.392 143.409 213.984 143.21 212.338 143.558C212.035 143.627 211.689 143.701 211.299 143.813C210.866 143.937 210.613 144.006 210.365 144.018L210.322 142.856L210.211 141.7C210.316 141.682 210.483 141.632 210.699 141.57C211.318 141.402 212.153 141.172 213.019 141.085C214.231 140.961 215.499 141.104 216.272 142.067C218.573 144.901 217.639 150.636 215.889 153.11Z" fill="#FFC4A4"/>
<path opacity="0.1" d="M208.961 152.588C209.227 152.774 209.481 152.917 209.728 153.023L209.11 155.279C208.633 155.092 208.157 154.844 207.668 154.514L208.967 152.582L208.961 152.588Z" fill="black"/>
<path opacity="0.1" d="M213.019 141.085L212.332 143.558C212.029 143.627 211.683 143.701 211.293 143.813C210.86 143.937 210.607 144.006 210.359 144.018L210.316 142.856L210.205 141.7C210.31 141.682 210.477 141.632 210.693 141.57C211.312 141.402 212.147 141.172 213.013 141.085H213.019Z" fill="black"/>
<path d="M185.078 138.065C185.078 138.065 185.165 138.83 185.344 140.035C185.375 140.222 185.4 140.42 185.431 140.619C185.549 141.446 185.709 142.428 185.895 143.478C185.901 143.534 185.92 143.596 185.926 143.664C186.198 145.174 186.526 146.821 186.909 148.368C186.928 148.443 186.946 148.505 186.965 148.567C187.07 148.984 187.182 149.394 187.293 149.785C187.404 150.177 187.522 150.562 187.645 150.935C187.893 151.674 188.146 152.346 188.419 152.917C190.534 157.317 193.491 157.808 195.322 157.808H202.002C203.833 157.808 206.79 157.317 208.899 152.917C208.961 152.781 209.029 152.638 209.091 152.482C209.14 152.377 209.184 152.265 209.227 152.153C209.276 152.041 209.32 151.929 209.363 151.805C209.394 151.724 209.425 151.637 209.456 151.556C209.864 150.432 210.229 149.108 210.551 147.741C210.569 147.685 210.582 147.635 210.588 147.579C210.594 147.554 210.594 147.542 210.606 147.517C210.736 146.97 210.854 146.417 210.965 145.87C211.157 144.969 211.324 144.087 211.466 143.248C211.528 142.863 211.596 142.484 211.658 142.123C211.676 142.017 211.689 141.924 211.707 141.825C211.744 141.582 211.788 141.34 211.819 141.116C211.85 140.893 211.881 140.675 211.918 140.464C211.949 140.253 211.973 140.054 212.004 139.867C212.165 138.749 212.245 138.053 212.245 138.053H185.072L185.078 138.065Z" fill="#FFC4A4"/>
<path opacity="0.1" d="M185.926 143.658C186.198 145.168 186.526 146.815 186.909 148.362C187.076 148.387 187.243 148.418 187.41 148.461C188.214 148.654 189.006 148.983 189.705 149.456C190.41 149.915 191.029 150.493 191.623 151.059C192.223 151.631 192.81 152.209 193.484 152.65C194.159 153.091 194.926 153.358 195.724 153.383C196.497 153.42 197.202 152.967 197.759 152.414C198.334 151.842 198.816 151.177 199.286 150.506C199.757 149.828 200.227 149.139 200.79 148.499C201.068 148.188 201.383 147.883 201.73 147.629C201.915 147.511 202.119 147.411 202.324 147.324C202.546 147.287 202.763 147.181 202.985 147.212C203.443 147.175 203.87 147.349 204.266 147.535C204.643 147.753 204.983 148.001 205.286 148.3C205.911 148.871 206.437 149.518 206.987 150.133C207.538 150.717 208.119 151.363 208.88 151.544C209.072 151.593 209.264 151.6 209.456 151.568C209.864 150.444 210.229 149.12 210.55 147.753C210.334 147.697 210.111 147.641 209.895 147.566C209.103 147.299 208.354 146.889 207.705 146.355C207.049 145.826 206.493 145.199 205.948 144.571C205.404 143.944 204.878 143.31 204.253 142.806C203.629 142.303 202.886 141.961 202.095 141.862C201.328 141.75 200.585 142.135 199.967 142.632C199.342 143.136 198.81 143.757 198.272 144.385C197.728 145.012 197.196 145.652 196.577 146.237C196.274 146.529 195.928 146.79 195.557 147.007C195.365 147.113 195.148 147.181 194.944 147.256C194.721 147.274 194.486 147.349 194.264 147.305C193.806 147.299 193.398 147.076 193.033 146.858C192.68 146.609 192.352 146.317 192.08 146C191.511 145.373 191.06 144.677 190.565 144.018C190.076 143.378 189.557 142.688 188.82 142.421C188.072 142.154 187.268 142.576 186.649 143.074C186.402 143.266 186.161 143.465 185.919 143.676L185.926 143.658Z" fill="black"/>
<path d="M185.895 143.478C185.901 143.534 185.92 143.596 185.926 143.664C186.167 143.453 186.408 143.254 186.656 143.061C187.28 142.564 188.078 142.148 188.827 142.409C189.563 142.676 190.082 143.366 190.571 144.006C191.066 144.665 191.524 145.361 192.087 145.988C192.359 146.311 192.687 146.597 193.039 146.846C193.404 147.063 193.812 147.287 194.27 147.293C194.493 147.343 194.728 147.262 194.951 147.244C195.161 147.169 195.371 147.101 195.563 146.995C195.94 146.777 196.28 146.51 196.584 146.224C197.196 145.64 197.734 144.994 198.278 144.373C198.817 143.745 199.348 143.13 199.973 142.62C200.586 142.123 201.334 141.738 202.101 141.85C202.893 141.955 203.635 142.291 204.26 142.794C204.885 143.297 205.41 143.931 205.955 144.559C206.499 145.187 207.056 145.814 207.711 146.342C208.361 146.883 209.109 147.287 209.901 147.554C210.118 147.629 210.34 147.685 210.557 147.741C210.575 147.685 210.588 147.635 210.594 147.579C210.384 147.517 210.173 147.449 209.963 147.368C208.398 146.84 207.204 145.64 206.19 144.36C205.664 143.726 205.132 143.068 204.47 142.521C203.814 141.98 202.998 141.607 202.151 141.483C201.241 141.346 200.381 141.794 199.738 142.316C199.064 142.844 198.513 143.478 197.969 144.105C197.425 144.733 196.905 145.373 196.324 145.939C195.742 146.479 195.056 147.007 194.295 146.92C193.528 146.883 192.866 146.349 192.334 145.746C191.79 145.143 191.32 144.46 190.806 143.801C190.287 143.167 189.742 142.446 188.889 142.154C188.468 141.999 188.004 142.073 187.602 142.229C187.2 142.384 186.854 142.633 186.526 142.894C186.303 143.08 186.093 143.26 185.889 143.465L185.895 143.478Z" fill="white"/>
<path d="M186.909 148.362C186.928 148.436 186.946 148.499 186.965 148.561C187.101 148.586 187.237 148.617 187.367 148.648C188.975 149.027 190.274 150.096 191.418 151.27C192 151.854 192.588 152.457 193.299 152.929C194.01 153.402 194.851 153.7 195.711 153.731C196.621 153.787 197.437 153.259 198.031 152.668C198.643 152.072 199.132 151.394 199.621 150.717C200.091 150.034 200.548 149.344 201.08 148.735C201.6 148.138 202.237 147.548 202.998 147.554C203.765 147.523 204.476 147.989 205.058 148.536C205.658 149.083 206.19 149.717 206.765 150.319C207.34 150.897 207.946 151.562 208.825 151.774C208.998 151.811 209.183 151.823 209.363 151.798C209.394 151.718 209.425 151.631 209.456 151.55C209.264 151.581 209.072 151.575 208.88 151.525C208.119 151.339 207.538 150.698 206.988 150.114C206.437 149.505 205.911 148.853 205.286 148.281C204.983 147.983 204.637 147.734 204.266 147.517C203.876 147.33 203.443 147.156 202.985 147.194C202.763 147.163 202.546 147.268 202.324 147.305C202.126 147.392 201.915 147.492 201.73 147.61C201.377 147.859 201.068 148.163 200.79 148.48C200.233 149.12 199.757 149.81 199.286 150.487C198.816 151.165 198.334 151.829 197.759 152.395C197.202 152.948 196.497 153.408 195.724 153.364C194.926 153.34 194.159 153.072 193.484 152.631C192.81 152.19 192.223 151.612 191.623 151.04C191.029 150.469 190.41 149.891 189.705 149.437C189.012 148.965 188.221 148.635 187.41 148.443C187.243 148.405 187.076 148.368 186.909 148.343V148.362Z" fill="white"/>
<path d="M78.8287 212.027L31.5957 250.288H34.2555L88.806 212.027H78.8287Z" fill="#C7C7C7"/>
<path d="M83.2639 212.027L59.9258 250.288H62.5856L91.1938 212.027H83.2639Z" fill="#C7C7C7"/>
<path d="M94.7072 212.027L118.045 250.288H115.386L86.7773 212.027H94.7072Z" fill="#C7C7C7"/>
<path d="M98.7835 212.027L146.01 250.288H143.35L88.8062 212.027H98.7835Z" fill="#C7C7C7"/>
<path d="M177.612 197.989V186.797L112.751 184.125L78.4948 92.2344H0L27.7732 197.989L94.1258 216.706H98.2825L177.612 197.989Z" fill="#455A64"/>
<path d="M0 92.2344H8.98144L37.9175 188.636L96.6186 205.34L177.612 186.797V197.989L98.2825 216.706H94.1258L27.7732 197.989L0 92.2344Z" fill="#37474F"/>
<path d="M225.309 249.903C223.219 249.952 168.94 233.093 167.276 231.142C167.097 230.924 167.944 222.852 169.348 216.439C169.41 216.134 150.074 190.674 150.074 190.674L185.041 177.009L201.767 211.828L206.122 220.882C206.122 220.882 224.227 239.171 225.829 241.513C227.412 243.856 227.4 249.853 225.309 249.903Z" fill="#EBEBEB"/>
<path d="M226.837 250.207C224.653 250.263 167.994 232.888 166.249 230.856C165.581 230.085 166.596 226.568 169.348 216.438L206.499 220.931C206.499 220.931 225.674 239.021 227.344 241.457C229.008 243.893 229.02 250.151 226.837 250.207Z" fill="#5A5A68"/>
<path d="M226.713 247.684C217.286 244.54 178.967 232.739 169.41 230.346C169.33 230.328 169.317 230.377 169.392 230.409C178.67 233.733 217.082 245.217 226.664 247.846C226.868 247.902 226.911 247.753 226.713 247.69V247.684Z" fill="#263238"/>
<path d="M224.32 238.295C222.093 237.512 219.569 237.909 217.93 238.885C216.359 239.817 214.794 241.327 214.262 243.328C214.249 243.384 214.348 243.421 214.379 243.366C216.056 239.799 220.435 237.555 224.289 238.419C224.369 238.438 224.4 238.326 224.326 238.301L224.32 238.295Z" fill="#263238"/>
<path d="M210.327 224.698C206.542 223.48 201.723 223.473 198.414 225.872C198.284 225.965 198.414 226.146 198.55 226.121C202.527 225.394 206.195 225.07 210.253 225.182C210.538 225.189 210.6 224.778 210.334 224.691L210.327 224.698Z" fill="#263238"/>
<path d="M212.913 226.748C209.128 225.53 204.309 225.524 201 227.923C200.87 228.016 201 228.196 201.136 228.171C205.113 227.444 208.781 227.121 212.839 227.233C213.124 227.239 213.185 226.829 212.913 226.742V226.748Z" fill="#263238"/>
<path d="M215.499 228.799C211.713 227.581 206.895 227.575 203.585 229.974C203.455 230.067 203.585 230.247 203.721 230.222C207.699 229.495 211.367 229.172 215.425 229.284C215.709 229.29 215.771 228.88 215.499 228.793V228.799Z" fill="#263238"/>
<path d="M218.084 230.85C214.299 229.632 209.48 229.626 206.171 232.024C206.041 232.118 206.171 232.298 206.307 232.273C210.284 231.546 213.952 231.223 218.01 231.335C218.295 231.341 218.356 230.931 218.084 230.844V230.85Z" fill="#263238"/>
<path d="M217.534 215.768C216.099 213.574 213.198 214.4 211.503 215.699C208.762 217.806 206.294 221.18 205.082 224.405C205.051 224.486 205.107 224.536 205.169 224.548C205.169 224.847 205.416 225.176 205.756 225.064C209.035 224.014 212.672 223.299 215.529 221.267C217.2 220.08 218.894 217.837 217.534 215.761V215.768ZM210.402 222.454C208.8 223.007 207.185 223.486 205.608 224.101C206.863 222.404 208.045 220.664 209.468 219.098C210.148 218.353 210.859 217.595 211.639 216.948C212.851 215.942 217.552 213.891 216.668 218.166C216.179 220.521 212.313 221.795 210.402 222.46V222.454Z" fill="#263238"/>
<path d="M195.204 222.927C198.358 224.455 202.064 224.555 205.466 225.046C205.818 225.095 206.01 224.729 205.961 224.437C206.022 224.412 206.066 224.35 206.022 224.281C204.297 221.298 201.303 218.384 198.253 216.762C196.367 215.761 193.373 215.432 192.315 217.837C191.319 220.111 193.361 222.044 195.198 222.933L195.204 222.927ZM193.571 220.049C191.994 215.985 196.967 217.222 198.328 218.011C199.2 218.521 200.029 219.148 200.827 219.77C202.49 221.075 203.938 222.597 205.46 224.058C203.802 223.716 202.126 223.517 200.455 223.231C198.464 222.895 194.437 222.28 193.571 220.043V220.049Z" fill="#263238"/>
<path d="M203.536 213.456L164.988 219.179C164.988 219.179 143.95 180.806 135.458 171.261L135.439 171.242C134.882 170.615 134.363 170.105 133.887 169.72H133.868C133.33 169.403 132.39 169.173 131.084 169.018H131.066C119.666 167.619 81.3092 171.367 54.7979 169.645L67.1752 153.022L72.6618 145.646C102.526 142.222 139.169 129.955 155.709 138.294C173.672 147.349 203.53 213.462 203.53 213.462L203.536 213.456Z" fill="#263238"/>
<path d="M198.705 206.881C192.155 207.726 194.023 207.397 187.478 208.317C184.274 208.764 168.179 210.983 165.26 211.902C165.198 211.921 165.21 212.027 165.278 212.027C168.334 212.052 184.379 209.485 187.577 208.975C194.103 207.938 192.217 208.168 198.73 207.061C198.854 207.043 198.829 206.863 198.705 206.881Z" fill="#37474F"/>
<path d="M165.185 211.356C160.825 204.029 140.963 167.862 137.01 166.439C133.41 165.14 61.4164 166.644 60.3524 166.656C60.2782 166.656 60.272 166.774 60.3524 166.774C68.8762 166.663 134.678 166.433 136.559 167.178C140.462 168.726 164.214 210.684 164.796 211.561C164.95 211.797 165.346 211.617 165.192 211.362L165.185 211.356Z" fill="#37474F"/>
<path d="M34.6702 154.52C34.6702 154.52 32.3939 176.332 43.4104 187.176C56.5919 200.157 143.586 196.876 157.07 192.501C170.555 188.127 170.975 166.265 156.235 161.2C142.219 156.384 80.0537 153.612 78.5816 153.022C77.1094 152.432 72.7981 145.521 72.7981 145.521L34.6702 154.514V154.52Z" fill="#263238"/>
<path d="M53.0787 153.904C53.0601 153.799 52.8993 153.836 52.8993 153.935C52.9116 156.688 51.8972 159.59 50.0972 161.678C48.0312 164.071 44.9879 165.413 42.2292 166.818C41.9632 166.954 42.1673 167.371 42.4395 167.284C44.122 166.774 45.7797 166.041 47.3137 165.177C48.7116 164.388 49.9982 163.4 50.9756 162.12C52.7817 159.752 53.5673 156.862 53.0787 153.91V153.904Z" fill="#37474F"/>
<path d="M77.988 151.667C77.3757 150.878 76.7014 150.126 76.0581 149.356C74.5365 147.541 73.0148 145.714 71.419 143.962C71.2705 143.794 70.9736 144.03 71.1097 144.21C72.1798 145.621 73.3179 146.982 74.4313 148.355C75.0004 149.057 75.5757 149.76 76.1571 150.462C76.6952 151.114 77.3633 151.761 77.7654 152.512C78.1798 153.295 77.6355 153.96 76.8313 154.047C76.1076 154.122 75.4458 153.755 74.8891 153.333C73.6334 152.363 72.6437 150.984 71.5983 149.797C70.9612 149.076 70.3179 148.349 69.6684 147.641C68.9757 146.882 68.2396 146.162 67.553 145.403C67.5097 145.354 67.4231 145.422 67.4602 145.478C68.0602 146.304 68.6169 147.174 69.2231 148.007C69.8231 148.84 70.4355 149.66 71.0602 150.474C71.6478 151.245 72.2602 152.003 72.8849 152.742C73.4169 153.37 74.0231 153.985 74.7344 154.408C75.8849 155.091 77.8891 155.234 78.5014 153.737C78.8045 152.997 78.4272 152.245 77.9757 151.667H77.988Z" fill="#37474F"/>
<path d="M155.221 192.582C150.582 192.669 145.942 192.943 141.297 193.042C136.695 193.141 132.087 193.166 127.479 193.123C118.231 193.036 108.984 192.682 99.7549 192.041C90.427 191.395 80.3693 190.463 71.1095 189.17C66.6745 188.555 62.1837 188.039 57.8044 187.095C53.8518 186.244 50.2703 184.591 47.3074 181.707C41.3074 175.86 38.9755 167.265 38.0167 159.056C37.8868 157.956 37.7817 156.85 37.6951 155.744C37.6951 155.669 37.5775 155.669 37.5837 155.744C38.1281 164.164 39.427 172.945 44.6971 179.712C46.9796 182.639 49.8806 185.038 53.2827 186.411C57.4332 188.083 62.0353 188.474 66.4147 189.071C75.7178 190.339 85.8126 191.314 95.1652 192.048C104.58 192.781 114.013 193.241 123.452 193.378C132.891 193.52 142.336 193.384 151.769 192.918C152.92 192.862 154.07 192.793 155.221 192.694C155.289 192.694 155.283 192.588 155.221 192.588V192.582Z" fill="#37474F"/>
<path d="M167.617 172.2C166.732 168.502 164.518 165.401 161.4 163.263C158.06 160.97 154.064 159.926 150.106 159.348C145.627 158.696 141.099 158.36 136.596 157.919C127.361 157.018 118.12 156.185 108.873 155.421C99.6314 154.657 79.7262 153.103 78.6066 153.06C78.5076 153.06 78.4891 153.221 78.5881 153.234C87.5076 154.228 95.6231 155.085 104.567 155.899C113.549 156.72 122.53 157.577 131.506 158.472C135.978 158.913 140.45 159.367 144.922 159.827C149.066 160.256 153.328 160.678 157.213 162.288C160.547 163.667 163.541 165.886 165.242 169.142C166.887 172.287 167.227 176.052 166.572 179.514C165.959 182.726 164.456 185.858 162.26 188.282C160.095 190.668 157.349 192.495 154.182 193.185C153.365 193.359 152.376 193.49 151.627 193.639C151.572 193.651 151.51 193.769 151.572 193.775C158.252 193.943 164.431 189.046 166.85 182.913C168.18 179.532 168.477 175.735 167.629 172.2H167.617Z" fill="#37474F"/>
<path d="M60.643 100.847C65.0657 118.26 73.8492 139.046 77.4678 142.371C82.0451 146.572 110.029 152.084 111.507 152.227C113.932 152.463 118.936 127.401 116.672 127.451C110.684 127.587 92.2389 125.698 90.9152 124.399C89.542 123.038 80.1708 111.735 70.509 98.9457C63.8409 90.1028 57.8966 90.0406 60.6368 100.847H60.643Z" fill="#EB9481"/>
<path d="M109.243 151.183C109.651 151.375 115.404 154.116 118.948 155.054C121.59 155.756 129.253 157.571 130.311 154.719C131.035 152.78 126.656 151.177 123.581 149.977C121.961 149.343 119.95 147.709 120.396 146.659C121.181 144.832 125.35 146.547 128.097 148.063C133.416 150.996 140.536 156.341 143.678 153.594C144.866 152.556 143.412 150.748 141.315 148.989C144.705 151.015 148.305 152.649 149.672 151.549C150.458 150.922 150.47 150.083 150.006 149.138C151.045 149.449 151.955 149.362 152.573 148.672C153.631 147.504 153.062 145.832 151.831 144.136C152.208 144.086 152.548 143.881 152.802 143.458C155.016 139.885 143.27 130.054 139.268 129.203C127.497 126.692 115.175 127.506 115.175 127.506C110.666 131.309 109.237 151.158 109.243 151.17V151.183Z" fill="#EB9481"/>
<path d="M126.192 139.941C128.957 140.308 131.697 141.277 134.072 142.775C137.085 144.67 139.107 146.926 141.656 149.188C141.724 149.25 141.631 149.356 141.563 149.293C140.351 148.218 135.334 144.191 134.041 143.284C131.672 141.613 129.043 140.463 126.179 139.997C126.149 139.997 126.161 139.947 126.186 139.947L126.192 139.941Z" fill="#263238"/>
<path d="M128.258 134.901C131.357 135.672 134.524 136.449 137.419 137.841C140.579 139.363 143.091 141.917 145.553 144.366C147.031 145.838 148.485 147.342 149.895 148.883C149.957 148.946 149.87 149.051 149.802 148.989C147.303 146.454 144.724 143.993 142.07 141.619C139.577 139.382 136.812 137.692 133.658 136.573C131.883 135.939 130.058 135.448 128.239 134.957C128.202 134.951 128.214 134.895 128.252 134.901H128.258Z" fill="#263238"/>
<path d="M131.437 130.458C134.443 131.005 137.06 131.465 139.744 133.012C143.301 135.057 146.765 138.568 147.984 139.81C149.326 141.184 150.625 142.601 151.899 144.042C151.949 144.098 151.85 144.192 151.8 144.136C148.887 140.997 145.757 138.021 142.466 135.286C140.895 133.982 139.188 132.851 137.289 132.08C135.408 131.322 133.404 130.912 131.431 130.489C131.419 130.489 131.425 130.464 131.431 130.47L131.437 130.458Z" fill="#263238"/>
<path d="M114.711 125.773L106.299 154.961C106.299 154.961 81.4888 148.486 76.8682 143.719C72.2476 138.947 63.3342 113.953 60.6001 101.804C57.8661 89.6491 64.0146 89.8044 69.8476 97.3672C75.6805 104.93 90.1919 123.25 90.9836 123.635C91.7816 124.02 114.711 125.773 114.711 125.773Z" fill="#189FFF"/>
<path d="M103.633 142.147C104.654 138.704 105.705 135.268 106.596 131.788C107.103 129.812 107.623 127.836 108.111 125.853C108.13 125.779 108.006 125.735 107.981 125.81C106.819 129.221 105.662 132.652 104.66 136.119C103.658 139.568 102.631 143.011 101.678 146.472C101.134 148.442 100.652 150.418 100.231 152.419C100.225 152.456 100.287 152.481 100.299 152.444C101.573 149.063 102.612 145.615 103.639 142.147H103.633Z" fill="#263238"/>
<path opacity="0.1" d="M102.724 153.985C95.6783 151.99 80.3937 147.355 76.8679 143.719C72.2473 138.947 63.3339 113.953 60.5999 101.804C59.2886 95.9688 60.0185 92.9611 61.7875 92.2651C61.9731 92.3459 62.1649 92.4578 62.3566 92.5696C71.4618 105.147 90.3649 135.168 102.724 153.979V153.985Z" fill="black"/>
<path d="M32.1649 158.292C32.3072 158.435 84.7546 146.895 85.2371 146.28C85.9175 145.416 76.5402 105.794 66.6557 93.9684C64.1814 91.0104 56.3072 91.2155 52.7876 94.1983C35.3258 108.988 31.6701 157.776 32.1649 158.292Z" fill="#189FFF"/>
<path d="M48.7053 97.0382C38.2455 105.123 10.6826 137.798 16.4413 145.553C22.2434 153.364 61.695 150.723 73.2187 147.386C76.6455 146.392 67.8496 124.487 64.1939 123.399C61.1506 122.498 44.0475 127.159 43.7444 126.164C43.398 125.04 47.1836 117.794 53.295 104.557C60.3403 89.2952 53.3321 93.465 48.7114 97.0382H48.7053Z" fill="#EB9481"/>
<path d="M80.27 120.845C87.8906 121.044 89.8205 122.268 96.3339 118.999C100.614 116.855 103.812 118.682 100.905 122.734C96.1484 129.365 86.2638 131.185 82.6576 130.825L80.27 120.845Z" fill="#EB9481"/>
<path d="M59.2949 124.76C59.2949 124.76 68.431 121.485 76.5774 120.882C82.2063 120.466 94.5588 120.938 104.153 134.852C106.429 138.151 107.344 144.478 101.678 140.444C97.6516 137.58 95.963 134.541 93.3217 133.304C93.3217 133.304 93.532 141.488 90.1547 143.651C88.6454 144.62 84.4578 147.156 80.9197 148.672C80.9197 148.672 80.3877 147.989 79.831 147.019C79.831 147.019 76.4846 148.741 70.9609 147.268L59.3011 124.76H59.2949Z" fill="#EB9481"/>
<path d="M82.0144 121.354C84.3773 123.138 89.3319 127.009 92.2824 131.589C95.5608 136.679 100.515 147.367 96.7484 149.76C93.9896 151.512 91.7381 147.604 91.7381 147.604C91.7381 147.604 92.8577 152.457 90.0185 153.495C87.4329 154.439 85.8742 151.307 85.8742 151.307C85.8742 151.307 86.0474 154.365 83.3814 154.793C80.1773 155.309 80.3319 148.809 76.6329 146.516C75.8041 146 82.002 121.354 82.002 121.354H82.0144Z" fill="#EB9481"/>
<path d="M86.3505 134.175C88.299 136.219 91.5402 142.011 91.8 147.492C91.8 147.616 91.7134 147.685 91.6887 147.573C90.1299 141.601 87.5382 136.362 86.3072 134.206C86.2887 134.175 86.332 134.15 86.3567 134.175H86.3505Z" fill="#263238"/>
<path d="M81.3339 137.648C82.837 139.587 85.9112 145.702 85.9854 151.27C85.9854 151.394 85.8927 151.456 85.8679 151.345C84.4947 145.037 82.3916 139.904 81.2844 137.679C81.272 137.648 81.3153 137.623 81.3339 137.648Z" fill="#263238"/>
<path d="M93.328 133.261C95.6352 134.38 97.0208 135.84 98.8332 137.611C99.7301 138.487 100.646 139.351 101.635 140.122C102.538 140.824 103.862 141.88 105.05 141.209C105.712 140.836 105.848 139.985 105.823 139.289C105.798 138.512 105.291 136.99 104.945 136.294C104.926 136.256 104.988 136.225 105.006 136.263C105.328 136.89 105.928 138.282 106.058 138.978C106.175 139.606 106.231 140.321 105.965 140.917C105.384 142.204 103.782 142.117 102.724 141.563C102.093 141.228 101.518 140.768 100.967 140.314C100.435 139.879 99.9218 139.413 99.4208 138.941C98.394 137.965 97.429 136.934 96.4146 135.946C95.3012 134.864 94.5033 134.287 93.2785 133.336C93.2352 133.305 93.2785 133.236 93.328 133.261Z" fill="#263238"/>
<path d="M97.0022 142.682C96.6063 141.184 94.1568 134.827 93.2723 133.305C93.2476 133.267 93.3032 133.23 93.328 133.267C94.9239 135.386 97.1754 140.675 97.6331 142.328C98.0847 143.962 98.5733 146.032 98.295 147.722C97.8744 150.27 96.1115 150.475 95.4682 150.493C94.7012 150.518 93.9775 150.239 93.3651 149.779C92.6847 149.269 92.1032 148.349 91.7135 147.604C91.695 147.566 91.7445 147.523 91.7692 147.566C92.4806 148.716 93.7795 149.953 95.1898 149.996C95.8022 150.015 96.4517 149.841 96.897 149.406C97.4228 148.89 97.5836 148.126 97.6393 147.423C97.7692 145.82 97.4043 144.223 96.996 142.682H97.0022Z" fill="#263238"/>
<path d="M59.2949 123.66L67.231 151.407C67.231 151.407 17.8516 154.234 15.1176 145.224C12.3836 136.213 36.2351 106.701 46.132 98.598C57.6001 89.2083 58.2186 93.1481 54.4826 102.544C50.5733 112.381 43.8434 126.426 43.8434 126.426L59.3011 123.66H59.2949Z" fill="#189FFF"/>
<path d="M28.2433 130.868C30.699 129.688 33.266 128.737 35.8578 127.923C38.431 127.115 41.0722 126.593 43.732 126.177C45.2475 125.94 46.7753 125.773 48.3031 125.599C48.3526 125.599 48.3588 125.667 48.3093 125.673C45.6372 126.052 42.9835 126.667 40.3671 127.351C37.7629 128.035 35.1835 128.762 32.6104 129.538C31.1567 129.98 29.7217 130.489 28.2805 130.974C28.2124 130.999 28.1815 130.899 28.2433 130.868Z" fill="#263238"/>
<path d="M59.177 123.567C58.9296 123.592 45.1977 125.742 44.7337 125.872C44.8203 125.686 48.3028 119.117 48.8162 118.154C48.8657 118.061 48.9152 117.962 48.9647 117.868C49.2739 117.452 49.5894 117.042 49.8863 116.613C50.2636 116.066 50.641 115.513 51.0183 114.966C51.0306 114.948 51.0059 114.929 50.9935 114.948C50.5915 115.476 50.1956 116.01 49.7935 116.545C49.608 116.793 49.4348 117.042 49.2616 117.297C49.608 116.613 49.9482 115.929 50.2884 115.24C50.8265 114.14 51.3337 113.034 51.8348 111.915C51.8533 111.878 51.7977 111.859 51.7791 111.89C50.7523 113.804 49.6698 115.687 48.6368 117.595C47.61 119.503 43.7007 126.525 43.7193 126.525C43.7379 126.55 58.8987 123.828 59.1894 123.753C59.3069 123.728 59.2884 123.554 59.1647 123.567H59.177Z" fill="#263238"/>
<path d="M57.2969 140.488C56.4309 137.394 55.5897 134.293 54.6062 131.229C54.0495 129.489 53.499 127.749 52.9237 126.009C52.9051 125.941 52.7876 125.972 52.8062 126.04C53.5546 129.178 54.3093 132.329 55.2 135.43C56.0845 138.518 56.9443 141.613 57.8722 144.695C58.3979 146.448 58.9732 148.175 59.6103 149.89C59.6227 149.922 59.6783 149.909 59.6722 149.872C59.0289 146.703 58.1691 143.595 57.2969 140.482V140.488Z" fill="#263238"/>
<path d="M67.7752 151.91C67.4288 151.04 67.0143 149.797 66.6308 148.94C66.5319 148.716 66.3648 148.729 66.4391 148.965C66.6803 149.742 66.8535 150.605 67.0886 151.401C66.3958 151.426 65.7092 151.432 65.0164 151.463C64.2185 151.494 63.4205 151.537 62.6226 151.569C61.0576 151.631 59.4927 151.674 57.9277 151.705C54.7607 151.767 51.5875 151.755 48.4205 151.68C42.0679 151.531 35.703 151.146 29.3999 150.332C27.637 150.102 25.8741 149.841 24.1236 149.53C22.3484 149.207 20.4308 148.853 18.9834 148.418C18.9401 148.405 18.9154 148.48 18.9587 148.499C20.437 149.07 21.8226 149.499 23.369 149.835C24.9463 150.177 26.5298 150.475 28.1195 150.723C31.2927 151.214 34.4844 151.531 37.6824 151.767C44.0226 152.227 50.3937 152.414 56.7525 152.345C58.5339 152.327 60.3154 152.283 62.0968 152.227C62.9937 152.196 63.8968 152.165 64.7937 152.115C65.6906 152.066 67.8246 152.066 67.769 151.917L67.7752 151.91Z" fill="#263238"/>
<path d="M134.382 155.564H71.2021V158.124H134.382V155.564Z" fill="#455A64"/>
<path d="M106.163 155.564H71.2021V158.124H106.163V155.564Z" fill="#A6A6A6"/>
<path d="M105.099 158.124H160.472L168.297 120.341H112.924L105.099 158.124Z" fill="#A6A6A6"/>
<path d="M107.61 158.124H162.984L170.808 120.341H115.435L107.61 158.124Z" fill="#C7C7C7"/>
<path d="M135.52 140.072C135.303 142.122 136.781 143.782 138.823 143.782C140.864 143.782 142.689 142.122 142.899 140.072C143.115 138.021 141.637 136.362 139.596 136.362C137.555 136.362 135.73 138.021 135.52 140.072Z" fill="#EBEBEB"/>
<path d="M62.6845 106.645C62.6845 106.645 53.4494 97.417 47.4185 97.5786L42.2597 102.103C42.2597 102.103 40.5773 102.643 40.0639 101.568C38.802 98.9084 38.5979 92.5077 44.1092 88.4001C49.1567 84.6405 57.3711 84.9885 64.2123 86.859C70.7814 88.6549 76.4536 93.0919 74.3999 97.3922C72.3463 101.686 62.6845 106.651 62.6845 106.651V106.645Z" fill="#189FFF"/>
<path opacity="0.1" d="M63.3587 104.619C63.3587 104.619 70.9546 99.2688 71.7587 96.056C72.5628 92.8432 66.1917 89.7299 62.0659 88.4932C55.6824 86.5793 51.3216 86.9583 47.7092 90.3575C44.0968 93.7567 63.3525 104.619 63.3525 104.619H63.3587Z" fill="black"/>
<path d="M63.3586 104.619C63.3586 104.619 55.9978 91.8616 46.6885 90.5317L47.4122 97.5725C47.4122 97.5725 52.973 97.6346 62.6782 106.639L63.3524 104.619H63.3586Z" fill="#189FFF"/>
<path d="M44.9009 97.6845C46.6081 97.4856 48.3029 97.8771 49.8988 98.3991C51.5071 98.9273 53.0225 99.7041 54.4638 100.587C55.9174 101.45 57.2782 102.469 58.6143 103.513L60.5504 105.173L62.4122 106.919L62.6225 107.118L62.8576 107C64.6143 106.111 66.2906 105.111 67.905 103.998C68.7091 103.439 69.5071 102.867 70.237 102.215C70.973 101.568 71.6844 100.891 72.2844 100.114C70.8926 101.488 69.2658 102.544 67.6267 103.563C66.804 104.067 65.9566 104.533 65.1029 104.986C64.2493 105.434 63.3895 105.887 62.5236 106.291L62.9689 106.366L61.1071 104.557C60.4638 103.98 59.8019 103.42 59.1401 102.861C58.4473 102.339 57.7669 101.805 57.0555 101.307C56.3256 100.835 55.6143 100.338 54.8411 99.9402C53.338 99.0702 51.7174 98.3991 50.0411 97.9393C49.6267 97.815 49.1937 97.7404 48.773 97.6534C48.3401 97.5975 47.9133 97.5291 47.4803 97.5043C46.6205 97.4359 45.7359 97.4608 44.9071 97.6845H44.9009Z" fill="#263238"/>
<path d="M42.2598 102.103C43.2247 101.475 44.1092 100.748 44.9752 100.002C45.8288 99.2442 46.6639 98.4612 47.4185 97.585C46.4536 98.2126 45.569 98.9397 44.7031 99.6854C43.8495 100.444 43.0144 101.227 42.2598 102.103Z" fill="#263238"/>
<path d="M59.5858 102.326C59.5858 102.326 58.8064 105.949 58.695 111.188C58.6517 113.263 59.4435 120.702 61.7383 120.435C64.0332 120.168 60.2971 115.364 59.6414 111.436C58.9734 107.453 60.0311 104.638 60.1734 102.289L59.5858 102.32V102.326Z" fill="#FFC727"/>
<g opacity="0.1">
<path d="M59.5858 102.326C59.5858 102.326 58.8064 105.949 58.695 111.188C58.6517 113.263 59.4435 120.702 61.7383 120.435C64.0332 120.168 60.2971 115.364 59.6414 111.436C58.9734 107.453 60.0311 104.638 60.1734 102.289L59.5858 102.32V102.326Z" fill="black"/>
</g>
<path d="M67.732 102.736C67.732 102.736 68.8022 106.658 69.4393 111.368C69.6929 113.232 69.7362 120.018 67.6393 120.018C65.5424 120.018 68.4186 115.302 68.6104 111.697C68.8021 108.037 67.565 104.874 67.2001 102.774L67.732 102.743V102.736Z" fill="#FFC727"/>
<g opacity="0.1">
<path d="M67.732 102.736C67.732 102.736 68.8022 106.658 69.4393 111.368C69.6929 113.232 69.7362 120.018 67.6393 120.018C65.5424 120.018 68.4186 115.302 68.6104 111.697C68.8021 108.037 67.565 104.874 67.2001 102.774L67.732 102.743V102.736Z" fill="black"/>
</g>
<path d="M64.132 103.19C61.7382 103.035 57.2722 98.0072 55.7506 94.0177C55.6454 93.7442 56.4001 91.1156 57.1609 87.878C57.6186 85.9143 58.0763 83.7082 58.3547 81.6699L70.664 86.5171C70.664 86.5171 68.833 90.6185 68.3753 94.1792C68.3382 94.4775 68.332 94.7572 68.3506 95.0306C68.3506 95.0679 68.3506 95.1176 68.3506 95.1735C68.3939 96.7954 67.8867 103.445 64.1382 103.196L64.132 103.19Z" fill="#EB9481"/>
<path d="M68.3444 95.0304C68.3444 95.0677 68.3506 95.1112 68.3444 95.1733C67.9362 95.1733 67.5032 95.1423 67.0207 95.0615C59.8083 93.9056 59.2393 84.8079 59.2393 82.0239L70.6578 86.5168C70.6578 86.5168 68.8269 90.6183 68.3568 94.179C68.332 94.4711 68.3135 94.7508 68.332 95.0242L68.3444 95.0304Z" fill="#263238"/>
<path d="M60.8597 65.7243C58.2804 69.7449 57.0061 83.1242 59.3257 86.8466C62.6845 92.2406 69.9711 94.7387 74.9876 90.2768C79.8494 85.9455 81.1979 68.4834 78.4453 64.9164C74.3876 59.6591 64.67 59.7834 60.8597 65.7243Z" fill="#EB9481"/>
<path d="M69.1668 75.4809C69.5751 75.4312 69.94 75.3193 70.3359 75.2261C70.7813 75.1267 71.1462 75.0894 71.4802 74.7414C71.6534 74.555 71.6411 74.1759 71.4802 73.9895C71.0967 73.5483 70.5215 73.5358 69.9771 73.6353C69.3895 73.7471 68.9627 73.977 68.573 74.4369C68.1957 74.8781 68.6411 75.543 69.173 75.4809H69.1668Z" fill="#263238"/>
<path d="M78.1912 76.7173C77.8015 76.5993 77.4551 76.4253 77.084 76.2699C76.6634 76.0959 76.3046 75.9965 76.0386 75.5988C75.8964 75.3875 75.9768 75.0146 76.1685 74.853C76.6201 74.4864 77.1953 74.5672 77.7087 74.7598C78.2716 74.9649 78.6551 75.2694 78.9582 75.7852C79.2551 76.2885 78.7046 76.8665 78.1912 76.7111V76.7173Z" fill="#263238"/>
<path d="M68.4801 85.9955C68.6656 86.2317 68.845 86.5486 69.1667 86.6169C69.4759 86.6853 69.8594 86.5859 70.1563 86.5113C70.1873 86.5051 70.212 86.5362 70.1873 86.561C69.9089 86.8779 69.3955 87.0271 68.9935 86.9028C68.5976 86.7785 68.4429 86.4057 68.3935 86.0204C68.3873 85.9645 68.4553 85.9582 68.4862 85.9893L68.4801 85.9955Z" fill="#263238"/>
<path d="M69.7607 83.4287C70.1627 84.2739 70.8431 84.7897 71.6163 85.0507C71.9627 85.1687 72.3339 85.2247 72.705 85.2433C72.7792 85.2495 72.8473 85.2495 72.9153 85.2433C72.9833 85.2433 73.039 85.2433 73.1132 85.2433C73.2184 85.2433 73.2864 85.1625 73.3174 85.0631C73.3174 85.0258 73.3235 84.9947 73.3174 84.9637L73.3235 84.8767C73.4287 84.1869 73.4967 83.1305 73.4967 83.1305C73.7318 83.292 74.938 84.0315 74.9689 83.6711C75.173 80.6572 75.3957 77.3077 74.9627 74.2689C74.9565 74.1695 74.8019 74.1695 74.7957 74.2689C74.4864 77.1585 74.6906 80.0793 74.4246 82.9813C74.0349 82.77 73.404 82.3972 73.0452 82.3599C72.9462 82.3785 72.9524 84.4106 72.8782 84.7151C72.8782 84.7151 72.8782 84.7275 72.8658 84.7462C71.6906 84.7462 70.8617 84.2863 69.8411 83.3604C69.7792 83.2982 69.705 83.3542 69.7483 83.4287H69.7607Z" fill="#263238"/>
<path d="M72.3458 84.8394C72.3458 84.8394 71.6283 85.5914 70.7561 85.7778C70.4345 85.8524 70.0943 85.8524 69.7602 85.7156C69.0736 85.436 69.1355 84.7773 69.3396 84.2304C69.5066 83.783 69.7664 83.4102 69.7664 83.4102C69.7664 83.4102 70.6819 84.5225 72.3396 84.8394H72.3458Z" fill="#263238"/>
<path d="M70.7561 85.7778C70.4345 85.8524 70.0943 85.8524 69.7602 85.7157C69.0736 85.436 69.1355 84.7773 69.3396 84.2305C70.0943 84.4045 70.787 85.0259 70.7561 85.784V85.7778Z" fill="#FF9ABB"/>
<path d="M70.9234 77.9292C70.9234 77.892 70.8492 77.9603 70.843 77.9976C70.7317 78.8925 70.4533 79.893 69.6059 80.0607C69.5812 80.0607 69.575 80.1105 69.6059 80.1105C70.6018 80.1291 70.9605 78.793 70.9234 77.9292Z" fill="#263238"/>
<path d="M70.2802 76.8727C68.876 76.5371 68.3132 79.3832 69.6121 79.6939C70.8925 79.9984 71.4554 77.1523 70.2802 76.8727Z" fill="#263238"/>
<path d="M76.0945 78.613C76.1069 78.582 76.1564 78.669 76.144 78.7062C75.9337 79.5824 75.8409 80.6202 76.5708 81.0739C76.5956 81.0863 76.5832 81.1298 76.5523 81.1236C75.6121 80.788 75.7481 79.4085 76.0883 78.613H76.0945Z" fill="#263238"/>
<path d="M77.0658 77.8547C78.4947 78.0412 78.0246 80.9059 76.6947 80.7319C75.3895 80.5642 75.8658 77.6994 77.0658 77.8547Z" fill="#263238"/>
<path d="M62.1274 74.3373C63.9583 72.0443 64.0449 67.1163 65.7706 66.4141C69.5067 64.8978 73.5088 71.8765 77.4614 73.343C81.2902 74.7661 83.4676 72.7527 83.9067 69.3721C84.3459 65.9916 82.4593 62.9279 78.383 60.7094C74.1706 58.4164 69.4572 58.7395 66.7356 59.3609C66.7356 59.3609 68.2696 58.1491 68.0779 57.5339C67.8923 56.9187 65.4676 57.7328 64.6634 58.1616C63.8469 58.5966 63.0552 59.6779 63.0552 59.6779C63.0552 59.6779 62.4304 59.2118 61.3665 58.8576C60.383 58.5282 58.8737 58.8451 58.7253 59.0502C58.5707 59.2553 59.9067 59.9451 60.8655 60.349C60.8655 60.349 58.1624 62.1201 57.4449 64.2205C56.7335 66.3209 56.3871 77.3947 57.1232 77.7862C58.0696 78.2896 61.3789 75.2695 62.1212 74.3373H62.1274Z" fill="#455A64"/>
<path d="M61.342 60.2373C61.3853 60.231 61.41 60.2932 61.3667 60.3118C60.142 60.7841 59.0409 61.449 58.2244 62.5055C57.2718 63.7297 56.8265 65.2646 56.6347 66.7871C56.2512 69.7451 56.6904 72.7155 56.9316 75.6611C56.9378 75.7481 56.7956 75.7605 56.7832 75.6735C56.3255 72.5664 55.9234 69.2293 56.4554 66.1097C56.9069 63.45 58.5213 60.7903 61.342 60.2373Z" fill="#455A64"/>
<path d="M65.9875 65.3452C67.169 65.6 68.3875 66.1592 69.3834 66.8428C70.3669 67.5139 71.0535 68.5269 71.8329 69.4155C73.5834 71.3979 75.6432 73.1938 78.2164 73.9581C78.2473 73.9706 78.235 74.0141 78.1978 74.0079C75.7917 73.461 73.7875 71.9509 72.1113 70.1799C71.2638 69.285 70.5587 68.1975 69.6123 67.4083C68.536 66.5197 67.1999 66.0536 65.9195 65.5565C65.7834 65.5067 65.8453 65.3141 65.9814 65.3452H65.9875Z" fill="#455A64"/>
<path d="M69.5008 59.1247C71.3317 58.8948 73.1998 58.988 75.0122 59.2863C76.7565 59.5721 78.4884 60.0506 80.041 60.9206C82.7132 62.4245 84.674 65.196 84.2781 68.3715C84.0802 69.981 83.3379 71.5532 82.0884 72.6159C82.0019 72.6842 81.8967 72.5662 81.9709 72.4916C84.0678 70.3477 84.7359 67.0665 83.2451 64.3882C81.6493 61.5048 78.4328 60.1563 75.3524 59.5659C73.4163 59.1931 71.4616 59.1185 69.4946 59.162C69.4823 59.162 69.4823 59.1434 69.4946 59.1371L69.5008 59.1247Z" fill="#455A64"/>
<path d="M67.7628 82.3536C65.9813 81.8565 64.6824 80.1911 64.7257 78.246C64.7751 75.9467 66.6803 74.1197 68.9628 74.1694C71.2514 74.2192 73.07 76.1269 73.0205 78.4262C72.971 80.7255 71.0659 82.5525 68.7834 82.5028C68.4308 82.4966 68.0906 82.4406 67.7628 82.3536ZM69.8349 74.8592C69.5504 74.7784 69.2597 74.7349 68.9504 74.7287C66.971 74.6852 65.3195 76.2699 65.2762 78.2584C65.2329 80.247 66.8102 81.9062 68.7896 81.9497C70.769 81.9932 72.4205 80.4086 72.4638 78.42C72.5009 76.7359 71.3813 75.2942 69.8349 74.8592Z" fill="#37474F"/>
<path d="M77.1769 83.7703C75.6491 83.3415 74.6965 81.384 75.0306 79.2339C75.1976 78.1526 75.6615 77.177 76.3419 76.4934C77.0409 75.785 77.8883 75.468 78.7171 75.5985C79.5522 75.729 80.2574 76.2883 80.7089 77.177C81.1481 78.0345 81.2965 79.1096 81.1295 80.1909C80.7769 82.4591 79.1254 84.0935 77.4429 83.8325C77.3501 83.82 77.2635 83.8014 77.1769 83.7765V83.7703ZM78.8409 76.1889C78.7728 76.1703 78.7048 76.1578 78.6367 76.1454C77.9872 76.046 77.313 76.307 76.7378 76.8849C76.1439 77.4877 75.7295 78.3515 75.5811 79.3209C75.278 81.2908 76.144 83.0619 77.5357 83.2794C78.9151 83.4969 80.2883 82.0676 80.5914 80.1039C80.7398 79.1345 80.6099 78.1837 80.2264 77.4318C79.8986 76.7855 79.4099 76.3505 78.847 76.1951L78.8409 76.1889Z" fill="#37474F"/>
<path d="M72.8099 78.8863L72.5254 78.4078C73.2305 77.979 74.7769 77.5005 75.612 78.7309L75.1543 79.0416C74.4058 77.9355 72.878 78.8428 72.8161 78.8801L72.8099 78.8863Z" fill="#37474F"/>
<path d="M54.3833 77.0904L53.938 76.761C54.0926 76.5497 55.4658 74.7103 56.7215 74.7041C57.8968 74.7041 65.1339 76.5373 65.437 76.6181L65.3009 77.1587C63.2287 76.6305 57.6308 75.2572 56.7215 75.2634C55.8926 75.2634 54.7545 76.587 54.3833 77.0904Z" fill="#37474F"/>
<path d="M60.6432 76.8605C60.6432 76.8605 58.8432 71.9698 56.7092 72.5105C54.5751 73.0511 55.1751 79.6134 57.1545 81.0116C59.1339 82.4098 60.4576 80.5952 60.4576 80.5952L60.6494 76.8667L60.6432 76.8605Z" fill="#EB9481"/>
<path d="M56.9256 74.3872C56.8885 74.3748 56.8699 74.4245 56.9009 74.4432C58.2741 75.4747 58.7132 77.1153 58.8926 78.7496C58.5833 78.0599 58.0452 77.5814 57.1421 77.9294C57.0926 77.948 57.1174 78.0226 57.1607 78.0226C57.8287 78.0536 58.2493 78.2836 58.5462 78.8988C58.7565 79.3338 58.8431 79.8433 58.9483 80.3156C58.9854 80.471 59.2514 80.4648 59.239 80.2908C59.239 80.2783 59.239 80.2659 59.239 80.2535C59.7895 78.296 58.9854 75.1392 56.9318 74.3872H56.9256Z" fill="#263238"/>
</g>
<defs>
<clipPath id="clip0_754_19041">
<rect width="258" height="250" fill="white" transform="translate(0 0.592773)"/>
</clipPath>
</defs>
</svg>
