<svg width="250" height="200" viewBox="0 0 250 200" fill="none" xmlns="http://www.w3.org/2000/svg">
<g clip-path="url(#clip0_724_29365)">
<path d="M44.4436 171.144C44.4436 171.144 15.1287 95.1682 36.2243 78.2498C50.3252 66.9414 65.2719 91.8704 83.1107 78.6827C98.9928 66.9426 76.8503 37.366 103.35 29.6289C131.203 21.4961 154.023 87.3566 177.394 78.2498C205.753 67.1998 233.963 89.6315 209.584 171.29L44.4424 171.144H44.4436Z" fill="#D4E8FF"/>
<path d="M23.9431 171.515C23.9303 171.482 23.6154 170.698 23.0879 169.238L24.2196 168.828C24.739 170.264 25.0573 171.056 25.0596 171.064L23.9431 171.515Z" fill="#DCE6FF"/>
<path d="M21.5069 164.63C21.0142 163.12 20.5274 161.555 20.0592 159.979L21.2129 159.636C21.6777 161.202 22.1622 162.757 22.6502 164.257L21.5057 164.63H21.5069ZM227.906 162.68L226.711 162.532C226.91 160.924 227.098 159.305 227.271 157.721L228.468 157.852C228.294 159.443 228.105 161.067 227.907 162.681L227.906 162.68ZM18.7311 155.294C18.3093 153.737 17.9015 152.15 17.5169 150.579L18.6858 150.292C19.068 151.853 19.4747 153.43 19.893 154.979L18.7311 155.294ZM228.961 153.015L227.763 152.902C227.915 151.288 228.055 149.665 228.182 148.076L229.382 148.172C229.256 149.766 229.115 151.395 228.962 153.016L228.961 153.015ZM16.4177 145.836C16.0703 144.249 15.7392 142.645 15.4348 141.068L16.6164 140.838C16.9197 142.406 17.2485 144.001 17.5936 145.578L16.4177 145.836ZM229.727 143.32L228.526 143.245C228.628 141.632 228.718 140.005 228.792 138.409L229.995 138.464C229.92 140.067 229.831 141.701 229.729 143.32H229.727ZM14.5726 136.274C14.3054 134.669 14.0567 133.049 13.836 131.46L15.0281 131.294C15.2477 132.872 15.494 134.48 15.7601 136.077L14.5726 136.276V136.274ZM230.178 133.604L228.975 133.569C229.021 131.949 229.054 130.32 229.071 128.728L230.275 128.741C230.257 130.341 230.225 131.977 230.178 133.604ZM13.2318 126.625C13.0529 125.003 12.896 123.372 12.767 121.775L13.9673 121.679C14.0951 123.262 14.2496 124.882 14.4286 126.493L13.2318 126.625ZM229.076 123.886C229.062 122.265 229.03 120.636 228.984 119.047L230.188 119.012C230.234 120.609 230.265 122.247 230.279 123.876L229.076 123.886ZM12.4498 116.914C12.3697 115.282 12.3174 113.644 12.293 112.044L13.4967 112.025C13.5211 113.611 13.5734 115.236 13.6524 116.854L12.4498 116.914ZM228.789 114.212C228.706 112.593 228.604 110.967 228.487 109.382L229.687 109.293C229.805 110.887 229.908 112.521 229.99 114.15L228.787 114.212H228.789ZM13.5083 107.194L12.3046 107.169C12.3383 105.533 12.4022 103.893 12.4963 102.298L13.6977 102.369C13.6048 103.949 13.5409 105.573 13.5072 107.194H13.5083ZM228.071 104.564C227.91 102.945 227.728 101.328 227.529 99.7578L228.724 99.6065C228.923 101.187 229.106 102.815 229.269 104.444L228.071 104.564ZM14.08 97.5562L12.8821 97.4352C13.0459 95.8049 13.2446 94.1758 13.4746 92.592L14.6656 92.7654C14.4378 94.3317 14.2415 95.9422 14.08 97.555V97.5562ZM226.855 94.9694C226.604 93.3612 226.33 91.7577 226.038 90.2065L227.221 89.9831C227.515 91.5471 227.793 93.1622 228.045 94.7844L226.855 94.9705V94.9694ZM84.5008 94.7995C82.8288 94.5353 81.6181 93.7731 79.9426 92.4559L80.7037 91.5215C82.1723 92.6723 83.232 93.3624 84.6298 93.5998L84.502 94.7983L84.5008 94.7995ZM88.6767 91.9311L87.6042 91.383C88.155 90.302 88.6418 88.8032 89.052 86.9262L90.2278 87.1834C89.7898 89.1895 89.282 90.7418 88.6755 91.9311H88.6767ZM76.4104 88.9987C75.4519 87.9293 74.4271 86.6981 73.2779 85.2366L74.2237 84.4907C75.3566 85.9324 76.3651 87.1438 77.3063 88.1934L76.4104 88.9987ZM15.4708 88.0096L14.2891 87.7803C14.6005 86.171 14.9537 84.5675 15.3383 83.0117L16.5072 83.3014C16.1284 84.8374 15.7798 86.4212 15.4719 88.0096H15.4708ZM225.066 85.474C224.709 83.8821 224.325 82.303 223.923 80.7821L225.087 80.4737C225.492 82.0098 225.88 83.6028 226.241 85.2098L225.066 85.474ZM91.0388 82.3321L89.8456 82.1785C90.0303 80.739 90.1965 79.1635 90.3522 77.361L91.5512 77.4645C91.3944 79.2833 91.2259 80.8764 91.0388 82.3309V82.3321ZM70.3302 81.3523C69.3519 80.0292 68.3375 78.6305 67.4626 77.4226L68.4374 76.7151C69.31 77.9195 70.3232 79.3159 71.2981 80.6355L70.3302 81.3523ZM158.453 81.2534C157.515 81.2534 156.596 80.9729 155.719 80.4202L156.36 79.4008C157.676 80.2329 158.972 80.2352 160.371 79.5707L160.889 80.6588C160.062 81.0532 159.243 81.2534 158.453 81.2534ZM17.7865 78.6561L16.635 78.3035C17.1137 76.7372 17.6377 75.1791 18.1943 73.6733L19.3225 74.0923C18.7741 75.5771 18.257 77.1119 17.7853 78.6561H17.7865ZM164.825 77.5064L163.94 76.6884C164.852 75.6981 165.831 74.4774 166.931 72.9554L167.906 73.6617C166.778 75.2233 165.769 76.4801 164.825 77.5052V77.5064ZM152.296 76.6779C151.517 75.4747 150.745 74.0573 149.936 72.3456L151.023 71.8301C151.809 73.493 152.556 74.8649 153.305 76.0228L152.296 76.6779ZM222.592 76.1438C222.108 74.5822 221.589 73.0438 221.054 71.5741L222.184 71.161C222.727 72.6493 223.25 74.2063 223.741 75.7865L222.592 76.1449V76.1438ZM64.609 73.493C63.5075 71.986 62.5896 70.7479 61.7205 69.5982L62.6802 68.8709C63.554 70.0253 64.4753 71.2681 65.5803 72.7808L64.609 73.493ZM91.9126 72.597L90.7112 72.519C90.803 71.1063 90.8948 69.5191 90.9947 67.6666L92.1961 67.7317C92.0962 69.5889 92.0032 71.1808 91.9114 72.5981L91.9126 72.597ZM21.1281 69.6296L20.0266 69.1432C20.6877 67.6444 21.3919 66.1724 22.1401 64.7341L23.2079 65.2915C22.4713 66.7077 21.7788 68.1553 21.1293 69.6308L21.1281 69.6296ZM170.664 69.6296L169.658 68.9675C170.513 67.6654 171.397 66.2853 172.291 64.8912L173.303 65.5429C172.406 66.9404 171.522 68.3217 170.663 69.6296H170.664ZM147.999 67.8469C147.454 66.4773 146.891 64.9832 146.277 63.2784L147.409 62.87C148.018 64.5619 148.576 66.0433 149.117 67.4001L147.999 67.8469ZM219.284 67.0952C218.637 65.5859 217.953 64.1186 217.25 62.7362L218.322 62.1892C219.037 63.5949 219.733 65.0856 220.39 66.6193L219.284 67.0952ZM58.7495 65.7791C57.6573 64.4211 56.6406 63.2132 55.6414 62.0845L56.5418 61.2851C57.5539 62.4278 58.5822 63.6508 59.6871 65.0227L58.7495 65.7791ZM92.4482 62.8688L91.2457 62.8083C91.327 61.1978 91.4072 59.5861 91.4932 57.9465L92.6957 58.0094C92.6097 59.6478 92.5296 61.2583 92.4482 62.8688ZM175.944 61.4713L174.94 60.8068C175.946 59.2824 176.846 57.964 177.69 56.7771L178.671 57.4764C177.834 58.6529 176.943 59.9597 175.945 61.4724L175.944 61.4713ZM25.5956 61.1315L24.5813 60.4822C25.5271 58.9985 26.5019 57.6591 27.4802 56.5001L28.3993 57.2775C27.4558 58.3957 26.5124 59.692 25.5956 61.1303V61.1315ZM144.671 58.6785C144.119 57.0587 143.578 55.4377 143.121 54.0658L144.263 53.6841C144.72 55.0537 145.26 56.6723 145.811 58.2887L144.672 58.6785H144.671ZM52.3334 58.5935C51.103 57.3938 49.8934 56.3349 48.7385 55.4435L49.4728 54.4882C50.6649 55.4075 51.9105 56.4978 53.1735 57.7289L52.3334 58.5924V58.5935ZM214.914 58.5423C214.052 57.1332 213.147 55.7996 212.227 54.5801L213.187 53.8528C214.131 55.1037 215.058 56.4699 215.94 57.9128L214.914 58.5423ZM31.7758 53.9983L31.0461 53.0394C32.4834 51.9409 33.98 51.1496 35.4928 50.6853L35.8448 51.8385C34.4691 52.2598 33.1004 52.9871 31.7758 53.9983ZM181.575 53.6294L180.639 52.8707C181.767 51.4755 182.838 50.2757 183.909 49.2017L184.761 50.0535C183.718 51.0984 182.676 52.2679 181.575 53.6294ZM92.9676 53.1558L91.7662 53.0836C91.8708 51.3312 91.9742 49.7405 92.0822 48.2196L93.2825 48.3057C93.1744 49.8219 93.071 51.4091 92.9676 53.1558ZM44.7601 52.9033C43.2578 52.155 41.781 51.6768 40.3693 51.4836L40.5331 50.2897C42.075 50.5015 43.6772 51.0182 45.2969 51.8246L44.7601 52.9033ZM209.132 50.9541C207.973 49.7649 206.773 48.7153 205.566 47.8344L206.274 46.8604C207.536 47.7809 208.788 48.8747 209.994 50.1117L209.133 50.9541H209.132ZM141.586 49.453C140.988 47.6598 140.494 46.1971 140.033 44.8508L141.172 44.4598C141.633 45.8096 142.128 47.2747 142.727 49.0702L141.586 49.453ZM188.364 46.9756L187.673 45.9877C189.154 44.9509 190.649 44.1828 192.118 43.7046L192.49 44.8508C191.135 45.2918 189.746 46.0063 188.364 46.9745V46.9756ZM201.497 45.4989C200.006 44.8694 198.497 44.4796 197.012 44.3399L197.123 43.1402C198.731 43.2903 200.36 43.7104 201.964 44.3876L201.495 45.4989H201.497ZM93.6671 43.4649L92.468 43.3578C92.6179 41.667 92.7817 40.0333 92.9525 38.503L94.1481 38.638C93.9773 40.1589 93.8146 41.7834 93.6659 43.4649H93.6671ZM138.431 40.2648C137.849 38.6392 137.301 37.1532 136.755 35.7219L137.88 35.2914C138.428 36.7308 138.98 38.2249 139.565 39.8587L138.432 40.2648H138.431ZM94.7616 33.831L93.5706 33.6588C93.8146 31.9715 94.0819 30.3482 94.3665 28.8342L95.5494 29.0565C95.2682 30.553 95.0033 32.1588 94.7628 33.8298L94.7616 33.831ZM134.967 31.2209C134.32 29.6628 133.668 28.1721 133.029 26.7897L134.121 26.2835C134.767 27.6799 135.425 29.1857 136.078 30.7578L134.966 31.2209H134.967ZM96.5707 24.3402L95.403 24.0481C95.8224 22.3643 96.286 20.7794 96.7787 19.3353L97.9173 19.7252C97.4351 21.1367 96.982 22.689 96.5707 24.3402ZM130.891 22.4632C130.1 20.9703 129.291 19.5681 128.487 18.2974L129.504 17.6527C130.323 18.9502 131.148 20.378 131.953 21.8977L130.89 22.4632H130.891ZM99.7253 15.3091L98.6459 14.7761C99.4359 13.1726 100.313 11.7541 101.251 10.5614L102.197 11.3073C101.31 12.4349 100.478 13.7812 99.7253 15.3103V15.3091ZM125.729 14.3875C124.677 13.0667 123.592 11.8973 122.502 10.9105L123.31 10.0168C124.447 11.0466 125.578 12.265 126.67 13.6358L125.729 14.3875ZM105.555 8.18171L104.906 7.16584C106.332 6.25237 107.903 5.65775 109.576 5.39941L109.759 6.591C108.254 6.82373 106.84 7.35784 105.556 8.18171H105.555ZM118.705 8.18171C117.303 7.42417 115.842 6.90751 114.364 6.64336L114.576 5.45643C116.18 5.74269 117.762 6.30241 119.277 7.12046L118.705 8.18171Z" fill="#DCE6FF"/>
<path d="M226.925 169.999L225.734 169.827C225.849 169.029 225.961 168.234 226.07 167.444L227.262 167.608C227.153 168.402 227.042 169.199 226.925 169.999Z" fill="#DCE6FF"/>
<path d="M73.1455 142.169V128.143H65.104C64.4708 125.641 63.5075 123.269 62.2631 121.077L68.0088 115.323L58.1047 105.404L52.5752 110.942C50.0933 109.38 47.357 108.191 44.443 107.451V99.1677H30.4374V107.451C27.7301 108.137 25.1774 109.212 22.8385 110.613L17.6366 105.404L7.73256 115.323L12.9344 120.532C11.5355 122.874 10.4619 125.431 9.77635 128.143H1.73828V142.169H9.77867C10.5165 145.088 11.7051 147.828 13.2644 150.314L7.73488 155.852L17.639 165.771L23.3846 160.016C25.5736 161.263 27.9404 162.227 30.4397 162.862V171.144H44.4453V162.862C47.1525 162.175 49.7053 161.1 52.0442 159.699L58.107 165.771L68.0111 155.852L61.9483 149.78C63.3472 147.438 64.4208 144.881 65.1063 142.169H73.1479H73.1455ZM38.2779 147.945C21.5523 148.941 19.9419 123.556 36.6071 122.368C53.3316 121.371 54.942 146.757 38.2779 147.945Z" fill="#FCB4B4"/>
<path d="M212.058 79.8965V76.6022H209.151C208.955 74.2772 208.347 72.0686 207.401 70.0508L209.916 68.5974L208.272 65.7441L205.755 67.1999C204.454 65.3334 202.83 63.7089 200.968 62.4056L202.421 59.8851L199.572 58.2386L198.121 60.7567C196.106 59.8095 193.902 59.2009 191.58 59.0042V56.0928H188.29V59.0042C185.969 59.2009 183.764 59.8095 181.749 60.7567L180.296 58.2386L177.447 59.8851L178.901 62.4056C177.037 63.7089 175.415 65.3345 174.114 67.1999L171.597 65.7441L169.953 68.5974L172.467 70.0508C171.522 72.0686 170.914 74.276 170.718 76.6022H167.811V79.8965H170.718C170.914 82.2215 171.522 84.4301 172.467 86.4479L169.953 87.9013L171.597 90.7545L174.114 89.2988C175.415 91.1653 177.038 92.7898 178.901 94.0931L177.447 96.6135L180.296 98.2601L181.749 95.742C183.764 96.6892 185.968 97.2978 188.29 97.4944V100.406H191.58V97.4944C193.901 97.2978 196.106 96.6892 198.121 95.742L199.572 98.2601L202.421 96.6135L200.968 94.0931C202.832 92.7898 204.454 91.1641 205.755 89.2988L208.272 90.7545L209.916 87.9013L207.401 86.4479C208.347 84.4301 208.955 82.2226 209.151 79.8965H212.058ZM189.934 90.8069C173.452 90.5253 173.455 65.971 189.934 65.6918C206.416 65.9734 206.414 90.5276 189.934 90.8069Z" fill="#23659B"/>
<path d="M235.534 146.294C225.545 144.812 227.175 158.208 212.937 158.208C199.919 158.208 195.755 107.193 186.283 121.776C137.727 196.536 165.923 89.9829 127.307 88.6296C109.846 88.0175 98.2105 106.664 93.9208 139.678C87.7011 169.525 73.2772 116.913 58.4338 121.805C49.0003 124.915 50.0809 158.208 37.0629 158.208C22.8249 158.208 24.455 144.812 14.4661 146.294C3.71267 147.891 0.5 171.602 0.5 171.602H249.5C249.5 171.602 246.287 147.891 235.534 146.294Z" fill="#EEF7FF"/>
<path d="M235.757 156.046V153.558H233.563C233.415 151.802 232.956 150.135 232.242 148.611L234.14 147.514L232.898 145.36L230.997 146.459C230.014 145.049 228.79 143.823 227.382 142.839L228.479 140.935L226.329 139.691L225.233 141.592C223.712 140.877 222.047 140.418 220.294 140.269V138.071H217.81V140.269C216.056 140.417 214.391 140.877 212.87 141.592L211.775 139.691L209.624 140.935L210.721 142.839C209.314 143.823 208.089 145.049 207.106 146.459L205.205 145.36L203.963 147.514L205.862 148.611C205.147 150.135 204.689 151.802 204.541 153.558H202.346V156.046H204.541C204.688 157.802 205.147 159.469 205.862 160.993L203.963 162.09L205.205 164.244L207.106 163.145C208.089 164.555 209.314 165.781 210.721 166.766L209.624 168.669L211.775 169.913L212.87 168.012C214.391 168.728 216.056 169.186 217.81 169.335V171.533H220.294V169.335C222.047 169.187 223.712 168.728 225.233 168.012L226.329 169.913L228.479 168.669L227.382 166.766C228.79 165.781 230.014 164.555 230.997 163.145L232.898 164.244L234.14 162.09L232.242 160.993C232.956 159.469 233.414 157.802 233.563 156.046H235.757ZM219.053 164.285C206.608 164.072 206.61 145.531 219.053 145.321C231.498 145.534 231.496 164.074 219.053 164.285Z" fill="#8A9EDD"/>
<path d="M226.689 160.795C217.499 160.162 218.999 165.882 205.901 165.882C193.925 165.882 194.254 153.062 186.24 150.338C171.482 145.321 159.314 170.715 153.593 157.97C142.726 124.153 111.031 107.194 96.4087 157.97C90.6875 170.714 77.307 147.974 63.7615 150.338C55.4236 151.794 56.0766 165.882 44.1009 165.882C31.0027 165.882 32.5016 160.162 23.3132 160.795C13.4196 161.477 10.4648 171.602 10.4648 171.602H239.538C239.538 171.602 236.583 161.477 226.69 160.795H226.689Z" fill="#DCE6FF"/>
<path d="M82.2194 16.3249V13.2121H79.8387C79.7515 12.7257 79.626 12.2521 79.4622 11.7971L81.5211 10.6067L79.9676 7.91166L77.9052 9.10324C77.5904 8.72971 77.2441 8.3841 76.8723 8.06875L78.0621 6.00327L75.3711 4.44746L74.1825 6.50945C73.7282 6.34538 73.2553 6.21971 72.7696 6.13243V3.74927H69.6615V6.13359C69.1758 6.22087 68.7029 6.34654 68.2486 6.51062L67.06 4.44862L64.369 6.00443L65.5588 8.06992C65.1859 8.38527 64.8408 8.73204 64.5259 9.1044L62.4647 7.91282L60.9112 10.6078L62.9701 11.7983C62.8063 12.2533 62.6808 12.7269 62.5936 13.2133H60.2129V16.326H62.5936C62.6808 16.8124 62.8063 17.2861 62.9701 17.741L60.9112 18.9315L62.4647 21.6265L64.5259 20.4349C64.8408 20.8084 65.187 21.154 65.5588 21.4694L64.369 23.5337L67.06 25.0895L68.2486 23.0275C68.7029 23.1916 69.1758 23.3173 69.6615 23.4045V25.7889H72.7696V23.4045C73.2553 23.3173 73.7282 23.1916 74.1825 23.0275L75.3711 25.0895L78.0621 23.5337L76.8723 21.4694C77.2453 21.154 77.5904 20.8073 77.9052 20.4349L79.9676 21.6265L81.5211 18.9315L79.4622 17.741C79.626 17.2861 79.7515 16.8124 79.8387 16.326H82.2194V16.3249ZM71.2161 19.156C65.4566 19.0571 65.4577 10.4775 71.2161 10.3798C76.9757 10.4787 76.9746 19.0583 71.2161 19.156Z" fill="#7689D6"/>
<path d="M0.685316 171.602C0.685316 171.602 -1.06219 177.981 6.17532 179.578C16.0748 181.763 74.1805 187.503 60.0645 191.865C52.0962 194.328 64.1324 197.671 102.945 198.902C141.757 200.133 208.356 195.31 185.961 188.172C163.564 181.034 254.813 186.449 249.255 171.602H0.685316Z" fill="#CFDDF9"/>
<path d="M23.7158 52.5417L23.7129 54.4187L36.6809 54.4391L36.6839 52.5621L23.7158 52.5417Z" fill="#F49F9F"/>
<path d="M31.7343 32.4627L30.5273 33.8987L40.4483 42.2625L41.6553 40.8266L31.7343 32.4627Z" fill="#F49F9F"/>
<path d="M50.7622 22.2409L48.916 22.564L51.1478 35.3577L52.994 35.0347L50.7622 22.2409Z" fill="#F49F9F"/>
<path d="M177.393 4.41042L170.416 15.3579L171.996 16.3678L178.973 5.4203L177.393 4.41042Z" fill="#F49F9F"/>
<path d="M191.022 21.1852L178.65 25.0798L179.212 26.8704L191.584 22.9758L191.022 21.1852Z" fill="#F49F9F"/>
<path d="M158.04 0.100624L156.182 0.343994L157.863 13.2219L159.721 12.9785L158.04 0.100624Z" fill="#F49F9F"/>
<path d="M186.219 89.9598C193.742 126.743 170.066 162.671 133.338 170.205C112.537 174.473 92.0106 168.717 76.7536 156.24C65.0706 146.688 56.476 133.195 53.2145 117.245C45.6912 80.4621 69.3674 44.5343 106.095 36.9996C122.021 33.7321 137.787 36.341 151.152 43.3438C168.605 52.4878 181.96 69.1269 186.22 89.9598H186.219Z" fill="#7689D6"/>
<path d="M174.691 82.3403C182.214 119.123 158.538 155.051 121.81 162.586C105.884 165.853 90.1178 163.244 76.7536 156.242C65.0706 146.689 56.476 133.197 53.2145 117.246C45.6912 80.4633 69.3674 44.5355 106.095 37.0008C122.021 33.7333 137.787 36.3422 151.152 43.3451C162.835 52.8975 171.429 66.3901 174.691 82.3403Z" fill="#8A9EDD"/>
<path d="M119.719 161.267C151.518 161.267 177.297 135.45 177.297 103.602C177.297 71.7549 151.518 45.9375 119.719 45.9375C87.9193 45.9375 62.1406 71.7549 62.1406 103.602C62.1406 135.45 87.9193 161.267 119.719 161.267Z" fill="#B8D2FF"/>
<path d="M75.6838 88.3505C75.8023 88.9276 75.4305 89.4908 74.8542 89.6084C74.2779 89.7271 73.7155 89.3547 73.5982 88.7775C73.4797 88.2003 73.8515 87.6371 74.4278 87.5196C75.0041 87.4009 75.5665 87.7733 75.6838 88.3505Z" fill="#3B679B"/>
<path d="M89.0738 68.5879C89.3975 68.0966 89.2623 67.4354 88.7717 67.1112C88.281 66.787 87.6209 66.9224 87.2971 67.4138C86.9734 67.9051 87.1087 68.5663 87.5993 68.8905C88.0899 69.2148 88.75 69.0793 89.0738 68.5879Z" fill="#3B679B"/>
<path d="M135.617 59.0381C135.94 58.5468 135.805 57.8856 135.315 57.5614C134.824 57.2372 134.164 57.3726 133.84 57.864C133.516 58.3553 133.652 59.0165 134.142 59.3407C134.633 59.665 135.293 59.5295 135.617 59.0381Z" fill="#3B679B"/>
<path d="M152.289 138.984C152.408 139.562 152.036 140.125 151.46 140.242C150.883 140.361 150.321 139.989 150.204 139.412C150.085 138.834 150.457 138.271 151.033 138.154C151.61 138.035 152.172 138.407 152.289 138.984Z" fill="#3B679B"/>
<path d="M105.744 148.532C105.863 149.11 105.491 149.673 104.915 149.79C104.338 149.909 103.776 149.537 103.659 148.959C103.54 148.382 103.912 147.819 104.488 147.701C105.065 147.583 105.627 147.955 105.744 148.532Z" fill="#3B679B"/>
<path d="M85.2186 134.965C85.3371 135.542 84.9653 136.106 84.389 136.223C83.8127 136.342 83.2504 135.969 83.133 135.392C83.0157 134.815 83.3863 134.252 83.9626 134.134C84.5389 134.016 85.1013 134.388 85.2186 134.965Z" fill="#3B679B"/>
<path d="M165.836 118.427C165.955 119.005 165.583 119.568 165.007 119.685C164.43 119.804 163.868 119.432 163.751 118.854C163.632 118.277 164.004 117.714 164.58 117.597C165.156 117.478 165.719 117.85 165.836 118.427Z" fill="#3B679B"/>
<path d="M156.301 71.8126C156.42 72.3898 156.048 72.953 155.471 73.0705C154.895 73.1892 154.333 72.8168 154.215 72.2397C154.097 71.6625 154.469 71.0993 155.045 70.9818C155.621 70.8631 156.184 71.2354 156.301 71.8126Z" fill="#3B679B"/>
<path d="M73.3014 115.275C74.4751 115.208 75.3727 114.201 75.3063 113.026C75.2398 111.85 74.2345 110.951 73.0608 111.018C71.887 111.084 70.9894 112.091 71.0559 113.267C71.1223 114.442 72.1276 115.341 73.3014 115.275Z" fill="#3B679B"/>
<path d="M168.383 94.1123C168.417 92.9354 167.493 91.9532 166.318 91.9185C165.143 91.8838 164.162 92.8097 164.127 93.9865C164.093 95.1634 165.017 96.1456 166.192 96.1803C167.367 96.215 168.348 95.2891 168.383 94.1123Z" fill="#3B679B"/>
<path d="M129.746 152.296C130.889 152.02 131.592 150.868 131.316 149.723C131.04 148.579 129.89 147.875 128.747 148.152C127.604 148.428 126.902 149.58 127.178 150.724C127.454 151.869 128.604 152.572 129.746 152.296Z" fill="#3B679B"/>
<path d="M110.481 59.1065C111.645 58.9406 112.454 57.8612 112.288 56.6956C112.122 55.53 111.045 54.7195 109.881 54.8854C108.717 55.0513 107.908 56.1307 108.073 57.2963C108.239 58.462 109.317 59.2724 110.481 59.1065Z" fill="#3B679B"/>
<path d="M94.3243 110.944C93.3343 110.944 92.4478 110.248 92.241 109.239C92.0051 108.086 92.7476 106.958 93.899 106.722L117.205 101.942L110.513 69.2234C110.277 68.0702 111.02 66.9426 112.171 66.7064C113.323 66.4701 114.448 67.2137 114.684 68.3669L121.803 103.174C122.039 104.327 121.297 105.455 120.145 105.691L94.7542 110.9C94.6101 110.929 94.466 110.944 94.3243 110.944Z" fill="#3B679B"/>
<path d="M106.909 22.8397L99.7891 24.3008L103.977 44.7712L111.097 43.3101L106.909 22.8397Z" fill="#8A9EDD"/>
<path d="M58.0749 49.9802L53.5586 55.6829L69.9053 68.6679L74.4216 62.9653L58.0749 49.9802Z" fill="#8A9EDD"/>
<path d="M155.336 30.023L145.406 48.4004L151.798 51.8645L161.728 33.4871L155.336 30.023Z" fill="#8A9EDD"/>
<path d="M118.659 20.4384C119.062 22.4073 117.794 24.3308 115.828 24.7335L92.3321 29.5533C91.3898 29.7465 90.458 29.5568 89.7004 29.0879C88.8743 28.5793 88.2538 27.7438 88.0435 26.7187C87.6403 24.7498 88.908 22.8262 90.8739 22.4236L114.37 17.6038C115.353 17.4025 116.324 17.6177 117.1 18.1321C117.877 18.6452 118.458 19.454 118.659 20.4384Z" fill="#7689D6"/>
<path d="M72.8375 45.1788C72.8375 45.1788 50.967 72.7924 50.9635 72.797C25.039 56.3383 50.8705 23.6245 72.8375 45.1788Z" fill="#FCB4B4"/>
<path d="M175.152 31.5792C176.653 37.1996 173.804 43.3333 170.841 48.2043C170.836 48.2031 139.899 31.4279 139.887 31.4244L142.43 26.7186C148.22 15.3846 165.004 14.3722 172.188 24.7974H172.189C173.651 26.8315 174.656 29.1483 175.153 31.578L175.152 31.5792Z" fill="#FCB4B4"/>
<path d="M175.151 31.5791C175.952 35.496 175.434 39.7061 173.384 43.4973L170.839 48.2043L139.926 31.4453C140.963 31.9655 161.024 41.7344 172.185 24.7974H172.186C173.648 26.8314 174.653 29.1483 175.15 31.578L175.151 31.5791Z" fill="#F49F9F"/>
<path d="M72.8366 45.1789L50.9707 72.7866C51.3646 72.2223 67.737 48.6932 52.7124 38.7614L52.717 38.7591H52.7217C53.2016 38.6171 53.6838 38.4972 54.1718 38.396C59.0913 37.3871 64.4081 38.4833 68.6503 41.8532L72.8355 45.1789H72.8366Z" fill="#F49F9F"/>
<path d="M46.7779 69.4702C39.1628 63.4204 37.887 52.3354 43.9266 44.7077C44.9758 43.3823 46.1772 42.2489 47.4855 41.3145C47.4855 41.3145 35.583 54.6278 46.7779 69.4702Z" fill="#F9C0C0"/>
<path d="M169.867 22.1723C154.295 15.3172 142.43 26.7198 142.43 26.7198C147.056 18.1588 157.719 14.8773 166.286 19.6076C167.607 20.3372 168.811 21.1913 169.867 22.1723Z" fill="#F9C0C0"/>
<path d="M118.659 20.4384C119.062 22.4073 117.794 24.3308 115.828 24.7335L92.332 29.5533C92.332 29.5533 115.67 23.9643 114.37 17.6038C115.353 17.4025 116.324 17.6177 117.1 18.1321C117.877 18.6452 118.457 19.454 118.659 20.4384Z" fill="#677CC1"/>
<path d="M110.019 18.4963C90.4336 22.5144 89.7132 28.9611 89.7004 29.0868C88.8743 28.5806 88.2538 27.7451 88.0435 26.7187C87.6403 24.7498 88.908 22.8263 90.8739 22.4237L110.019 18.4963Z" fill="#8A9EDD"/>
<path d="M64.2019 137.975C64.3064 138.03 62.8994 138.019 62.99 138.124C65.9529 140.691 70.3739 141.504 73.6551 139.003V139C74.6311 138.284 75.6176 137.133 76.3031 135.93L75.4979 134.622C69.1016 138.572 66.5698 131.83 61.3691 131.305L62.4102 132.827L64.2019 137.975Z" fill="#1D3F70"/>
<path d="M57.1001 183.143L57.0025 183.092C57.0025 183.16 56.9177 183.398 56.8503 183.398L53.9641 183.457C53.8956 183.457 53.8537 183.328 53.8537 183.26L53.6074 183.189C53.6074 182.756 53.6434 182.599 53.834 182.264C54.5358 181.33 53.698 177.153 53.7224 176.062C53.5493 175.764 56.762 175.998 56.8061 175.927C56.8782 175.927 56.9351 175.989 56.9293 176.061L56.5517 180.833C56.3821 181.739 57.0769 182.287 57.1001 183.142V183.143Z" fill="#F99370"/>
<path d="M69.6096 183.558H63.8617C63.3597 183.538 63.3632 183.025 63.4561 182.628C63.7722 181.196 63.2133 177.906 63.1099 176.433C63.082 176.163 63.2935 175.929 63.5642 175.929H66.1006C66.376 175.929 66.5886 176.17 66.5538 176.444L66.0925 180.128C65.8415 181.729 67.7482 182.034 68.8358 182.211C69.5515 182.263 70.7483 183.24 69.6096 183.559V183.558Z" fill="#F99370"/>
<path d="M63.2372 182.961C63.2523 183.244 63.3929 183.565 63.7194 183.558H69.6823C71.0882 183.036 68.9817 181.167 66.228 181.179C64.2701 181.716 63.171 180.188 63.2372 182.961Z" fill="#103663"/>
<path d="M54.065 183.558H56.613C57.8551 183.388 56.9605 181.002 55.3396 181.174C53.7141 180.968 52.8241 183.391 54.065 183.558Z" fill="#103663"/>
<path d="M68.2617 182.751C68.1746 182.752 68.1095 182.658 68.1443 182.576C68.4162 181.905 68.924 181.698 68.9461 181.689C69.0971 181.627 69.1924 181.866 69.039 181.926C69.0193 181.934 68.6079 182.108 68.3791 182.673C68.3593 182.722 68.3117 182.752 68.2617 182.752V182.751Z" fill="#E8C0A6"/>
<path d="M67.2754 182.631C67.1918 182.632 67.1279 182.546 67.1546 182.467C67.3765 181.622 68.471 180.989 68.1759 181.58C68.1655 181.586 67.5973 181.892 67.3974 182.542C67.3812 182.597 67.3301 182.632 67.2766 182.632L67.2754 182.631Z" fill="#E8C0A6"/>
<path d="M66.1545 182.494C66.0697 182.495 66.0047 182.405 66.0349 182.325C66.2975 181.485 67.2909 180.733 67.0631 181.353C67.0573 181.357 66.5112 181.728 66.2742 182.409C66.2556 182.461 66.2068 182.494 66.1545 182.494Z" fill="#E8C0A6"/>
<path d="M54.424 181.934C54.3009 181.938 54.2486 181.758 54.3601 181.697C55.2153 181.197 56.2819 181.671 56.3272 181.692C56.4771 181.757 56.3714 181.993 56.2227 181.923C56.2122 181.892 55.1374 181.505 54.4252 181.935L54.424 181.934Z" fill="#E8C0A6"/>
<path d="M70.0985 182.961H63.2363C63.2619 183.171 63.32 183.374 63.4246 183.558H69.6803C69.9882 183.558 70.2066 183.25 70.0974 182.961H70.0985Z" fill="#0F2E54"/>
<path d="M54.0649 183.558H56.613C56.9372 183.558 57.1986 183.285 57.1777 182.961H53.4991C53.4793 183.285 53.7396 183.559 54.0638 183.558H54.0649Z" fill="#0F2E54"/>
<path d="M62.1685 124.736C62.1685 124.736 62.1987 122.869 60.5139 122.539L59.6309 123.456L62.1673 124.736H62.1685Z" fill="#C92828"/>
<path d="M53.3202 180.301C53.3202 180.301 56.0379 180.962 57.438 180.252C58.1665 175.674 60.1906 162.929 60.8947 154.196C60.9214 154.705 62.4017 175.244 62.684 180.252C63.6507 180.576 65.5946 180.967 66.6821 180.182C67.1713 174.91 68.7399 157.552 66.3765 143.374C66.3765 143.374 59.8989 144.095 54.8411 142.565C53.4492 147.062 53.0797 174.905 53.3202 180.302V180.301Z" fill="#EB5648"/>
<path d="M65.637 179.745C66.3016 164.592 64.7772 151.56 65.0061 151.404C65.4058 151.437 66.9383 164.585 65.637 179.745Z" fill="#CE3932"/>
<path d="M55.459 179.745C55.7227 164.174 58.0326 149.426 58.3823 149.37C58.6438 149.566 56.3722 164.145 55.459 179.745Z" fill="#CE3932"/>
<path d="M61.4158 131.253C61.5575 130.018 61.3647 128.238 61.1927 127.505C60.8825 126.06 58.5947 126.619 58.9746 128.039C59.0478 127.992 59.2848 130.612 59.121 131.338C56.9738 131.984 63.4329 134.105 61.4158 131.252V131.253Z" fill="#F99370"/>
<path d="M58.9519 127.92C58.9577 127.96 58.9646 128.001 58.9739 128.039C59.0274 128.004 59.1761 129.448 59.1773 130.498C60.1614 130.946 61.2582 130.749 61.4593 130.707C61.4802 129.378 61.3593 128.168 61.1641 127.408C60.7656 126.122 58.7485 126.591 58.9519 127.919V127.92Z" fill="#E57D61"/>
<path d="M57.4264 127.382C57.7517 128.37 58.2769 129.457 59.1843 129.999H59.1855C59.5538 130.216 59.9721 130.322 60.4032 130.339C62.8257 130.666 65.2134 127.362 63.0325 125.718C62.6735 125.462 62.3586 125.089 62.1669 124.737C60.2242 120.985 56.24 123.929 57.4252 127.383L57.4264 127.382Z" fill="#F99370"/>
<path d="M62.485 127.771L61.0489 127.306C61.0407 128.12 62.0005 128.513 62.485 127.771Z" fill="#F9F8F3"/>
<path d="M65.6191 136.474L66.6172 140.14C68.754 140.797 71.0313 140.648 73.0414 139.414C70.8326 140.664 67.7966 139.958 67.3178 139.225C66.8136 138.448 65.6889 136.587 65.6203 136.476L65.6191 136.474Z" fill="#163356"/>
<path d="M53.8985 148.686C54.1297 148.967 54.376 149.25 54.6375 149.533C54.6375 149.533 55.9098 149.773 56.9067 148.445C52.8423 139.816 60.6887 139.011 59.1213 131.339C53.8787 131.959 46.5855 139.795 53.8985 148.686Z" fill="#1D3F70"/>
<path d="M61.1887 126.134C61.2526 125.943 60.9517 125.847 60.8936 126.039C60.8297 126.23 61.1306 126.326 61.1887 126.134Z" fill="#C16256"/>
<path d="M62.4426 125.711C62.5066 125.52 62.2056 125.423 62.1475 125.615C62.0836 125.806 62.3846 125.903 62.4426 125.711Z" fill="#C16256"/>
<path d="M57.4264 127.382C57.7517 128.37 58.2769 129.456 59.1843 129.999H59.1855C59.261 130.043 59.3389 130.084 59.4179 130.119C58.7126 129.611 58.1514 128.371 58.1514 128.371L58.1177 127.249C58.9403 126.095 58.3373 125.041 58.3373 125.041C60.0534 125.238 60.4438 124.134 60.4438 124.134C60.9737 124.118 61.4779 123.767 61.4779 123.767C59.1169 121.397 56.4016 124.783 57.4252 127.382H57.4264Z" fill="#E57D61"/>
<path d="M62.4847 127.831C62.4522 127.794 60.9185 127.401 60.9929 127.288C60.9638 127.145 62.4743 127.737 62.5033 127.716C62.5661 127.734 62.5498 127.833 62.4847 127.831Z" fill="#C16256"/>
<path d="M62.0693 127.131C61.9683 127.163 61.8823 127.022 62.0136 127.009C62.2204 127.048 62.6712 126.836 62.4226 126.734C62.0659 126.611 61.5093 125.793 61.8346 125.94C61.8381 125.946 62.1472 126.512 62.4621 126.623C62.8931 126.837 62.3691 127.133 62.0705 127.131H62.0693Z" fill="#C16256"/>
<path d="M53.8976 148.686C54.1289 148.967 54.3752 149.25 54.6366 149.533C54.6366 149.533 55.9321 149.714 56.9291 148.387C56.7827 148.031 56.6212 147.799 56.4957 147.445C56.4957 147.445 55.7253 148.309 53.8965 148.686H53.8976Z" fill="#163356"/>
<path d="M54.5476 149.704C54.2734 149.787 53.9841 149.461 54.3571 149.367C56.3741 149.455 56.9109 148.121 56.933 148.064C57.8079 147.571 56.7332 149.825 54.5476 149.704Z" fill="#CE3932"/>
<path d="M67.3189 149.468C67.3189 149.468 66.9227 151.168 63.7576 152.006C62.8514 152.245 62.3273 152.127 62.1937 151.497C62.1275 151.181 61.9544 150.63 61.6372 150.427C61.6372 150.427 60.9284 150.733 60.6612 151.168C60.0756 152.121 59.1925 151.255 58.7626 150.258C58.2305 149.024 56.8838 147.978 56.5898 146.944L67.3189 149.468Z" fill="#F4D4BE"/>
<path d="M54.4166 147.367C54.52 147.55 54.5815 147.521 54.6861 147.415C57.5305 145.288 58.5483 149.936 61.6134 150.019C64.7331 150.329 66.469 150.505 67.3184 149.468C68.8021 147.165 66.4423 136.871 64.5333 134.379C63.6967 133.082 62.2141 131.928 61.4159 131.255C61.4321 131.323 61.8574 133.093 59.12 131.34C58.9828 131.398 58.1149 132.247 58.1695 132.701C58.0301 134.785 53.0931 145.027 54.4166 147.368V147.367Z" fill="#1D3F70"/>
<path d="M62.3157 122.077C62.3157 122.077 61.5129 121.855 60.6902 122.179C60.5961 121.866 60.4032 121.578 60.0918 121.35C59.9582 121.73 59.7677 122.095 59.5504 122.435C59.476 121.72 59.0368 121.142 59.0368 121.142C58.9195 121.826 57.9748 122.319 57.5298 123.059L57.5054 123.025C57.5054 123.025 55.012 123.923 56.8095 126.138C56.8838 126.957 57.2824 127.785 57.2824 127.785C58.6034 126.576 58.3188 125.124 57.7181 124.746C58.7952 125.129 59.7537 124.675 60.2963 123.959C61.0969 123.827 62.0764 123.389 62.3157 122.079V122.077Z" fill="#C92828"/>
<path d="M56.0637 148.021L56.6876 147.891C54.1942 142.269 57.1268 139.893 58.678 136.727C55.0819 140.895 54.5369 143.18 56.0648 148.021H56.0637Z" fill="#163356"/>
<path d="M56.8655 127.997C57.2779 129.107 58.6711 128.57 58.233 127.47C57.8206 126.36 56.4274 126.898 56.8655 127.997Z" fill="#F99370"/>
<path d="M57.26 128.178C57.0055 127.911 57.0055 127.462 57.1217 127.337C57.3332 127.12 57.734 127.145 57.7352 127.272C57.6817 127.399 57.4087 127.191 57.2146 127.411C57.0043 127.576 57.4249 128.11 57.2611 128.178H57.26Z" fill="#C16256"/>
<path d="M57.7866 128.009C57.6971 128.003 57.5507 127.595 57.1069 127.621C57.0743 127.625 57.0465 127.6 57.043 127.568C57.3323 127.275 58.048 128.014 57.7866 128.008V128.009Z" fill="#C16256"/>
<path d="M58.2805 131.489C58.2654 132.535 60.9447 133.458 61.0958 133.459L61.4164 132.508C61.8289 132.61 62.1914 133.187 62.1914 133.187C63.3801 132.054 62.2623 131.065 61.4164 131.252C61.4164 131.252 61.4164 131.252 61.4164 131.253C61.4327 131.321 61.6198 132.873 59.131 131.283C58.8103 131.134 58.2793 131.488 58.2793 131.488L58.2805 131.489Z" fill="#F4D4BE"/>
<path d="M62.6839 180.252C62.6839 180.252 63.0348 180.383 63.5228 180.476C63.5228 180.476 62.1575 160.093 61.9542 157.373C61.7509 154.652 60.8945 154.195 60.8945 154.195C60.8945 154.195 62.7059 179.811 62.6839 180.251V180.252Z" fill="#CE3932"/>
<path d="M62.6301 179.264C62.6661 179.852 62.687 180.203 62.6835 180.252C63.6502 180.576 65.5941 180.967 66.6816 180.183C66.6816 180.183 66.7165 179.859 66.7723 179.264C66.7723 179.264 64.8667 180.142 62.6289 179.264H62.6301Z" fill="#CE3932"/>
<path d="M53.3203 180.301C53.3203 180.301 56.038 180.962 57.4381 180.252C57.4381 180.252 57.4962 179.899 57.5973 179.264C57.5973 179.264 55.7452 179.802 53.3494 179.264C53.3389 179.882 53.3284 180.25 53.3203 180.302V180.301Z" fill="#CE3932"/>
<path d="M74.7891 134.992C74.7925 135.827 75.9277 136.533 75.9277 136.533C76.0544 136.341 76.1822 136.137 76.3019 135.93L75.4967 134.622C75.2538 134.756 75.018 134.88 74.7891 134.992Z" fill="#163356"/>
<path d="M76.6807 132.27C76.9921 132.471 76.4809 133.089 76.5204 133.426C77.0374 133.189 77.4894 132.802 77.494 132.803C77.9367 132.256 78.3504 131.686 78.7373 131.096C79.6924 130.659 78.1772 132.823 78.0634 133.089C78.0657 133.092 78.068 133.094 78.0715 133.096C78.6443 132.633 79.1939 132.136 79.697 131.598C80.7718 131.373 78.606 133.352 78.4085 133.587C78.4085 133.589 78.4096 133.591 78.4108 133.592C79.0231 133.248 79.5948 132.828 80.1141 132.353C81.2156 132.222 78.8628 134.063 78.6013 134.229C78.6013 134.231 78.6013 134.234 78.6025 134.237C79.0684 134.175 80.0282 133.312 80.3361 133.52C80.6277 133.994 77.4778 135.692 76.3728 135.907C75.9754 136.016 75.4026 135.015 75.499 134.622C75.5897 134.253 75.8441 133.802 75.9313 133.636C76.0684 133.251 76.2229 132.299 76.6795 132.269L76.6807 132.27Z" fill="#F99370"/>
<path d="M73.6574 138.993C73.6251 139.018 73.5928 139.043 73.5605 139.072C73.5928 139.047 73.6216 139.025 73.6539 139.004V139.001L73.6574 138.994V138.993Z" fill="#395B96"/>
<path d="M175.273 183.143L175.371 183.092C175.371 183.16 175.456 183.398 175.523 183.398L178.409 183.457C178.478 183.457 178.52 183.328 178.52 183.261L178.766 183.19C178.766 182.757 178.73 182.6 178.54 182.264C177.838 181.33 178.676 177.154 178.651 176.062C178.824 175.764 175.612 175.998 175.567 175.927C175.495 175.927 175.438 175.989 175.444 176.061L175.822 180.833C175.992 181.74 175.297 182.288 175.273 183.142V183.143Z" fill="#F99370"/>
<path d="M163.324 183.558H169.072C169.574 183.538 169.57 183.025 169.477 182.628C169.161 181.196 169.72 177.906 169.824 176.433C169.851 176.163 169.64 175.929 169.369 175.929C165.127 175.886 166.511 175.546 166.84 180.129C167.091 181.73 165.184 182.035 164.098 182.212C163.382 182.264 162.185 183.242 163.324 183.561V183.558Z" fill="#F99370"/>
<path d="M169.696 182.961C169.681 183.244 169.541 183.565 169.214 183.558H163.251C161.845 183.036 163.952 181.167 166.705 181.179C168.663 181.716 169.762 180.188 169.696 182.961Z" fill="#103663"/>
<path d="M178.31 183.558H175.762C174.52 183.388 175.415 181.002 177.036 181.174C178.661 180.968 179.551 183.391 178.31 183.558Z" fill="#103663"/>
<path d="M164.674 182.751C164.624 182.751 164.576 182.72 164.557 182.672C164.328 182.105 163.914 181.931 163.897 181.925C163.575 181.415 164.511 181.778 164.791 182.576C164.826 182.658 164.761 182.752 164.674 182.751Z" fill="#E8C0A6"/>
<path d="M165.658 182.631C165.603 182.631 165.553 182.596 165.537 182.541C165.335 181.885 164.764 181.582 164.758 181.579C164.467 180.987 165.554 181.621 165.778 182.466C165.805 182.546 165.741 182.631 165.658 182.63V182.631Z" fill="#E8C0A6"/>
<path d="M166.778 182.493C166.726 182.493 166.677 182.461 166.658 182.409C166.421 181.728 165.875 181.357 165.87 181.353C165.547 180.479 167.33 182.26 166.778 182.493Z" fill="#E8C0A6"/>
<path d="M177.948 181.934C177.24 181.503 176.154 181.891 176.151 181.922C175.412 181.763 177.159 181.138 178.013 181.698C178.125 181.758 178.074 181.939 177.949 181.934H177.948Z" fill="#E8C0A6"/>
<path d="M162.834 182.961H169.696C169.671 183.171 169.613 183.375 169.508 183.558H163.252C162.944 183.558 162.726 183.25 162.835 182.961H162.834Z" fill="#0F2E54"/>
<path d="M178.309 183.558H175.761C175.437 183.558 175.176 183.285 175.196 182.961H178.875C178.895 183.285 178.635 183.56 178.31 183.558H178.309Z" fill="#0F2E54"/>
<path d="M150.296 141.697C146.499 143.752 146.52 138.646 150.381 139.825C150.381 139.825 150.571 140.844 150.296 141.697Z" fill="#F99370"/>
<path d="M161.971 181.87C155.481 161.26 148.3 138.454 141.831 117.91C141.43 116.568 139.308 117.215 139.756 118.565L141.5 124.103H128.853L126.903 117.908C126.503 116.573 124.379 117.209 124.827 118.564C131.291 139.09 138.471 161.891 144.968 182.524C145.375 183.864 147.489 183.219 147.043 181.869L145.085 175.65H157.731L159.896 182.524C160.043 182.988 160.471 183.286 160.934 183.286C161.653 183.297 162.201 182.555 161.971 181.869V181.87ZM138.696 155.36H151.342L153.708 162.873H141.062L138.696 155.36ZM147.603 143.488H134.957L132.591 135.974H145.238L147.603 143.488ZM148.29 145.667L150.655 153.181H138.009L135.644 145.667H148.29ZM142.186 126.283L144.552 133.797H131.906L129.54 126.283H142.186ZM144.676 173.473C144.585 173.473 144.496 173.486 144.411 173.507L141.749 165.052H154.396L157.047 173.472H144.677L144.676 173.473Z" fill="#1D3F70"/>
<path d="M164.068 125.157C164.068 125.157 163.444 123.403 164.929 122.55L166.056 123.134L164.066 125.157H164.068Z" fill="#8E4A35"/>
<path d="M165.102 139.312C161.526 144.839 154.278 144.681 150.297 141.697L150.382 139.825C159.564 140.537 159.691 133.922 165.6 131.245L164.964 133.149L164.739 138.9C164.638 138.995 165.165 139.173 165.102 139.31V139.312Z" fill="#FCB4B4"/>
<path d="M179.207 177.915C179.198 178.315 179.186 178.719 179.173 179.128C179.173 179.128 177.011 180.557 174.88 179.559C174.046 175.011 172.267 165.269 170.472 153.522C170.449 153.177 169.542 169.272 170.658 179.931C170.658 179.931 168.26 180.55 166.097 179.738C164.577 174.3 162.201 164.431 163.287 143.785C163.287 143.785 169.78 143.418 174.504 141.072C178.574 145.801 179.7 170.02 179.207 177.914V177.915Z" fill="#1D3F70"/>
<path d="M166.162 131.034C165.892 129.609 165.239 127.044 166.309 126.412C167.063 125.999 168.127 126.522 168.031 127.468C167.951 127.434 168.152 130.051 168.433 130.739C170.654 131.017 164.649 134.177 166.162 131.036V131.034Z" fill="#F99370"/>
<path d="M168.035 127.346C168.035 127.385 168.035 127.427 168.032 127.467C167.974 127.441 168.067 128.888 168.239 129.92C167.346 130.524 166.233 130.512 166.028 130.505C165.865 128.987 165.285 127.108 166.309 126.413C167.011 125.961 168.028 126.499 168.034 127.347L168.035 127.346Z" fill="#E57D61"/>
<path d="M167.461 179.495C164.325 165.217 165.264 150.48 165.671 150.36C165.88 150.458 164.981 165.344 167.461 179.495Z" fill="#103663"/>
<path d="M176.946 179.495C174.787 165.801 172.377 149.889 172.678 149.653C172.992 149.697 175.442 165.909 176.946 179.495Z" fill="#103663"/>
<path d="M169.394 126.139C169.401 127.177 169.252 128.373 168.568 129.176H168.567C168.539 129.209 168.511 129.239 168.481 129.269C168.481 129.27 168.48 129.27 168.48 129.272C167.445 130.255 165.804 130.429 164.492 129.674H164.491C163.436 128.975 162.954 127.875 163.285 126.909C163.511 126.335 164.012 125.778 164.068 125.157C164.406 121.388 169.371 122.123 169.394 126.139Z" fill="#F99370"/>
<path d="M165.441 126.166C165.319 126.006 165.572 125.818 165.689 125.981C165.811 126.14 165.557 126.329 165.441 126.166Z" fill="#C16256"/>
<path d="M164.12 126.166C163.998 126.005 164.252 125.818 164.369 125.981C164.491 126.14 164.238 126.329 164.12 126.166Z" fill="#C16256"/>
<path d="M164.88 139.69C163.919 141.07 161.976 142.423 160.125 143.211C160.489 142.585 161.109 142.148 161.5 140.737C161.927 139.192 163.31 135.361 163.31 135.361L164.88 139.69Z" fill="#F49F9F"/>
<path d="M169.394 126.139C169.401 127.177 169.253 128.373 168.568 129.176H168.567C168.539 129.209 168.511 129.239 168.481 129.269C169.293 127.641 169.075 127.305 168.709 126.173C167.512 125.321 167.555 124.157 166.435 124.162C165.315 124.165 164.4 124.013 164.4 124.013C165.656 121.334 169.411 122.884 169.394 126.139Z" fill="#E57D61"/>
<path d="M164.702 127.425C164.448 127.418 164.12 127.3 164.395 127.034C164.658 126.829 164.768 126.194 164.77 126.188C165.031 125.945 164.765 126.898 164.468 127.127C164.264 127.304 164.759 127.358 164.942 127.257C165.207 127.299 164.815 127.459 164.702 127.425Z" fill="#C16256"/>
<path d="M176.835 148.102C173.691 150.484 166.233 151.104 163.094 149.966C162.036 149.517 161.888 145.948 162.011 142.442C162.199 137.769 163.337 134.39 165.49 131.268C165.517 131.258 165.926 131.075 166.16 131.036C166.15 131.463 166.247 132.696 168.433 130.738C168.442 130.746 169.086 130.66 169.286 130.746C169.495 130.905 171.862 132.447 171.922 132.697C172.1 133.447 172.899 135.303 173.773 137.465C174.783 139.993 175.819 142.585 176.263 144.953C176.436 145.937 177.459 147.172 176.835 148.101V148.102Z" fill="#FCB4B4"/>
<path d="M169.574 124.738C169.222 121.768 167.389 121.858 167.389 121.858C165.811 119.753 162.292 120.808 163.758 123.174C164.588 124.631 166.715 123.007 167.968 124.873C168.473 125.624 168.784 126.086 169.659 126.471C169.659 126.471 169.774 125.541 169.574 124.737V124.738Z" fill="#8E4A35"/>
<path d="M170.122 126.541C170.086 127.722 168.598 127.66 168.66 126.48C168.696 125.299 170.183 125.361 170.122 126.541Z" fill="#F99370"/>
<path d="M169.789 126.841C169.754 126.841 169.726 126.809 169.731 126.774C169.777 126.416 169.734 126.182 169.606 126.098C169.352 125.953 169.162 126.238 169.069 126.134C169.029 126.014 169.401 125.862 169.67 125.999C169.807 126.061 169.991 126.56 169.789 126.841Z" fill="#C16256"/>
<path d="M169.236 126.851C169.039 126.893 169.435 126.026 169.817 126.194C169.824 126.225 169.805 126.256 169.772 126.265C169.323 126.388 169.359 126.827 169.236 126.851Z" fill="#C16256"/>
<path d="M164.739 128.267C164.529 128.287 164.338 128.18 164.531 128.128C164.556 128.135 165.128 128.281 165.728 127.724C165.751 127.702 165.788 127.703 165.81 127.727C165.634 128.174 164.911 128.265 164.739 128.267Z" fill="#C16256"/>
<path d="M172.495 154.626C172.809 154.832 173.143 154.233 173.476 154.168C173.441 154.685 173.247 155.186 173.25 155.19C172.909 155.728 172.539 156.245 172.141 156.745C172.069 157.702 173.493 155.791 173.702 155.607C173.705 155.608 173.708 155.611 173.711 155.612C173.49 156.24 173.232 156.856 172.921 157.445C173.077 158.452 174.119 156.023 174.268 155.771C174.269 155.771 174.271 155.771 174.272 155.771C174.172 156.4 173.991 157.015 173.74 157.601C173.989 158.607 174.847 156.051 174.908 155.762C174.91 155.762 174.914 155.762 174.916 155.762C174.914 156.269 174.844 156.777 174.745 157.275C175.112 158.195 175.522 155.856 175.545 155.59C175.64 155.435 175.957 154.412 175.843 153.261C175.806 152.884 174.544 152.542 174.37 152.863C174.239 153.104 173.584 153.474 173.465 153.597C173.16 153.83 172.376 154.205 172.493 154.628L172.495 154.626Z" fill="#F99370"/>
<path d="M169.255 130.761C168.536 131.99 165.359 133.904 165.49 131.27C165.517 131.257 165.925 131.076 166.162 131.036C166.157 131.104 166.032 132.917 168.435 130.738C168.432 130.756 169.075 130.64 169.255 130.762V130.761Z" fill="#F49F9F"/>
<path d="M148.891 140.448C148.381 140.119 147.698 140.274 147.242 140.647C147.039 140.792 146.796 140.494 146.974 140.323C147.521 139.67 148.48 139.381 149.283 139.72C149.758 139.968 149.359 140.709 148.891 140.448Z" fill="#F99370"/>
<path d="M147.519 142.717C146.787 142.917 146.639 141.952 147.432 142.2L147.42 142.203C147.817 142.101 147.895 142.632 147.519 142.718V142.717Z" fill="#F99370"/>
<path d="M147.261 142.274C146.394 142.345 146.608 141.306 147.232 141.731C147.216 141.725 147.304 141.744 147.289 141.739C147.704 141.718 147.625 142.266 147.261 142.274Z" fill="#F99370"/>
<path d="M146.975 141.82L146.692 141.756C146.301 141.653 146.584 141.139 146.907 141.235L147.19 141.299C147.581 141.403 147.298 141.917 146.975 141.82Z" fill="#F99370"/>
<path d="M146.787 141.388L146.505 141.324C146.113 141.22 146.397 140.706 146.72 140.802L147.002 140.866C147.394 140.97 147.11 141.484 146.787 141.388Z" fill="#F99370"/>
<path d="M176.836 148.102C176.476 148.698 174.589 149.353 173.46 149.632C174.682 146.433 171.442 136.826 171 136.081L173.775 137.466C174.785 139.996 175.82 142.585 176.265 144.954C176.438 145.939 177.46 147.173 176.836 148.102Z" fill="#F49F9F"/>
<path d="M175.869 153.495L174.371 152.863C176.619 141.292 170.676 139.712 169.254 130.762C178.913 131.059 182.497 147.7 175.869 153.495Z" fill="#FCB4B4"/>
<path d="M170.657 179.931C170.657 179.931 168.259 180.55 166.096 179.738C166.096 179.738 165.955 179.324 165.73 178.5C165.73 178.5 168.519 179.54 170.53 178.5C170.569 178.979 170.61 179.458 170.657 179.931Z" fill="#103663"/>
<path d="M179.208 177.915C179.198 178.315 179.187 178.719 179.174 179.128C179.174 179.128 177.012 180.557 174.881 179.559C174.881 179.559 174.811 179.185 174.686 178.5C174.686 178.5 176.981 179.185 179.208 177.915Z" fill="#103663"/>
<path d="M171.178 131.074C170.469 130.308 169.198 130.254 168.976 130.979C168.277 133.27 167.26 135.342 166.916 136.016C166.813 135.948 166.671 135.917 166.552 135.912C164.919 133.575 165.285 131.401 165.285 131.401C164.269 131.331 163.605 131.724 163.244 132.343C161.482 132.992 161.694 134.386 163.306 135.433C163.682 136.264 164.319 137.006 165.169 137.405C164.553 138.82 163.807 141.056 164.655 141.485C165.037 141.847 165.982 142.01 166.005 140.955C166.025 140.082 166.071 138.753 166.178 137.93C166.265 137.942 166.363 137.937 166.472 137.907C166.472 137.907 166.598 140.827 166.117 142.652C165.637 144.478 167.892 144.13 168.633 143.532C169.214 143.063 168.705 139.352 167.86 137.345C168.371 137.066 168.892 136.649 169.379 136.164C170.298 135.233 176.653 131.648 171.178 131.074Z" fill="#CE3932"/>
<path d="M174.541 151.943C174.541 151.943 175.503 152.618 176.507 152.736L175.869 153.494C175.869 153.494 175.088 153.395 174.371 152.862L174.541 151.942V151.943Z" fill="#F49F9F"/>
<path d="M150.382 139.825C150.382 139.825 150.182 140.8 150.297 141.697C150.297 141.697 150.584 142.016 151.048 142.148C151.048 142.148 151.567 140.941 151.337 139.873C151.337 139.873 150.852 139.721 150.382 139.823V139.825Z" fill="#F49F9F"/>
<path d="M135.833 124.104L141.608 124.051C141.526 122.049 141.212 119.085 140.904 117.029L137.963 117.146L139.076 121.29C139.143 121.793 138.932 122.243 138.453 122.406C137.385 122.835 136.077 122.614 135.473 123.562C135.353 123.815 135.553 124.106 135.833 124.104Z" fill="#F99370"/>
<path d="M141.779 123.499C141.757 123.693 141.725 123.934 141.63 124.104H135.832C135.551 124.106 135.345 123.832 135.436 123.565C135.65 122.943 136.404 122.036 139.066 121.872C139.066 121.872 139.974 122.134 141.461 121.85C141.461 121.85 141.868 122.711 141.779 123.498V123.499Z" fill="#EB5648"/>
<path d="M137.134 123.346C137.088 123.346 137.044 123.319 137.026 123.274C136.809 122.753 136.426 122.596 136.41 122.59C136.104 122.123 136.978 122.449 137.242 123.185C137.274 123.259 137.215 123.349 137.134 123.346Z" fill="#E8C0A6"/>
<path d="M138.042 123.228C137.993 123.228 137.947 123.196 137.931 123.146C137.738 122.542 137.209 122.266 137.204 122.264C136.95 121.722 137.931 122.293 138.154 123.075C138.18 123.15 138.12 123.229 138.042 123.228Z" fill="#E8C0A6"/>
<path d="M139.075 123.091C139.028 123.091 138.982 123.061 138.965 123.013C138.741 122.386 138.233 122.048 138.227 122.045C138.039 121.479 138.923 122.156 139.185 122.934C139.213 123.009 139.153 123.093 139.074 123.091H139.075Z" fill="#E8C0A6"/>
<path d="M135.437 123.556L141.776 123.499C141.754 123.693 141.703 123.882 141.608 124.053L135.83 124.105C135.545 124.109 135.338 123.825 135.437 123.557V123.556Z" fill="#CE3932"/>
<path d="M135.247 77.2667C142.369 80.817 144.264 89.0894 139.697 95.529C139.052 96.6112 137.673 95.6745 138.315 94.6249C140.252 89.5769 138.89 84.1357 133.337 82.5555C133.337 82.559 133.356 82.5659 133.362 82.5683C129.905 81.3185 131.781 76.0483 135.247 77.2667Z" fill="#F99370"/>
<path d="M142.342 88.0397C141.695 88.4982 138.81 88.2119 137.754 87.5905L133.164 77.2107C137.558 76.2926 142.771 83.3315 142.342 88.0408V88.0397Z" fill="#9358E0"/>
<path d="M140.518 88.2761C140.075 88.2528 139.56 88.1795 138.978 88.0201L138.76 83.8833C138.76 83.8833 140.065 85.5787 140.517 88.2761H140.518Z" fill="#7640CC"/>
<path d="M133.675 82.4286C126.103 86.7947 118.85 86.0057 115.62 77.127C115.321 75.996 116.784 75.6469 117.216 76.686C121.226 82.4286 125.201 82.1552 130.301 77.9323C130.301 77.9323 130.312 77.9206 130.296 77.9323C133.243 75.733 136.6 80.2049 133.675 82.4298V82.4286Z" fill="#F99370"/>
<path d="M129.31 124.097L135.001 124.105C135.212 122.696 133.97 118.096 133.624 116.797L130.535 117.443L132.094 121.176C132.094 121.176 132.814 122.159 131.863 122.426C130.808 122.785 129.678 122.658 128.961 123.402C128.749 123.688 128.953 124.096 129.31 124.097Z" fill="#F99370"/>
<path d="M135.177 123.552C135.153 123.746 135.099 123.934 135.002 124.104L129.224 124.096C128.943 124.096 128.74 123.817 128.834 123.552C129.055 122.932 129.817 122.032 132.481 121.896C132.481 121.896 133.387 122.167 134.877 121.9C134.877 121.9 135.274 122.765 135.178 123.551L135.177 123.552Z" fill="#EB5648"/>
<path d="M130.535 123.352C130.489 123.352 130.445 123.324 130.427 123.279C130.216 122.755 129.835 122.595 129.818 122.589C129.517 122.119 130.388 122.454 130.644 123.191C130.677 123.266 130.617 123.354 130.536 123.352H130.535Z" fill="#E8C0A6"/>
<path d="M131.445 123.243C131.395 123.243 131.349 123.21 131.334 123.16C131.148 122.557 130.62 122.273 130.616 122.27C130.369 121.724 131.343 122.307 131.558 123.09C131.583 123.164 131.523 123.243 131.447 123.242L131.445 123.243Z" fill="#E8C0A6"/>
<path d="M132.481 123.117C132.432 123.117 132.387 123.087 132.371 123.038C132.153 122.408 131.648 122.065 131.643 122.061C131.517 121.979 131.648 121.78 131.773 121.866C131.797 121.881 132.347 122.253 132.593 122.961C132.619 123.035 132.56 123.118 132.482 123.117H132.481Z" fill="#E8C0A6"/>
<path d="M128.835 123.544L135.175 123.552C135.151 123.746 135.097 123.934 135 124.104L129.222 124.095C128.938 124.095 128.733 123.809 128.835 123.543V123.544Z" fill="#CE3932"/>
<path d="M142.341 88.0398C142.391 88.1818 140.138 88.4203 139.424 88.1294L139.834 87.5906C139.834 87.5906 141.113 87.814 142.332 87.3625C142.343 87.5871 142.345 87.8129 142.341 88.0398Z" fill="#7640CC"/>
<path d="M116.727 74.2215C116.384 74.3076 116.658 75.0209 116.52 75.3118C116.126 74.9418 115.836 74.4542 115.831 74.453C115.598 73.8247 115.399 73.1835 115.229 72.5342C114.502 71.8476 115.208 74.2633 115.23 74.538C115.227 74.5391 115.225 74.5415 115.221 74.5426C114.845 73.9492 114.501 73.3347 114.21 72.6947C113.307 72.1211 114.663 74.6357 114.767 74.8824C114.767 74.8836 114.764 74.8847 114.763 74.8859C114.315 74.3879 113.928 73.8351 113.604 73.2475C112.65 72.7948 114.211 75.171 114.397 75.4014C114.396 75.4037 114.395 75.4061 114.394 75.4084C113.985 75.0686 113.62 74.6764 113.277 74.2692C112.323 73.9643 113.973 75.8413 114.164 76.0263C114.232 76.2055 114.905 76.9235 115.896 77.5937C116.221 77.8137 117.043 77.0864 117.074 76.7012C116.991 76.1787 117.124 74.211 116.725 74.2191L116.727 74.2215Z" fill="#F99370"/>
<path d="M128.77 94.5235L140.919 92.671C138.293 74.0397 129.505 73.3543 128.078 83.8831C127.656 86.556 128.373 92.9677 128.77 94.5224V94.5235Z" fill="#9358E0"/>
<path d="M128.167 90.3402C128.014 87.1437 129.436 84.0577 129.436 84.0577L128.082 83.8843C127.861 86.0557 127.975 88.4039 128.168 90.3402H128.167Z" fill="#7640CC"/>
<path d="M142.172 119.79C142.172 119.79 140.001 120.929 137.937 120.274C135.229 113.715 133.944 104.761 134.646 98.2648C134.462 97.9809 130.851 107.491 134.764 120.328C134.764 120.328 133.352 121.481 131.406 121.097C129.029 116.521 123.556 105.498 128.227 90.9186C129.766 90.317 138.613 89.4629 140.469 90.3647C140.469 90.3647 142.471 94.0524 141.548 99.034C140.32 105.666 141.559 115.569 142.016 118.759H142.019C142.112 119.417 142.173 119.789 142.173 119.789L142.172 119.79Z" fill="#3A72AA"/>
<path d="M130.864 120.108C131.197 120.751 131.406 121.098 131.406 121.098C133.353 121.481 134.765 120.329 134.765 120.329C134.674 120.008 134.587 119.69 134.504 119.375C134.504 119.375 133.07 120.552 130.863 120.108H130.864Z" fill="#23659B"/>
<path d="M140.343 89.7852C140.343 89.7852 135.378 88.2225 128.189 90.5835C128.189 90.5835 127.89 91.1025 128.026 91.5249C128.026 91.5249 135.549 89.7957 140.597 90.8861C140.597 90.8861 140.717 90.3659 140.343 89.7864V89.7852Z" fill="#23659B"/>
<path d="M132.519 77.2388C133.241 83.604 127.795 88.0154 120.923 84.0834C120.508 83.796 120.3 83.5784 120.3 83.5784C120.198 81.6432 121.575 80.6471 121.575 80.6471C122.883 80.8065 125.029 80.9229 126.583 80.0886C129.806 78.2849 132.519 77.2388 132.519 77.2388Z" fill="#9358E0"/>
<path d="M131.167 67.2173C132.736 66.8985 135.047 67.6444 135.796 70.5989C136.403 72.9914 138.758 72.6097 140.516 75.4828C142.353 78.4862 140.877 81.187 138.227 82.7382C133.345 85.6706 125.425 80.3445 127.926 74.5379C128.983 72.0256 128.476 67.7643 131.169 67.2173H131.167Z" fill="#1D3F70"/>
<path d="M122.354 80.7261C122.354 80.7261 120.887 81.8141 120.925 84.0821C120.51 83.7947 120.302 83.5782 120.302 83.5782C120.2 81.6431 121.577 80.647 121.577 80.647C121.577 80.647 121.88 80.6947 122.355 80.7261H122.354Z" fill="#7640CC"/>
<path d="M142.173 119.79C142.173 119.79 140.001 120.929 137.937 120.274C137.937 120.274 137.825 119.963 137.65 119.443C137.65 119.446 139.776 119.917 142.018 118.759C142.111 119.416 142.173 119.789 142.173 119.789V119.79Z" fill="#23659B"/>
<path d="M138.684 119.833H137.782C135.169 113.541 133.962 104.444 134.645 98.2788C134.645 98.2788 135.754 97.6481 135.935 95.9736C135.414 102.398 134.656 109.545 138.684 119.834V119.833Z" fill="#23659B"/>
</g>
<defs>
<clipPath id="clip0_724_29365">
<rect width="249" height="199" fill="white" transform="translate(0.5 0.0930176)"/>
</clipPath>
</defs>
</svg>
