<svg width="322" height="256" viewBox="0 0 322 256" fill="none" xmlns="http://www.w3.org/2000/svg">
<g clip-path="url(#clip0_678_15863)">
<mask id="mask0_678_15863" style="mask-type:luminance" maskUnits="userSpaceOnUse" x="-1" y="0" width="323" height="221">
<path d="M287.706 210.328C278.474 213.295 267.231 214.099 258.302 213.48C258.302 213.48 94.122 229.351 34.7763 213.079C-9.14725 201.037 -3.84446 158.165 9.59678 130.724C23.1919 102.971 -12.495 49.3243 44.8711 18.2152C77.8671 0.323117 107.462 28.9564 164.504 7.81784C216.003 -11.2667 282.434 5.80402 298.68 45.8286C309.854 73.3629 295.766 103.045 309.854 117.431C332.702 140.763 322.196 199.245 287.706 210.328Z" fill="white"/>
</mask>
<g mask="url(#mask0_678_15863)">
<path d="M287.706 210.328C278.474 213.295 267.231 214.099 258.302 213.48C258.302 213.48 94.122 229.351 34.7763 213.079C-9.14725 201.037 -3.84446 158.165 9.59678 130.724C23.1919 102.971 -12.495 49.3243 44.8711 18.2152C77.8671 0.323117 107.462 28.9564 164.504 7.81784C216.003 -11.2667 282.434 5.80402 298.68 45.8286C309.854 73.3629 295.766 103.045 309.854 117.431C332.702 140.763 322.196 199.245 287.706 210.328Z" fill="#DAE6FF"/>
<path d="M283.262 227.22C283.295 227.215 283.327 227.207 283.358 227.194C283.614 227.098 283.743 226.811 283.648 226.554C258.525 159.476 236.607 112.401 221.931 94.0019C221.605 93.5932 221.369 93.2986 221.278 93.1468C221.134 92.9133 220.829 92.8406 220.596 92.9833C220.363 93.1274 220.29 93.4323 220.433 93.6672C220.559 93.8709 220.784 94.1537 221.157 94.6235C235.77 112.942 257.633 159.921 282.721 226.903C282.805 227.128 283.034 227.256 283.261 227.219L283.262 227.22Z" fill="#BBCFF8"/>
<path d="M212.366 91.1122C214.096 93.1715 222.339 96.6074 222.925 96.1118C223.511 95.6161 221.527 86.8835 219.797 84.8243C218.067 82.765 215.001 82.5029 212.949 84.2391C210.897 85.9752 210.636 89.053 212.366 91.1109V91.1122Z" fill="#BBCFF8"/>
<path d="M228.209 96.6567C227.598 99.3427 229.875 108.217 230.64 108.392C231.404 108.567 237.292 101.564 237.903 98.8769C238.514 96.1909 236.838 93.5153 234.162 92.9029C231.485 92.2904 228.819 93.9708 228.209 96.6567Z" fill="#BBCFF8"/>
<path d="M219.758 113.018C222.505 113.01 230.607 108.785 230.604 107.997C230.602 107.211 222.476 103.03 219.73 103.038C216.983 103.046 214.763 105.286 214.771 108.042C214.779 110.798 217.011 113.024 219.757 113.018H219.758Z" fill="#BBCFF8"/>
<path d="M254.691 140.449C253.188 144.822 255.39 160.043 256.634 160.475C257.878 160.906 268.967 150.288 270.47 145.915C271.974 141.542 269.661 136.775 265.303 135.266C260.947 133.757 256.195 136.078 254.691 140.449Z" fill="#BBCFF8"/>
<path d="M237.64 166.218C242.224 166.703 256.507 161.124 256.645 159.81C256.784 158.497 243.977 150.046 239.393 149.561C234.81 149.076 230.702 152.41 230.217 157.01C229.733 161.61 233.056 165.732 237.64 166.219V166.218Z" fill="#BBCFF8"/>
<path d="M267.8 156.761C264.832 161.574 263.374 180.339 264.744 181.19C266.113 182.04 282.2 172.363 285.169 167.55C288.137 162.738 286.656 156.421 281.86 153.442C277.064 150.463 270.769 151.95 267.8 156.762V156.761Z" fill="#BBCFF8"/>
<path d="M243.216 190.642C248.856 190.653 265.542 182.057 265.545 180.44C265.549 178.825 248.9 170.156 243.26 170.144C237.619 170.133 233.037 174.71 233.024 180.372C233.012 186.032 237.575 190.63 243.216 190.642Z" fill="#BBCFF8"/>
<path d="M276.702 178.587C273.733 183.4 272.276 202.165 273.645 203.017C275.014 203.867 291.101 194.189 294.07 189.377C297.039 184.564 295.557 178.247 290.761 175.268C285.965 172.289 279.671 173.776 276.702 178.589V178.587Z" fill="#BBCFF8"/>
<path d="M252.117 212.468C257.757 212.48 274.444 203.882 274.446 202.267C274.45 200.651 257.801 191.982 252.161 191.97C246.52 191.959 241.938 196.537 241.926 202.198C241.915 207.858 246.477 212.456 252.118 212.468H252.117Z" fill="#BBCFF8"/>
<path d="M294.813 205.544C290.241 208.859 281.772 225.654 282.714 226.963C283.657 228.272 302.206 225.473 306.778 222.158C311.35 218.843 312.378 212.436 309.074 207.849C305.771 203.261 299.385 202.229 294.815 205.544H294.813Z" fill="#BBCFF8"/>
<path d="M260.15 234.108C265.745 234.828 283.37 228.39 283.576 226.788C283.78 225.185 268.342 214.496 262.747 213.776C257.152 213.056 252.036 217.025 251.318 222.638C250.6 228.253 254.554 233.387 260.15 234.108Z" fill="#BBCFF8"/>
<path d="M236.386 110.297C235.765 113.027 238.08 122.042 238.855 122.22C239.631 122.398 245.616 115.282 246.236 112.552C246.857 109.822 245.155 107.105 242.435 106.482C239.714 105.859 237.006 107.567 236.386 110.297Z" fill="#BBCFF8"/>
<path d="M228.171 127.065C230.961 127.057 239.193 122.764 239.191 121.964C239.189 121.165 230.933 116.918 228.144 116.926C225.353 116.934 223.098 119.21 223.106 122.01C223.114 124.81 225.382 127.073 228.172 127.065H228.171Z" fill="#BBCFF8"/>
<path d="M245.517 122.86C244.321 126.652 246.552 139.688 247.63 140.03C248.709 140.373 258.007 130.998 259.203 127.205C260.399 123.412 258.304 119.365 254.525 118.165C250.747 116.965 246.713 119.067 245.517 122.858V122.86Z" fill="#BBCFF8"/>
<path d="M232.059 146.821C236.022 146.809 247.719 140.71 247.715 139.575C247.713 138.44 235.982 132.406 232.019 132.416C228.054 132.428 224.85 135.66 224.862 139.639C224.873 143.617 228.096 146.832 232.059 146.821Z" fill="#BBCFF8"/>
<path d="M60.0617 230.018C60.0461 230.018 60.0306 230.015 60.0138 230.01C59.8858 229.976 59.8082 229.845 59.8418 229.717C68.5065 196.053 76.6566 172.207 82.7883 162.57C82.924 162.356 83.0223 162.202 83.0598 162.124C83.1167 162.003 83.2602 161.953 83.3792 162.01C83.4994 162.067 83.5499 162.211 83.493 162.332C83.4438 162.437 83.3494 162.585 83.193 162.83C77.0872 172.425 68.9591 196.223 60.306 229.837C60.2776 229.95 60.1729 230.024 60.0617 230.018Z" fill="#8DACE2"/>
<path d="M87.2534 160.68C86.5241 161.763 82.7251 163.848 82.4174 163.64C82.1096 163.431 82.6165 159.115 83.3445 158.031C84.0725 156.948 85.5388 156.663 86.6185 157.394C87.6982 158.126 87.9826 159.596 87.2534 160.68Z" fill="#8DACE2"/>
<path d="M79.8971 164.175C80.3303 165.439 79.6876 169.839 79.3281 169.963C78.9687 170.087 75.7671 167.013 75.3339 165.749C74.9007 164.486 75.5705 163.108 76.8313 162.673C78.0907 162.238 79.4639 162.91 79.8971 164.175Z" fill="#8DACE2"/>
<path d="M84.8156 171.631C83.4903 171.77 79.3641 170.152 79.3241 169.772C79.284 169.392 82.9898 166.955 84.3139 166.816C85.6393 166.677 86.825 167.642 86.9634 168.972C87.1017 170.302 86.1397 171.492 84.8143 171.631H84.8156Z" fill="#8DACE2"/>
<path d="M69.3753 186.676C70.3257 188.708 70.0477 196.166 69.4697 196.438C68.8917 196.71 62.9954 192.163 62.0451 190.132C61.0947 188.1 61.9649 185.68 63.9885 184.726C66.0121 183.772 68.425 184.646 69.3753 186.676Z" fill="#8DACE2"/>
<path d="M78.9288 198.223C76.7422 198.696 69.5645 196.744 69.4301 196.118C69.2956 195.491 75.0393 190.749 77.2245 190.278C79.4111 189.806 81.5653 191.202 82.0347 193.397C82.5054 195.591 81.114 197.751 78.9275 198.223H78.9288Z" fill="#8DACE2"/>
<path d="M63.8919 195.225C65.5716 197.393 67.2409 206.37 66.6254 206.851C66.0086 207.332 57.7499 203.498 56.069 201.33C54.3893 199.162 54.7785 196.038 56.9392 194.352C59.0999 192.666 62.2122 193.057 63.8932 195.225H63.8919Z" fill="#8DACE2"/>
<path d="M77.4973 210.295C74.7767 210.593 66.284 207.31 66.1999 206.532C66.1146 205.753 73.7009 200.707 76.4215 200.409C79.1421 200.11 81.5885 202.081 81.8859 204.811C82.1833 207.541 80.2192 209.996 77.4986 210.295H77.4973Z" fill="#8DACE2"/>
<path d="M60.721 206.216C62.4007 208.385 64.07 217.361 63.4545 217.843C62.8377 218.324 54.5777 214.49 52.8981 212.322C51.2184 210.153 51.6076 207.03 53.7683 205.343C55.929 203.658 59.0413 204.048 60.7223 206.215L60.721 206.216Z" fill="#8DACE2"/>
<path d="M74.3264 221.286C71.6058 221.585 63.1131 218.302 63.029 217.523C62.9437 216.745 70.53 211.699 73.2506 211.4C75.9712 211.102 78.4176 213.073 78.715 215.803C79.0124 218.533 77.0483 220.988 74.3277 221.286H74.3264Z" fill="#8DACE2"/>
<path d="M53.3727 220.16C55.7494 221.522 60.7004 229.185 60.3125 229.866C59.9246 230.547 50.8332 230.158 48.4566 228.795C46.08 227.433 45.255 224.395 46.6114 222.01C47.9691 219.625 50.9961 218.796 53.3727 220.159V220.16Z" fill="#8DACE2"/>
<path d="M76.654 171.181C77.0937 172.466 76.442 176.936 76.076 177.062C75.7101 177.187 72.4581 174.065 72.0184 172.781C71.5788 171.496 72.259 170.097 73.5391 169.655C74.8192 169.214 76.2131 169.896 76.654 171.181Z" fill="#8DACE2"/>
<path d="M81.4812 178.844C80.1351 178.986 75.9418 177.34 75.9017 176.955C75.8616 176.57 79.6257 174.093 80.9717 173.951C82.3178 173.81 83.5229 174.791 83.6639 176.143C83.8048 177.494 82.8273 178.703 81.4799 178.844H81.4812Z" fill="#8DACE2"/>
<path d="M72.8967 177.714C73.6686 179.481 73.2639 185.886 72.7622 186.108C72.2592 186.329 67.2913 182.288 66.5194 180.521C65.7474 178.753 66.5491 176.692 68.3102 175.917C70.0714 175.142 72.1247 175.947 72.898 177.714H72.8967Z" fill="#8DACE2"/>
<path d="M80.6226 188.576C78.7102 188.776 72.7531 186.44 72.6963 185.893C72.6394 185.345 77.9874 181.825 79.8998 181.625C81.8122 181.425 83.5255 182.819 83.7247 184.738C83.9238 186.657 82.5351 188.376 80.6226 188.576Z" fill="#8DACE2"/>
<path d="M24.9053 213.193C24.882 213.195 24.8587 213.195 24.8342 213.192C24.6415 213.169 24.5032 212.992 24.5277 212.798C30.7046 162.124 38.009 125.84 45.0937 110.63C45.2514 110.293 45.3652 110.049 45.4027 109.928C45.4635 109.741 45.6626 109.64 45.8462 109.7C46.0311 109.759 46.1333 109.959 46.0738 110.145C46.0221 110.307 45.9122 110.541 45.7324 110.929C38.6788 126.072 31.3964 162.28 25.2273 212.882C25.2066 213.052 25.0695 213.179 24.9053 213.192V213.193Z" fill="#BBCFF8"/>
<path d="M51.2328 107.019C50.3794 108.736 45.2473 112.504 44.7585 112.259C44.2697 112.015 44.1831 105.633 45.0365 103.917C45.8899 102.2 47.9691 101.502 49.6798 102.358C51.3905 103.215 52.0862 105.301 51.2328 107.019Z" fill="#BBCFF8"/>
<path d="M41.1913 113.525C42.0641 115.282 41.9697 121.81 41.4706 122.059C40.9715 122.31 35.723 118.452 34.8502 116.694C33.9774 114.937 34.6899 112.802 36.442 111.928C38.1928 111.053 40.3198 111.767 41.1913 113.525Z" fill="#BBCFF8"/>
<path d="M49.778 123.431C47.876 123.887 41.5594 122.326 41.4288 121.781C41.2982 121.236 46.226 116.974 48.1281 116.517C50.0302 116.06 51.9426 117.237 52.3977 119.146C52.8529 121.055 51.6801 122.974 49.778 123.431Z" fill="#BBCFF8"/>
<path d="M30.1783 148.306C31.951 151.08 32.9712 161.99 32.1825 162.498C31.3937 163.005 21.9403 157.521 20.1675 154.747C18.3947 151.973 19.199 148.283 21.9635 146.504C24.7281 144.725 28.4055 145.532 30.1783 148.306Z" fill="#BBCFF8"/>
<path d="M46.292 163.276C43.199 164.384 32.3775 162.926 32.062 162.04C31.7465 161.153 39.2009 153.146 42.2926 152.038C45.3855 150.93 48.7875 152.547 49.8918 155.65C50.9961 158.754 49.3849 162.168 46.292 163.276Z" fill="#BBCFF8"/>
<path d="M23.8295 161.806C26.6897 164.639 30.8365 177.386 30.0309 178.205C29.2254 179.023 16.4681 175.032 13.6079 172.199C10.7477 169.367 10.7167 164.744 13.5394 161.873C16.3621 159.003 20.9692 158.972 23.8295 161.805V161.806Z" fill="#BBCFF8"/>
<path d="M46.5172 181.124C42.6134 182.082 29.6235 178.939 29.3506 177.822C29.0778 176.703 39.1558 167.898 43.0595 166.94C46.9633 165.983 50.9019 168.381 51.8561 172.298C52.8104 176.215 50.4209 180.167 46.5172 181.125V181.124Z" fill="#BBCFF8"/>
<path d="M21.3158 178.417C24.176 181.25 28.3228 193.997 27.5172 194.816C26.7117 195.635 13.9545 191.643 11.0942 188.811C8.23402 185.978 8.20299 181.356 11.0257 178.485C13.8484 175.615 18.4556 175.584 21.3145 178.416L21.3158 178.417Z" fill="#BBCFF8"/>
<path d="M44.002 197.735C40.0983 198.693 27.1083 195.55 26.8355 194.433C26.5627 193.315 36.6407 184.509 40.5444 183.552C44.4481 182.594 48.3855 184.992 49.341 188.909C50.2953 192.827 47.9057 196.778 44.002 197.737V197.735Z" fill="#BBCFF8"/>
<path d="M13.2832 200.131C17.0033 201.657 25.6758 211.858 25.2414 212.924C24.8082 213.989 11.4975 215.175 7.77745 213.649C4.05735 212.123 2.27423 207.86 3.79486 204.127C5.31548 200.394 9.56315 198.605 13.2832 200.131Z" fill="#BBCFF8"/>
<path d="M42.0599 214.071C38.3062 215.511 25.0266 214.022 24.6167 212.947C24.2068 211.871 33.1082 201.871 36.8619 200.431C40.6156 198.99 44.8219 200.876 46.2572 204.642C47.6925 208.409 45.8137 212.63 42.0599 214.071Z" fill="#BBCFF8"/>
<path d="M37.8112 124.347C38.697 126.132 38.6026 132.764 38.0944 133.018C37.5862 133.273 32.2537 129.353 31.368 127.567C30.4822 125.782 31.205 123.614 32.9843 122.725C34.7635 121.836 36.9242 122.561 37.8099 124.347H37.8112Z" fill="#BBCFF8"/>
<path d="M46.3023 134.574C44.3692 135.039 37.9518 133.452 37.8199 132.899C37.688 132.345 42.6934 128.014 44.6265 127.55C46.5597 127.086 48.5018 128.282 48.9647 130.222C49.4276 132.162 48.2354 134.111 46.3023 134.575V134.574Z" fill="#BBCFF8"/>
<path d="M33.5895 134.582C35.0519 137.006 35.6868 146.408 34.9976 146.827C34.3084 147.246 26.3032 142.321 24.8407 139.895C23.3783 137.472 24.1516 134.316 26.5683 132.85C28.9837 131.382 32.1271 132.158 33.5895 134.583V134.582Z" fill="#BBCFF8"/>
<path d="M46.9142 148.906C44.1678 149.565 35.0505 147.311 34.863 146.525C34.6755 145.738 41.7873 139.585 44.5337 138.925C47.2802 138.266 50.0395 139.964 50.6964 142.72C51.3533 145.476 49.6607 148.245 46.9142 148.904V148.906Z" fill="#BBCFF8"/>
<path d="M122.383 177.856C122.383 177.856 126.88 169.044 126.372 165.691C125.864 162.338 123.128 152.806 123.843 149.252C124.065 148.145 126.39 139.672 128.494 138.516C129.918 137.735 133.054 140.941 131.953 145.274C130.039 152.804 132.32 157.24 133.557 160.438C135.669 165.895 136.482 169.145 136.55 166.497C136.55 166.497 135.563 158.336 135.95 154.78C136.054 153.819 138.168 146.445 140.197 145.768C141.295 145.401 144.74 147.237 143.383 154.014C142.492 158.467 144.979 161.389 146.805 164.469C148.384 167.132 156.086 173.889 156.086 173.889L145.667 181.851L122.38 177.857L122.383 177.856Z" fill="#E96F5F"/>
<path d="M115.681 163.472C115.681 163.472 110.779 149.529 110.409 143.801C110.262 141.504 110.484 133.928 112.355 132.612C115.444 130.441 118.987 135.881 118.659 142.832C118.333 149.73 125.039 155.138 128.269 159.691C136.297 171.01 141.136 177.823 141.136 177.823L115.68 163.472H115.681Z" fill="#F78978"/>
<path d="M131.245 113.653C130.207 112.614 132.284 112.427 132.284 110.245V108.311C132.284 102.07 133.691 96.8929 136.504 92.7809C139.318 88.6689 143.885 84.6296 150.205 80.6656C153.76 78.5869 156.353 76.9 157.983 75.6115C159.614 74.3231 160.772 72.9866 161.464 71.5969C162.154 70.2098 162.5 68.4256 162.5 66.2457C162.5 62.5788 161.141 59.7553 158.427 57.7727C155.711 55.7913 151.786 54.7999 146.652 54.7999C138.554 54.7999 131.296 56.9318 124.878 61.1917C123.693 61.8859 122.903 62.2311 122.508 62.2311C121.619 62.2311 118.439 60.8141 117.847 59.7229L114.508 50.6374C114.113 49.9445 113.916 49.3515 113.916 48.8532C113.916 47.9618 114.458 47.169 115.547 46.4748C124.728 40.2335 136.134 37.1116 149.763 37.1116C160.824 37.1116 169.759 39.6639 176.573 44.7672C183.388 49.8705 186.795 56.9811 186.795 66.0965C186.795 72.0407 185.411 76.9467 182.647 80.8122C179.881 84.6776 175.437 88.3445 169.314 91.8129C164.474 94.5871 161.167 97.1641 159.39 99.5412C157.612 101.92 156.724 104.942 156.724 108.609V110.242C156.724 112.423 156.23 114.035 155.242 115.074C154.254 116.116 152.525 116.635 150.058 116.635H138.948C136.578 116.635 132.282 114.693 131.247 113.651L131.245 113.653ZM131.245 137.234C129.716 135.996 131.245 135.663 131.245 133.581V130.461C131.245 128.281 132.011 126.571 133.541 125.332C135.07 124.094 137.27 123.475 140.134 123.475H148.726C151.686 123.475 153.933 124.094 155.463 125.332C156.993 126.569 157.759 128.281 157.759 130.461V133.581C157.759 135.761 156.993 137.447 155.463 138.635C153.933 139.825 151.686 140.42 148.726 140.42H140.134C137.27 140.42 132.775 138.472 131.245 137.234Z" fill="#1E66BC"/>
<path d="M235.964 183.878C232.455 182.907 229.167 181.979 226.301 181.144C224.704 180.674 223.237 180.234 221.94 179.833C219.845 179.182 218.189 178.629 217.123 178.209C214.399 177.132 210.112 176.078 206.603 173.989L206.6 173.986C204.224 172.575 202.207 170.687 201.269 167.995C198.944 161.329 186.518 149.523 175.283 141.817C169.156 137.612 162.897 130.735 160.631 127.955C158.849 125.768 152.65 116.362 150.28 115.608C148.885 115.166 145.518 119.029 145.099 121.24C144.199 125.976 147.485 131.958 154.057 141.049C160.32 149.71 161.089 154.724 160.819 159.416C160.64 162.464 160.016 165.518 156.328 168.256C155.892 168.577 154.591 169.697 152.706 170.809C148.765 173.14 142.275 175.446 135.922 170.338C135.847 170.277 135.772 170.219 135.696 170.16V170.157C135.696 170.157 135.695 170.157 135.692 170.155C132.942 168.025 129.449 166.693 126.292 165.226C122.987 163.691 120.046 162.008 118.718 159.11C117.102 155.584 114.247 152.44 111.295 148.894L111.292 148.891C109.154 146.329 106.963 143.555 105.157 140.272C100.748 132.271 95.6594 132.777 93.8995 136.116C92.9465 137.928 97.3817 150.582 98.2545 152.362C99.417 154.741 108.901 170.604 110.943 173.14C115.965 179.388 137.595 198.069 141.716 201.265C148.696 206.681 167.861 207.929 183.715 210.589C184.776 210.767 185.834 210.96 186.889 211.167H186.893C192.688 212.305 198.392 213.868 203.952 215.851C205.715 216.475 207.46 217.143 209.192 217.854C209.971 218.175 210.751 218.503 211.524 218.842C222.651 206.626 230.451 194.973 235.962 183.876L235.964 183.878Z" fill="#FFA089"/>
<path d="M207.728 221.002L186.795 211.123L206.581 173.979L226.989 179.667L207.728 221.002Z" fill="#89B4FD"/>
<path d="M305.734 199.02L223.004 177.701L222.628 178.451L221.94 179.833L203.956 215.852L202.594 218.58L201.353 221.062L263.026 256C277.07 242.937 290.307 213.348 305.736 199.02H305.734Z" fill="#100259"/>
<path d="M211.956 180.74C212.607 181.355 213.631 181.325 214.245 180.673C214.858 180.02 214.828 178.992 214.178 178.376C213.527 177.761 212.503 177.791 211.889 178.443C211.276 179.096 211.306 180.124 211.956 180.74Z" fill="#100259"/>
<path d="M130.498 113.055C129.46 112.016 128.942 110.406 128.942 108.223V106.29C128.942 100.049 130.349 94.8713 133.163 90.7593C135.977 86.6473 140.544 82.608 146.864 78.644C150.419 76.5653 153.011 74.8784 154.642 73.5899C156.272 72.3015 157.431 70.965 158.123 69.5753C158.813 68.1882 159.158 66.404 159.158 64.2241C159.158 60.5572 157.799 57.7337 155.085 55.7511C152.369 53.7697 148.444 52.7783 143.311 52.7783C135.212 52.7783 127.955 54.9102 121.537 59.1701C120.351 59.8643 119.561 60.2095 119.167 60.2095C118.277 60.2095 117.536 59.6658 116.946 58.5733L111.167 48.6145C110.771 47.9216 110.575 47.3286 110.575 46.8303C110.575 45.9389 111.116 45.1461 112.205 44.4519C121.387 38.2106 132.793 35.09 146.422 35.09C157.483 35.09 166.418 37.6423 173.232 42.7456C180.046 47.8489 183.453 54.9595 183.453 64.0749C183.453 70.0191 182.07 74.9251 179.305 78.7906C176.54 82.656 172.095 86.3229 165.973 89.7913C161.133 92.5655 157.825 95.1425 156.049 97.5209C154.271 99.8993 153.382 102.921 153.382 106.588V108.222C153.382 110.403 152.888 112.015 151.901 113.054C150.913 114.096 149.185 114.615 146.717 114.615H135.607C133.237 114.615 131.534 114.096 130.498 113.054V113.055ZM130.199 136.541C128.67 135.303 127.904 133.642 127.904 131.561V128.44C127.904 126.261 128.67 124.55 130.199 123.311C131.729 122.073 133.928 121.454 136.793 121.454H145.385C148.345 121.454 150.592 122.073 152.122 123.311C153.651 124.549 154.418 126.261 154.418 128.44V131.561C154.418 133.741 153.651 135.427 152.122 136.615C150.592 137.805 148.345 138.399 145.385 138.399H136.793C133.928 138.399 131.729 137.78 130.199 136.542V136.541Z" fill="#2A6FD3"/>
<path d="M199.944 165.27C195.854 158.439 185.111 148.559 175.283 141.814C169.156 137.612 162.895 130.736 160.63 127.954C158.852 125.766 152.652 116.359 150.28 115.605C148.884 115.165 145.517 119.029 145.099 121.239C144.199 125.975 147.483 131.958 154.056 141.048C160.319 149.709 161.09 154.723 160.819 159.415C160.812 159.522 160.804 159.627 160.798 159.736L199.944 165.272V165.27Z" fill="#FFA089"/>
<path d="M213.843 44.0873L192.731 51.2823C191.677 51.6417 190.532 51.0747 190.174 50.0171C189.815 48.9596 190.38 47.81 191.434 47.4506L212.546 40.2556C213.6 39.8962 214.745 40.4632 215.104 41.5207C215.462 42.5782 214.897 43.7279 213.843 44.0873Z" fill="white"/>
<path d="M188.449 25.6119L181.565 38.1453C181.127 38.9443 181.416 39.9489 182.213 40.3893L182.86 40.7475C183.657 41.1878 184.658 40.8971 185.096 40.0981L191.98 27.5647C192.419 26.7657 192.129 25.7611 191.333 25.3208L190.685 24.9625C189.889 24.5222 188.888 24.8129 188.449 25.6119Z" fill="white"/>
<path d="M167.772 22.3729L167.099 31.9706C167.046 32.719 167.608 33.3685 168.354 33.4212L169.537 33.5048C170.283 33.5576 170.93 32.9936 170.982 32.2451L171.656 22.6475C171.709 21.899 171.147 21.2496 170.401 21.1968L169.218 21.1132C168.472 21.0605 167.825 21.6245 167.772 22.3729Z" fill="white"/>
</g>
</g>
<defs>
<clipPath id="clip0_678_15863">
<rect width="322" height="256" fill="white"/>
</clipPath>
</defs>
</svg>
