<svg width="266" height="210" viewBox="0 0 266 210" fill="none" xmlns="http://www.w3.org/2000/svg">
<g clip-path="url(#clip0_754_22596)">
<path d="M236.165 148.911H140.006C138.288 148.911 136.889 147.488 136.889 145.74V3.26395C136.889 1.51601 138.288 0.0927734 140.006 0.0927734H236.165C237.884 0.0927734 239.283 1.51601 239.283 3.26395V145.74C239.283 147.488 237.884 148.911 236.165 148.911ZM140.006 0.228063C138.362 0.228063 137.022 1.59178 137.022 3.26395V145.74C137.022 147.412 138.362 148.775 140.006 148.775H236.165C237.809 148.775 239.15 147.412 239.15 145.74V3.26395C239.15 1.59178 237.809 0.228063 236.165 0.228063H140.006Z" fill="#F0F0F0"/>
<path d="M125.28 148.911H29.1268C27.4084 148.911 26.0093 147.488 26.0093 145.74V3.26395C26.0093 1.51601 27.4084 0.0927734 29.1268 0.0927734H125.28C126.999 0.0927734 128.398 1.51601 128.398 3.26395V145.74C128.398 147.488 126.999 148.911 125.28 148.911ZM29.1268 0.228063C27.4829 0.228063 26.1423 1.59178 26.1423 3.26395V145.74C26.1423 147.412 27.4829 148.775 29.1268 148.775H125.28C126.924 148.775 128.265 147.412 128.265 145.74V3.26395C128.265 1.59178 126.924 0.228063 125.28 0.228063H29.1268Z" fill="#F0F0F0"/>
<path d="M266 181.959H0V182.094H266V181.959Z" fill="#E0E0E0"/>
<path d="M95.9888 13.8438L112.784 13.8438C113.225 13.8438 113.582 13.4803 113.582 13.032V9.17357C113.582 8.72526 113.225 8.36184 112.784 8.36184L95.9888 8.36184C95.5481 8.36184 95.1908 8.72526 95.1908 9.17357V13.032C95.1908 13.4803 95.5481 13.8438 95.9888 13.8438Z" fill="#F0F0F0"/>
<path d="M85.9605 20.8301L102.756 20.8301C103.196 20.8301 103.554 20.4667 103.554 20.0183V16.1599C103.554 15.7116 103.196 15.3482 102.756 15.3482L85.9605 15.3482C85.5198 15.3482 85.1625 15.7116 85.1625 16.1599V20.0183C85.1625 20.4667 85.5198 20.8301 85.9605 20.8301Z" fill="#F0F0F0"/>
<path d="M51.1679 90.5635H34.3727C33.932 90.5635 33.5747 90.9269 33.5747 91.3752V95.2337C33.5747 95.682 33.932 96.0454 34.3727 96.0454H51.1679C51.6087 96.0454 51.9659 95.682 51.9659 95.2337V91.3752C51.9659 90.9269 51.6087 90.5635 51.1679 90.5635Z" fill="#F0F0F0"/>
<path d="M61.2016 97.5498H44.4064C43.9657 97.5498 43.6084 97.9132 43.6084 98.3615V102.22C43.6084 102.668 43.9657 103.032 44.4064 103.032H61.2016C61.6424 103.032 61.9996 102.668 61.9996 102.22V98.3615C61.9996 97.9132 61.6424 97.5498 61.2016 97.5498Z" fill="#F0F0F0"/>
<path d="M213.034 96.0884H196.239C195.798 96.0884 195.441 96.4518 195.441 96.9001V100.759C195.441 101.207 195.798 101.57 196.239 101.57H213.034C213.475 101.57 213.832 101.207 213.832 100.759V96.9001C213.832 96.4518 213.475 96.0884 213.034 96.0884Z" fill="#F0F0F0"/>
<path d="M233.096 96.0884H216.3C215.86 96.0884 215.502 96.4518 215.502 96.9001V100.759C215.502 101.207 215.86 101.57 216.3 101.57H233.096C233.536 101.57 233.894 101.207 233.894 100.759V96.9001C233.894 96.4518 233.536 96.0884 233.096 96.0884Z" fill="#F0F0F0"/>
<path d="M223.068 103.075H206.273C205.832 103.075 205.475 103.438 205.475 103.886V107.745C205.475 108.193 205.832 108.557 206.273 108.557H223.068C223.509 108.557 223.866 108.193 223.866 107.745V103.886C223.866 103.438 223.509 103.075 223.068 103.075Z" fill="#F0F0F0"/>
<path d="M243.033 135.436H223.844V181.954H243.033V135.436Z" fill="#E6E6E6"/>
<path d="M228.345 135.436H182.614V181.954H228.345V135.436Z" fill="#F5F5F5"/>
<path d="M208.937 135.436H203.288V181.819H208.937V135.436Z" fill="#FAFAFA"/>
<path d="M85.4656 135.436H66.2764V181.954H85.4656V135.436Z" fill="#E6E6E6"/>
<path d="M70.7771 135.436H25.0464V181.954H70.7771V135.436Z" fill="#F5F5F5"/>
<path d="M51.3696 135.436H45.7197V181.819H51.3696V135.436Z" fill="#FAFAFA"/>
<path d="M182.615 160.183H163.425V181.959H182.615V160.183Z" fill="#E6E6E6"/>
<path d="M167.926 160.183H122.195V181.959H167.926V160.183Z" fill="#F5F5F5"/>
<path d="M148.519 160.183H142.869V181.894H148.519V160.183Z" fill="#FAFAFA"/>
<path d="M94.43 113.66H75.2407V135.436H94.43V113.66Z" fill="#E6E6E6"/>
<path d="M79.7415 113.66H34.0107V135.436H79.7415V113.66Z" fill="#F5F5F5"/>
<path d="M60.3339 113.66H54.6841V135.371H60.3339V113.66Z" fill="#FAFAFA"/>
<path d="M188.945 10.521H146.906V53.2832H188.945V10.521Z" fill="#E6E6E6"/>
<path d="M186.817 51.1185V12.6855L149.034 12.6855V51.1185H186.817Z" fill="#FAFAFA"/>
<path d="M165.393 42.3897C165.393 42.3897 172.33 27.9191 186.817 27.6323V51.1185H167.925L165.393 42.3897Z" fill="#F0F0F0"/>
<path d="M149.034 38.3256C149.034 38.3256 155.275 34.9975 161.616 37.4436C169.58 40.5119 174.198 51.1186 174.198 51.1186H149.039V38.3256H149.034Z" fill="#F5F5F5"/>
<path d="M161.994 31.6478C165.675 31.6478 168.66 28.612 168.66 24.8671C168.66 21.1222 165.675 18.0864 161.994 18.0864C158.312 18.0864 155.328 21.1222 155.328 24.8671C155.328 28.612 158.312 31.6478 161.994 31.6478Z" fill="white"/>
<path d="M69.325 10.521H32.4414V83.1496H69.325V10.521Z" fill="#E6E6E6"/>
<path d="M67.1968 80.9849V12.6855L34.5692 12.6855L34.5692 80.9849H67.1968Z" fill="#FAFAFA"/>
<path d="M45.8637 40.6307C49.5452 40.6307 52.5297 37.5949 52.5297 33.85C52.5297 30.1052 49.5452 27.0693 45.8637 27.0693C42.1822 27.0693 39.1978 30.1052 39.1978 33.85C39.1978 37.5949 42.1822 40.6307 45.8637 40.6307Z" fill="white"/>
<path d="M40.666 80.9849C40.666 80.9849 48.9227 40.5984 67.1915 36.9727V80.9849H40.666Z" fill="#F0F0F0"/>
<path d="M34.5693 57.0172C34.5693 57.0172 38.7721 52.8936 45.4328 55.3612C57.9454 59.9935 64.9306 80.9904 64.9306 80.9904H34.5693V57.0226V57.0172Z" fill="#F5F5F5"/>
<path d="M216.032 42.2465C222.138 41.4784 226.476 35.8206 225.721 29.6095C224.966 23.3985 219.404 18.9861 213.298 19.7542C207.192 20.5223 202.854 26.1801 203.609 32.3912C204.364 38.6022 209.926 43.0146 216.032 42.2465Z" fill="#E0E0E0"/>
<path d="M224.652 33.3596C225.943 27.746 222.516 22.1304 216.998 20.8168C211.479 19.5033 205.959 22.9891 204.667 28.6027C203.376 34.2164 206.803 39.8319 212.321 41.1455C217.84 42.4591 223.361 38.9732 224.652 33.3596Z" fill="#FAFAFA"/>
<path d="M214.694 21.4956H214.311V23.6711H214.694V21.4956Z" fill="#E0E0E0"/>
<path d="M214.694 38.2388H214.311V40.4142H214.694V38.2388Z" fill="#E0E0E0"/>
<path d="M207.342 30.7603H205.203V31.1499H207.342V30.7603Z" fill="#E0E0E0"/>
<path d="M223.802 30.7603H221.663V31.1499H223.802V30.7603Z" fill="#E0E0E0"/>
<path d="M220.952 24.1422L219.44 25.6802L219.711 25.9557L221.223 24.4177L220.952 24.1422Z" fill="#E0E0E0"/>
<path d="M209.309 35.9783L207.797 37.5171L208.068 37.7925L209.58 36.2537L209.309 35.9783Z" fill="#E0E0E0"/>
<path d="M208.066 24.1317L207.795 24.4072L209.307 25.9452L209.578 25.6697L208.066 24.1317Z" fill="#E0E0E0"/>
<path d="M219.716 35.9848L219.445 36.2603L220.957 37.7988L221.228 37.5233L219.716 35.9848Z" fill="#E0E0E0"/>
<path d="M214.429 30.6922L214.309 31.0044L217.937 32.4575L218.058 32.1454L214.429 30.6922Z" fill="#E0E0E0"/>
<path d="M214.668 31.1228H208.683V30.7873H214.338V26.063H214.668V31.1228Z" fill="#E0E0E0"/>
<path d="M248.811 205.662C248.811 207.556 197.425 209.087 134.037 209.087C70.6495 209.087 19.2637 207.55 19.2637 205.662C19.2637 203.773 70.6495 202.236 134.037 202.236C197.425 202.236 248.811 203.773 248.811 205.662Z" fill="#F5F5F5"/>
<path d="M204.575 71.3306L214.667 80.541H170.878L162.324 71.3306H204.575Z" fill="#407BFF"/>
<path opacity="0.5" d="M204.575 71.3306L214.667 80.541H170.878L162.324 71.3306H204.575Z" fill="black"/>
<path d="M204.596 71.3306H162.324V114.331H204.596V71.3306Z" fill="#407BFF"/>
<path opacity="0.2" d="M204.596 71.3306H162.324V114.331H204.596V71.3306Z" fill="black"/>
<path d="M191.02 71.3306H148.747V114.331H191.02V71.3306Z" fill="#407BFF"/>
<path d="M148.763 71.3306L138.671 80.541H182.46L191.014 71.3306H148.763Z" fill="#407BFF"/>
<path opacity="0.3" d="M148.763 71.3306L138.671 80.541H182.46L191.014 71.3306H148.763Z" fill="white"/>
<path d="M170.569 86.1475C174.512 86.1475 177.188 88.5124 177.188 92.3979C177.188 96.6135 174.246 98.4696 170.309 98.4696L170.192 100.834H167.282L167.133 96.1372H168.101C171.426 96.1372 173.985 95.542 173.985 92.3979C173.985 90.3036 172.719 89.0156 170.601 89.0156C168.484 89.0156 167.191 90.2116 167.191 92.3059H164.047C164.015 88.6855 166.574 86.1421 170.575 86.1421L170.569 86.1475ZM168.686 107.447C167.479 107.447 166.537 106.49 166.537 105.267C166.537 104.044 167.479 103.08 168.686 103.08C169.894 103.08 170.804 104.038 170.804 105.267C170.804 106.495 169.862 107.447 168.686 107.447Z" fill="white"/>
<path d="M192.844 114.331H143.017V118.785H192.844V114.331Z" fill="#407BFF"/>
<path opacity="0.3" d="M192.844 114.331H143.017V118.785H192.844V114.331Z" fill="black"/>
<path d="M211.358 114.331H192.85V118.785H211.358V114.331Z" fill="#407BFF"/>
<path opacity="0.5" d="M211.358 114.331H192.85V118.785H211.358V114.331Z" fill="black"/>
<path d="M175.996 118.785H172.995V202.604H175.996V118.785Z" fill="#263238"/>
<path opacity="0.2" d="M175.996 118.785H172.995V202.604H175.996V118.785Z" fill="white"/>
<path opacity="0.2" d="M176.001 120.874L172.995 122.134V118.785H176.001V120.874Z" fill="black"/>
<path d="M164.143 200.9H184.854C187.242 200.9 189.179 202.87 189.179 205.3V205.316H159.818V205.3C159.818 202.87 161.754 200.9 164.143 200.9Z" fill="#407BFF"/>
<path d="M45.8374 161.845C45.8374 161.845 49.471 160.497 50.4073 164.41C51.3489 168.322 54.0355 167.31 54.5462 166.455C55.5517 164.767 55.69 158.657 53.9664 158.289C51.9022 157.851 46.5609 160.064 45.8374 161.85V161.845Z" fill="#407BFF"/>
<g opacity="0.4">
<path d="M45.8374 161.845C45.8374 161.845 49.471 160.497 50.4073 164.41C51.3489 168.322 54.0355 167.31 54.5462 166.455C55.5517 164.767 55.69 158.657 53.9664 158.289C51.9022 157.851 46.5609 160.064 45.8374 161.85V161.845Z" fill="black"/>
</g>
<path d="M53.9663 158.284C49.7049 158.349 48.5824 162.153 47.8961 165.503L46.5129 162.873L47.4971 167.538C47.3907 168.046 47.2843 168.517 47.1567 168.928C46.1299 172.235 42.9698 173.241 42.9698 173.241C42.9698 173.241 42.7783 171.899 42.6134 170.016L44.1615 167.532L42.4751 168.252C42.2889 165.297 42.2623 161.742 42.9698 159.718C44.3371 155.805 48.0079 157.012 48.0079 157.012L53.9716 158.284H53.9663Z" fill="#407BFF"/>
<path d="M64.5745 154.176C64.5745 154.176 62.3401 153.494 60.0046 156.741C57.7489 159.869 56.8498 160.237 55.323 159.019C53.7962 157.802 54.7165 150.983 56.4455 150.615C58.5097 150.177 63.851 152.39 64.5745 154.176Z" fill="#407BFF"/>
<g opacity="0.4">
<path d="M64.5745 154.176C64.5745 154.176 62.3401 153.494 60.0046 156.741C57.7489 159.869 56.8498 160.237 55.323 159.019C53.7962 157.802 54.7165 150.983 56.4455 150.615C58.5097 150.177 63.851 152.39 64.5745 154.176Z" fill="black"/>
</g>
<path d="M71.751 171.942C71.751 171.942 68.974 171.06 67.0694 168.398L69.5326 162.521L66.1544 166.801C66.0107 166.482 65.883 166.147 65.7713 165.79C64.3083 161.076 64.6062 150.837 56.1953 150.718L64.5637 148.776C64.5637 148.776 69.7986 147.055 71.751 152.639C72.2458 154.057 72.4905 156.005 72.5809 158.121L69.5326 155.253C69.5326 155.253 71.6446 158.37 72.6182 159.674C72.666 165.519 71.751 171.942 71.751 171.942Z" fill="#407BFF"/>
<path d="M43.2891 145.112C43.2891 145.112 46.9226 143.764 47.8589 147.677C48.8006 151.589 53.5301 153.083 54.0142 151.173C54.5302 149.133 53.3864 141.87 51.6627 141.497C49.5986 141.059 44.0179 143.331 43.2891 145.112Z" fill="#407BFF"/>
<g opacity="0.4">
<path d="M43.2891 145.112C43.2891 145.112 46.9226 143.764 47.8589 147.677C48.8006 151.589 53.5301 153.083 54.0142 151.173C54.5302 149.133 53.3864 141.87 51.6627 141.497C49.5986 141.059 44.0179 143.331 43.2891 145.112Z" fill="black"/>
</g>
<path d="M51.8117 141.524C44.9329 141.627 43.7785 148.565 42.789 153.668L39.2831 148.527C39.3257 148.673 41.1877 154.815 41.9059 157.245C40.2833 161.541 36.1124 162.873 36.1124 162.873C36.1124 162.873 34.942 154.658 35.3197 148.353C36.3465 147.493 38.1553 145.945 38.1553 145.945L35.4687 146.622C35.607 145.464 35.8145 144.425 36.1124 143.57C38.0648 137.99 43.2997 139.706 43.2997 139.706L51.8117 141.524Z" fill="#407BFF"/>
<path d="M54.5515 175.698C54.5515 175.698 54.5355 175.698 54.5249 175.698C54.3919 175.682 54.2961 175.563 54.3121 175.427C56.6954 153.862 50.7264 135.68 50.6679 135.501C50.6253 135.371 50.6945 135.236 50.8168 135.193C50.9445 135.149 51.0775 135.22 51.1201 135.344C51.1786 135.528 57.1849 153.814 54.7909 175.482C54.7749 175.606 54.6738 175.698 54.5515 175.698Z" fill="#407BFF"/>
<path d="M63.8031 174.129H45.3906V176.754H63.8031V174.129Z" fill="#263238"/>
<path opacity="0.2" d="M63.8031 174.129H45.3906V176.754H63.8031V174.129Z" fill="white"/>
<path d="M60.8292 176.753H48.2633C46.7525 180.32 41.874 190.823 41.874 193.93C41.874 197.604 46.3747 205.256 46.3747 205.256C46.3747 205.803 62.7125 205.803 62.7125 205.256C62.7125 205.256 67.2132 197.604 67.2132 193.93C67.2132 190.823 62.3347 180.32 60.8239 176.753H60.8292Z" fill="#263238"/>
<path d="M80.5233 30.479C86.7081 30.479 91.7219 25.3789 91.7219 19.0876C91.7219 12.7964 86.7081 7.69629 80.5233 7.69629C74.3385 7.69629 69.3247 12.7964 69.3247 19.0876C69.3247 25.3789 74.3385 30.479 80.5233 30.479Z" fill="#407BFF"/>
<g opacity="0.7">
<path d="M80.5233 30.479C86.7081 30.479 91.7219 25.3789 91.7219 19.0876C91.7219 12.7964 86.7081 7.69629 80.5233 7.69629C74.3385 7.69629 69.3247 12.7964 69.3247 19.0876C69.3247 25.3789 74.3385 30.479 80.5233 30.479Z" fill="white"/>
</g>
<path d="M80.5235 30.7115C74.2247 30.7115 69.0962 25.4947 69.0962 19.0874C69.0962 12.6801 74.2247 7.46338 80.5235 7.46338C86.8224 7.46338 91.9509 12.6801 91.9509 19.0874C91.9509 25.4947 86.8224 30.7115 80.5235 30.7115ZM80.5235 7.93418C74.4747 7.93418 69.559 12.9399 69.559 19.0874C69.559 25.235 74.48 30.2407 80.5235 30.2407C86.5671 30.2407 91.4881 25.235 91.4881 19.0874C91.4881 12.9399 86.5671 7.93418 80.5235 7.93418Z" fill="#407BFF"/>
<path d="M80.6138 12.7559C83.0397 12.7559 84.6836 14.2116 84.6836 16.6035C84.6836 19.201 82.8748 20.3429 80.4489 20.3429L80.3744 21.7986H78.5815L78.4911 18.9088H79.0869C81.1298 18.9088 82.7045 18.5408 82.7045 16.6089C82.7045 15.3209 81.9278 14.5309 80.6244 14.5309C79.321 14.5309 78.523 15.2668 78.523 16.5548H76.5865C76.5706 14.3252 78.1453 12.7613 80.6031 12.7613L80.6138 12.7559ZM79.454 25.8627C78.7092 25.8627 78.1347 25.2728 78.1347 24.5206C78.1347 23.7684 78.7145 23.1785 79.454 23.1785C80.1935 23.1785 80.7574 23.7684 80.7574 24.5206C80.7574 25.2728 80.1775 25.8627 79.454 25.8627Z" fill="#407BFF"/>
<path d="M87.5298 27.9677L91.1793 29.813C91.3708 29.9105 91.5783 29.7156 91.5038 29.5154L89.9078 25.2998C89.0939 26.4741 88.3012 27.3941 87.5298 27.9677Z" fill="#407BFF"/>
<path d="M90.4293 48.7158C90.9401 51.335 112.837 50.296 111.816 46.9137C111.645 46.3509 111.305 45.7881 111.018 45.1604C109.592 42.0433 107.23 38.1362 99.5851 38.1632C94.9833 38.1795 88.9238 41.0097 90.4293 48.7212V48.7158Z" fill="#407BFF"/>
<path d="M117.556 195.834L118.673 201.603H121.674L122.073 195.834H117.556Z" fill="#FFC3BD"/>
<path d="M121.275 200.867C121.275 200.867 121.844 200.153 122.562 200.397C123.286 200.64 124.227 201.842 124.227 201.842C124.227 201.842 128.138 203.119 129.191 203.184C130.244 203.249 131.17 203.855 131.569 205.938H118.764C118.764 205.938 118.258 201.241 118.184 200.435C118.104 199.628 119.36 200.635 119.36 200.635L121.275 200.867Z" fill="#407BFF"/>
<path d="M131.191 205.315C130.42 205.31 129.654 205.299 128.882 205.294C125.52 205.261 122.158 205.223 118.79 205.185C118.663 205.185 118.663 204.98 118.79 204.985C119.019 204.985 119.248 204.985 119.471 204.991C119.471 204.985 119.471 204.969 119.477 204.964C119.961 203.876 119.402 202.767 118.434 202.209C118.322 202.15 118.423 201.971 118.53 202.036C119.578 202.637 120.147 203.827 119.668 204.991C120.142 204.996 120.615 205.002 121.089 205.007C124.446 205.039 127.813 205.077 131.175 205.115C131.303 205.115 131.303 205.321 131.175 205.315H131.191Z" fill="black"/>
<path d="M123.775 202.659C124.222 202.02 124.972 201.841 125.605 202.323C125.706 202.399 125.807 202.226 125.706 202.15C124.983 201.598 124.11 201.836 123.605 202.561C123.53 202.669 123.701 202.767 123.775 202.664V202.659Z" fill="white"/>
<path d="M124.882 202.999C125.328 202.361 126.079 202.182 126.712 202.664C126.813 202.74 126.914 202.566 126.813 202.491C126.089 201.939 125.217 202.177 124.711 202.902C124.637 203.01 124.807 203.108 124.882 203.005V202.999Z" fill="white"/>
<path d="M126.02 203.34C126.467 202.702 127.217 202.523 127.85 203.005C127.951 203.08 128.052 202.907 127.951 202.831C127.228 202.28 126.355 202.518 125.85 203.243C125.776 203.351 125.946 203.448 126.02 203.346V203.34Z" fill="white"/>
<path d="M90.7324 195.872L91.3549 201.603H94.3553L95.2491 195.872H90.7324Z" fill="#FFC3BD"/>
<path d="M93.9564 200.867C93.9564 200.867 94.5256 200.153 95.2438 200.396C95.9673 200.64 96.909 201.841 96.909 201.841C96.909 201.841 100.819 203.118 101.873 203.183C102.926 203.248 103.852 203.854 104.251 205.938H91.4453C91.4453 205.938 90.9399 201.24 90.8655 200.434C90.7857 199.628 92.0412 200.634 92.0412 200.634L93.9564 200.867Z" fill="#407BFF"/>
<path d="M103.873 205.315C103.102 205.31 102.336 205.299 101.564 205.294C98.2019 205.261 94.8396 205.223 91.4721 205.185C91.3444 205.185 91.3444 204.98 91.4721 204.985C91.7008 204.985 91.9296 204.985 92.153 204.991C92.153 204.985 92.153 204.969 92.1583 204.964C92.6425 203.876 92.0839 202.767 91.1156 202.209C91.0039 202.15 91.105 201.971 91.2114 202.036C92.2594 202.637 92.8287 203.827 92.3499 204.991C92.8233 204.996 93.2968 205.002 93.7703 205.007C97.1272 205.039 100.495 205.077 103.857 205.115C103.985 205.115 103.985 205.321 103.857 205.315H103.873Z" fill="black"/>
<path d="M96.4567 202.658C96.9036 202.019 97.6537 201.841 98.2868 202.323C98.3879 202.398 98.489 202.225 98.3879 202.149C97.6644 201.597 96.7919 201.835 96.2865 202.561C96.212 202.669 96.3823 202.766 96.4567 202.663V202.658Z" fill="white"/>
<path d="M97.5632 202.999C98.0101 202.361 98.7602 202.182 99.3933 202.664C99.4944 202.74 99.5954 202.566 99.4944 202.491C98.7708 201.939 97.8984 202.177 97.393 202.902C97.3185 203.01 97.4887 203.108 97.5632 203.005V202.999Z" fill="white"/>
<path d="M98.7019 203.34C99.1487 202.702 99.8989 202.523 100.532 203.005C100.633 203.08 100.734 202.907 100.633 202.831C99.9095 202.28 99.037 202.518 98.5316 203.243C98.4571 203.351 98.6274 203.448 98.7019 203.346V203.34Z" fill="white"/>
<path d="M116.556 196.035H123.169C123.743 187.371 125.361 158.657 124.078 144.452C124.999 124.737 122.036 98.5669 122.036 98.5669H101.08C101.08 98.5669 102.618 116.079 109.507 144.165C109.459 166.417 114.8 188.664 116.551 196.035H116.556Z" fill="#263238"/>
<path opacity="0.2" d="M108.384 139.446C112.172 123.703 108.847 103.296 108.847 103.296L105.581 126.609L108.39 139.446H108.384Z" fill="black"/>
<path d="M115.769 195.867L116.253 198.427L123.839 198.389L123.844 195.834L115.769 195.867Z" fill="#263238"/>
<path d="M89.791 196.284H96.4037C98.7605 187.371 103.495 158.711 104.251 144.5C107.996 124.786 109.789 98.5669 109.789 98.5669H88.8334C88.8334 98.5669 86.8863 116.279 89.7484 144.365C89.1898 168.852 89.6314 188.664 89.7857 196.284H89.791Z" fill="#263238"/>
<path d="M89.2113 195.861L89.2007 198.394H96.8455L97.2445 195.861H89.2113Z" fill="#263238"/>
<path d="M124.781 101.781C110.246 107.463 86.5671 103.345 86.5671 103.345C86.849 96.1153 87.0937 81.7963 86.998 69.8963C86.998 69.6203 86.998 69.3443 86.9873 69.0683C86.9714 67.3799 86.9448 65.7456 86.9129 64.1979C86.9129 64.0085 86.9129 63.8191 86.9022 63.6351C86.8331 60.5938 86.7267 57.9043 86.5883 55.7505C86.3223 51.6972 88.4876 47.9253 92.4297 47.2489C93.6267 47.0433 94.9195 46.8647 96.2654 46.7186C96.5846 46.6807 96.9091 46.6482 97.239 46.6157C100.974 46.2424 105.07 46.08 108.81 46.1882C108.996 46.1882 109.182 46.1936 109.369 46.1991C109.464 46.1991 109.571 46.1991 109.667 46.2099C109.826 46.2153 109.991 46.2207 110.151 46.2315C111.816 46.3019 113.396 46.4263 114.811 46.6157C118.024 47.0379 120.881 49.6192 120.934 52.9202C120.982 55.9453 121.275 62.3309 121.695 69.5337C121.855 72.2612 122.035 75.113 122.232 77.9379C122.993 89.0586 123.961 99.8385 124.781 101.781Z" fill="#407BFF"/>
<path d="M87.695 88.5504C87.695 88.5504 87.7057 88.5666 87.7057 88.572L87.6897 88.5612C87.6897 88.5612 87.6472 88.5504 87.6206 88.5504L85.5138 92.5712C85.3755 92.4954 85.2425 92.4197 85.1095 92.3385L85.0084 92.2736L84.9446 92.2303L84.8276 92.1437L84.5828 91.9705L84.386 91.819C84.1147 91.6133 83.8966 91.4294 83.6625 91.2345C83.2209 90.8503 82.8006 90.4715 82.391 90.0873C81.577 89.3243 80.795 88.5612 80.0183 87.7874C78.4861 86.2234 77.0018 84.6324 75.5601 82.9981C74.1078 81.3638 72.7086 79.6917 71.3254 77.9004C70.9796 77.4513 70.6285 76.9859 70.288 76.488C70.1124 76.2283 69.9422 75.9902 69.7613 75.6925C69.5858 75.4219 69.3996 75.1027 69.1921 74.7076L69.0272 74.3505L68.942 74.1719C68.9048 74.0691 68.8622 73.95 68.825 73.8418L68.7239 73.4954C68.692 73.3493 68.6707 73.3764 68.6122 72.9218C68.5696 72.5701 68.5643 72.2021 68.6016 71.8449L68.6335 71.5797C68.6494 71.4986 68.6654 71.3957 68.676 71.3633L68.7558 71.0765C68.8144 70.8816 68.8888 70.6922 68.9686 70.5028L69.091 70.2323L69.1602 70.097L69.1868 70.0483L69.4155 69.664C69.5964 69.3718 69.6815 69.2582 69.7986 69.0904C70.2508 68.4573 70.6125 68.0189 70.9902 67.5481C72.4745 65.7677 73.9428 64.193 75.4271 62.5965C76.922 61.0272 78.4116 59.4687 79.9385 57.9588C82.9762 54.9121 86.0618 51.952 89.2804 49.1001L95.3665 55.9078C92.3394 58.8571 89.2166 61.7415 86.1044 64.5988L81.4547 68.8848C79.9651 70.2431 78.4648 71.6447 77.1189 72.9867C77.2253 73.1816 77.337 73.3764 77.454 73.5712C78.4861 75.3029 79.6565 77.0617 80.8056 78.815C81.976 80.5629 83.1571 82.3163 84.3594 84.0317C84.9552 84.8976 85.5564 85.7526 86.1682 86.5806C86.4714 86.9973 86.78 87.3923 87.0779 87.7765L87.4982 88.3069L87.6631 88.5071L87.695 88.5504Z" fill="#407BFF"/>
<path d="M102.368 50.9072C102.368 50.9072 105.123 62.5367 104.331 73.8468" stroke="white" stroke-width="0.5" stroke-linecap="round" stroke-linejoin="round"/>
<path d="M108.629 50.6582C108.629 50.6582 111.385 62.2877 110.592 73.5978" stroke="white" stroke-width="0.5" stroke-linecap="round" stroke-linejoin="round"/>
<path opacity="0.2" d="M122.232 77.9381C116.859 69.9669 112.811 61.1135 110.225 51.2861L121.695 69.5339C121.855 72.2614 122.035 75.1133 122.232 77.9381Z" fill="black"/>
<path opacity="0.2" d="M94.2812 85.0055C94.2812 85.0055 95.3133 92.1055 94.9463 96.1912C94.9463 96.1912 106.411 98.0203 118.466 95.3037C118.945 92.5492 118.918 88.3878 117.822 84.2858C110.725 83.9232 102.761 84.2533 94.2812 85.0055Z" fill="black"/>
<path d="M111.598 23.5788C109.326 22.7562 106.805 22.859 104.666 23.9955C103.272 24.7368 102.059 25.8679 102.086 27.5671C102.155 31.5338 103.24 38.1629 103.24 38.1629L116.397 32.1128C116.397 32.1128 117.354 28.7901 115.811 26.6742C114.668 25.0994 113.274 24.1849 111.593 23.5788H111.598Z" fill="#263238"/>
<path d="M102.139 31.718C102.139 31.718 102.426 30.5653 101.117 28.4277C99.8087 26.2902 101.245 24.9535 102.245 25.262C102.245 25.262 101.719 23.9415 102.591 23.4924C103.464 23.0432 103.905 23.5573 103.905 23.5573C103.905 23.5573 107.182 20.8894 111.64 21.7823C115.231 22.5021 117.881 19.9586 119.216 20.9489C120.551 21.9393 118.125 22.8646 118.125 22.8646C118.125 22.8646 120.28 24.0714 119.945 25.197C119.61 26.3226 117.636 26.4092 117.636 26.4092C117.636 26.4092 119.684 27.7946 118.849 28.7145C118.014 29.6345 115.407 28.5197 115.407 28.5197C115.407 28.5197 105.076 28.4656 102.134 31.7125L102.139 31.718Z" fill="#263238"/>
<path d="M108.986 43.0877C108.986 43.0877 108.97 43.1201 108.964 43.1364L108.134 45.3281C108.039 45.7826 107.98 46.2426 107.969 46.6918C107.959 47.0706 107.975 47.444 108.017 47.8011C108.432 48.5371 108.501 50.1065 106.767 49.9225C104.575 49.6952 100.862 46.1993 100.825 45.1982C102.16 42.2651 103.432 38.6015 103.58 35.6738L105.788 38.6989L108.991 43.0823L108.986 43.0877Z" fill="#FFC3BD"/>
<g opacity="0.2">
<path d="M108.964 43.1419L108.134 45.3336C106.831 44.5489 105.543 43.0174 105.373 41.4968C105.256 40.4036 105.836 39.4512 106.267 39.4458L108.959 43.1419H108.964Z" fill="black"/>
</g>
<path d="M115.008 39.0233C114.827 39.4996 114.63 39.9704 114.423 40.4303C112.593 44.489 107.443 44.305 104.597 40.8524C104.597 40.847 104.597 40.8416 104.586 40.8416C104.336 40.5332 104.097 40.2031 103.884 39.8405C102.155 36.9182 102.884 34.8943 103.692 30.2133C104.501 25.5377 109.768 23.1404 113.71 26.0139C117.349 28.6656 116.833 34.2558 115.003 39.0233H115.008Z" fill="#FFC3BD"/>
<path d="M110.901 38.585C110.72 39.0829 110.268 39.3751 109.896 39.2344C109.523 39.0937 109.369 38.5742 109.55 38.0763C109.731 37.5785 110.183 37.2862 110.555 37.4269C110.928 37.5676 111.082 38.0872 110.901 38.585Z" fill="white"/>
<path d="M107.549 29.4832C108.752 29.31 107.933 27.9679 108.188 27.2103C109.023 24.7535 115.588 26.4365 116.343 30.1921C116.343 30.1921 116.163 27.3294 114.114 25.576C112.066 23.8227 107.661 23.0272 105.634 25.0511C103.607 27.075 103.597 30.6467 103.597 30.6467C103.597 30.6467 103.544 31.2906 103.932 31.7181C104.15 31.9346 104.533 32.9195 105.171 33.1847C105.714 33.4066 106.129 33.32 106.331 32.5191C106.528 31.7181 106.741 29.6022 107.544 29.4886L107.549 29.4832Z" fill="#263238"/>
<path d="M101.027 32.8112C101.08 34.0884 101.708 35.2248 102.479 35.9283C103.639 36.9836 104.905 36.0907 105.15 34.6133C105.373 33.2821 105.038 31.1283 103.596 30.6412C102.176 30.1596 100.963 31.3447 101.022 32.8112" fill="#FFC3BD"/>
<path d="M110.433 33.0818C110.347 33.4444 110.464 33.7853 110.699 33.8448C110.933 33.9044 111.193 33.6554 111.278 33.2874C111.364 32.9249 111.246 32.5839 111.012 32.5244C110.778 32.4649 110.518 32.7138 110.433 33.0818Z" fill="#263238"/>
<path d="M114.359 33.9856C114.274 34.3482 114.391 34.6891 114.625 34.7487C114.859 34.8082 115.12 34.5592 115.205 34.1913C115.29 33.8287 115.173 33.4878 114.939 33.4282C114.705 33.3687 114.444 33.6176 114.359 33.9856Z" fill="#263238"/>
<path d="M115.758 32.8977C115.694 32.8815 115.641 32.8328 115.625 32.7678C115.54 32.4648 115.391 32.2537 115.183 32.1401C114.837 31.9507 114.428 32.0751 114.423 32.0751C114.327 32.1076 114.22 32.0535 114.188 31.9507C114.157 31.8533 114.215 31.745 114.311 31.7126C114.332 31.7072 114.869 31.5394 115.359 31.8046C115.662 31.9723 115.87 32.2591 115.981 32.665C116.008 32.7678 115.955 32.8706 115.854 32.8977C115.822 32.9085 115.79 32.9085 115.758 32.8977Z" fill="#263238"/>
<path d="M109.666 31.4204C109.64 31.415 109.608 31.3988 109.587 31.3772C109.502 31.3068 109.491 31.1769 109.56 31.0903C109.576 31.0687 109.97 30.5925 110.566 30.5438C110.933 30.5113 111.294 30.6466 111.63 30.9496C111.715 31.0254 111.725 31.1553 111.651 31.2365C111.576 31.323 111.449 31.3285 111.369 31.2581C111.119 31.0362 110.858 30.9334 110.603 30.9551C110.177 30.9875 109.874 31.3501 109.874 31.3555C109.821 31.415 109.746 31.4421 109.672 31.4204H109.666Z" fill="#263238"/>
<path d="M112.88 33.3467C112.88 33.3467 113.066 35.0134 113.561 36.1661C114.061 37.3242 112.098 36.8913 112.098 36.8913L112.88 33.3467Z" fill="#ED847E"/>
<path opacity="0.2" d="M93.8183 57.5742L86.9875 69.0684C86.9715 67.38 86.9449 65.7457 86.913 64.198C86.913 64.0086 86.913 63.8192 86.9023 63.6352L93.8183 57.5742Z" fill="black"/>
<path d="M126.813 74.7882C124.626 75.8001 122.057 74.9343 120.849 72.8833C120.769 72.748 120.695 72.6182 120.615 72.4829C120.461 72.2177 120.307 71.9471 120.152 71.6765C120.072 71.5467 119.998 71.4114 119.923 71.2761C119.673 70.8432 119.429 70.4048 119.179 69.9665C118.907 69.4794 118.631 68.9924 118.354 68.5C118.083 68.0129 117.811 67.5259 117.535 67.0334C117.258 66.5464 116.987 66.0539 116.721 65.5669C116.45 65.0744 116.178 64.582 115.912 64.0895L115.816 63.9109C115.311 62.9856 114.806 62.0548 114.306 61.1294C113.247 59.1488 112.199 57.1627 111.177 55.1604C110.156 53.1528 109.145 51.1451 108.193 49.0941L112.38 46.3071C113.843 48.0172 115.247 49.7705 116.641 51.5293C116.795 51.7241 116.95 51.9189 117.104 52.1191L120.301 50.4199C121.099 51.8486 121.855 53.2989 122.599 54.76C123.339 56.2157 124.073 57.6822 124.786 59.1542C125.499 60.6261 126.212 62.1035 126.898 63.5917C127.595 65.0744 128.276 66.568 128.946 68.0616L129.132 68.4837C130.202 70.8756 129.164 73.7005 126.813 74.7882Z" fill="#407BFF"/>
<path d="M118.354 68.5C118.296 68.4026 118.243 68.3106 118.19 68.2131C117.689 67.3365 117.2 66.4544 116.721 65.5669C116.987 66.0539 117.259 66.5464 117.535 67.0334C117.812 67.5259 118.083 68.0129 118.354 68.5Z" fill="#407BFF"/>
<path d="M112.385 47.406C112.284 48.2285 111.699 49.5056 110.523 49.4624C109.422 49.4191 108.502 49.0403 108.39 48.9915C108.385 48.9861 108.379 48.9861 108.379 48.9861C107.48 48.7534 105.794 48.1744 105.214 47.0434C104.4 45.4632 105.672 42.9847 105.672 42.9847C104.352 41.713 102.793 39.5267 103.884 40.0246C104.969 40.5224 109.252 43.5637 110.789 43.2228C112.215 42.9035 112.715 41.6426 113.242 41.897C113.854 42.1892 112.721 43.3148 112.151 44.4837C112.151 44.4837 112.545 46.1559 112.391 47.406H112.385Z" fill="#FFC3BD"/>
<g opacity="0.2">
<path d="M107.996 49.0131C107.996 49.0131 107.959 49.0131 107.938 49.0023C107.826 48.9482 105.246 47.7197 104.778 46.3722C104.357 45.1709 105.256 43.45 105.501 43.0171C105.161 42.7086 103.895 41.5505 103.554 40.8416C103.368 40.452 103.325 40.1706 103.426 39.9866C103.506 39.8405 103.645 39.8243 103.66 39.8188C104.208 39.8243 104.767 40.2464 105.538 40.8254C106.305 41.399 107.262 42.1188 108.555 42.6924C110.885 43.7314 111.3 43.0983 111.577 42.6816L111.683 42.5246C111.992 42.0755 112.502 41.3233 113.375 41.6804C113.444 41.7075 113.476 41.7887 113.449 41.859C113.423 41.9294 113.343 41.9618 113.274 41.9348C112.646 41.675 112.279 42.1188 111.901 42.6816L111.8 42.8331C111.385 43.4554 110.784 43.9803 108.448 42.9413C107.129 42.3515 106.156 41.6263 105.379 41.0419C104.677 40.5169 104.118 40.1002 103.671 40.0894C103.682 40.0894 103.666 40.0948 103.65 40.1219C103.634 40.1598 103.591 40.3113 103.788 40.7226C104.15 41.4802 105.735 42.871 105.751 42.8872C105.799 42.9305 105.81 43.0063 105.778 43.0604C105.767 43.082 104.591 45.0518 105.022 46.2857C105.453 47.5249 108.018 48.7479 108.044 48.7587C108.108 48.7912 108.14 48.8724 108.108 48.9373C108.087 48.986 108.039 49.0131 107.986 49.0131H107.996Z" fill="black"/>
</g>
<path opacity="0.2" d="M114.274 48.4937L125.669 66.1245C125.669 66.1245 124.339 60.2151 114.274 48.4937Z" fill="black"/>
<path d="M86.9234 88.6421C86.9234 88.6421 91.5093 90.0761 91.871 90.9853C92.2328 91.8944 90.7325 91.6617 90.7325 91.6617C90.7325 91.6617 92.3658 92.0135 92.3232 92.652C92.27 93.4205 90.7006 93.1661 90.7006 93.1661C90.7006 93.1661 92.0253 93.5016 91.9455 94.0644C91.8604 94.6543 90.0728 94.4811 90.0728 94.4811C90.0728 94.4811 90.9613 94.8762 90.6581 95.2279C90.3548 95.5797 87.0192 95.3362 85.9658 94.5731C84.9124 93.8101 85.5934 89.535 85.902 88.6042C86.2105 87.6734 85.6679 86.7101 86.966 85.644L86.9287 88.6312L86.9234 88.6421Z" fill="#FFC3BD"/>
<path opacity="0.2" d="M90.7217 91.7319C90.7217 91.7319 90.7217 91.7319 90.7163 91.7319L87.8914 91.0014C87.8542 90.9906 87.8329 90.9527 87.8382 90.9148C87.8489 90.8769 87.8861 90.8553 87.9233 90.8607L90.7483 91.5913C90.7855 91.6021 90.8068 91.64 90.8014 91.6778C90.7908 91.7157 90.7589 91.7374 90.7217 91.7319Z" fill="black"/>
<path opacity="0.2" d="M90.6103 93.2256L87.8439 92.7169C87.8066 92.7115 87.78 92.6736 87.7853 92.6357C87.7907 92.5978 87.8226 92.5762 87.8652 92.5762L90.6315 93.0849C90.6688 93.0903 90.6954 93.1282 90.6901 93.166C90.6847 93.2039 90.6475 93.231 90.6103 93.2256Z" fill="black"/>
<path opacity="0.2" d="M89.9666 94.5408L87.9025 94.2161C87.8652 94.2107 87.8386 94.1728 87.8439 94.1349C87.8493 94.097 87.8865 94.07 87.9237 94.0754L89.9879 94.4001C90.0251 94.4055 90.0517 94.4434 90.0464 94.4813C90.0411 94.5191 90.0039 94.5462 89.9666 94.5408Z" fill="black"/>
</g>
<defs>
<clipPath id="clip0_754_22596">
<rect width="266" height="209" fill="white" transform="translate(0 0.0927734)"/>
</clipPath>
</defs>
</svg>
